<?xml version="1.0" standalone="no"?>
<!DOCTYPE svg PUBLIC "-//W3C//DTD SVG 1.1//EN" "http://www.w3.org/Graphics/SVG/1.1/DTD/svg11.dtd" >
<svg xmlns="http://www.w3.org/2000/svg" xmlns:xlink="http://www.w3.org/1999/xlink" version="1.1">
<metadata>
Created by FontForge 20170731 at Thu Sep  1 19:34:39 2011
 By Aleksey,,,
Copyright (c) 2009 by Dino dos Santos _DSType. All rights reserved.
</metadata>
<defs>
<font id="GlosaDisplay-Black" horiz-adv-x="600" >
  <font-face 
    font-family="Glosa Display Black"
    font-weight="900"
    font-stretch="normal"
    units-per-em="1000"
    panose-1="2 0 5 3 0 0 0 2 0 4"
    ascent="750"
    descent="-250"
    x-height="500"
    cap-height="700"
    bbox="-122 -356 1299.02 1005"
    underline-thickness="50"
    underline-position="-200"
    unicode-range="U+0020-FB06"
  />
<missing-glyph horiz-adv-x="590" 
d="M70 500h450v-500h-450v500zM287 249l-206 236v-469zM304 249l205 -231v465zM93 488l203 -229l202 229h-405zM296 240l-201 -228h401z" />
    <glyph glyph-name="ff" unicode="ff" horiz-adv-x="650" 
d="M240 500h150v10q0 83 70.5 151.5t159.5 68.5q47 0 73.5 -19.5t26.5 -50.5q0 -26 -17 -43.5t-48 -17.5q-32 0 -52 29t2 87h-10q-26 0 -35.5 -41t-9.5 -124v-50h110v-15h-110v-470l90 -5v-10h-310v10l60 5v470h-150v-470l60 -5v-10h-280v10l60 5v470h-60v10l60 5v10
q0 83 70.5 151.5t159.5 68.5q47 0 73.5 -19.5t26.5 -50.5q0 -26 -17 -43.5t-48 -17.5q-32 0 -52 29t2 87h-10q-26 0 -35.5 -41t-9.5 -124v-50z" />
    <glyph glyph-name="fi" unicode="fi" horiz-adv-x="610" 
d="M80 500v20q0 92 86 151t190 59q98 0 151 -40t53 -85q0 -31 -21 -53t-54 -22q-35 0 -52.5 19.5t-17.5 45.5q0 27 23.5 49t76.5 11v10q-21 21 -64.5 38t-90.5 17q-36 0 -60.5 -14.5t-37 -43t-17.5 -62t-5 -80.5v-20h60v-15h-60v-470l60 -5v-10h-280v10l60 5v470h-60v10z
M550 510v-495l60 -5v-10h-280v10l60 5v475h-50v10l200 10h10z" />
    <glyph glyph-name="fl" unicode="fl" horiz-adv-x="610" 
d="M550 730v-715l60 -5v-10h-280v10l60 5v625q0 80 -60 80q-29 0 -47.5 -14t-27.5 -43.5t-12 -61.5t-3 -81v-20h60v-15h-60v-470l60 -5v-10h-280v10l60 5v470h-60v10l60 5v20q0 94 74 152t176 58q44 0 110 -28l100 28h10z" />
    <glyph glyph-name="ffi" unicode="ffi" horiz-adv-x="920" 
d="M390 485h-150v-470l60 -5v-10h-280v10l60 5v470h-60v10l60 5v10q0 83 70.5 151.5t159.5 68.5q47 0 73.5 -19.5t26.5 -50.5q0 -26 -17 -43.5t-48 -17.5q-32 0 -52 29t2 87h-10q-26 0 -35.5 -41t-9.5 -124v-50h150v20q0 92 86 151t190 59q98 0 151 -40t53 -85
q0 -31 -21 -53t-54 -22q-35 0 -52.5 19.5t-17.5 45.5q0 27 23.5 49t76.5 11v10q-21 21 -64.5 38t-90.5 17q-36 0 -60.5 -14.5t-37 -43t-17.5 -62t-5 -80.5v-20h60v-15h-60v-470l60 -5v-10h-280v10l60 5v470zM860 510v-495l60 -5v-10h-280v10l60 5v475h-50v10l200 10h10z" />
    <glyph glyph-name="ffl" unicode="ffl" horiz-adv-x="920" 
d="M390 485h-150v-470l60 -5v-10h-280v10l60 5v470h-60v10l60 5v10q0 83 70.5 151.5t159.5 68.5q47 0 73.5 -19.5t26.5 -50.5q0 -26 -17 -43.5t-48 -17.5q-32 0 -52 29t2 87h-10q-26 0 -35.5 -41t-9.5 -124v-50h150v20q0 94 74 152t176 58q44 0 110 -28l100 28h10v-715
l60 -5v-10h-280v10l60 5v625q0 80 -60 80q-29 0 -47.5 -14t-27.5 -43.5t-12 -61.5t-3 -81v-20h60v-15h-60v-470l60 -5v-10h-280v10l60 5v470z" />
    <glyph glyph-name="T_h" unicode="Th" horiz-adv-x="1070" 
d="M1010 15l60 -5v-10h-260v10l40 5v365q0 80 -60 80q-11 0 -22.5 -4t-19.5 -8t-18.5 -13.5t-15 -13.5t-14 -14.5t-10.5 -11.5v-380l60 -5v-10h-280v10l60 5v669l-150 4v-673l60 -5v-10h-280v10l60 5v673l-80 -5l-110 -153h-10l5 170h521l134 30h10v-310h10q73 90 175 90
q57 0 96 -36.5t39 -113.5v-345z" />
    <glyph glyph-name="T_h.caron" unicode="&#x164;h" horiz-adv-x="1070" 
d="M1010 15l60 -5v-10h-260v10l40 5v365q0 80 -60 80q-11 0 -22.5 -4t-19.5 -8t-18.5 -13.5t-15 -13.5t-14 -14.5t-10.5 -11.5v-380l60 -5v-10h-280v10l60 5v669l-150 4v-673l60 -5v-10h-280v10l60 5v673l-80 -5l-110 -153h-10l5 170h521l134 30h10v-310h10q73 90 175 90
q57 0 96 -36.5t39 -113.5v-345zM168 930h10l125 -75l125 75h10l-130 -180h-10z" />
    <glyph glyph-name="T_h.commaaccent" unicode="&#x162;h" horiz-adv-x="1070" 
d="M1010 15l60 -5v-10h-260v10l40 5v365q0 80 -60 80q-11 0 -22.5 -4t-19.5 -8t-18.5 -13.5t-15 -13.5t-14 -14.5t-10.5 -11.5v-380l60 -5v-10h-280v10l60 5v669l-150 4v-673l60 -5v-10h-280v10l60 5v673l-80 -5l-110 -153h-10l5 170h521l134 30h10v-310h10q73 90 175 90
q57 0 96 -36.5t39 -113.5v-345zM217 -170v120q78 11 116.5 -19t38.5 -87q0 -70 -44 -124.5t-97 -73.5l-4 10q40 14 64.5 43.5t27 58t-24 50.5t-77.5 22z" />
    <glyph glyph-name="f_f_j" unicode="ffj" horiz-adv-x="900" 
d="M390 485h-150v-470l60 -5v-10h-280v10l60 5v470h-60v10l60 5v10q0 83 70.5 151.5t159.5 68.5q47 0 73.5 -19.5t26.5 -50.5q0 -26 -17 -43.5t-48 -17.5q-32 0 -52 29t2 87h-10q-26 0 -35.5 -41t-9.5 -124v-50h150v20q0 92 86 151t190 59q98 0 151 -40t53 -85
q0 -31 -21 -53t-54 -22q-35 0 -52.5 19.5t-17.5 45.5q0 27 23.5 49t76.5 11v10q-21 21 -64.5 38t-90.5 17q-36 0 -60.5 -14.5t-37 -43t-17.5 -62t-5 -80.5v-20h60v-15h-60v-470l60 -5v-10h-280v10l60 5v470zM860 510v-520q0 -83 -70.5 -151.5t-159.5 -68.5q-47 0 -73.5 19.5
t-26.5 50.5q0 26 17 43.5t48 17.5q32 0 52 -29t-2 -87h10q27 0 36 47t9 158v500h-50v10l200 10h10z" />
    <glyph glyph-name="f_j" unicode="fj" horiz-adv-x="590" 
d="M80 500v20q0 92 86 151t190 59q98 0 151 -40t53 -85q0 -31 -21 -53t-54 -22q-35 0 -52.5 19.5t-17.5 45.5q0 27 23.5 49t76.5 11v10q-21 21 -64.5 38t-90.5 17q-36 0 -60.5 -14.5t-37 -43t-17.5 -62t-5 -80.5v-20h60v-15h-60v-470l60 -5v-10h-280v10l60 5v470h-60v10z
M550 510v-520q0 -83 -70.5 -151.5t-159.5 -68.5q-47 0 -73.5 19.5t-26.5 50.5q0 26 17 43.5t48 17.5q32 0 52 -29t-2 -87h10q27 0 36 47t9 158v500h-50v10l200 10h10z" />
    <glyph glyph-name=".notdef" horiz-adv-x="590" 
d="M70 500h450v-500h-450v500zM287 249l-206 236v-469zM304 249l205 -231v465zM93 488l203 -229l202 229h-405zM296 240l-201 -228h401z" />
    <glyph glyph-name=".notdef" horiz-adv-x="590" 
d="M70 500h450v-500h-450v500zM287 249l-206 236v-469zM304 249l205 -231v465zM93 488l203 -229l202 229h-405zM296 240l-201 -228h401z" />
    <glyph glyph-name=".null" horiz-adv-x="0" 
 />
    <glyph glyph-name="nonmarkingreturn" horiz-adv-x="333" 
 />
    <glyph glyph-name="space" unicode=" " horiz-adv-x="230" 
 />
    <glyph glyph-name="exclam" unicode="!" horiz-adv-x="320" 
d="M87 63q0 30 21.5 51.5t51.5 21.5t51.5 -21.5t21.5 -51.5t-21.5 -51.5t-51.5 -21.5t-51.5 21.5t-21.5 51.5zM166 200h-10l-70 500h146z" />
    <glyph glyph-name="quotedbl" unicode="&#x22;" horiz-adv-x="416" 
d="M130 555l-50 205h106l-50 -205h-6zM280 555l-50 205h106l-50 -205h-6z" />
    <glyph glyph-name="numbersign" unicode="#" horiz-adv-x="560" 
d="M30 195h162v145h-162v15h162v163h15v-163h145v163h15v-163h163v-15h-163v-145h163v-15h-163v-162h-15v162h-145v-162h-15v162h-162v15zM207 340v-145h145v145h-145z" />
    <glyph glyph-name="dollar" unicode="$" horiz-adv-x="560" 
d="M285 -100v91q-3 0 -8 -0.5t-7 -0.5q-113 0 -171.5 42.5t-58.5 98.5q0 28 17.5 48.5t49.5 20.5q47 0 63 -41q15 -37 -11 -65q-25 -28 -76 -19v-10q60 -65 167 -65q13 0 35 2v268q-28 14 -42 20q-44 19 -74.5 36.5t-61.5 43.5t-46.5 61t-15.5 79q0 93 67.5 146t172.5 54v90
h10v-90q97 -2 150 -44.5t53 -96.5q0 -28 -17.5 -48.5t-49.5 -20.5q-47 0 -63 41q-15 37 11 65q25 28 76 19v10q-59 62 -160 65v-251q4 -2 10 -4q43 -17 76.5 -36t67.5 -47t52.5 -67t18.5 -85q0 -99 -65.5 -155.5t-159.5 -63.5v-91h-10zM170 585q0 -47 30 -77.5t85 -54.5v247
q-17 0 -35 -5.5t-37 -17.5t-31 -36t-12 -56zM395 130q0 80 -100 135v-261q100 21 100 126z" />
    <glyph glyph-name="percent" unicode="%" horiz-adv-x="980" 
d="M626 700h14l-286 -700h-15zM581 145q1 64 47 109.5t111 45.5q62 0 106.5 -45.5t43.5 -109.5q-2 -65 -48 -110t-111 -45q-61 0 -105.5 45.5t-43.5 109.5zM675 145q0 -83 13 -113.5t47 -30.5q60 0 60 144t-60 144t-60 -144zM91 555q1 64 47 109.5t111 45.5
q62 0 106.5 -45.5t43.5 -109.5q-2 -65 -48 -110t-111 -45q-61 0 -105.5 45.5t-43.5 109.5zM185 555q0 -144 60 -144t60 144t-60 144t-60 -144z" />
    <glyph glyph-name="ampersand" unicode="&#x26;" horiz-adv-x="790" 
d="M187 205q0 -71 31.5 -118t91.5 -47q73 0 130 34l-220 273q-33 -64 -33 -142zM385 590q0 110 -65 110q-62 0 -62 -104q0 -84 76 -167q51 52 51 161zM502 0l-55 65q-79 -75 -182 -75q-90 0 -152.5 51t-62.5 136q0 105 165 178q-52 57 -71.5 104t-19.5 99q0 68 58 110
t134 42q69 0 120.5 -38t51.5 -99q0 -45 -38.5 -86t-110.5 -65l191 -239q45 76 67 177l-117 45v10h240v-10l-110 -45q-26 -115 -73 -187l143 -158l18 -5v-10h-196z" />
    <glyph glyph-name="quotesingle" unicode="'" horiz-adv-x="266" 
d="M130 555l-50 205h106l-50 -205h-6z" />
    <glyph glyph-name="parenleft" unicode="(" horiz-adv-x="375" 
d="M195 295q0 -146 31.5 -295t98.5 -265h-10q-112 110 -168.5 260.5t-56.5 299.5t56.5 299.5t168.5 260.5h10q-67 -116 -98.5 -265t-31.5 -295z" />
    <glyph glyph-name="parenright" unicode=")" horiz-adv-x="375" 
d="M180 295q0 146 -31.5 295t-98.5 265h10q112 -110 168.5 -260.5t56.5 -299.5t-56.5 -299.5t-168.5 -260.5h-10q67 116 98.5 265t31.5 295z" />
    <glyph glyph-name="asterisk" unicode="*" horiz-adv-x="442" 
d="M121 668q17 18 34 1q2 -2 61 -94q0 10 -9.5 58.5t-9.5 52.5q0 10 6.5 17t17.5 7q25 0 25 -24q0 -4 -10 -53t-10 -58q59 92 61 94q17 17 34 0t0 -35l-93 -62q10 0 57.5 10.5t51.5 10.5q11 0 18 -7.5t7 -17.5t-7 -17t-18 -7q-4 0 -51.5 9t-56.5 9q4 -2 26.5 -16.5
t41.5 -26.5t23 -15q8 -8 8 -18t-8 -17q-18 -17 -35 0q-3 3 -59 90q0 -9 10 -55.5t10 -50.5q0 -11 -7 -18t-18 -7q-10 0 -17 7t-7 18q0 4 9.5 50.5t9.5 56.5q-58 -90 -59 -91q-7 -7 -18 -7t-18 7q-17 17 1 35q3 3 22 15t42 26.5t27 16.5q-10 0 -58 -9t-51 -9q-10 0 -17 7
t-7 17q0 11 7 18t17 7q4 0 52.5 -10.5t57.5 -10.5q-82 49 -93 62q-17 17 0 34z" />
    <glyph glyph-name="plus" unicode="+" horiz-adv-x="560" 
d="M287 458v-183h183v-15h-183v-182h-15v182h-182v15h182v183h15z" />
    <glyph glyph-name="comma" unicode="," horiz-adv-x="335" 
d="M90 10v120q78 11 116.5 -19t38.5 -87q0 -70 -44 -124.5t-97 -73.5l-4 10q40 14 64.5 43.5t27 58t-24 50.5t-77.5 22z" />
    <glyph glyph-name="hyphen" unicode="-" horiz-adv-x="510" 
d="M90 285h330v-25h-330v25z" />
    <glyph glyph-name="period" unicode="." horiz-adv-x="320" 
d="M87 63q0 30 21.5 51.5t51.5 21.5t51.5 -21.5t21.5 -51.5t-21.5 -51.5t-51.5 -21.5t-51.5 21.5t-21.5 51.5z" />
    <glyph glyph-name="slash" unicode="/" horiz-adv-x="480" 
d="M335 710h20l-210 -710h-20z" />
    <glyph glyph-name="zero" unicode="0" 
d="M40 350q0 88 28.5 168.5t89.5 136t142 55.5t142 -55.5t89.5 -136t28.5 -168.5t-28.5 -168.5t-89.5 -136t-142 -55.5t-142 53t-89.5 133.5t-28.5 173.5zM210 350q0 -181 20 -265.5t70 -84.5t70 84.5t20 265.5t-20 265.5t-70 84.5t-70 -84.5t-20 -265.5z" />
    <glyph glyph-name="one" unicode="1" horiz-adv-x="420" 
d="M30 10l100 5v655l-100 -15v10l250 45h10v-695l100 -5v-10h-360v10z" />
    <glyph glyph-name="two" unicode="2" horiz-adv-x="510" 
d="M180 125v-10l310 5v-120h-460v10q62 45 111 92t80 85t53 80.5t32.5 70.5t16.5 64.5t6.5 53t0.5 44.5q0 81 -31.5 133t-93.5 52q-70 0 -120 -50v-10q60 14 83 -28q19 -34 -2 -67q-20 -30 -61 -30q-25 0 -45 18t-20 52q0 53 59.5 96.5t155.5 43.5q64 0 111 -18t72 -48.5
t36 -63.5t11 -69q0 -35 -11.5 -73t-41 -89.5t-94.5 -109.5t-158 -114z" />
    <glyph glyph-name="three" unicode="3" horiz-adv-x="535" 
d="M215 0q58 0 90.5 47t32.5 141q0 72 -35.5 126t-92.5 54h-19v12h19q112 0 112 146q0 53 -30.5 91t-81.5 38q-35 0 -61.5 -12.5t-44 -37.5t-25.5 -41.5t-19 -45.5h-10q18 75 73.5 133.5t141.5 58.5q93 0 148.5 -43t55.5 -115q0 -67 -54 -115t-163 -61v-5q115 -4 179 -49
t64 -127q0 -98 -77 -151.5t-193 -53.5q-95 0 -145 43.5t-50 101.5q0 29 19.5 47t48.5 18q46 0 62 -40q17 -39 -12 -69q-24 -27 -72 -26v-10q15 -19 51 -37t88 -18z" />
    <glyph glyph-name="four" unicode="4" horiz-adv-x="570" 
d="M470 172h70v-12h-70v-160h-160v160h-280v16l328 494l112 40v-538zM300 565l-250 -383v-10h260v393h-10z" />
    <glyph glyph-name="five" unicode="5" horiz-adv-x="535" 
d="M225 -10q-94 0 -144.5 44t-50.5 101q0 27 19 46t51 19q43 0 60 -39q16 -39 -10 -69q-25 -28 -78 -22v-10q56 -60 143 -60q65 0 95 58.5t30 141.5q0 81 -53.5 142.5t-161.5 61.5h-20l10 296h355v-130h-348l-6 -157q89 26 153.5 19.5t108 -28t69.5 -58.5t37 -71.5t11 -67.5
q0 -96 -72.5 -156.5t-197.5 -60.5z" />
    <glyph glyph-name="six" unicode="6" horiz-adv-x="565" 
d="M355 210q0 95 -15.5 150.5t-59.5 55.5q-34 0 -70 -39q-8 -87 -7.5 -170.5t22.5 -145t60 -61.5q41 0 55.5 53.5t14.5 156.5zM211 405l8 -3q14 13 44 25.5t67 12.5q93 0 144 -63.5t51 -155.5q0 -101 -73 -166t-168 -65q-110 0 -177 80.5t-67 196.5q0 166 105.5 288.5
t267.5 154.5l2 -10q-79 -21 -140 -109.5t-64 -185.5z" />
    <glyph glyph-name="seven" unicode="7" horiz-adv-x="490" 
d="M420 580v10l-360 -10l-20 -60h-10l5 180h435v-10l-212 -690h-160z" />
    <glyph glyph-name="eight" unicode="8" horiz-adv-x="565" 
d="M360 552q0 65 -19 106.5t-55 41.5t-53.5 -39.5t-17.5 -99.5q0 -14 2.5 -27t6 -23.5t10 -20.5t12 -17t14 -14.5t14 -12t14.5 -10t13 -7.5t11.5 -6t8.5 -4q39 47 39 133zM365 154q0 53 -31 88t-104 69q-40 -64 -40 -137q0 -78 25.5 -126t70.5 -48q41 0 60 43.5t19 110.5z
M520 191q0 -95 -70.5 -148t-175.5 -53q-102 0 -165.5 46.5t-63.5 133.5q0 58 42 99t133 49q-150 74 -150 208q0 85 63.5 134.5t156.5 49.5q84 0 142 -43.5t58 -122.5q0 -50 -43 -86.5t-118 -44.5q191 -74 191 -222z" />
    <glyph glyph-name="nine" unicode="9" horiz-adv-x="565" 
d="M210 490q0 -95 15.5 -150.5t59.5 -55.5q34 0 70 39q8 87 7.5 170.5t-22.5 145t-60 61.5q-41 0 -55.5 -53.5t-14.5 -156.5zM354 295l-8 3q-14 -13 -44 -25.5t-67 -12.5q-93 0 -144 63.5t-51 155.5q0 101 73 166t168 65q110 0 177 -80.5t67 -196.5q0 -166 -105.5 -288.5
t-267.5 -154.5l-2 10q79 21 140 109.5t64 185.5z" />
    <glyph glyph-name="colon" unicode=":" horiz-adv-x="320" 
d="M87 111q0 30 21.5 51.5t51.5 21.5t51.5 -21.5t21.5 -51.5t-21.5 -51.5t-51.5 -21.5t-51.5 21.5t-21.5 51.5zM87 390q0 30 21.5 51.5t51.5 21.5t51.5 -21.5t21.5 -51.5t-21.5 -51.5t-51.5 -21.5t-51.5 21.5t-21.5 51.5z" />
    <glyph glyph-name="semicolon" unicode=";" horiz-adv-x="335" 
d="M92 390q0 30 21.5 51.5t51.5 21.5t51.5 -21.5t21.5 -51.5t-21.5 -51.5t-51.5 -21.5t-51.5 21.5t-21.5 51.5zM90 10v120q78 11 116.5 -19t38.5 -87q0 -70 -44 -124.5t-97 -73.5l-4 10q40 14 64.5 43.5t27 58t-24 50.5t-77.5 22z" />
    <glyph glyph-name="less" unicode="&#x3c;" horiz-adv-x="480" 
d="M380 453l-174 -184l174 -186v-10l-290 185v20l290 185v-10z" />
    <glyph glyph-name="equal" unicode="=" horiz-adv-x="560" 
d="M90 345h380v-15h-380v15zM90 205h380v-15h-380v15z" />
    <glyph glyph-name="greater" unicode="&#x3e;" horiz-adv-x="480" 
d="M100 83l174 186l-174 184v10l290 -185v-20l-290 -185v10z" />
    <glyph glyph-name="question" unicode="?" horiz-adv-x="536" 
d="M177 63q0 30 21.5 51.5t51.5 21.5t51.5 -21.5t21.5 -51.5t-21.5 -51.5t-51.5 -21.5t-51.5 21.5t-21.5 51.5zM496 530q0 -63 -53.5 -115.5t-181.5 -69.5l-5 -145h-10l-5 152q59 20 87 66.5t28 101.5q0 72 -40.5 118.5t-110.5 46.5t-110 -50v-10q63 11 84 -32
q17 -35 -8 -67q-19 -26 -56 -26q-27 0 -46 19t-19 46q0 65 64.5 105t160.5 40q107 0 164 -53t57 -127z" />
    <glyph glyph-name="at" unicode="@" horiz-adv-x="884" 
d="M549 249q11 59 1.5 86t-32.5 27q-67 0 -103 -155q-19 -67 -12.5 -125t42.5 -58q29 0 44.5 16t27.5 53q12 38 32 156zM571 315l105 60h10l-48 -258q-12 -61 -6 -78q7 -20 32 -20q50 0 100 69.5t50 170.5q0 75 -29 133.5t-77.5 93t-106.5 51.5t-123 17q-85 0 -149.5 -55
t-96.5 -140.5t-32 -185.5q0 -151 62.5 -238.5t195.5 -87.5q60 0 128.5 25.5t118.5 65.5l5 -8q-54 -45 -129.5 -70.5t-153.5 -25.5q-144 0 -255.5 99.5t-111.5 237.5q0 97 36.5 174t97 124t134 71t152.5 24q65 0 125 -18.5t109.5 -54t79.5 -94.5t30 -134q0 -126 -67.5 -198.5
t-155.5 -72.5q-38 0 -57.5 21t-21.5 53q-15 -33 -46.5 -54.5t-64.5 -21.5q-39 0 -67.5 23t-40 57.5t-13.5 75t13 76.5q24 68 79.5 116t112.5 48q35 0 54 -22t19 -49h3z" />
    <glyph glyph-name="A" unicode="A" horiz-adv-x="700" 
d="M128 55l112 -45v-10h-240v10l112 45l190 590l91 65l263 -695l44 -5v-10h-300v10l74 5l-79 235h-206zM296 555h-10l-94 -293h200z" />
    <glyph glyph-name="B" unicode="B" horiz-adv-x="620" 
d="M250 690v-322h20q125 0 125 152q0 86 -22 128t-73 42h-50zM290 358h-40v-348h70q57 0 81 46t24 134q0 168 -135 168zM330 368v-2q76 0 130.5 -17t81 -45.5t37.5 -57t11 -61.5q0 -84 -60 -134.5t-170 -50.5h-330v10l60 5v670l-60 5v10h300q110 0 170 -46.5t60 -123.5
q0 -64 -58 -108.5t-172 -53.5z" />
    <glyph glyph-name="C" unicode="C" horiz-adv-x="650" 
d="M610 50q-36 -23 -99 -41.5t-131 -18.5q-156 0 -253 100.5t-97 259.5t97 259.5t253 100.5q68 0 131 -18.5t99 -41.5l5 -170h-10l-70 120q-20 37 -56 68.5t-79 31.5q-98 0 -149 -89t-51 -261q0 -175 48.5 -262.5t151.5 -87.5q43 0 81.5 32.5t58.5 67.5l70 120h10z" />
    <glyph glyph-name="D" unicode="D" horiz-adv-x="740" 
d="M250 10h90q51 0 91 30.5t63 80.5t34.5 108.5t11.5 120.5q0 149 -52.5 244.5t-157.5 95.5h-80v-680zM340 0h-310v10l60 5v670l-60 5v10h310q164 0 267 -94t103 -256q0 -154 -104 -252t-266 -98z" />
    <glyph glyph-name="E" unicode="E" 
d="M250 690v-335l140 5l55 120h10v-255h-10l-55 115l-140 5v-335l195 5l115 155h10l-10 -170h-530v10l60 5v670l-60 5v10h520l5 -170h-10l-110 155z" />
    <glyph glyph-name="F" unicode="F" horiz-adv-x="575" 
d="M250 690v-355l140 5l55 120h10v-255h-10l-55 115l-140 5v-310l60 -5v-10h-280v10l60 5v670l-60 5v10h520l5 -170h-10l-110 155z" />
    <glyph glyph-name="G" unicode="G" horiz-adv-x="710" 
d="M30 350q0 159 97 259.5t253 100.5q68 0 131 -18.5t99 -41.5l5 -170h-10l-70 120q-19 35 -57 67.5t-78 32.5q-98 0 -149 -89t-51 -261q0 -164 48.5 -257t131.5 -93q61 0 100 30v245l-60 5v10h270v-10l-50 -5v-205q-35 -27 -113.5 -53.5t-146.5 -26.5q-156 0 -253 100.5
t-97 259.5z" />
    <glyph glyph-name="H" unicode="H" horiz-adv-x="780" 
d="M530 15v335h-280v-335l60 -5v-10h-280v10l60 5v670l-60 5v10h280v-10l-60 -5v-323h280v323l-60 5v10h280v-10l-60 -5v-670l60 -5v-10h-280v10z" />
    <glyph glyph-name="I" unicode="I" horiz-adv-x="340" 
d="M30 10l60 5v670l-60 5v10h280v-10l-60 -5v-670l60 -5v-10h-280v10z" />
    <glyph glyph-name="J" unicode="J" horiz-adv-x="430" 
d="M190 170v515l-60 5v10h280v-10l-60 -5v-475q0 -83 -70.5 -151.5t-159.5 -68.5q-47 0 -73.5 19.5t-26.5 50.5q0 43 40 57q38 14 66 -11q36 -32 9 -101h10q26 0 35.5 41t9.5 124z" />
    <glyph glyph-name="K" unicode="K" horiz-adv-x="735" 
d="M300 360l226 285l-111 45v10h270v-10l-139 -45l-161 -195l281 -435l59 -5v-10h-320v10l66 5l-201 335h-20v-335l60 -5v-10h-280v10l60 5v670l-60 5v10h280v-10l-60 -5v-325h50z" />
    <glyph glyph-name="L" unicode="L" horiz-adv-x="580" 
d="M250 10l195 5l115 155h10l-10 -170h-530v10l60 5v670l-60 5v10h280v-10l-60 -5v-675z" />
    <glyph glyph-name="M" unicode="M" horiz-adv-x="880" 
d="M485 255h10l135 445h220v-10l-60 -5v-670l60 -5v-10h-280v10l60 5v615h-10l-190 -635h-20l-250 595h-10l5 -535l115 -45v-10h-240v10l110 45v630l-110 5v10h265z" />
    <glyph glyph-name="N" unicode="N" horiz-adv-x="730" 
d="M578 265h10l-3 380l-115 45v10h240v-10l-110 -45v-650h-20l-419 595h-10l4 -535l115 -45v-10h-240v10l110 45v630l-110 5v10h250z" />
    <glyph glyph-name="O" unicode="O" horiz-adv-x="780" 
d="M30 350q0 154 107.5 257t252.5 103t252.5 -103t107.5 -257t-107.5 -257t-252.5 -103t-252.5 103t-107.5 257zM200 350q0 -350 190 -350t190 350t-190 350t-190 -350z" />
    <glyph glyph-name="P" unicode="P" horiz-adv-x="610" 
d="M250 300h40q74 0 104.5 47t30.5 153q0 100 -23.5 145t-81.5 45h-70v-390zM310 290h-60v-275l60 -5v-10h-280v10l60 5v670l-60 5v10h330q110 0 170 -52.5t60 -137.5q0 -40 -15 -77t-46 -70t-87.5 -53t-131.5 -20z" />
    <glyph glyph-name="Q" unicode="Q" horiz-adv-x="780" 
d="M280 7v-7l490 -145v-10l-160 -75l-425 285q-67 45 -111 125t-44 170q0 154 107.5 257t252.5 103t252.5 -103t107.5 -257q0 -119 -69 -212.5t-179 -130.5t-222 0zM200 350q0 -350 190 -350t190 350t-190 350t-190 -350z" />
    <glyph glyph-name="R" unicode="R" horiz-adv-x="670" 
d="M275 320h-25v-305l60 -5v-10h-280v10l60 5v670l-60 5v10h320q110 0 170 -52.5t60 -137.5q0 -30 -11 -58.5t-35 -55t-68.5 -43t-105.5 -18.5v-10q36 -2 69 -22t48 -37.5t25 -33.5l128 -217l30 -5v-10h-210zM250 330h40q71 0 98 41.5t27 128.5q0 190 -105 190h-60v-360z
" />
    <glyph glyph-name="S" unicode="S" horiz-adv-x="540" 
d="M65 50l-10 -55h-10l-5 225h10l30 -70q64 -150 178 -150q52 0 89.5 32t37.5 98q0 57 -41 93.5t-111 66.5q-45 19 -75.5 36t-62.5 43.5t-48.5 61.5t-16.5 79q0 93 70 146.5t177 53.5q45 0 93.5 -13.5t79.5 -33.5l10 42h10l5 -210h-10l-30 65q-33 73 -70 106.5t-87 33.5
q-15 0 -33.5 -5t-40 -16.5t-35.5 -36t-14 -57.5q0 -51 37 -82t103 -58q43 -17 76.5 -36t67.5 -47t52.5 -67t18.5 -85q0 -107 -72 -163.5t-180 -56.5q-99 0 -193 60z" />
    <glyph glyph-name="T" unicode="T" 
d="M20 530l5 170h550l5 -170h-10l-110 153l-80 5v-673l60 -5v-10h-280v10l60 5v673l-80 -5l-110 -153h-10z" />
    <glyph glyph-name="U" unicode="U" horiz-adv-x="760" 
d="M610 270v375l-110 45v10h240v-10l-115 -45v-375q0 -135 -64 -207.5t-186 -72.5q-144 0 -219.5 74t-75.5 206v415l-60 5v10h280v-10l-60 -5v-445q0 -114 48 -167t132 -53q96 0 143 69t47 181z" />
    <glyph glyph-name="V" unicode="V" horiz-adv-x="700" 
d="M305 -5l-261 690l-44 5v10h300v-10l-74 -5l178 -530h10l158 490l-112 45v10h240v-10l-112 -45l-213 -650h-70z" />
    <glyph glyph-name="W" unicode="W" horiz-adv-x="1010" 
d="M501 396l-20 -57l-121 -344h-80l-236 690l-44 5v10h290v-10l-64 -5l166 -530h10l90 266l-88 264l-44 5v10h290v-10l-64 -5l158 -530h10l128 490l-112 45v10h240v-10l-112 -45l-173 -650h-90z" />
    <glyph glyph-name="X" unicode="X" horiz-adv-x="710" 
d="M295 299l-215 386l-55 5v10h305v-10l-62 -5l144 -256l143 216l-115 45v10h245v-10l-110 -45l-156 -228l226 -402l55 -5v-10h-315v10l70 5l-153 272l-162 -232l125 -45v-10h-255v10l110 45z" />
    <glyph glyph-name="Y" unicode="Y" horiz-adv-x="680" 
d="M265 15v228l-215 442l-50 5v10h290v-10l-55 -5l175 -365h10l135 325l-105 45v10h230v-10l-105 -45l-150 -349v-281l60 -5v-10h-280v10z" />
    <glyph glyph-name="Z" unicode="Z" 
d="M560 690l-335 -670v-10l220 5l115 155h10l-15 -170h-525v10l345 670v10l-200 -5l-115 -155h-10l5 170h505v-10z" />
    <glyph glyph-name="bracketleft" unicode="[" horiz-adv-x="380" 
d="M210 -250h140v-10h-270v1115h270v-10h-140v-1095z" />
    <glyph glyph-name="backslash" unicode="\" horiz-adv-x="480" 
d="M335 0l-210 710h20l210 -710h-20z" />
    <glyph glyph-name="bracketright" unicode="]" horiz-adv-x="380" 
d="M80 -260v10h140v1095h-140v10h270v-1115h-270z" />
    <glyph glyph-name="asciicircum" unicode="^" horiz-adv-x="510" 
d="M255 605l-145 -115h-10l150 230h10l150 -230h-10z" />
    <glyph glyph-name="underscore" unicode="_" horiz-adv-x="610" 
d="M90 -40h430v-25h-430v25z" />
    <glyph glyph-name="grave" unicode="`" horiz-adv-x="369" 
d="M254 550l-164 180h129l45 -180h-10z" />
    <glyph glyph-name="a" unicode="a" horiz-adv-x="510" 
d="M290 60v200l-41 -15q-34 -13 -51.5 -33.5t-17.5 -66.5q0 -44 18.5 -69.5t51.5 -25.5q20 0 40 10zM290 -10v55h-10q-37 -29 -67.5 -42t-72.5 -13q-55 0 -87.5 31.5t-32.5 78.5q0 78 130 125l140 45v130q0 51 -21.5 70.5t-68.5 19.5q-23 0 -55 -13.5t-50 -31.5v-10
q50 5 71 -26.5t2.5 -65t-63.5 -33.5q-27 0 -46 19t-19 46q0 55 68 95t152 40q36 0 67.5 -7t60 -22.5t45.5 -46.5t17 -74v-350h60v-10l-210 -10h-10z" />
    <glyph glyph-name="b" unicode="b" horiz-adv-x="580" 
d="M210 440v-390q33 -25 70 -25q26 0 43 7.5t34 29.5t25 69t8 119q0 69 -8.5 115t-24.5 69t-34 32t-43 9q-35 0 -70 -35zM50 -10v720h-50v10q50 2 150 8l50 2h10v-270h10q50 50 130 50q96 0 153 -73t57 -187q0 -113 -61.5 -186.5t-158.5 -73.5q-69 0 -120 40h-10l-150 -40
h-10z" />
    <glyph glyph-name="c" unicode="c" horiz-adv-x="510" 
d="M275 -10q-119 0 -187 74t-68 181q0 121 83 193t192 72q84 0 134.5 -38.5t50.5 -96.5q0 -27 -19 -46t-46 -19q-49 0 -66 41q-15 36 11 64q25 26 75 20v10q-40 50 -115 50q-63 0 -102.5 -54.5t-39.5 -159.5q0 -92 47.5 -139t114.5 -47q48 0 85.5 22.5t54.5 52.5h10
q-17 -75 -72.5 -127.5t-142.5 -52.5z" />
    <glyph glyph-name="d" unicode="d" 
d="M530 10h60v-10l-210 -10h-10v50h-10q-50 -50 -130 -50q-96 0 -153 73t-57 187q0 113 61.5 186.5t158.5 73.5q69 0 120 -40h10v240h-50v10l200 10h10v-720zM370 60v390q-33 25 -70 25q-26 0 -43 -7.5t-34 -29.5t-25 -69t-8 -119q0 -69 8.5 -115t24.5 -69t34 -32t43 -9
q35 0 70 35z" />
    <glyph glyph-name="e" unicode="e" horiz-adv-x="510" 
d="M480 290h-302q5 -98 52 -146.5t110 -48.5q48 0 85.5 22.5t54.5 52.5h10q-17 -75 -72.5 -127.5t-142.5 -52.5q-119 0 -187 74t-68 181q0 65 23.5 117t62.5 83.5t85 48t94 16.5q31 0 59.5 -5.5t59 -20t48.5 -39.5t28.5 -63t-0.5 -92zM280 500q-93 0 -100 -200l155 5
q19 74 10.5 117.5t-25.5 60.5t-40 17z" />
    <glyph glyph-name="f" unicode="f" horiz-adv-x="340" 
d="M80 15v470h-60v10l60 5v10q0 83 70.5 151.5t159.5 68.5q47 0 73.5 -19.5t26.5 -50.5q0 -26 -17 -43.5t-48 -17.5q-32 0 -52 29t2 87h-10q-26 0 -35.5 -41t-9.5 -124v-50h110v-15h-110v-470l90 -5v-10h-310v10z" />
    <glyph glyph-name="g" unicode="g" horiz-adv-x="545" 
d="M155 170v10q-49 16 -87 60.5t-38 95.5q0 77 62.5 125.5t157.5 48.5q64 0 132 -29q42 48 103 48q31 0 50.5 -17t19.5 -43q0 -40 -36 -49q-34 -9 -57 16q-27 30 -1 80q-34 4 -72 -40q35 -24 55.5 -61t20.5 -76q0 -81 -60 -130t-155 -49q-52 0 -80 14q-20 -20 -20 -36
q0 -9 3.5 -14t20.5 -10.5t51 -7.5l139 -9q86 -6 126 -40t40 -87q0 -80 -82 -140t-218 -60q-123 0 -171.5 26.5t-48.5 77.5q0 65 112 96v10q-19 6 -32.5 12t-29 25t-15.5 46q0 65 110 107zM310 -40l-175 15q-30 -40 -30 -90q0 -51 40 -78t105 -27q81 0 125.5 30t44.5 72
q0 37 -27 55t-83 23zM185 335q12 -165 70 -165q37 0 49 37.5t6 130.5q-6 94 -20.5 128t-44.5 34q-72 0 -60 -165z" />
    <glyph glyph-name="h" unicode="h" horiz-adv-x="620" 
d="M560 15l60 -5v-10h-260v10l40 5v365q0 80 -60 80q-43 0 -100 -65v-380l60 -5v-10h-280v10l60 5v695h-50v10l200 10h10v-310h10q75 90 175 90q57 0 96 -36.5t39 -113.5v-345z" />
    <glyph glyph-name="i" unicode="i" horiz-adv-x="300" 
d="M70 660q0 38 26 64t64 26t64 -26t26 -64t-26 -64t-64 -26t-64 26t-26 64zM240 510v-495l60 -5v-10h-280v10l60 5v475h-50v10l200 10h10z" />
    <glyph glyph-name="j" unicode="j" horiz-adv-x="280" 
d="M240 510v-520q0 -83 -70.5 -151.5t-159.5 -68.5q-47 0 -73.5 19.5t-26.5 50.5q0 26 17 43.5t48 17.5q32 0 52 -29t-2 -87h10q27 0 36 47t9 158v500h-50v10l200 10h10zM70 660q0 38 26 64t64 26t64 -26t26 -64t-26 -64t-64 -26t-64 26t-26 64z" />
    <glyph glyph-name="k" unicode="k" horiz-adv-x="620" 
d="M240 730v-450h20l185 185l-95 25v10h235v-10l-120 -25l-90 -85l200 -365l35 -5v-10h-260v10l35 5l-125 255h-20v-255l50 -5v-10h-270v10l60 5v695h-50v10l200 10h10z" />
    <glyph glyph-name="l" unicode="l" horiz-adv-x="300" 
d="M240 730v-715l60 -5v-10h-280v10l60 5v695h-50v10l200 10h10z" />
    <glyph glyph-name="m" unicode="m" horiz-adv-x="920" 
d="M415 510q45 0 81 -24.5t48 -75.5h8q36 52 77 76t96 24q57 0 96 -36.5t39 -113.5v-345l60 -5v-10h-260v10l40 5v365q0 80 -60 80q-41 0 -90 -70v-375l60 -5v-10h-260v10l40 5v365q0 80 -60 80q-21 0 -40.5 -15.5t-49.5 -49.5v-380l60 -5v-10h-280v10l60 5v475h-50v10
l200 10h10v-90h10q35 46 73.5 68t91.5 22z" />
    <glyph glyph-name="n" unicode="n" horiz-adv-x="620" 
d="M560 15l60 -5v-10h-260v10l40 5v365q0 80 -60 80q-43 0 -100 -65v-380l60 -5v-10h-280v10l60 5v475h-50v10l200 10h10v-90h10q75 90 175 90q57 0 96 -36.5t39 -113.5v-345z" />
    <glyph glyph-name="o" unicode="o" horiz-adv-x="560" 
d="M280 500q-52 0 -71 -64t-19 -186q0 -59 3.5 -100.5t13 -77.5t27.5 -54t46 -18t46 18t27.5 54t13 77.5t3.5 100.5q0 122 -19 186t-71 64zM280 -10q-108 0 -184 69t-76 191t76 191t184 69t184 -69t76 -191t-76 -191t-184 -69z" />
    <glyph glyph-name="p" unicode="p" horiz-adv-x="590" 
d="M230 30h-10v-235l60 -5v-10h-280v10l60 5v695h-50v10l200 10h10v-50h10q50 50 130 50q96 0 153 -73t57 -187q0 -113 -61.5 -186.5t-158.5 -73.5q-69 0 -120 40zM220 440v-390q33 -25 70 -25q26 0 43 7.5t34 29.5t25 69t8 119q0 69 -8.5 115t-24.5 69t-34 32t-43 9
q-35 0 -70 -35z" />
    <glyph glyph-name="q" unicode="q" horiz-adv-x="570" 
d="M370 60v390q-33 25 -70 25q-26 0 -43 -7.5t-34 -29.5t-25 -69t-8 -119q0 -69 8.5 -115t24.5 -69t34 -32t43 -9q35 0 70 35zM310 -210l60 5v245h-10q-50 -50 -130 -50q-96 0 -153 73t-57 187q0 113 61.5 186.5t158.5 73.5q69 0 120 -40h10l150 40h10v-715l60 -5v-10h-280
v10z" />
    <glyph glyph-name="r" unicode="r" horiz-adv-x="470" 
d="M240 370h10q24 64 61 102t84 38q29 0 52 -19t23 -51q0 -29 -15 -48.5t-36.5 -24t-43 0.5t-37.5 26t-18 51h-10q-34 -27 -70 -135v-295l60 -5v-10h-280v10l60 5v475h-50v10l200 10h10v-140z" />
    <glyph glyph-name="s" unicode="s" horiz-adv-x="430" 
d="M205 -10q-81 0 -159 41l-6 -41h-10v160h10q38 -80 68 -113q32 -35 72 -35q39 0 59.5 25t20.5 58t-21.5 58.5t-78.5 51.5q-73 33 -104 69.5t-31 95.5q0 64 48.5 107t141.5 43q71 0 149 -41l6 41h10v-160h-10q-38 79 -69 113q-32 35 -71 35q-27 0 -48.5 -20t-21.5 -48
q0 -37 20 -58t55 -37q97 -45 133.5 -82.5t36.5 -102.5q0 -71 -56.5 -115.5t-143.5 -44.5z" />
    <glyph glyph-name="t" unicode="t" horiz-adv-x="370" 
d="M230 485v-355q0 -64 14 -87t46 -23q22 0 60 15v-10q-30 -15 -76 -25t-84 -10q-55 0 -87.5 29.5t-32.5 90.5v375h-60v10l60 5l150 120h10v-120h120v-15h-120z" />
    <glyph glyph-name="u" unicode="u" horiz-adv-x="590" 
d="M60 490h-60v10l210 10h10v-390q0 -80 60 -80q25 0 43.5 14t46.5 51v385h-60v10l210 10h10v-490h60v-10l-210 -20h-10v90h-10q-35 -46 -73.5 -68t-91.5 -22q-57 0 -96 36.5t-39 113.5v350z" />
    <glyph glyph-name="v" unicode="v" horiz-adv-x="580" 
d="M363 140h10l94 325l-87 25v10h200v-10l-98 -25l-142 -470h-95l-202 490l-43 5v10h280v-10l-57 -5z" />
    <glyph glyph-name="w" unicode="w" horiz-adv-x="860" 
d="M525 -5l-108 324l-14 -46q-64 -213 -83 -278h-95l-182 490l-43 5v10h280v-10l-57 -5l120 -345h10l58 200l-48 145l-43 5v10h280v-10l-57 -5l100 -345h10l94 325l-87 25v10h200v-10l-98 -25l-142 -470h-95z" />
    <glyph glyph-name="x" unicode="x" horiz-adv-x="560" 
d="M213 220l-93 -185l95 -25v-10h-205v10l95 25l102 195l-137 255l-50 5v10h270v-10l-40 -5l88 -172l81 152l-84 25v10h205v-10l-105 -25l-91 -162l156 -288l50 -5v-10h-270v10l40 5z" />
    <glyph glyph-name="y" unicode="y" horiz-adv-x="580" 
d="M310 -50l-267 535l-43 5v10h280v-10l-57 -5l147 -315h10l87 295l-87 25v10h200v-10l-98 -25l-159 -515q-69 -180 -183 -180q-44 0 -67 19.5t-23 50.5q0 40 37.5 56t63.5 -9q31 -30 14 -97h5q33 0 72 41.5t68 118.5z" />
    <glyph glyph-name="z" unicode="z" horiz-adv-x="480" 
d="M335 15l110 135h10l-5 -150h-430v10l255 470v10l-115 -5l-110 -135h-10l5 150h400v-10l-255 -470v-10z" />
    <glyph glyph-name="braceleft" unicode="{" horiz-adv-x="430" 
d="M390 855v-10q-8 -1 -23 -2q-29 -1 -44 -3.5t-37 -11.5t-32 -25.5t-16.5 -48.5t-2.5 -77q1 -12 18.5 -100t15.5 -111q-3 -49 -33.5 -86t-65 -53t-62.5 -27.5t-28 -16.5q5 -1 30.5 -6.5t40 -9t39 -15t38.5 -26t26.5 -40t14.5 -57.5q2 -23 -15.5 -111t-18.5 -100
q-5 -56 2.5 -91t32.5 -50t41.5 -19t55.5 -6q5 -1 8 -1t7 -0.5t8 -0.5v-10q-51 0 -86 2.5t-72.5 11t-59.5 24t-36 43.5t-14 67q0 25 14.5 133.5t8.5 148.5q-7 59 -27 81t-78 29v10q55 6 76.5 39.5t28.5 95.5q6 40 -8.5 148.5t-14.5 133.5q0 40 14.5 67.5t36 43t59 24.5t72 11
t86.5 2z" />
    <glyph glyph-name="bar" unicode="|" horiz-adv-x="215" 
d="M100 -100v920h15v-920h-15z" />
    <glyph glyph-name="braceright" unicode="}" horiz-adv-x="430" 
d="M40 -260v10q8 1 23 2q29 1 44 3.5t37 11.5t32 25.5t16.5 48.5t2.5 77q-1 12 -18.5 100t-15.5 111q2 32 14.5 57.5t26.5 40t38.5 26t39 15t40 9t30.5 6.5q0 4 -28 16t-62.5 27.5t-65 53t-33.5 86.5q-2 23 15.5 111t18.5 100q4 47 -3 84q-4 21 -14 36t-18.5 23t-27.5 13
t-27.5 6.5t-33.5 3t-31 2.5v10q52 0 86.5 -2t72 -11t59 -24.5t36 -43t14.5 -67.5q0 -25 -14.5 -133.5t-8.5 -148.5q7 -62 28.5 -95.5t76.5 -39.5v-10q-58 -7 -78 -29t-27 -81q-6 -40 8.5 -148.5t14.5 -133.5q0 -39 -14 -67t-36 -43.5t-59.5 -24t-72.5 -11t-86 -2.5z" />
    <glyph glyph-name="asciitilde" unicode="~" horiz-adv-x="550" 
d="M88 326l-8 4q22 45 56 87.5t64 42.5q19 0 102 -26t107 -26q14 0 23 3t13.5 7t17.5 16l7 -4q-22 -44 -53.5 -82t-61.5 -38q-23 0 -105 25.5t-106 25.5q-21 0 -30.5 -6.5t-25.5 -28.5z" />
    <glyph glyph-name="exclamdown" unicode="&#xa1;" horiz-adv-x="320" 
d="M87 437q0 30 21.5 51.5t51.5 21.5t51.5 -21.5t21.5 -51.5t-21.5 -51.5t-51.5 -21.5t-51.5 21.5t-21.5 51.5zM156 300h10l66 -520h-146z" />
    <glyph glyph-name="cent" unicode="&#xa2;" horiz-adv-x="550" 
d="M290 -100v90q-117 2 -183.5 75.5t-66.5 179.5q0 113 74 184t176 80v91h15v-90h10q84 0 134.5 -38.5t50.5 -96.5q0 -27 -19 -46t-46 -19q-49 0 -66 41q-15 36 11 64q25 26 75 20v10q-40 50 -115 50q-17 0 -35 -5v-386q25 -9 55 -9q48 0 85.5 22.5t54.5 52.5h10
q-17 -73 -69.5 -124.5t-135.5 -55.5v-90h-15zM198 281q0 -127 92 -171v375q-92 -40 -92 -204z" />
    <glyph glyph-name="sterling" unicode="&#xa3;" horiz-adv-x="622" 
d="M293 365h122v-10h-120q8 -104 -117 -204l3 -7q42 6 113.5 -8.5t125.5 -28.5t102 -4t60 57h10q-40 -170 -196 -170q-34 0 -63.5 14t-50.5 34.5t-39 41t-36.5 37t-35.5 19.5q20 -77 0 -111.5t-65 -34.5q-35 0 -51 21.5t-13 47t17 41.5q36 42 106 46q4 16 6.5 30t2 30.5
t-0.5 26t-3 30t-4.5 27t-7 33t-6.5 32.5h-77v10h75q-18 73 -20 90q-7 52 4 95t34.5 72t57 49.5t70 29.5t74.5 9q55 0 95.5 -13.5t61 -35.5t29.5 -43.5t9 -42.5q0 -28 -19 -46.5t-49 -18.5q-48 0 -63 42q-15 39 11 67q25 28 76 16v10q-55 55 -146 55q-69 0 -98.5 -53.5
t-11.5 -146.5q3 -13 13 -61.5t15 -73.5z" />
    <glyph glyph-name="currency" unicode="&#xa4;" horiz-adv-x="513" 
d="M100 249q0 68 48 114l-78 90l8 8l79 -90q44 36 100 36q55 0 99 -36l78 90l9 -8l-78 -89q50 -47 50 -115t-49 -114l76 -86l-9 -9l-77 87q-43 -35 -99 -35q-57 0 -100 35l-76 -87l-9 9l76 86q-48 46 -48 114zM112 249q0 -59 43 -102t102 -43t102.5 43t43.5 102t-43.5 102.5
t-102.5 43.5t-102 -43.5t-43 -102.5z" />
    <glyph glyph-name="yen" unicode="&#xa5;" horiz-adv-x="791" 
d="M200 255h109q-17 164 -67.5 285t-99.5 159l-10 -5q27 -21 31.5 -51t-12.5 -52t-46 -22q-31 0 -48 18t-17 46q0 35 29.5 56t69.5 21q26 0 54.5 -6.5t65.5 -22t70 -47.5t62 -78t47.5 -120t21.5 -166h10q32 235 80.5 337.5t130.5 102.5q32 0 51 -19.5t19 -46.5t-17.5 -48
t-50.5 -21q-31 0 -49.5 25.5t-12.5 69.5h-10q-44 -34 -81 -160t-50 -255h115v-10h-116q-4 -50 -4 -85v-145l60 -5v-10h-280v10l60 5v115q0 72 -5 115h-110v10z" />
    <glyph glyph-name="brokenbar" unicode="&#xa6;" horiz-adv-x="215" 
d="M115 820v-360h-15v360h15zM115 260v-360h-15v360h15z" />
    <glyph glyph-name="section" unicode="&#xa7;" horiz-adv-x="604" 
d="M286 130q60 -28 109 -58q38 44 53.5 82t12 65t-25.5 52t-49 42.5t-68 36.5q-60 28 -109 58q-38 -44 -53.5 -82t-12 -65t25.5 -52t49 -42.5t68 -36.5zM255 60q-113 52 -152.5 113.5t-11.5 121t112 118.5q-84 56 -84 147q0 60 47.5 105t137.5 45q89 0 138.5 -41.5
t49.5 -88.5q0 -24 -14.5 -39.5t-35.5 -15.5q-38 0 -50 33q-11 32 13 52q22 16 57 10v10q-59 70 -158 70q-51 0 -85.5 -36.5t-34.5 -88.5q0 -19 5.5 -35.5t19 -31t22.5 -24t31.5 -22t29.5 -16.5t32 -15l25 -11q113 -52 152.5 -113.5t11.5 -121t-112 -118.5q84 -56 84 -147
q0 -60 -47.5 -105t-137.5 -45q-89 0 -138.5 41.5t-49.5 88.5q0 24 14.5 39.5t35.5 15.5q38 0 50 -33q11 -32 -13 -52q-21 -16 -57 -10v-10q59 -70 158 -70q51 0 85.5 36.5t34.5 88.5q0 19 -5.5 35.5t-19 31t-22.5 24t-31.5 22t-29.5 16.5t-32 15z" />
    <glyph glyph-name="dieresis" unicode="&#xa8;" horiz-adv-x="500" 
d="M88 615q0 28 18.5 46.5t45.5 18.5q28 0 46.5 -18.5t18.5 -46.5t-18.5 -45.5t-46.5 -17.5q-27 0 -45.5 17.5t-18.5 45.5zM283 615q0 28 18.5 46.5t46.5 18.5q27 0 45.5 -18.5t18.5 -46.5t-18.5 -45.5t-45.5 -17.5q-28 0 -46.5 17.5t-18.5 45.5z" />
    <glyph glyph-name="copyright" unicode="&#xa9;" horiz-adv-x="840" 
d="M60 350q0 149 105.5 254.5t254.5 105.5t254.5 -105.5t105.5 -254.5t-105.5 -254.5t-254.5 -105.5t-254.5 105.5t-105.5 254.5zM70 350q0 -146 102 -248t248 -102t248 102t102 248t-102 248t-248 102t-248 -102t-102 -248zM554 200q-46 -30 -119 -30q-72 0 -122 51
t-50 129t50 129t122 51q73 0 119 -30l3 -85h-5l-32 61q-13 14 -20 21t-25.5 16.5t-39.5 9.5q-40 0 -63.5 -49.5t-23.5 -123.5t23.5 -123.5t63.5 -49.5q45 0 88 46l32 62h4z" />
    <glyph glyph-name="ordfeminine" unicode="&#xaa;" horiz-adv-x="350" 
d="M187 432v120l-25 -9q-41 -15 -41 -60q0 -57 42 -57q12 0 24 6zM187 390v33h-6q-42 -33 -84 -33q-33 0 -52.5 19t-19.5 47q0 46 78 75l84 27v78q0 30 -13 42t-41 12q-14 0 -33 -8t-30 -19v-6q30 3 42.5 -16t1.5 -39t-38 -20q-16 0 -27.5 11t-11.5 28q0 33 41 57t91 24
q48 0 81 -20.5t33 -69.5v-210h36v-6l-126 -6h-6zM20 320h310v-10h-310v10z" />
    <glyph glyph-name="guillemotleft" unicode="&#xab;" horiz-adv-x="680" 
d="M340 453l-84 -184l84 -186v-10l-250 185v20l250 185v-10zM590 453l-84 -184l84 -186v-10l-250 185v20l250 185v-10z" />
    <glyph glyph-name="logicalnot" unicode="&#xac;" horiz-adv-x="597" 
d="M517 285v-197h-10v187h-417v10h427z" />
    <glyph glyph-name="uni00AD" unicode="&#xad;" horiz-adv-x="510" 
d="M90 285h330v-25h-330v25z" />
    <glyph glyph-name="registered" unicode="&#xae;" horiz-adv-x="840" 
d="M60 350q0 149 105.5 254.5t254.5 105.5t254.5 -105.5t105.5 -254.5t-105.5 -254.5t-254.5 -105.5t-254.5 105.5t-105.5 254.5zM70 350q0 -146 102 -248t248 -102t248 102t102 248t-102 248t-248 102t-248 -102t-102 -248zM397 330h-20v-148l25 -2v-5h-135v5l30 2v336
l-30 2v5h158q56 0 87 -26.5t31 -68.5q0 -70 -70 -97l97 -151l13 -2v-5h-105zM377 337q51 0 67 24.5t16 66.5q0 90 -63 90h-20v-181z" />
    <glyph glyph-name="macron" unicode="&#xaf;" horiz-adv-x="510" 
d="M100 615h310v-15h-310v15z" />
    <glyph glyph-name="degree" unicode="&#xb0;" horiz-adv-x="375" 
d="M91 673q0 39 27 68t69 29q43 0 70 -29t27 -68q0 -38 -27 -67t-70 -29t-69.5 28.5t-26.5 67.5zM100 673q0 -36 24.5 -61.5t62.5 -25.5q39 0 63.5 25.5t24.5 61.5q0 37 -24.5 62.5t-63.5 25.5q-38 0 -62.5 -25.5t-24.5 -62.5z" />
    <glyph glyph-name="plusminus" unicode="&#xb1;" horiz-adv-x="560" 
d="M90 90h185v173h-185v10h185v185h10v-185h185v-10h-185v-173h185v-10h-380v10z" />
    <glyph glyph-name="twosuperior" unicode="&#xb2;" horiz-adv-x="330" 
d="M125 622v-5l155 3v-60h-230v5q43 31 73 64t44.5 56.5t22.5 51t9 40.5t1 33q0 40 -16 66t-47 26q-35 0 -60 -25v-5q34 8 44 -18q8 -23 -11 -37q-10 -7 -23 -7q-12 0 -22 9t-10 26q0 26 30 48t77 22q61 0 88 -29.5t27 -70.5q0 -102 -152 -193z" />
    <glyph glyph-name="threesuperior" unicode="&#xb3;" horiz-adv-x="332" 
d="M142 555q62 0 62 94q0 36 -17.5 63t-46.5 27h-10v6h10q56 0 56 73q0 27 -15.5 45.5t-40.5 18.5q-18 0 -31 -6t-22 -18.5t-13 -21t-9 -22.5h-5q9 37 36.5 66.5t70.5 29.5q47 0 74.5 -21.5t27.5 -57.5q0 -34 -27 -58t-81 -30v-3q57 -2 89 -24.5t32 -63.5q0 -49 -38.5 -75.5
t-96.5 -26.5q-47 0 -72 21.5t-25 50.5q0 15 9.5 24t24.5 9q26 0 32 -24q7 -26 -17 -39q-12 -5 -26 -5v-5q20 -27 69 -27z" />
    <glyph glyph-name="acute" unicode="&#xb4;" horiz-adv-x="369" 
d="M150 730h129l-174 -180h-10z" />
    <glyph glyph-name="mu" unicode="&#xb5;" horiz-adv-x="590" 
d="M60 -10v500h-60v10l210 10h10v-390q0 -80 60 -80q25 0 43.5 14t46.5 51v385h-60v10l210 10h10v-490h60v-10l-210 -20h-10v90h-10q-61 -82 -146 -89q-16 -95 -71.5 -158t-152.5 -63q-41 0 -70.5 17t-29.5 57q0 29 24.5 45.5t53.5 10.5t41 -33q14 -33 -4 -82q20 0 32 11.5
t17 42t5.5 52t0.5 71.5v28z" />
    <glyph glyph-name="paragraph" unicode="&#xb6;" horiz-adv-x="690" 
d="M490 0v700h130v-10l-115 -5v-670l115 -5v-10h-130zM440 700v-700h-20q-160 0 -255 97t-95 253q0 164 94 257t256 93h20z" />
    <glyph glyph-name="periodcentered" unicode="&#xb7;" horiz-adv-x="356" 
d="M83 248q0 40 27.5 67.5t67.5 27.5t67.5 -27.5t27.5 -67.5t-27.5 -67.5t-67.5 -27.5t-67.5 27.5t-27.5 67.5z" />
    <glyph glyph-name="cedilla" unicode="&#xb8;" horiz-adv-x="373" 
d="M160 -80l3 80h10v-75q48 0 79 -21.5t31 -55.5q0 -36 -31.5 -57t-86.5 -21q-36 0 -75 12l1 9q32 -8 47 -8q68 0 68 67q0 27 -12.5 46.5t-33.5 23.5z" />
    <glyph glyph-name="onesuperior" unicode="&#xb9;" horiz-adv-x="330" 
d="M50 565l75 2v328l-65 -8v5l140 23h5v-348l75 -2v-5h-230v5z" />
    <glyph glyph-name="ordmasculine" unicode="&#xba;" horiz-adv-x="350" 
d="M20 320h310v-10h-310v10zM175 696q-31 0 -42.5 -38.5t-11.5 -111.5q0 -74 11 -112t43 -38t43 38t11 112q0 73 -11.5 111.5t-42.5 38.5zM175 390q-65 0 -110.5 41.5t-45.5 114.5t45.5 114.5t110.5 41.5t110.5 -41.5t45.5 -114.5t-45.5 -114.5t-110.5 -41.5z" />
    <glyph glyph-name="guillemotright" unicode="&#xbb;" horiz-adv-x="680" 
d="M424 269l-84 184v10l250 -185v-20l-250 -185v10zM174 269l-84 184v10l250 -185v-20l-250 -185v10z" />
    <glyph glyph-name="onequarter" unicode="&#xbc;" horiz-adv-x="800" 
d="M50 365l75 2v328l-65 -8v5l140 23h5v-348l75 -2v-5h-230v5zM715 86h35v-6h-35v-80h-80v80h-140v8l164 247l56 20v-269zM630 282l-125 -191v-5h130v196h-5zM590 710h10l-160 -360l-150 -350h-10l150 350z" />
    <glyph glyph-name="onehalf" unicode="&#xbd;" horiz-adv-x="800" 
d="M570 710h10l-160 -360l-150 -350h-10l150 350zM50 365l75 2v328l-65 -8v5l140 23h5v-348l75 -2v-5h-230v5zM595 62v-5l155 3v-60h-230v5q43 31 73 64t44.5 56.5t22.5 51t9 40.5t1 33q0 40 -16 66t-47 26q-35 0 -60 -25v-5q34 8 44 -18q8 -23 -11 -37q-10 -7 -23 -7
q-12 0 -22 9t-10 26q0 26 30 48t77 22q61 0 88 -29.5t27 -70.5q0 -102 -152 -193z" />
    <glyph glyph-name="threequarters" unicode="&#xbe;" horiz-adv-x="800" 
d="M142 355q62 0 62 94q0 36 -17.5 63t-46.5 27h-10v6h10q56 0 56 73q0 27 -15.5 45.5t-40.5 18.5q-18 0 -31 -6t-22 -18.5t-13 -21t-9 -22.5h-5q9 37 36.5 66.5t70.5 29.5q47 0 74.5 -21.5t27.5 -57.5q0 -34 -27 -58t-81 -30v-3q57 -2 89 -24.5t32 -63.5q0 -49 -38.5 -75.5
t-96.5 -26.5q-47 0 -72 21.5t-25 50.5q0 15 9.5 24t24.5 9q26 0 32 -24q7 -26 -17 -39q-12 -5 -26 -5v-5q20 -27 69 -27zM715 86h35v-6h-35v-80h-80v80h-140v8l164 247l56 20v-269zM630 282l-125 -191v-5h130v196h-5zM590 710h10l-160 -360l-150 -350h-10l150 350z" />
    <glyph glyph-name="questiondown" unicode="&#xbf;" horiz-adv-x="516" 
d="M369 437q0 -30 -21.5 -51.5t-51.5 -21.5t-51.5 21.5t-21.5 51.5t21.5 51.5t51.5 21.5t51.5 -21.5t21.5 -51.5zM50 -50q0 63 53.5 115.5t181.5 69.5l5 165h10l5 -172q-59 -20 -87 -66.5t-28 -101.5q0 -72 40.5 -118.5t110.5 -46.5t110 50v10q-63 -11 -84 32q-17 35 8 67
q19 26 56 26q27 0 46 -19t19 -46q0 -65 -64.5 -105t-160.5 -40q-107 0 -164 53t-57 127z" />
    <glyph glyph-name="Agrave" unicode="&#xc0;" horiz-adv-x="700" 
d="M128 55l112 -45v-10h-240v10l112 45l190 590l91 65l263 -695l44 -5v-10h-300v10l74 5l-79 235h-206zM296 555h-10l-94 -293h200zM343 750l-164 180h129l45 -180h-10z" />
    <glyph glyph-name="Aacute" unicode="&#xc1;" horiz-adv-x="700" 
d="M128 55l112 -45v-10h-240v10l112 45l190 590l91 65l263 -695l44 -5v-10h-300v10l74 5l-79 235h-206zM296 555h-10l-94 -293h200zM387 930h129l-174 -180h-10z" />
    <glyph glyph-name="Acircumflex" unicode="&#xc2;" horiz-adv-x="700" 
d="M128 55l112 -45v-10h-240v10l112 45l190 590l91 65l263 -695l44 -5v-10h-300v10l74 5l-79 235h-206zM296 555h-10l-94 -293h200zM350 825l-125 -75h-10l130 180h10l130 -180h-10z" />
    <glyph glyph-name="Atilde" unicode="&#xc3;" horiz-adv-x="700" 
d="M128 55l112 -45v-10h-240v10l112 45l190 590l91 65l263 -695l44 -5v-10h-300v10l74 5l-79 235h-206zM296 555h-10l-94 -293h200zM160 775l-5 5q22 45 56 87.5t64 42.5q31 0 96.5 -30t103.5 -30q10 0 18 1.5t15.5 6t10 6.5t11 11t10.5 10l5 -5q-22 -44 -53.5 -82
t-61.5 -38q-34 0 -103 30t-102 30q-10 0 -18.5 -2.5t-15.5 -8.5t-11 -10t-11 -12.5t-9 -11.5z" />
    <glyph glyph-name="Adieresis" unicode="&#xc4;" horiz-adv-x="700" 
d="M128 55l112 -45v-10h-240v10l112 45l190 590l91 65l263 -695l44 -5v-10h-300v10l74 5l-79 235h-206zM296 555h-10l-94 -293h200zM188 815q0 28 18.5 46.5t45.5 18.5q28 0 46.5 -18.5t18.5 -46.5t-18.5 -45.5t-46.5 -17.5q-27 0 -45.5 17.5t-18.5 45.5zM383 815
q0 28 18.5 46.5t46.5 18.5q27 0 45.5 -18.5t18.5 -46.5t-18.5 -45.5t-45.5 -17.5q-28 0 -46.5 17.5t-18.5 45.5z" />
    <glyph glyph-name="Aring" unicode="&#xc5;" horiz-adv-x="700" 
d="M128 55l112 -45v-10h-240v10l112 45l190 590l91 65l263 -695l44 -5v-10h-300v10l74 5l-79 235h-206zM296 555h-10l-94 -293h200zM263 837q0 38 23.5 63t63.5 25t64 -25t24 -63t-24 -62.5t-64 -24.5q-38 0 -62.5 25t-24.5 62zM287 837q0 -34 16 -55.5t47 -21.5
q32 0 47.5 21.5t15.5 55.5q0 35 -15.5 56.5t-47.5 21.5q-31 0 -47 -22t-16 -56z" />
    <glyph glyph-name="AE" unicode="&#xc6;" horiz-adv-x="920" 
d="M410 575h-10l-111 -220h121v220zM130 55l315 630l-95 5v10h520l5 -170h-10l-110 155l-185 5v-335l140 5l55 110h10v-255h-10l-55 125l-140 5v-335l195 5l115 155h10l-10 -170h-530v10l60 5v330h-125l-140 -290l95 -45v-10h-240v10z" />
    <glyph glyph-name="Ccedilla" unicode="&#xc7;" horiz-adv-x="650" 
d="M373 -80l3 70q-163 4 -254.5 105.5t-91.5 254.5q0 159 97 259.5t253 100.5q68 0 131 -18.5t99 -41.5l5 -170h-10l-70 120q-20 37 -56 68.5t-79 31.5q-98 0 -149 -89t-51 -261q0 -175 48.5 -262.5t151.5 -87.5q43 0 81.5 32.5t58.5 67.5l70 120h10l-10 -170
q-91 -55 -224 -60v-65q48 0 79 -21.5t31 -55.5q0 -36 -31.5 -57t-86.5 -21q-36 0 -75 12l1 9q32 -8 47 -8q68 0 68 67q0 27 -12.5 46.5t-33.5 23.5z" />
    <glyph glyph-name="Egrave" unicode="&#xc8;" 
d="M250 690v-335l140 5l55 120h10v-255h-10l-55 115l-140 5v-335l195 5l115 155h10l-10 -170h-530v10l60 5v670l-60 5v10h520l5 -170h-10l-110 155zM361 750l-164 180h129l45 -180h-10z" />
    <glyph glyph-name="Eacute" unicode="&#xc9;" 
d="M250 690v-335l140 5l55 120h10v-255h-10l-55 115l-140 5v-335l195 5l115 155h10l-10 -170h-530v10l60 5v670l-60 5v10h520l5 -170h-10l-110 155zM344 930h129l-174 -180h-10z" />
    <glyph glyph-name="Ecircumflex" unicode="&#xca;" 
d="M250 690v-335l140 5l55 120h10v-255h-10l-55 115l-140 5v-335l195 5l115 155h10l-10 -170h-530v10l60 5v670l-60 5v10h520l5 -170h-10l-110 155zM300 825l-125 -75h-10l130 180h10l130 -180h-10z" />
    <glyph glyph-name="Edieresis" unicode="&#xcb;" 
d="M250 690v-335l140 5l55 120h10v-255h-10l-55 115l-140 5v-335l195 5l115 155h10l-10 -170h-530v10l60 5v670l-60 5v10h520l5 -170h-10l-110 155zM149 815q0 28 18.5 46.5t45.5 18.5q28 0 46.5 -18.5t18.5 -46.5t-18.5 -45.5t-46.5 -17.5q-27 0 -45.5 17.5t-18.5 45.5z
M344 815q0 28 18.5 46.5t46.5 18.5q27 0 45.5 -18.5t18.5 -46.5t-18.5 -45.5t-45.5 -17.5q-28 0 -46.5 17.5t-18.5 45.5z" />
    <glyph glyph-name="Igrave" unicode="&#xcc;" horiz-adv-x="340" 
d="M30 10l60 5v670l-60 5v10h280v-10l-60 -5v-670l60 -5v-10h-280v10zM155 750l-164 180h129l45 -180h-10z" />
    <glyph glyph-name="Iacute" unicode="&#xcd;" horiz-adv-x="340" 
d="M30 10l60 5v670l-60 5v10h280v-10l-60 -5v-670l60 -5v-10h-280v10zM209 930h129l-174 -180h-10z" />
    <glyph glyph-name="Icircumflex" unicode="&#xce;" horiz-adv-x="340" 
d="M30 10l60 5v670l-60 5v10h280v-10l-60 -5v-670l60 -5v-10h-280v10zM170 825l-125 -75h-10l130 180h10l130 -180h-10z" />
    <glyph glyph-name="Idieresis" unicode="&#xcf;" horiz-adv-x="340" 
d="M30 10l60 5v670l-60 5v10h280v-10l-60 -5v-670l60 -5v-10h-280v10zM8 815q0 28 18.5 46.5t45.5 18.5q28 0 46.5 -18.5t18.5 -46.5t-18.5 -45.5t-46.5 -17.5q-27 0 -45.5 17.5t-18.5 45.5zM203 815q0 28 18.5 46.5t46.5 18.5q27 0 45.5 -18.5t18.5 -46.5t-18.5 -45.5
t-45.5 -17.5q-28 0 -46.5 17.5t-18.5 45.5z" />
    <glyph glyph-name="Eth" unicode="&#xd0;" horiz-adv-x="740" 
d="M30 360h60v325l-60 5v10h310q164 0 267 -94t103 -256q0 -154 -104 -252t-266 -98h-310v10l60 5v335h-60v10zM250 10h90q51 0 91 30.5t63 80.5t34.5 108.5t11.5 120.5q0 149 -52.5 244.5t-157.5 95.5h-80v-330h110v-10h-110v-340z" />
    <glyph glyph-name="Ntilde" unicode="&#xd1;" horiz-adv-x="730" 
d="M578 265h10l-3 380l-115 45v10h240v-10l-110 -45v-650h-20l-419 595h-10l4 -535l115 -45v-10h-240v10l110 45v630l-110 5v10h250zM194 775l-5 5q22 45 56 87.5t64 42.5q31 0 96.5 -30t103.5 -30q10 0 18 1.5t15.5 6t10 6.5t11 11t10.5 10l5 -5q-22 -44 -53.5 -82
t-61.5 -38q-34 0 -103 30t-102 30q-10 0 -18.5 -2.5t-15.5 -8.5t-11 -10t-11 -12.5t-9 -11.5z" />
    <glyph glyph-name="Ograve" unicode="&#xd2;" horiz-adv-x="780" 
d="M30 350q0 154 107.5 257t252.5 103t252.5 -103t107.5 -257t-107.5 -257t-252.5 -103t-252.5 103t-107.5 257zM200 350q0 -350 190 -350t190 350t-190 350t-190 -350zM380 750l-164 180h129l45 -180h-10z" />
    <glyph glyph-name="Oacute" unicode="&#xd3;" horiz-adv-x="780" 
d="M30 350q0 154 107.5 257t252.5 103t252.5 -103t107.5 -257t-107.5 -257t-252.5 -103t-252.5 103t-107.5 257zM200 350q0 -350 190 -350t190 350t-190 350t-190 -350zM422 930h129l-174 -180h-10z" />
    <glyph glyph-name="Ocircumflex" unicode="&#xd4;" horiz-adv-x="780" 
d="M30 350q0 154 107.5 257t252.5 103t252.5 -103t107.5 -257t-107.5 -257t-252.5 -103t-252.5 103t-107.5 257zM200 350q0 -350 190 -350t190 350t-190 350t-190 -350zM390 825l-125 -75h-10l130 180h10l130 -180h-10z" />
    <glyph glyph-name="Otilde" unicode="&#xd5;" horiz-adv-x="780" 
d="M30 350q0 154 107.5 257t252.5 103t252.5 -103t107.5 -257t-107.5 -257t-252.5 -103t-252.5 103t-107.5 257zM200 350q0 -350 190 -350t190 350t-190 350t-190 -350zM200 775l-5 5q22 45 56 87.5t64 42.5q31 0 96.5 -30t103.5 -30q10 0 18 1.5t15.5 6t10 6.5t11 11
t10.5 10l5 -5q-22 -44 -53.5 -82t-61.5 -38q-34 0 -103 30t-102 30q-10 0 -18.5 -2.5t-15.5 -8.5t-11 -10t-11 -12.5t-9 -11.5z" />
    <glyph glyph-name="Odieresis" unicode="&#xd6;" horiz-adv-x="780" 
d="M30 350q0 154 107.5 257t252.5 103t252.5 -103t107.5 -257t-107.5 -257t-252.5 -103t-252.5 103t-107.5 257zM200 350q0 -350 190 -350t190 350t-190 350t-190 -350zM228 815q0 28 18.5 46.5t45.5 18.5q28 0 46.5 -18.5t18.5 -46.5t-18.5 -45.5t-46.5 -17.5
q-27 0 -45.5 17.5t-18.5 45.5zM423 815q0 28 18.5 46.5t46.5 18.5q27 0 45.5 -18.5t18.5 -46.5t-18.5 -45.5t-45.5 -17.5q-28 0 -46.5 17.5t-18.5 45.5z" />
    <glyph glyph-name="multiply" unicode="&#xd7;" horiz-adv-x="550" 
d="M443 426l-158 -158l158 -158l-11 -10l-158 157l-157 -157l-10 11l157 157l-157 157l10 11l157 -157l158 157z" />
    <glyph glyph-name="Oslash" unicode="&#xd8;" horiz-adv-x="780" 
d="M691 669l8 -9l-54 -56q105 -105 105 -254q0 -154 -107.5 -257t-252.5 -103q-138 0 -243 94l-56 -59l-8 9l55 58q-108 103 -108 258q0 154 107.5 257t252.5 103q142 0 246 -98zM200 350q0 -106 16 -177l345 361q-40 166 -171 166q-190 0 -190 -350zM580 350q0 98 -15 170
l-345 -361q41 -159 170 -159q190 0 190 350z" />
    <glyph glyph-name="Ugrave" unicode="&#xd9;" horiz-adv-x="760" 
d="M610 270v375l-110 45v10h240v-10l-115 -45v-375q0 -135 -64 -207.5t-186 -72.5q-144 0 -219.5 74t-75.5 206v415l-60 5v10h280v-10l-60 -5v-445q0 -114 48 -167t132 -53q96 0 143 69t47 181zM397 750l-164 180h129l45 -180h-10z" />
    <glyph glyph-name="Uacute" unicode="&#xda;" horiz-adv-x="760" 
d="M610 270v375l-110 45v10h240v-10l-115 -45v-375q0 -135 -64 -207.5t-186 -72.5q-144 0 -219.5 74t-75.5 206v415l-60 5v10h280v-10l-60 -5v-445q0 -114 48 -167t132 -53q96 0 143 69t47 181zM444 930h129l-174 -180h-10z" />
    <glyph glyph-name="Ucircumflex" unicode="&#xdb;" horiz-adv-x="760" 
d="M610 270v375l-110 45v10h240v-10l-115 -45v-375q0 -135 -64 -207.5t-186 -72.5q-144 0 -219.5 74t-75.5 206v415l-60 5v10h280v-10l-60 -5v-445q0 -114 48 -167t132 -53q96 0 143 69t47 181zM406 825l-125 -75h-10l130 180h10l130 -180h-10z" />
    <glyph glyph-name="Udieresis" unicode="&#xdc;" horiz-adv-x="760" 
d="M610 270v375l-110 45v10h240v-10l-115 -45v-375q0 -135 -64 -207.5t-186 -72.5q-144 0 -219.5 74t-75.5 206v415l-60 5v10h280v-10l-60 -5v-445q0 -114 48 -167t132 -53q96 0 143 69t47 181zM245 815q0 28 18.5 46.5t45.5 18.5q28 0 46.5 -18.5t18.5 -46.5t-18.5 -45.5
t-46.5 -17.5q-27 0 -45.5 17.5t-18.5 45.5zM440 815q0 28 18.5 46.5t46.5 18.5q27 0 45.5 -18.5t18.5 -46.5t-18.5 -45.5t-45.5 -17.5q-28 0 -46.5 17.5t-18.5 45.5z" />
    <glyph glyph-name="Yacute" unicode="&#xdd;" horiz-adv-x="680" 
d="M265 15v228l-215 442l-50 5v10h290v-10l-55 -5l175 -365h10l135 325l-105 45v10h230v-10l-105 -45l-150 -349v-281l60 -5v-10h-280v10zM415 930h129l-174 -180h-10z" />
    <glyph glyph-name="Thorn" unicode="&#xde;" horiz-adv-x="610" 
d="M250 160h40q68 0 101.5 59t33.5 131q0 73 -25.5 131.5t-79.5 58.5h-70v-380zM90 685l-60 5v10h280v-10l-60 -5v-135h110q110 0 170 -52.5t60 -137.5q0 -86 -67.5 -148t-212.5 -62h-60v-135l60 -5v-10h-280v10l60 5v670z" />
    <glyph glyph-name="germandbls" unicode="&#xdf;" horiz-adv-x="620" 
d="M415 -10q-85 0 -155 35l-5 119h10l44 -70q16 -24 27 -37t31 -25t43 -12q26 0 49.5 16t26.5 48q6 59 -65 114l-83 63q-24 18 -34.5 36.5t-5 40.5t12.5 35.5t26.5 42t26.5 40.5q24 40 27.5 107.5t-18.5 122t-63 54.5q-26 0 -42.5 -15t-24.5 -47t-10.5 -67.5t-2.5 -90.5
v-500h-210v10l50 5v470h-50v10l50 5q0 55 19.5 98t47.5 67t63 39.5t61.5 20.5t48.5 5q88 0 145 -34t57 -97q0 -28 -14.5 -51.5t-35 -39.5t-40.5 -29.5t-34.5 -28.5t-14.5 -30q0 -14 9.5 -23.5t34.5 -27.5l111 -79q53 -38 68 -91t-4.5 -98.5t-67 -78t-109.5 -32.5z" />
    <glyph glyph-name="agrave" unicode="&#xe0;" horiz-adv-x="510" 
d="M290 60v200l-41 -15q-34 -13 -51.5 -33.5t-17.5 -66.5q0 -44 18.5 -69.5t51.5 -25.5q20 0 40 10zM290 -10v55h-10q-37 -29 -67.5 -42t-72.5 -13q-55 0 -87.5 31.5t-32.5 78.5q0 78 130 125l140 45v130q0 51 -21.5 70.5t-68.5 19.5q-23 0 -55 -13.5t-50 -31.5v-10
q50 5 71 -26.5t2.5 -65t-63.5 -33.5q-27 0 -46 19t-19 46q0 55 68 95t152 40q36 0 67.5 -7t60 -22.5t45.5 -46.5t17 -74v-350h60v-10l-210 -10h-10zM255 550l-164 180h129l45 -180h-10z" />
    <glyph glyph-name="aacute" unicode="&#xe1;" horiz-adv-x="510" 
d="M290 60v200l-41 -15q-34 -13 -51.5 -33.5t-17.5 -66.5q0 -44 18.5 -69.5t51.5 -25.5q20 0 40 10zM290 -10v55h-10q-37 -29 -67.5 -42t-72.5 -13q-55 0 -87.5 31.5t-32.5 78.5q0 78 130 125l140 45v130q0 51 -21.5 70.5t-68.5 19.5q-23 0 -55 -13.5t-50 -31.5v-10
q50 5 71 -26.5t2.5 -65t-63.5 -33.5q-27 0 -46 19t-19 46q0 55 68 95t152 40q36 0 67.5 -7t60 -22.5t45.5 -46.5t17 -74v-350h60v-10l-210 -10h-10zM281 730h129l-174 -180h-10z" />
    <glyph glyph-name="acircumflex" unicode="&#xe2;" horiz-adv-x="510" 
d="M290 60v200l-41 -15q-34 -13 -51.5 -33.5t-17.5 -66.5q0 -44 18.5 -69.5t51.5 -25.5q20 0 40 10zM290 -10v55h-10q-37 -29 -67.5 -42t-72.5 -13q-55 0 -87.5 31.5t-32.5 78.5q0 78 130 125l140 45v130q0 51 -21.5 70.5t-68.5 19.5q-23 0 -55 -13.5t-50 -31.5v-10
q50 5 71 -26.5t2.5 -65t-63.5 -33.5q-27 0 -46 19t-19 46q0 55 68 95t152 40q36 0 67.5 -7t60 -22.5t45.5 -46.5t17 -74v-350h60v-10l-210 -10h-10zM254 625l-125 -75h-10l130 180h10l130 -180h-10z" />
    <glyph glyph-name="atilde" unicode="&#xe3;" horiz-adv-x="510" 
d="M290 60v200l-41 -15q-34 -13 -51.5 -33.5t-17.5 -66.5q0 -44 18.5 -69.5t51.5 -25.5q20 0 40 10zM290 -10v55h-10q-37 -29 -67.5 -42t-72.5 -13q-55 0 -87.5 31.5t-32.5 78.5q0 78 130 125l140 45v130q0 51 -21.5 70.5t-68.5 19.5q-23 0 -55 -13.5t-50 -31.5v-10
q50 5 71 -26.5t2.5 -65t-63.5 -33.5q-27 0 -46 19t-19 46q0 55 68 95t152 40q36 0 67.5 -7t60 -22.5t45.5 -46.5t17 -74v-350h60v-10l-210 -10h-10zM67 575l-5 5q22 45 56 87.5t64 42.5q31 0 96.5 -30t103.5 -30q10 0 18 1.5t15.5 6t10 6.5t11 11t10.5 10l5 -5
q-22 -44 -53.5 -82t-61.5 -38q-33 0 -102 30t-103 30q-10 0 -18.5 -2.5t-15.5 -8.5t-11 -10t-11 -12.5t-9 -11.5z" />
    <glyph glyph-name="adieresis" unicode="&#xe4;" horiz-adv-x="510" 
d="M290 60v200l-41 -15q-34 -13 -51.5 -33.5t-17.5 -66.5q0 -44 18.5 -69.5t51.5 -25.5q20 0 40 10zM290 -10v55h-10q-37 -29 -67.5 -42t-72.5 -13q-55 0 -87.5 31.5t-32.5 78.5q0 78 130 125l140 45v130q0 51 -21.5 70.5t-68.5 19.5q-23 0 -55 -13.5t-50 -31.5v-10
q50 5 71 -26.5t2.5 -65t-63.5 -33.5q-27 0 -46 19t-19 46q0 55 68 95t152 40q36 0 67.5 -7t60 -22.5t45.5 -46.5t17 -74v-350h60v-10l-210 -10h-10zM88 615q0 28 18.5 46.5t45.5 18.5q28 0 46.5 -18.5t18.5 -46.5t-18.5 -45.5t-46.5 -17.5q-27 0 -45.5 17.5t-18.5 45.5z
M283 615q0 28 18.5 46.5t46.5 18.5q27 0 45.5 -18.5t18.5 -46.5t-18.5 -45.5t-45.5 -17.5q-28 0 -46.5 17.5t-18.5 45.5z" />
    <glyph glyph-name="aring" unicode="&#xe5;" horiz-adv-x="510" 
d="M290 60v200l-41 -15q-34 -13 -51.5 -33.5t-17.5 -66.5q0 -44 18.5 -69.5t51.5 -25.5q20 0 40 10zM290 -10v55h-10q-37 -29 -67.5 -42t-72.5 -13q-55 0 -87.5 31.5t-32.5 78.5q0 78 130 125l140 45v130q0 51 -21.5 70.5t-68.5 19.5q-23 0 -55 -13.5t-50 -31.5v-10
q50 5 71 -26.5t2.5 -65t-63.5 -33.5q-27 0 -46 19t-19 46q0 55 68 95t152 40q36 0 67.5 -7t60 -22.5t45.5 -46.5t17 -74v-350h60v-10l-210 -10h-10zM159 637q0 38 23.5 63t63.5 25t64 -25t24 -63t-24 -62.5t-64 -24.5q-38 0 -62.5 25t-24.5 62zM183 637q0 -34 16 -55.5
t47 -21.5q32 0 47.5 21.5t15.5 55.5q0 35 -15.5 56.5t-47.5 21.5q-31 0 -47 -22t-16 -56z" />
    <glyph glyph-name="ae" unicode="&#xe6;" horiz-adv-x="782" 
d="M752 290h-301q5 -98 51.5 -146.5t109.5 -48.5q48 0 85.5 22.5t54.5 52.5h10q-17 -75 -72.5 -127.5t-142.5 -52.5q-133 0 -201 90q-89 -59 -127 -74.5t-79 -15.5q-55 0 -87.5 31.5t-32.5 78.5q0 78 130 125l140 45v130q0 51 -21.5 70.5t-68.5 19.5q-23 0 -55 -13.5
t-50 -31.5v-10q50 5 71 -26.5t2.5 -65t-63.5 -33.5q-27 0 -46 19t-19 46q0 55 68 95t152 40q95 0 146 -44q70 44 151 44q31 0 59.5 -5.5t59 -20t48.5 -39.5t28.5 -63t-0.5 -92zM552 500q-93 0 -100 -200l155 5q19 74 10.5 117.5t-25.5 60.5t-40 17zM250 50q34 0 90 38
q-50 71 -50 172l-41 -15q-34 -13 -51.5 -33.5t-17.5 -66.5q0 -44 18.5 -69.5t51.5 -25.5z" />
    <glyph glyph-name="ccedilla" unicode="&#xe7;" horiz-adv-x="510" 
d="M270 -80l3 70q-119 1 -186 75.5t-67 179.5q0 121 83 193t192 72q84 0 134.5 -38.5t50.5 -96.5q0 -27 -19 -46t-46 -19q-49 0 -66 41q-15 36 11 64q25 26 75 20v10q-40 50 -115 50q-63 0 -102.5 -54.5t-39.5 -159.5q0 -92 47.5 -139t114.5 -47q48 0 85.5 22.5t54.5 52.5
h10q-16 -72 -69.5 -124.5t-137.5 -55.5v-65q48 0 79 -21.5t31 -55.5q0 -36 -31.5 -57t-86.5 -21q-36 0 -75 12l1 9q32 -8 47 -8q68 0 68 67q0 27 -12.5 46.5t-33.5 23.5z" />
    <glyph glyph-name="egrave" unicode="&#xe8;" horiz-adv-x="510" 
d="M480 290h-302q5 -98 52 -146.5t110 -48.5q48 0 85.5 22.5t54.5 52.5h10q-17 -75 -72.5 -127.5t-142.5 -52.5q-119 0 -187 74t-68 181q0 65 23.5 117t62.5 83.5t85 48t94 16.5q31 0 59.5 -5.5t59 -20t48.5 -39.5t28.5 -63t-0.5 -92zM280 500q-93 0 -100 -200l155 5
q19 74 10.5 117.5t-25.5 60.5t-40 17zM286 550l-164 180h129l45 -180h-10z" />
    <glyph glyph-name="eacute" unicode="&#xe9;" horiz-adv-x="510" 
d="M480 290h-302q5 -98 52 -146.5t110 -48.5q48 0 85.5 22.5t54.5 52.5h10q-17 -75 -72.5 -127.5t-142.5 -52.5q-119 0 -187 74t-68 181q0 65 23.5 117t62.5 83.5t85 48t94 16.5q31 0 59.5 -5.5t59 -20t48.5 -39.5t28.5 -63t-0.5 -92zM280 500q-93 0 -100 -200l155 5
q19 74 10.5 117.5t-25.5 60.5t-40 17zM292 730h129l-174 -180h-10z" />
    <glyph glyph-name="ecircumflex" unicode="&#xea;" horiz-adv-x="510" 
d="M480 290h-302q5 -98 52 -146.5t110 -48.5q48 0 85.5 22.5t54.5 52.5h10q-17 -75 -72.5 -127.5t-142.5 -52.5q-119 0 -187 74t-68 181q0 65 23.5 117t62.5 83.5t85 48t94 16.5q31 0 59.5 -5.5t59 -20t48.5 -39.5t28.5 -63t-0.5 -92zM280 500q-93 0 -100 -200l155 5
q19 74 10.5 117.5t-25.5 60.5t-40 17zM274 625l-125 -75h-10l130 180h10l130 -180h-10z" />
    <glyph glyph-name="edieresis" unicode="&#xeb;" horiz-adv-x="510" 
d="M480 290h-302q5 -98 52 -146.5t110 -48.5q48 0 85.5 22.5t54.5 52.5h10q-17 -75 -72.5 -127.5t-142.5 -52.5q-119 0 -187 74t-68 181q0 65 23.5 117t62.5 83.5t85 48t94 16.5q31 0 59.5 -5.5t59 -20t48.5 -39.5t28.5 -63t-0.5 -92zM280 500q-93 0 -100 -200l155 5
q19 74 10.5 117.5t-25.5 60.5t-40 17zM103 615q0 28 18.5 46.5t45.5 18.5q28 0 46.5 -18.5t18.5 -46.5t-18.5 -45.5t-46.5 -17.5q-27 0 -45.5 17.5t-18.5 45.5zM298 615q0 28 18.5 46.5t46.5 18.5q27 0 45.5 -18.5t18.5 -46.5t-18.5 -45.5t-45.5 -17.5q-28 0 -46.5 17.5
t-18.5 45.5z" />
    <glyph glyph-name="igrave" unicode="&#xec;" horiz-adv-x="300" 
d="M159 550l-164 180h129l45 -180h-10zM240 510v-495l60 -5v-10h-280v10l60 5v475h-50v10l200 10h10z" />
    <glyph glyph-name="iacute" unicode="&#xed;" horiz-adv-x="300" 
d="M187 730h129l-174 -180h-10zM240 510v-495l60 -5v-10h-280v10l60 5v475h-50v10l200 10h10z" />
    <glyph glyph-name="icircumflex" unicode="&#xee;" horiz-adv-x="300" 
d="M240 510v-495l60 -5v-10h-280v10l60 5v475h-50v10l200 10h10zM160 625l-125 -75h-10l130 180h10l130 -180h-10z" />
    <glyph glyph-name="idieresis" unicode="&#xef;" horiz-adv-x="300" 
d="M-2 615q0 28 18.5 46.5t45.5 18.5q28 0 46.5 -18.5t18.5 -46.5t-18.5 -45.5t-46.5 -17.5q-27 0 -45.5 17.5t-18.5 45.5zM193 615q0 28 18.5 46.5t46.5 18.5q27 0 45.5 -18.5t18.5 -46.5t-18.5 -45.5t-45.5 -17.5q-28 0 -46.5 17.5t-18.5 45.5zM241 510v-495l60 -5v-10
h-280v10l60 5v475h-50v10l200 10h10z" />
    <glyph glyph-name="eth" unicode="&#xf0;" horiz-adv-x="525" 
d="M146 546l105 69q-56 67 -121 85l2 10q88 -18 164 -66l116 77l8 -12l-111 -73q91 -62 143.5 -158.5t52.5 -210.5q0 -116 -67 -196.5t-177 -80.5q-95 0 -168 65t-73 166q0 92 51 155.5t144 63.5q37 0 67 -12.5t44 -25.5l8 3q-3 107 -74 199l-106 -70zM190 210
q0 -103 14.5 -156.5t55.5 -53.5q38 0 60 61.5t22.5 145t-7.5 170.5q-36 39 -70 39q-44 0 -59.5 -55.5t-15.5 -150.5z" />
    <glyph glyph-name="ntilde" unicode="&#xf1;" horiz-adv-x="620" 
d="M560 15l60 -5v-10h-260v10l40 5v365q0 80 -60 80q-43 0 -100 -65v-380l60 -5v-10h-280v10l60 5v475h-50v10l200 10h10v-90h10q75 90 175 90q57 0 96 -36.5t39 -113.5v-345zM127 575l-5 5q22 45 56 87.5t64 42.5q31 0 96.5 -30t103.5 -30q10 0 18 1.5t15.5 6t10 6.5t11 11
t10.5 10l5 -5q-22 -44 -53.5 -82t-61.5 -38q-33 0 -102 30t-103 30q-10 0 -18.5 -2.5t-15.5 -8.5t-11 -10t-11 -12.5t-9 -11.5z" />
    <glyph glyph-name="ograve" unicode="&#xf2;" horiz-adv-x="560" 
d="M280 500q-52 0 -71 -64t-19 -186q0 -59 3.5 -100.5t13 -77.5t27.5 -54t46 -18t46 18t27.5 54t13 77.5t3.5 100.5q0 122 -19 186t-71 64zM280 -10q-108 0 -184 69t-76 191t76 191t184 69t184 -69t76 -191t-76 -191t-184 -69zM291 550l-164 180h129l45 -180h-10z" />
    <glyph glyph-name="oacute" unicode="&#xf3;" horiz-adv-x="560" 
d="M280 500q-52 0 -71 -64t-19 -186q0 -59 3.5 -100.5t13 -77.5t27.5 -54t46 -18t46 18t27.5 54t13 77.5t3.5 100.5q0 122 -19 186t-71 64zM280 -10q-108 0 -184 69t-76 191t76 191t184 69t184 -69t76 -191t-76 -191t-184 -69zM307 730h129l-174 -180h-10z" />
    <glyph glyph-name="ocircumflex" unicode="&#xf4;" horiz-adv-x="560" 
d="M280 500q-52 0 -71 -64t-19 -186q0 -59 3.5 -100.5t13 -77.5t27.5 -54t46 -18t46 18t27.5 54t13 77.5t3.5 100.5q0 122 -19 186t-71 64zM280 -10q-108 0 -184 69t-76 191t76 191t184 69t184 -69t76 -191t-76 -191t-184 -69zM282 625l-125 -75h-10l130 180h10l130 -180
h-10z" />
    <glyph glyph-name="otilde" unicode="&#xf5;" horiz-adv-x="560" 
d="M280 500q-52 0 -71 -64t-19 -186q0 -59 3.5 -100.5t13 -77.5t27.5 -54t46 -18t46 18t27.5 54t13 77.5t3.5 100.5q0 122 -19 186t-71 64zM280 -10q-108 0 -184 69t-76 191t76 191t184 69t184 -69t76 -191t-76 -191t-184 -69zM91 575l-5 5q22 45 56 87.5t64 42.5
q31 0 96.5 -30t103.5 -30q10 0 18 1.5t15.5 6t10 6.5t11 11t10.5 10l5 -5q-22 -44 -53.5 -82t-61.5 -38q-34 0 -102.5 30t-102.5 30q-10 0 -18.5 -2.5t-15.5 -8.5t-11 -10t-11 -12.5t-9 -11.5z" />
    <glyph glyph-name="odieresis" unicode="&#xf6;" horiz-adv-x="560" 
d="M280 500q-52 0 -71 -64t-19 -186q0 -59 3.5 -100.5t13 -77.5t27.5 -54t46 -18t46 18t27.5 54t13 77.5t3.5 100.5q0 122 -19 186t-71 64zM280 -10q-108 0 -184 69t-76 191t76 191t184 69t184 -69t76 -191t-76 -191t-184 -69zM123 615q0 28 18.5 46.5t45.5 18.5
q28 0 46.5 -18.5t18.5 -46.5t-18.5 -45.5t-46.5 -17.5q-27 0 -45.5 17.5t-18.5 45.5zM318 615q0 28 18.5 46.5t46.5 18.5q27 0 45.5 -18.5t18.5 -46.5t-18.5 -45.5t-45.5 -17.5q-28 0 -46.5 17.5t-18.5 45.5z" />
    <glyph glyph-name="divide" unicode="&#xf7;" horiz-adv-x="560" 
d="M237 121q0 21 14 35t34 14t34 -14t14 -35q0 -20 -14 -33.5t-34 -13.5t-34 13.5t-14 33.5zM237 412q0 21 14 35t34 14t34 -14t14 -35q0 -20 -14 -33.5t-34 -13.5t-34 13.5t-14 33.5zM90 272h380v-10h-380v10z" />
    <glyph glyph-name="oslash" unicode="&#xf8;" horiz-adv-x="560" 
d="M510 500l6 -8l-50 -55q74 -74 74 -187q0 -111 -71.5 -185.5t-188.5 -74.5q-101 0 -171 57l-43 -47l-8 8l43 47q-81 73 -81 195q0 111 71.5 185.5t188.5 74.5q107 0 179 -66zM370 250q0 32 -2 80l-174 -190q8 -76 29 -108t57 -32q47 0 68.5 56t21.5 194zM190 250
q0 -54 3 -95l174 189q-7 84 -28 120t-59 36q-39 0 -60.5 -38t-26.5 -128q-3 -38 -3 -84z" />
    <glyph glyph-name="ugrave" unicode="&#xf9;" horiz-adv-x="590" 
d="M60 490h-60v10l210 10h10v-390q0 -80 60 -80q25 0 43.5 14t46.5 51v385h-60v10l210 10h10v-490h60v-10l-210 -20h-10v90h-10q-35 -46 -73.5 -68t-91.5 -22q-57 0 -96 36.5t-39 113.5v350zM283 550l-164 180h129l45 -180h-10z" />
    <glyph glyph-name="uacute" unicode="&#xfa;" horiz-adv-x="590" 
d="M60 490h-60v10l210 10h10v-390q0 -80 60 -80q25 0 43.5 14t46.5 51v385h-60v10l210 10h10v-490h60v-10l-210 -20h-10v90h-10q-35 -46 -73.5 -68t-91.5 -22q-57 0 -96 36.5t-39 113.5v350zM305 730h129l-174 -180h-10z" />
    <glyph glyph-name="ucircumflex" unicode="&#xfb;" horiz-adv-x="590" 
d="M60 490h-60v10l210 10h10v-390q0 -80 60 -80q25 0 43.5 14t46.5 51v385h-60v10l210 10h10v-490h60v-10l-210 -20h-10v90h-10q-35 -46 -73.5 -68t-91.5 -22q-57 0 -96 36.5t-39 113.5v350zM276 625l-125 -75h-10l130 180h10l130 -180h-10z" />
    <glyph glyph-name="udieresis" unicode="&#xfc;" horiz-adv-x="590" 
d="M60 490h-60v10l210 10h10v-390q0 -80 60 -80q25 0 43.5 14t46.5 51v385h-60v10l210 10h10v-490h60v-10l-210 -20h-10v90h-10q-35 -46 -73.5 -68t-91.5 -22q-57 0 -96 36.5t-39 113.5v350zM128 615q0 28 18.5 46.5t45.5 18.5q28 0 46.5 -18.5t18.5 -46.5t-18.5 -45.5
t-46.5 -17.5q-27 0 -45.5 17.5t-18.5 45.5zM323 615q0 28 18.5 46.5t46.5 18.5q27 0 45.5 -18.5t18.5 -46.5t-18.5 -45.5t-45.5 -17.5q-28 0 -46.5 17.5t-18.5 45.5z" />
    <glyph glyph-name="yacute" unicode="&#xfd;" horiz-adv-x="580" 
d="M310 -50l-267 535l-43 5v10h280v-10l-57 -5l147 -315h10l87 295l-87 25v10h200v-10l-98 -25l-159 -515q-69 -180 -183 -180q-44 0 -67 19.5t-23 50.5q0 40 37.5 56t63.5 -9q31 -30 14 -97h5q33 0 72 41.5t68 118.5zM356 730h129l-174 -180h-10z" />
    <glyph glyph-name="thorn" unicode="&#xfe;" horiz-adv-x="590" 
d="M230 30h-10v-235l60 -5v-10h-280v10l60 5v915h-50v10l200 10h10v-270h10q50 50 130 50q96 0 153 -73t57 -187q0 -113 -61.5 -186.5t-158.5 -73.5q-69 0 -120 40zM220 440v-390q33 -25 70 -25q26 0 43 7.5t34 29.5t25 69t8 119q0 69 -8.5 115t-24.5 69t-34 32t-43 9
q-35 0 -70 -35z" />
    <glyph glyph-name="ydieresis" unicode="&#xff;" horiz-adv-x="580" 
d="M310 -50l-267 535l-43 5v10h280v-10l-57 -5l147 -315h10l87 295l-87 25v10h200v-10l-98 -25l-159 -515q-69 -180 -183 -180q-44 0 -67 19.5t-23 50.5q0 40 37.5 56t63.5 -9q31 -30 14 -97h5q33 0 72 41.5t68 118.5zM170 615q0 28 18.5 46.5t45.5 18.5q28 0 46.5 -18.5
t18.5 -46.5t-18.5 -45.5t-46.5 -17.5q-27 0 -45.5 17.5t-18.5 45.5zM365 615q0 28 18.5 46.5t46.5 18.5q27 0 45.5 -18.5t18.5 -46.5t-18.5 -45.5t-45.5 -17.5q-28 0 -46.5 17.5t-18.5 45.5z" />
    <glyph glyph-name="Amacron" unicode="&#x100;" horiz-adv-x="700" 
d="M128 55l112 -45v-10h-240v10l112 45l190 590l91 65l263 -695l44 -5v-10h-300v10l74 5l-79 235h-206zM296 555h-10l-94 -293h200zM195 815h310v-15h-310v15z" />
    <glyph glyph-name="amacron" unicode="&#x101;" horiz-adv-x="510" 
d="M290 60v200l-41 -15q-34 -13 -51.5 -33.5t-17.5 -66.5q0 -44 18.5 -69.5t51.5 -25.5q20 0 40 10zM290 -10v55h-10q-37 -29 -67.5 -42t-72.5 -13q-55 0 -87.5 31.5t-32.5 78.5q0 78 130 125l140 45v130q0 51 -21.5 70.5t-68.5 19.5q-23 0 -55 -13.5t-50 -31.5v-10
q50 5 71 -26.5t2.5 -65t-63.5 -33.5q-27 0 -46 19t-19 46q0 55 68 95t152 40q36 0 67.5 -7t60 -22.5t45.5 -46.5t17 -74v-350h60v-10l-210 -10h-10zM101 615h310v-15h-310v15z" />
    <glyph glyph-name="Abreve" unicode="&#x102;" horiz-adv-x="700" 
d="M128 55l112 -45v-10h-240v10l112 45l190 590l91 65l263 -695l44 -5v-10h-300v10l74 5l-79 235h-206zM296 555h-10l-94 -293h200zM350 770q-63 0 -99 45.5t-36 105.5h8q8 -39 37.5 -56t89.5 -17t89.5 17t37.5 56h8q0 -60 -36 -105.5t-99 -45.5z" />
    <glyph glyph-name="abreve" unicode="&#x103;" horiz-adv-x="510" 
d="M290 60v200l-41 -15q-34 -13 -51.5 -33.5t-17.5 -66.5q0 -44 18.5 -69.5t51.5 -25.5q20 0 40 10zM290 -10v55h-10q-37 -29 -67.5 -42t-72.5 -13q-55 0 -87.5 31.5t-32.5 78.5q0 78 130 125l140 45v130q0 51 -21.5 70.5t-68.5 19.5q-23 0 -55 -13.5t-50 -31.5v-10
q50 5 71 -26.5t2.5 -65t-63.5 -33.5q-27 0 -46 19t-19 46q0 55 68 95t152 40q36 0 67.5 -7t60 -22.5t45.5 -46.5t17 -74v-350h60v-10l-210 -10h-10zM251 570q-63 0 -99 45.5t-36 105.5h8q8 -39 37.5 -56t89.5 -17t89.5 17t37.5 56h8q0 -60 -36 -105.5t-99 -45.5z" />
    <glyph glyph-name="Aogonek" unicode="&#x104;" horiz-adv-x="700" 
d="M296 555h-10l-94 -293h200zM570 0h-170v10l74 5l-79 235h-206l-61 -195l112 -45v-10h-240v10l112 45l190 590l91 65l263 -695l44 -5v-10h-120q-42 -39 -54 -89.5t20 -80t104 -10.5v-10q-13 -17 -40 -28.5t-50 -11.5q-36 0 -59.5 16.5t-29.5 42.5t1 56.5t32.5 61.5
t65.5 53z" />
    <glyph glyph-name="aogonek" unicode="&#x105;" horiz-adv-x="510" 
d="M387 -180v-10q-13 -17 -40 -28.5t-50 -11.5q-43 0 -67.5 23.5t-26 56.5t21 72.5t65.5 67.5v55h-10q-37 -29 -67.5 -42t-72.5 -13q-55 0 -87.5 31.5t-32.5 78.5q0 78 130 125l140 45v130q0 51 -21.5 70.5t-68.5 19.5q-23 0 -55 -13.5t-50 -31.5v-10q50 5 71 -26.5t2.5 -65
t-63.5 -33.5q-27 0 -46 19t-19 46q0 55 68 95t152 40q36 0 67.5 -7t60 -22.5t45.5 -46.5t17 -74v-350h60v-10l-203 -9q-38 -41 -46 -88t24.5 -74t101.5 -9zM290 60v200l-41 -15q-34 -13 -51.5 -33.5t-17.5 -66.5q0 -44 18.5 -69.5t51.5 -25.5q20 0 40 10z" />
    <glyph glyph-name="Cacute" unicode="&#x106;" horiz-adv-x="650" 
d="M610 50q-36 -23 -99 -41.5t-131 -18.5q-156 0 -253 100.5t-97 259.5t97 259.5t253 100.5q68 0 131 -18.5t99 -41.5l5 -170h-10l-70 120q-20 37 -56 68.5t-79 31.5q-98 0 -149 -89t-51 -261q0 -175 48.5 -262.5t151.5 -87.5q43 0 81.5 32.5t58.5 67.5l70 120h10zM392 930
h129l-174 -180h-10z" />
    <glyph glyph-name="cacute" unicode="&#x107;" horiz-adv-x="510" 
d="M275 -10q-119 0 -187 74t-68 181q0 121 83 193t192 72q84 0 134.5 -38.5t50.5 -96.5q0 -27 -19 -46t-46 -19q-49 0 -66 41q-15 36 11 64q25 26 75 20v10q-40 50 -115 50q-63 0 -102.5 -54.5t-39.5 -159.5q0 -92 47.5 -139t114.5 -47q48 0 85.5 22.5t54.5 52.5h10
q-17 -75 -72.5 -127.5t-142.5 -52.5zM288 730h129l-174 -180h-10z" />
    <glyph glyph-name="Ccircumflex" unicode="&#x108;" horiz-adv-x="650" 
d="M610 50q-36 -23 -99 -41.5t-131 -18.5q-156 0 -253 100.5t-97 259.5t97 259.5t253 100.5q68 0 131 -18.5t99 -41.5l5 -170h-10l-70 120q-20 37 -56 68.5t-79 31.5q-98 0 -149 -89t-51 -261q0 -175 48.5 -262.5t151.5 -87.5q43 0 81.5 32.5t58.5 67.5l70 120h10zM381 825
l-125 -75h-10l130 180h10l130 -180h-10z" />
    <glyph glyph-name="ccircumflex" unicode="&#x109;" horiz-adv-x="510" 
d="M275 -10q-119 0 -187 74t-68 181q0 121 83 193t192 72q84 0 134.5 -38.5t50.5 -96.5q0 -27 -19 -46t-46 -19q-49 0 -66 41q-15 36 11 64q25 26 75 20v10q-40 50 -115 50q-63 0 -102.5 -54.5t-39.5 -159.5q0 -92 47.5 -139t114.5 -47q48 0 85.5 22.5t54.5 52.5h10
q-17 -75 -72.5 -127.5t-142.5 -52.5zM267 625l-125 -75h-10l130 180h10l130 -180h-10z" />
    <glyph glyph-name="Cdotaccent" unicode="&#x10a;" horiz-adv-x="650" 
d="M610 50q-36 -23 -99 -41.5t-131 -18.5q-156 0 -253 100.5t-97 259.5t97 259.5t253 100.5q68 0 131 -18.5t99 -41.5l5 -170h-10l-70 120q-20 37 -56 68.5t-79 31.5q-98 0 -149 -89t-51 -261q0 -175 48.5 -262.5t151.5 -87.5q43 0 81.5 32.5t58.5 67.5l70 120h10zM310 827
q0 29 20 49t49 20t49 -20t20 -49t-20 -49t-49 -20t-49 20t-20 49z" />
    <glyph glyph-name="cdotaccent" unicode="&#x10b;" horiz-adv-x="510" 
d="M275 -10q-119 0 -187 74t-68 181q0 121 83 193t192 72q84 0 134.5 -38.5t50.5 -96.5q0 -27 -19 -46t-46 -19q-49 0 -66 41q-15 36 11 64q25 26 75 20v10q-40 50 -115 50q-63 0 -102.5 -54.5t-39.5 -159.5q0 -92 47.5 -139t114.5 -47q48 0 85.5 22.5t54.5 52.5h10
q-17 -75 -72.5 -127.5t-142.5 -52.5zM207 627q0 29 20 49t49 20t49 -20t20 -49t-20 -49t-49 -20t-49 20t-20 49z" />
    <glyph glyph-name="Ccaron" unicode="&#x10c;" horiz-adv-x="650" 
d="M610 50q-36 -23 -99 -41.5t-131 -18.5q-156 0 -253 100.5t-97 259.5t97 259.5t253 100.5q68 0 131 -18.5t99 -41.5l5 -170h-10l-70 120q-20 37 -56 68.5t-79 31.5q-98 0 -149 -89t-51 -261q0 -175 48.5 -262.5t151.5 -87.5q43 0 81.5 32.5t58.5 67.5l70 120h10zM238 930
h10l125 -75l125 75h10l-130 -180h-10z" />
    <glyph glyph-name="ccaron" unicode="&#x10d;" horiz-adv-x="510" 
d="M275 -10q-119 0 -187 74t-68 181q0 121 83 193t192 72q84 0 134.5 -38.5t50.5 -96.5q0 -27 -19 -46t-46 -19q-49 0 -66 41q-15 36 11 64q25 26 75 20v10q-40 50 -115 50q-63 0 -102.5 -54.5t-39.5 -159.5q0 -92 47.5 -139t114.5 -47q48 0 85.5 22.5t54.5 52.5h10
q-17 -75 -72.5 -127.5t-142.5 -52.5zM139 730h10l125 -75l125 75h10l-130 -180h-10z" />
    <glyph glyph-name="Dcaron" unicode="&#x10e;" horiz-adv-x="740" 
d="M250 10h90q51 0 91 30.5t63 80.5t34.5 108.5t11.5 120.5q0 149 -52.5 244.5t-157.5 95.5h-80v-680zM340 0h-310v10l60 5v670l-60 5v10h310q164 0 267 -94t103 -256q0 -154 -104 -252t-266 -98zM202 930h10l125 -75l125 75h10l-130 -180h-10z" />
    <glyph glyph-name="dcaron" unicode="&#x10f;" 
d="M530 10h60v-10l-210 -10h-10v50h-10q-50 -50 -130 -50q-96 0 -153 73t-57 187q0 113 61.5 186.5t158.5 73.5q69 0 120 -40h10v240h-50v10l200 10h10v-720zM370 60v390q-33 25 -70 25q-26 0 -43 -7.5t-34 -29.5t-25 -69t-8 -119q0 -69 8.5 -115t24.5 -69t34 -32t43 -9
q35 0 70 35zM565 820v120q78 11 116.5 -19t38.5 -87q0 -70 -44 -124.5t-97 -73.5l-4 10q40 14 64.5 43.5t27 58t-24 50.5t-77.5 22z" />
    <glyph glyph-name="Dcroat" unicode="&#x110;" horiz-adv-x="740" 
d="M30 360h60v325l-60 5v10h310q164 0 267 -94t103 -256q0 -154 -104 -252t-266 -98h-310v10l60 5v335h-60v10zM250 10h90q51 0 91 30.5t63 80.5t34.5 108.5t11.5 120.5q0 149 -52.5 244.5t-157.5 95.5h-80v-330h110v-10h-110v-340z" />
    <glyph glyph-name="dcroat" unicode="&#x111;" 
d="M370 540h-40v10h40v160h-50v10l200 10h10v-180h40v-10h-40v-530h60v-10l-210 -10h-10v50h-10q-50 -50 -130 -50q-96 0 -153 73t-57 187q0 113 61.5 186.5t158.5 73.5q69 0 120 -40h10v70zM370 60v390q-33 25 -70 25q-26 0 -43 -7.5t-34 -29.5t-25 -69t-8 -119
q0 -69 8.5 -115t24.5 -69t34 -32t43 -9q35 0 70 35z" />
    <glyph glyph-name="Emacron" unicode="&#x112;" 
d="M250 690v-335l140 5l55 120h10v-255h-10l-55 115l-140 5v-335l195 5l115 155h10l-10 -170h-530v10l60 5v670l-60 5v10h520l5 -170h-10l-110 155zM177 815h310v-15h-310v15z" />
    <glyph glyph-name="emacron" unicode="&#x113;" horiz-adv-x="510" 
d="M480 290h-302q5 -98 52 -146.5t110 -48.5q48 0 85.5 22.5t54.5 52.5h10q-17 -75 -72.5 -127.5t-142.5 -52.5q-119 0 -187 74t-68 181q0 65 23.5 117t62.5 83.5t85 48t94 16.5q31 0 59.5 -5.5t59 -20t48.5 -39.5t28.5 -63t-0.5 -92zM280 500q-93 0 -100 -200l155 5
q19 74 10.5 117.5t-25.5 60.5t-40 17zM120 615h310v-15h-310v15z" />
    <glyph glyph-name="Ebreve" unicode="&#x114;" 
d="M250 690v-335l140 5l55 120h10v-255h-10l-55 115l-140 5v-335l195 5l115 155h10l-10 -170h-530v10l60 5v670l-60 5v10h520l5 -170h-10l-110 155zM325 770q-63 0 -99 45.5t-36 105.5h8q8 -39 37.5 -56t89.5 -17t89.5 17t37.5 56h8q0 -60 -36 -105.5t-99 -45.5z" />
    <glyph glyph-name="ebreve" unicode="&#x115;" horiz-adv-x="510" 
d="M480 290h-302q5 -98 52 -146.5t110 -48.5q48 0 85.5 22.5t54.5 52.5h10q-17 -75 -72.5 -127.5t-142.5 -52.5q-119 0 -187 74t-68 181q0 65 23.5 117t62.5 83.5t85 48t94 16.5q31 0 59.5 -5.5t59 -20t48.5 -39.5t28.5 -63t-0.5 -92zM280 500q-93 0 -100 -200l155 5
q19 74 10.5 117.5t-25.5 60.5t-40 17zM271 570q-63 0 -99 45.5t-36 105.5h8q8 -39 37.5 -56t89.5 -17t89.5 17t37.5 56h8q0 -60 -36 -105.5t-99 -45.5z" />
    <glyph glyph-name="Edotaccent" unicode="&#x116;" 
d="M250 690v-335l140 5l55 120h10v-255h-10l-55 115l-140 5v-335l195 5l115 155h10l-10 -170h-530v10l60 5v670l-60 5v10h520l5 -170h-10l-110 155zM264 827q0 29 20 49t49 20t49 -20t20 -49t-20 -49t-49 -20t-49 20t-20 49z" />
    <glyph glyph-name="edotaccent" unicode="&#x117;" horiz-adv-x="510" 
d="M480 290h-302q5 -98 52 -146.5t110 -48.5q48 0 85.5 22.5t54.5 52.5h10q-17 -75 -72.5 -127.5t-142.5 -52.5q-119 0 -187 74t-68 181q0 65 23.5 117t62.5 83.5t85 48t94 16.5q31 0 59.5 -5.5t59 -20t48.5 -39.5t28.5 -63t-0.5 -92zM280 500q-93 0 -100 -200l155 5
q19 74 10.5 117.5t-25.5 60.5t-40 17zM196 627q0 29 20 49t49 20t49 -20t20 -49t-20 -49t-49 -20t-49 20t-20 49z" />
    <glyph glyph-name="Eogonek" unicode="&#x118;" 
d="M550 0h-520v10l60 5v670l-60 5v10h520l5 -170h-10l-110 155l-185 5v-335l140 5l55 120h10v-255h-10l-55 115l-140 5v-335l195 5l115 155h10l-10 -170q-42 -39 -54 -89.5t20 -80t104 -10.5v-10q-13 -17 -40 -28.5t-50 -11.5q-36 0 -59.5 16.5t-29.5 42.5t1 56.5t32.5 61.5
t65.5 53z" />
    <glyph glyph-name="eogonek" unicode="&#x119;" horiz-adv-x="510" 
d="M433 -175v-10q-13 -17 -40 -28.5t-50 -11.5q-36 0 -59.5 16.5t-29.5 42.5t1 56.5t32.5 61.5t65.5 53q-39 -15 -78 -15q-119 0 -187 74t-68 181q0 65 23.5 117t62.5 83.5t85 48t94 16.5q31 0 59.5 -5.5t59 -20t48.5 -39.5t28.5 -63t-0.5 -92h-302q5 -98 52 -146.5
t110 -48.5q48 0 85.5 22.5t54.5 52.5h10q-9 -41 -45.5 -89.5t-79.5 -75.5q-36 -23 -52.5 -60t-9.5 -69t41.5 -49t88.5 -2zM280 500q-93 0 -100 -200l155 5q19 74 10.5 117.5t-25.5 60.5t-40 17z" />
    <glyph glyph-name="Ecaron" unicode="&#x11a;" 
d="M250 690v-335l140 5l55 120h10v-255h-10l-55 115l-140 5v-335l195 5l115 155h10l-10 -170h-530v10l60 5v670l-60 5v10h520l5 -170h-10l-110 155zM192 930h10l125 -75l125 75h10l-130 -180h-10z" />
    <glyph glyph-name="ecaron" unicode="&#x11b;" horiz-adv-x="510" 
d="M480 290h-302q5 -98 52 -146.5t110 -48.5q48 0 85.5 22.5t54.5 52.5h10q-17 -75 -72.5 -127.5t-142.5 -52.5q-119 0 -187 74t-68 181q0 65 23.5 117t62.5 83.5t85 48t94 16.5q31 0 59.5 -5.5t59 -20t48.5 -39.5t28.5 -63t-0.5 -92zM280 500q-93 0 -100 -200l155 5
q19 74 10.5 117.5t-25.5 60.5t-40 17zM140 730h10l125 -75l125 75h10l-130 -180h-10z" />
    <glyph glyph-name="Gcircumflex" unicode="&#x11c;" horiz-adv-x="710" 
d="M30 350q0 159 97 259.5t253 100.5q68 0 131 -18.5t99 -41.5l5 -170h-10l-70 120q-19 35 -57 67.5t-78 32.5q-98 0 -149 -89t-51 -261q0 -164 48.5 -257t131.5 -93q61 0 100 30v245l-60 5v10h270v-10l-50 -5v-205q-35 -27 -113.5 -53.5t-146.5 -26.5q-156 0 -253 100.5
t-97 259.5zM390 825l-125 -75h-10l130 180h10l130 -180h-10z" />
    <glyph glyph-name="gcircumflex" unicode="&#x11d;" horiz-adv-x="545" 
d="M155 170v10q-49 16 -87 60.5t-38 95.5q0 77 62.5 125.5t157.5 48.5q64 0 132 -29q42 48 103 48q31 0 50.5 -17t19.5 -43q0 -40 -36 -49q-34 -9 -57 16q-27 30 -1 80q-34 4 -72 -40q35 -24 55.5 -61t20.5 -76q0 -81 -60 -130t-155 -49q-52 0 -80 14q-20 -20 -20 -36
q0 -9 3.5 -14t20.5 -10.5t51 -7.5l139 -9q86 -6 126 -40t40 -87q0 -80 -82 -140t-218 -60q-123 0 -171.5 26.5t-48.5 77.5q0 65 112 96v10q-19 6 -32.5 12t-29 25t-15.5 46q0 65 110 107zM310 -40l-175 15q-30 -40 -30 -90q0 -51 40 -78t105 -27q81 0 125.5 30t44.5 72
q0 37 -27 55t-83 23zM185 335q12 -165 70 -165q37 0 49 37.5t6 130.5q-6 94 -20.5 128t-44.5 34q-72 0 -60 -165zM250 625l-125 -75h-10l130 180h10l130 -180h-10z" />
    <glyph glyph-name="Gbreve" unicode="&#x11e;" horiz-adv-x="710" 
d="M30 350q0 159 97 259.5t253 100.5q68 0 131 -18.5t99 -41.5l5 -170h-10l-70 120q-19 35 -57 67.5t-78 32.5q-98 0 -149 -89t-51 -261q0 -164 48.5 -257t131.5 -93q61 0 100 30v245l-60 5v10h270v-10l-50 -5v-205q-35 -27 -113.5 -53.5t-146.5 -26.5q-156 0 -253 100.5
t-97 259.5zM374 770q-63 0 -99 45.5t-36 105.5h8q8 -39 37.5 -56t89.5 -17t89.5 17t37.5 56h8q0 -60 -36 -105.5t-99 -45.5z" />
    <glyph glyph-name="gbreve" unicode="&#x11f;" horiz-adv-x="545" 
d="M155 170v10q-49 16 -87 60.5t-38 95.5q0 77 62.5 125.5t157.5 48.5q64 0 132 -29q42 48 103 48q31 0 50.5 -17t19.5 -43q0 -40 -36 -49q-34 -9 -57 16q-27 30 -1 80q-34 4 -72 -40q35 -24 55.5 -61t20.5 -76q0 -81 -60 -130t-155 -49q-52 0 -80 14q-20 -20 -20 -36
q0 -9 3.5 -14t20.5 -10.5t51 -7.5l139 -9q86 -6 126 -40t40 -87q0 -80 -82 -140t-218 -60q-123 0 -171.5 26.5t-48.5 77.5q0 65 112 96v10q-19 6 -32.5 12t-29 25t-15.5 46q0 65 110 107zM310 -40l-175 15q-30 -40 -30 -90q0 -51 40 -78t105 -27q81 0 125.5 30t44.5 72
q0 37 -27 55t-83 23zM185 335q12 -165 70 -165q37 0 49 37.5t6 130.5q-6 94 -20.5 128t-44.5 34q-72 0 -60 -165zM257 570q-63 0 -99 45.5t-36 105.5h8q8 -39 37.5 -56t89.5 -17t89.5 17t37.5 56h8q0 -60 -36 -105.5t-99 -45.5z" />
    <glyph glyph-name="Gdotaccent" unicode="&#x120;" horiz-adv-x="710" 
d="M30 350q0 159 97 259.5t253 100.5q68 0 131 -18.5t99 -41.5l5 -170h-10l-70 120q-19 35 -57 67.5t-78 32.5q-98 0 -149 -89t-51 -261q0 -164 48.5 -257t131.5 -93q61 0 100 30v245l-60 5v10h270v-10l-50 -5v-205q-35 -27 -113.5 -53.5t-146.5 -26.5q-156 0 -253 100.5
t-97 259.5zM312 827q0 29 20 49t49 20t49 -20t20 -49t-20 -49t-49 -20t-49 20t-20 49z" />
    <glyph glyph-name="gdotaccent" unicode="&#x121;" horiz-adv-x="545" 
d="M155 170v10q-49 16 -87 60.5t-38 95.5q0 77 62.5 125.5t157.5 48.5q64 0 132 -29q42 48 103 48q31 0 50.5 -17t19.5 -43q0 -40 -36 -49q-34 -9 -57 16q-27 30 -1 80q-34 4 -72 -40q35 -24 55.5 -61t20.5 -76q0 -81 -60 -130t-155 -49q-52 0 -80 14q-20 -20 -20 -36
q0 -9 3.5 -14t20.5 -10.5t51 -7.5l139 -9q86 -6 126 -40t40 -87q0 -80 -82 -140t-218 -60q-123 0 -171.5 26.5t-48.5 77.5q0 65 112 96v10q-19 6 -32.5 12t-29 25t-15.5 46q0 65 110 107zM310 -40l-175 15q-30 -40 -30 -90q0 -51 40 -78t105 -27q81 0 125.5 30t44.5 72
q0 37 -27 55t-83 23zM185 335q12 -165 70 -165q37 0 49 37.5t6 130.5q-6 94 -20.5 128t-44.5 34q-72 0 -60 -165zM180 627q0 29 20 49t49 20t49 -20t20 -49t-20 -49t-49 -20t-49 20t-20 49z" />
    <glyph glyph-name="Gcommaaccent" unicode="&#x122;" horiz-adv-x="710" 
d="M30 350q0 159 97 259.5t253 100.5q68 0 131 -18.5t99 -41.5l5 -170h-10l-70 120q-19 35 -57 67.5t-78 32.5q-98 0 -149 -89t-51 -261q0 -164 48.5 -257t131.5 -93q61 0 100 30v245l-60 5v10h270v-10l-50 -5v-205q-35 -27 -113.5 -53.5t-146.5 -26.5q-156 0 -253 100.5
t-97 259.5zM319 -170v120q78 11 116.5 -19t38.5 -87q0 -70 -44 -124.5t-97 -73.5l-4 10q40 14 64.5 43.5t27 58t-24 50.5t-77.5 22z" />
    <glyph glyph-name="gcommaaccent" unicode="&#x123;" horiz-adv-x="545" 
d="M155 170v10q-49 16 -87 60.5t-38 95.5q0 77 62.5 125.5t157.5 48.5q64 0 132 -29q42 48 103 48q31 0 50.5 -17t19.5 -43q0 -40 -36 -49q-34 -9 -57 16q-27 30 -1 80q-34 4 -72 -40q35 -24 55.5 -61t20.5 -76q0 -81 -60 -130t-155 -49q-52 0 -80 14q-20 -20 -20 -36
q0 -9 3.5 -14t20.5 -10.5t51 -7.5l139 -9q86 -6 126 -40t40 -87q0 -80 -82 -140t-218 -60q-123 0 -171.5 26.5t-48.5 77.5q0 65 112 96v10q-19 6 -32.5 12t-29 25t-15.5 46q0 65 110 107zM310 -40l-175 15q-30 -40 -30 -90q0 -51 40 -78t105 -27q81 0 125.5 30t44.5 72
q0 37 -27 55t-83 23zM185 335q12 -165 70 -165q37 0 49 37.5t6 130.5q-6 94 -20.5 128t-44.5 34q-72 0 -60 -165zM317 670v-120q-78 -11 -116.5 19t-38.5 87q0 70 44 124.5t97 73.5l4 -10q-40 -14 -64.5 -43.5t-27 -58t24 -50.5t77.5 -22z" />
    <glyph glyph-name="Hcircumflex" unicode="&#x124;" horiz-adv-x="780" 
d="M530 15v335h-280v-335l60 -5v-10h-280v10l60 5v670l-60 5v10h280v-10l-60 -5v-323h280v323l-60 5v10h280v-10l-60 -5v-670l60 -5v-10h-280v10zM390 825l-125 -75h-10l130 180h10l130 -180h-10z" />
    <glyph glyph-name="hcircumflex" unicode="&#x125;" horiz-adv-x="620" 
d="M560 15l60 -5v-10h-260v10l40 5v365q0 80 -60 80q-43 0 -100 -65v-380l60 -5v-10h-280v10l60 5v695h-50v10l200 10h10v-310h10q75 90 175 90q57 0 96 -36.5t39 -113.5v-345zM160 825l-125 -75h-10l130 180h10l130 -180h-10z" />
    <glyph glyph-name="Hbar" unicode="&#x126;" horiz-adv-x="780" 
d="M90 545h-40v10h40v130l-60 5v10h280v-10l-60 -5v-130h280v130l-60 5v10h280v-10l-60 -5v-130h40v-10h-40v-530l60 -5v-10h-280v10l60 5v335h-280v-335l60 -5v-10h-280v10l60 5v530zM530 545h-280v-183h280v183z" />
    <glyph glyph-name="hbar" unicode="&#x127;" horiz-adv-x="620" 
d="M40 550h40v160h-50v10l200 10h10v-180h40v-10h-40v-120h10q75 90 175 90q57 0 96 -36.5t39 -113.5v-345l60 -5v-10h-260v10l40 5v365q0 80 -60 80q-43 0 -100 -65v-380l60 -5v-10h-280v10l60 5v525h-40v10z" />
    <glyph glyph-name="Itilde" unicode="&#x128;" horiz-adv-x="340" 
d="M30 10l60 5v670l-60 5v10h280v-10l-60 -5v-670l60 -5v-10h-280v10zM-20 775l-5 5q22 45 56 87.5t64 42.5q31 0 96.5 -30t103.5 -30q10 0 18 1.5t15.5 6t10 6.5t11 11t10.5 10l5 -5q-22 -44 -53.5 -82t-61.5 -38q-34 0 -103 30t-102 30q-10 0 -18.5 -2.5t-15.5 -8.5
t-11 -10t-11 -12.5t-9 -11.5z" />
    <glyph glyph-name="itilde" unicode="&#x129;" horiz-adv-x="300" 
d="M-40 575l-5 5q22 45 56 87.5t64 42.5q31 0 96.5 -30t103.5 -30q10 0 18 1.5t15.5 6t10 6.5t11 11t10.5 10l5 -5q-22 -44 -53.5 -82t-61.5 -38q-34 0 -103 30t-102 30q-10 0 -18.5 -2.5t-15.5 -8.5t-11 -10t-11 -12.5t-9 -11.5zM240 510v-495l60 -5v-10h-280v10l60 5v475
h-50v10l200 10h10z" />
    <glyph glyph-name="Imacron" unicode="&#x12a;" horiz-adv-x="340" 
d="M30 10l60 5v670l-60 5v10h280v-10l-60 -5v-670l60 -5v-10h-280v10zM15 815h310v-15h-310v15z" />
    <glyph glyph-name="imacron" unicode="&#x12b;" horiz-adv-x="300" 
d="M0 615h310v-15h-310v15zM240 510v-495l60 -5v-10h-280v10l60 5v475h-50v10l200 10h10z" />
    <glyph glyph-name="Ibreve" unicode="&#x12c;" horiz-adv-x="340" 
d="M30 10l60 5v670l-60 5v10h280v-10l-60 -5v-670l60 -5v-10h-280v10zM170 770q-63 0 -99 45.5t-36 105.5h8q8 -39 37.5 -56t89.5 -17t89.5 17t37.5 56h8q0 -60 -36 -105.5t-99 -45.5z" />
    <glyph glyph-name="ibreve" unicode="&#x12d;" horiz-adv-x="300" 
d="M161 570q-63 0 -99 45.5t-36 105.5h8q8 -39 37.5 -56t89.5 -17t89.5 17t37.5 56h8q0 -60 -36 -105.5t-99 -45.5zM240 510v-495l60 -5v-10h-280v10l60 5v475h-50v10l200 10h10z" />
    <glyph glyph-name="Iogonek" unicode="&#x12e;" horiz-adv-x="340" 
d="M190 0h-160v10l60 5v670l-60 5v10h280v-10l-60 -5v-670l60 -5v-10h-108q-43 -39 -55.5 -89.5t19.5 -80t104 -10.5v-10q-13 -17 -40 -28.5t-50 -11.5q-36 0 -59.5 16.5t-29.5 42.5t1 56.5t32.5 61.5t65.5 53z" />
    <glyph glyph-name="iogonek" unicode="&#x12f;" horiz-adv-x="300" 
d="M240 -180v-10q-13 -17 -40 -28.5t-50 -11.5q-36 0 -59.5 16.5t-29.5 42.5t1 56.5t32.5 61.5t65.5 53h-140v10l60 5v475h-50v10l200 10h10v-495l60 -5v-10h-130q-42 -39 -54 -89.5t20 -80t104 -10.5zM70 660q0 38 26 64t64 26t64 -26t26 -64t-26 -64t-64 -26t-64 26
t-26 64z" />
    <glyph glyph-name="Idotaccent" unicode="&#x130;" horiz-adv-x="340" 
d="M30 10l60 5v670l-60 5v10h280v-10l-60 -5v-670l60 -5v-10h-280v10zM101 827q0 29 20 49t49 20t49 -20t20 -49t-20 -49t-49 -20t-49 20t-20 49z" />
    <glyph glyph-name="dotlessi" unicode="&#x131;" horiz-adv-x="300" 
d="M240 510v-495l60 -5v-10h-280v10l60 5v475h-50v10l200 10h10z" />
    <glyph glyph-name="IJ" unicode="&#x132;" horiz-adv-x="740" 
d="M30 10l60 5v670l-60 5v10h280v-10l-60 -5v-670l60 -5v-10h-280v10zM500 170v515l-60 5v10h280v-10l-60 -5v-475q0 -83 -70.5 -151.5t-159.5 -68.5q-47 0 -73.5 19.5t-26.5 50.5q0 43 40 57q38 14 66 -11q36 -32 9 -101h10q26 0 35.5 41t9.5 124z" />
    <glyph glyph-name="ij" unicode="&#x133;" horiz-adv-x="580" 
d="M70 660q0 38 26 64t64 26t64 -26t26 -64t-26 -64t-64 -26t-64 26t-26 64zM240 510v-495l60 -5v-10h-280v10l60 5v475h-50v10q54 2 160 8zM540 510v-520q0 -83 -70.5 -151.5t-159.5 -68.5q-47 0 -73.5 19.5t-26.5 50.5q0 26 17 43.5t48 17.5q32 0 52 -29t-2 -87h10
q27 0 36 47t9 158v500h-50v10l200 10h10zM370 660q0 38 26 64t64 26t64 -26t26 -64t-26 -64t-64 -26t-64 26t-26 64z" />
    <glyph glyph-name="Jcircumflex" unicode="&#x134;" horiz-adv-x="430" 
d="M190 170v515l-60 5v10h280v-10l-60 -5v-475q0 -83 -70.5 -151.5t-159.5 -68.5q-47 0 -73.5 19.5t-26.5 50.5q0 43 40 57q38 14 66 -11q36 -32 9 -101h10q26 0 35.5 41t9.5 124zM270 825l-125 -75h-10l130 180h10l130 -180h-10z" />
    <glyph glyph-name="jcircumflex" unicode="&#x135;" horiz-adv-x="280" 
d="M240 510v-520q0 -83 -70.5 -151.5t-159.5 -68.5q-47 0 -73.5 19.5t-26.5 50.5q0 26 17 43.5t48 17.5q32 0 52 -29t-2 -87h10q27 0 36 47t9 158v500h-50v10l200 10h10zM155 625l-125 -75h-10l130 180h10l130 -180h-10z" />
    <glyph glyph-name="Kcommaaccent" unicode="&#x136;" horiz-adv-x="735" 
d="M300 360l226 285l-111 45v10h270v-10l-139 -45l-161 -195l281 -435l59 -5v-10h-320v10l66 5l-201 335h-20v-335l60 -5v-10h-280v10l60 5v670l-60 5v10h280v-10l-60 -5v-325h50zM290 -163v120q78 11 116.5 -19t38.5 -87q0 -70 -44 -124.5t-97 -73.5l-4 10q40 14 64.5 43.5
t27 58t-24 50.5t-77.5 22z" />
    <glyph glyph-name="kcommaaccent" unicode="&#x137;" horiz-adv-x="620" 
d="M240 730v-450h20l185 185l-95 25v10h235v-10l-120 -25l-90 -85l200 -365l35 -5v-10h-260v10l35 5l-125 255h-20v-255l50 -5v-10h-270v10l60 5v695h-50v10l200 10h10zM233 -170v120q78 11 116.5 -19t38.5 -87q0 -70 -44 -124.5t-97 -73.5l-4 10q40 14 64.5 43.5t27 58
t-24 50.5t-77.5 22z" />
    <glyph glyph-name="kgreenlandic" unicode="&#x138;" horiz-adv-x="620" 
d="M240 510v-230h20l185 185l-95 25v10h235v-10l-120 -25l-90 -85l200 -365l35 -5v-10h-260v10l35 5l-125 255h-20v-255l50 -5v-10h-270v10l60 5v475h-50v10l200 10h10z" />
    <glyph glyph-name="Lacute" unicode="&#x139;" horiz-adv-x="580" 
d="M250 10l195 5l115 155h10l-10 -170h-530v10l60 5v670l-60 5v10h280v-10l-60 -5v-675zM213 930h129l-174 -180h-10z" />
    <glyph glyph-name="lacute" unicode="&#x13a;" horiz-adv-x="300" 
d="M240 730v-715l60 -5v-10h-280v10l60 5v695h-50v10l200 10h10zM192 950h129l-174 -180h-10z" />
    <glyph glyph-name="Lcommaaccent" unicode="&#x13b;" horiz-adv-x="580" 
d="M250 10l195 5l115 155h10l-10 -170h-530v10l60 5v670l-60 5v10h280v-10l-60 -5v-675zM241 -162v120q78 11 116.5 -19t38.5 -87q0 -70 -44 -124.5t-97 -73.5l-4 10q40 14 64.5 43.5t27 58t-24 50.5t-77.5 22z" />
    <glyph glyph-name="lcommaaccent" unicode="&#x13c;" horiz-adv-x="300" 
d="M240 730v-715l60 -5v-10h-280v10l60 5v695h-50v10l200 10h10zM80 -170v120q78 11 116.5 -19t38.5 -87q0 -70 -44 -124.5t-97 -73.5l-4 10q40 14 64.5 43.5t27 58t-24 50.5t-77.5 22z" />
    <glyph glyph-name="Lcaron" unicode="&#x13d;" horiz-adv-x="580" 
d="M250 10l195 5l115 155h10l-10 -170h-530v10l60 5v670l-60 5v10h280v-10l-60 -5v-675zM345 590v120q78 11 116.5 -19t38.5 -87q0 -70 -44 -124.5t-97 -73.5l-4 10q40 14 64.5 43.5t27 58t-24 50.5t-77.5 22z" />
    <glyph glyph-name="lcaron" unicode="&#x13e;" horiz-adv-x="300" 
d="M240 730v-715l60 -5v-10h-280v10l60 5v695h-50v10l200 10h10zM275 820v120q78 11 116.5 -19t38.5 -87q0 -70 -44 -124.5t-97 -73.5l-4 10q40 14 64.5 43.5t27 58t-24 50.5t-77.5 22z" />
    <glyph glyph-name="Ldot" unicode="&#x13f;" horiz-adv-x="580" 
d="M250 10l195 5l115 155h10l-10 -170h-530v10l60 5v670l-60 5v10h280v-10l-60 -5v-675zM319 353q0 28 18.5 46.5t45.5 18.5t45.5 -18.5t18.5 -46.5t-18.5 -45.5t-45.5 -17.5t-45.5 17.5t-18.5 45.5z" />
    <glyph glyph-name="ldot" unicode="&#x140;" horiz-adv-x="356" 
d="M240 730v-715l60 -5v-10h-280v10l60 5v695h-50v10l200 10h10zM279 343q0 28 18.5 46.5t45.5 18.5t45.5 -18.5t18.5 -46.5t-18.5 -45.5t-45.5 -17.5t-45.5 17.5t-18.5 45.5z" />
    <glyph glyph-name="Lslash" unicode="&#x141;" horiz-adv-x="580" 
d="M250 10l195 5l115 155h10l-10 -170h-530v10l60 5v302l-40 -16v15l40 16v353l-60 5v10h280v-10l-60 -5v-288l70 29v-15l-70 -29v-372z" />
    <glyph glyph-name="lslash" unicode="&#x142;" horiz-adv-x="300" 
d="M30 312l50 20v378h-50v10l200 10h10v-333l50 21v-15l-50 -21v-367l60 -5v-10h-280v10l60 5v302l-50 -20v15z" />
    <glyph glyph-name="Nacute" unicode="&#x143;" horiz-adv-x="730" 
d="M578 265h10l-3 380l-115 45v10h240v-10l-110 -45v-650h-20l-419 595h-10l4 -535l115 -45v-10h-240v10l110 45v630l-110 5v10h250zM389 930h129l-174 -180h-10z" />
    <glyph glyph-name="nacute" unicode="&#x144;" horiz-adv-x="620" 
d="M560 15l60 -5v-10h-260v10l40 5v365q0 80 -60 80q-43 0 -100 -65v-380l60 -5v-10h-280v10l60 5v475h-50v10l200 10h10v-90h10q75 90 175 90q57 0 96 -36.5t39 -113.5v-345zM341 730h129l-174 -180h-10z" />
    <glyph glyph-name="Ncommaaccent" unicode="&#x145;" horiz-adv-x="730" 
d="M578 265h10l-3 380l-115 45v10h240v-10l-110 -45v-650h-20l-419 595h-10l4 -535l115 -45v-10h-240v10l110 45v630l-110 5v10h250zM289 -170v120q78 11 116.5 -19t38.5 -87q0 -70 -44 -124.5t-97 -73.5l-4 10q40 14 64.5 43.5t27 58t-24 50.5t-77.5 22z" />
    <glyph glyph-name="ncommaaccent" unicode="&#x146;" horiz-adv-x="620" 
d="M560 15l60 -5v-10h-260v10l40 5v365q0 80 -60 80q-43 0 -100 -65v-380l60 -5v-10h-280v10l60 5v475h-50v10l200 10h10v-90h10q75 90 175 90q57 0 96 -36.5t39 -113.5v-345zM248 -170v120q78 11 116.5 -19t38.5 -87q0 -70 -44 -124.5t-97 -73.5l-4 10q40 14 64.5 43.5
t27 58t-24 50.5t-77.5 22z" />
    <glyph glyph-name="Ncaron" unicode="&#x147;" horiz-adv-x="730" 
d="M578 265h10l-3 380l-115 45v10h240v-10l-110 -45v-650h-20l-419 595h-10l4 -535l115 -45v-10h-240v10l110 45v630l-110 5v10h250zM233 930h10l125 -75l125 75h10l-130 -180h-10z" />
    <glyph glyph-name="ncaron" unicode="&#x148;" horiz-adv-x="620" 
d="M560 15l60 -5v-10h-260v10l40 5v365q0 80 -60 80q-43 0 -100 -65v-380l60 -5v-10h-280v10l60 5v475h-50v10l200 10h10v-90h10q75 90 175 90q57 0 96 -36.5t39 -113.5v-345zM191 730h10l125 -75l125 75h10l-130 -180h-10z" />
    <glyph glyph-name="napostrophe" unicode="&#x149;" horiz-adv-x="620" 
d="M560 15l60 -5v-10h-260v10l40 5v365q0 80 -60 80q-43 0 -100 -65v-380l60 -5v-10h-280v10l60 5v475h-50v10l200 10h10v-90h10q75 90 175 90q57 0 96 -36.5t39 -113.5v-345zM108 721v120q78 11 116.5 -19t38.5 -87q0 -70 -44 -124.5t-97 -73.5l-4 10q40 14 64.5 43.5
t27 58t-24 50.5t-77.5 22z" />
    <glyph glyph-name="Eng" unicode="&#x14a;" horiz-adv-x="730" 
d="M580 0l-419 590h-10l4 -535l115 -45v-10h-240v10l110 45v630l-110 5v10h250l298 -435h10l-3 380l-115 45v10h240v-10l-110 -45v-561q0 -45 -2 -80.5t-11 -82t-24 -77t-44 -52.5t-69 -22q-34 0 -62 17.5t-28 56.5q0 29 24.5 45.5t54 10.5t40.5 -33q14 -33 -4 -82
q41 0 73 62.5t32 152.5z" />
    <glyph glyph-name="eng" unicode="&#x14b;" horiz-adv-x="620" 
d="M400 -10v390q0 80 -60 80q-43 0 -100 -65v-380l60 -5v-10h-280v10l60 5v475h-50v10l200 10h10v-90h10q75 90 175 90q57 0 96 -36.5t39 -113.5v-296q0 -53 -12.5 -103t-38.5 -94t-72 -70.5t-107 -26.5q-41 0 -70.5 17t-29.5 57q0 29 24.5 45.5t53.5 10.5t41 -33
q14 -33 -4 -82q20 0 32 11.5t17 42t5.5 52t0.5 71.5v28z" />
    <glyph glyph-name="Omacron" unicode="&#x14c;" horiz-adv-x="780" 
d="M30 350q0 154 107.5 257t252.5 103t252.5 -103t107.5 -257t-107.5 -257t-252.5 -103t-252.5 103t-107.5 257zM200 350q0 -350 190 -350t190 350t-190 350t-190 -350zM235 815h310v-15h-310v15z" />
    <glyph glyph-name="omacron" unicode="&#x14d;" horiz-adv-x="560" 
d="M280 500q-52 0 -71 -64t-19 -186q0 -59 3.5 -100.5t13 -77.5t27.5 -54t46 -18t46 18t27.5 54t13 77.5t3.5 100.5q0 122 -19 186t-71 64zM280 -10q-108 0 -184 69t-76 191t76 191t184 69t184 -69t76 -191t-76 -191t-184 -69zM132 615h310v-15h-310v15z" />
    <glyph glyph-name="Obreve" unicode="&#x14e;" horiz-adv-x="780" 
d="M30 350q0 154 107.5 257t252.5 103t252.5 -103t107.5 -257t-107.5 -257t-252.5 -103t-252.5 103t-107.5 257zM200 350q0 -350 190 -350t190 350t-190 350t-190 -350zM390 770q-63 0 -99 45.5t-36 105.5h8q8 -39 37.5 -56t89.5 -17t89.5 17t37.5 56h8q0 -60 -36 -105.5
t-99 -45.5z" />
    <glyph glyph-name="obreve" unicode="&#x14f;" horiz-adv-x="560" 
d="M280 500q-52 0 -71 -64t-19 -186q0 -59 3.5 -100.5t13 -77.5t27.5 -54t46 -18t46 18t27.5 54t13 77.5t3.5 100.5q0 122 -19 186t-71 64zM280 -10q-108 0 -184 69t-76 191t76 191t184 69t184 -69t76 -191t-76 -191t-184 -69zM281 570q-63 0 -99 45.5t-36 105.5h8
q8 -39 37.5 -56t89.5 -17t89.5 17t37.5 56h8q0 -60 -36 -105.5t-99 -45.5z" />
    <glyph glyph-name="Ohungarumlaut" unicode="&#x150;" horiz-adv-x="780" 
d="M30 350q0 154 107.5 257t252.5 103t252.5 -103t107.5 -257t-107.5 -257t-252.5 -103t-252.5 103t-107.5 257zM200 350q0 -350 190 -350t190 350t-190 350t-190 -350zM497 950h119l-169 -200h-10zM337 950h119l-169 -200h-10z" />
    <glyph glyph-name="ohungarumlaut" unicode="&#x151;" horiz-adv-x="560" 
d="M280 500q-52 0 -71 -64t-19 -186q0 -59 3.5 -100.5t13 -77.5t27.5 -54t46 -18t46 18t27.5 54t13 77.5t3.5 100.5q0 122 -19 186t-71 64zM280 -10q-108 0 -184 69t-76 191t76 191t184 69t184 -69t76 -191t-76 -191t-184 -69zM391 750h119l-169 -200h-10zM231 750h119
l-169 -200h-10z" />
    <glyph glyph-name="OE" unicode="&#x152;" horiz-adv-x="970" 
d="M200 350q0 -350 190 -350q52 0 71 44t19 141v329q0 97 -19 141.5t-71 44.5q-190 0 -190 -350zM930 0h-465q-37 -10 -75 -10q-145 0 -252.5 103t-107.5 257t107.5 257t252.5 103q38 0 75 -10h455l5 -170h-10l-110 155l-165 5v-335l120 5l55 120h10v-255h-10l-55 115
l-120 5v-335l175 5l115 155h10z" />
    <glyph glyph-name="oe" unicode="&#x153;" horiz-adv-x="871" 
d="M641 500q-93 0 -100 -200l155 5q19 74 10.5 117.5t-25.5 60.5t-40 17zM280 500q-47 0 -68.5 -56t-21.5 -194t21.5 -194t68.5 -56t68.5 56t21.5 194t-21.5 194t-68.5 56zM841 290h-302q5 -98 52 -146.5t110 -48.5q48 0 85.5 22.5t54.5 52.5h10q-17 -75 -72 -127.5
t-143 -52.5q-108 0 -178 65q-70 -65 -178 -65q-117 0 -188.5 74.5t-71.5 185.5t71.5 185.5t188.5 74.5q111 0 182 -69q76 69 184 69q31 0 59.5 -5.5t59 -20t48.5 -39.5t28.5 -63t-0.5 -92z" />
    <glyph glyph-name="Racute" unicode="&#x154;" horiz-adv-x="670" 
d="M275 320h-25v-305l60 -5v-10h-280v10l60 5v670l-60 5v10h320q110 0 170 -52.5t60 -137.5q0 -30 -11 -58.5t-35 -55t-68.5 -43t-105.5 -18.5v-10q36 -2 69 -22t48 -37.5t25 -33.5l128 -217l30 -5v-10h-210zM250 330h40q71 0 98 41.5t27 128.5q0 190 -105 190h-60v-360z
M342 930h129l-174 -180h-10z" />
    <glyph glyph-name="racute" unicode="&#x155;" horiz-adv-x="470" 
d="M240 370h10q24 64 61 102t84 38q29 0 52 -19t23 -51q0 -29 -15 -48.5t-36.5 -24t-43 0.5t-37.5 26t-18 51h-10q-34 -27 -70 -135v-295l60 -5v-10h-280v10l60 5v475h-50v10l200 10h10v-140zM207 730h129l-174 -180h-10z" />
    <glyph glyph-name="Rcommaaccent" unicode="&#x156;" horiz-adv-x="670" 
d="M275 320h-25v-305l60 -5v-10h-280v10l60 5v670l-60 5v10h320q110 0 170 -52.5t60 -137.5q0 -30 -11 -58.5t-35 -55t-68.5 -43t-105.5 -18.5v-10q36 -2 69 -22t48 -37.5t25 -33.5l128 -217l30 -5v-10h-210zM250 330h40q71 0 98 41.5t27 128.5q0 190 -105 190h-60v-360z
M281 -164v120q78 11 116.5 -19t38.5 -87q0 -70 -44 -124.5t-97 -73.5l-4 10q40 14 64.5 43.5t27 58t-24 50.5t-77.5 22z" />
    <glyph glyph-name="rcommaaccent" unicode="&#x157;" horiz-adv-x="470" 
d="M240 370h10q24 64 61 102t84 38q29 0 52 -19t23 -51q0 -29 -15 -48.5t-36.5 -24t-43 0.5t-37.5 26t-18 51h-10q-34 -27 -70 -135v-295l60 -5v-10h-280v10l60 5v475h-50v10l200 10h10v-140zM78 -170v120q78 11 116.5 -19t38.5 -87q0 -70 -44 -124.5t-97 -73.5l-4 10
q40 14 64.5 43.5t27 58t-24 50.5t-77.5 22z" />
    <glyph glyph-name="Rcaron" unicode="&#x158;" horiz-adv-x="670" 
d="M275 320h-25v-305l60 -5v-10h-280v10l60 5v670l-60 5v10h320q110 0 170 -52.5t60 -137.5q0 -30 -11 -58.5t-35 -55t-68.5 -43t-105.5 -18.5v-10q36 -2 69 -22t48 -37.5t25 -33.5l128 -217l30 -5v-10h-210zM250 330h40q71 0 98 41.5t27 128.5q0 190 -105 190h-60v-360z
M183 930h10l125 -75l125 75h10l-130 -180h-10z" />
    <glyph glyph-name="rcaron" unicode="&#x159;" horiz-adv-x="470" 
d="M240 370h10q24 64 61 102t84 38q29 0 52 -19t23 -51q0 -29 -15 -48.5t-36.5 -24t-43 0.5t-37.5 26t-18 51h-10q-34 -27 -70 -135v-295l60 -5v-10h-280v10l60 5v475h-50v10l200 10h10v-140zM90 730h10l125 -75l125 75h10l-130 -180h-10z" />
    <glyph glyph-name="Sacute" unicode="&#x15a;" horiz-adv-x="540" 
d="M65 50l-10 -55h-10l-5 225h10l30 -70q64 -150 178 -150q52 0 89.5 32t37.5 98q0 57 -41 93.5t-111 66.5q-45 19 -75.5 36t-62.5 43.5t-48.5 61.5t-16.5 79q0 93 70 146.5t177 53.5q45 0 93.5 -13.5t79.5 -33.5l10 42h10l5 -210h-10l-30 65q-33 73 -70 106.5t-87 33.5
q-15 0 -33.5 -5t-40 -16.5t-35.5 -36t-14 -57.5q0 -51 37 -82t103 -58q43 -17 76.5 -36t67.5 -47t52.5 -67t18.5 -85q0 -107 -72 -163.5t-180 -56.5q-99 0 -193 60zM290 930h129l-174 -180h-10z" />
    <glyph glyph-name="sacute" unicode="&#x15b;" horiz-adv-x="430" 
d="M205 -10q-81 0 -159 41l-6 -41h-10v160h10q38 -80 68 -113q32 -35 72 -35q39 0 59.5 25t20.5 58t-21.5 58.5t-78.5 51.5q-73 33 -104 69.5t-31 95.5q0 64 48.5 107t141.5 43q71 0 149 -41l6 41h10v-160h-10q-38 79 -69 113q-32 35 -71 35q-27 0 -48.5 -20t-21.5 -48
q0 -37 20 -58t55 -37q97 -45 133.5 -82.5t36.5 -102.5q0 -71 -56.5 -115.5t-143.5 -44.5zM235 730h129l-174 -180h-10z" />
    <glyph glyph-name="Scircumflex" unicode="&#x15c;" horiz-adv-x="540" 
d="M65 50l-10 -55h-10l-5 225h10l30 -70q64 -150 178 -150q52 0 89.5 32t37.5 98q0 57 -41 93.5t-111 66.5q-45 19 -75.5 36t-62.5 43.5t-48.5 61.5t-16.5 79q0 93 70 146.5t177 53.5q45 0 93.5 -13.5t79.5 -33.5l10 42h10l5 -210h-10l-30 65q-33 73 -70 106.5t-87 33.5
q-15 0 -33.5 -5t-40 -16.5t-35.5 -36t-14 -57.5q0 -51 37 -82t103 -58q43 -17 76.5 -36t67.5 -47t52.5 -67t18.5 -85q0 -107 -72 -163.5t-180 -56.5q-99 0 -193 60zM279 825l-125 -75h-10l130 180h10l130 -180h-10z" />
    <glyph glyph-name="scircumflex" unicode="&#x15d;" horiz-adv-x="430" 
d="M205 -10q-81 0 -159 41l-6 -41h-10v160h10q38 -80 68 -113q32 -35 72 -35q39 0 59.5 25t20.5 58t-21.5 58.5t-78.5 51.5q-73 33 -104 69.5t-31 95.5q0 64 48.5 107t141.5 43q71 0 149 -41l6 41h10v-160h-10q-38 79 -69 113q-32 35 -71 35q-27 0 -48.5 -20t-21.5 -48
q0 -37 20 -58t55 -37q97 -45 133.5 -82.5t36.5 -102.5q0 -71 -56.5 -115.5t-143.5 -44.5zM217 625l-125 -75h-10l130 180h10l130 -180h-10z" />
    <glyph glyph-name="Scedilla" unicode="&#x15e;" horiz-adv-x="540" 
d="M260 -80l3 70h-5q-99 0 -193 60l-10 -55h-10l-5 225h10l30 -70q64 -150 178 -150q52 0 89.5 32t37.5 98q0 57 -41 93.5t-111 66.5q-45 19 -75.5 36t-62.5 43.5t-48.5 61.5t-16.5 79q0 93 70 146.5t177 53.5q45 0 93.5 -13.5t79.5 -33.5l10 42h10l5 -210h-10l-30 65
q-33 73 -70 106.5t-87 33.5q-15 0 -33.5 -5t-40 -16.5t-35.5 -36t-14 -57.5q0 -51 37 -82t103 -58q43 -17 76.5 -36t67.5 -47t52.5 -67t18.5 -85q0 -103 -67.5 -159.5t-169.5 -60.5v-65q48 0 79 -21.5t31 -55.5q0 -36 -31.5 -57t-86.5 -21q-36 0 -75 12l1 9q32 -8 47 -8
q68 0 68 67q0 27 -12.5 46.5t-33.5 23.5z" />
    <glyph glyph-name="scedilla" unicode="&#x15f;" horiz-adv-x="430" 
d="M192 -80l2 70q-77 3 -148 41l-6 -41h-10v160h10q27 -56 47 -85q42 -63 96 -63q39 0 58 27t19 56q0 33 -21.5 58.5t-78.5 51.5q-73 33 -104 69.5t-31 95.5q0 64 48.5 107t141.5 43q71 0 149 -41l6 41h10v-160h-10q-38 79 -69 113q-32 35 -71 35q-27 0 -48.5 -20t-21.5 -48
q0 -37 20 -58t55 -37q97 -45 133.5 -82.5t36.5 -102.5q0 -71 -56.5 -115.5t-143.5 -44.5v-65q48 0 79 -21.5t31 -55.5q0 -36 -31.5 -57t-86.5 -21q-36 0 -75 12q0 2 0.5 5t0.5 4q32 -8 47 -8q68 0 68 67q0 27 -12.5 46.5t-33.5 23.5z" />
    <glyph glyph-name="Scaron" unicode="&#x160;" horiz-adv-x="540" 
d="M65 50l-10 -55h-10l-5 225h10l30 -70q64 -150 178 -150q52 0 89.5 32t37.5 98q0 57 -41 93.5t-111 66.5q-45 19 -75.5 36t-62.5 43.5t-48.5 61.5t-16.5 79q0 93 70 146.5t177 53.5q45 0 93.5 -13.5t79.5 -33.5l10 42h10l5 -210h-10l-30 65q-33 73 -70 106.5t-87 33.5
q-15 0 -33.5 -5t-40 -16.5t-35.5 -36t-14 -57.5q0 -51 37 -82t103 -58q43 -17 76.5 -36t67.5 -47t52.5 -67t18.5 -85q0 -107 -72 -163.5t-180 -56.5q-99 0 -193 60zM135 930h10l125 -75l125 75h10l-130 -180h-10z" />
    <glyph glyph-name="scaron" unicode="&#x161;" horiz-adv-x="430" 
d="M205 -10q-81 0 -159 41l-6 -41h-10v160h10q38 -80 68 -113q32 -35 72 -35q39 0 59.5 25t20.5 58t-21.5 58.5t-78.5 51.5q-73 33 -104 69.5t-31 95.5q0 64 48.5 107t141.5 43q71 0 149 -41l6 41h10v-160h-10q-38 79 -69 113q-32 35 -71 35q-27 0 -48.5 -20t-21.5 -48
q0 -37 20 -58t55 -37q97 -45 133.5 -82.5t36.5 -102.5q0 -71 -56.5 -115.5t-143.5 -44.5zM83 730h10l125 -75l125 75h10l-130 -180h-10z" />
    <glyph glyph-name="Tcommaaccent" unicode="&#x162;" 
d="M20 530l5 170h550l5 -170h-10l-110 153l-80 5v-673l60 -5v-10h-280v10l60 5v673l-80 -5l-110 -153h-10zM220 -170v120q78 11 116.5 -19t38.5 -87q0 -70 -44 -124.5t-97 -73.5l-4 10q40 14 64.5 43.5t27 58t-24 50.5t-77.5 22z" />
    <glyph glyph-name="tcommaaccent" unicode="&#x163;" horiz-adv-x="370" 
d="M230 485v-355q0 -64 14 -87t46 -23q22 0 60 15v-10q-30 -15 -76 -25t-84 -10q-55 0 -87.5 29.5t-32.5 90.5v375h-60v10l60 5l150 120h10v-120h120v-15h-120zM103 -170v120q78 11 116.5 -19t38.5 -87q0 -70 -44 -124.5t-97 -73.5l-4 10q40 14 64.5 43.5t27 58t-24 50.5
t-77.5 22z" />
    <glyph glyph-name="Tcaron" unicode="&#x164;" 
d="M20 530l5 170h550l5 -170h-10l-110 153l-80 5v-673l60 -5v-10h-280v10l60 5v673l-80 -5l-110 -153h-10zM165 930h10l125 -75l125 75h10l-130 -180h-10z" />
    <glyph glyph-name="tcaron" unicode="&#x165;" horiz-adv-x="370" 
d="M230 485v-355q0 -64 14 -87t46 -23q22 0 60 15v-10q-30 -15 -76 -25t-84 -10q-55 0 -87.5 29.5t-32.5 90.5v375h-60v10l60 5l150 120h10v-120h120v-15h-120zM267 730v120q78 11 116.5 -19t38.5 -87q0 -70 -44 -124.5t-97 -73.5l-4 10q40 14 64.5 43.5t27 58t-24 50.5
t-77.5 22z" />
    <glyph glyph-name="Tbar" unicode="&#x166;" 
d="M380 375h80v-10h-80v-350l60 -5v-10h-280v10l60 5v350h-80v10h80v313l-80 -5l-110 -153h-10l5 170h550l5 -170h-10l-110 153l-80 5v-313z" />
    <glyph glyph-name="tbar" unicode="&#x167;" horiz-adv-x="370" 
d="M30 270h40v215h-60v10l60 5l150 120h10v-120h120v-15h-120v-215h60v-10h-60v-130q0 -64 14 -87t46 -23q22 0 60 15v-10q-30 -15 -76 -25t-84 -10q-55 0 -87.5 29.5t-32.5 90.5v150h-40v10z" />
    <glyph glyph-name="Utilde" unicode="&#x168;" horiz-adv-x="760" 
d="M610 270v375l-110 45v10h240v-10l-115 -45v-375q0 -135 -64 -207.5t-186 -72.5q-144 0 -219.5 74t-75.5 206v415l-60 5v10h280v-10l-60 -5v-445q0 -114 48 -167t132 -53q96 0 143 69t47 181zM219 775l-5 5q22 45 56 87.5t64 42.5q31 0 96.5 -30t103.5 -30q10 0 18 1.5
t15.5 6t10 6.5t11 11t10.5 10l5 -5q-22 -44 -53.5 -82t-61.5 -38q-33 0 -102 30t-103 30q-10 0 -18.5 -2.5t-15.5 -8.5t-11 -10t-11 -12.5t-9 -11.5z" />
    <glyph glyph-name="utilde" unicode="&#x169;" horiz-adv-x="590" 
d="M60 490h-60v10l210 10h10v-390q0 -80 60 -80q25 0 43.5 14t46.5 51v385h-60v10l210 10h10v-490h60v-10l-210 -20h-10v90h-10q-35 -46 -73.5 -68t-91.5 -22q-57 0 -96 36.5t-39 113.5v350zM103 575l-5 5q22 45 56 87.5t64 42.5q31 0 96.5 -30t103.5 -30q10 0 18 1.5
t15.5 6t10 6.5t11 11t10.5 10l5 -5q-22 -44 -53.5 -82t-61.5 -38q-33 0 -102 30t-103 30q-10 0 -18.5 -2.5t-15.5 -8.5t-11 -10t-11 -12.5t-9 -11.5z" />
    <glyph glyph-name="Umacron" unicode="&#x16a;" horiz-adv-x="760" 
d="M610 270v375l-110 45v10h240v-10l-115 -45v-375q0 -135 -64 -207.5t-186 -72.5q-144 0 -219.5 74t-75.5 206v415l-60 5v10h280v-10l-60 -5v-445q0 -114 48 -167t132 -53q96 0 143 69t47 181zM246 815h310v-15h-310v15z" />
    <glyph glyph-name="umacron" unicode="&#x16b;" horiz-adv-x="590" 
d="M60 490h-60v10l210 10h10v-390q0 -80 60 -80q25 0 43.5 14t46.5 51v385h-60v10l210 10h10v-490h60v-10l-210 -20h-10v90h-10q-35 -46 -73.5 -68t-91.5 -22q-57 0 -96 36.5t-39 113.5v350zM137 615h310v-15h-310v15z" />
    <glyph glyph-name="Ubreve" unicode="&#x16c;" horiz-adv-x="760" 
d="M610 270v375l-110 45v10h240v-10l-115 -45v-375q0 -135 -64 -207.5t-186 -72.5q-144 0 -219.5 74t-75.5 206v415l-60 5v10h280v-10l-60 -5v-445q0 -114 48 -167t132 -53q96 0 143 69t47 181zM408 770q-63 0 -99 45.5t-36 105.5h8q8 -39 37.5 -56t89.5 -17t89.5 17
t37.5 56h8q0 -60 -36 -105.5t-99 -45.5z" />
    <glyph glyph-name="ubreve" unicode="&#x16d;" horiz-adv-x="590" 
d="M60 490h-60v10l210 10h10v-390q0 -80 60 -80q25 0 43.5 14t46.5 51v385h-60v10l210 10h10v-490h60v-10l-210 -20h-10v90h-10q-35 -46 -73.5 -68t-91.5 -22q-57 0 -96 36.5t-39 113.5v350zM284 570q-63 0 -99 45.5t-36 105.5h8q8 -39 37.5 -56t89.5 -17t89.5 17t37.5 56h8
q0 -60 -36 -105.5t-99 -45.5z" />
    <glyph glyph-name="Uring" unicode="&#x16e;" horiz-adv-x="760" 
d="M610 270v375l-110 45v10h240v-10l-115 -45v-375q0 -135 -64 -207.5t-186 -72.5q-144 0 -219.5 74t-75.5 206v415l-60 5v10h280v-10l-60 -5v-445q0 -114 48 -167t132 -53q96 0 143 69t47 181zM324 837q0 38 23.5 63t63.5 25t64 -25t24 -63t-24 -62.5t-64 -24.5
q-38 0 -62.5 25t-24.5 62zM348 837q0 -34 16 -55.5t47 -21.5q32 0 47.5 21.5t15.5 55.5q0 35 -15.5 56.5t-47.5 21.5q-31 0 -47 -22t-16 -56z" />
    <glyph glyph-name="uring" unicode="&#x16f;" horiz-adv-x="590" 
d="M60 490h-60v10l210 10h10v-390q0 -80 60 -80q25 0 43.5 14t46.5 51v385h-60v10l210 10h10v-490h60v-10l-210 -20h-10v90h-10q-35 -46 -73.5 -68t-91.5 -22q-57 0 -96 36.5t-39 113.5v350zM207 637q0 38 23.5 63t63.5 25t64 -25t24 -63t-24 -62.5t-64 -24.5
q-38 0 -62.5 25t-24.5 62zM231 637q0 -34 16 -55.5t47 -21.5q32 0 47.5 21.5t15.5 55.5q0 35 -15.5 56.5t-47.5 21.5q-31 0 -47 -22t-16 -56z" />
    <glyph glyph-name="Uhungarumlaut" unicode="&#x170;" horiz-adv-x="760" 
d="M610 270v375l-110 45v10h240v-10l-115 -45v-375q0 -135 -64 -207.5t-186 -72.5q-144 0 -219.5 74t-75.5 206v415l-60 5v10h280v-10l-60 -5v-445q0 -114 48 -167t132 -53q96 0 143 69t47 181zM513 950h119l-169 -200h-10zM353 950h119l-169 -200h-10z" />
    <glyph glyph-name="uhungarumlaut" unicode="&#x171;" horiz-adv-x="590" 
d="M60 490h-60v10l210 10h10v-390q0 -80 60 -80q25 0 43.5 14t46.5 51v385h-60v10l210 10h10v-490h60v-10l-210 -20h-10v90h-10q-35 -46 -73.5 -68t-91.5 -22q-57 0 -96 36.5t-39 113.5v350zM392 750h119l-169 -200h-10zM232 750h119l-169 -200h-10z" />
    <glyph glyph-name="Uogonek" unicode="&#x172;" horiz-adv-x="760" 
d="M463 -180v-10q-13 -17 -40 -28.5t-50 -11.5q-43 0 -67.5 23.5t-26 56.5t21 72.5t65.5 67.5q-140 2 -213 76t-73 204v415l-60 5v10h280v-10l-60 -5v-445q0 -114 48 -167t132 -53q96 0 143 69t47 181v375l-110 45v10h240v-10l-115 -45v-375q0 -133 -62 -205t-180 -75
q-28 -29 -39.5 -65t-3.5 -64t37.5 -42t85.5 1z" />
    <glyph glyph-name="uogonek" unicode="&#x173;" horiz-adv-x="590" 
d="M467 -180v-10q-13 -17 -40 -28.5t-50 -11.5q-43 0 -67.5 23.5t-26 56.5t21 72.5t65.5 67.5v90h-10q-35 -46 -73.5 -68t-91.5 -22q-57 0 -96 36.5t-39 113.5v350h-60v10l210 10h10v-390q0 -80 60 -80q25 0 43.5 14t46.5 51v385h-60v10l210 10h10v-490h60v-10l-203 -19
q-38 -41 -46 -88t24.5 -74t101.5 -9z" />
    <glyph glyph-name="Wcircumflex" unicode="&#x174;" horiz-adv-x="1010" 
d="M501 396l-20 -57l-121 -344h-80l-236 690l-44 5v10h290v-10l-64 -5l166 -530h10l90 266l-88 264l-44 5v10h290v-10l-64 -5l158 -530h10l128 490l-112 45v10h240v-10l-112 -45l-173 -650h-90zM511 825l-125 -75h-10l130 180h10l130 -180h-10z" />
    <glyph glyph-name="wcircumflex" unicode="&#x175;" horiz-adv-x="860" 
d="M525 -5l-108 324l-14 -46q-64 -213 -83 -278h-95l-182 490l-43 5v10h280v-10l-57 -5l120 -345h10l58 200l-48 145l-43 5v10h280v-10l-57 -5l100 -345h10l94 325l-87 25v10h200v-10l-98 -25l-142 -470h-95zM439 625l-125 -75h-10l130 180h10l130 -180h-10z" />
    <glyph glyph-name="Ycircumflex" unicode="&#x176;" horiz-adv-x="680" 
d="M265 15v228l-215 442l-50 5v10h290v-10l-55 -5l175 -365h10l135 325l-105 45v10h230v-10l-105 -45l-150 -349v-281l60 -5v-10h-280v10zM364 825l-125 -75h-10l130 180h10l130 -180h-10z" />
    <glyph glyph-name="ycircumflex" unicode="&#x177;" horiz-adv-x="580" 
d="M310 -50l-267 535l-43 5v10h280v-10l-57 -5l147 -315h10l87 295l-87 25v10h200v-10l-98 -25l-159 -515q-69 -180 -183 -180q-44 0 -67 19.5t-23 50.5q0 40 37.5 56t63.5 -9q31 -30 14 -97h5q33 0 72 41.5t68 118.5zM330 625l-125 -75h-10l130 180h10l130 -180h-10z" />
    <glyph glyph-name="Ydieresis" unicode="&#x178;" horiz-adv-x="680" 
d="M265 15v228l-215 442l-50 5v10h290v-10l-55 -5l175 -365h10l135 325l-105 45v10h230v-10l-105 -45l-150 -349v-281l60 -5v-10h-280v10zM178 815q0 28 18.5 46.5t45.5 18.5q28 0 46.5 -18.5t18.5 -46.5t-18.5 -45.5t-46.5 -17.5q-27 0 -45.5 17.5t-18.5 45.5zM373 815
q0 28 18.5 46.5t46.5 18.5q27 0 45.5 -18.5t18.5 -46.5t-18.5 -45.5t-45.5 -17.5q-28 0 -46.5 17.5t-18.5 45.5z" />
    <glyph glyph-name="Zacute" unicode="&#x179;" 
d="M560 690l-335 -670v-10l220 5l115 155h10l-15 -170h-525v10l345 670v10l-200 -5l-115 -155h-10l5 170h505v-10zM320 930h129l-174 -180h-10z" />
    <glyph glyph-name="zacute" unicode="&#x17a;" horiz-adv-x="480" 
d="M335 15l110 135h10l-5 -150h-430v10l255 470v10l-115 -5l-110 -135h-10l5 150h400v-10l-255 -470v-10zM260 730h129l-174 -180h-10z" />
    <glyph glyph-name="Zdotaccent" unicode="&#x17b;" 
d="M560 690l-335 -670v-10l220 5l115 155h10l-15 -170h-525v10l345 670v10l-200 -5l-115 -155h-10l5 170h505v-10zM231 827q0 29 20 49t49 20t49 -20t20 -49t-20 -49t-49 -20t-49 20t-20 49z" />
    <glyph glyph-name="zdotaccent" unicode="&#x17c;" horiz-adv-x="480" 
d="M335 15l110 135h10l-5 -150h-430v10l255 470v10l-115 -5l-110 -135h-10l5 150h400v-10l-255 -470v-10zM173 627q0 29 20 49t49 20t49 -20t20 -49t-20 -49t-49 -20t-49 20t-20 49z" />
    <glyph glyph-name="Zcaron" unicode="&#x17d;" 
d="M560 690l-335 -670v-10l220 5l115 155h10l-15 -170h-525v10l345 670v10l-200 -5l-115 -155h-10l5 170h505v-10zM165 930h10l125 -75l125 75h10l-130 -180h-10z" />
    <glyph glyph-name="zcaron" unicode="&#x17e;" horiz-adv-x="480" 
d="M335 15l110 135h10l-5 -150h-430v10l255 470v10l-115 -5l-110 -135h-10l5 150h400v-10l-255 -470v-10zM107 730h10l125 -75l125 75h10l-130 -180h-10z" />
    <glyph glyph-name="longs" unicode="&#x17f;" horiz-adv-x="258" 
d="M208 550v-560q0 -83 -70.5 -151.5t-159.5 -68.5q-47 0 -73.5 19.5t-26.5 50.5q0 26 17 43.5t48 17.5q32 0 52 -29t-2 -87h10q27 0 36 47t9 158v520q0 83 70.5 151.5t159.5 68.5q47 0 73.5 -19.5t26.5 -50.5q0 -26 -17 -43.5t-48 -17.5q-32 0 -52 29t2 87h-10
q-26 0 -35.5 -41t-9.5 -124z" />
    <glyph glyph-name="florin" unicode="&#x192;" horiz-adv-x="502" 
d="M316 485l-30 -421q-3 -42 -13.5 -82t-30.5 -79t-47.5 -68t-68 -47t-89.5 -18q-41 0 -69.5 17t-25.5 57q2 29 27.5 45.5t54 10.5t38.5 -33q11 -34 -9 -82q16 0 27 9.5t17.5 23.5t11 38.5t6.5 46.5t4 56q1 21 2 31l35 495h-60l1 10l60 5l1 10q5 83 80.5 151.5t164.5 68.5
q47 0 72 -19.5t23 -50.5q-2 -26 -20 -43.5t-49 -17.5q-19 0 -34 11t-21.5 36.5t13.5 68.5h-10q-26 0 -38.5 -41.5t-18.5 -123.5l-3 -50h110l-1 -15h-110z" />
    <glyph glyph-name="AEacute" unicode="&#x1fc;" horiz-adv-x="920" 
d="M410 575h-10l-111 -220h121v220zM130 55l315 630l-95 5v10h520l5 -170h-10l-110 155l-185 5v-335l140 5l55 110h10v-255h-10l-55 125l-140 5v-335l195 5l115 155h10l-10 -170h-530v10l60 5v330h-125l-140 -290l95 -45v-10h-240v10zM539 930h129l-174 -180h-10z" />
    <glyph glyph-name="aeacute" unicode="&#x1fd;" horiz-adv-x="803" 
d="M752 290h-301q5 -98 51.5 -146.5t109.5 -48.5q48 0 85.5 22.5t54.5 52.5h10q-17 -75 -72.5 -127.5t-142.5 -52.5q-133 0 -201 90q-89 -59 -127 -74.5t-79 -15.5q-55 0 -87.5 31.5t-32.5 78.5q0 78 130 125l140 45v130q0 51 -21.5 70.5t-68.5 19.5q-23 0 -55 -13.5
t-50 -31.5v-10q50 5 71 -26.5t2.5 -65t-63.5 -33.5q-27 0 -46 19t-19 46q0 55 68 95t152 40q95 0 146 -44q70 44 151 44q31 0 59.5 -5.5t59 -20t48.5 -39.5t28.5 -63t-0.5 -92zM552 500q-93 0 -100 -200l155 5q19 74 10.5 117.5t-25.5 60.5t-40 17zM250 50q34 0 90 38
q-50 71 -50 172l-41 -15q-34 -13 -51.5 -33.5t-17.5 -66.5q0 -44 18.5 -69.5t51.5 -25.5zM454 730h129l-174 -180h-10z" />
    <glyph glyph-name="Oslashacute" unicode="&#x1fe;" horiz-adv-x="780" 
d="M433 930h129l-174 -180h-10zM691 669l8 -9l-54 -56q105 -105 105 -254q0 -154 -107.5 -257t-252.5 -103q-138 0 -243 94l-56 -59l-8 9l55 58q-108 103 -108 258q0 154 107.5 257t252.5 103q142 0 246 -98zM200 350q0 -106 16 -177l345 361q-40 166 -171 166
q-190 0 -190 -350zM580 350q0 98 -15 170l-345 -361q41 -159 170 -159q190 0 190 350z" />
    <glyph glyph-name="oslashacute" unicode="&#x1ff;" horiz-adv-x="560" 
d="M318 730h129l-174 -180h-10zM510 500l6 -8l-50 -55q74 -74 74 -187q0 -111 -71.5 -185.5t-188.5 -74.5q-101 0 -171 57l-43 -47l-8 8l43 47q-81 73 -81 195q0 111 71.5 185.5t188.5 74.5q107 0 179 -66zM370 250q0 32 -2 80l-174 -190q8 -76 29 -108t57 -32q47 0 68.5 56
t21.5 194zM190 250q0 -54 3 -95l174 189q-7 84 -28 120t-59 36q-39 0 -60.5 -38t-26.5 -128q-3 -38 -3 -84z" />
    <glyph glyph-name="Scommaaccent" unicode="&#x218;" horiz-adv-x="540" 
d="M65 50l-10 -55h-10l-5 225h10l30 -70q64 -150 178 -150q52 0 89.5 32t37.5 98q0 57 -41 93.5t-111 66.5q-45 19 -75.5 36t-62.5 43.5t-48.5 61.5t-16.5 79q0 93 70 146.5t177 53.5q45 0 93.5 -13.5t79.5 -33.5l10 42h10l5 -210h-10l-30 65q-33 73 -70 106.5t-87 33.5
q-15 0 -33.5 -5t-40 -16.5t-35.5 -36t-14 -57.5q0 -51 37 -82t103 -58q43 -17 76.5 -36t67.5 -47t52.5 -67t18.5 -85q0 -107 -72 -163.5t-180 -56.5q-99 0 -193 60zM200 -170v120q78 11 116.5 -19t38.5 -87q0 -70 -44 -124.5t-97 -73.5l-4 10q40 14 64.5 43.5t27 58
t-24 50.5t-77.5 22z" />
    <glyph glyph-name="scommaaccent" unicode="&#x219;" horiz-adv-x="430" 
d="M205 -10q-81 0 -159 41l-6 -41h-10v160h10q38 -80 68 -113q32 -35 72 -35q39 0 59.5 25t20.5 58t-21.5 58.5t-78.5 51.5q-73 33 -104 69.5t-31 95.5q0 64 48.5 107t141.5 43q71 0 149 -41l6 41h10v-160h-10q-38 79 -69 113q-32 35 -71 35q-27 0 -48.5 -20t-21.5 -48
q0 -37 20 -58t55 -37q97 -45 133.5 -82.5t36.5 -102.5q0 -71 -56.5 -115.5t-143.5 -44.5zM147 -170v120q78 11 116.5 -19t38.5 -87q0 -70 -44 -124.5t-97 -73.5l-4 10q40 14 64.5 43.5t27 58t-24 50.5t-77.5 22z" />
    <glyph glyph-name="uni021A" unicode="&#x21a;" 
d="M20 530l5 170h550l5 -170h-10l-110 153l-80 5v-673l60 -5v-10h-280v10l60 5v673l-80 -5l-110 -153h-10zM219 -167v120q78 11 116.5 -19t38.5 -87q0 -70 -44 -124.5t-97 -73.5l-4 10q40 14 64.5 43.5t27 58t-24 50.5t-77.5 22z" />
    <glyph glyph-name="uni021B" unicode="&#x21b;" horiz-adv-x="370" 
d="M230 485v-355q0 -64 14 -87t46 -23q22 0 60 15v-10q-30 -15 -76 -25t-84 -10q-55 0 -87.5 29.5t-32.5 90.5v375h-60v10l60 5l150 120h10v-120h120v-15h-120zM104 -172v120q78 11 116.5 -19t38.5 -87q0 -70 -44 -124.5t-97 -73.5l-4 10q40 14 64.5 43.5t27 58t-24 50.5
t-77.5 22z" />
    <glyph glyph-name="dotlessj" unicode="&#x237;" horiz-adv-x="280" 
d="M240 510v-520q0 -83 -70.5 -151.5t-159.5 -68.5q-47 0 -73.5 19.5t-26.5 50.5q0 26 17 43.5t48 17.5q32 0 52 -29t-2 -87h10q27 0 36 47t9 158v500h-50v10l200 10h10z" />
    <glyph glyph-name="circumflex" unicode="&#x2c6;" horiz-adv-x="470" 
d="M235 625l-125 -75h-10l130 180h10l130 -180h-10z" />
    <glyph glyph-name="caron" unicode="&#x2c7;" horiz-adv-x="470" 
d="M100 730h10l125 -75l125 75h10l-130 -180h-10z" />
    <glyph glyph-name="uni02C9" unicode="&#x2c9;" horiz-adv-x="510" 
d="M100 615h310v-15h-310v15z" />
    <glyph glyph-name="breve" unicode="&#x2d8;" horiz-adv-x="450" 
d="M225 570q-63 0 -99 45.5t-36 105.5h8q8 -39 37.5 -56t89.5 -17t89.5 17t37.5 56h8q0 -60 -36 -105.5t-99 -45.5z" />
    <glyph glyph-name="dotaccent" unicode="&#x2d9;" horiz-adv-x="314" 
d="M88 627q0 29 20 49t49 20t49 -20t20 -49t-20 -49t-49 -20t-49 20t-20 49z" />
    <glyph glyph-name="ring" unicode="&#x2da;" horiz-adv-x="375" 
d="M100 637q0 38 23.5 63t63.5 25t64 -25t24 -63t-24 -62.5t-64 -24.5q-38 0 -62.5 25t-24.5 62zM124 637q0 -34 16 -55.5t47 -21.5q32 0 47.5 21.5t15.5 55.5q0 35 -15.5 56.5t-47.5 21.5q-31 0 -47 -22t-16 -56z" />
    <glyph glyph-name="ogonek" unicode="&#x2db;" horiz-adv-x="360" 
d="M270 -180v-10q-13 -17 -40 -28.5t-50 -11.5q-36 0 -59.5 16.5t-29.5 42.5t1 56.5t32.5 61.5t65.5 53h10q-42 -39 -54 -89.5t20 -80t104 -10.5z" />
    <glyph glyph-name="tilde" unicode="&#x2dc;" horiz-adv-x="550" 
d="M85 575l-5 5q22 45 56 87.5t64 42.5q31 0 96.5 -30t103.5 -30q10 0 18 1.5t15.5 6t10 6.5t11 11t10.5 10l5 -5q-22 -44 -53.5 -82t-61.5 -38q-33 0 -102 30t-103 30q-10 0 -18.5 -2.5t-15.5 -8.5t-11 -10t-11 -12.5t-9 -11.5z" />
    <glyph glyph-name="hungarumlaut" unicode="&#x2dd;" horiz-adv-x="480" 
d="M310 750h119l-169 -200h-10zM150 750h119l-169 -200h-10z" />
    <glyph glyph-name="uni037E" unicode="&#x37e;" horiz-adv-x="356" 
d="M83 248q0 40 27.5 67.5t67.5 27.5t67.5 -27.5t27.5 -67.5t-27.5 -67.5t-67.5 -27.5t-67.5 27.5t-27.5 67.5z" />
    <glyph glyph-name="tonos" unicode="&#x384;" horiz-adv-x="364" 
d="M145 800h129l-169 -200h-10z" />
    <glyph glyph-name="dieresistonos" unicode="&#x385;" horiz-adv-x="580" 
d="M88 615q0 28 18.5 46.5t45.5 18.5q28 0 46.5 -18.5t18.5 -46.5t-18.5 -45.5t-46.5 -17.5q-27 0 -45.5 17.5t-18.5 45.5zM363 615q0 28 18.5 46.5t46.5 18.5q27 0 45.5 -18.5t18.5 -46.5t-18.5 -45.5t-45.5 -17.5q-28 0 -46.5 17.5t-18.5 45.5zM310 800h129l-169 -200h-10
z" />
    <glyph glyph-name="anoteleia" unicode="&#x387;" horiz-adv-x="500" 
d="M88 615q0 28 18.5 46.5t45.5 18.5q28 0 46.5 -18.5t18.5 -46.5t-18.5 -45.5t-46.5 -17.5q-27 0 -45.5 17.5t-18.5 45.5zM283 615q0 28 18.5 46.5t46.5 18.5q27 0 45.5 -18.5t18.5 -46.5t-18.5 -45.5t-45.5 -17.5q-28 0 -46.5 17.5t-18.5 45.5z" />
    <glyph glyph-name="uni03BC" unicode="&#x3bc;" horiz-adv-x="590" 
d="M60 -10v500h-60v10l210 10h10v-390q0 -80 60 -80q25 0 43.5 14t46.5 51v385h-60v10l210 10h10v-490h60v-10l-210 -20h-10v90h-10q-61 -82 -146 -89q-16 -95 -71.5 -158t-152.5 -63q-41 0 -70.5 17t-29.5 57q0 29 24.5 45.5t53.5 10.5t41 -33q14 -33 -4 -82q20 0 32 11.5
t17 42t5.5 52t0.5 71.5v28z" />
    <glyph glyph-name="pi" unicode="&#x3c0;" horiz-adv-x="640" 
d="M400 15v470h-160v-470l60 -5v-10h-280v10l60 5v470l-60 5v10h600v-10l-60 -5v-470l60 -5v-10h-280v10z" />
    <glyph glyph-name="uni03C2" unicode="&#x3c2;" horiz-adv-x="513" 
d="M100 249q0 68 48 114l-78 90l8 8l79 -90q44 36 100 36q55 0 99 -36l78 90l9 -8l-78 -89q50 -47 50 -115t-49 -114l76 -86l-9 -9l-77 87q-43 -35 -99 -35q-57 0 -100 35l-76 -87l-9 9l76 86q-48 46 -48 114zM112 249q0 -59 43 -102t102 -43t102.5 43t43.5 102t-43.5 102.5
t-102.5 43.5t-102 -43.5t-43 -102.5z" />
    <glyph glyph-name="sigma" unicode="&#x3c3;" horiz-adv-x="513" 
d="M100 249q0 68 48 114l-78 90l8 8l79 -90q44 36 100 36q55 0 99 -36l78 90l9 -8l-78 -89q50 -47 50 -115t-49 -114l76 -86l-9 -9l-77 87q-43 -35 -99 -35q-57 0 -100 35l-76 -87l-9 9l76 86q-48 46 -48 114zM112 249q0 -59 43 -102t102 -43t102.5 43t43.5 102t-43.5 102.5
t-102.5 43.5t-102 -43.5t-43 -102.5z" />
    <glyph glyph-name="Wgrave" unicode="&#x1e80;" horiz-adv-x="1010" 
d="M501 396l-20 -57l-121 -344h-80l-236 690l-44 5v10h290v-10l-64 -5l166 -530h10l90 266l-88 264l-44 5v10h290v-10l-64 -5l158 -530h10l128 490l-112 45v10h240v-10l-112 -45l-173 -650h-90zM487 750l-164 180h129l45 -180h-10z" />
    <glyph glyph-name="wgrave" unicode="&#x1e81;" horiz-adv-x="860" 
d="M525 -5l-108 324l-14 -46q-64 -213 -83 -278h-95l-182 490l-43 5v10h280v-10l-57 -5l120 -345h10l58 200l-48 145l-43 5v10h280v-10l-57 -5l100 -345h10l94 325l-87 25v10h200v-10l-98 -25l-142 -470h-95zM430 550l-164 180h129l45 -180h-10z" />
    <glyph glyph-name="Wacute" unicode="&#x1e82;" horiz-adv-x="1010" 
d="M501 396l-20 -57l-121 -344h-80l-236 690l-44 5v10h290v-10l-64 -5l166 -530h10l90 266l-88 264l-44 5v10h290v-10l-64 -5l158 -530h10l128 490l-112 45v10h240v-10l-112 -45l-173 -650h-90zM548 930h129l-174 -180h-10z" />
    <glyph glyph-name="wacute" unicode="&#x1e83;" horiz-adv-x="860" 
d="M525 -5l-108 324l-14 -46q-64 -213 -83 -278h-95l-182 490l-43 5v10h280v-10l-57 -5l120 -345h10l58 200l-48 145l-43 5v10h280v-10l-57 -5l100 -345h10l94 325l-87 25v10h200v-10l-98 -25l-142 -470h-95zM478 730h129l-174 -180h-10z" />
    <glyph glyph-name="Wdieresis" unicode="&#x1e84;" horiz-adv-x="1010" 
d="M501 396l-20 -57l-121 -344h-80l-236 690l-44 5v10h290v-10l-64 -5l166 -530h10l90 266l-88 264l-44 5v10h290v-10l-64 -5l158 -530h10l128 490l-112 45v10h240v-10l-112 -45l-173 -650h-90zM349 815q0 28 18.5 46.5t45.5 18.5q28 0 46.5 -18.5t18.5 -46.5t-18.5 -45.5
t-46.5 -17.5q-27 0 -45.5 17.5t-18.5 45.5zM544 815q0 28 18.5 46.5t46.5 18.5q27 0 45.5 -18.5t18.5 -46.5t-18.5 -45.5t-45.5 -17.5q-28 0 -46.5 17.5t-18.5 45.5z" />
    <glyph glyph-name="wdieresis" unicode="&#x1e85;" horiz-adv-x="860" 
d="M525 -5l-108 324l-14 -46q-64 -213 -83 -278h-95l-182 490l-43 5v10h280v-10l-57 -5l120 -345h10l58 200l-48 145l-43 5v10h280v-10l-57 -5l100 -345h10l94 325l-87 25v10h200v-10l-98 -25l-142 -470h-95zM275 615q0 28 18.5 46.5t45.5 18.5q28 0 46.5 -18.5t18.5 -46.5
t-18.5 -45.5t-46.5 -17.5q-27 0 -45.5 17.5t-18.5 45.5zM470 615q0 28 18.5 46.5t46.5 18.5q27 0 45.5 -18.5t18.5 -46.5t-18.5 -45.5t-45.5 -17.5q-28 0 -46.5 17.5t-18.5 45.5z" />
    <glyph glyph-name="Ygrave" unicode="&#x1ef2;" horiz-adv-x="680" 
d="M265 15v228l-215 442l-50 5v10h290v-10l-55 -5l175 -365h10l135 325l-105 45v10h230v-10l-105 -45l-150 -349v-281l60 -5v-10h-280v10zM357 750l-164 180h129l45 -180h-10z" />
    <glyph glyph-name="ygrave" unicode="&#x1ef3;" horiz-adv-x="580" 
d="M310 -50l-267 535l-43 5v10h280v-10l-57 -5l147 -315h10l87 295l-87 25v10h200v-10l-98 -25l-159 -515q-69 -180 -183 -180q-44 0 -67 19.5t-23 50.5q0 40 37.5 56t63.5 -9q31 -30 14 -97h5q33 0 72 41.5t68 118.5zM318 550l-164 180h129l45 -180h-10z" />
    <glyph glyph-name="figuredash" unicode="&#x2012;" horiz-adv-x="710" 
d="M90 285h530v-25h-530v25z" />
    <glyph glyph-name="endash" unicode="&#x2013;" horiz-adv-x="710" 
d="M90 285h530v-25h-530v25z" />
    <glyph glyph-name="emdash" unicode="&#x2014;" horiz-adv-x="900" 
d="M90 285h720v-25h-720v25z" />
    <glyph glyph-name="quoteleft" unicode="&#x2018;" horiz-adv-x="335" 
d="M245 551v-120q-78 -11 -116.5 19t-38.5 87q0 70 44 124.5t97 73.5l4 -10q-40 -14 -64.5 -43.5t-27 -58t24 -50.5t77.5 -22z" />
    <glyph glyph-name="quoteright" unicode="&#x2019;" horiz-adv-x="335" 
d="M90 600v120q78 11 116.5 -19t38.5 -87q0 -70 -44 -124.5t-97 -73.5l-4 10q40 14 64.5 43.5t27 58t-24 50.5t-77.5 22z" />
    <glyph glyph-name="quotesinglbase" unicode="&#x201a;" horiz-adv-x="335" 
d="M90 10v120q78 11 116.5 -19t38.5 -87q0 -70 -44 -124.5t-97 -73.5l-4 10q40 14 64.5 43.5t27 58t-24 50.5t-77.5 22z" />
    <glyph glyph-name="quotedblleft" unicode="&#x201c;" horiz-adv-x="555" 
d="M245 551v-120q-78 -11 -116.5 19t-38.5 87q0 70 44 124.5t97 73.5l4 -10q-40 -14 -64.5 -43.5t-27 -58t24 -50.5t77.5 -22zM465 551v-120q-78 -11 -116.5 19t-38.5 87q0 70 44 124.5t97 73.5l4 -10q-40 -14 -64.5 -43.5t-27 -58t24 -50.5t77.5 -22z" />
    <glyph glyph-name="quotedblright" unicode="&#x201d;" horiz-adv-x="555" 
d="M90 600v120q78 11 116.5 -19t38.5 -87q0 -70 -44 -124.5t-97 -73.5l-4 10q40 14 64.5 43.5t27 58t-24 50.5t-77.5 22zM310 600v120q78 11 116.5 -19t38.5 -87q0 -70 -44 -124.5t-97 -73.5l-4 10q40 14 64.5 43.5t27 58t-24 50.5t-77.5 22z" />
    <glyph glyph-name="quotedblbase" unicode="&#x201e;" horiz-adv-x="555" 
d="M90 10v120q78 11 116.5 -19t38.5 -87q0 -70 -44 -124.5t-97 -73.5l-4 10q40 14 64.5 43.5t27 58t-24 50.5t-77.5 22zM310 10v120q78 11 116.5 -19t38.5 -87q0 -70 -44 -124.5t-97 -73.5l-4 10q40 14 64.5 43.5t27 58t-24 50.5t-77.5 22z" />
    <glyph glyph-name="dagger" unicode="&#x2020;" horiz-adv-x="645" 
d="M318 -260v375q0 57 -9 98t-17.5 62.5t-8.5 29.5t16 77.5t19 92.5q-25 -3 -98 -19t-80 -16q-16 0 -28 12t-12 28t12 28t28 12q7 0 80 -16t98 -19q-3 27 -19 102t-16 83q0 16 11.5 28t28.5 12t28.5 -12t11.5 -28q0 -8 -16 -83t-19 -102q25 3 97 19t80 16q17 0 28.5 -12
t11.5 -28t-11.5 -28t-28.5 -12q-8 0 -80 16t-97 19q3 -23 19 -92.5t16 -77.5t-8.5 -29.5t-17.5 -62.5t-9 -98v-375h-10z" />
    <glyph glyph-name="daggerdbl" unicode="&#x2021;" horiz-adv-x="645" 
d="M363 230q0 -31 -17 -139t-18 -126q25 3 97 19t80 16q17 0 28.5 -12t11.5 -28t-11.5 -28t-28.5 -12q-8 0 -80 16t-97 19q3 -27 19 -102t16 -83q0 -16 -11.5 -28t-28.5 -12t-28.5 12t-11.5 28q0 8 16 83t19 102q-25 -3 -98 -19t-80 -16q-16 0 -28 12t-12 28t12 28t28 12
q7 0 80 -16t98 -19q-1 18 -18 126t-17 139t17 128.5t18 116.5q-25 -3 -98 -19t-80 -16q-16 0 -28 12t-12 28t12 28t28 12q7 0 80 -16t98 -19q-3 27 -19 102t-16 83q0 16 11.5 28t28.5 12t28.5 -12t11.5 -28q0 -8 -16 -83t-19 -102q25 3 97 19t80 16q17 0 28.5 -12t11.5 -28
t-11.5 -28t-28.5 -12q-8 0 -80 16t-97 19q1 -19 18 -116.5t17 -128.5z" />
    <glyph glyph-name="bullet" unicode="&#x2022;" horiz-adv-x="397" 
d="M100 232q0 41 28.5 70t69.5 29t70 -29t29 -70t-29 -69.5t-70 -28.5t-69.5 28.5t-28.5 69.5z" />
    <glyph glyph-name="onedotenleader" unicode="&#x2024;" horiz-adv-x="320" 
d="M87 63q0 30 21.5 51.5t51.5 21.5t51.5 -21.5t21.5 -51.5t-21.5 -51.5t-51.5 -21.5t-51.5 21.5t-21.5 51.5z" />
    <glyph glyph-name="twodotenleader" unicode="&#x2025;" horiz-adv-x="534" 
d="M87 50q0 25 17.5 42.5t42.5 17.5t42.5 -17.5t17.5 -42.5t-17.5 -42.5t-42.5 -17.5t-42.5 17.5t-17.5 42.5zM327 50q0 25 17.5 42.5t42.5 17.5t42.5 -17.5t17.5 -42.5t-17.5 -42.5t-42.5 -17.5t-42.5 17.5t-17.5 42.5z" />
    <glyph glyph-name="ellipsis" unicode="&#x2026;" horiz-adv-x="774" 
d="M87 50q0 25 17.5 42.5t42.5 17.5t42.5 -17.5t17.5 -42.5t-17.5 -42.5t-42.5 -17.5t-42.5 17.5t-17.5 42.5zM327 50q0 25 17.5 42.5t42.5 17.5t42.5 -17.5t17.5 -42.5t-17.5 -42.5t-42.5 -17.5t-42.5 17.5t-17.5 42.5zM567 50q0 25 17.5 42.5t42.5 17.5t42.5 -17.5
t17.5 -42.5t-17.5 -42.5t-42.5 -17.5t-42.5 17.5t-17.5 42.5z" />
    <glyph glyph-name="perthousand" unicode="&#x2030;" horiz-adv-x="1390" 
d="M626 700h14l-286 -700h-15zM581 145q1 64 47 109.5t111 45.5q62 0 106.5 -45.5t43.5 -109.5q-2 -65 -48 -110t-111 -45q-61 0 -105.5 45.5t-43.5 109.5zM675 145q0 -83 13 -113.5t47 -30.5q60 0 60 144t-60 144t-60 -144zM91 555q1 64 47 109.5t111 45.5
q62 0 106.5 -45.5t43.5 -109.5q-2 -65 -48 -110t-111 -45q-61 0 -105.5 45.5t-43.5 109.5zM185 555q0 -144 60 -144t60 144t-60 144t-60 -144zM991 145q1 64 47 109.5t111 45.5q62 0 106.5 -45.5t43.5 -109.5q-2 -65 -48 -110t-111 -45q-61 0 -105.5 45.5t-43.5 109.5z
M1085 145q0 -83 13 -113.5t47 -30.5q60 0 60 144t-60 144t-60 -144z" />
    <glyph glyph-name="guilsinglleft" unicode="&#x2039;" horiz-adv-x="430" 
d="M340 453l-84 -184l84 -186v-10l-250 185v20l250 185v-10z" />
    <glyph glyph-name="guilsinglright" unicode="&#x203a;" horiz-adv-x="430" 
d="M184 270l-94 183v10l250 -184v-20l-250 -186v10z" />
    <glyph glyph-name="exclamdbl" unicode="&#x203c;" horiz-adv-x="520" 
d="M87 63q0 30 21.5 51.5t51.5 21.5t51.5 -21.5t21.5 -51.5t-21.5 -51.5t-51.5 -21.5t-51.5 21.5t-21.5 51.5zM166 200h-10l-70 500h146zM287 63q0 30 21.5 51.5t51.5 21.5t51.5 -21.5t21.5 -51.5t-21.5 -51.5t-51.5 -21.5t-51.5 21.5t-21.5 51.5zM366 200h-10l-70 500h146z
" />
    <glyph glyph-name="fraction" unicode="&#x2044;" horiz-adv-x="480" 
d="M335 710h20l-210 -710h-20z" />
    <glyph glyph-name="zerosuperior" unicode="&#x2070;" horiz-adv-x="360" 
d="M50 730q0 70 35 125t95 55t95 -55t35 -125t-35 -125t-95 -55t-95 53.5t-35 126.5zM135 730q0 -91 10 -133t35 -42t35 42t10 133t-10 133t-35 42t-35 -42t-10 -133z" />
    <glyph glyph-name="foursuperior" unicode="&#x2074;" horiz-adv-x="355" 
d="M270 646h35v-6h-35v-80h-80v80h-140v8l164 247l56 20v-269zM185 842l-125 -191v-5h130v196h-5z" />
    <glyph glyph-name="fivesuperior" unicode="&#x2075;" horiz-adv-x="332" 
d="M147 550q-47 0 -72 21.5t-25 50.5q0 14 9 23.5t26 9.5q26 0 32 -25q6 -26 -18 -37q-12 -5 -28 -3v-5q28 -30 71 -30q33 0 48 29t15 71q0 41 -26.5 71.5t-81.5 30.5h-10l5 148h178v-65h-174l-3 -79q55 13 91.5 8.5t58.5 -26t30.5 -43t8.5 -42.5q0 -48 -36 -78t-99 -30z
" />
    <glyph glyph-name="sixsuperior" unicode="&#x2076;" horiz-adv-x="342" 
d="M207 660q0 103 -37 103q-18 0 -35 -20q-10 -61 -0.5 -124.5t37.5 -63.5q21 0 28 26.5t7 78.5zM135 757l4 -1q22 19 56 19q46 0 71.5 -32t25.5 -78q0 -50 -36.5 -82.5t-83.5 -32.5q-55 0 -88.5 40t-33.5 98q0 83 52.5 144.5t133.5 77.5l1 -5q-39 -11 -70 -55t-32 -93z" />
    <glyph glyph-name="sevensuperior" unicode="&#x2077;" horiz-adv-x="320" 
d="M245 850v5l-180 -5l-10 -30h-5l2 90h218v-5l-106 -345h-80z" />
    <glyph glyph-name="eightsuperior" unicode="&#x2078;" horiz-adv-x="337" 
d="M207 831q0 74 -37 74q-35 0 -35 -70q0 -45 53 -71q19 24 19 67zM210 632q0 26 -15.5 43.5t-52.5 34.5q-20 -31 -20 -68q0 -39 13 -63t35 -24q40 0 40 77zM287 650q0 -48 -35 -74t-88 -26q-51 0 -82.5 23.5t-31.5 66.5q0 29 21 49.5t66 24.5q-75 38 -75 104q0 42 32 67
t78 25q42 0 71 -22t29 -61q0 -25 -21.5 -43.5t-58.5 -22.5q95 -37 95 -111z" />
    <glyph glyph-name="ninesuperior" unicode="&#x2079;" horiz-adv-x="342" 
d="M135 800q0 -103 37 -103q19 0 35 19q10 62 0.5 125.5t-37.5 63.5q-35 0 -35 -105zM207 702l-4 2q-19 -19 -56 -19q-46 0 -71.5 31.5t-25.5 77.5q0 51 36.5 83.5t83.5 32.5q55 0 88.5 -40.5t33.5 -98.5q0 -83 -52.5 -144t-133.5 -77l-1 5q39 11 70 54.5t32 92.5z" />
    <glyph glyph-name="parenleftsuperior" unicode="&#x207d;" horiz-adv-x="217" 
d="M102 725q0 -167 65 -280h-5q-56 55 -84 130t-28 150q0 74 28 149.5t84 130.5h5q-65 -115 -65 -280z" />
    <glyph glyph-name="parenrightsuperior" unicode="&#x207e;" horiz-adv-x="217" 
d="M115 725q0 165 -65 280h5q56 -55 84 -130.5t28 -149.5q0 -75 -28 -150t-84 -130h-5q65 113 65 280z" />
    <glyph glyph-name="nsuperior" unicode="&#x207f;" horiz-adv-x="400" 
d="M344 405l36 -3v-6h-156v6l24 3v219q0 48 -36 48q-26 0 -60 -39v-228l36 -3v-6h-168v6l36 3v285h-30v6l120 6h6v-54h6q45 54 105 54q34 0 57.5 -22t23.5 -68v-207z" />
    <glyph glyph-name="zeroinferior" unicode="&#x2080;" horiz-adv-x="360" 
d="M50 -30q0 70 35 125t95 55t95 -55t35 -125t-35 -125t-95 -55t-95 53.5t-35 126.5zM135 -30q0 -91 10 -133t35 -42t35 42t10 133t-10 133t-35 42t-35 -42t-10 -133z" />
    <glyph glyph-name="oneinferior" unicode="&#x2081;" horiz-adv-x="330" 
d="M50 -195l75 2v328l-65 -8v5l140 23h5v-348l75 -2v-5h-230v5z" />
    <glyph glyph-name="twoinferior" unicode="&#x2082;" horiz-adv-x="330" 
d="M125 -138v-5l155 3v-60h-230v5q43 31 73 64t44.5 56.5t22.5 51t9 40.5t1 33q0 40 -16 66t-47 26q-35 0 -60 -25v-5q34 8 44 -18q8 -23 -11 -37q-10 -7 -23 -7q-12 0 -22 9t-10 26q0 26 30 48t77 22q61 0 88 -29.5t27 -70.5q0 -102 -152 -193z" />
    <glyph glyph-name="threeinferior" unicode="&#x2083;" horiz-adv-x="332" 
d="M142 -205q62 0 62 94q0 36 -17.5 63t-46.5 27h-10v6h10q56 0 56 73q0 27 -15.5 45.5t-40.5 18.5q-18 0 -31 -6t-22 -18.5t-13 -21t-9 -22.5h-5q9 37 36.5 66.5t70.5 29.5q47 0 74.5 -21.5t27.5 -57.5q0 -34 -27 -58t-81 -30v-3q57 -2 89 -24.5t32 -63.5
q0 -49 -38.5 -75.5t-96.5 -26.5q-47 0 -72 21.5t-25 50.5q0 15 9.5 24t24.5 9q26 0 32 -24q7 -26 -17 -39q-12 -5 -26 -5v-5q20 -27 69 -27z" />
    <glyph glyph-name="fourinferior" unicode="&#x2084;" horiz-adv-x="355" 
d="M270 -114h35v-6h-35v-80h-80v80h-140v8l164 247l56 20v-269zM185 82l-125 -191v-5h130v196h-5z" />
    <glyph glyph-name="fiveinferior" unicode="&#x2085;" horiz-adv-x="332" 
d="M147 -210q-47 0 -72 21.5t-25 50.5q0 14 9 23.5t26 9.5q26 0 32 -25q6 -26 -18 -37q-12 -5 -28 -3v-5q28 -30 71 -30q33 0 48 29t15 71q0 41 -26.5 71.5t-81.5 30.5h-10l5 148h178v-65h-174l-3 -79q55 13 91.5 8.5t58.5 -26t30.5 -43t8.5 -42.5q0 -48 -36 -78t-99 -30z
" />
    <glyph glyph-name="sixinferior" unicode="&#x2086;" horiz-adv-x="342" 
d="M207 -100q0 103 -37 103q-18 0 -35 -20q-10 -61 -0.5 -124.5t37.5 -63.5q21 0 28 26.5t7 78.5zM135 -3l4 -1q22 19 56 19q46 0 71.5 -32t25.5 -78q0 -50 -36.5 -82.5t-83.5 -32.5q-55 0 -88.5 40t-33.5 98q0 83 52.5 144.5t133.5 77.5l1 -5q-39 -11 -70 -55t-32 -93z" />
    <glyph glyph-name="seveninferior" unicode="&#x2087;" horiz-adv-x="320" 
d="M245 90v5l-180 -5l-10 -30h-5l2 90h218v-5l-106 -345h-80z" />
    <glyph glyph-name="eightinferior" unicode="&#x2088;" horiz-adv-x="337" 
d="M207 71q0 74 -37 74q-35 0 -35 -70q0 -45 53 -71q19 24 19 67zM210 -128q0 26 -15.5 43.5t-52.5 34.5q-20 -31 -20 -68q0 -39 13 -63t35 -24q40 0 40 77zM287 -110q0 -48 -35 -74t-88 -26q-51 0 -82.5 23.5t-31.5 66.5q0 29 21 49.5t66 24.5q-75 38 -75 104q0 42 32 67
t78 25q42 0 71 -22t29 -61q0 -25 -21.5 -43.5t-58.5 -22.5q95 -37 95 -111z" />
    <glyph glyph-name="nineinferior" unicode="&#x2089;" horiz-adv-x="342" 
d="M135 40q0 -103 37 -103q19 0 35 19q10 62 0.5 125.5t-37.5 63.5q-35 0 -35 -105zM207 -58l-4 2q-19 -19 -56 -19q-46 0 -71.5 31.5t-25.5 77.5q0 51 36.5 83.5t83.5 32.5q55 0 88.5 -40.5t33.5 -98.5q0 -83 -52.5 -144t-133.5 -77l-1 5q39 11 70 54.5t32 92.5z" />
    <glyph glyph-name="parenleftinferior" unicode="&#x208d;" horiz-adv-x="217" 
d="M102 -35q0 -167 65 -280h-5q-56 55 -84 130t-28 150q0 74 28 149.5t84 130.5h5q-65 -115 -65 -280z" />
    <glyph glyph-name="parenrightinferior" unicode="&#x208e;" horiz-adv-x="217" 
d="M115 -35q0 165 -65 280h5q56 -55 84 -130.5t28 -149.5q0 -75 -28 -150t-84 -130h-5q65 113 65 280z" />
    <glyph glyph-name="colonmonetary" unicode="&#x20a1;" horiz-adv-x="655" 
d="M460 810v-104q76 -11 115.5 -46.5t39.5 -80.5q0 -28 -17.5 -48.5t-49.5 -20.5q-47 0 -63 41q-15 37 11 65q25 28 76 19v10q-64 55 -172 55q-96 0 -138 -89t-42 -261t42 -261t138 -89q108 0 172 55v10q-64 -11 -85 32q-18 35 6 67q19 26 55 26q32 0 49.5 -20.5t17.5 -48.5
q0 -45 -39.5 -80.5t-115.5 -46.5v-94h-10v93q-24 -3 -50 -3q-53 0 -100 11v-101h-10v104q-117 32 -178.5 127t-61.5 219t61.5 219t178.5 127v114h10v-112q45 12 100 12q26 0 50 -3v103h10z" />
    <glyph glyph-name="franc" unicode="&#x20a3;" horiz-adv-x="725" 
d="M50 290h74q-4 25 -4 60q0 28 3 55h-73v10h75q18 130 106.5 212.5t238.5 82.5q105 0 160 -38.5t55 -92.5q0 -28 -17.5 -48.5t-49.5 -20.5q-47 0 -63 41q-15 37 11 65q25 28 76 19v10q-64 55 -172 55q-165 0 -179 -285h169v-10h-169q-1 -18 -1 -55q0 -41 1 -60h169v-10
h-168q8 -139 50 -209.5t128 -70.5q108 0 172 55v10q-64 -11 -85 32q-18 35 6 67q19 26 55 26q32 0 49.5 -20.5t17.5 -48.5q0 -54 -55 -92.5t-160 -38.5q-149 0 -237 81t-108 209h-75v10z" />
    <glyph glyph-name="lira" unicode="&#x20a4;" horiz-adv-x="725" 
d="M50 290h74q-4 25 -4 60q0 28 3 55h-73v10h75q18 130 106.5 212.5t238.5 82.5q105 0 160 -38.5t55 -92.5q0 -28 -17.5 -48.5t-49.5 -20.5q-47 0 -63 41q-15 37 11 65q25 28 76 19v10q-64 55 -172 55q-165 0 -179 -285h169v-10h-169q-1 -18 -1 -55q0 -41 1 -60h169v-10
h-168q8 -139 50 -209.5t128 -70.5q108 0 172 55v10q-64 -11 -85 32q-18 35 6 67q19 26 55 26q32 0 49.5 -20.5t17.5 -48.5q0 -54 -55 -92.5t-160 -38.5q-149 0 -237 81t-108 209h-75v10z" />
    <glyph glyph-name="peseta" unicode="&#x20a7;" horiz-adv-x="725" 
d="M50 290h74q-4 25 -4 60q0 28 3 55h-73v10h75q18 130 106.5 212.5t238.5 82.5q105 0 160 -38.5t55 -92.5q0 -28 -17.5 -48.5t-49.5 -20.5q-47 0 -63 41q-15 37 11 65q25 28 76 19v10q-64 55 -172 55q-165 0 -179 -285h169v-10h-169q-1 -18 -1 -55q0 -41 1 -60h169v-10
h-168q8 -139 50 -209.5t128 -70.5q108 0 172 55v10q-64 -11 -85 32q-18 35 6 67q19 26 55 26q32 0 49.5 -20.5t17.5 -48.5q0 -54 -55 -92.5t-160 -38.5q-149 0 -237 81t-108 209h-75v10z" />
    <glyph glyph-name="Euro" unicode="&#x20ac;" horiz-adv-x="725" 
d="M50 290h74q-4 25 -4 60q0 28 3 55h-73v10h75q18 130 106.5 212.5t238.5 82.5q105 0 160 -38.5t55 -92.5q0 -28 -17.5 -48.5t-49.5 -20.5q-47 0 -63 41q-15 37 11 65q25 28 76 19v10q-64 55 -172 55q-165 0 -179 -285h169v-10h-169q-1 -18 -1 -55q0 -41 1 -60h169v-10
h-168q8 -139 50 -209.5t128 -70.5q108 0 172 55v10q-64 -11 -85 32q-18 35 6 67q19 26 55 26q32 0 49.5 -20.5t17.5 -48.5q0 -54 -55 -92.5t-160 -38.5q-149 0 -237 81t-108 209h-75v10z" />
    <glyph glyph-name="litre" unicode="&#x2113;" horiz-adv-x="449" 
d="M42 156l-12 11l94 99v243q0 102 40 151q42 50 100 50q44 0 70 -27t26 -72q0 -51 -31 -112q-31 -63 -129 -176v-168q0 -75 23 -106q22 -29 60 -29q35 0 64 29q32 29 54 103h18q-21 -83 -68 -127q-37 -35 -89 -35q-43 0 -77.5 24.5t-49.5 65.5q-11 33 -11 107v52zM200 543
v-193q134 155 134 242q0 41 -19 65t-48 24t-48 -28t-19 -110z" />
    <glyph glyph-name="afii61352" unicode="&#x2116;" horiz-adv-x="1078" 
d="M894 700q-39 0 -54.5 -37t-15.5 -109t15.5 -109t54.5 -37t54.5 37t15.5 109t-15.5 109t-54.5 37zM894 398q-76 0 -120 44.5t-44 111.5t44 111.5t120 44.5t120 -44.5t44 -111.5t-44 -111.5t-120 -44.5zM750 318h288v-10h-288v10zM578 225h10l-3 420l-115 45v10h240v-10
l-110 -45v-650h-70l-369 595h-10l4 -535l115 -45v-10h-240v10l110 45v630l-110 5v10h250z" />
    <glyph glyph-name="trademark" unicode="&#x2122;" horiz-adv-x="845" 
d="M57 700h276l2 -85h-7l-48 74l-45 3v-335l30 -2v-5h-140v5l30 2v335l-45 -3l-48 -74h-7zM603 450h5l75 250h107v-5l-30 -2v-336l30 -2v-5h-140v5l30 2v288h-5l-87 -298h-21l-120 288h-5l3 -278l55 -2v-5h-120v5l55 2v336l-55 2v5h122z" />
    <glyph glyph-name="Omega" unicode="&#x2126;" horiz-adv-x="740" 
d="M155 20l165 -10v119q-115 25 -202.5 100.5t-87.5 180.5q0 133 98 216.5t242 83.5t242 -83.5t98 -216.5q0 -105 -87.5 -180.5t-202.5 -100.5v-119l165 10l95 140h10l-10 -160h-270v135q59 21 94.5 96t35.5 179q0 130 -45 210t-125 80t-125 -80t-45 -210q0 -104 35.5 -179
t94.5 -96v-135h-270l-10 160h10z" />
    <glyph glyph-name="estimated" unicode="&#x212e;" horiz-adv-x="736" 
d="M706 349h-528v-235q81 -78 190 -78q163 0 252 157l46 -26q-67 -96 -132.5 -136.5t-165.5 -40.5q-150 0 -244 102t-94 257q0 156 94.5 258.5t243.5 102.5q142 0 236.5 -94.5t101.5 -266.5zM178 397h380v189q-82 77 -191 77q-110 0 -189 -77v-189z" />
    <glyph glyph-name="onethird" unicode="&#x2153;" horiz-adv-x="800" 
d="M50 365l75 2v328l-65 -8v5l140 23h5v-348l75 -2v-5h-230v5zM610 -5q62 0 62 94q0 36 -17.5 63t-46.5 27h-10v6h10q56 0 56 73q0 27 -15.5 45.5t-40.5 18.5q-18 0 -31 -6t-22 -18.5t-13 -21t-9 -22.5h-5q9 37 36.5 66.5t70.5 29.5q47 0 74.5 -21.5t27.5 -57.5
q0 -34 -27 -58t-81 -30v-3q57 -2 89 -24.5t32 -63.5q0 -49 -38.5 -75.5t-96.5 -26.5q-47 0 -72 21.5t-25 50.5q0 15 9.5 24t24.5 9q26 0 32 -24q7 -26 -17 -39q-11 -5 -26 -5v-5q20 -27 69 -27zM570 710h10l-160 -360l-150 -350h-10l150 350z" />
    <glyph glyph-name="twothirds" unicode="&#x2154;" horiz-adv-x="800" 
d="M125 422v-5l155 3v-60h-230v5q43 31 73 64t44.5 56.5t22.5 51t9 40.5t1 33q0 40 -16 66t-47 26q-35 0 -60 -25v-5q34 8 44 -18q8 -23 -11 -37q-10 -7 -23 -7q-12 0 -22 9t-10 26q0 26 30 48t77 22q61 0 88 -29.5t27 -70.5q0 -102 -152 -193zM610 -5q62 0 62 94
q0 36 -17.5 63t-46.5 27h-10v6h10q56 0 56 73q0 27 -15.5 45.5t-40.5 18.5q-18 0 -31 -6t-22 -18.5t-13 -21t-9 -22.5h-5q9 37 36.5 66.5t70.5 29.5q47 0 74.5 -21.5t27.5 -57.5q0 -34 -27 -58t-81 -30v-3q57 -2 89 -24.5t32 -63.5q0 -49 -38.5 -75.5t-96.5 -26.5
q-47 0 -72 21.5t-25 50.5q0 15 9.5 24t24.5 9q26 0 32 -24q7 -26 -17 -39q-11 -5 -26 -5v-5q20 -27 69 -27zM570 710h10l-160 -360l-150 -350h-10l150 350z" />
    <glyph glyph-name="oneeighth" unicode="&#x215b;" horiz-adv-x="800" 
d="M50 365l75 2v328l-65 -8v5l140 23h5v-348l75 -2v-5h-230v5zM670 271q0 74 -37 74q-35 0 -35 -70q0 -45 53 -71q19 24 19 67zM673 72q0 26 -15.5 43.5t-52.5 34.5q-20 -31 -20 -68q0 -39 13 -63t35 -24q40 0 40 77zM750 90q0 -48 -35 -74t-88 -26q-51 0 -82.5 23.5
t-31.5 66.5q0 29 21 49.5t66 24.5q-75 38 -75 104q0 42 32 67t78 25q42 0 71 -22t29 -61q0 -25 -21.5 -43.5t-58.5 -22.5q95 -37 95 -111zM570 710h10l-160 -360l-150 -350h-10l150 350z" />
    <glyph glyph-name="threeeighths" unicode="&#x215c;" horiz-adv-x="800" 
d="M142 355q62 0 62 94q0 36 -17.5 63t-46.5 27h-10v6h10q56 0 56 73q0 27 -15.5 45.5t-40.5 18.5q-18 0 -31 -6t-22 -18.5t-13 -21t-9 -22.5h-5q9 37 36.5 66.5t70.5 29.5q47 0 74.5 -21.5t27.5 -57.5q0 -34 -27 -58t-81 -30v-3q57 -2 89 -24.5t32 -63.5q0 -49 -38.5 -75.5
t-96.5 -26.5q-47 0 -72 21.5t-25 50.5q0 15 9.5 24t24.5 9q26 0 32 -24q7 -26 -17 -39q-12 -5 -26 -5v-5q20 -27 69 -27zM670 271q0 74 -37 74q-35 0 -35 -70q0 -45 53 -71q19 24 19 67zM673 72q0 26 -15.5 43.5t-52.5 34.5q-20 -31 -20 -68q0 -39 13 -63t35 -24q40 0 40 77
zM750 90q0 -48 -35 -74t-88 -26q-51 0 -82.5 23.5t-31.5 66.5q0 29 21 49.5t66 24.5q-75 38 -75 104q0 42 32 67t78 25q42 0 71 -22t29 -61q0 -25 -21.5 -43.5t-58.5 -22.5q95 -37 95 -111zM570 710h10l-160 -360l-150 -350h-10l150 350z" />
    <glyph glyph-name="fiveeighths" unicode="&#x215d;" horiz-adv-x="800" 
d="M147 350q-47 0 -72 21.5t-25 50.5q0 14 9 23.5t26 9.5q26 0 32 -25q6 -26 -18 -37q-12 -5 -28 -3v-5q28 -30 71 -30q33 0 48 29t15 71q0 41 -26.5 71.5t-81.5 30.5h-10l5 148h178v-65h-174l-3 -79q55 13 91.5 8.5t58.5 -26t30.5 -43t8.5 -42.5q0 -48 -36 -78t-99 -30z
M670 271q0 74 -37 74q-35 0 -35 -70q0 -45 53 -71q19 24 19 67zM673 72q0 26 -15.5 43.5t-52.5 34.5q-20 -31 -20 -68q0 -39 13 -63t35 -24q40 0 40 77zM750 90q0 -48 -35 -74t-88 -26q-51 0 -82.5 23.5t-31.5 66.5q0 29 21 49.5t66 24.5q-75 38 -75 104q0 42 32 67t78 25
q42 0 71 -22t29 -61q0 -25 -21.5 -43.5t-58.5 -22.5q95 -37 95 -111zM550 710h10l-160 -360l-150 -350h-10l150 350z" />
    <glyph glyph-name="seveneighths" unicode="&#x215e;" horiz-adv-x="800" 
d="M245 650v5l-180 -5l-10 -30h-5l2 90h218v-5l-106 -345h-80zM670 271q0 74 -37 74q-35 0 -35 -70q0 -45 53 -71q19 24 19 67zM673 72q0 26 -15.5 43.5t-52.5 34.5q-20 -31 -20 -68q0 -39 13 -63t35 -24q40 0 40 77zM750 90q0 -48 -35 -74t-88 -26q-51 0 -82.5 23.5
t-31.5 66.5q0 29 21 49.5t66 24.5q-75 38 -75 104q0 42 32 67t78 25q42 0 71 -22t29 -61q0 -25 -21.5 -43.5t-58.5 -22.5q95 -37 95 -111zM530 710h10l-160 -360l-150 -350h-10l150 350z" />
    <glyph glyph-name="partialdiff" unicode="&#x2202;" horiz-adv-x="540" 
d="M192 210q-16 -89 -8.5 -149.5t48.5 -60.5q56 0 90.5 118.5t37.5 258.5q-31 39 -64 39q-44 0 -67 -55.5t-37 -150.5zM355 402l8 3q11 97 -37.5 185.5t-124.5 109.5l3 10q157 -32 245.5 -154.5t65.5 -288.5q-16 -116 -94.5 -196.5t-188.5 -80.5q-95 0 -158.5 64.5
t-50.5 166.5q14 92 73.5 155.5t152.5 63.5q37 0 65.5 -12.5t40.5 -25.5z" />
    <glyph glyph-name="Delta" unicode="&#x2206;" horiz-adv-x="706" 
d="M366 710l280 -710h-586zM76 10h476l-221 592z" />
    <glyph glyph-name="product" unicode="&#x220f;" horiz-adv-x="740" 
d="M490 -205v890h-240v-890l60 -5v-10h-280v10l60 5v890l-60 5v10h680v-10l-60 -5v-890l60 -5v-10h-280v10z" />
    <glyph glyph-name="summation" unicode="&#x2211;" horiz-adv-x="590" 
d="M395 350l-180 -330v-10l205 5l120 155h10l-5 -170h-515v10l172 340l-172 340v10h495l5 -170h-10l-110 155l-195 5v-10z" />
    <glyph glyph-name="minus" unicode="&#x2212;" horiz-adv-x="560" 
d="M90 275h380v-15h-380v15z" />
    <glyph glyph-name="uni2215" unicode="&#x2215;" horiz-adv-x="480" 
d="M335 710h20l-210 -710h-20z" />
    <glyph glyph-name="uni2219" unicode="&#x2219;" horiz-adv-x="306" 
d="M89 263q0 28 18.5 46.5t45.5 18.5t45.5 -18.5t18.5 -46.5t-18.5 -45.5t-45.5 -17.5t-45.5 17.5t-18.5 45.5z" />
    <glyph glyph-name="radical" unicode="&#x221a;" horiz-adv-x="785" 
d="M715 710h10l-280 -710h-35l-168 410h-182v10h264l138 -350z" />
    <glyph glyph-name="infinity" unicode="&#x221e;" horiz-adv-x="949" 
d="M268 130q62 0 114.5 41t73.5 84q-21 47 -75 81t-111 34q-79 0 -119.5 -33t-40.5 -82q0 -50 39.5 -87.5t118.5 -37.5zM681 370q-62 0 -114.5 -41t-73.5 -84q21 -47 75 -81t111 -34q79 0 119.5 33t40.5 82q0 50 -39.5 87.5t-118.5 37.5zM270 400q69 0 124 -37t83 -88
q83 125 212 125q81 0 130.5 -44t49.5 -111q0 -65 -51 -105t-139 -40q-69 0 -125 37t-83 86q-82 -123 -211 -123q-81 0 -130.5 44t-49.5 111q0 65 51 105t139 40z" />
    <glyph glyph-name="integral" unicode="&#x222b;" horiz-adv-x="340" 
d="M260 550l-34 -486q-3 -42 -13.5 -82t-30.5 -79t-47.5 -68t-68 -47t-89.5 -18q-41 0 -69.5 17t-25.5 57q2 29 27.5 45.5t54 10.5t38.5 -33q11 -34 -9 -82q16 0 27 9.5t17.5 23.5t11 38.5t6.5 46.5t4 56q1 21 2 31l37 520q5 83 80.5 151.5t164.5 68.5q47 0 72 -19.5
t23 -50.5q-2 -26 -20 -43.5t-49 -17.5q-19 0 -34 11t-21.5 36.5t13.5 68.5h-10q-26 0 -38.5 -41.5t-18.5 -123.5z" />
    <glyph glyph-name="approxequal" unicode="&#x2248;" horiz-adv-x="550" 
d="M88 306l-8 4q59 120 110 120q19 0 102 -26t107 -26q10 0 18 2.5t17.5 9.5t13 10t15.5 14l7 -4q-55 -110 -105 -110q-23 0 -105 25.5t-106 25.5q-33 0 -66 -45zM88 156l-8 4q59 120 110 120q19 0 102 -26t107 -26q10 0 18 2.5t17.5 9.5t13 10t15.5 14l7 -4
q-55 -110 -105 -110q-23 0 -105 25.5t-106 25.5q-33 0 -66 -45z" />
    <glyph glyph-name="notequal" unicode="&#x2260;" horiz-adv-x="560" 
d="M90 345h201l84 285h20l-84 -285h159v-15h-164l-37 -125h201v-15h-205l-80 -270h-20l80 270h-155v15h159l37 125h-196v15z" />
    <glyph glyph-name="lessequal" unicode="&#x2264;" horiz-adv-x="560" 
d="M146 269l324 -156v-63h-380v35h356l-356 173v20l380 185v-40z" />
    <glyph glyph-name="greaterequal" unicode="&#x2265;" horiz-adv-x="560" 
d="M90 113l324 156l-324 154v40l380 -185v-20l-356 -173h356v-35h-380v63z" />
    <glyph glyph-name="lozenge" unicode="&#x25ca;" horiz-adv-x="612" 
d="M295 -30l-195 374l195 374h22l195 -374l-195 -374h-22zM113 344l193 -366l192 366l-192 366z" />
    <glyph glyph-name="undercommaaccent" unicode="&#xf005;" horiz-adv-x="335" 
d="M90 -170v120q78 11 116.5 -19t38.5 -87q0 -70 -44 -124.5t-97 -73.5l-4 10q40 14 64.5 43.5t27 58t-24 50.5t-77.5 22z" />
    <glyph glyph-name="Abreve.small" unicode="&#xf66d;" 
d="M120 55l120 -45v-10h-240v10l106 45l162 470l65 25l216 -535l51 -5v-10h-290v10l65 5l-62 165h-151zM239 380h-10l-64 -190h145zM300 620q-63 0 -99 45.5t-36 105.5h8q8 -39 37.5 -56t89.5 -17t89.5 17t37.5 56h8q0 -60 -36 -105.5t-99 -45.5z" />
    <glyph glyph-name="Amacron.small" unicode="&#xf66e;" 
d="M120 55l120 -45v-10h-240v10l106 45l162 470l65 25l216 -535l51 -5v-10h-290v10l65 5l-62 165h-151zM239 380h-10l-64 -190h145zM145 665h310v-15h-310v15z" />
    <glyph glyph-name="AEacute.small" unicode="&#xf670;" horiz-adv-x="790" 
d="M360 464h-10l-101 -187h111v187zM110 55l265 470l-105 5v10h470l5 -150h-10l-110 135l-105 5v-253l95 3l30 100h10v-215h-10l-30 99l-95 3v-257l115 5l115 135h10l-10 -150h-450v10l60 5v252h-117l-117 -212l114 -45v-10h-240v10zM487 780h129l-174 -180h-10z" />
    <glyph glyph-name="Cacute.small" unicode="&#xf671;" horiz-adv-x="580" 
d="M330 540q-68 0 -99 -64t-31 -206t31 -206t99 -64q48 0 86.5 26t60.5 61l63 98h10l-5 -135q-96 -60 -215 -60q-55 0 -106.5 16t-95.5 48.5t-71 88t-27 127.5t27 127.5t71 88t95.5 48.5t106.5 16q114 0 210 -60l5 -135h-9l-64 97q-58 88 -142 88zM360 780h129l-174 -180
h-10z" />
    <glyph glyph-name="Ccaron.small" unicode="&#xf672;" horiz-adv-x="580" 
d="M330 540q-68 0 -99 -64t-31 -206t31 -206t99 -64q48 0 86.5 26t60.5 61l63 98h10l-5 -135q-96 -60 -215 -60q-55 0 -106.5 16t-95.5 48.5t-71 88t-27 127.5t27 127.5t71 88t95.5 48.5t106.5 16q114 0 210 -60l5 -135h-9l-64 97q-58 88 -142 88zM189 780h10l125 -75
l125 75h10l-130 -180h-10z" />
    <glyph glyph-name="Ccircumflex.small" unicode="&#xf673;" horiz-adv-x="580" 
d="M330 540q-68 0 -99 -64t-31 -206t31 -206t99 -64q48 0 86.5 26t60.5 61l63 98h10l-5 -135q-96 -60 -215 -60q-55 0 -106.5 16t-95.5 48.5t-71 88t-27 127.5t27 127.5t71 88t95.5 48.5t106.5 16q114 0 210 -60l5 -135h-9l-64 97q-58 88 -142 88zM324 675l-125 -75h-10
l130 180h10l130 -180h-10z" />
    <glyph glyph-name="Cdotaccent.small" unicode="&#xf674;" horiz-adv-x="580" 
d="M330 540q-68 0 -99 -64t-31 -206t31 -206t99 -64q48 0 86.5 26t60.5 61l63 98h10l-5 -135q-96 -60 -215 -60q-55 0 -106.5 16t-95.5 48.5t-71 88t-27 127.5t27 127.5t71 88t95.5 48.5t106.5 16q114 0 210 -60l5 -135h-9l-64 97q-58 88 -142 88zM263 677q0 29 20 49t49 20
t49 -20t20 -49t-20 -49t-49 -20t-49 20t-20 49z" />
    <glyph glyph-name="Dcaron.small" unicode="&#xf675;" horiz-adv-x="660" 
d="M250 10h50q44 0 76.5 23.5t50 63t25.5 82.5t8 91q0 260 -170 260h-40v-520zM300 0h-270v10l60 5v510l-60 5v10h270q160 0 245 -70.5t85 -199.5q0 -121 -86.5 -195.5t-243.5 -74.5zM184 780h10l125 -75l125 75h10l-130 -180h-10z" />
    <glyph glyph-name="Ebreve.small" unicode="&#xf677;" horiz-adv-x="560" 
d="M250 530v-253l100 5l55 98h10v-215h-10l-55 97l-100 5v-257l155 5l115 135h10l-10 -150h-490v10l60 5v510l-60 5v10h480l5 -150h-10l-110 135zM290 620q-63 0 -99 45.5t-36 105.5h8q8 -39 37.5 -56t89.5 -17t89.5 17t37.5 56h8q0 -60 -36 -105.5t-99 -45.5z" />
    <glyph glyph-name="Ecaron.small" unicode="&#xf678;" horiz-adv-x="560" 
d="M250 530v-253l100 5l55 98h10v-215h-10l-55 97l-100 5v-257l155 5l115 135h10l-10 -150h-490v10l60 5v510l-60 5v10h480l5 -150h-10l-110 135zM173 780h10l125 -75l125 75h10l-130 -180h-10z" />
    <glyph glyph-name="Edotaccent.small" unicode="&#xf679;" horiz-adv-x="560" 
d="M250 530v-253l100 5l55 98h10v-215h-10l-55 97l-100 5v-257l155 5l115 135h10l-10 -150h-490v10l60 5v510l-60 5v10h480l5 -150h-10l-110 135zM226 677q0 29 20 49t49 20t49 -20t20 -49t-20 -49t-49 -20t-49 20t-20 49z" />
    <glyph glyph-name="Emacron.small" unicode="&#xf67a;" horiz-adv-x="560" 
d="M250 530v-253l100 5l55 98h10v-215h-10l-55 97l-100 5v-257l155 5l115 135h10l-10 -150h-490v10l60 5v510l-60 5v10h480l5 -150h-10l-110 135zM142 665h310v-15h-310v15z" />
    <glyph glyph-name="Gbreve.small" unicode="&#xf67d;" horiz-adv-x="640" 
d="M330 0q42 0 80 24v226l-50 5v10h260v-10l-50 -5v-180q-128 -80 -240 -80q-55 0 -106.5 16t-95.5 48.5t-71 88t-27 127.5t27 127.5t71 88t95.5 48.5t106.5 16q114 0 210 -60l5 -135h-10l-63 97q-16 25 -30.5 41.5t-44.5 31.5t-67 15q-68 0 -99 -64t-31 -206t31 -206
t99 -64zM330 620q-63 0 -99 45.5t-36 105.5h8q8 -39 37.5 -56t89.5 -17t89.5 17t37.5 56h8q0 -60 -36 -105.5t-99 -45.5z" />
    <glyph glyph-name="Gcircumflex.small" unicode="&#xf67e;" horiz-adv-x="640" 
d="M330 0q42 0 80 24v226l-50 5v10h260v-10l-50 -5v-180q-128 -80 -240 -80q-55 0 -106.5 16t-95.5 48.5t-71 88t-27 127.5t27 127.5t71 88t95.5 48.5t106.5 16q114 0 210 -60l5 -135h-10l-63 97q-16 25 -30.5 41.5t-44.5 31.5t-67 15q-68 0 -99 -64t-31 -206t31 -206
t99 -64zM334 675l-125 -75h-10l130 180h10l130 -180h-10z" />
    <glyph glyph-name="Gcommaaccent.small" unicode="&#xf67f;" horiz-adv-x="640" 
d="M330 0q42 0 80 24v226l-50 5v10h260v-10l-50 -5v-180q-128 -80 -240 -80q-55 0 -106.5 16t-95.5 48.5t-71 88t-27 127.5t27 127.5t71 88t95.5 48.5t106.5 16q114 0 210 -60l5 -135h-10l-63 97q-16 25 -30.5 41.5t-44.5 31.5t-67 15q-68 0 -99 -64t-31 -206t31 -206
t99 -64zM249 -170v120q78 11 116.5 -19t38.5 -87q0 -70 -44 -124.5t-97 -73.5l-4 10q40 14 64.5 43.5t27 58t-24 50.5t-77.5 22z" />
    <glyph glyph-name="Gdotaccent.small" unicode="&#xf680;" horiz-adv-x="640" 
d="M330 0q42 0 80 24v226l-50 5v10h260v-10l-50 -5v-180q-128 -80 -240 -80q-55 0 -106.5 16t-95.5 48.5t-71 88t-27 127.5t27 127.5t71 88t95.5 48.5t106.5 16q114 0 210 -60l5 -135h-10l-63 97q-16 25 -30.5 41.5t-44.5 31.5t-67 15q-68 0 -99 -64t-31 -206t31 -206
t99 -64zM272 677q0 29 20 49t49 20t49 -20t20 -49t-20 -49t-49 -20t-49 20t-20 49z" />
    <glyph glyph-name="Hcircumflex.small" unicode="&#xf682;" horiz-adv-x="720" 
d="M470 15v257h-220v-257l60 -5v-10h-280v10l60 5v510l-60 5v10h280v-10l-60 -5v-243h220v243l-60 5v10h280v-10l-60 -5v-510l60 -5v-10h-280v10zM362 675l-125 -75h-10l130 180h10l130 -180h-10z" />
    <glyph glyph-name="Ibreve.small" unicode="&#xf683;" horiz-adv-x="340" 
d="M90 15v510l-60 5v10h280v-10l-60 -5v-510l60 -5v-10h-280v10zM170 620q-63 0 -99 45.5t-36 105.5h8q8 -39 37.5 -56t89.5 -17t89.5 17t37.5 56h8q0 -60 -36 -105.5t-99 -45.5z" />
    <glyph glyph-name="Imacron.small" unicode="&#xf685;" horiz-adv-x="340" 
d="M90 15v510l-60 5v10h280v-10l-60 -5v-510l60 -5v-10h-280v10zM15 665h310v-15h-310v15z" />
    <glyph glyph-name="Itilde.small" unicode="&#xf687;" horiz-adv-x="340" 
d="M90 15v510l-60 5v10h280v-10l-60 -5v-510l60 -5v-10h-280v10zM-20 625l-5 5q22 45 56 87.5t64 42.5q31 0 96.5 -30t103.5 -30q10 0 18 1.5t15.5 6t10 6.5t11 11t10.5 10l5 -5q-22 -44 -53.5 -82t-61.5 -38q-34 0 -103 30t-102 30q-10 0 -18.5 -2.5t-15.5 -8.5t-11 -10
t-11 -12.5t-9 -11.5z" />
    <glyph glyph-name="Jcircumflex.small" unicode="&#xf688;" horiz-adv-x="430" 
d="M190 170v355l-60 5v10h280v-10l-60 -5v-315q0 -83 -70.5 -151.5t-159.5 -68.5q-47 0 -73.5 19.5t-26.5 50.5q0 43 40 57q38 14 66 -11q36 -32 9 -101h10q26 0 35.5 41t9.5 124zM266 675l-125 -75h-10l130 180h10l130 -180h-10z" />
    <glyph glyph-name="Kcommaaccent.small" unicode="&#xf689;" horiz-adv-x="665" 
d="M290 280l173 205l-108 45v10h270v-10l-147 -45l-93 -110l233 -360l37 -5v-10h-300v10l52 5l-147 255h-10v-255l60 -5v-10h-280v10l60 5v510l-60 5v10h280v-10l-60 -5v-245h40zM256 -170v120q78 11 116.5 -19t38.5 -87q0 -70 -44 -124.5t-97 -73.5l-4 10q40 14 64.5 43.5
t27 58t-24 50.5t-77.5 22z" />
    <glyph glyph-name="Lacute.small" unicode="&#xf68a;" horiz-adv-x="540" 
d="M250 10l155 5l115 135h10l-10 -150h-490v10l60 5v510l-60 5v10h280v-10l-60 -5v-515zM214 780h129l-174 -180h-10z" />
    <glyph glyph-name="Lcaron.small" unicode="&#xf68b;" horiz-adv-x="540" 
d="M250 10l155 5l115 135h10l-10 -150h-490v10l60 5v510l-60 5v10h280v-10l-60 -5v-515zM345 430v120q78 11 116.5 -19t38.5 -87q0 -70 -44 -124.5t-97 -73.5l-4 10q40 14 64.5 43.5t27 58t-24 50.5t-77.5 22z" />
    <glyph glyph-name="Lcommaaccent.small" unicode="&#xf68c;" horiz-adv-x="540" 
d="M250 10l155 5l115 135h10l-10 -150h-490v10l60 5v510l-60 5v10h280v-10l-60 -5v-515zM205 -170v120q78 11 116.5 -19t38.5 -87q0 -70 -44 -124.5t-97 -73.5l-4 10q40 14 64.5 43.5t27 58t-24 50.5t-77.5 22z" />
    <glyph glyph-name="Ldot.small" unicode="&#xf68d;" horiz-adv-x="540" 
d="M250 10l155 5l115 135h10l-10 -150h-490v10l60 5v510l-60 5v10h280v-10l-60 -5v-515zM308 297q0 29 20 49t49 20t49 -20t20 -49t-20 -49t-49 -20t-49 20t-20 49z" />
    <glyph glyph-name="Nacute.small" unicode="&#xf68e;" horiz-adv-x="670" 
d="M530 235h10l-5 250l-125 45v10h240v-10l-100 -45v-495h-20l-380 425h-10l5 -360l125 -45v-10h-240v10l100 45v470l-100 5v10h225zM364 780h129l-174 -180h-10z" />
    <glyph glyph-name="Ncaron.small" unicode="&#xf68f;" horiz-adv-x="670" 
d="M530 235h10l-5 250l-125 45v10h240v-10l-100 -45v-495h-20l-380 425h-10l5 -360l125 -45v-10h-240v10l100 45v470l-100 5v10h225zM206 780h10l125 -75l125 75h10l-130 -180h-10z" />
    <glyph glyph-name="Ncommaaccent.small" unicode="&#xf690;" horiz-adv-x="670" 
d="M530 235h10l-5 250l-125 45v10h240v-10l-100 -45v-495h-20l-380 425h-10l5 -360l125 -45v-10h-240v10l100 45v470l-100 5v10h225zM266 -170v120q78 11 116.5 -19t38.5 -87q0 -70 -44 -124.5t-97 -73.5l-4 10q40 14 64.5 43.5t27 58t-24 50.5t-77.5 22z" />
    <glyph glyph-name="Obreve.small" unicode="&#xf691;" horiz-adv-x="660" 
d="M30 270q0 91 45 156t111.5 94.5t143.5 29.5t143.5 -29.5t111.5 -94.5t45 -156t-45 -156t-111.5 -94.5t-143.5 -29.5t-143.5 29.5t-111.5 94.5t-45 156zM200 270q0 -270 130 -270t130 270t-130 270t-130 -270zM335 620q-63 0 -99 45.5t-36 105.5h8q8 -39 37.5 -56
t89.5 -17t89.5 17t37.5 56h8q0 -60 -36 -105.5t-99 -45.5z" />
    <glyph glyph-name="Ohungarumlaut.small" unicode="&#xf692;" horiz-adv-x="660" 
d="M30 270q0 91 45 156t111.5 94.5t143.5 29.5t143.5 -29.5t111.5 -94.5t45 -156t-45 -156t-111.5 -94.5t-143.5 -29.5t-143.5 29.5t-111.5 94.5t-45 156zM200 270q0 -270 130 -270t130 270t-130 270t-130 -270zM440 800h119l-169 -200h-10zM280 800h119l-169 -200h-10z" />
    <glyph glyph-name="Omacron.small" unicode="&#xf693;" horiz-adv-x="660" 
d="M30 270q0 91 45 156t111.5 94.5t143.5 29.5t143.5 -29.5t111.5 -94.5t45 -156t-45 -156t-111.5 -94.5t-143.5 -29.5t-143.5 29.5t-111.5 94.5t-45 156zM200 270q0 -270 130 -270t130 270t-130 270t-130 -270zM179 665h310v-15h-310v15z" />
    <glyph glyph-name="Oslashacute.small" unicode="&#xf694;" horiz-adv-x="660" 
d="M364 780h129l-174 -180h-10zM587 533l8 -8l-51 -52q86 -76 86 -203q0 -91 -45 -156t-111.5 -94.5t-143.5 -29.5q-115 0 -198 62l-51 -52l-8 8l50 51q-93 78 -93 211q0 91 45 156t111.5 94.5t143.5 29.5q120 0 206 -69zM200 270q0 -72 9 -123l241 247q-26 146 -120 146
q-130 0 -130 -270zM460 270q0 55 -7 109l-241 -246q27 -133 118 -133q130 0 130 270z" />
    <glyph glyph-name="Racute.small" unicode="&#xf695;" horiz-adv-x="630" 
d="M275 230h-25v-215l60 -5v-10h-280v10l60 5v510l-60 5v10h290q230 0 230 -150q0 -63 -58 -105t-154 -50v-10q40 0 75 -17.5t50.5 -33.5t25.5 -32l81 -127l50 -5v-10h-210zM250 240h50q39 0 62 36.5t23 113.5q0 70 -28.5 105t-76.5 35h-30v-290zM311 780h129l-174 -180h-10
z" />
    <glyph glyph-name="Rcaron.small" unicode="&#xf696;" horiz-adv-x="630" 
d="M275 230h-25v-215l60 -5v-10h-280v10l60 5v510l-60 5v10h290q230 0 230 -150q0 -63 -58 -105t-154 -50v-10q40 0 75 -17.5t50.5 -33.5t25.5 -32l81 -127l50 -5v-10h-210zM250 240h50q39 0 62 36.5t23 113.5q0 70 -28.5 105t-76.5 35h-30v-290zM164 780h10l125 -75l125 75
h10l-130 -180h-10z" />
    <glyph glyph-name="Rcommaaccent.small" unicode="&#xf697;" horiz-adv-x="630" 
d="M275 230h-25v-215l60 -5v-10h-280v10l60 5v510l-60 5v10h290q230 0 230 -150q0 -63 -58 -105t-154 -50v-10q40 0 75 -17.5t50.5 -33.5t25.5 -32l81 -127l50 -5v-10h-210zM250 240h50q39 0 62 36.5t23 113.5q0 70 -28.5 105t-76.5 35h-30v-290zM245 -170v120
q78 11 116.5 -19t38.5 -87q0 -70 -44 -124.5t-97 -73.5l-4 10q40 14 64.5 43.5t27 58t-24 50.5t-77.5 22z" />
    <glyph glyph-name="Sacute.small" unicode="&#xf698;" horiz-adv-x="480" 
d="M230 -10q-36 0 -80 15.5t-80 44.5l-10 -55h-10l-5 180h10l50 -88q18 -34 51 -60.5t74 -26.5q38 0 61.5 25t23.5 65q0 44 -32 70t-96 53q-82 34 -119.5 76t-37.5 111q0 71 56.5 110.5t148.5 39.5q86 0 155 -50l5 45h10l5 -180h-10l-45 85q-48 90 -115 90q-30 0 -52.5 -19
t-22.5 -57q0 -12 2 -23t8.5 -20.5t10.5 -16.5t16 -15t16.5 -11.5t20.5 -11t19.5 -9t22 -8.5t19.5 -8q150 -59 150 -180q0 -78 -64 -124.5t-156 -46.5zM257 780h129l-174 -180h-10z" />
    <glyph glyph-name="Scircumflex.small" unicode="&#xf69a;" horiz-adv-x="480" 
d="M230 -10q-36 0 -80 15.5t-80 44.5l-10 -55h-10l-5 180h10l50 -88q18 -34 51 -60.5t74 -26.5q38 0 61.5 25t23.5 65q0 44 -32 70t-96 53q-82 34 -119.5 76t-37.5 111q0 71 56.5 110.5t148.5 39.5q86 0 155 -50l5 45h10l5 -180h-10l-45 85q-48 90 -115 90q-30 0 -52.5 -19
t-22.5 -57q0 -12 2 -23t8.5 -20.5t10.5 -16.5t16 -15t16.5 -11.5t20.5 -11t19.5 -9t22 -8.5t19.5 -8q150 -59 150 -180q0 -78 -64 -124.5t-156 -46.5zM234 675l-125 -75h-10l130 180h10l130 -180h-10z" />
    <glyph glyph-name="Scommaaccent.small" unicode="&#xf69b;" horiz-adv-x="480" 
d="M230 -10q-36 0 -80 15.5t-80 44.5l-10 -55h-10l-5 180h10l50 -88q18 -34 51 -60.5t74 -26.5q38 0 61.5 25t23.5 65q0 44 -32 70t-96 53q-82 34 -119.5 76t-37.5 111q0 71 56.5 110.5t148.5 39.5q86 0 155 -50l5 45h10l5 -180h-10l-45 85q-48 90 -115 90q-30 0 -52.5 -19
t-22.5 -57q0 -12 2 -23t8.5 -20.5t10.5 -16.5t16 -15t16.5 -11.5t20.5 -11t19.5 -9t22 -8.5t19.5 -8q150 -59 150 -180q0 -78 -64 -124.5t-156 -46.5zM170 -170v120q78 11 116.5 -19t38.5 -87q0 -70 -44 -124.5t-97 -73.5l-4 10q40 14 64.5 43.5t27 58t-24 50.5t-77.5 22z
" />
    <glyph glyph-name="Tcaron.small" unicode="&#xf69d;" horiz-adv-x="540" 
d="M25 540h490l5 -150h-10l-110 135l-50 3v-513l60 -5v-10h-280v10l60 5v513l-40 -3l-120 -135h-10zM134 780h10l125 -75l125 75h10l-130 -180h-10z" />
    <glyph glyph-name="Tcommaaccent.small" unicode="&#xf69e;" horiz-adv-x="540" 
d="M25 540h490l5 -150h-10l-110 135l-50 3v-513l60 -5v-10h-280v10l60 5v513l-40 -3l-120 -135h-10zM198 -170v120q78 11 116.5 -19t38.5 -87q0 -70 -44 -124.5t-97 -73.5l-4 10q40 14 64.5 43.5t27 58t-24 50.5t-77.5 22z" />
    <glyph glyph-name="Ubreve.small" unicode="&#xf69f;" horiz-adv-x="700" 
d="M555 250v235l-115 45v10h240v-10l-115 -45v-235q0 -260 -220 -260q-120 0 -192.5 65.5t-72.5 184.5v285l-60 5v10h280v-10l-60 -5v-275q0 -119 31.5 -174.5t113.5 -55.5q170 0 170 230zM370 620q-63 0 -99 45.5t-36 105.5h8q8 -39 37.5 -56t89.5 -17t89.5 17t37.5 56h8
q0 -60 -36 -105.5t-99 -45.5z" />
    <glyph glyph-name="Uhungarumlaut.small" unicode="&#xf6a0;" horiz-adv-x="700" 
d="M555 250v235l-115 45v10h240v-10l-115 -45v-235q0 -260 -220 -260q-120 0 -192.5 65.5t-72.5 184.5v285l-60 5v10h280v-10l-60 -5v-275q0 -119 31.5 -174.5t113.5 -55.5q170 0 170 230zM467 800h119l-169 -200h-10zM307 800h119l-169 -200h-10z" />
    <glyph glyph-name="Umacron.small" unicode="&#xf6a1;" horiz-adv-x="700" 
d="M555 250v235l-115 45v10h240v-10l-115 -45v-235q0 -260 -220 -260q-120 0 -192.5 65.5t-72.5 184.5v285l-60 5v10h280v-10l-60 -5v-275q0 -119 31.5 -174.5t113.5 -55.5q170 0 170 230zM208 665h310v-15h-310v15z" />
    <glyph glyph-name="Uring.small" unicode="&#xf6a3;" horiz-adv-x="700" 
d="M555 250v235l-115 45v10h240v-10l-115 -45v-235q0 -260 -220 -260q-120 0 -192.5 65.5t-72.5 184.5v285l-60 5v10h280v-10l-60 -5v-275q0 -119 31.5 -174.5t113.5 -55.5q170 0 170 230zM281 687q0 38 23.5 63t63.5 25t64 -25t24 -63t-24 -62.5t-64 -24.5q-38 0 -62.5 25
t-24.5 62zM305 687q0 -34 16 -55.5t47 -21.5q32 0 47.5 21.5t15.5 55.5q0 35 -15.5 56.5t-47.5 21.5q-31 0 -47 -22t-16 -56z" />
    <glyph glyph-name="Utilde.small" unicode="&#xf6a4;" horiz-adv-x="700" 
d="M555 250v235l-115 45v10h240v-10l-115 -45v-235q0 -260 -220 -260q-120 0 -192.5 65.5t-72.5 184.5v285l-60 5v10h280v-10l-60 -5v-275q0 -119 31.5 -174.5t113.5 -55.5q170 0 170 230zM177 625l-5 5q22 45 56 87.5t64 42.5q31 0 96.5 -30t103.5 -30q10 0 18 1.5t15.5 6
t10 6.5t11 11t10.5 10l5 -5q-22 -44 -53.5 -82t-61.5 -38q-33 0 -102.5 30t-102.5 30q-10 0 -18.5 -2.5t-15.5 -8.5t-11 -10t-11 -12.5t-9 -11.5z" />
    <glyph glyph-name="Wacute.small" unicode="&#xf6a5;" horiz-adv-x="880" 
d="M452 336h-10l-117 -341h-90l-190 530l-45 5v10h280v-10l-70 -5l131 -410h10l89 247l-51 163l-49 5v10h280v-10l-70 -5l125 -410h10l96 370l-101 45v10h200v-10l-86 -45l-129 -490h-100zM510 780h129l-174 -180h-10z" />
    <glyph glyph-name="Wcircumflex.small" unicode="&#xf6a6;" horiz-adv-x="880" 
d="M452 336h-10l-117 -341h-90l-190 530l-45 5v10h280v-10l-70 -5l131 -410h10l89 247l-51 163l-49 5v10h280v-10l-70 -5l125 -410h10l96 370l-101 45v10h200v-10l-86 -45l-129 -490h-100zM458 675l-125 -75h-10l130 180h10l130 -180h-10z" />
    <glyph glyph-name="Wdieresis.small" unicode="&#xf6a7;" horiz-adv-x="880" 
d="M452 336h-10l-117 -341h-90l-190 530l-45 5v10h280v-10l-70 -5l131 -410h10l89 247l-51 163l-49 5v10h280v-10l-70 -5l125 -410h10l96 370l-101 45v10h200v-10l-86 -45l-129 -490h-100zM295 665q0 28 18.5 46.5t45.5 18.5q28 0 46.5 -18.5t18.5 -46.5t-18.5 -45.5
t-46.5 -17.5q-27 0 -45.5 17.5t-18.5 45.5zM490 665q0 28 18.5 46.5t46.5 18.5q27 0 45.5 -18.5t18.5 -46.5t-18.5 -45.5t-45.5 -17.5q-28 0 -46.5 17.5t-18.5 45.5z" />
    <glyph glyph-name="Wgrave.small" unicode="&#xf6a8;" horiz-adv-x="880" 
d="M452 336h-10l-117 -341h-90l-190 530l-45 5v10h280v-10l-70 -5l131 -410h10l89 247l-51 163l-49 5v10h280v-10l-70 -5l125 -410h10l96 370l-101 45v10h200v-10l-86 -45l-129 -490h-100zM448 600l-164 180h129l45 -180h-10z" />
    <glyph glyph-name="Ycircumflex.small" unicode="&#xf6a9;" horiz-adv-x="570" 
d="M215 170l-185 355l-30 5v10h260v-10l-60 -5l155 -305h10l95 265l-100 45v10h210v-10l-95 -45l-100 -275v-195l60 -5v-10h-280v10l60 5v155zM301 675l-125 -75h-10l130 180h10l130 -180h-10z" />
    <glyph glyph-name="Ygrave.small" unicode="&#xf6aa;" horiz-adv-x="570" 
d="M215 170l-185 355l-30 5v10h260v-10l-60 -5l155 -305h10l95 265l-100 45v10h210v-10l-95 -45l-100 -275v-195l60 -5v-10h-280v10l60 5v155zM289 600l-164 180h129l45 -180h-10z" />
    <glyph glyph-name="Zacute.small" unicode="&#xf6ab;" horiz-adv-x="540" 
d="M495 530l-280 -510v-10l165 5l120 135h10l-15 -150h-465v10l285 510v10l-145 -5l-110 -135h-10l5 150h440v-10zM295 780h129l-174 -180h-10z" />
    <glyph glyph-name="Zdotaccent.small" unicode="&#xf6ac;" horiz-adv-x="540" 
d="M495 530l-280 -510v-10l165 5l120 135h10l-15 -150h-465v10l285 510v10l-145 -5l-110 -135h-10l5 150h440v-10zM203 677q0 29 20 49t49 20t49 -20t20 -49t-20 -49t-49 -20t-49 20t-20 49z" />
    <glyph glyph-name="Idotaccent.small" unicode="&#xf6ad;" horiz-adv-x="340" 
d="M90 15v510l-60 5v10h280v-10l-60 -5v-510l60 -5v-10h-280v10zM102 677q0 29 20 49t49 20t49 -20t20 -49t-20 -49t-49 -20t-49 20t-20 49z" />
    <glyph glyph-name="commaaccent" unicode="&#xf6c3;" horiz-adv-x="335" 
d="M90 -170v120q78 11 116.5 -19t38.5 -87q0 -70 -44 -124.5t-97 -73.5l-4 10q40 14 64.5 43.5t27 58t-24 50.5t-77.5 22z" />
    <glyph glyph-name="Acute" unicode="&#xf6c9;" horiz-adv-x="369" 
d="M150 930h129l-174 -180h-10z" />
    <glyph glyph-name="Caron" unicode="&#xf6ca;" horiz-adv-x="470" 
d="M100 930h10l125 -75l125 75h10l-130 -180h-10z" />
    <glyph glyph-name="Dieresis" unicode="&#xf6cb;" horiz-adv-x="500" 
d="M88 815q0 28 18.5 46.5t45.5 18.5q28 0 46.5 -18.5t18.5 -46.5t-18.5 -45.5t-46.5 -17.5q-27 0 -45.5 17.5t-18.5 45.5zM283 815q0 28 18.5 46.5t46.5 18.5q27 0 45.5 -18.5t18.5 -46.5t-18.5 -45.5t-45.5 -17.5q-28 0 -46.5 17.5t-18.5 45.5z" />
    <glyph glyph-name="Grave" unicode="&#xf6ce;" horiz-adv-x="369" 
d="M254 750l-164 180h129l45 -180h-10z" />
    <glyph glyph-name="Hungarumlaut" unicode="&#xf6cf;" horiz-adv-x="480" 
d="M310 950h119l-169 -200h-10zM150 950h119l-169 -200h-10z" />
    <glyph glyph-name="Macron" unicode="&#xf6d0;" horiz-adv-x="510" 
d="M100 815h310v-15h-310v15z" />
    <glyph glyph-name="cyrBreve" unicode="&#xf6d1;" horiz-adv-x="450" 
d="M225 770q-63 0 -99 45.5t-36 105.5h8q8 -39 37.5 -56t89.5 -17t89.5 17t37.5 56h8q0 -60 -36 -105.5t-99 -45.5z" />
    <glyph glyph-name="cyrFlex" unicode="&#xf6d2;" horiz-adv-x="470" 
d="M235 825l-125 -75h-10l130 180h10l130 -180h-10z" />
    <glyph glyph-name="dblGrave" unicode="&#xf6d3;" horiz-adv-x="480" 
d="M240 750l-169 200h119l60 -200h-10zM400 750l-169 200h119l60 -200h-10z" />
    <glyph glyph-name="cyrbreve" unicode="&#xf6d4;" horiz-adv-x="450" 
d="M225 570q-63 0 -99 45.5t-36 105.5h8q8 -39 37.5 -56t89.5 -17t89.5 17t37.5 56h8q0 -60 -36 -105.5t-99 -45.5z" />
    <glyph glyph-name="cyrflex" unicode="&#xf6d5;" horiz-adv-x="470" 
d="M235 625l-125 -75h-10l130 180h10l130 -180h-10z" />
    <glyph glyph-name="dblgrave" unicode="&#xf6d6;" horiz-adv-x="480" 
d="M400 550l-169 200h119l60 -200h-10zM240 550l-169 200h119l60 -200h-10z" />
    <glyph glyph-name="dieresisacute" unicode="&#xf6d7;" horiz-adv-x="580" 
d="M88 615q0 28 18.5 46.5t45.5 18.5q28 0 46.5 -18.5t18.5 -46.5t-18.5 -45.5t-46.5 -17.5q-27 0 -45.5 17.5t-18.5 45.5zM363 615q0 28 18.5 46.5t46.5 18.5q27 0 45.5 -18.5t18.5 -46.5t-18.5 -45.5t-45.5 -17.5q-28 0 -46.5 17.5t-18.5 45.5zM310 800h129l-169 -200h-10
z" />
    <glyph glyph-name="rupiah" unicode="&#xf6dd;" horiz-adv-x="1280" 
d="M900 30h-10v-235l60 -5v-10h-280v10l60 5v205h-280l-175 320h-25v-305l60 -5v-10h-280v10l60 5v670l-60 5v10h320q110 0 170 -52.5t60 -137.5q0 -30 -11 -58.5t-35 -55t-68.5 -43t-105.5 -18.5v-10q36 -2 69 -22t48 -37.5t25 -33.5l128 -217l100 -4v479h-50v10l200 10h10
v-50h10q50 50 130 50q96 0 153 -73t57 -187q0 -113 -61.5 -186.5t-158.5 -73.5q-69 0 -120 40zM890 440v-390q33 -25 70 -25q26 0 43 7.5t34 29.5t25 69t8 119q0 69 -8.5 115t-24.5 69t-34 32t-43 9q-35 0 -70 -35zM250 330h40q71 0 98 41.5t27 128.5q0 190 -105 190h-60
v-360z" />
    <glyph glyph-name="asuperior" unicode="&#xf6e9;" horiz-adv-x="334" 
d="M182 432v120l-25 -9q-41 -15 -41 -60q0 -57 42 -57q12 0 24 6zM182 390v33h-6q-42 -33 -84 -33q-33 0 -52.5 19t-19.5 47q0 46 78 75l84 27v78q0 30 -13 42t-41 12q-14 0 -33 -8t-30 -19v-6q30 3 42.5 -16t1.5 -39t-38 -20q-17 0 -28 11t-11 28q0 33 41 57t91 24
q48 0 81 -20.5t33 -69.5v-210h36v-6l-126 -6h-6z" />
    <glyph glyph-name="bsuperior" unicode="&#xf6ea;" horiz-adv-x="376" 
d="M146 660v-234q20 -15 42 -15q32 0 49 26.5t17 108.5q0 79 -17.5 107t-48.5 28q-21 0 -42 -21zM50 390v432h-30v6q30 1 90 5l30 1h6v-162h6q30 30 78 30q58 0 92 -43.5t34 -112.5q0 -68 -37 -112t-95 -44q-41 0 -72 24h-6l-90 -24h-6z" />
    <glyph glyph-name="dsuperior" unicode="&#xf6eb;" horiz-adv-x="382" 
d="M326 402h36v-6l-126 -6h-6v30h-6q-30 -30 -78 -30q-58 0 -92 43.5t-34 112.5q0 68 37 112t95 44q41 0 72 -24h6v144h-30v6l120 6h6v-432zM230 432v234q-20 15 -42 15q-32 0 -49 -26.5t-17 -108.5q0 -79 17.5 -107t48.5 -28q21 0 42 21z" />
    <glyph glyph-name="esuperior" unicode="&#xf6ec;" horiz-adv-x="322" 
d="M296 570h-181q3 -59 31 -88t66 -29q29 0 51.5 13.5t32.5 31.5h6q-10 -45 -43 -76.5t-86 -31.5q-71 0 -112 44.5t-41 108.5q0 76 48.5 117.5t110.5 41.5q24 0 45 -6t41 -19.5t28.5 -41t2.5 -65.5zM176 696q-56 0 -60 -120l93 3q11 44 6 70t-15 36.5t-24 10.5z" />
    <glyph glyph-name="isuperior" unicode="&#xf6ed;" horiz-adv-x="208" 
d="M50 792q0 22 16 38t38 16t38 -16t16 -38t-16 -38t-38 -16t-38 16t-16 38zM152 702v-297l36 -3v-6h-168v6l36 3v285h-30v6l120 6h6z" />
    <glyph glyph-name="lsuperior" unicode="&#xf6ee;" horiz-adv-x="208" 
d="M152 834v-429l36 -3v-6h-168v6l36 3v417h-30v6l120 6h6z" />
    <glyph glyph-name="msuperior" unicode="&#xf6ef;" horiz-adv-x="580" 
d="M257 702q27 0 48.5 -15t28.5 -45h5q41 60 104 60q34 0 57.5 -22t23.5 -68v-207l36 -3v-6h-156v6l24 3v219q0 48 -36 48q-25 0 -54 -42v-225l36 -3v-6h-156v6l24 3v219q0 48 -36 48q-20 0 -54 -39v-228l36 -3v-6h-168v6l36 3v285h-30v6l120 6h6v-54h6q40 54 99 54z" />
    <glyph glyph-name="osuperior" unicode="&#xf6f0;" horiz-adv-x="352" 
d="M176 696q-31 0 -42.5 -38.5t-11.5 -111.5q0 -74 11 -112t43 -38t43 38t11 112q0 73 -11.5 111.5t-42.5 38.5zM176 390q-65 0 -110.5 41.5t-45.5 114.5t45.5 114.5t110.5 41.5t110.5 -41.5t45.5 -114.5t-45.5 -114.5t-110.5 -41.5z" />
    <glyph glyph-name="rsuperior" unicode="&#xf6f1;" horiz-adv-x="310" 
d="M152 618h6q32 84 87 84q18 0 31.5 -11.5t13.5 -30.5q0 -17 -9 -29t-21.5 -14.5t-26 0.5t-23 15.5t-10.5 30.5h-6q-20 -16 -42 -81v-177l36 -3v-6h-168v6l36 3v285h-30v6l120 6h6v-84z" />
    <glyph glyph-name="ssuperior" unicode="&#xf6f2;" horiz-adv-x="268" 
d="M128 390q-49 0 -95 25l-4 -25h-6v96h6q21 -45 41 -68q19 -21 43 -21q23 0 35.5 15t12.5 35q0 39 -60 66q-44 20 -62.5 42t-18.5 57q0 39 29 64.5t85 25.5q43 0 89 -25l4 25h6v-96h-6q-23 47 -41 68q-21 21 -43 21q-16 0 -29 -12t-13 -29q0 -37 45 -57q58 -27 80 -49.5
t22 -61.5q0 -42 -34 -69t-86 -27z" />
    <glyph glyph-name="tsuperior" unicode="&#xf6f3;" horiz-adv-x="244" 
d="M152 687v-213q0 -39 8.5 -52.5t27.5 -13.5q14 0 36 9v-6q-42 -21 -96 -21q-72 0 -72 72v225h-36v6l36 3l90 72h6v-72h72v-9h-72z" />
    <glyph glyph-name="Brevesmall" unicode="&#xf6f4;" horiz-adv-x="450" 
d="M225 620q-63 0 -99 45.5t-36 105.5h8q8 -39 37.5 -56t89.5 -17t89.5 17t37.5 56h8q0 -60 -36 -105.5t-99 -45.5z" />
    <glyph glyph-name="Caronsmall" unicode="&#xf6f5;" horiz-adv-x="470" 
d="M100 780h10l125 -75l125 75h10l-130 -180h-10z" />
    <glyph glyph-name="Circumflexsmall" unicode="&#xf6f6;" horiz-adv-x="470" 
d="M235 675l-125 -75h-10l130 180h10l130 -180h-10z" />
    <glyph glyph-name="Dotaccentsmall" unicode="&#xf6f7;" horiz-adv-x="314" 
d="M88 677q0 29 20 49t49 20t49 -20t20 -49t-20 -49t-49 -20t-49 20t-20 49z" />
    <glyph glyph-name="Hungarumlautsmall" unicode="&#xf6f8;" horiz-adv-x="480" 
d="M310 800h119l-169 -200h-10zM150 800h119l-169 -200h-10z" />
    <glyph glyph-name="Lslashsmall" unicode="&#xf6f9;" horiz-adv-x="540" 
d="M250 10l155 5l115 135h10l-10 -150h-490v10l60 5v212l-40 -16v15l40 16v283l-60 5v10h280v-10l-60 -5v-218l70 29v-15l-70 -29v-282z" />
    <glyph glyph-name="OEsmall" unicode="&#xf6fa;" horiz-adv-x="880" 
d="M830 540l5 -150h-10l-110 135l-145 5v-253l100 5l55 98h10v-215h-10l-55 97l-100 5v-257l155 5l115 135h10l-10 -150h-430q-33 -10 -80 -10q-77 0 -143.5 29.5t-111.5 94.5t-45 156t45 156t111.5 94.5t143.5 29.5q47 0 80 -10h420zM200 270q0 -142 31.5 -206t98.5 -64
q48 0 60.5 56t12.5 214t-12.5 214t-60.5 56q-67 0 -98.5 -64t-31.5 -206z" />
    <glyph glyph-name="Ogoneksmall" unicode="&#xf6fb;" horiz-adv-x="360" 
d="M270 -180v-10q-13 -17 -40 -28.5t-50 -11.5q-36 0 -59.5 16.5t-29.5 42.5t1 56.5t32.5 61.5t65.5 53h10q-42 -39 -54 -89.5t20 -80t104 -10.5z" />
    <glyph glyph-name="Ringsmall" unicode="&#xf6fc;" horiz-adv-x="375" 
d="M100 687q0 38 23.5 63t63.5 25t64 -25t24 -63t-24 -62.5t-64 -24.5q-38 0 -62.5 25t-24.5 62zM124 687q0 -34 16 -55.5t47 -21.5q32 0 47.5 21.5t15.5 55.5q0 35 -15.5 56.5t-47.5 21.5q-31 0 -47 -22t-16 -56z" />
    <glyph glyph-name="Scaronsmall" unicode="&#xf6fd;" horiz-adv-x="480" 
d="M105 810h10l125 -75l125 75h10l-130 -180h-10zM230 -10q-36 0 -80 15.5t-80 44.5l-10 -55h-10l-5 180h10l50 -88q18 -34 51 -60.5t74 -26.5q38 0 61.5 25t23.5 65q0 44 -32 70t-96 53q-82 34 -119.5 76t-37.5 111q0 71 56.5 110.5t148.5 39.5q86 0 155 -50l5 45h10
l5 -180h-10l-45 85q-48 90 -115 90q-30 0 -52.5 -19t-22.5 -57q0 -12 2 -23t8.5 -20.5t10.5 -16.5t16 -15t16.5 -11.5t20.5 -11t19.5 -9t22 -8.5t19.5 -8q150 -59 150 -180q0 -78 -64 -124.5t-156 -46.5z" />
    <glyph glyph-name="Tildesmall" unicode="&#xf6fe;" horiz-adv-x="550" 
d="M85 625l-5 5q22 45 56 87.5t64 42.5q31 0 96.5 -30t103.5 -30q10 0 18 1.5t15.5 6t10 6.5t11 11t10.5 10l5 -5q-22 -44 -53.5 -82t-61.5 -38q-33 0 -102 30t-103 30q-10 0 -18.5 -2.5t-15.5 -8.5t-11 -10t-11 -12.5t-9 -11.5z" />
    <glyph glyph-name="Zcaronsmall" unicode="&#xf6ff;" horiz-adv-x="540" 
d="M135 810h10l125 -75l125 75h10l-130 -180h-10zM495 530l-280 -510v-10l165 5l120 135h10l-15 -150h-465v10l285 510v10l-145 -5l-110 -135h-10l5 150h440v-10z" />
    <glyph glyph-name="exclamsmall" unicode="&#xf721;" horiz-adv-x="320" 
d="M87 63q0 30 21.5 51.5t51.5 21.5t51.5 -21.5t21.5 -51.5t-21.5 -51.5t-51.5 -21.5t-51.5 21.5t-21.5 51.5zM166 200h-10l-70 340h146z" />
    <glyph glyph-name="dollaroldstyle" unicode="&#xf724;" horiz-adv-x="505" 
d="M245 -100v90h-12q-83 0 -138 40t-55 94q0 35 21.5 50.5t43.5 15.5q30 0 50 -19t20 -43q0 -31 -22.5 -52t-70.5 -11v-10q50 -50 119 -50q25 0 44 5v183q-26 11 -30 13q-170 64 -170 192q0 63 49.5 105.5t150.5 46.5v100h10v-100h6q82 0 133 -39.5t51 -94.5
q0 -35 -22 -50.5t-44 -15.5q-30 0 -50 19t-20 43q0 31 22.5 52t70.5 11v10q-50 50 -119 50q-15 0 -28 -3v-168q15 -7 27 -11q38 -14 65 -28t56.5 -37.5t45 -57.5t15.5 -77q0 -62 -55.5 -109.5t-153.5 -52.5v-91h-10zM315 104q0 30 -14 49t-46 35v-175q60 21 60 91zM195 451
q0 -53 50 -81v159q-50 -16 -50 -78z" />
    <glyph glyph-name="ampersandsmall" unicode="&#xf726;" horiz-adv-x="796" 
d="M497 379q-93 0 -128 -69v-10q70 43 109 4q26 -28 16 -66q-15 -40 -59 -42q-31 0 -55 22t-24 64q0 61 55.5 90t143.5 29q87 0 148 25t80 69v10q-62 -45 -100 -12q-27 23 -18 60q14 39 59 42q29 0 50.5 -23.5t21.5 -65.5q0 -46 -69 -81.5t-164 -35.5v-10q76 -33 88 -127
t-69.5 -178t-241.5 -84q-73 0 -132 18t-93.5 48.5t-55.5 68t-19 78.5t18 78t52.5 68.5t87.5 48.5q-60 24 -91.5 64.5t-27.5 82t31 79.5t85 62t133 24q57 0 98.5 -14.5t61.5 -36.5t29 -43t9 -40q0 -28 -19 -47t-49 -19q-48 0 -64 41q-15 38 11 67q28 30 81 17v10
q-55 55 -145 55q-97 0 -136.5 -77.5t1.5 -221.5q65 47 97 20q19 -17 8 -41q-9 -21 -36 -21q-25 0 -71 35q-17 -44 -24 -94.5t0 -103t28 -95t65.5 -69.5t107.5 -27q137 0 210 96q57 74 45 158q-11 81 -79 109q-27 11 -60 11z" />
    <glyph glyph-name="zerooldstyle" unicode="&#xf730;" horiz-adv-x="640" 
d="M40 250q0 118 75 189t205 71t205 -71t75 -189t-75 -189t-205 -71t-205 71t-75 189zM149 250q0 -104 45.5 -177t125.5 -73t125.5 73t45.5 177t-45.5 177t-125.5 73t-125.5 -73t-45.5 -177z" />
    <glyph glyph-name="oneoldstyle" unicode="&#xf731;" horiz-adv-x="430" 
d="M40 10l100 5v455l-100 -15v10l250 45h10v-495l100 -5v-10h-360v10z" />
    <glyph glyph-name="twooldstyle" unicode="&#xf732;" horiz-adv-x="510" 
d="M205 120v-10l285 10v-120h-460v10q92 57 150.5 102t88.5 83t40.5 68t10.5 67q0 47 -30 81t-80 34q-57 0 -91 -32.5t-59 -82.5h-10q18 72 77 126t158 54q86 0 138 -41t52 -108q0 -21 -5 -41t-11.5 -35.5t-22 -31.5t-26 -26.5t-34 -24.5t-36.5 -21.5t-43 -21t-44 -19.5
t-48 -20z" />
    <glyph glyph-name="threeoldstyle" unicode="&#xf733;" horiz-adv-x="535" 
d="M215 -200q58 0 90.5 47t32.5 141q0 72 -35.5 126t-92.5 54h-19v12h19q112 0 112 146q0 53 -30.5 91t-81.5 38q-35 0 -61.5 -12.5t-44 -37.5t-25.5 -41.5t-19 -45.5h-10q18 75 73.5 133.5t141.5 58.5q93 0 148.5 -43t55.5 -115q0 -67 -54 -115t-163 -61v-5q115 -4 179 -49
t64 -127q0 -98 -77 -151.5t-193 -53.5q-95 0 -145 43.5t-50 101.5q0 29 19.5 47t48.5 18q46 0 62 -40q17 -39 -12 -69q-24 -27 -72 -26v-10q15 -19 51 -37t88 -18z" />
    <glyph glyph-name="fouroldstyle" unicode="&#xf734;" horiz-adv-x="570" 
d="M470 12h70v-12h-70v-200h-160v200h-280v16l328 474l112 20v-498zM300 385l-250 -363v-10h260v373h-10z" />
    <glyph glyph-name="fiveoldstyle" unicode="&#xf735;" horiz-adv-x="535" 
d="M225 -210q-94 0 -144.5 44t-50.5 101q0 27 19 46t51 19q43 0 60 -39q16 -39 -10 -69q-25 -28 -78 -22v-10q56 -60 143 -60q65 0 95 58.5t30 141.5q0 81 -53.5 142.5t-161.5 61.5h-20l10 296h355v-130h-348l-6 -157q89 26 153.5 19.5t108 -28t69.5 -58.5t37 -71.5
t11 -67.5q0 -96 -72.5 -156.5t-197.5 -60.5z" />
    <glyph glyph-name="sevenoldstyle" unicode="&#xf737;" horiz-adv-x="490" 
d="M420 380v10l-360 -10l-20 -60h-10l5 180h435v-10l-212 -690h-160z" />
    <glyph glyph-name="nineoldstyle" unicode="&#xf739;" horiz-adv-x="565" 
d="M210 290q0 -95 15.5 -150.5t59.5 -55.5q34 0 70 39q8 87 7.5 170.5t-22.5 145t-60 61.5q-41 0 -55.5 -53.5t-14.5 -156.5zM354 95l-8 3q-14 -13 -44 -25.5t-67 -12.5q-93 0 -144 63.5t-51 155.5q0 101 73 166t168 65q110 0 177 -80.5t67 -196.5q0 -166 -105.5 -288.5
t-267.5 -154.5l-2 10q79 21 140 109.5t64 185.5z" />
    <glyph glyph-name="questionsmall" unicode="&#xf73f;" horiz-adv-x="516" 
d="M157 63q0 30 21.5 51.5t51.5 21.5t51.5 -21.5t21.5 -51.5t-21.5 -51.5t-51.5 -21.5t-51.5 21.5t-21.5 51.5zM473 420q0 -57 -58.5 -95.5t-180.5 -39.5l-5 -85h-10l-5 92q54 19 79.5 49.5t25.5 78.5q0 41 -28.5 73t-92.5 32q-70 0 -110 -50v-10q63 11 84 -32
q17 -35 -8 -67q-19 -26 -56 -26q-27 0 -46 19t-19 46q0 65 64.5 105t160.5 40q107 0 156 -36t49 -94z" />
    <glyph glyph-name="Gravesmall" unicode="&#xf760;" horiz-adv-x="369" 
d="M254 600l-164 180h129l45 -180h-10z" />
    <glyph glyph-name="Asmall" unicode="&#xf761;" 
d="M120 55l120 -45v-10h-240v10l106 45l162 470l65 25l216 -535l51 -5v-10h-290v10l65 5l-62 165h-151zM239 380h-10l-64 -190h145z" />
    <glyph glyph-name="Bsmall" unicode="&#xf762;" horiz-adv-x="570" 
d="M310 288v-2q109 3 174.5 -34t65.5 -102q0 -75 -59 -112.5t-191 -37.5h-270v10l60 5v510l-60 5v10h250q129 0 184.5 -33t55.5 -97q0 -119 -210 -122zM260 280h-10v-270h20q115 0 115 140q0 65 -27 97.5t-98 32.5zM250 290h10q58 0 76.5 26t18.5 94q0 120 -85 120h-20v-240
z" />
    <glyph glyph-name="Csmall" unicode="&#xf763;" horiz-adv-x="580" 
d="M330 540q-68 0 -99 -64t-31 -206t31 -206t99 -64q48 0 86.5 26t60.5 61l63 98h10l-5 -135q-96 -60 -215 -60q-55 0 -106.5 16t-95.5 48.5t-71 88t-27 127.5t27 127.5t71 88t95.5 48.5t106.5 16q114 0 210 -60l5 -135h-9l-64 97q-58 88 -142 88z" />
    <glyph glyph-name="Dsmall" unicode="&#xf764;" horiz-adv-x="660" 
d="M250 10h50q44 0 76.5 23.5t50 63t25.5 82.5t8 91q0 260 -170 260h-40v-520zM300 0h-270v10l60 5v510l-60 5v10h270q160 0 245 -70.5t85 -199.5q0 -121 -86.5 -195.5t-243.5 -74.5z" />
    <glyph glyph-name="Esmall" unicode="&#xf765;" horiz-adv-x="560" 
d="M250 530v-253l100 5l55 98h10v-215h-10l-55 97l-100 5v-257l155 5l115 135h10l-10 -150h-490v10l60 5v510l-60 5v10h480l5 -150h-10l-110 135z" />
    <glyph glyph-name="Fsmall" unicode="&#xf766;" horiz-adv-x="535" 
d="M250 529v-273l120 5l35 99h10v-215h-10l-35 99l-120 2v-231l60 -5v-10h-280v10l60 5v510l-60 5v10h480l5 -150h-10l-110 135z" />
    <glyph glyph-name="Gsmall" unicode="&#xf767;" horiz-adv-x="640" 
d="M330 0q42 0 80 24v226l-50 5v10h260v-10l-50 -5v-180q-128 -80 -240 -80q-55 0 -106.5 16t-95.5 48.5t-71 88t-27 127.5t27 127.5t71 88t95.5 48.5t106.5 16q114 0 210 -60l5 -135h-10l-63 97q-16 25 -30.5 41.5t-44.5 31.5t-67 15q-68 0 -99 -64t-31 -206t31 -206
t99 -64z" />
    <glyph glyph-name="Hsmall" unicode="&#xf768;" horiz-adv-x="720" 
d="M470 15v257h-220v-257l60 -5v-10h-280v10l60 5v510l-60 5v10h280v-10l-60 -5v-243h220v243l-60 5v10h280v-10l-60 -5v-510l60 -5v-10h-280v10z" />
    <glyph glyph-name="Ismall" unicode="&#xf769;" horiz-adv-x="340" 
d="M90 15v510l-60 5v10h280v-10l-60 -5v-510l60 -5v-10h-280v10z" />
    <glyph glyph-name="Jsmall" unicode="&#xf76a;" horiz-adv-x="430" 
d="M190 170v355l-60 5v10h280v-10l-60 -5v-315q0 -83 -70.5 -151.5t-159.5 -68.5q-47 0 -73.5 19.5t-26.5 50.5q0 43 40 57q38 14 66 -11q36 -32 9 -101h10q26 0 35.5 41t9.5 124z" />
    <glyph glyph-name="Ksmall" unicode="&#xf76b;" horiz-adv-x="665" 
d="M290 280l173 205l-108 45v10h270v-10l-147 -45l-93 -110l233 -360l37 -5v-10h-300v10l52 5l-147 255h-10v-255l60 -5v-10h-280v10l60 5v510l-60 5v10h280v-10l-60 -5v-245h40z" />
    <glyph glyph-name="Lsmall" unicode="&#xf76c;" horiz-adv-x="540" 
d="M250 10l155 5l115 135h10l-10 -150h-490v10l60 5v510l-60 5v10h280v-10l-60 -5v-515z" />
    <glyph glyph-name="Msmall" unicode="&#xf76d;" horiz-adv-x="800" 
d="M445 200h10l120 340h195v-10l-60 -5v-510l60 -5v-10h-280v10l60 5v385h-10l-145 -410h-20l-215 420h-10l5 -355l115 -45v-10h-240v10l110 45v470l-110 5v10h245z" />
    <glyph glyph-name="Nsmall" unicode="&#xf76e;" horiz-adv-x="670" 
d="M530 235h10l-5 250l-125 45v10h240v-10l-100 -45v-495h-20l-380 425h-10l5 -360l125 -45v-10h-240v10l100 45v470l-100 5v10h225z" />
    <glyph glyph-name="Osmall" unicode="&#xf76f;" horiz-adv-x="660" 
d="M30 270q0 91 45 156t111.5 94.5t143.5 29.5t143.5 -29.5t111.5 -94.5t45 -156t-45 -156t-111.5 -94.5t-143.5 -29.5t-143.5 29.5t-111.5 94.5t-45 156zM200 270q0 -270 130 -270t130 270t-130 270t-130 -270z" />
    <glyph glyph-name="Psmall" unicode="&#xf770;" horiz-adv-x="570" 
d="M250 200h10q63 0 94 51t31 124q0 68 -24.5 111.5t-80.5 43.5h-30v-330zM260 190h-10v-175l60 -5v-10h-280v10l60 5v510l-60 5v10h270q116 0 183 -42t67 -123q0 -82 -71 -133.5t-219 -51.5z" />
    <glyph glyph-name="Qsmall" unicode="&#xf771;" horiz-adv-x="660" 
d="M200 270q0 -270 130 -270t130 270t-130 270t-130 -270zM630 270q0 -133 -103 -217t-277 -59v-9l470 -125v-10l-160 -80l-380 252q-62 38 -106 107t-44 141q0 91 45 156t111.5 94.5t143.5 29.5t143.5 -29.5t111.5 -94.5t45 -156z" />
    <glyph glyph-name="Rsmall" unicode="&#xf772;" horiz-adv-x="630" 
d="M275 230h-25v-215l60 -5v-10h-280v10l60 5v510l-60 5v10h290q230 0 230 -150q0 -63 -58 -105t-154 -50v-10q40 0 75 -17.5t50.5 -33.5t25.5 -32l81 -127l50 -5v-10h-210zM250 240h50q39 0 62 36.5t23 113.5q0 70 -28.5 105t-76.5 35h-30v-290z" />
    <glyph glyph-name="Ssmall" unicode="&#xf773;" horiz-adv-x="480" 
d="M230 -10q-36 0 -80 15.5t-80 44.5l-10 -55h-10l-5 180h10l50 -88q18 -34 51 -60.5t74 -26.5q38 0 61.5 25t23.5 65q0 44 -32 70t-96 53q-82 34 -119.5 76t-37.5 111q0 71 56.5 110.5t148.5 39.5q86 0 155 -50l5 45h10l5 -180h-10l-45 85q-48 90 -115 90q-30 0 -52.5 -19
t-22.5 -57q0 -12 2 -23t8.5 -20.5t10.5 -16.5t16 -15t16.5 -11.5t20.5 -11t19.5 -9t22 -8.5t19.5 -8q150 -59 150 -180q0 -78 -64 -124.5t-156 -46.5z" />
    <glyph glyph-name="Tsmall" unicode="&#xf774;" horiz-adv-x="540" 
d="M25 540h490l5 -150h-10l-110 135l-50 3v-513l60 -5v-10h-280v10l60 5v513l-40 -3l-120 -135h-10z" />
    <glyph glyph-name="Usmall" unicode="&#xf775;" horiz-adv-x="700" 
d="M555 250v235l-115 45v10h240v-10l-115 -45v-235q0 -260 -220 -260q-120 0 -192.5 65.5t-72.5 184.5v285l-60 5v10h280v-10l-60 -5v-275q0 -119 31.5 -174.5t113.5 -55.5q170 0 170 230z" />
    <glyph glyph-name="Vsmall" unicode="&#xf776;" 
d="M210 525l150 -400h10l110 360l-120 45v10h240v-10l-106 -45l-149 -490h-90l-211 530l-44 5v10h290v-10z" />
    <glyph glyph-name="Wsmall" unicode="&#xf777;" horiz-adv-x="880" 
d="M452 336h-10l-117 -341h-90l-190 530l-45 5v10h280v-10l-70 -5l131 -410h10l89 247l-51 163l-49 5v10h280v-10l-70 -5l125 -410h10l96 370l-101 45v10h200v-10l-86 -45l-129 -490h-100z" />
    <glyph glyph-name="Xsmall" unicode="&#xf778;" 
d="M231 237l-171 288l-40 5v10h260v-10l-37 -5l105 -181l107 141l-85 45v10h210v-10l-110 -45l-115 -150l192 -320l43 -5v-10h-270v10l40 5l-122 211l-103 -171l79 -45v-10h-204v10l110 45z" />
    <glyph glyph-name="Ysmall" unicode="&#xf779;" horiz-adv-x="570" 
d="M215 170l-185 355l-30 5v10h260v-10l-60 -5l155 -305h10l95 265l-100 45v10h210v-10l-95 -45l-100 -275v-195l60 -5v-10h-280v10l60 5v155z" />
    <glyph glyph-name="Zsmall" unicode="&#xf77a;" horiz-adv-x="540" 
d="M495 530l-280 -510v-10l165 5l120 135h10l-15 -150h-465v10l285 510v10l-145 -5l-110 -135h-10l5 150h440v-10z" />
    <glyph glyph-name="exclamdownsmall" unicode="&#xf7a1;" horiz-adv-x="320" 
d="M87 477q0 30 21.5 51.5t51.5 21.5t51.5 -21.5t21.5 -51.5t-21.5 -51.5t-51.5 -21.5t-51.5 21.5t-21.5 51.5zM156 340h10l66 -340h-146z" />
    <glyph glyph-name="centoldstyle" unicode="&#xf7a2;" horiz-adv-x="580" 
d="M325 -100v90q-118 3 -201.5 77t-83.5 203t83.5 203t201.5 77v100h10v-100q107 0 156 -43t49 -92q0 -30 -21 -47.5t-45 -17.5q-50 0 -65 41q-14 36 13 64q25 26 73 20v10q-45 45 -130 45q-12 0 -30 -2v-516q9 -2 30 -2q85 0 130 45v10q-62 -8 -84 35q-17 34 6 65
q20 25 57 25q24 0 45 -17.5t21 -47.5q0 -49 -49 -92t-156 -43v-90h-10zM210 270q0 -115 26.5 -178t88.5 -78v512q-62 -15 -88.5 -78t-26.5 -178z" />
    <glyph glyph-name="Dieresissmall" unicode="&#xf7a8;" horiz-adv-x="500" 
d="M88 665q0 28 18.5 46.5t45.5 18.5q28 0 46.5 -18.5t18.5 -46.5t-18.5 -45.5t-46.5 -17.5q-27 0 -45.5 17.5t-18.5 45.5zM283 665q0 28 18.5 46.5t46.5 18.5q27 0 45.5 -18.5t18.5 -46.5t-18.5 -45.5t-45.5 -17.5q-28 0 -46.5 17.5t-18.5 45.5z" />
    <glyph glyph-name="Macronsmall" unicode="&#xf7af;" horiz-adv-x="510" 
d="M100 665h310v-15h-310v15z" />
    <glyph glyph-name="Acutesmall" unicode="&#xf7b4;" horiz-adv-x="369" 
d="M150 780h129l-174 -180h-10z" />
    <glyph glyph-name="Cedillasmall" unicode="&#xf7b8;" horiz-adv-x="373" 
d="M160 -80l3 80h10v-75q48 0 79 -21.5t31 -55.5q0 -36 -31.5 -57t-86.5 -21q-36 0 -75 12l1 9q32 -8 47 -8q68 0 68 67q0 27 -12.5 46.5t-33.5 23.5z" />
    <glyph glyph-name="Agravesmall" unicode="&#xf7e0;" 
d="M120 55l120 -45v-10h-240v10l106 45l162 470l65 25l216 -535l51 -5v-10h-290v10l65 5l-62 165h-151zM239 380h-10l-64 -190h145zM287 600l-164 180h129l45 -180h-10z" />
    <glyph glyph-name="Aacutesmall" unicode="&#xf7e1;" 
d="M120 55l120 -45v-10h-240v10l106 45l162 470l65 25l216 -535l51 -5v-10h-290v10l65 5l-62 165h-151zM239 380h-10l-64 -190h145zM353 780h129l-174 -180h-10z" />
    <glyph glyph-name="Acircumflexsmall" unicode="&#xf7e2;" 
d="M120 55l120 -45v-10h-240v10l106 45l162 470l65 25l216 -535l51 -5v-10h-290v10l65 5l-62 165h-151zM239 380h-10l-64 -190h145zM302 675l-125 -75h-10l130 180h10l130 -180h-10z" />
    <glyph glyph-name="Atildesmall" unicode="&#xf7e3;" 
d="M120 55l120 -45v-10h-240v10l106 45l162 470l65 25l216 -535l51 -5v-10h-290v10l65 5l-62 165h-151zM239 380h-10l-64 -190h145zM119 625l-5 5q22 45 56 87.5t64 42.5q31 0 96.5 -30t103.5 -30q10 0 18 1.5t15.5 6t10 6.5t11 11t10.5 10l5 -5q-22 -44 -53.5 -82
t-61.5 -38q-33 0 -102 30t-103 30q-10 0 -18.5 -2.5t-15.5 -8.5t-11 -10t-11 -12.5t-9 -11.5z" />
    <glyph glyph-name="Adieresissmall" unicode="&#xf7e4;" 
d="M120 55l120 -45v-10h-240v10l106 45l162 470l65 25l216 -535l51 -5v-10h-290v10l65 5l-62 165h-151zM239 380h-10l-64 -190h145zM141 665q0 28 18.5 46.5t45.5 18.5q28 0 46.5 -18.5t18.5 -46.5t-18.5 -45.5t-46.5 -17.5q-27 0 -45.5 17.5t-18.5 45.5zM336 665
q0 28 18.5 46.5t46.5 18.5q27 0 45.5 -18.5t18.5 -46.5t-18.5 -45.5t-45.5 -17.5q-28 0 -46.5 17.5t-18.5 45.5z" />
    <glyph glyph-name="Aringsmall" unicode="&#xf7e5;" 
d="M120 55l120 -45v-10h-240v10l106 45l162 470l65 25l216 -535l51 -5v-10h-290v10l65 5l-62 165h-151zM239 380h-10l-64 -190h145zM213 687q0 38 23.5 63t63.5 25t64 -25t24 -63t-24 -62.5t-64 -24.5q-38 0 -62.5 25t-24.5 62zM237 687q0 -34 16 -55.5t47 -21.5
q32 0 47.5 21.5t15.5 55.5q0 35 -15.5 56.5t-47.5 21.5q-31 0 -47 -22t-16 -56z" />
    <glyph glyph-name="AEsmall" unicode="&#xf7e6;" horiz-adv-x="790" 
d="M360 464h-10l-101 -187h111v187zM110 55l265 470l-105 5v10h470l5 -150h-10l-110 135l-105 5v-253l95 3l30 100h10v-215h-10l-30 99l-95 3v-257l115 5l115 135h10l-10 -150h-450v10l60 5v252h-117l-117 -212l114 -45v-10h-240v10z" />
    <glyph glyph-name="Ccedillasmall" unicode="&#xf7e7;" horiz-adv-x="580" 
d="M320 -80l3 70q-55 1 -105 18t-93 49t-69 87t-26 126q0 72 27 127.5t71 88t95.5 48.5t106.5 16q114 0 210 -60l5 -135h-9l-64 97q-58 88 -142 88q-68 0 -99 -64t-31 -206t31 -206t99 -64q48 0 86.5 26t60.5 61l63 98h10l-5 -135q-94 -59 -212 -60v-65q48 0 79 -21.5
t31 -55.5q0 -36 -31.5 -57t-86.5 -21q-36 0 -75 12l1 9q32 -8 47 -8q68 0 68 67q0 27 -12.5 46.5t-33.5 23.5z" />
    <glyph glyph-name="Egravesmall" unicode="&#xf7e8;" horiz-adv-x="560" 
d="M250 530v-253l100 5l55 98h10v-215h-10l-55 97l-100 5v-257l155 5l115 135h10l-10 -150h-490v10l60 5v510l-60 5v10h480l5 -150h-10l-110 135zM300 600l-164 180h129l45 -180h-10z" />
    <glyph glyph-name="Eacutesmall" unicode="&#xf7e9;" horiz-adv-x="560" 
d="M250 530v-253l100 5l55 98h10v-215h-10l-55 97l-100 5v-257l155 5l115 135h10l-10 -150h-490v10l60 5v510l-60 5v10h480l5 -150h-10l-110 135zM350 780h129l-174 -180h-10z" />
    <glyph glyph-name="Ecircumflexsmall" unicode="&#xf7ea;" horiz-adv-x="560" 
d="M250 530v-253l100 5l55 98h10v-215h-10l-55 97l-100 5v-257l155 5l115 135h10l-10 -150h-490v10l60 5v510l-60 5v10h480l5 -150h-10l-110 135zM288 675l-125 -75h-10l130 180h10l130 -180h-10z" />
    <glyph glyph-name="Edieresissmall" unicode="&#xf7eb;" horiz-adv-x="560" 
d="M250 530v-253l100 5l55 98h10v-215h-10l-55 97l-100 5v-257l155 5l115 135h10l-10 -150h-490v10l60 5v510l-60 5v10h480l5 -150h-10l-110 135zM140 665q0 28 18.5 46.5t45.5 18.5q28 0 46.5 -18.5t18.5 -46.5t-18.5 -45.5t-46.5 -17.5q-27 0 -45.5 17.5t-18.5 45.5z
M335 665q0 28 18.5 46.5t46.5 18.5q27 0 45.5 -18.5t18.5 -46.5t-18.5 -45.5t-45.5 -17.5q-28 0 -46.5 17.5t-18.5 45.5z" />
    <glyph glyph-name="Igravesmall" unicode="&#xf7ec;" horiz-adv-x="340" 
d="M90 15v510l-60 5v10h280v-10l-60 -5v-510l60 -5v-10h-280v10zM159 600l-164 180h129l45 -180h-10z" />
    <glyph glyph-name="Iacutesmall" unicode="&#xf7ed;" horiz-adv-x="340" 
d="M90 15v510l-60 5v10h280v-10l-60 -5v-510l60 -5v-10h-280v10zM216 780h129l-174 -180h-10z" />
    <glyph glyph-name="Icircumflexsmall" unicode="&#xf7ee;" horiz-adv-x="340" 
d="M90 15v510l-60 5v10h280v-10l-60 -5v-510l60 -5v-10h-280v10zM170 675l-125 -75h-10l130 180h10l130 -180h-10z" />
    <glyph glyph-name="Idieresissmall" unicode="&#xf7ef;" horiz-adv-x="340" 
d="M90 15v510l-60 5v10h280v-10l-60 -5v-510l60 -5v-10h-280v10zM8 665q0 28 18.5 46.5t45.5 18.5q28 0 46.5 -18.5t18.5 -46.5t-18.5 -45.5t-46.5 -17.5q-27 0 -45.5 17.5t-18.5 45.5zM203 665q0 28 18.5 46.5t46.5 18.5q27 0 45.5 -18.5t18.5 -46.5t-18.5 -45.5
t-45.5 -17.5q-28 0 -46.5 17.5t-18.5 45.5z" />
    <glyph glyph-name="Ntildesmall" unicode="&#xf7f1;" horiz-adv-x="670" 
d="M530 235h10l-5 250l-125 45v10h240v-10l-100 -45v-495h-20l-380 425h-10l5 -360l125 -45v-10h-240v10l100 45v470l-100 5v10h225zM165 625l-5 5q22 45 56 87.5t64 42.5q31 0 96.5 -30t103.5 -30q10 0 18 1.5t15.5 6t10 6.5t11 11t10.5 10l5 -5q-22 -44 -53.5 -82
t-61.5 -38q-33 0 -102 30t-103 30q-10 0 -18.5 -2.5t-15.5 -8.5t-11 -10t-11 -12.5t-9 -11.5z" />
    <glyph glyph-name="Ogravesmall" unicode="&#xf7f2;" horiz-adv-x="660" 
d="M30 270q0 91 45 156t111.5 94.5t143.5 29.5t143.5 -29.5t111.5 -94.5t45 -156t-45 -156t-111.5 -94.5t-143.5 -29.5t-143.5 29.5t-111.5 94.5t-45 156zM200 270q0 -270 130 -270t130 270t-130 270t-130 -270zM327 600l-164 180h129l45 -180h-10z" />
    <glyph glyph-name="Oacutesmall" unicode="&#xf7f3;" horiz-adv-x="660" 
d="M30 270q0 91 45 156t111.5 94.5t143.5 29.5t143.5 -29.5t111.5 -94.5t45 -156t-45 -156t-111.5 -94.5t-143.5 -29.5t-143.5 29.5t-111.5 94.5t-45 156zM200 270q0 -270 130 -270t130 270t-130 270t-130 -270zM364 780h129l-174 -180h-10z" />
    <glyph glyph-name="Ocircumflexsmall" unicode="&#xf7f4;" horiz-adv-x="660" 
d="M30 270q0 91 45 156t111.5 94.5t143.5 29.5t143.5 -29.5t111.5 -94.5t45 -156t-45 -156t-111.5 -94.5t-143.5 -29.5t-143.5 29.5t-111.5 94.5t-45 156zM200 270q0 -270 130 -270t130 270t-130 270t-130 -270zM333 675l-125 -75h-10l130 180h10l130 -180h-10z" />
    <glyph glyph-name="Otildesmall" unicode="&#xf7f5;" horiz-adv-x="660" 
d="M30 270q0 91 45 156t111.5 94.5t143.5 29.5t143.5 -29.5t111.5 -94.5t45 -156t-45 -156t-111.5 -94.5t-143.5 -29.5t-143.5 29.5t-111.5 94.5t-45 156zM200 270q0 -270 130 -270t130 270t-130 270t-130 -270zM143 625l-5 5q22 45 56 87.5t64 42.5q31 0 96.5 -30
t103.5 -30q10 0 18 1.5t15.5 6t10 6.5t11 11t10.5 10l5 -5q-22 -44 -53.5 -82t-61.5 -38q-33 0 -102 30t-103 30q-10 0 -18.5 -2.5t-15.5 -8.5t-11 -10t-11 -12.5t-9 -11.5z" />
    <glyph glyph-name="Odieresissmall" unicode="&#xf7f6;" horiz-adv-x="660" 
d="M30 270q0 91 45 156t111.5 94.5t143.5 29.5t143.5 -29.5t111.5 -94.5t45 -156t-45 -156t-111.5 -94.5t-143.5 -29.5t-143.5 29.5t-111.5 94.5t-45 156zM200 270q0 -270 130 -270t130 270t-130 270t-130 -270zM171 665q0 28 18.5 46.5t45.5 18.5q28 0 46.5 -18.5
t18.5 -46.5t-18.5 -45.5t-46.5 -17.5q-27 0 -45.5 17.5t-18.5 45.5zM366 665q0 28 18.5 46.5t46.5 18.5q27 0 45.5 -18.5t18.5 -46.5t-18.5 -45.5t-45.5 -17.5q-28 0 -46.5 17.5t-18.5 45.5z" />
    <glyph glyph-name="Oslashsmall" unicode="&#xf7f8;" horiz-adv-x="660" 
d="M587 533l8 -8l-51 -52q86 -76 86 -203q0 -91 -45 -156t-111.5 -94.5t-143.5 -29.5q-115 0 -198 62l-51 -52l-8 8l50 51q-93 78 -93 211q0 91 45 156t111.5 94.5t143.5 29.5q120 0 206 -69zM200 270q0 -72 9 -123l241 247q-26 146 -120 146q-130 0 -130 -270zM460 270
q0 55 -7 109l-241 -246q27 -133 118 -133q130 0 130 270z" />
    <glyph glyph-name="Ugravesmall" unicode="&#xf7f9;" horiz-adv-x="700" 
d="M555 250v235l-115 45v10h240v-10l-115 -45v-235q0 -260 -220 -260q-120 0 -192.5 65.5t-72.5 184.5v285l-60 5v10h280v-10l-60 -5v-275q0 -119 31.5 -174.5t113.5 -55.5q170 0 170 230zM355 600l-164 180h129l45 -180h-10z" />
    <glyph glyph-name="Uacutesmall" unicode="&#xf7fa;" horiz-adv-x="700" 
d="M555 250v235l-115 45v10h240v-10l-115 -45v-235q0 -260 -220 -260q-120 0 -192.5 65.5t-72.5 184.5v285l-60 5v10h280v-10l-60 -5v-275q0 -119 31.5 -174.5t113.5 -55.5q170 0 170 230zM400 780h129l-174 -180h-10z" />
    <glyph glyph-name="Ucircumflexsmall" unicode="&#xf7fb;" horiz-adv-x="700" 
d="M555 250v235l-115 45v10h240v-10l-115 -45v-235q0 -260 -220 -260q-120 0 -192.5 65.5t-72.5 184.5v285l-60 5v10h280v-10l-60 -5v-275q0 -119 31.5 -174.5t113.5 -55.5q170 0 170 230zM361 675l-125 -75h-10l130 180h10l130 -180h-10z" />
    <glyph glyph-name="Udieresissmall" unicode="&#xf7fc;" horiz-adv-x="700" 
d="M555 250v235l-115 45v10h240v-10l-115 -45v-235q0 -260 -220 -260q-120 0 -192.5 65.5t-72.5 184.5v285l-60 5v10h280v-10l-60 -5v-275q0 -119 31.5 -174.5t113.5 -55.5q170 0 170 230zM207 665q0 28 18.5 46.5t45.5 18.5q28 0 46.5 -18.5t18.5 -46.5t-18.5 -45.5
t-46.5 -17.5q-27 0 -45.5 17.5t-18.5 45.5zM402 665q0 28 18.5 46.5t46.5 18.5q27 0 45.5 -18.5t18.5 -46.5t-18.5 -45.5t-45.5 -17.5q-28 0 -46.5 17.5t-18.5 45.5z" />
    <glyph glyph-name="Yacutesmall" unicode="&#xf7fd;" horiz-adv-x="570" 
d="M215 170l-185 355l-30 5v10h260v-10l-60 -5l155 -305h10l95 265l-100 45v10h210v-10l-95 -45l-100 -275v-195l60 -5v-10h-280v10l60 5v155zM337 780h129l-174 -180h-10z" />
    <glyph glyph-name="Thornsmall" unicode="&#xf7fe;" horiz-adv-x="570" 
d="M250 105h15q47 0 75 24t36.5 58t8.5 83q0 165 -120 165h-15v-330zM90 525l-60 5v10h280v-10l-60 -5v-80h55q126 0 185.5 -41t59.5 -124q0 -82 -68.5 -133.5t-216.5 -51.5h-15v-80l60 -5v-10h-280v10l60 5v510z" />
    <glyph glyph-name="Ydieresissmall" unicode="&#xf7ff;" horiz-adv-x="570" 
d="M215 170l-185 355l-30 5v10h260v-10l-60 -5l155 -305h10l95 265l-100 45v10h210v-10l-95 -45l-100 -275v-195l60 -5v-10h-280v10l60 5v155zM142 665q0 28 18.5 46.5t45.5 18.5q28 0 46.5 -18.5t18.5 -46.5t-18.5 -45.5t-46.5 -17.5q-27 0 -45.5 17.5t-18.5 45.5zM337 665
q0 28 18.5 46.5t46.5 18.5q27 0 45.5 -18.5t18.5 -46.5t-18.5 -45.5t-45.5 -17.5q-28 0 -46.5 17.5t-18.5 45.5z" />
    <glyph glyph-name="longs_t" unicode="&#xfb05;" horiz-adv-x="618" 
d="M208 550v-560q0 -83 -70.5 -151.5t-159.5 -68.5q-47 0 -73.5 19.5t-26.5 50.5q0 26 17 43.5t48 17.5q32 0 52 -29t-2 -87h10q27 0 36 47t9 158v520q0 83 70.5 151.5t159.5 68.5q47 0 73.5 -19.5t26.5 -50.5q0 -26 -17 -43.5t-48 -17.5q-32 0 -52 29t2 87h-10
q-26 0 -35.5 -41t-9.5 -124zM480 485v-355q0 -64 14 -87t46 -23q22 0 60 15v-10q-30 -15 -76 -25t-84 -10q-55 0 -87.5 29.5t-32.5 90.5v375h-60v10l60 5l150 120h10v-120h120v-15h-120z" />
    <glyph glyph-name="s_t" unicode="&#xfb06;" horiz-adv-x="790" 
d="M205 -10q-81 0 -159 41l-6 -41h-10v160h10q38 -80 68 -113q32 -35 72 -35q39 0 59.5 25t20.5 58t-21.5 58.5t-78.5 51.5q-73 33 -104 69.5t-31 95.5q0 64 48.5 107t141.5 43q71 0 149 -41l6 41h10v-160h-10q-38 79 -69 113q-32 35 -71 35q-27 0 -48.5 -20t-21.5 -48
q0 -37 20 -58t55 -37q97 -45 133.5 -82.5t36.5 -102.5q0 -71 -56.5 -115.5t-143.5 -44.5zM650 485v-355q0 -64 14 -87t46 -23q22 0 60 15v-10q-30 -15 -76 -25t-84 -10q-55 0 -87.5 29.5t-32.5 90.5v375h-60v10l60 5l150 120h10v-120h120v-15h-120z" />
    <glyph glyph-name="dieresisgrave" horiz-adv-x="580" 
d="M492 615q0 -28 -18.5 -45.5t-45.5 -17.5q-28 0 -46.5 17.5t-18.5 45.5t18.5 46.5t46.5 18.5q27 0 45.5 -18.5t18.5 -46.5zM217 615q0 -28 -18.5 -45.5t-46.5 -17.5q-27 0 -45.5 17.5t-18.5 45.5t18.5 46.5t45.5 18.5q28 0 46.5 -18.5t18.5 -46.5zM141 800h129l50 -200
h-10z" />
    <glyph glyph-name="Breve" horiz-adv-x="450" 
d="M225 770q-63 0 -99 45.5t-36 105.5h8q8 -39 37.5 -56t89.5 -17t89.5 17t37.5 56h8q0 -60 -36 -105.5t-99 -45.5z" />
    <glyph glyph-name="Cedilla" horiz-adv-x="373" 
d="M160 -80l3 80h10v-75q48 0 79 -21.5t31 -55.5q0 -36 -31.5 -57t-86.5 -21q-36 0 -75 12l1 9q32 -8 47 -8q68 0 68 67q0 27 -12.5 46.5t-33.5 23.5z" />
    <glyph glyph-name="Circumflex" horiz-adv-x="470" 
d="M235 825l-125 -75h-10l130 180h10l130 -180h-10z" />
    <glyph glyph-name="commaaccent.cap" horiz-adv-x="335" 
d="M90 -170v120q78 11 116.5 -19t38.5 -87q0 -70 -44 -124.5t-97 -73.5l-4 10q40 14 64.5 43.5t27 58t-24 50.5t-77.5 22z" />
    <glyph glyph-name="DieresisAcute" horiz-adv-x="580" 
d="M88 815q0 28 18.5 46.5t45.5 18.5q28 0 46.5 -18.5t18.5 -46.5t-18.5 -45.5t-46.5 -17.5q-27 0 -45.5 17.5t-18.5 45.5zM363 815q0 28 18.5 46.5t46.5 18.5q27 0 45.5 -18.5t18.5 -46.5t-18.5 -45.5t-45.5 -17.5q-28 0 -46.5 17.5t-18.5 45.5zM310 1000h129l-169 -200
h-10z" />
    <glyph glyph-name="DieresisGrave" horiz-adv-x="580" 
d="M492 815q0 -28 -18.5 -45.5t-45.5 -17.5q-28 0 -46.5 17.5t-18.5 45.5t18.5 46.5t46.5 18.5q27 0 45.5 -18.5t18.5 -46.5zM217 815q0 -28 -18.5 -45.5t-46.5 -17.5q-27 0 -45.5 17.5t-18.5 45.5t18.5 46.5t45.5 18.5q28 0 46.5 -18.5t18.5 -46.5zM141 1000h129l50 -200
h-10z" />
    <glyph glyph-name="Dotaccent" horiz-adv-x="314" 
d="M88 827q0 29 20 49t49 20t49 -20t20 -49t-20 -49t-49 -20t-49 20t-20 49z" />
    <glyph glyph-name="Ogonek" horiz-adv-x="360" 
d="M270 -180v-10q-13 -17 -40 -28.5t-50 -11.5q-36 0 -59.5 16.5t-29.5 42.5t1 56.5t32.5 61.5t65.5 53h10q-42 -39 -54 -89.5t20 -80t104 -10.5z" />
    <glyph glyph-name="Ring" horiz-adv-x="375" 
d="M100 837q0 38 23.5 63t63.5 25t64 -25t24 -63t-24 -62.5t-64 -24.5q-38 0 -62.5 25t-24.5 62zM124 837q0 -34 16 -55.5t47 -21.5q32 0 47.5 21.5t15.5 55.5q0 35 -15.5 56.5t-47.5 21.5q-31 0 -47 -22t-16 -56z" />
    <glyph glyph-name="Tilde" horiz-adv-x="550" 
d="M85 775l-5 5q22 45 56 87.5t64 42.5q31 0 96.5 -30t103.5 -30q10 0 18 1.5t15.5 6t10 6.5t11 11t10.5 10l5 -5q-22 -44 -53.5 -82t-61.5 -38q-33 0 -102 30t-103 30q-10 0 -18.5 -2.5t-15.5 -8.5t-11 -10t-11 -12.5t-9 -11.5z" />
    <glyph glyph-name="commaaccent.small" horiz-adv-x="335" 
d="M90 -170v120q78 11 116.5 -19t38.5 -87q0 -70 -44 -124.5t-97 -73.5l-4 10q40 14 64.5 43.5t27 58t-24 50.5t-77.5 22z" />
    <glyph glyph-name="DieresisAcute.small" horiz-adv-x="580" 
d="M88 665q0 28 18.5 46.5t45.5 18.5q28 0 46.5 -18.5t18.5 -46.5t-18.5 -45.5t-46.5 -17.5q-27 0 -45.5 17.5t-18.5 45.5zM363 665q0 28 18.5 46.5t46.5 18.5q27 0 45.5 -18.5t18.5 -46.5t-18.5 -45.5t-45.5 -17.5q-28 0 -46.5 17.5t-18.5 45.5zM310 850h129l-169 -200h-10
z" />
    <glyph glyph-name="DieresisGrave.small" horiz-adv-x="580" 
d="M492 665q0 -28 -18.5 -45.5t-45.5 -17.5q-28 0 -46.5 17.5t-18.5 45.5t18.5 46.5t46.5 18.5q27 0 45.5 -18.5t18.5 -46.5zM217 665q0 -28 -18.5 -45.5t-46.5 -17.5q-27 0 -45.5 17.5t-18.5 45.5t18.5 46.5t45.5 18.5q28 0 46.5 -18.5t18.5 -46.5zM141 850h129l50 -200
h-10z" />
    <glyph glyph-name="dblGrave.small" horiz-adv-x="480" 
d="M400 600l-169 200h119l60 -200h-10zM240 600l-169 200h119l60 -200h-10z" />
    <glyph glyph-name="middot" horiz-adv-x="306" 
d="M89 263q0 28 18.5 46.5t45.5 18.5t45.5 -18.5t18.5 -46.5t-18.5 -45.5t-45.5 -17.5t-45.5 17.5t-18.5 45.5z" />
    <glyph glyph-name="Aogonek.small" 
d="M570 -180v-10q-13 -17 -40 -28.5t-50 -11.5q-36 0 -59.5 16.5t-29.5 42.5t1 56.5t32.5 61.5t65.5 53h-180v10l65 5l-62 165h-151l-42 -125l120 -45v-10h-240v10l106 45l162 470l65 25l216 -535l51 -5v-10h-100q-42 -39 -54 -89.5t20 -80t104 -10.5zM239 380h-10l-64 -190
h145z" />
    <glyph glyph-name="Dcroat.small" horiz-adv-x="660" 
d="M30 275h60v250l-60 5v10h270q160 0 245 -70.5t85 -199.5q0 -121 -86.5 -195.5t-243.5 -74.5h-270v10l60 5v245h-60v15zM250 10h50q44 0 76.5 23.5t50 63t25.5 82.5t8 91q0 260 -170 260h-40v-255h110v-15h-110v-250z" />
    <glyph glyph-name="Eogonek.small" horiz-adv-x="560" 
d="M590 -180v-10q-13 -17 -40 -28.5t-50 -11.5q-36 0 -59.5 16.5t-29.5 42.5t1 56.5t32.5 61.5t65.5 53h-480v10l60 5v510l-60 5v10h480l5 -150h-10l-110 135l-145 5v-253l100 5l55 98h10v-215h-10l-55 97l-100 5v-257l155 5l115 135h10l-10 -150q-42 -39 -54 -89.5t20 -80
t104 -10.5z" />
    <glyph glyph-name="Hbar.small" horiz-adv-x="720" 
d="M30 392h60v133l-60 5v10h280v-10l-60 -5v-133h220v133l-60 5v10h280v-10l-60 -5v-133h60v-10h-60v-367l60 -5v-10h-280v10l60 5v257h-220v-257l60 -5v-10h-280v10l60 5v367h-60v10zM250 282h220v100h-220v-100z" />
    <glyph glyph-name="Iogonek.small" horiz-adv-x="340" 
d="M260 -180v-10q-13 -17 -40 -28.5t-50 -11.5q-36 0 -59.5 16.5t-29.5 42.5t1 56.5t32.5 61.5t65.5 53h-150v10l60 5v510l-60 5v10h280v-10l-60 -5v-510l60 -5v-10h-120q-42 -39 -54 -89.5t20 -80t104 -10.5z" />
    <glyph glyph-name="IJ.small" horiz-adv-x="740" 
d="M90 15v510l-60 5v10h280v-10l-60 -5v-510l60 -5v-10h-280v10zM500 170v355l-60 5v10h280v-10l-60 -5v-315q0 -83 -70.5 -151.5t-159.5 -68.5q-47 0 -73.5 19.5t-26.5 50.5q0 43 40 57q38 14 66 -11q36 -32 9 -101h10q26 0 35.5 41t9.5 124z" />
    <glyph glyph-name="Scedilla.small" horiz-adv-x="480" 
d="M225 -80l2 70q-86 2 -157 60l-10 -55h-10l-5 180h10l50 -88q18 -34 50.5 -60t72.5 -27h2q38 0 61.5 25t23.5 65q0 44 -32 70t-96 53q-82 34 -119.5 76t-37.5 111q0 71 56.5 110.5t148.5 39.5q86 0 155 -50l5 45h10l5 -180h-10l-45 85q-48 90 -115 90q-30 0 -52.5 -19
t-22.5 -57q0 -12 2 -23t8.5 -20.5t10.5 -16.5t16 -15t16.5 -11.5t20.5 -11t19.5 -9t22 -8.5t19.5 -8q150 -59 150 -180q0 -76 -61.5 -122.5t-150.5 -48.5v-65q48 0 79 -21.5t31 -55.5q0 -36 -31.5 -57t-86.5 -21q-36 0 -75 12l1 9q32 -8 47 -8q68 0 68 67q0 27 -12.5 46.5
t-33.5 23.5z" />
    <glyph glyph-name="Tbar.small" horiz-adv-x="540" 
d="M110 275h80v253l-40 -3l-120 -135h-10l5 150h490l5 -150h-10l-110 135l-50 3v-253h80v-15h-80v-245l60 -5v-10h-280v10l60 5v245h-80v15z" />
    <glyph glyph-name="Uogonek.small" horiz-adv-x="700" 
d="M434 -180v-10q-13 -17 -40 -28.5t-50 -11.5q-43 0 -67.5 23.5t-26 56.5t21 72.5t65.5 67.5q-117 2 -187 67t-70 183v285l-60 5v10h280v-10l-60 -5v-275q0 -119 31.5 -174.5t113.5 -55.5q170 0 170 230v235l-115 45v10h240v-10l-115 -45v-235q0 -254 -211 -260
q-28 -29 -39.5 -65t-3.5 -64t37.5 -42t85.5 1z" />
    <glyph glyph-name="c_t" horiz-adv-x="870" 
d="M275 -10q-119 0 -187 74t-68 181q0 121 83 193t192 72q84 0 134.5 -38.5t50.5 -96.5q0 -27 -19 -46t-46 -19q-49 0 -66 41q-15 36 11 64q25 26 75 20v10q-40 50 -115 50q-63 0 -102.5 -54.5t-39.5 -159.5q0 -92 47.5 -139t114.5 -47q48 0 85.5 22.5t54.5 52.5h10
q-17 -75 -72.5 -127.5t-142.5 -52.5zM730 485v-355q0 -64 14 -87t46 -23q22 0 60 15v-10q-30 -15 -76 -25t-84 -10q-55 0 -87.5 29.5t-32.5 90.5v375h-60v10l60 5l150 120h10v-120h120v-15h-120z" />
    <glyph glyph-name="s_p" horiz-adv-x="1020" 
d="M205 -10q-81 0 -159 41l-6 -41h-10v160h10q38 -80 68 -113q32 -35 72 -35q39 0 59.5 25t20.5 58t-21.5 58.5t-78.5 51.5q-73 33 -104 69.5t-31 95.5q0 64 48.5 107t141.5 43q71 0 149 -41l6 41h10v-160h-10q-38 79 -69 113q-32 35 -71 35q-27 0 -48.5 -20t-21.5 -48
q0 -37 20 -58t55 -37q97 -45 133.5 -82.5t36.5 -102.5q0 -71 -56.5 -115.5t-143.5 -44.5zM660 30h-10v-235l60 -5v-10h-280v10l60 5v695h-50v10l200 10h10v-50h10q50 50 130 50q96 0 153 -73t57 -187q0 -113 -61.5 -186.5t-158.5 -73.5q-69 0 -120 40zM650 440v-390
q33 -25 70 -25q26 0 43 7.5t34 29.5t25 69t8 119q0 69 -8.5 115t-24.5 69t-34 32t-43 9q-35 0 -70 -35z" />
    <glyph glyph-name="h.superior" horiz-adv-x="400" 
d="M344 405l36 -3v-6h-156v6l24 3v219q0 48 -36 48q-26 0 -60 -39v-228l36 -3v-6h-168v6l36 3v417h-30v6l120 6h6v-186h6q45 54 105 54q34 0 57.5 -22t23.5 -68v-207z" />
    <glyph glyph-name="Ethsmall" horiz-adv-x="660" 
d="M30 275h60v250l-60 5v10h270q160 0 245 -70.5t85 -199.5q0 -121 -86.5 -195.5t-243.5 -74.5h-270v10l60 5v245h-60v15zM250 10h50q44 0 76.5 23.5t50 63t25.5 82.5t8 91q0 260 -170 260h-40v-255h110v-15h-110v-250z" />
    <glyph glyph-name="Eng.small" horiz-adv-x="670" 
d="M550 84q0 -45 -2 -80.5t-11 -82t-24 -77t-44 -52.5t-69 -22q-34 0 -62 17.5t-28 56.5q0 29 24.5 45.5t54 10.5t40.5 -33q14 -33 -4 -82q40 0 72.5 65.5t32.5 149.5l-380 415h-10l5 -360l125 -45v-10h-240v10l100 45v470l-100 5v10h225l275 -305h10l-5 250l-125 45v10h240
v-10l-100 -45v-401z" />
    <glyph glyph-name="longs_h" horiz-adv-x="900" 
d="M510 730h10v-310h10q75 90 175 90q57 0 96 -36.5t39 -113.5v-345l60 -5v-10h-260v10l40 5v365q0 80 -60 80q-43 0 -100 -65v-380l60 -5v-10h-280v10l60 5v625q0 80 -60 80q-29 0 -47.5 -14t-27.5 -43.5t-12 -61.5t-3 -81v-530q0 -83 -70.5 -151.5t-159.5 -68.5
q-47 0 -73.5 19.5t-26.5 50.5q0 26 17 43.5t48 17.5q32 0 52 -29t-2 -87h10q27 0 36 47t9 158v530q0 94 74 152t176 58q44 0 110 -28z" />
    <glyph glyph-name="longs_l" horiz-adv-x="580" 
d="M210 520v-530q0 -83 -70.5 -151.5t-159.5 -68.5q-47 0 -73.5 19.5t-26.5 50.5q0 26 17 43.5t48 17.5q32 0 52 -29t-2 -87h10q27 0 36 47t9 158v530q0 94 74 152t176 58q44 0 110 -28l100 28h10v-715l60 -5v-10h-280v10l60 5v625q0 80 -60 80q-29 0 -47.5 -14t-27.5 -43.5
t-12 -61.5t-3 -81z" />
    </font>
</defs>
</svg>
