<?xml version="1.0" standalone="no"?>
<!DOCTYPE svg PUBLIC "-//W3C//DTD SVG 1.1//EN" "http://www.w3.org/Graphics/SVG/1.1/DTD/svg11.dtd" >
<svg xmlns="http://www.w3.org/2000/svg" xmlns:xlink="http://www.w3.org/1999/xlink" version="1.1">
<metadata>
Created by FontForge 20170731 at Thu Sep  1 19:34:42 2011
 By Aleksey,,,
Copyright (c) 2009 by Dino dos Santos _DSType. All rights reserved.
</metadata>
<defs>
<font id="GlosaDisplay-Bold" horiz-adv-x="600" >
  <font-face 
    font-family="Glosa Display Bold"
    font-weight="700"
    font-stretch="normal"
    units-per-em="1000"
    panose-1="2 0 5 3 0 0 0 2 0 4"
    ascent="750"
    descent="-250"
    x-height="500"
    cap-height="700"
    bbox="-102 -348 1296.02 1005"
    underline-thickness="50"
    underline-position="-200"
    unicode-range="U+0020-FB06"
  />
<missing-glyph horiz-adv-x="590" 
d="M70 500h450v-500h-450v500zM287 249l-206 236v-469zM304 249l205 -231v465zM93 488l203 -229l202 229h-405zM296 240l-201 -228h401z" />
    <glyph glyph-name="ff" unicode="ff" horiz-adv-x="650" 
d="M226 500h178v17q0 83 63 148t144 65q40 0 64.5 -16.5t24.5 -47.5q0 -23 -16 -39.5t-43 -16.5q-29 0 -48 26t-2 77h-10q-27 0 -36 -41t-9 -122v-50h117v-15h-117v-470l101 -5v-10h-304v10l71 5v470h-178v-470l71 -5v-10h-274v10l71 5v470h-67v10l67 5v17q0 83 63 148
t144 65q40 0 64.5 -16.5t24.5 -47.5q0 -23 -16 -39.5t-43 -16.5q-29 0 -48 26t-2 77h-10q-27 0 -36 -41t-9 -122v-50z" />
    <glyph glyph-name="fi" unicode="fi" horiz-adv-x="610" 
d="M94 500v20q0 93 78.5 151.5t178.5 58.5q94 0 144.5 -39t50.5 -83q0 -30 -19.5 -49t-48.5 -19q-31 0 -47 18t-16 42q0 25 22 44.5t68 10.5v10q-22 22 -62.5 38.5t-89.5 16.5q-70 0 -98.5 -52t-28.5 -148v-20h71v-15h-71v-470l71 -5v-10h-274v10l71 5v470h-67v10zM536 510
v-495l71 -5v-10h-274v10l71 5v475h-61v10l183 10h10z" />
    <glyph glyph-name="fl" unicode="fl" horiz-adv-x="610" 
d="M536 730v-715l71 -5v-10h-274v10l71 5v622q0 39 -18.5 61t-55.5 22q-32 0 -53 -14.5t-32 -43t-15 -62t-4 -80.5v-20h71v-15h-71v-470l71 -5v-10h-274v10l71 5v470h-67v10l67 5v20q0 95 68.5 152.5t167.5 57.5q56 0 110 -31l86 31h10z" />
    <glyph glyph-name="ffi" unicode="ffi" horiz-adv-x="920" 
d="M404 485h-178v-470l71 -5v-10h-274v10l71 5v470h-67v10l67 5v17q0 83 63 148t144 65q40 0 64.5 -16.5t24.5 -47.5q0 -23 -16 -39.5t-43 -16.5q-29 0 -48 26t-2 77h-10q-27 0 -36 -41t-9 -122v-50h178v20q0 93 78.5 151.5t178.5 58.5q94 0 144.5 -39t50.5 -83
q0 -30 -19.5 -49t-48.5 -19q-31 0 -47 18t-16 42q0 25 22 44.5t68 10.5v10q-22 22 -62.5 38.5t-89.5 16.5q-70 0 -98.5 -52t-28.5 -148v-20h71v-15h-71v-470l71 -5v-10h-274v10l71 5v470zM846 510v-495l71 -5v-10h-274v10l71 5v475h-61v10l183 10h10z" />
    <glyph glyph-name="ffl" unicode="ffl" horiz-adv-x="920" 
d="M404 485h-178v-470l71 -5v-10h-274v10l71 5v470h-67v10l67 5v17q0 83 63 148t144 65q40 0 64.5 -16.5t24.5 -47.5q0 -23 -16 -39.5t-43 -16.5q-29 0 -48 26t-2 77h-10q-27 0 -36 -41t-9 -122v-50h178v20q0 95 68.5 152.5t167.5 57.5q56 0 110 -31l86 31h10v-715l71 -5
v-10h-274v10l71 5v622q0 39 -18.5 61t-55.5 22q-32 0 -53 -14.5t-32 -43t-15 -62t-4 -80.5v-20h71v-15h-71v-470l71 -5v-10h-274v10l71 5v470z" />
    <glyph glyph-name="T_h" unicode="Th" horiz-adv-x="1070" 
d="M996 15l71 -5v-10h-254v10l51 5v358q0 94 -72 94q-22 0 -46 -13.5t-33.5 -22.5t-36.5 -36v-380l71 -5v-10h-274v10l71 5v669l-178 4v-673l71 -5v-10h-274v10l71 5v673l-108 -5l-93 -150h-10l5 167h518l120 30h10v-310h10q79 90 179 90q56 0 93.5 -36.5t37.5 -113.5v-345z
" />
    <glyph glyph-name="T_h.caron" unicode="&#x164;h" horiz-adv-x="1070" 
d="M996 15l71 -5v-10h-254v10l51 5v358q0 94 -72 94q-22 0 -46 -13.5t-33.5 -22.5t-36.5 -36v-380l71 -5v-10h-274v10l71 5v669l-178 4v-673l71 -5v-10h-274v10l71 5v673l-108 -5l-93 -150h-10l5 167h518l120 30h10v-310h10q79 90 179 90q56 0 93.5 -36.5t37.5 -113.5v-345z
M168 930h10l125 -89l125 89h10l-130 -180h-10z" />
    <glyph glyph-name="T_h.commaaccent" unicode="&#x162;h" horiz-adv-x="1070" 
d="M996 15l71 -5v-10h-254v10l51 5v358q0 94 -72 94q-22 0 -46 -13.5t-33.5 -22.5t-36.5 -36v-380l71 -5v-10h-274v10l71 5v669l-178 4v-673l71 -5v-10h-274v10l71 5v673l-108 -5l-93 -150h-10l5 167h518l120 30h10v-310h10q79 90 179 90q56 0 93.5 -36.5t37.5 -113.5v-345z
M222 -163v113q76 10 112.5 -21.5t36.5 -82.5q0 -67 -42.5 -120t-93.5 -72l-4 10q36 14 61 43t29.5 57.5t-20.5 50.5t-79 22z" />
    <glyph glyph-name="f_f_j" unicode="ffj" horiz-adv-x="900" 
d="M404 485h-178v-470l71 -5v-10h-274v10l71 5v470h-67v10l67 5v17q0 83 63 148t144 65q40 0 64.5 -16.5t24.5 -47.5q0 -23 -16 -39.5t-43 -16.5q-29 0 -48 26t-2 77h-10q-27 0 -36 -41t-9 -122v-50h178v20q0 93 78.5 151.5t178.5 58.5q94 0 144.5 -39t50.5 -83
q0 -30 -19.5 -49t-48.5 -19q-31 0 -47 18t-16 42q0 25 22 44.5t68 10.5v10q-22 22 -62.5 38.5t-89.5 16.5q-70 0 -98.5 -52t-28.5 -148v-20h71v-15h-71v-470l71 -5v-10h-274v10l71 5v470zM846 510v-527q0 -84 -63 -148.5t-145 -64.5q-39 0 -63.5 16.5t-24.5 47.5
q0 23 16 39.5t43 16.5q29 0 48 -26t2 -77h10q28 0 36.5 44.5t8.5 146.5v512h-61v10l183 10h10z" />
    <glyph glyph-name="f_j" unicode="fj" horiz-adv-x="590" 
d="M94 500v20q0 93 78.5 151.5t178.5 58.5q94 0 144.5 -39t50.5 -83q0 -30 -19.5 -49t-48.5 -19q-31 0 -47 18t-16 42q0 25 22 44.5t68 10.5v10q-22 22 -62.5 38.5t-89.5 16.5q-70 0 -98.5 -52t-28.5 -148v-20h71v-15h-71v-470l71 -5v-10h-274v10l71 5v470h-67v10zM536 510
v-527q0 -84 -63 -148.5t-145 -64.5q-39 0 -63.5 16.5t-24.5 47.5q0 23 16 39.5t43 16.5q29 0 48 -26t2 -77h10q28 0 36.5 44.5t8.5 146.5v512h-61v10l183 10h10z" />
    <glyph glyph-name=".notdef" horiz-adv-x="590" 
d="M70 500h450v-500h-450v500zM287 249l-206 236v-469zM304 249l205 -231v465zM93 488l203 -229l202 229h-405zM296 240l-201 -228h401z" />
    <glyph glyph-name=".notdef" horiz-adv-x="590" 
d="M70 500h450v-500h-450v500zM287 249l-206 236v-469zM304 249l205 -231v465zM93 488l203 -229l202 229h-405zM296 240l-201 -228h401z" />
    <glyph glyph-name=".null" horiz-adv-x="0" 
 />
    <glyph glyph-name="nonmarkingreturn" horiz-adv-x="333" 
 />
    <glyph glyph-name="space" unicode=" " horiz-adv-x="230" 
 />
    <glyph glyph-name="exclam" unicode="!" horiz-adv-x="320" 
d="M91 59q0 28 20.5 48t48.5 20t48.5 -20t20.5 -48q0 -29 -20.5 -49t-48.5 -20t-48.5 20t-20.5 49zM166 200h-10l-63 500h132z" />
    <glyph glyph-name="quotedbl" unicode="&#x22;" horiz-adv-x="416" 
d="M130 558l-43 202h92l-43 -202h-6zM280 558l-43 202h92l-43 -202h-6z" />
    <glyph glyph-name="numbersign" unicode="#" horiz-adv-x="560" 
d="M33 195h159v145h-159v15h159v160h15v-160h145v160h15v-160h160v-15h-160v-145h160v-15h-160v-159h-15v159h-145v-159h-15v159h-159v15zM207 340v-145h145v145h-145z" />
    <glyph glyph-name="dollar" unicode="$" horiz-adv-x="560" 
d="M285 -100v90h-14q-111 0 -167.5 42t-56.5 95q0 27 16.5 45.5t44.5 18.5q44 0 59 -38q13 -36 -13 -62q-22 -22 -64 -18v-10q58 -63 162 -63q22 0 33 2v284l-39 18q-90 38 -140.5 86t-50.5 127q0 87 63.5 139.5t166.5 53.5v90h10v-90q96 -2 148 -44t52 -93q0 -27 -16.5 -46
t-45.5 -19q-43 0 -58 38q-14 36 11 62q23 23 65 19v10q-58 62 -156 63v-266l9 -3q209 -84 209 -228q0 -94 -63 -150t-155 -62v-91h-10zM160 580q0 -51 33.5 -83.5t91.5 -57.5v261q-49 -2 -87 -32t-38 -88zM405 135q0 89 -110 146v-278q110 20 110 132z" />
    <glyph glyph-name="percent" unicode="%" horiz-adv-x="980" 
d="M626 700h14l-286 -700h-15zM584 145q1 65 46 110t109 45q62 0 105 -45.5t42 -109.5q-2 -65 -46.5 -110t-109.5 -45q-61 0 -104 45.5t-42 109.5zM658 145q0 -79 19 -111.5t58 -32.5q77 0 77 144t-77 144t-77 -144zM94 555q1 65 46 110t109 45q62 0 105 -45.5t42 -109.5
q-2 -65 -46.5 -110t-109.5 -45q-61 0 -104 45.5t-42 109.5zM168 555q0 -144 77 -144t77 144t-77 144t-77 -144z" />
    <glyph glyph-name="ampersand" unicode="&#x26;" horiz-adv-x="790" 
d="M180 205q0 -69 35 -117t95 -48q81 0 137 41l-220 272q-47 -52 -47 -148zM395 590q0 110 -75 110q-72 0 -72 -104q0 -35 12.5 -68.5t26.5 -54t38 -49.5q70 53 70 166zM517 0l-63 72q-82 -82 -186 -82q-89 0 -148.5 51t-59.5 136q0 101 162 184q-91 105 -91 197
q0 68 55.5 110t129.5 42q68 0 116.5 -38t48.5 -99q0 -44 -37.5 -85t-113.5 -71l196 -241q49 82 71 184l-114 42v10h234v-10l-107 -42q-30 -122 -77 -194l137 -151l21 -5v-10h-174z" />
    <glyph glyph-name="quotesingle" unicode="'" horiz-adv-x="266" 
d="M130 558l-43 202h92l-43 -202h-6z" />
    <glyph glyph-name="parenleft" unicode="(" horiz-adv-x="375" 
d="M181 295q0 -145 36 -292.5t105 -267.5h-10q-101 113 -154.5 264t-53.5 296t53.5 296t154.5 264h10q-69 -120 -105 -267.5t-36 -292.5z" />
    <glyph glyph-name="parenright" unicode=")" horiz-adv-x="375" 
d="M194 295q0 145 -36 292.5t-105 267.5h10q101 -113 154.5 -264t53.5 -296t-53.5 -296t-154.5 -264h-10q69 120 105 267.5t36 292.5z" />
    <glyph glyph-name="asterisk" unicode="*" horiz-adv-x="442" 
d="M121 668q17 18 34 1q2 -2 61 -94q0 10 -9.5 58.5t-9.5 52.5q0 10 6.5 17t17.5 7q25 0 25 -24q0 -4 -10 -53t-10 -58q59 92 61 94q17 17 34 0t0 -35l-93 -62q10 0 57.5 10.5t51.5 10.5q11 0 18 -7.5t7 -17.5t-7 -17t-18 -7q-4 0 -51.5 9t-56.5 9q4 -2 26.5 -16.5
t41.5 -26.5t23 -15q8 -8 8 -18t-8 -17q-18 -17 -35 0q-3 3 -59 90q0 -9 10 -55.5t10 -50.5q0 -11 -7 -18t-18 -7q-10 0 -17 7t-7 18q0 4 9.5 50.5t9.5 56.5q-58 -90 -59 -91q-7 -7 -18 -7t-18 7q-17 17 1 35q3 3 22 15t42 26.5t27 16.5q-10 0 -58 -9t-51 -9q-10 0 -17 7
t-7 17q0 11 7 18t17 7q4 0 52.5 -10.5t57.5 -10.5q-82 49 -93 62q-17 17 0 34z" />
    <glyph glyph-name="plus" unicode="+" horiz-adv-x="560" 
d="M287 455v-180h180v-15h-180v-179h-15v179h-179v15h179v180h15z" />
    <glyph glyph-name="comma" unicode="," horiz-adv-x="335" 
d="M93 13v114q76 10 112.5 -21.5t36.5 -82.5q0 -68 -43 -121t-93 -71l-4 10q36 14 61 42.5t29.5 57.5t-20.5 50.5t-79 21.5z" />
    <glyph glyph-name="hyphen" unicode="-" horiz-adv-x="510" 
d="M93 285h324v-25h-324v25z" />
    <glyph glyph-name="period" unicode="." horiz-adv-x="320" 
d="M91 59q0 28 20.5 48t48.5 20t48.5 -20t20.5 -48q0 -29 -20.5 -49t-48.5 -20t-48.5 20t-20.5 49z" />
    <glyph glyph-name="slash" unicode="/" horiz-adv-x="480" 
d="M335 710h20l-210 -710h-20z" />
    <glyph glyph-name="zero" unicode="0" 
d="M47 350q0 89 27 169t86 135.5t140 55.5t140 -55.5t86 -135.5t27 -169t-27 -169t-86 -135.5t-140 -55.5t-140 54t-86 134t-27 172zM190 350q0 -173 24 -261.5t86 -88.5t86 88.5t24 261.5t-24 261.5t-86 88.5t-86 -88.5t-24 -261.5z" />
    <glyph glyph-name="one" unicode="1" horiz-adv-x="420" 
d="M33 10l111 5v657l-111 -17v10l233 45h10v-695l111 -5v-10h-354v10z" />
    <glyph glyph-name="two" unicode="2" horiz-adv-x="510" 
d="M169 108v-10l314 5v-103h-446v10q72 53 127.5 105t87.5 99.5t53 86.5t29 80t10.5 65t2.5 57q0 80 -34 132t-100 52q-73 0 -125 -52v-10q57 13 77 -27q17 -32 -5 -63q-18 -25 -53 -25q-23 0 -41.5 17t-18.5 46q0 51 57.5 94t152.5 43q60 0 105 -18t69 -48.5t35.5 -63.5
t11.5 -69t-11.5 -75t-41.5 -92.5t-95.5 -115t-160.5 -120.5z" />
    <glyph glyph-name="three" unicode="3" horiz-adv-x="535" 
d="M223 0q63 0 97.5 49t34.5 139q0 73 -36.5 126.5t-99.5 53.5h-25v12h22q62 0 91 44t29 105q0 54 -31.5 92.5t-84.5 38.5q-35 0 -62.5 -12t-45 -34.5t-26.5 -40.5t-19 -44h-10q17 71 72.5 126t135.5 55q89 0 143 -43.5t54 -114.5q0 -66 -51 -112.5t-152 -62.5v-5
q107 -5 168 -50.5t61 -127.5q0 -97 -74.5 -150.5t-185.5 -53.5q-89 0 -142 42.5t-53 97.5q0 26 18 43t44 17q43 0 59 -38q14 -36 -12 -64q-23 -23 -66 -20v-10q58 -58 147 -58z" />
    <glyph glyph-name="four" unicode="4" horiz-adv-x="570" 
d="M456 172h81v-12h-81v-160h-132v160h-291v16l330 501l93 33v-538zM314 584l-261 -402v-10h271v412h-10z" />
    <glyph glyph-name="five" unicode="5" horiz-adv-x="535" 
d="M228 -10q-89 0 -142 42.5t-53 97.5q0 26 17.5 43t46.5 17q42 0 57 -38q14 -37 -13 -64q-23 -22 -67 -18v-10q58 -60 148 -60q67 0 101 58t34 142q0 83 -52 143.5t-166 60.5h-32l10 296h346v-112h-339l-6 -174q86 24 149.5 16.5t105.5 -28.5t68 -57.5t36.5 -70.5t10.5 -67
q0 -96 -70 -156.5t-190 -60.5z" />
    <glyph glyph-name="six" unicode="6" horiz-adv-x="565" 
d="M375 210q0 88 -23 145.5t-72 57.5t-90 -48q-8 -91 -3.5 -172t31 -137t67.5 -56q90 0 90 210zM190 393l8 -3q55 47 129 47q88 0 139.5 -63t51.5 -153q0 -102 -70 -166.5t-164 -64.5q-109 0 -173 80t-64 197q0 166 102.5 288.5t263.5 154.5l2 -10q-90 -21 -154 -108
t-71 -199z" />
    <glyph glyph-name="seven" unicode="7" horiz-adv-x="490" 
d="M422 595v10l-359 -10l-20 -68h-10l5 173h429v-10l-229 -690h-130z" />
    <glyph glyph-name="eight" unicode="8" horiz-adv-x="565" 
d="M377 552q0 63 -24.5 105.5t-66.5 42.5t-65 -40.5t-23 -98.5q0 -34 12 -60.5t36.5 -45.5t39 -27.5t42.5 -21.5q49 47 49 146zM385 158q0 54 -37.5 92t-117.5 73q-57 -57 -57 -147q0 -78 30.5 -127t82.5 -49q49 0 74 44.5t25 113.5zM515 191q0 -95 -70 -148t-171 -53
q-98 0 -161 48t-63 136q0 56 42.5 99t126.5 56q-144 75 -144 197q0 84 63.5 134t152.5 50q83 0 140 -44.5t57 -123.5q0 -49 -41 -88t-111 -53q99 -41 139 -93t40 -117z" />
    <glyph glyph-name="nine" unicode="9" horiz-adv-x="565" 
d="M190 490q0 -88 23 -145.5t72 -57.5t90 48q8 91 3.5 172t-31 137t-67.5 56q-90 0 -90 -210zM375 307l-8 3q-55 -47 -129 -47q-88 0 -139.5 63t-51.5 153q0 102 70 166.5t164 64.5q109 0 173 -80t64 -197q0 -166 -102.5 -288.5t-263.5 -154.5l-2 10q90 21 154 108t71 199z
" />
    <glyph glyph-name="colon" unicode=":" horiz-adv-x="320" 
d="M91 111q0 28 20.5 48t48.5 20t48.5 -20t20.5 -48q0 -29 -20.5 -49t-48.5 -20t-48.5 20t-20.5 49zM91 390q0 28 20.5 48.5t48.5 20.5t48.5 -20.5t20.5 -48.5t-20.5 -48.5t-48.5 -20.5t-48.5 20.5t-20.5 48.5z" />
    <glyph glyph-name="semicolon" unicode=";" horiz-adv-x="335" 
d="M96 390q0 28 20 48.5t49 20.5t49 -20.5t20 -48.5t-20 -48.5t-49 -20.5t-49 20.5t-20 48.5zM93 13v114q76 10 112.5 -21.5t36.5 -82.5q0 -68 -43 -121t-93 -71l-4 10q36 14 61 42.5t29.5 57.5t-20.5 50.5t-79 21.5z" />
    <glyph glyph-name="less" unicode="&#x3c;" horiz-adv-x="480" 
d="M380 453l-201 -184l201 -186v-10l-287 185v20l287 185v-10z" />
    <glyph glyph-name="equal" unicode="=" horiz-adv-x="560" 
d="M93 345h374v-15h-374v15zM93 205h374v-15h-374v15z" />
    <glyph glyph-name="greater" unicode="&#x3e;" horiz-adv-x="480" 
d="M100 83l201 186l-201 184v10l287 -185v-20l-287 -185v10z" />
    <glyph glyph-name="question" unicode="?" horiz-adv-x="536" 
d="M181 59q0 28 20.5 48t48.5 20t48.5 -20t20.5 -48q0 -29 -20.5 -49t-48.5 -20t-48.5 20t-20.5 49zM489 530q0 -62 -53 -114.5t-175 -70.5l-5 -145h-10l-5 152q125 38 125 171q0 73 -39.5 119t-109.5 46q-36 0 -69.5 -14.5t-50.5 -36.5v-10q58 8 76 -34q14 -34 -11 -62
q-18 -21 -49 -21q-25 0 -42.5 17.5t-17.5 42.5q0 59 61.5 99.5t155.5 40.5q104 0 161.5 -53.5t57.5 -126.5z" />
    <glyph glyph-name="at" unicode="@" horiz-adv-x="884" 
d="M543 255q12 57 -1 84.5t-38 27.5q-72 0 -109 -160q-19 -67 -11 -128t47 -61q57 0 80 76q13 45 32 161zM564 315l92 60h10l-48 -258q-4 -23 -5.5 -35t-1 -30.5t9.5 -27t26 -8.5q50 0 101.5 70t51.5 173q0 75 -27.5 133.5t-74 93t-102.5 51.5t-118 17q-85 0 -152.5 -55
t-102 -141t-34.5 -185q0 -149 65 -236t199 -87q60 0 127.5 25.5t117.5 66.5l5 -9q-54 -45 -128 -70.5t-151 -25.5q-143 0 -246.5 97t-103.5 237q0 91 34.5 167t92.5 124.5t130 75t149 26.5q87 0 160 -31.5t121.5 -101.5t48.5 -168q0 -122 -65 -196.5t-151 -74.5
q-38 0 -57.5 21t-21.5 53q-15 -34 -46 -55t-65 -21q-39 0 -67.5 23t-40 57.5t-13.5 75t13 76.5q24 68 78.5 116t113.5 48q33 0 53 -21t20 -50h3z" />
    <glyph glyph-name="A" unicode="A" horiz-adv-x="700" 
d="M127 52l110 -42v-10h-234v10l108 42l191 593l85 65l261 -695l49 -5v-10h-283v10l81 5l-80 235h-226zM304 580h-10l-102 -318h220z" />
    <glyph glyph-name="B" unicode="B" horiz-adv-x="617" 
d="M236 690v-322h34q145 0 145 152q0 170 -115 170h-64zM293 358h-57v-348h84q125 0 125 180q0 79 -37.5 123.5t-114.5 44.5zM330 367v-2q70 -1 121.5 -18t79 -44.5t40 -57t12.5 -60.5q0 -84 -60 -134.5t-170 -50.5h-320v10l71 5v670l-71 5v10h290q110 0 170 -46.5
t60 -123.5q0 -63 -57.5 -108.5t-165.5 -54.5z" />
    <glyph glyph-name="C" unicode="C" horiz-adv-x="650" 
d="M607 50q-37 -23 -98 -41.5t-129 -18.5q-152 0 -247.5 101t-95.5 259t95.5 259t247.5 101q68 0 129 -18.5t98 -41.5l5 -167h-10l-60 114q-18 38 -59.5 70.5t-89.5 32.5q-103 0 -158 -89.5t-55 -260.5q0 -350 213 -350q49 0 91.5 32t60.5 71l62 114h10z" />
    <glyph glyph-name="D" unicode="D" horiz-adv-x="740" 
d="M236 10h104q74 0 125.5 53.5t73 127.5t21.5 159q0 149 -57.5 244.5t-172.5 95.5h-94v-680zM340 0h-307v10l71 5v670l-71 5v10h307q164 0 263.5 -93.5t99.5 -256.5q0 -155 -101 -252.5t-262 -97.5z" />
    <glyph glyph-name="E" unicode="E" 
d="M236 690v-335l157 4l49 118h10v-249h-10l-49 113l-157 4v-335l223 5l98 152h10l-10 -167h-524v10l71 5v670l-71 5v10h514l5 -167h-10l-93 152z" />
    <glyph glyph-name="F" unicode="F" horiz-adv-x="575" 
d="M236 690v-355l157 4l49 118h10v-249h-10l-49 113l-157 4v-310l71 -5v-10h-274v10l71 5v670l-71 5v10h514l5 -167h-10l-93 152z" />
    <glyph glyph-name="G" unicode="G" horiz-adv-x="710" 
d="M37 350q0 158 95.5 259t247.5 101q68 0 129 -18.5t98 -41.5l5 -167h-10l-60 114q-18 38 -60.5 70.5t-88.5 32.5q-103 0 -158 -89.5t-55 -260.5q0 -163 54.5 -256.5t145.5 -93.5q70 0 120 37v238l-70 5v10h257v-10l-54 -5v-205q-36 -27 -110.5 -53.5t-142.5 -26.5
q-152 0 -247.5 101t-95.5 259z" />
    <glyph glyph-name="H" unicode="H" horiz-adv-x="780" 
d="M544 15v335h-308v-335l71 -5v-10h-274v10l71 5v670l-71 5v10h274v-10l-71 -5v-323h308v323l-71 5v10h274v-10l-71 -5v-670l71 -5v-10h-274v10z" />
    <glyph glyph-name="I" unicode="I" horiz-adv-x="340" 
d="M33 10l71 5v670l-71 5v10h274v-10l-71 -5v-670l71 -5v-10h-274v10z" />
    <glyph glyph-name="J" unicode="J" horiz-adv-x="410" 
d="M183 170v515l-70 5v10h273v-10l-70 -5v-482q0 -84 -63 -148.5t-145 -64.5q-42 0 -65 17.5t-23 45.5q0 41 38 53q36 12 61 -13q29 -29 9 -86h10q27 0 36 41t9 122z" />
    <glyph glyph-name="K" unicode="K" horiz-adv-x="735" 
d="M297 360l232 288l-111 42v10h264v-10l-133 -42l-184 -220l291 -413l66 -5v-10h-310v10l78 5l-225 335h-29v-335l71 -5v-10h-274v10l71 5v670l-71 5v10h274v-10l-71 -5v-325h61z" />
    <glyph glyph-name="L" unicode="L" horiz-adv-x="580" 
d="M236 10l223 5l98 152h10l-10 -167h-524v10l71 5v670l-71 5v10h274v-10l-71 -5v-675z" />
    <glyph glyph-name="M" unicode="M" horiz-adv-x="880" 
d="M476 211h10l156 489h205v-10l-71 -5v-670l71 -5v-10h-274v10l71 5v622h-10l-201 -642h-20l-253 609h-10l5 -552l112 -42v-10h-234v10l107 42v633l-107 5v10h238z" />
    <glyph glyph-name="N" unicode="N" horiz-adv-x="730" 
d="M578 226h10l-3 422l-112 42v10h234v-10l-107 -42v-653h-20l-419 612h-10l4 -555l112 -42v-10h-234v10l107 42v633l-107 5v10h228z" />
    <glyph glyph-name="O" unicode="O" horiz-adv-x="780" 
d="M37 350q0 154 104.5 257t248.5 103t248.5 -103t104.5 -257t-104.5 -257t-248.5 -103t-248.5 103t-104.5 257zM180 350q0 -169 55 -259.5t155 -90.5t155 90.5t55 259.5t-55 259.5t-155 90.5t-155 -90.5t-55 -259.5z" />
    <glyph glyph-name="P" unicode="P" horiz-adv-x="610" 
d="M236 303h54q85 0 120 48.5t35 148.5q0 95 -27.5 142t-97.5 48h-84v-387zM303 293h-67v-278l71 -5v-10h-274v10l71 5v670l-71 5v10h320q110 0 170 -52.5t60 -137.5q0 -40 -15 -76.5t-46 -69t-87.5 -52t-131.5 -19.5z" />
    <glyph glyph-name="Q" unicode="Q" horiz-adv-x="780" 
d="M287 5v-6l480 -151v-10l-137 -68l-428 275q-73 47 -119 128t-46 177q0 154 104.5 257t248.5 103t248.5 -103t104.5 -257q0 -117 -65 -209.5t-171 -130.5t-220 -5zM180 350q0 -169 55 -259.5t155 -90.5t155 90.5t55 259.5t-55 259.5t-155 90.5t-155 -90.5t-55 -259.5z" />
    <glyph glyph-name="R" unicode="R" horiz-adv-x="670" 
d="M278 320h-42v-305l71 -5v-10h-274v10l71 5v670l-71 5v10h310q110 0 170 -51.5t60 -136.5q0 -68 -53.5 -120.5t-162.5 -59.5v-10q69 -5 119 -84l142 -223l39 -5v-10h-190zM236 330h54q82 0 113.5 44t31.5 128q0 52 -10 91.5t-39.5 68t-75.5 28.5h-74v-360z" />
    <glyph glyph-name="S" unicode="S" horiz-adv-x="540" 
d="M68 57l-10 -62h-10l-5 222h10l29 -70q57 -147 179 -147q58 0 96 34t38 101q0 27 -10 51t-24 40.5t-37 32t-42 24.5t-46 21q-91 39 -142.5 87t-51.5 126q0 88 65.5 140.5t169.5 52.5q102 0 170 -54l10 49h10l5 -207h-10l-30 72q-29 68 -66 99t-88 31q-47 0 -89.5 -30.5
t-42.5 -89.5q0 -55 39.5 -88t108.5 -61q209 -84 209 -228q0 -101 -68.5 -157t-173.5 -56q-100 0 -193 67z" />
    <glyph glyph-name="T" unicode="T" 
d="M23 533l5 167h544l5 -167h-10l-93 150l-108 5v-673l71 -5v-10h-274v10l71 5v673l-108 -5l-93 -150h-10z" />
    <glyph glyph-name="U" unicode="U" horiz-adv-x="760" 
d="M610 267v381l-107 42v10h234v-10l-112 -42v-378q0 -135 -64 -207.5t-186 -72.5q-139 0 -210 73.5t-71 206.5v415l-71 5v10h274v-10l-71 -5v-442q0 -226 187 -226q96 0 146.5 68t50.5 182z" />
    <glyph glyph-name="V" unicode="V" horiz-adv-x="700" 
d="M312 -5l-260 690l-49 5v10h283v-10l-81 -5l191 -556h10l166 519l-109 42v10h234v-10l-109 -42l-213 -653h-63z" />
    <glyph glyph-name="W" unicode="W" horiz-adv-x="1010" 
d="M505 430l-21 -62l-127 -373h-70l-235 690l-49 5v10h277v-10l-75 -5l175 -554h10l107 325l-75 229l-55 5v10h280v-10l-72 -5l162 -554h10l135 517l-109 42v10h234v-10l-109 -42l-175 -653h-78z" />
    <glyph glyph-name="X" unicode="X" horiz-adv-x="710" 
d="M303 311l-208 374l-67 5v10h299v-10l-74 -5l151 -269l151 232l-112 42v10h239v-10l-107 -42l-164 -244l219 -389l67 -5v-10h-309v10l82 5l-160 285l-170 -248l122 -42v-10h-249v10l107 42z" />
    <glyph glyph-name="Y" unicode="Y" horiz-adv-x="680" 
d="M279 15v228l-219 442l-57 5v10h277v-10l-65 -5l181 -374h10l149 337l-102 42v10h224v-10l-102 -42l-164 -359v-274l71 -5v-10h-274v10z" />
    <glyph glyph-name="Z" unicode="Z" 
d="M557 690l-361 -670v-10l261 5l100 152h10l-15 -167h-519v10l367 670v10l-237 -5l-100 -152h-10l5 167h499v-10z" />
    <glyph glyph-name="bracketleft" unicode="[" horiz-adv-x="380" 
d="M183 -250h160v-10h-256v1115h256v-10h-160v-1095z" />
    <glyph glyph-name="backslash" unicode="\" horiz-adv-x="480" 
d="M335 0l-210 710h20l210 -710h-20z" />
    <glyph glyph-name="bracketright" unicode="]" horiz-adv-x="380" 
d="M87 -260v10h160v1095h-160v10h256v-1115h-256z" />
    <glyph glyph-name="asciicircum" unicode="^" horiz-adv-x="510" 
d="M255 615l-145 -125h-10l150 230h10l150 -230h-10z" />
    <glyph glyph-name="underscore" unicode="_" horiz-adv-x="610" 
d="M93 -40h424v-25h-424v25z" />
    <glyph glyph-name="grave" unicode="`" horiz-adv-x="369" 
d="M254 550l-162 180h115l57 -180h-10z" />
    <glyph glyph-name="a" unicode="a" horiz-adv-x="510" 
d="M304 60v200l-65 -24q-40 -14 -58 -36.5t-18 -64.5t21.5 -66t56.5 -24q31 0 63 15zM304 -10v55h-10q-41 -29 -72.5 -42t-73.5 -13q-55 0 -86.5 30.5t-31.5 77.5q0 46 37 75t100 52l137 45v127q0 50 -22.5 72.5t-71.5 22.5q-25 0 -57 -13t-51 -31v-10q45 3 63.5 -25.5
t1.5 -58.5t-57 -30q-25 0 -42.5 17t-17.5 42q0 50 64 88.5t146 38.5q48 0 85.5 -12t64 -44.5t26.5 -83.5v-360h71v-10l-193 -10h-10z" />
    <glyph glyph-name="b" unicode="b" horiz-adv-x="580" 
d="M196 436v-385q47 -33 89 -33q59 0 92 49.5t33 182.5q0 130 -33.5 180t-91.5 50q-41 0 -89 -44zM64 -10v720h-61v10q49 2 137 8l46 2h10v-273h10q56 53 137 53q96 0 153 -73t57 -187q0 -113 -63 -186.5t-160 -73.5q-70 0 -124 40h-10l-122 -40h-10z" />
    <glyph glyph-name="c" unicode="c" horiz-adv-x="510" 
d="M277 -10q-116 0 -183 75t-67 182q0 121 80 192t185 71q83 0 132 -38t49 -90q0 -26 -17.5 -44t-42.5 -18q-44 0 -59 37q-15 35 11 61q23 23 68 17v10q-45 51 -123 51q-69 0 -110.5 -57.5t-41.5 -157.5q0 -98 48.5 -150.5t119.5 -52.5q50 0 89.5 24.5t57.5 57.5h10
q-16 -71 -70.5 -120.5t-135.5 -49.5z" />
    <glyph glyph-name="d" unicode="d" 
d="M516 10h71v-10l-193 -10h-10v53h-10q-56 -53 -137 -53q-96 0 -153 73t-57 187q0 113 63 186.5t160 73.5q70 0 124 -40h10v240h-61v10l183 10h10v-720zM384 64v385q-47 33 -89 33q-59 0 -92 -49.5t-33 -182.5q0 -130 33.5 -180t91.5 -50q41 0 89 44z" />
    <glyph glyph-name="e" unicode="e" horiz-adv-x="510" 
d="M473 290h-315q2 -99 50 -155.5t118 -56.5q49 0 89 24.5t58 57.5h10q-16 -71 -70.5 -120.5t-135.5 -49.5q-116 0 -183 75t-67 182q0 123 78 193t180 70q39 0 74 -10.5t66.5 -33.5t45 -68.5t2.5 -107.5zM280 500q-112 0 -120 -200l187 5q21 99 -1.5 147t-65.5 48z" />
    <glyph glyph-name="f" unicode="f" horiz-adv-x="340" 
d="M94 15v470h-67v10l67 5v17q0 83 63 148t144 65q40 0 64.5 -16.5t24.5 -47.5q0 -23 -16 -39.5t-43 -16.5q-29 0 -48 26t-2 77h-10q-27 0 -36 -41t-9 -122v-50h117v-15h-117v-470l101 -5v-10h-304v10z" />
    <glyph glyph-name="g" unicode="g" horiz-adv-x="545" 
d="M155 170v10q-49 18 -83.5 60.5t-34.5 93.5q0 77 60.5 126.5t152.5 49.5q67 0 131 -32q43 51 105 51q29 0 47.5 -16t18.5 -40q0 -37 -35 -47q-34 -9 -55 17q-22 25 -6 71q-15 1 -34.5 -11.5t-33.5 -29.5q33 -24 51.5 -60.5t18.5 -74.5q0 -81 -58 -129.5t-150 -48.5
q-52 0 -80 14q-25 -22 -25 -42q0 -16 15.5 -24.5t57.5 -11.5l146 -11q159 -11 159 -122q0 -81 -83 -137t-213 -56q-214 0 -214 109q0 35 30.5 61.5t81.5 41.5v10q-73 21 -73 78t103 100zM310 -29l-172 16q-42 -46 -42 -97q0 -49 38.5 -79.5t108.5 -30.5q92 0 139.5 33
t47.5 78q0 37 -28.5 56t-91.5 24zM168 335q13 -165 87 -165q44 0 61.5 40t10.5 128q-7 90 -26 126t-56 36q-91 0 -77 -165z" />
    <glyph glyph-name="h" unicode="h" horiz-adv-x="620" 
d="M546 15l71 -5v-10h-254v10l51 5v358q0 94 -72 94q-28 0 -53.5 -16.5t-62.5 -55.5v-380l71 -5v-10h-274v10l71 5v695h-61v10l183 10h10v-310h10q81 90 179 90q56 0 93.5 -36.5t37.5 -113.5v-345z" />
    <glyph glyph-name="i" unicode="i" horiz-adv-x="300" 
d="M80 657q0 33 23.5 56t56.5 23t56.5 -23t23.5 -56q0 -34 -23.5 -57t-56.5 -23t-56.5 23t-23.5 57zM226 510v-495l71 -5v-10h-274v10l71 5v475h-61v10l183 10h10z" />
    <glyph glyph-name="j" unicode="j" horiz-adv-x="280" 
d="M226 510v-527q0 -84 -63 -148.5t-145 -64.5q-39 0 -63.5 16.5t-24.5 47.5q0 23 16 39.5t43 16.5q29 0 48 -26t2 -77h10q28 0 36.5 44.5t8.5 146.5v512h-61v10l183 10h10zM80 657q0 33 23.5 56t56.5 23t56.5 -23t23.5 -56q0 -34 -23.5 -57t-56.5 -23t-56.5 23t-23.5 57z
" />
    <glyph glyph-name="k" unicode="k" horiz-adv-x="620" 
d="M226 730v-450h32l187 185l-92 25v10h229v-10l-117 -25l-112 -105l208 -345l46 -5v-10h-254v10l47 5l-143 255h-31v-255l61 -5v-10h-264v10l71 5v695h-61v10l183 10h10z" />
    <glyph glyph-name="l" unicode="l" horiz-adv-x="300" 
d="M226 730v-715l71 -5v-10h-274v10l71 5v695h-61v10l183 10h10z" />
    <glyph glyph-name="m" unicode="m" horiz-adv-x="920" 
d="M405 510q45 0 79.5 -24.5t46.5 -75.5h8q39 52 80.5 76t95.5 24q56 0 93.5 -36.5t37.5 -113.5v-345l71 -5v-10h-254v10l51 5v358q0 94 -71 94q-48 0 -107 -77v-375l71 -5v-10h-254v10l51 5v358q0 94 -71 94q-25 0 -47 -15.5t-60 -56.5v-380l71 -5v-10h-274v10l71 5v475
h-61v10l183 10h10v-90h10q40 47 78.5 68.5t90.5 21.5z" />
    <glyph glyph-name="n" unicode="n" horiz-adv-x="620" 
d="M546 15l71 -5v-10h-254v10l51 5v358q0 94 -72 94q-28 0 -53.5 -16.5t-62.5 -55.5v-380l71 -5v-10h-274v10l71 5v475h-61v10l183 10h10v-90h10q81 90 179 90q56 0 93.5 -36.5t37.5 -113.5v-345z" />
    <glyph glyph-name="o" unicode="o" horiz-adv-x="560" 
d="M280 500q-110 0 -110 -250t110 -250t110 250t-110 250zM280 -10q-106 0 -179.5 71.5t-73.5 188.5t73.5 188.5t179.5 71.5t179.5 -71.5t73.5 -188.5t-73.5 -188.5t-179.5 -71.5z" />
    <glyph glyph-name="p" unicode="p" horiz-adv-x="590" 
d="M216 30h-10v-235l71 -5v-10h-274v10l71 5v695h-61v10l183 10h10v-53h10q56 53 137 53q96 0 153 -73t57 -187q0 -113 -63 -186.5t-160 -73.5q-70 0 -124 40zM206 436v-385q47 -33 89 -33q59 0 92 49.5t33 182.5q0 130 -33.5 180t-91.5 50q-41 0 -89 -44z" />
    <glyph glyph-name="q" unicode="q" horiz-adv-x="570" 
d="M384 64v385q-47 33 -89 33q-59 0 -92 -49.5t-33 -182.5q0 -130 33.5 -180t91.5 -50q41 0 89 44zM313 -210l71 5v248h-10q-56 -53 -137 -53q-96 0 -153 73t-57 187q0 113 63 186.5t160 73.5q70 0 124 -40h10l122 40h10v-715l71 -5v-10h-274v10z" />
    <glyph glyph-name="r" unicode="r" horiz-adv-x="456" 
d="M226 373h10q60 137 142 137q28 0 48 -17.5t20 -45.5q0 -43 -32.5 -60.5t-66 1t-36.5 64.5h-10q-35 -30 -75 -134v-303l71 -5v-10h-274v10l71 5v475h-61v10l183 10h10v-137z" />
    <glyph glyph-name="s" unicode="s" horiz-adv-x="430" 
d="M205 -10q-80 0 -156 47l-6 -47h-10v157h10q32 -72 63 -107q36 -39 79 -39t67.5 26.5t24.5 64.5q0 37 -26 62.5t-84 50.5q-71 31 -103 66t-32 94q0 63 48 104t135 41q73 0 146 -46l6 46h10v-157h-10q-33 77 -68 111q-34 35 -76 35q-32 0 -55 -22.5t-23 -53.5
q0 -39 24.5 -62t65.5 -40q88 -38 126.5 -74.5t38.5 -99.5q0 -70 -55 -113.5t-140 -43.5z" />
    <glyph glyph-name="t" unicode="t" horiz-adv-x="370" 
d="M216 485v-362q0 -61 15 -83t49 -22q26 0 67 17v-10q-70 -35 -150 -35q-113 0 -113 120v375h-67v10l67 5l122 120h10v-120h131v-15h-131z" />
    <glyph glyph-name="u" unicode="u" horiz-adv-x="590" 
d="M74 490h-71v10l190 10h13v-383q0 -94 72 -94q29 0 50.5 15t55.5 57v385h-71v10l190 10h13v-493h71v-10l-193 -17h-10v90h-10q-73 -90 -169 -90q-56 0 -93.5 36.5t-37.5 113.5v350z" />
    <glyph glyph-name="v" unicode="v" horiz-adv-x="580" 
d="M353 116h10l104 349l-84 25v10h194v-10l-95 -25l-145 -470h-82l-200 490l-52 5v10h274v-10l-71 -5z" />
    <glyph glyph-name="w" unicode="w" horiz-adv-x="860" 
d="M535 -5l-114 339l-15 -48q-86 -280 -89 -291h-82l-180 490l-52 5v10h267v-10l-64 -5l127 -369h10l72 239l-44 130l-51 5v10h273v-10l-71 -5l111 -369h10l104 349l-84 25v10h194v-10l-95 -25l-145 -470h-82z" />
    <glyph glyph-name="x" unicode="x" horiz-adv-x="560" 
d="M223 225l-103 -190l92 -25v-10h-199v10l92 25l112 200l-139 250l-55 5v10h260v-10l-50 -5l95 -178l91 158l-81 25v10h199v-10l-102 -25l-101 -168l157 -282l56 -5v-10h-260v10l50 5z" />
    <glyph glyph-name="y" unicode="y" horiz-adv-x="580" 
d="M308 -46l-253 531l-52 5v10h274v-10l-71 -5l152 -344h10l99 324l-84 25v10h194v-10l-95 -25l-163 -515q-69 -180 -177 -180q-40 0 -61 17.5t-21 45.5q0 38 36.5 52.5t60.5 -11.5q24 -27 11 -84h5q32 0 70.5 46t64.5 118z" />
    <glyph glyph-name="z" unicode="z" horiz-adv-x="480" 
d="M349 15l93 132h10l-5 -147h-424v10l272 470v10l-149 -5l-93 -132h-10l5 147h394v-10l-272 -470v-10z" />
    <glyph glyph-name="braceleft" unicode="{" horiz-adv-x="430" 
d="M387 855v-10q-6 0 -18 -1q-26 -1 -40 -2.5t-37 -6.5t-35 -15.5t-25 -27.5t-16.5 -45t-0.5 -65q1 -10 18 -103.5t16 -123.5q-2 -45 -27 -79.5t-52.5 -49.5t-55.5 -27t-31 -15q1 0 17 -3.5t20 -4.5t20 -5.5t22.5 -8t20 -10.5t20 -14t17 -18t15 -23.5t9 -29t5.5 -35.5
q1 -27 -16 -119.5t-18 -103.5q-5 -53 4.5 -86t36.5 -47.5t45.5 -18t58.5 -5.5q18 -1 27 -2v-10q-51 0 -85 2.5t-69 11t-55 24t-33 43t-13 67.5q0 25 14.5 133.5t8.5 148.5q-7 59 -28 81t-84 29v9q61 8 82.5 37.5t29.5 91.5q6 40 -8.5 150t-14.5 135q0 40 13 68t33 44.5
t55 25.5t69.5 11.5t84.5 2.5z" />
    <glyph glyph-name="bar" unicode="|" horiz-adv-x="215" 
d="M100 -100v920h15v-920h-15z" />
    <glyph glyph-name="braceright" unicode="}" horiz-adv-x="430" 
d="M43 -260v10q9 1 27 2q26 1 39 2.5t34.5 6.5t33 15.5t23 26.5t15 43t0.5 63q-1 11 -18 103.5t-16 119.5q1 19 5.5 35.5t9 29t15 23.5t17 18t20 14t20 10.5t22.5 8t20 5.5t20 4.5t17 3.5q-3 2 -31 14t-55.5 27t-52.5 49.5t-27 80.5q-1 30 16 123.5t18 103.5q4 46 -4 81
q-5 17 -12.5 30t-20 21.5t-22 14t-28 8.5t-27 4t-30.5 2.5t-28 1.5v10q50 0 84.5 -2.5t69.5 -11.5t55 -25.5t33 -44.5t13 -68q0 -25 -14.5 -135t-8.5 -150q7 -61 29.5 -91t82.5 -38v-9q-63 -7 -84 -29t-28 -81q-6 -40 8.5 -148.5t14.5 -133.5q0 -40 -13 -67.5t-33 -43
t-55 -24t-69 -11t-85 -2.5z" />
    <glyph glyph-name="asciitilde" unicode="~" horiz-adv-x="550" 
d="M94 326l-7 4q60 123 113 123q20 0 99 -25t101 -25q19 0 30 6t26 25l7 -4q-57 -113 -108 -113q-23 0 -99.5 24t-99.5 24t-33.5 -7t-28.5 -32z" />
    <glyph glyph-name="exclamdown" unicode="&#xa1;" horiz-adv-x="320" 
d="M91 441q0 29 20.5 49t48.5 20t48.5 -20t20.5 -49q0 -28 -20.5 -48t-48.5 -20t-48.5 20t-20.5 48zM156 300h10l59 -520h-132z" />
    <glyph glyph-name="cent" unicode="&#xa2;" horiz-adv-x="550" 
d="M290 -100v90q-114 3 -178.5 77.5t-64.5 179.5q0 114 72 184t171 78v91h15v-90h7q83 0 132 -38t49 -90q0 -26 -17.5 -44t-42.5 -18q-44 0 -59 37q-15 35 11 61q23 23 68 17v10q-45 51 -123 51q-13 0 -25 -3v-410q16 -5 41 -5q50 0 89.5 24.5t57.5 57.5h10
q-16 -69 -68.5 -118t-129.5 -52v-90h-15zM178 281q0 -77 30.5 -126.5t81.5 -67.5v403q-52 -15 -82 -69.5t-30 -139.5z" />
    <glyph glyph-name="sterling" unicode="&#xa3;" horiz-adv-x="622" 
d="M286 365h126v-10h-124q9 -117 -114 -218l3 -7q40 4 95.5 -5.5t101 -20.5t88.5 -16.5t72 9.5t38 56h10q-8 -31 -17.5 -53.5t-30 -50.5t-57 -43.5t-85.5 -15.5q-40 0 -76.5 19t-58 42.5t-46.5 45t-45 25.5q15 -66 -1.5 -99t-58.5 -33q-32 0 -46.5 20t-11 44t18.5 39
q35 35 93 39q15 36 17 76.5t-1.5 65t-15.5 81.5h-82v10h80q-18 72 -20 92q-8 64 10 114.5t54.5 79.5t79.5 44t88 15q98 0 143 -40.5t45 -87.5q0 -27 -17.5 -44.5t-44.5 -17.5q-45 0 -59 40q-13 36 12 61q24 24 69 14v10q-55 55 -146 55q-68 0 -101 -54.5t-15 -145.5
q3 -17 14.5 -64t15.5 -71z" />
    <glyph glyph-name="currency" unicode="&#xa4;" horiz-adv-x="513" 
d="M100 249q0 68 48 114l-78 90l8 8l79 -90q44 36 100 36q55 0 99 -36l78 90l9 -8l-78 -89q50 -47 50 -115t-49 -114l76 -86l-9 -9l-77 87q-43 -35 -99 -35q-57 0 -100 35l-76 -87l-9 9l76 86q-48 46 -48 114zM112 249q0 -59 43 -102t102 -43t102.5 43t43.5 102t-43.5 102.5
t-102.5 43.5t-102 -43.5t-43 -102.5z" />
    <glyph glyph-name="yen" unicode="&#xa5;" horiz-adv-x="791" 
d="M203 255h119q-19 154 -73.5 278.5t-106.5 165.5l-10 -5q25 -21 28.5 -47.5t-12.5 -45.5t-42 -19t-42.5 15.5t-16.5 42.5q0 34 27.5 52t65.5 18q31 0 65 -10.5t75.5 -41t74.5 -77.5t59 -128.5t33 -185.5h10q38 227 91.5 335t130.5 108q30 0 47.5 -18t17.5 -43
q0 -26 -16.5 -44.5t-45.5 -18.5q-28 0 -46 23t-12 61h-10q-45 -37 -86.5 -161t-60.5 -254h125v-10h-126q-5 -42 -5 -85v-145l71 -5v-10h-274v10l71 5v117q0 65 -6 113h-120v10z" />
    <glyph glyph-name="brokenbar" unicode="&#xa6;" horiz-adv-x="215" 
d="M115 820v-360h-15v360h15zM115 260v-360h-15v360h15z" />
    <glyph glyph-name="section" unicode="&#xa7;" horiz-adv-x="604" 
d="M286 130q60 -28 109 -58q38 44 53.5 82t12 65t-25.5 52t-49 42.5t-68 36.5q-60 28 -109 58q-38 -44 -53.5 -82t-12 -65t25.5 -52t49 -42.5t68 -36.5zM255 60q-113 52 -152.5 113.5t-11.5 121t112 118.5q-84 56 -84 147q0 60 47.5 105t137.5 45q89 0 138.5 -41.5
t49.5 -88.5q0 -24 -14.5 -39.5t-35.5 -15.5q-38 0 -50 33q-11 32 14 52q20 16 56 10v10q-59 70 -158 70q-51 0 -85.5 -36.5t-34.5 -88.5q0 -19 5.5 -35.5t19 -31t22.5 -24t31.5 -22t29.5 -16.5t32 -15l25 -11q113 -52 152.5 -113.5t11.5 -121t-112 -118.5q84 -56 84 -147
q0 -60 -47.5 -105t-137.5 -45q-89 0 -138.5 41.5t-49.5 88.5q0 24 14.5 39.5t35.5 15.5q38 0 50 -33q11 -32 -14 -52q-20 -16 -56 -10v-10q59 -70 158 -70q51 0 85.5 36.5t34.5 88.5q0 19 -5.5 35.5t-19 31t-22.5 24t-31.5 22t-29.5 16.5t-32 15z" />
    <glyph glyph-name="dieresis" unicode="&#xa8;" horiz-adv-x="500" 
d="M92 615q0 27 17 44t43 17t43.5 -17t17.5 -44t-17 -43t-44 -16q-26 0 -43 16t-17 43zM287 615q0 27 17.5 44t43.5 17t43 -17t17 -44t-17 -43t-43 -16q-27 0 -44 16t-17 43z" />
    <glyph glyph-name="copyright" unicode="&#xa9;" horiz-adv-x="840" 
d="M60 350q0 149 105.5 254.5t254.5 105.5t254.5 -105.5t105.5 -254.5t-105.5 -254.5t-254.5 -105.5t-254.5 105.5t-105.5 254.5zM70 350q0 -146 102 -248t248 -102t248 102t102 248t-102 248t-248 102t-248 -102t-102 -248zM551 200q-46 -30 -116 -30q-71 0 -120.5 51
t-49.5 129t49.5 129t120.5 51q70 0 116 -30l3 -83h-5l-29 59q-13 14 -20 21t-25.5 16.5t-39.5 9.5q-44 0 -71 -50t-27 -123t27 -123t71 -50q45 0 88 46l29 60h4z" />
    <glyph glyph-name="ordfeminine" unicode="&#xaa;" horiz-adv-x="350" 
d="M194 432v120l-39 -14q-45 -16 -45 -61q0 -25 13 -39.5t34 -14.5q19 0 37 9zM194 390v33h-6q-46 -33 -87 -33q-33 0 -52 18.5t-19 46.5q0 47 82 76l82 27v76q0 30 -13.5 43.5t-42.5 13.5q-37 0 -65 -26v-6q27 2 38 -15.5t1 -35.5t-34 -18q-15 0 -25.5 10.5t-10.5 25.5
q0 30 38.5 53t87.5 23q46 0 76 -19.5t30 -64.5v-216h42v-6l-116 -6h-6zM27 320h296v-10h-296v10z" />
    <glyph glyph-name="guillemotleft" unicode="&#xab;" horiz-adv-x="680" 
d="M337 453l-98 -184l98 -186v-10l-244 185v20l244 185v-10zM587 453l-98 -184l98 -186v-10l-244 185v20l244 185v-10z" />
    <glyph glyph-name="logicalnot" unicode="&#xac;" horiz-adv-x="597" 
d="M510 285v-197h-10v187h-407v10h417z" />
    <glyph glyph-name="uni00AD" unicode="&#xad;" horiz-adv-x="510" 
d="M93 285h324v-25h-324v25z" />
    <glyph glyph-name="registered" unicode="&#xae;" horiz-adv-x="840" 
d="M60 350q0 149 105.5 254.5t254.5 105.5t254.5 -105.5t105.5 -254.5t-105.5 -254.5t-254.5 -105.5t-254.5 105.5t-105.5 254.5zM70 350q0 -146 102 -248t248 -102t248 102t102 248t-102 248t-248 102t-248 -102t-102 -248zM397 330h-27v-148l32 -2v-5h-133v5l35 2v336
l-35 2v5h153q56 0 87 -26t31 -68q0 -74 -77 -97l102 -152l16 -2v-5h-95zM370 337h14q51 0 68.5 25t17.5 66q0 90 -70 90h-30v-181z" />
    <glyph glyph-name="macron" unicode="&#xaf;" horiz-adv-x="510" 
d="M100 615h310v-15h-310v15z" />
    <glyph glyph-name="degree" unicode="&#xb0;" horiz-adv-x="375" 
d="M94 673q0 38 26 66t67 28t67.5 -28t26.5 -66t-26.5 -65.5t-67.5 -27.5t-67 27.5t-26 65.5zM103 673q0 -34 23 -59t61 -25t61.5 24.5t23.5 59.5t-23.5 60t-61.5 25t-61 -25t-23 -60z" />
    <glyph glyph-name="plusminus" unicode="&#xb1;" horiz-adv-x="560" 
d="M93 90h182v173h-182v10h182v182h10v-182h182v-10h-182v-173h182v-10h-374v10z" />
    <glyph glyph-name="twosuperior" unicode="&#xb2;" horiz-adv-x="323" 
d="M116 613v-5l157 3v-51h-223v5q53 39 87 76.5t47.5 71t17 53.5t3.5 46q0 40 -17 65.5t-50 25.5q-37 0 -63 -26v-5q33 8 41 -18q7 -22 -13 -34q-8 -5 -18 -5q-12 0 -21 8.5t-9 23.5q0 25 28.5 46.5t76.5 21.5q57 0 83.5 -30t26.5 -70q0 -105 -154 -202z" />
    <glyph glyph-name="threesuperior" unicode="&#xb3;" horiz-adv-x="327" 
d="M145 555q31 0 48.5 24.5t17.5 69.5q0 36 -18.5 63t-49.5 27h-13v6h11q31 0 45.5 22.5t14.5 52.5q0 27 -15.5 46t-42.5 19q-23 0 -40 -12t-23 -23.5t-13 -30.5h-5q8 36 35.5 63.5t67.5 27.5q45 0 72 -22t27 -57q0 -33 -25.5 -56.5t-75.5 -31.5v-2q114 -7 114 -89
q0 -49 -37 -75.5t-93 -26.5q-45 0 -71 21t-26 49q0 13 9 21.5t22 8.5q25 0 30 -24q6 -23 -16 -33q-10 -5 -24 -4v-5q26 -29 74 -29z" />
    <glyph glyph-name="acute" unicode="&#xb4;" horiz-adv-x="369" 
d="M162 730h115l-172 -180h-10z" />
    <glyph glyph-name="mu" unicode="&#xb5;" horiz-adv-x="590" 
d="M74 -22v512h-71v10l190 10h13v-391q2 -86 72 -86q29 0 50.5 15t55.5 57v385h-71v10l190 10h13v-493h71v-10l-193 -17h-10v90h-10q-73 -90 -169 -90h-4q-6 -43 -20 -80.5t-37 -70t-60.5 -51t-85.5 -18.5q-37 0 -62.5 16t-25.5 50q0 28 22 43t48.5 10t38.5 -29
q14 -29 0 -73q37 0 46 41.5t9 134.5v15z" />
    <glyph glyph-name="paragraph" unicode="&#xb6;" horiz-adv-x="690" 
d="M490 0v700h130v-10l-115 -5v-670l115 -5v-10h-130zM440 700v-700h-20q-160 0 -255 97t-95 253q0 164 94 257t256 93h20z" />
    <glyph glyph-name="periodcentered" unicode="&#xb7;" horiz-adv-x="356" 
d="M89 248q0 38 25.5 63.5t63.5 25.5t63.5 -25.5t25.5 -63.5t-25.5 -63.5t-63.5 -25.5t-63.5 25.5t-25.5 63.5z" />
    <glyph glyph-name="cedilla" unicode="&#xb8;" horiz-adv-x="373" 
d="M160 -80l3 80h10v-75q43 0 75 -21.5t32 -55.5q0 -36 -30 -57t-82 -21q-36 0 -75 12l2 9q32 -8 49 -8q31 0 48 17.5t17 49.5q0 61 -49 70z" />
    <glyph glyph-name="onesuperior" unicode="&#xb9;" horiz-adv-x="327" 
d="M50 565l80 2v329l-70 -9v5l131 23h5v-348l81 -2v-5h-227v5z" />
    <glyph glyph-name="ordmasculine" unicode="&#xba;" horiz-adv-x="350" 
d="M27 320h296v-10h-296v10zM175 696q-66 0 -66 -150t66 -150t66 150t-66 150zM175 390q-64 0 -108 42.5t-44 113.5t44 113.5t108 42.5t108 -42.5t44 -113.5t-44 -113.5t-108 -42.5z" />
    <glyph glyph-name="guillemotright" unicode="&#xbb;" horiz-adv-x="680" 
d="M441 269l-98 184v10l244 -185v-20l-244 -185v10zM191 269l-98 184v10l244 -185v-20l-244 -185v10z" />
    <glyph glyph-name="onequarter" unicode="&#xbc;" horiz-adv-x="800" 
d="M50 365l80 2v329l-70 -9v5l131 23h5v-348l81 -2v-5h-227v5zM710 86h40v-6h-40v-80h-67v80h-145v8l165 250l47 17v-269zM638 292l-130 -201v-5h135v206h-5zM590 710h10l-160 -360l-150 -350h-10l150 350z" />
    <glyph glyph-name="onehalf" unicode="&#xbd;" horiz-adv-x="800" 
d="M570 710h10l-160 -360l-150 -350h-10l150 350zM50 365l80 2v329l-70 -9v5l131 23h5v-348l81 -2v-5h-227v5zM593 53v-5l157 3v-51h-223v5q53 39 87 76.5t47.5 71t17 53.5t3.5 46q0 40 -17 65.5t-50 25.5q-37 0 -63 -26v-5q32 8 40 -16q8 -22 -10 -35q-9 -6 -21 -6
t-20.5 8.5t-8.5 23.5q0 25 28.5 46.5t75.5 21.5q58 0 84.5 -30t26.5 -70q0 -105 -154 -202z" />
    <glyph glyph-name="threequarters" unicode="&#xbe;" horiz-adv-x="800" 
d="M145 355q31 0 48.5 24.5t17.5 69.5q0 36 -18.5 63t-49.5 27h-13v6h11q31 0 45.5 22.5t14.5 52.5q0 27 -15.5 46t-42.5 19q-23 0 -40 -12t-23 -23.5t-13 -30.5h-5q8 36 35.5 63.5t67.5 27.5q45 0 72 -22t27 -57q0 -33 -25.5 -56.5t-75.5 -31.5v-2q114 -7 114 -89
q0 -49 -37 -75.5t-93 -26.5q-45 0 -71 21t-26 49q0 13 9 21.5t22 8.5q25 0 30 -24q6 -23 -16 -33q-10 -5 -24 -4v-5q26 -29 74 -29zM710 86h40v-6h-40v-80h-67v80h-145v8l165 250l47 17v-269zM638 292l-130 -201v-5h135v206h-5zM590 710h10l-160 -360l-150 -350h-10l150 350
z" />
    <glyph glyph-name="questiondown" unicode="&#xbf;" horiz-adv-x="516" 
d="M361 441q0 -28 -20 -48t-48 -20t-48.5 20t-20.5 48q0 29 20 49t49 20q28 0 48 -20.5t20 -48.5zM53 -50q0 62 53 114.5t176 70.5l5 165h10l5 -172q-126 -38 -126 -171q0 -73 40 -119t110 -46q36 0 69.5 14.5t50.5 36.5v10q-58 -8 -76 34q-14 34 10 62q18 21 49 21
q25 0 42.5 -17.5t17.5 -42.5q0 -59 -61.5 -99.5t-154.5 -40.5q-105 0 -162.5 53.5t-57.5 126.5z" />
    <glyph glyph-name="Agrave" unicode="&#xc0;" horiz-adv-x="700" 
d="M127 52l110 -42v-10h-234v10l108 42l191 593l85 65l261 -695l49 -5v-10h-283v10l81 5l-80 235h-226zM304 580h-10l-102 -318h220zM343 750l-162 180h115l57 -180h-10z" />
    <glyph glyph-name="Aacute" unicode="&#xc1;" horiz-adv-x="700" 
d="M127 52l110 -42v-10h-234v10l108 42l191 593l85 65l261 -695l49 -5v-10h-283v10l81 5l-80 235h-226zM304 580h-10l-102 -318h220zM399 930h115l-172 -180h-10z" />
    <glyph glyph-name="Acircumflex" unicode="&#xc2;" horiz-adv-x="700" 
d="M127 52l110 -42v-10h-234v10l108 42l191 593l85 65l261 -695l49 -5v-10h-283v10l81 5l-80 235h-226zM304 580h-10l-102 -318h220zM350 839l-125 -89h-10l130 180h10l130 -180h-10z" />
    <glyph glyph-name="Atilde" unicode="&#xc3;" horiz-adv-x="700" 
d="M127 52l110 -42v-10h-234v10l108 42l191 593l85 65l261 -695l49 -5v-10h-283v10l81 5l-80 235h-226zM304 580h-10l-102 -318h220zM167 775l-5 5q60 123 113 123q27 0 92.5 -29t97.5 -29q17 0 29.5 6t18.5 12t20 22l5 -5q-56 -113 -108 -113q-30 0 -97.5 29t-97.5 29
q-10 0 -18.5 -2t-16 -8.5t-11 -10.5t-11.5 -15t-11 -14z" />
    <glyph glyph-name="Adieresis" unicode="&#xc4;" horiz-adv-x="700" 
d="M127 52l110 -42v-10h-234v10l108 42l191 593l85 65l261 -695l49 -5v-10h-283v10l81 5l-80 235h-226zM304 580h-10l-102 -318h220zM192 815q0 27 17 44t43 17t43.5 -17t17.5 -44t-17 -43t-44 -16q-26 0 -43 16t-17 43zM387 815q0 27 17.5 44t43.5 17t43 -17t17 -44
t-17 -43t-43 -16q-27 0 -44 16t-17 43z" />
    <glyph glyph-name="Aring" unicode="&#xc5;" horiz-adv-x="700" 
d="M127 52l110 -42v-10h-234v10l108 42l191 593l85 65l261 -695l49 -5v-10h-283v10l81 5l-80 235h-226zM304 580h-10l-102 -318h220zM263 837q0 38 23.5 63t63.5 25t64 -25t24 -63t-24 -62.5t-64 -24.5q-38 0 -62.5 25t-24.5 62zM287 837q0 -34 16 -55.5t47 -21.5
q32 0 47.5 21.5t15.5 55.5q0 35 -15.5 56.5t-47.5 21.5q-31 0 -47 -22t-16 -56z" />
    <glyph glyph-name="AE" unicode="&#xc6;" horiz-adv-x="920" 
d="M424 602h-10l-125 -247h135v247zM128 52l317 633l-93 5v10h515l5 -167h-10l-93 152l-213 5v-335l157 4l49 111h10v-248h-10l-49 119l-157 4v-335l223 5l98 152h10l-10 -167h-524v10l71 5v330h-139l-142 -293l94 -42v-10h-234v10z" />
    <glyph glyph-name="Ccedilla" unicode="&#xc7;" horiz-adv-x="650" 
d="M373 -80l3 70q-157 4 -248 105.5t-91 254.5q0 158 95.5 259t247.5 101q68 0 129 -18.5t98 -41.5l5 -167h-10l-60 114q-18 38 -59.5 70.5t-89.5 32.5q-103 0 -158 -89.5t-55 -260.5q0 -350 213 -350q49 0 91.5 32t60.5 71l62 114h10l-10 -167q-93 -56 -221 -60v-65
q43 0 75 -21.5t32 -55.5q0 -36 -30 -57t-82 -21q-36 0 -75 12l2 9q32 -8 49 -8q31 0 48 17.5t17 49.5q0 61 -49 70z" />
    <glyph glyph-name="Egrave" unicode="&#xc8;" 
d="M236 690v-335l157 4l49 118h10v-249h-10l-49 113l-157 4v-335l223 5l98 152h10l-10 -167h-524v10l71 5v670l-71 5v10h514l5 -167h-10l-93 152zM361 750l-162 180h115l57 -180h-10z" />
    <glyph glyph-name="Eacute" unicode="&#xc9;" 
d="M236 690v-335l157 4l49 118h10v-249h-10l-49 113l-157 4v-335l223 5l98 152h10l-10 -167h-524v10l71 5v670l-71 5v10h514l5 -167h-10l-93 152zM356 930h115l-172 -180h-10z" />
    <glyph glyph-name="Ecircumflex" unicode="&#xca;" 
d="M236 690v-335l157 4l49 118h10v-249h-10l-49 113l-157 4v-335l223 5l98 152h10l-10 -167h-524v10l71 5v670l-71 5v10h514l5 -167h-10l-93 152zM300 839l-125 -89h-10l130 180h10l130 -180h-10z" />
    <glyph glyph-name="Edieresis" unicode="&#xcb;" 
d="M236 690v-335l157 4l49 118h10v-249h-10l-49 113l-157 4v-335l223 5l98 152h10l-10 -167h-524v10l71 5v670l-71 5v10h514l5 -167h-10l-93 152zM153 815q0 27 17 44t43 17t43.5 -17t17.5 -44t-17 -43t-44 -16q-26 0 -43 16t-17 43zM348 815q0 27 17.5 44t43.5 17t43 -17
t17 -44t-17 -43t-43 -16q-27 0 -44 16t-17 43z" />
    <glyph glyph-name="Igrave" unicode="&#xcc;" horiz-adv-x="340" 
d="M33 10l71 5v670l-71 5v10h274v-10l-71 -5v-670l71 -5v-10h-274v10zM155 750l-162 180h115l57 -180h-10z" />
    <glyph glyph-name="Iacute" unicode="&#xcd;" horiz-adv-x="340" 
d="M33 10l71 5v670l-71 5v10h274v-10l-71 -5v-670l71 -5v-10h-274v10zM221 930h115l-172 -180h-10z" />
    <glyph glyph-name="Icircumflex" unicode="&#xce;" horiz-adv-x="340" 
d="M33 10l71 5v670l-71 5v10h274v-10l-71 -5v-670l71 -5v-10h-274v10zM170 839l-125 -89h-10l130 180h10l130 -180h-10z" />
    <glyph glyph-name="Idieresis" unicode="&#xcf;" horiz-adv-x="340" 
d="M33 10l71 5v670l-71 5v10h274v-10l-71 -5v-670l71 -5v-10h-274v10zM12 815q0 27 17 44t43 17t43.5 -17t17.5 -44t-17 -43t-44 -16q-26 0 -43 16t-17 43zM207 815q0 27 17.5 44t43.5 17t43 -17t17 -44t-17 -43t-43 -16q-27 0 -44 16t-17 43z" />
    <glyph glyph-name="Eth" unicode="&#xd0;" horiz-adv-x="740" 
d="M37 360h67v325l-71 5v10h307q164 0 263.5 -93.5t99.5 -256.5q0 -155 -101 -252.5t-262 -97.5h-307v10l71 5v335h-67v10zM236 10h104q74 0 125.5 53.5t73 127.5t21.5 159q0 149 -57.5 244.5t-172.5 95.5h-94v-330h117v-10h-117v-340z" />
    <glyph glyph-name="Ntilde" unicode="&#xd1;" horiz-adv-x="730" 
d="M578 226h10l-3 422l-112 42v10h234v-10l-107 -42v-653h-20l-419 612h-10l4 -555l112 -42v-10h-234v10l107 42v633l-107 5v10h228zM201 775l-5 5q60 123 113 123q27 0 92.5 -29t97.5 -29q17 0 29.5 6t18.5 12t20 22l5 -5q-56 -113 -108 -113q-30 0 -97.5 29t-97.5 29
q-10 0 -18.5 -2t-16 -8.5t-11 -10.5t-11.5 -15t-11 -14z" />
    <glyph glyph-name="Ograve" unicode="&#xd2;" horiz-adv-x="780" 
d="M37 350q0 154 104.5 257t248.5 103t248.5 -103t104.5 -257t-104.5 -257t-248.5 -103t-248.5 103t-104.5 257zM180 350q0 -169 55 -259.5t155 -90.5t155 90.5t55 259.5t-55 259.5t-155 90.5t-155 -90.5t-55 -259.5zM380 750l-162 180h115l57 -180h-10z" />
    <glyph glyph-name="Oacute" unicode="&#xd3;" horiz-adv-x="780" 
d="M37 350q0 154 104.5 257t248.5 103t248.5 -103t104.5 -257t-104.5 -257t-248.5 -103t-248.5 103t-104.5 257zM180 350q0 -169 55 -259.5t155 -90.5t155 90.5t55 259.5t-55 259.5t-155 90.5t-155 -90.5t-55 -259.5zM433 930h115l-172 -180h-10z" />
    <glyph glyph-name="Ocircumflex" unicode="&#xd4;" horiz-adv-x="780" 
d="M37 350q0 154 104.5 257t248.5 103t248.5 -103t104.5 -257t-104.5 -257t-248.5 -103t-248.5 103t-104.5 257zM180 350q0 -169 55 -259.5t155 -90.5t155 90.5t55 259.5t-55 259.5t-155 90.5t-155 -90.5t-55 -259.5zM390 839l-125 -89h-10l130 180h10l130 -180h-10z" />
    <glyph glyph-name="Otilde" unicode="&#xd5;" horiz-adv-x="780" 
d="M37 350q0 154 104.5 257t248.5 103t248.5 -103t104.5 -257t-104.5 -257t-248.5 -103t-248.5 103t-104.5 257zM180 350q0 -169 55 -259.5t155 -90.5t155 90.5t55 259.5t-55 259.5t-155 90.5t-155 -90.5t-55 -259.5zM207 775l-5 5q60 123 113 123q27 0 92.5 -29t97.5 -29
q17 0 29.5 6t18.5 12t20 22l5 -5q-56 -113 -108 -113q-30 0 -97.5 29t-97.5 29q-10 0 -18.5 -2t-16 -8.5t-11 -10.5t-11.5 -15t-11 -14z" />
    <glyph glyph-name="Odieresis" unicode="&#xd6;" horiz-adv-x="780" 
d="M37 350q0 154 104.5 257t248.5 103t248.5 -103t104.5 -257t-104.5 -257t-248.5 -103t-248.5 103t-104.5 257zM180 350q0 -169 55 -259.5t155 -90.5t155 90.5t55 259.5t-55 259.5t-155 90.5t-155 -90.5t-55 -259.5zM232 815q0 27 17 44t43 17t43.5 -17t17.5 -44t-17 -43
t-44 -16q-26 0 -43 16t-17 43zM427 815q0 27 17.5 44t43.5 17t43 -17t17 -44t-17 -43t-43 -16q-27 0 -44 16t-17 43z" />
    <glyph glyph-name="multiply" unicode="&#xd7;" horiz-adv-x="550" 
d="M443 426l-158 -158l158 -158l-11 -10l-158 157l-157 -157l-10 11l157 157l-157 157l10 11l157 -157l158 157z" />
    <glyph glyph-name="Oslash" unicode="&#xd8;" horiz-adv-x="780" 
d="M691 669l8 -9l-56 -58q100 -105 100 -252q0 -154 -104.5 -257t-248.5 -103q-140 0 -241 95l-58 -60l-8 9l57 60q-103 103 -103 256q0 154 104.5 257t248.5 103q142 0 245 -100zM180 350q0 -112 24 -190l369 386q-50 154 -183 154q-100 0 -155 -90.5t-55 -259.5zM600 350
q0 106 -23 183l-369 -386q52 -147 182 -147q100 0 155 90.5t55 259.5z" />
    <glyph glyph-name="Ugrave" unicode="&#xd9;" horiz-adv-x="760" 
d="M610 267v381l-107 42v10h234v-10l-112 -42v-378q0 -135 -64 -207.5t-186 -72.5q-139 0 -210 73.5t-71 206.5v415l-71 5v10h274v-10l-71 -5v-442q0 -226 187 -226q96 0 146.5 68t50.5 182zM397 750l-162 180h115l57 -180h-10z" />
    <glyph glyph-name="Uacute" unicode="&#xda;" horiz-adv-x="760" 
d="M610 267v381l-107 42v10h234v-10l-112 -42v-378q0 -135 -64 -207.5t-186 -72.5q-139 0 -210 73.5t-71 206.5v415l-71 5v10h274v-10l-71 -5v-442q0 -226 187 -226q96 0 146.5 68t50.5 182zM455 930h115l-172 -180h-10z" />
    <glyph glyph-name="Ucircumflex" unicode="&#xdb;" horiz-adv-x="760" 
d="M610 267v381l-107 42v10h234v-10l-112 -42v-378q0 -135 -64 -207.5t-186 -72.5q-139 0 -210 73.5t-71 206.5v415l-71 5v10h274v-10l-71 -5v-442q0 -226 187 -226q96 0 146.5 68t50.5 182zM406 839l-125 -89h-10l130 180h10l130 -180h-10z" />
    <glyph glyph-name="Udieresis" unicode="&#xdc;" horiz-adv-x="760" 
d="M610 267v381l-107 42v10h234v-10l-112 -42v-378q0 -135 -64 -207.5t-186 -72.5q-139 0 -210 73.5t-71 206.5v415l-71 5v10h274v-10l-71 -5v-442q0 -226 187 -226q96 0 146.5 68t50.5 182zM249 815q0 27 17 44t43 17t43.5 -17t17.5 -44t-17 -43t-44 -16q-26 0 -43 16
t-17 43zM444 815q0 27 17.5 44t43.5 17t43 -17t17 -44t-17 -43t-43 -16q-27 0 -44 16t-17 43z" />
    <glyph glyph-name="Yacute" unicode="&#xdd;" horiz-adv-x="680" 
d="M279 15v228l-219 442l-57 5v10h277v-10l-65 -5l181 -374h10l149 337l-102 42v10h224v-10l-102 -42l-164 -359v-274l71 -5v-10h-274v10zM427 930h115l-172 -180h-10z" />
    <glyph glyph-name="Thorn" unicode="&#xde;" horiz-adv-x="610" 
d="M236 160h54q42 0 73.5 17.5t48.5 46.5t25 61t8 65q0 45 -10 85t-40 72t-75 33h-84v-380zM104 685l-71 5v10h274v-10l-71 -5v-135h117q110 0 170 -52.5t60 -137.5q0 -86 -67.5 -148t-212.5 -62h-67v-135l71 -5v-10h-274v10l71 5v670z" />
    <glyph glyph-name="germandbls" unicode="&#xdf;" horiz-adv-x="620" 
d="M413 -10q-83 0 -153 35l-5 119h10l35 -62q45 -82 110 -82q34 0 59 18t29 56q8 61 -71 122l-83 63q-21 15 -30.5 31.5t-11.5 29.5t5 31.5t14.5 29.5l22.5 33t22 34q25 40 29 104.5t-19 116t-69 51.5q-28 0 -46.5 -15.5t-28 -46.5t-13 -68t-3.5 -90v-500h-193v10l61 5v470
h-61v10l61 5q0 56 18 100t44 67.5t59 38.5t58 19.5t47 4.5q85 0 137 -33.5t52 -92.5q0 -34 -20 -62t-44 -43.5t-44 -36t-20 -40.5q0 -24 43 -55l106 -76q53 -38 68 -91.5t-4 -99t-65.5 -78t-105.5 -32.5z" />
    <glyph glyph-name="agrave" unicode="&#xe0;" horiz-adv-x="510" 
d="M304 60v200l-65 -24q-40 -14 -58 -36.5t-18 -64.5t21.5 -66t56.5 -24q31 0 63 15zM304 -10v55h-10q-41 -29 -72.5 -42t-73.5 -13q-55 0 -86.5 30.5t-31.5 77.5q0 46 37 75t100 52l137 45v127q0 50 -22.5 72.5t-71.5 22.5q-25 0 -57 -13t-51 -31v-10q45 3 63.5 -25.5
t1.5 -58.5t-57 -30q-25 0 -42.5 17t-17.5 42q0 50 64 88.5t146 38.5q48 0 85.5 -12t64 -44.5t26.5 -83.5v-360h71v-10l-193 -10h-10zM255 550l-162 180h115l57 -180h-10z" />
    <glyph glyph-name="aacute" unicode="&#xe1;" horiz-adv-x="510" 
d="M304 60v200l-65 -24q-40 -14 -58 -36.5t-18 -64.5t21.5 -66t56.5 -24q31 0 63 15zM304 -10v55h-10q-41 -29 -72.5 -42t-73.5 -13q-55 0 -86.5 30.5t-31.5 77.5q0 46 37 75t100 52l137 45v127q0 50 -22.5 72.5t-71.5 22.5q-25 0 -57 -13t-51 -31v-10q45 3 63.5 -25.5
t1.5 -58.5t-57 -30q-25 0 -42.5 17t-17.5 42q0 50 64 88.5t146 38.5q48 0 85.5 -12t64 -44.5t26.5 -83.5v-360h71v-10l-193 -10h-10zM293 730h115l-172 -180h-10z" />
    <glyph glyph-name="acircumflex" unicode="&#xe2;" horiz-adv-x="510" 
d="M304 60v200l-65 -24q-40 -14 -58 -36.5t-18 -64.5t21.5 -66t56.5 -24q31 0 63 15zM304 -10v55h-10q-41 -29 -72.5 -42t-73.5 -13q-55 0 -86.5 30.5t-31.5 77.5q0 46 37 75t100 52l137 45v127q0 50 -22.5 72.5t-71.5 22.5q-25 0 -57 -13t-51 -31v-10q45 3 63.5 -25.5
t1.5 -58.5t-57 -30q-25 0 -42.5 17t-17.5 42q0 50 64 88.5t146 38.5q48 0 85.5 -12t64 -44.5t26.5 -83.5v-360h71v-10l-193 -10h-10zM254 639l-125 -89h-10l130 180h10l130 -180h-10z" />
    <glyph glyph-name="atilde" unicode="&#xe3;" horiz-adv-x="510" 
d="M304 60v200l-65 -24q-40 -14 -58 -36.5t-18 -64.5t21.5 -66t56.5 -24q31 0 63 15zM304 -10v55h-10q-41 -29 -72.5 -42t-73.5 -13q-55 0 -86.5 30.5t-31.5 77.5q0 46 37 75t100 52l137 45v127q0 50 -22.5 72.5t-71.5 22.5q-25 0 -57 -13t-51 -31v-10q45 3 63.5 -25.5
t1.5 -58.5t-57 -30q-25 0 -42.5 17t-17.5 42q0 50 64 88.5t146 38.5q48 0 85.5 -12t64 -44.5t26.5 -83.5v-360h71v-10l-193 -10h-10zM74 575l-5 5q60 123 113 123q27 0 92.5 -29t97.5 -29q17 0 29.5 6t18.5 12t20 22l5 -5q-57 -113 -108 -113q-30 0 -97.5 29t-97.5 29
q-10 0 -18.5 -2t-16 -8.5t-11 -10.5t-11.5 -15t-11 -14z" />
    <glyph glyph-name="adieresis" unicode="&#xe4;" horiz-adv-x="510" 
d="M304 60v200l-65 -24q-40 -14 -58 -36.5t-18 -64.5t21.5 -66t56.5 -24q31 0 63 15zM304 -10v55h-10q-41 -29 -72.5 -42t-73.5 -13q-55 0 -86.5 30.5t-31.5 77.5q0 46 37 75t100 52l137 45v127q0 50 -22.5 72.5t-71.5 22.5q-25 0 -57 -13t-51 -31v-10q45 3 63.5 -25.5
t1.5 -58.5t-57 -30q-25 0 -42.5 17t-17.5 42q0 50 64 88.5t146 38.5q48 0 85.5 -12t64 -44.5t26.5 -83.5v-360h71v-10l-193 -10h-10zM92 615q0 27 17 44t43 17t43.5 -17t17.5 -44t-17 -43t-44 -16q-26 0 -43 16t-17 43zM287 615q0 27 17.5 44t43.5 17t43 -17t17 -44t-17 -43
t-43 -16q-27 0 -44 16t-17 43z" />
    <glyph glyph-name="aring" unicode="&#xe5;" horiz-adv-x="510" 
d="M304 60v200l-65 -24q-40 -14 -58 -36.5t-18 -64.5t21.5 -66t56.5 -24q31 0 63 15zM304 -10v55h-10q-41 -29 -72.5 -42t-73.5 -13q-55 0 -86.5 30.5t-31.5 77.5q0 46 37 75t100 52l137 45v127q0 50 -22.5 72.5t-71.5 22.5q-25 0 -57 -13t-51 -31v-10q45 3 63.5 -25.5
t1.5 -58.5t-57 -30q-25 0 -42.5 17t-17.5 42q0 50 64 88.5t146 38.5q48 0 85.5 -12t64 -44.5t26.5 -83.5v-360h71v-10l-193 -10h-10zM159 637q0 38 23.5 63t63.5 25t64 -25t24 -63t-24 -62.5t-64 -24.5q-38 0 -62.5 25t-24.5 62zM183 637q0 -34 16 -55.5t47 -21.5
q32 0 47.5 21.5t15.5 55.5q0 35 -15.5 56.5t-47.5 21.5q-31 0 -47 -22t-16 -56z" />
    <glyph glyph-name="ae" unicode="&#xe6;" horiz-adv-x="788" 
d="M752 290h-315q2 -99 50 -155.5t118 -56.5q48 0 88.5 24.5t58.5 57.5h10q-16 -71 -71 -120.5t-136 -49.5q-130 0 -197 92q-85 -58 -126 -75t-84 -17q-55 0 -86.5 30.5t-31.5 77.5q0 46 37 75t100 52l137 45v127q0 50 -22.5 72.5t-71.5 22.5q-25 0 -57 -13t-51 -31v-10
q45 3 63.5 -25.5t1.5 -58.5t-57 -30q-25 0 -42.5 17t-17.5 42q0 50 64 88.5t146 38.5q101 0 145 -54q71 54 158 54q39 0 74 -10.5t66.5 -33.5t45.5 -68.5t3 -107.5zM558 500q-110 0 -120 -200l187 5q22 99 -1 147t-66 48zM241 45q48 0 111 45q-48 70 -48 170l-65 -24
q-40 -14 -58 -36.5t-18 -64.5t21.5 -66t56.5 -24z" />
    <glyph glyph-name="ccedilla" unicode="&#xe7;" horiz-adv-x="510" 
d="M270 -80l3 70q-78 1 -135 38.5t-84 94.5t-27 124q0 121 80 192t185 71q83 0 132 -38t49 -90q0 -26 -17.5 -44t-42.5 -18q-44 0 -59 37q-15 35 11 61q23 23 68 17v10q-45 51 -123 51q-69 0 -110.5 -57.5t-41.5 -157.5q0 -98 48.5 -150.5t119.5 -52.5q50 0 89.5 24.5
t57.5 57.5h10q-15 -69 -68.5 -118.5t-131.5 -51.5v-65q43 0 75 -21.5t32 -55.5q0 -36 -30 -57t-82 -21q-36 0 -75 12l2 9q32 -8 49 -8q31 0 48 17.5t17 49.5q0 61 -49 70z" />
    <glyph glyph-name="egrave" unicode="&#xe8;" horiz-adv-x="510" 
d="M473 290h-315q2 -99 50 -155.5t118 -56.5q49 0 89 24.5t58 57.5h10q-16 -71 -70.5 -120.5t-135.5 -49.5q-116 0 -183 75t-67 182q0 123 78 193t180 70q39 0 74 -10.5t66.5 -33.5t45 -68.5t2.5 -107.5zM280 500q-112 0 -120 -200l187 5q21 99 -1.5 147t-65.5 48zM286 550
l-162 180h115l57 -180h-10z" />
    <glyph glyph-name="eacute" unicode="&#xe9;" horiz-adv-x="510" 
d="M473 290h-315q2 -99 50 -155.5t118 -56.5q49 0 89 24.5t58 57.5h10q-16 -71 -70.5 -120.5t-135.5 -49.5q-116 0 -183 75t-67 182q0 123 78 193t180 70q39 0 74 -10.5t66.5 -33.5t45 -68.5t2.5 -107.5zM280 500q-112 0 -120 -200l187 5q21 99 -1.5 147t-65.5 48zM304 730
h115l-172 -180h-10z" />
    <glyph glyph-name="ecircumflex" unicode="&#xea;" horiz-adv-x="510" 
d="M473 290h-315q2 -99 50 -155.5t118 -56.5q49 0 89 24.5t58 57.5h10q-16 -71 -70.5 -120.5t-135.5 -49.5q-116 0 -183 75t-67 182q0 123 78 193t180 70q39 0 74 -10.5t66.5 -33.5t45 -68.5t2.5 -107.5zM280 500q-112 0 -120 -200l187 5q21 99 -1.5 147t-65.5 48zM274 639
l-125 -89h-10l130 180h10l130 -180h-10z" />
    <glyph glyph-name="edieresis" unicode="&#xeb;" horiz-adv-x="510" 
d="M473 290h-315q2 -99 50 -155.5t118 -56.5q49 0 89 24.5t58 57.5h10q-16 -71 -70.5 -120.5t-135.5 -49.5q-116 0 -183 75t-67 182q0 123 78 193t180 70q39 0 74 -10.5t66.5 -33.5t45 -68.5t2.5 -107.5zM280 500q-112 0 -120 -200l187 5q21 99 -1.5 147t-65.5 48zM107 615
q0 27 17 44t43 17t43.5 -17t17.5 -44t-17 -43t-44 -16q-26 0 -43 16t-17 43zM302 615q0 27 17.5 44t43.5 17t43 -17t17 -44t-17 -43t-43 -16q-27 0 -44 16t-17 43z" />
    <glyph glyph-name="igrave" unicode="&#xec;" horiz-adv-x="300" 
d="M160 550l-162 180h115l57 -180h-10zM226 510v-495l71 -5v-10h-274v10l71 5v475h-61v10l183 10h10z" />
    <glyph glyph-name="iacute" unicode="&#xed;" horiz-adv-x="300" 
d="M199 730h115l-172 -180h-10zM226 510v-495l71 -5v-10h-274v10l71 5v475h-61v10l183 10h10z" />
    <glyph glyph-name="icircumflex" unicode="&#xee;" horiz-adv-x="300" 
d="M226 510v-495l71 -5v-10h-274v10l71 5v475h-61v10l183 10h10zM160 639l-125 -89h-10l130 180h10l130 -180h-10z" />
    <glyph glyph-name="idieresis" unicode="&#xef;" horiz-adv-x="300" 
d="M2 615q0 27 17 44t43 17t43.5 -17t17.5 -44t-17 -43t-44 -16q-26 0 -43 16t-17 43zM197 615q0 27 17.5 44t43.5 17t43 -17t17 -44t-17 -43t-43 -16q-27 0 -44 16t-17 43zM227 510v-495l71 -5v-10h-274v10l71 5v475h-61v10l183 10h10z" />
    <glyph glyph-name="eth" unicode="&#xf0;" horiz-adv-x="525" 
d="M154 551l106 70q-58 61 -130 79l2 10q86 -17 163 -66l117 77l8 -12l-112 -74q89 -62 139.5 -158t50.5 -210q0 -117 -64 -197t-173 -80q-94 0 -164 64.5t-70 166.5q0 90 51.5 153t139.5 63q74 0 129 -47l8 3q-7 124 -86 217l-107 -71zM170 210q0 -210 90 -210
q41 0 67.5 56t31 137t-3.5 172q-41 48 -90 48t-72 -57.5t-23 -145.5z" />
    <glyph glyph-name="ntilde" unicode="&#xf1;" horiz-adv-x="620" 
d="M546 15l71 -5v-10h-254v10l51 5v358q0 94 -72 94q-28 0 -53.5 -16.5t-62.5 -55.5v-380l71 -5v-10h-274v10l71 5v475h-61v10l183 10h10v-90h10q81 90 179 90q56 0 93.5 -36.5t37.5 -113.5v-345zM134 575l-5 5q60 123 113 123q27 0 92.5 -29t97.5 -29q17 0 29.5 6t18.5 12
t20 22l5 -5q-57 -113 -108 -113q-30 0 -97.5 29t-97.5 29q-10 0 -18.5 -2t-16 -8.5t-11 -10.5t-11.5 -15t-11 -14z" />
    <glyph glyph-name="ograve" unicode="&#xf2;" horiz-adv-x="560" 
d="M280 500q-110 0 -110 -250t110 -250t110 250t-110 250zM280 -10q-106 0 -179.5 71.5t-73.5 188.5t73.5 188.5t179.5 71.5t179.5 -71.5t73.5 -188.5t-73.5 -188.5t-179.5 -71.5zM291 550l-162 180h115l57 -180h-10z" />
    <glyph glyph-name="oacute" unicode="&#xf3;" horiz-adv-x="560" 
d="M280 500q-110 0 -110 -250t110 -250t110 250t-110 250zM280 -10q-106 0 -179.5 71.5t-73.5 188.5t73.5 188.5t179.5 71.5t179.5 -71.5t73.5 -188.5t-73.5 -188.5t-179.5 -71.5zM319 730h115l-172 -180h-10z" />
    <glyph glyph-name="ocircumflex" unicode="&#xf4;" horiz-adv-x="560" 
d="M280 500q-110 0 -110 -250t110 -250t110 250t-110 250zM280 -10q-106 0 -179.5 71.5t-73.5 188.5t73.5 188.5t179.5 71.5t179.5 -71.5t73.5 -188.5t-73.5 -188.5t-179.5 -71.5zM282 639l-125 -89h-10l130 180h10l130 -180h-10z" />
    <glyph glyph-name="otilde" unicode="&#xf5;" horiz-adv-x="560" 
d="M280 500q-110 0 -110 -250t110 -250t110 250t-110 250zM280 -10q-106 0 -179.5 71.5t-73.5 188.5t73.5 188.5t179.5 71.5t179.5 -71.5t73.5 -188.5t-73.5 -188.5t-179.5 -71.5zM98 575l-5 5q60 123 113 123q27 0 92.5 -29t97.5 -29q17 0 29.5 6t18.5 12t20 22l5 -5
q-57 -113 -108 -113q-30 0 -97.5 29t-97.5 29q-10 0 -18.5 -2t-16 -8.5t-11 -10.5t-11.5 -15t-11 -14z" />
    <glyph glyph-name="odieresis" unicode="&#xf6;" horiz-adv-x="560" 
d="M280 500q-110 0 -110 -250t110 -250t110 250t-110 250zM280 -10q-106 0 -179.5 71.5t-73.5 188.5t73.5 188.5t179.5 71.5t179.5 -71.5t73.5 -188.5t-73.5 -188.5t-179.5 -71.5zM127 615q0 27 17 44t43 17t43.5 -17t17.5 -44t-17 -43t-44 -16q-26 0 -43 16t-17 43z
M322 615q0 27 17.5 44t43.5 17t43 -17t17 -44t-17 -43t-43 -16q-27 0 -44 16t-17 43z" />
    <glyph glyph-name="divide" unicode="&#xf7;" horiz-adv-x="560" 
d="M237 121q0 21 14 35t34 14t34 -14t14 -35q0 -20 -14 -33.5t-34 -13.5t-34 13.5t-14 33.5zM237 412q0 21 14 35t34 14t34 -14t14 -35q0 -20 -14 -33.5t-34 -13.5t-34 13.5t-14 33.5zM93 272h374v-10h-374v10z" />
    <glyph glyph-name="oslash" unicode="&#xf8;" horiz-adv-x="560" 
d="M510 500l6 -8l-53 -58q70 -73 70 -184q0 -110 -70 -185t-183 -75q-100 0 -168 60l-46 -50l-8 8l46 50q-77 74 -77 192q0 110 70 185t183 75q105 0 176 -69zM390 250q0 55 -6 97l-204 -222q22 -125 100 -125q55 0 82.5 58.5t27.5 191.5zM170 232q1 -50 8 -93l204 221
q-19 140 -102 140q-102 0 -108 -195q-2 -23 -2 -73z" />
    <glyph glyph-name="ugrave" unicode="&#xf9;" horiz-adv-x="590" 
d="M74 490h-71v10l190 10h13v-383q0 -94 72 -94q29 0 50.5 15t55.5 57v385h-71v10l190 10h13v-493h71v-10l-193 -17h-10v90h-10q-73 -90 -169 -90q-56 0 -93.5 36.5t-37.5 113.5v350zM283 550l-162 180h115l57 -180h-10z" />
    <glyph glyph-name="uacute" unicode="&#xfa;" horiz-adv-x="590" 
d="M74 490h-71v10l190 10h13v-383q0 -94 72 -94q29 0 50.5 15t55.5 57v385h-71v10l190 10h13v-493h71v-10l-193 -17h-10v90h-10q-73 -90 -169 -90q-56 0 -93.5 36.5t-37.5 113.5v350zM317 730h115l-172 -180h-10z" />
    <glyph glyph-name="ucircumflex" unicode="&#xfb;" horiz-adv-x="590" 
d="M74 490h-71v10l190 10h13v-383q0 -94 72 -94q29 0 50.5 15t55.5 57v385h-71v10l190 10h13v-493h71v-10l-193 -17h-10v90h-10q-73 -90 -169 -90q-56 0 -93.5 36.5t-37.5 113.5v350zM276 639l-125 -89h-10l130 180h10l130 -180h-10z" />
    <glyph glyph-name="udieresis" unicode="&#xfc;" horiz-adv-x="590" 
d="M74 490h-71v10l190 10h13v-383q0 -94 72 -94q29 0 50.5 15t55.5 57v385h-71v10l190 10h13v-493h71v-10l-193 -17h-10v90h-10q-73 -90 -169 -90q-56 0 -93.5 36.5t-37.5 113.5v350zM132 615q0 27 17 44t43 17t43.5 -17t17.5 -44t-17 -43t-44 -16q-26 0 -43 16t-17 43z
M327 615q0 27 17.5 44t43.5 17t43 -17t17 -44t-17 -43t-43 -16q-27 0 -44 16t-17 43z" />
    <glyph glyph-name="yacute" unicode="&#xfd;" horiz-adv-x="580" 
d="M308 -46l-253 531l-52 5v10h274v-10l-71 -5l152 -344h10l99 324l-84 25v10h194v-10l-95 -25l-163 -515q-69 -180 -177 -180q-40 0 -61 17.5t-21 45.5q0 38 36.5 52.5t60.5 -11.5q24 -27 11 -84h5q32 0 70.5 46t64.5 118zM368 730h115l-172 -180h-10z" />
    <glyph glyph-name="thorn" unicode="&#xfe;" horiz-adv-x="590" 
d="M216 30h-10v-235l71 -5v-10h-274v10l71 5v915h-61v10l183 10h10v-273h10q56 53 137 53q96 0 153 -73t57 -187q0 -113 -63 -186.5t-160 -73.5q-70 0 -124 40zM206 436v-385q47 -33 89 -33q59 0 92 49.5t33 182.5q0 130 -33.5 180t-91.5 50q-41 0 -89 -44z" />
    <glyph glyph-name="ydieresis" unicode="&#xff;" horiz-adv-x="580" 
d="M308 -46l-253 531l-52 5v10h274v-10l-71 -5l152 -344h10l99 324l-84 25v10h194v-10l-95 -25l-163 -515q-69 -180 -177 -180q-40 0 -61 17.5t-21 45.5q0 38 36.5 52.5t60.5 -11.5q24 -27 11 -84h5q32 0 70.5 46t64.5 118zM174 615q0 27 17 44t43 17t43.5 -17t17.5 -44
t-17 -43t-44 -16q-26 0 -43 16t-17 43zM369 615q0 27 17.5 44t43.5 17t43 -17t17 -44t-17 -43t-43 -16q-27 0 -44 16t-17 43z" />
    <glyph glyph-name="Amacron" unicode="&#x100;" horiz-adv-x="700" 
d="M127 52l110 -42v-10h-234v10l108 42l191 593l85 65l261 -695l49 -5v-10h-283v10l81 5l-80 235h-226zM304 580h-10l-102 -318h220zM195 815h310v-15h-310v15z" />
    <glyph glyph-name="amacron" unicode="&#x101;" horiz-adv-x="510" 
d="M304 60v200l-65 -24q-40 -14 -58 -36.5t-18 -64.5t21.5 -66t56.5 -24q31 0 63 15zM304 -10v55h-10q-41 -29 -72.5 -42t-73.5 -13q-55 0 -86.5 30.5t-31.5 77.5q0 46 37 75t100 52l137 45v127q0 50 -22.5 72.5t-71.5 22.5q-25 0 -57 -13t-51 -31v-10q45 3 63.5 -25.5
t1.5 -58.5t-57 -30q-25 0 -42.5 17t-17.5 42q0 50 64 88.5t146 38.5q48 0 85.5 -12t64 -44.5t26.5 -83.5v-360h71v-10l-193 -10h-10zM101 615h310v-15h-310v15z" />
    <glyph glyph-name="Abreve" unicode="&#x102;" horiz-adv-x="700" 
d="M127 52l110 -42v-10h-234v10l108 42l191 593l85 65l261 -695l49 -5v-10h-283v10l81 5l-80 235h-226zM304 580h-10l-102 -318h220zM350 770q-63 0 -97.5 45.5t-34.5 105.5h8q17 -80 124 -80t124 80h8q0 -60 -34.5 -105.5t-97.5 -45.5z" />
    <glyph glyph-name="abreve" unicode="&#x103;" horiz-adv-x="510" 
d="M304 60v200l-65 -24q-40 -14 -58 -36.5t-18 -64.5t21.5 -66t56.5 -24q31 0 63 15zM304 -10v55h-10q-41 -29 -72.5 -42t-73.5 -13q-55 0 -86.5 30.5t-31.5 77.5q0 46 37 75t100 52l137 45v127q0 50 -22.5 72.5t-71.5 22.5q-25 0 -57 -13t-51 -31v-10q45 3 63.5 -25.5
t1.5 -58.5t-57 -30q-25 0 -42.5 17t-17.5 42q0 50 64 88.5t146 38.5q48 0 85.5 -12t64 -44.5t26.5 -83.5v-360h71v-10l-193 -10h-10zM251 570q-63 0 -97.5 45.5t-34.5 105.5h8q17 -80 124 -80t124 80h8q0 -60 -34.5 -105.5t-97.5 -45.5z" />
    <glyph glyph-name="Aogonek" unicode="&#x104;" horiz-adv-x="700" 
d="M304 580h-10l-102 -318h220zM573 0h-159v10l81 5l-80 235h-226l-62 -198l110 -42v-10h-234v10l108 42l191 593l85 65l261 -695l49 -5v-10h-114q-42 -39 -55 -90t18.5 -80t103.5 -8v-10q-13 -17 -38.5 -28.5t-48.5 -11.5q-32 0 -54.5 15.5t-29 41t-1 55t30.5 61t64 55.5z
" />
    <glyph glyph-name="aogonek" unicode="&#x105;" horiz-adv-x="510" 
d="M396 -178v-10q-13 -17 -38.5 -28.5t-48.5 -11.5q-52 0 -75.5 36.5t-5.5 89t76 92.5v55h-10q-41 -29 -72.5 -42t-73.5 -13q-55 0 -86.5 30.5t-31.5 77.5q0 46 37 75t100 52l137 45v127q0 50 -22.5 72.5t-71.5 22.5q-25 0 -57 -13t-51 -31v-10q45 3 63.5 -25.5t1.5 -58.5
t-57 -30q-25 0 -42.5 17t-17.5 42q0 50 64 88.5t146 38.5q48 0 85.5 -12t64 -44.5t26.5 -83.5v-360h71v-10l-188 -9q-38 -41 -47 -88.5t23 -74t101 -6.5zM304 60v200l-65 -24q-40 -14 -58 -36.5t-18 -64.5t21.5 -66t56.5 -24q31 0 63 15z" />
    <glyph glyph-name="Cacute" unicode="&#x106;" horiz-adv-x="650" 
d="M607 50q-37 -23 -98 -41.5t-129 -18.5q-152 0 -247.5 101t-95.5 259t95.5 259t247.5 101q68 0 129 -18.5t98 -41.5l5 -167h-10l-60 114q-18 38 -59.5 70.5t-89.5 32.5q-103 0 -158 -89.5t-55 -260.5q0 -350 213 -350q49 0 91.5 32t60.5 71l62 114h10zM404 930h115
l-172 -180h-10z" />
    <glyph glyph-name="cacute" unicode="&#x107;" horiz-adv-x="510" 
d="M277 -10q-116 0 -183 75t-67 182q0 121 80 192t185 71q83 0 132 -38t49 -90q0 -26 -17.5 -44t-42.5 -18q-44 0 -59 37q-15 35 11 61q23 23 68 17v10q-45 51 -123 51q-69 0 -110.5 -57.5t-41.5 -157.5q0 -98 48.5 -150.5t119.5 -52.5q50 0 89.5 24.5t57.5 57.5h10
q-16 -71 -70.5 -120.5t-135.5 -49.5zM300 730h115l-172 -180h-10z" />
    <glyph glyph-name="Ccircumflex" unicode="&#x108;" horiz-adv-x="650" 
d="M607 50q-37 -23 -98 -41.5t-129 -18.5q-152 0 -247.5 101t-95.5 259t95.5 259t247.5 101q68 0 129 -18.5t98 -41.5l5 -167h-10l-60 114q-18 38 -59.5 70.5t-89.5 32.5q-103 0 -158 -89.5t-55 -260.5q0 -350 213 -350q49 0 91.5 32t60.5 71l62 114h10zM381 839l-125 -89
h-10l130 180h10l130 -180h-10z" />
    <glyph glyph-name="ccircumflex" unicode="&#x109;" horiz-adv-x="510" 
d="M277 -10q-116 0 -183 75t-67 182q0 121 80 192t185 71q83 0 132 -38t49 -90q0 -26 -17.5 -44t-42.5 -18q-44 0 -59 37q-15 35 11 61q23 23 68 17v10q-45 51 -123 51q-69 0 -110.5 -57.5t-41.5 -157.5q0 -98 48.5 -150.5t119.5 -52.5q50 0 89.5 24.5t57.5 57.5h10
q-16 -71 -70.5 -120.5t-135.5 -49.5zM267 639l-125 -89h-10l130 180h10l130 -180h-10z" />
    <glyph glyph-name="Cdotaccent" unicode="&#x10a;" horiz-adv-x="650" 
d="M607 50q-37 -23 -98 -41.5t-129 -18.5q-152 0 -247.5 101t-95.5 259t95.5 259t247.5 101q68 0 129 -18.5t98 -41.5l5 -167h-10l-60 114q-18 38 -59.5 70.5t-89.5 32.5q-103 0 -158 -89.5t-55 -260.5q0 -350 213 -350q49 0 91.5 32t60.5 71l62 114h10zM314 827
q0 28 18.5 46.5t46.5 18.5t46.5 -18.5t18.5 -46.5t-18.5 -46.5t-46.5 -18.5t-46.5 18.5t-18.5 46.5z" />
    <glyph glyph-name="cdotaccent" unicode="&#x10b;" horiz-adv-x="510" 
d="M277 -10q-116 0 -183 75t-67 182q0 121 80 192t185 71q83 0 132 -38t49 -90q0 -26 -17.5 -44t-42.5 -18q-44 0 -59 37q-15 35 11 61q23 23 68 17v10q-45 51 -123 51q-69 0 -110.5 -57.5t-41.5 -157.5q0 -98 48.5 -150.5t119.5 -52.5q50 0 89.5 24.5t57.5 57.5h10
q-16 -71 -70.5 -120.5t-135.5 -49.5zM211 627q0 28 18.5 46.5t46.5 18.5t46.5 -18.5t18.5 -46.5t-18.5 -46.5t-46.5 -18.5t-46.5 18.5t-18.5 46.5z" />
    <glyph glyph-name="Ccaron" unicode="&#x10c;" horiz-adv-x="650" 
d="M607 50q-37 -23 -98 -41.5t-129 -18.5q-152 0 -247.5 101t-95.5 259t95.5 259t247.5 101q68 0 129 -18.5t98 -41.5l5 -167h-10l-60 114q-18 38 -59.5 70.5t-89.5 32.5q-103 0 -158 -89.5t-55 -260.5q0 -350 213 -350q49 0 91.5 32t60.5 71l62 114h10zM238 930h10l125 -89
l125 89h10l-130 -180h-10z" />
    <glyph glyph-name="ccaron" unicode="&#x10d;" horiz-adv-x="510" 
d="M277 -10q-116 0 -183 75t-67 182q0 121 80 192t185 71q83 0 132 -38t49 -90q0 -26 -17.5 -44t-42.5 -18q-44 0 -59 37q-15 35 11 61q23 23 68 17v10q-45 51 -123 51q-69 0 -110.5 -57.5t-41.5 -157.5q0 -98 48.5 -150.5t119.5 -52.5q50 0 89.5 24.5t57.5 57.5h10
q-16 -71 -70.5 -120.5t-135.5 -49.5zM139 730h10l125 -89l125 89h10l-130 -180h-10z" />
    <glyph glyph-name="Dcaron" unicode="&#x10e;" horiz-adv-x="740" 
d="M236 10h104q74 0 125.5 53.5t73 127.5t21.5 159q0 149 -57.5 244.5t-172.5 95.5h-94v-680zM340 0h-307v10l71 5v670l-71 5v10h307q164 0 263.5 -93.5t99.5 -256.5q0 -155 -101 -252.5t-262 -97.5zM202 930h10l125 -89l125 89h10l-130 -180h-10z" />
    <glyph glyph-name="dcaron" unicode="&#x10f;" 
d="M516 10h71v-10l-193 -10h-10v53h-10q-56 -53 -137 -53q-96 0 -153 73t-57 187q0 113 63 186.5t160 73.5q70 0 124 -40h10v240h-61v10l183 10h10v-720zM384 64v385q-47 33 -89 33q-59 0 -92 -49.5t-33 -182.5q0 -130 33.5 -180t91.5 -50q41 0 89 44zM554 824v113
q76 10 112.5 -21.5t36.5 -82.5q0 -67 -42.5 -120t-93.5 -72l-4 10q36 14 61 43t29.5 57.5t-20.5 50.5t-79 22z" />
    <glyph glyph-name="Dcroat" unicode="&#x110;" horiz-adv-x="740" 
d="M37 360h67v325l-71 5v10h307q164 0 263.5 -93.5t99.5 -256.5q0 -155 -101 -252.5t-262 -97.5h-307v10l71 5v335h-67v10zM236 10h104q74 0 125.5 53.5t73 127.5t21.5 159q0 149 -57.5 244.5t-172.5 95.5h-94v-330h117v-10h-117v-340z" />
    <glyph glyph-name="dcroat" unicode="&#x111;" 
d="M384 540h-47v10h47v160h-61v10l183 10h10v-180h47v-10h-47v-530h71v-10l-193 -10h-10v53h-10q-56 -53 -137 -53q-96 0 -153 73t-57 187q0 113 63 186.5t160 73.5q70 0 124 -40h10v70zM384 64v385q-47 33 -89 33q-59 0 -92 -49.5t-33 -182.5q0 -130 33.5 -180t91.5 -50
q41 0 89 44z" />
    <glyph glyph-name="Emacron" unicode="&#x112;" 
d="M236 690v-335l157 4l49 118h10v-249h-10l-49 113l-157 4v-335l223 5l98 152h10l-10 -167h-524v10l71 5v670l-71 5v10h514l5 -167h-10l-93 152zM177 815h310v-15h-310v15z" />
    <glyph glyph-name="emacron" unicode="&#x113;" horiz-adv-x="510" 
d="M473 290h-315q2 -99 50 -155.5t118 -56.5q49 0 89 24.5t58 57.5h10q-16 -71 -70.5 -120.5t-135.5 -49.5q-116 0 -183 75t-67 182q0 123 78 193t180 70q39 0 74 -10.5t66.5 -33.5t45 -68.5t2.5 -107.5zM280 500q-112 0 -120 -200l187 5q21 99 -1.5 147t-65.5 48zM120 615
h310v-15h-310v15z" />
    <glyph glyph-name="Ebreve" unicode="&#x114;" 
d="M236 690v-335l157 4l49 118h10v-249h-10l-49 113l-157 4v-335l223 5l98 152h10l-10 -167h-524v10l71 5v670l-71 5v10h514l5 -167h-10l-93 152zM325 770q-63 0 -97.5 45.5t-34.5 105.5h8q17 -80 124 -80t124 80h8q0 -60 -34.5 -105.5t-97.5 -45.5z" />
    <glyph glyph-name="ebreve" unicode="&#x115;" horiz-adv-x="510" 
d="M473 290h-315q2 -99 50 -155.5t118 -56.5q49 0 89 24.5t58 57.5h10q-16 -71 -70.5 -120.5t-135.5 -49.5q-116 0 -183 75t-67 182q0 123 78 193t180 70q39 0 74 -10.5t66.5 -33.5t45 -68.5t2.5 -107.5zM280 500q-112 0 -120 -200l187 5q21 99 -1.5 147t-65.5 48zM271 570
q-63 0 -97.5 45.5t-34.5 105.5h8q17 -80 124 -80t124 80h8q0 -60 -34.5 -105.5t-97.5 -45.5z" />
    <glyph glyph-name="Edotaccent" unicode="&#x116;" 
d="M236 690v-335l157 4l49 118h10v-249h-10l-49 113l-157 4v-335l223 5l98 152h10l-10 -167h-524v10l71 5v670l-71 5v10h514l5 -167h-10l-93 152zM268 827q0 28 18.5 46.5t46.5 18.5t46.5 -18.5t18.5 -46.5t-18.5 -46.5t-46.5 -18.5t-46.5 18.5t-18.5 46.5z" />
    <glyph glyph-name="edotaccent" unicode="&#x117;" horiz-adv-x="510" 
d="M473 290h-315q2 -99 50 -155.5t118 -56.5q49 0 89 24.5t58 57.5h10q-16 -71 -70.5 -120.5t-135.5 -49.5q-116 0 -183 75t-67 182q0 123 78 193t180 70q39 0 74 -10.5t66.5 -33.5t45 -68.5t2.5 -107.5zM280 500q-112 0 -120 -200l187 5q21 99 -1.5 147t-65.5 48zM200 627
q0 28 18.5 46.5t46.5 18.5t46.5 -18.5t18.5 -46.5t-18.5 -46.5t-46.5 -18.5t-46.5 18.5t-18.5 46.5z" />
    <glyph glyph-name="Eogonek" unicode="&#x118;" 
d="M547 0h-514v10l71 5v670l-71 5v10h514l5 -167h-10l-93 152l-213 5v-335l157 4l49 118h10v-249h-10l-49 113l-157 4v-335l223 5l98 152h10l-10 -167q-42 -39 -55 -90t18 -80t103 -8v-10q-13 -17 -38 -28.5t-48 -11.5q-33 0 -55.5 15.5t-29 41t-0.5 55t31 61t64 55.5z" />
    <glyph glyph-name="eogonek" unicode="&#x119;" horiz-adv-x="510" 
d="M426 -175v-10q-13 -17 -38 -28.5t-48 -11.5q-32 0 -54.5 15t-29 40.5t-1 54.5t30.5 61t64 57q-39 -13 -73 -13q-116 0 -183 75t-67 182q0 123 78 193t180 70q39 0 74 -10.5t66.5 -33.5t45 -68.5t2.5 -107.5h-315q2 -99 50 -155.5t118 -56.5q49 0 89 24.5t58 57.5h10
q-9 -39 -45 -84.5t-76 -72.5q-28 -19 -45 -47.5t-18 -55.5t11 -50t41.5 -30t74.5 5zM280 500q-112 0 -120 -200l187 5q21 99 -1.5 147t-65.5 48z" />
    <glyph glyph-name="Ecaron" unicode="&#x11a;" 
d="M236 690v-335l157 4l49 118h10v-249h-10l-49 113l-157 4v-335l223 5l98 152h10l-10 -167h-524v10l71 5v670l-71 5v10h514l5 -167h-10l-93 152zM192 930h10l125 -89l125 89h10l-130 -180h-10z" />
    <glyph glyph-name="ecaron" unicode="&#x11b;" horiz-adv-x="510" 
d="M473 290h-315q2 -99 50 -155.5t118 -56.5q49 0 89 24.5t58 57.5h10q-16 -71 -70.5 -120.5t-135.5 -49.5q-116 0 -183 75t-67 182q0 123 78 193t180 70q39 0 74 -10.5t66.5 -33.5t45 -68.5t2.5 -107.5zM280 500q-112 0 -120 -200l187 5q21 99 -1.5 147t-65.5 48zM140 730
h10l125 -89l125 89h10l-130 -180h-10z" />
    <glyph glyph-name="Gcircumflex" unicode="&#x11c;" horiz-adv-x="710" 
d="M37 350q0 158 95.5 259t247.5 101q68 0 129 -18.5t98 -41.5l5 -167h-10l-60 114q-18 38 -60.5 70.5t-88.5 32.5q-103 0 -158 -89.5t-55 -260.5q0 -163 54.5 -256.5t145.5 -93.5q70 0 120 37v238l-70 5v10h257v-10l-54 -5v-205q-36 -27 -110.5 -53.5t-142.5 -26.5
q-152 0 -247.5 101t-95.5 259zM390 839l-125 -89h-10l130 180h10l130 -180h-10z" />
    <glyph glyph-name="gcircumflex" unicode="&#x11d;" horiz-adv-x="545" 
d="M155 170v10q-49 18 -83.5 60.5t-34.5 93.5q0 77 60.5 126.5t152.5 49.5q67 0 131 -32q43 51 105 51q29 0 47.5 -16t18.5 -40q0 -37 -35 -47q-34 -9 -55 17q-22 25 -6 71q-15 1 -34.5 -11.5t-33.5 -29.5q33 -24 51.5 -60.5t18.5 -74.5q0 -81 -58 -129.5t-150 -48.5
q-52 0 -80 14q-25 -22 -25 -42q0 -16 15.5 -24.5t57.5 -11.5l146 -11q159 -11 159 -122q0 -81 -83 -137t-213 -56q-214 0 -214 109q0 35 30.5 61.5t81.5 41.5v10q-73 21 -73 78t103 100zM310 -29l-172 16q-42 -46 -42 -97q0 -49 38.5 -79.5t108.5 -30.5q92 0 139.5 33
t47.5 78q0 37 -28.5 56t-91.5 24zM168 335q13 -165 87 -165q44 0 61.5 40t10.5 128q-7 90 -26 126t-56 36q-91 0 -77 -165zM250 639l-125 -89h-10l130 180h10l130 -180h-10z" />
    <glyph glyph-name="Gbreve" unicode="&#x11e;" horiz-adv-x="710" 
d="M37 350q0 158 95.5 259t247.5 101q68 0 129 -18.5t98 -41.5l5 -167h-10l-60 114q-18 38 -60.5 70.5t-88.5 32.5q-103 0 -158 -89.5t-55 -260.5q0 -163 54.5 -256.5t145.5 -93.5q70 0 120 37v238l-70 5v10h257v-10l-54 -5v-205q-36 -27 -110.5 -53.5t-142.5 -26.5
q-152 0 -247.5 101t-95.5 259zM374 770q-63 0 -97.5 45.5t-34.5 105.5h8q17 -80 124 -80t124 80h8q0 -60 -34.5 -105.5t-97.5 -45.5z" />
    <glyph glyph-name="gbreve" unicode="&#x11f;" horiz-adv-x="545" 
d="M155 170v10q-49 18 -83.5 60.5t-34.5 93.5q0 77 60.5 126.5t152.5 49.5q67 0 131 -32q43 51 105 51q29 0 47.5 -16t18.5 -40q0 -37 -35 -47q-34 -9 -55 17q-22 25 -6 71q-15 1 -34.5 -11.5t-33.5 -29.5q33 -24 51.5 -60.5t18.5 -74.5q0 -81 -58 -129.5t-150 -48.5
q-52 0 -80 14q-25 -22 -25 -42q0 -16 15.5 -24.5t57.5 -11.5l146 -11q159 -11 159 -122q0 -81 -83 -137t-213 -56q-214 0 -214 109q0 35 30.5 61.5t81.5 41.5v10q-73 21 -73 78t103 100zM310 -29l-172 16q-42 -46 -42 -97q0 -49 38.5 -79.5t108.5 -30.5q92 0 139.5 33
t47.5 78q0 37 -28.5 56t-91.5 24zM168 335q13 -165 87 -165q44 0 61.5 40t10.5 128q-7 90 -26 126t-56 36q-91 0 -77 -165zM257 570q-63 0 -97.5 45.5t-34.5 105.5h8q17 -80 124 -80t124 80h8q0 -60 -34.5 -105.5t-97.5 -45.5z" />
    <glyph glyph-name="Gdotaccent" unicode="&#x120;" horiz-adv-x="710" 
d="M37 350q0 158 95.5 259t247.5 101q68 0 129 -18.5t98 -41.5l5 -167h-10l-60 114q-18 38 -60.5 70.5t-88.5 32.5q-103 0 -158 -89.5t-55 -260.5q0 -163 54.5 -256.5t145.5 -93.5q70 0 120 37v238l-70 5v10h257v-10l-54 -5v-205q-36 -27 -110.5 -53.5t-142.5 -26.5
q-152 0 -247.5 101t-95.5 259zM316 827q0 28 18.5 46.5t46.5 18.5t46.5 -18.5t18.5 -46.5t-18.5 -46.5t-46.5 -18.5t-46.5 18.5t-18.5 46.5z" />
    <glyph glyph-name="gdotaccent" unicode="&#x121;" horiz-adv-x="545" 
d="M155 170v10q-49 18 -83.5 60.5t-34.5 93.5q0 77 60.5 126.5t152.5 49.5q67 0 131 -32q43 51 105 51q29 0 47.5 -16t18.5 -40q0 -37 -35 -47q-34 -9 -55 17q-22 25 -6 71q-15 1 -34.5 -11.5t-33.5 -29.5q33 -24 51.5 -60.5t18.5 -74.5q0 -81 -58 -129.5t-150 -48.5
q-52 0 -80 14q-25 -22 -25 -42q0 -16 15.5 -24.5t57.5 -11.5l146 -11q159 -11 159 -122q0 -81 -83 -137t-213 -56q-214 0 -214 109q0 35 30.5 61.5t81.5 41.5v10q-73 21 -73 78t103 100zM310 -29l-172 16q-42 -46 -42 -97q0 -49 38.5 -79.5t108.5 -30.5q92 0 139.5 33
t47.5 78q0 37 -28.5 56t-91.5 24zM168 335q13 -165 87 -165q44 0 61.5 40t10.5 128q-7 90 -26 126t-56 36q-91 0 -77 -165zM184 627q0 28 18.5 46.5t46.5 18.5t46.5 -18.5t18.5 -46.5t-18.5 -46.5t-46.5 -18.5t-46.5 18.5t-18.5 46.5z" />
    <glyph glyph-name="Gcommaaccent" unicode="&#x122;" horiz-adv-x="710" 
d="M37 350q0 158 95.5 259t247.5 101q68 0 129 -18.5t98 -41.5l5 -167h-10l-60 114q-18 38 -60.5 70.5t-88.5 32.5q-103 0 -158 -89.5t-55 -260.5q0 -163 54.5 -256.5t145.5 -93.5q70 0 120 37v238l-70 5v10h257v-10l-54 -5v-205q-36 -27 -110.5 -53.5t-142.5 -26.5
q-152 0 -247.5 101t-95.5 259zM322 -163v113q76 10 112.5 -21.5t36.5 -82.5q0 -67 -42.5 -120t-93.5 -72l-4 10q36 14 61 43t29.5 57.5t-20.5 50.5t-79 22z" />
    <glyph glyph-name="gcommaaccent" unicode="&#x123;" horiz-adv-x="545" 
d="M155 170v10q-49 18 -83.5 60.5t-34.5 93.5q0 77 60.5 126.5t152.5 49.5q67 0 131 -32q43 51 105 51q29 0 47.5 -16t18.5 -40q0 -37 -35 -47q-34 -9 -55 17q-22 25 -6 71q-15 1 -34.5 -11.5t-33.5 -29.5q33 -24 51.5 -60.5t18.5 -74.5q0 -81 -58 -129.5t-150 -48.5
q-52 0 -80 14q-25 -22 -25 -42q0 -16 15.5 -24.5t57.5 -11.5l146 -11q159 -11 159 -122q0 -81 -83 -137t-213 -56q-214 0 -214 109q0 35 30.5 61.5t81.5 41.5v10q-73 21 -73 78t103 100zM310 -29l-172 16q-42 -46 -42 -97q0 -49 38.5 -79.5t108.5 -30.5q92 0 139.5 33
t47.5 78q0 37 -28.5 56t-91.5 24zM168 335q13 -165 87 -165q44 0 61.5 40t10.5 128q-7 90 -26 126t-56 36q-91 0 -77 -165zM314 668v-113q-76 -10 -112.5 21t-36.5 83q0 67 42.5 120t93.5 72l4 -10q-36 -14 -61 -43t-29.5 -57.5t20.5 -50.5t79 -22z" />
    <glyph glyph-name="Hcircumflex" unicode="&#x124;" horiz-adv-x="780" 
d="M544 15v335h-308v-335l71 -5v-10h-274v10l71 5v670l-71 5v10h274v-10l-71 -5v-323h308v323l-71 5v10h274v-10l-71 -5v-670l71 -5v-10h-274v10zM390 839l-125 -89h-10l130 180h10l130 -180h-10z" />
    <glyph glyph-name="hcircumflex" unicode="&#x125;" horiz-adv-x="620" 
d="M546 15l71 -5v-10h-254v10l51 5v358q0 94 -72 94q-28 0 -53.5 -16.5t-62.5 -55.5v-380l71 -5v-10h-274v10l71 5v695h-61v10l183 10h10v-310h10q81 90 179 90q56 0 93.5 -36.5t37.5 -113.5v-345zM160 839l-125 -89h-10l130 180h10l130 -180h-10z" />
    <glyph glyph-name="Hbar" unicode="&#x126;" horiz-adv-x="780" 
d="M104 545h-51v10h51v130l-71 5v10h274v-10l-71 -5v-130h308v130l-71 5v10h274v-10l-71 -5v-130h51v-10h-51v-530l71 -5v-10h-274v10l71 5v335h-308v-335l71 -5v-10h-274v10l71 5v530zM544 545h-308v-183h308v183z" />
    <glyph glyph-name="hbar" unicode="&#x127;" horiz-adv-x="620" 
d="M47 550h47v160h-61v10l183 10h10v-180h47v-10h-47v-120h10q81 90 179 90q56 0 93.5 -36.5t37.5 -113.5v-345l71 -5v-10h-254v10l51 5v358q0 94 -72 94q-28 0 -53.5 -16.5t-62.5 -55.5v-380l71 -5v-10h-274v10l71 5v525h-47v10z" />
    <glyph glyph-name="Itilde" unicode="&#x128;" horiz-adv-x="340" 
d="M33 10l71 5v670l-71 5v10h274v-10l-71 -5v-670l71 -5v-10h-274v10zM-13 775l-5 5q60 123 113 123q27 0 92.5 -29t97.5 -29q17 0 29.5 6t18.5 12t20 22l5 -5q-56 -113 -108 -113q-30 0 -97.5 29t-97.5 29q-10 0 -18.5 -2t-16 -8.5t-11 -10.5t-11.5 -15t-11 -14z" />
    <glyph glyph-name="itilde" unicode="&#x129;" horiz-adv-x="300" 
d="M-33 575l-5 5q60 123 113 123q27 0 92.5 -29t97.5 -29q17 0 29.5 6t18.5 12t20 22l5 -5q-56 -113 -108 -113q-30 0 -97.5 29t-97.5 29q-10 0 -18.5 -2t-16 -8.5t-11 -10.5t-11.5 -15t-11 -14zM226 510v-495l71 -5v-10h-274v10l71 5v475h-61v10l183 10h10z" />
    <glyph glyph-name="Imacron" unicode="&#x12a;" horiz-adv-x="340" 
d="M33 10l71 5v670l-71 5v10h274v-10l-71 -5v-670l71 -5v-10h-274v10zM15 815h310v-15h-310v15z" />
    <glyph glyph-name="imacron" unicode="&#x12b;" horiz-adv-x="300" 
d="M0 615h310v-15h-310v15zM226 510v-495l71 -5v-10h-274v10l71 5v475h-61v10l183 10h10z" />
    <glyph glyph-name="Ibreve" unicode="&#x12c;" horiz-adv-x="340" 
d="M33 10l71 5v670l-71 5v10h274v-10l-71 -5v-670l71 -5v-10h-274v10zM170 770q-63 0 -97.5 45.5t-34.5 105.5h8q17 -80 124 -80t124 80h8q0 -60 -34.5 -105.5t-97.5 -45.5z" />
    <glyph glyph-name="ibreve" unicode="&#x12d;" horiz-adv-x="300" 
d="M161 570q-63 0 -97.5 45.5t-34.5 105.5h8q17 -80 124 -80t124 80h8q0 -60 -34.5 -105.5t-97.5 -45.5zM226 510v-495l71 -5v-10h-274v10l71 5v475h-61v10l183 10h10z" />
    <glyph glyph-name="Iogonek" unicode="&#x12e;" horiz-adv-x="340" 
d="M190 0h-157v10l71 5v670l-71 5v10h274v-10l-71 -5v-670l71 -5v-10h-106q-25 -23 -40.5 -53t-17.5 -56.5t9.5 -47.5t40.5 -27t74 6v-10q-13 -17 -38.5 -28.5t-48.5 -11.5q-32 0 -54.5 15.5t-29 41t-1 55t30.5 61t64 55.5z" />
    <glyph glyph-name="iogonek" unicode="&#x12f;" horiz-adv-x="300" 
d="M237 -178v-10q-13 -17 -38.5 -28.5t-48.5 -11.5q-32 0 -54.5 15.5t-29 41t-1 55t30.5 61t64 55.5h-137v10l71 5v475h-61v10l183 10h10v-495l71 -5v-10h-127q-42 -39 -55 -90t18.5 -80t103.5 -8zM80 657q0 33 23.5 56t56.5 23t56.5 -23t23.5 -56q0 -34 -23.5 -57
t-56.5 -23t-56.5 23t-23.5 57z" />
    <glyph glyph-name="Idotaccent" unicode="&#x130;" horiz-adv-x="340" 
d="M33 10l71 5v670l-71 5v10h274v-10l-71 -5v-670l71 -5v-10h-274v10zM105 827q0 28 18.5 46.5t46.5 18.5t46.5 -18.5t18.5 -46.5t-18.5 -46.5t-46.5 -18.5t-46.5 18.5t-18.5 46.5z" />
    <glyph glyph-name="dotlessi" unicode="&#x131;" horiz-adv-x="300" 
d="M226 510v-495l71 -5v-10h-274v10l71 5v475h-61v10l183 10h10z" />
    <glyph glyph-name="IJ" unicode="&#x132;" horiz-adv-x="723" 
d="M33 10l71 5v670l-71 5v10h274v-10l-71 -5v-670l71 -5v-10h-274v10zM497 170v515l-71 5v10h274v-10l-71 -5v-482q0 -84 -63 -148.5t-145 -64.5q-42 0 -65 17.5t-23 45.5q0 40 37 53q36 13 62 -12q30 -29 10 -87h10q27 0 36 41t9 122z" />
    <glyph glyph-name="ij" unicode="&#x133;" horiz-adv-x="580" 
d="M80 657q0 33 23.5 56t56.5 23t56.5 -23t23.5 -56q0 -34 -23.5 -57t-56.5 -23t-56.5 23t-23.5 57zM226 510v-495l71 -5v-10h-274v10l71 5v475h-61v10q47 2 147 8zM526 510v-527q0 -84 -63 -148.5t-145 -64.5q-39 0 -63.5 16.5t-24.5 47.5q0 23 16 39.5t43 16.5
q29 0 48 -26t2 -77h10q28 0 36.5 44.5t8.5 146.5v512h-61v10l183 10h10zM380 657q0 33 23.5 56t56.5 23t56.5 -23t23.5 -56q0 -34 -23.5 -57t-56.5 -23t-56.5 23t-23.5 57z" />
    <glyph glyph-name="Jcircumflex" unicode="&#x134;" horiz-adv-x="410" 
d="M183 170v515l-70 5v10h273v-10l-70 -5v-482q0 -84 -63 -148.5t-145 -64.5q-42 0 -65 17.5t-23 45.5q0 41 38 53q36 12 61 -13q29 -29 9 -86h10q27 0 36 41t9 122zM250 839l-125 -89h-10l130 180h10l130 -180h-10z" />
    <glyph glyph-name="jcircumflex" unicode="&#x135;" horiz-adv-x="280" 
d="M226 510v-527q0 -84 -63 -148.5t-145 -64.5q-39 0 -63.5 16.5t-24.5 47.5q0 23 16 39.5t43 16.5q29 0 48 -26t2 -77h10q28 0 36.5 44.5t8.5 146.5v512h-61v10l183 10h10zM155 639l-125 -89h-10l130 180h10l130 -180h-10z" />
    <glyph glyph-name="Kcommaaccent" unicode="&#x136;" horiz-adv-x="735" 
d="M297 360l232 288l-111 42v10h264v-10l-133 -42l-184 -220l291 -413l66 -5v-10h-310v10l78 5l-225 335h-29v-335l71 -5v-10h-274v10l71 5v670l-71 5v10h274v-10l-71 -5v-325h61zM293 -158v113q76 10 112.5 -21.5t36.5 -82.5q0 -67 -42.5 -120t-93.5 -72l-4 10q36 14 61 43
t29.5 57.5t-20.5 50.5t-79 22z" />
    <glyph glyph-name="kcommaaccent" unicode="&#x137;" horiz-adv-x="620" 
d="M226 730v-450h32l187 185l-92 25v10h229v-10l-117 -25l-112 -105l208 -345l46 -5v-10h-254v10l47 5l-143 255h-31v-255l61 -5v-10h-264v10l71 5v695h-61v10l183 10h10zM236 -163v113q76 10 112.5 -21.5t36.5 -82.5q0 -67 -42.5 -120t-93.5 -72l-4 10q36 14 61 43
t29.5 57.5t-20.5 50.5t-79 22z" />
    <glyph glyph-name="kgreenlandic" unicode="&#x138;" horiz-adv-x="620" 
d="M226 510v-230h32l187 185l-92 25v10h229v-10l-117 -25l-112 -105l208 -345l46 -5v-10h-254v10l47 5l-143 255h-31v-255l61 -5v-10h-264v10l71 5v475h-61v10l183 10h10z" />
    <glyph glyph-name="Lacute" unicode="&#x139;" horiz-adv-x="580" 
d="M236 10l223 5l98 152h10l-10 -167h-524v10l71 5v670l-71 5v10h274v-10l-71 -5v-675zM226 930h115l-172 -180h-10z" />
    <glyph glyph-name="lacute" unicode="&#x13a;" horiz-adv-x="300" 
d="M226 730v-715l71 -5v-10h-274v10l71 5v695h-61v10l183 10h10zM204 950h115l-172 -180h-10z" />
    <glyph glyph-name="Lcommaaccent" unicode="&#x13b;" horiz-adv-x="580" 
d="M236 10l223 5l98 152h10l-10 -167h-524v10l71 5v670l-71 5v10h274v-10l-71 -5v-675zM245 -158v113q76 10 112.5 -21.5t36.5 -82.5q0 -67 -42.5 -120t-93.5 -72l-4 10q36 14 61 43t29.5 57.5t-20.5 50.5t-79 22z" />
    <glyph glyph-name="lcommaaccent" unicode="&#x13c;" horiz-adv-x="300" 
d="M226 730v-715l71 -5v-10h-274v10l71 5v695h-61v10l183 10h10zM83 -163v113q76 10 112.5 -21.5t36.5 -82.5q0 -67 -42.5 -120t-93.5 -72l-4 10q36 14 61 43t29.5 57.5t-20.5 50.5t-79 22z" />
    <glyph glyph-name="Lcaron" unicode="&#x13d;" horiz-adv-x="580" 
d="M236 10l223 5l98 152h10l-10 -167h-524v10l71 5v670l-71 5v10h274v-10l-71 -5v-675zM350 597v113q76 10 112.5 -21.5t36.5 -82.5q0 -67 -42.5 -120t-93.5 -72l-4 10q36 14 61 43t29.5 57.5t-20.5 50.5t-79 22z" />
    <glyph glyph-name="lcaron" unicode="&#x13e;" horiz-adv-x="300" 
d="M226 730v-715l71 -5v-10h-274v10l71 5v695h-61v10l183 10h10zM266 824v113q76 10 112.5 -21.5t36.5 -82.5q0 -67 -42.5 -120t-93.5 -72l-4 10q36 14 61 43t29.5 57.5t-20.5 50.5t-79 22z" />
    <glyph glyph-name="Ldot" unicode="&#x13f;" horiz-adv-x="580" 
d="M236 10l223 5l98 152h10l-10 -167h-524v10l71 5v670l-71 5v10h274v-10l-71 -5v-675zM313 353q0 27 17 44t43 17t43 -17t17 -44t-17 -43t-43 -16t-43 16t-17 43z" />
    <glyph glyph-name="ldot" unicode="&#x140;" horiz-adv-x="356" 
d="M226 730v-715l71 -5v-10h-274v10l71 5v695h-61v10l183 10h10zM266 343q0 27 17 44t43 17t43 -17t17 -44t-17 -43t-43 -16t-43 16t-17 43z" />
    <glyph glyph-name="Lslash" unicode="&#x141;" horiz-adv-x="580" 
d="M236 10l223 5l98 152h10l-10 -167h-524v10l71 5v308l-47 -19v15l47 19v347l-71 5v10h274v-10l-71 -5v-293l67 27v-15l-67 -27v-367z" />
    <glyph glyph-name="lslash" unicode="&#x142;" horiz-adv-x="300" 
d="M40 316l54 22v372h-61v10l183 10h10v-338l54 22v-15l-54 -22v-362l71 -5v-10h-274v10l71 5v308l-54 -22v15z" />
    <glyph glyph-name="Nacute" unicode="&#x143;" horiz-adv-x="730" 
d="M578 226h10l-3 422l-112 42v10h234v-10l-107 -42v-653h-20l-419 612h-10l4 -555l112 -42v-10h-234v10l107 42v633l-107 5v10h228zM401 930h115l-172 -180h-10z" />
    <glyph glyph-name="nacute" unicode="&#x144;" horiz-adv-x="620" 
d="M546 15l71 -5v-10h-254v10l51 5v358q0 94 -72 94q-28 0 -53.5 -16.5t-62.5 -55.5v-380l71 -5v-10h-274v10l71 5v475h-61v10l183 10h10v-90h10q81 90 179 90q56 0 93.5 -36.5t37.5 -113.5v-345zM353 730h115l-172 -180h-10z" />
    <glyph glyph-name="Ncommaaccent" unicode="&#x145;" horiz-adv-x="730" 
d="M578 226h10l-3 422l-112 42v10h234v-10l-107 -42v-653h-20l-419 612h-10l4 -555l112 -42v-10h-234v10l107 42v633l-107 5v10h228zM293 -163v113q76 10 112.5 -21.5t36.5 -82.5q0 -67 -42.5 -120t-93.5 -72l-4 10q36 14 61 43t29.5 57.5t-20.5 50.5t-79 22z" />
    <glyph glyph-name="ncommaaccent" unicode="&#x146;" horiz-adv-x="620" 
d="M546 15l71 -5v-10h-254v10l51 5v358q0 94 -72 94q-28 0 -53.5 -16.5t-62.5 -55.5v-380l71 -5v-10h-274v10l71 5v475h-61v10l183 10h10v-90h10q81 90 179 90q56 0 93.5 -36.5t37.5 -113.5v-345zM251 -163v113q76 10 112.5 -21.5t36.5 -82.5q0 -67 -42.5 -120t-93.5 -72
l-4 10q36 14 61 43t29.5 57.5t-20.5 50.5t-79 22z" />
    <glyph glyph-name="Ncaron" unicode="&#x147;" horiz-adv-x="730" 
d="M578 226h10l-3 422l-112 42v10h234v-10l-107 -42v-653h-20l-419 612h-10l4 -555l112 -42v-10h-234v10l107 42v633l-107 5v10h228zM233 930h10l125 -89l125 89h10l-130 -180h-10z" />
    <glyph glyph-name="ncaron" unicode="&#x148;" horiz-adv-x="620" 
d="M546 15l71 -5v-10h-254v10l51 5v358q0 94 -72 94q-28 0 -53.5 -16.5t-62.5 -55.5v-380l71 -5v-10h-274v10l71 5v475h-61v10l183 10h10v-90h10q81 90 179 90q56 0 93.5 -36.5t37.5 -113.5v-345zM191 730h10l125 -89l125 89h10l-130 -180h-10z" />
    <glyph glyph-name="napostrophe" unicode="&#x149;" horiz-adv-x="620" 
d="M546 15l71 -5v-10h-254v10l51 5v358q0 94 -72 94q-28 0 -53.5 -16.5t-62.5 -55.5v-380l71 -5v-10h-274v10l71 5v475h-61v10l183 10h10v-90h10q81 90 179 90q56 0 93.5 -36.5t37.5 -113.5v-345zM111 728v113q76 10 112.5 -21.5t36.5 -82.5q0 -67 -42.5 -120t-93.5 -72
l-4 10q36 14 61 43t29.5 57.5t-20.5 50.5t-79 22z" />
    <glyph glyph-name="Eng" unicode="&#x14a;" horiz-adv-x="730" 
d="M580 -2l-419 609h-10l4 -555l112 -42v-10h-234v10l107 42v633l-107 5v10h228l317 -474h10l-3 422l-112 42v10h234v-10l-107 -42v-577q0 -301 -155 -301q-33 0 -57.5 16.5t-24.5 49.5q0 28 22 43t48.5 10t38.5 -29q14 -29 0 -73q41 0 74.5 61t33.5 150z" />
    <glyph glyph-name="eng" unicode="&#x14b;" horiz-adv-x="620" 
d="M414 -22v395q0 94 -72 94q-28 0 -53.5 -16.5t-62.5 -55.5v-380l71 -5v-10h-274v10l71 5v475h-61v10l183 10h10v-90h10q81 90 179 90q56 0 93.5 -36.5t37.5 -113.5v-302q0 -51 -10 -98t-32.5 -91.5t-65 -71.5t-100.5 -27q-37 0 -62.5 16t-25.5 50q0 28 22 43t48.5 10
t38.5 -29q14 -29 0 -73q37 0 46 41.5t9 134.5v15z" />
    <glyph glyph-name="Omacron" unicode="&#x14c;" horiz-adv-x="780" 
d="M37 350q0 154 104.5 257t248.5 103t248.5 -103t104.5 -257t-104.5 -257t-248.5 -103t-248.5 103t-104.5 257zM180 350q0 -169 55 -259.5t155 -90.5t155 90.5t55 259.5t-55 259.5t-155 90.5t-155 -90.5t-55 -259.5zM235 815h310v-15h-310v15z" />
    <glyph glyph-name="omacron" unicode="&#x14d;" horiz-adv-x="560" 
d="M280 500q-110 0 -110 -250t110 -250t110 250t-110 250zM280 -10q-106 0 -179.5 71.5t-73.5 188.5t73.5 188.5t179.5 71.5t179.5 -71.5t73.5 -188.5t-73.5 -188.5t-179.5 -71.5zM132 615h310v-15h-310v15z" />
    <glyph glyph-name="Obreve" unicode="&#x14e;" horiz-adv-x="780" 
d="M37 350q0 154 104.5 257t248.5 103t248.5 -103t104.5 -257t-104.5 -257t-248.5 -103t-248.5 103t-104.5 257zM180 350q0 -169 55 -259.5t155 -90.5t155 90.5t55 259.5t-55 259.5t-155 90.5t-155 -90.5t-55 -259.5zM390 770q-63 0 -97.5 45.5t-34.5 105.5h8
q17 -80 124 -80t124 80h8q0 -60 -34.5 -105.5t-97.5 -45.5z" />
    <glyph glyph-name="obreve" unicode="&#x14f;" horiz-adv-x="560" 
d="M280 500q-110 0 -110 -250t110 -250t110 250t-110 250zM280 -10q-106 0 -179.5 71.5t-73.5 188.5t73.5 188.5t179.5 71.5t179.5 -71.5t73.5 -188.5t-73.5 -188.5t-179.5 -71.5zM281 570q-63 0 -97.5 45.5t-34.5 105.5h8q17 -80 124 -80t124 80h8q0 -60 -34.5 -105.5
t-97.5 -45.5z" />
    <glyph glyph-name="Ohungarumlaut" unicode="&#x150;" horiz-adv-x="780" 
d="M37 350q0 154 104.5 257t248.5 103t248.5 -103t104.5 -257t-104.5 -257t-248.5 -103t-248.5 103t-104.5 257zM180 350q0 -169 55 -259.5t155 -90.5t155 90.5t55 259.5t-55 259.5t-155 90.5t-155 -90.5t-55 -259.5zM500 950h109l-162 -200h-10zM340 950h109l-162 -200h-10
z" />
    <glyph glyph-name="ohungarumlaut" unicode="&#x151;" horiz-adv-x="560" 
d="M280 500q-110 0 -110 -250t110 -250t110 250t-110 250zM280 -10q-106 0 -179.5 71.5t-73.5 188.5t73.5 188.5t179.5 71.5t179.5 -71.5t73.5 -188.5t-73.5 -188.5t-179.5 -71.5zM394 750h109l-162 -200h-10zM234 750h109l-162 -200h-10z" />
    <glyph glyph-name="OE" unicode="&#x152;" horiz-adv-x="970" 
d="M180 350q0 -169 55 -259.5t155 -90.5q55 0 76 42t21 131v353q0 90 -21 132t-76 42q-100 0 -155 -90.5t-55 -259.5zM927 0h-463q-35 -10 -74 -10q-144 0 -248.5 103t-104.5 257t104.5 257t248.5 103q39 0 74 -10h453l5 -167h-10l-93 152l-199 5v-335l143 4l49 118h10v-249
h-10l-49 113l-143 4v-335l209 5l98 152h10z" />
    <glyph glyph-name="oe" unicode="&#x153;" horiz-adv-x="885" 
d="M655 500q-112 0 -120 -200l187 5q21 99 -1.5 147t-65.5 48zM280 500q-55 0 -82.5 -58.5t-27.5 -191.5t27.5 -191.5t82.5 -58.5t82.5 58.5t27.5 191.5t-27.5 191.5t-82.5 58.5zM848 290h-315q2 -99 50 -155.5t118 -56.5q49 0 89 24.5t58 57.5h10q-16 -71 -70.5 -120.5
t-135.5 -49.5q-118 0 -187 81q-70 -81 -185 -81q-113 0 -183 75t-70 185t70 185t183 75q119 0 188 -84q36 40 87 62t105 22q39 0 74 -10.5t66.5 -33.5t45 -68.5t2.5 -107.5z" />
    <glyph glyph-name="Racute" unicode="&#x154;" horiz-adv-x="670" 
d="M278 320h-42v-305l71 -5v-10h-274v10l71 5v670l-71 5v10h310q110 0 170 -51.5t60 -136.5q0 -68 -53.5 -120.5t-162.5 -59.5v-10q69 -5 119 -84l142 -223l39 -5v-10h-190zM236 330h54q82 0 113.5 44t31.5 128q0 52 -10 91.5t-39.5 68t-75.5 28.5h-74v-360zM354 930h115
l-172 -180h-10z" />
    <glyph glyph-name="racute" unicode="&#x155;" horiz-adv-x="456" 
d="M226 373h10q60 137 142 137q28 0 48 -17.5t20 -45.5q0 -43 -32.5 -60.5t-66 1t-36.5 64.5h-10q-35 -30 -75 -134v-303l71 -5v-10h-274v10l71 5v475h-61v10l183 10h10v-137zM219 730h115l-172 -180h-10z" />
    <glyph glyph-name="Rcommaaccent" unicode="&#x156;" horiz-adv-x="670" 
d="M278 320h-42v-305l71 -5v-10h-274v10l71 5v670l-71 5v10h310q110 0 170 -51.5t60 -136.5q0 -68 -53.5 -120.5t-162.5 -59.5v-10q69 -5 119 -84l142 -223l39 -5v-10h-190zM236 330h54q82 0 113.5 44t31.5 128q0 52 -10 91.5t-39.5 68t-75.5 28.5h-74v-360zM286 -159v113
q76 10 112.5 -21.5t36.5 -82.5q0 -67 -42.5 -120t-93.5 -72l-4 10q36 14 61 43t29.5 57.5t-20.5 50.5t-79 22z" />
    <glyph glyph-name="rcommaaccent" unicode="&#x157;" horiz-adv-x="456" 
d="M226 373h10q60 137 142 137q28 0 48 -17.5t20 -45.5q0 -43 -32.5 -60.5t-66 1t-36.5 64.5h-10q-35 -30 -75 -134v-303l71 -5v-10h-274v10l71 5v475h-61v10l183 10h10v-137zM81 -163v113q76 10 112.5 -21.5t36.5 -82.5q0 -67 -42.5 -120t-93.5 -72l-4 10q36 14 61 43
t29.5 57.5t-20.5 50.5t-79 22z" />
    <glyph glyph-name="Rcaron" unicode="&#x158;" horiz-adv-x="670" 
d="M278 320h-42v-305l71 -5v-10h-274v10l71 5v670l-71 5v10h310q110 0 170 -51.5t60 -136.5q0 -68 -53.5 -120.5t-162.5 -59.5v-10q69 -5 119 -84l142 -223l39 -5v-10h-190zM236 330h54q82 0 113.5 44t31.5 128q0 52 -10 91.5t-39.5 68t-75.5 28.5h-74v-360zM183 930h10
l125 -89l125 89h10l-130 -180h-10z" />
    <glyph glyph-name="rcaron" unicode="&#x159;" horiz-adv-x="456" 
d="M226 373h10q60 137 142 137q28 0 48 -17.5t20 -45.5q0 -43 -32.5 -60.5t-66 1t-36.5 64.5h-10q-35 -30 -75 -134v-303l71 -5v-10h-274v10l71 5v475h-61v10l183 10h10v-137zM90 730h10l125 -89l125 89h10l-130 -180h-10z" />
    <glyph glyph-name="Sacute" unicode="&#x15a;" horiz-adv-x="540" 
d="M68 57l-10 -62h-10l-5 222h10l29 -70q57 -147 179 -147q58 0 96 34t38 101q0 27 -10 51t-24 40.5t-37 32t-42 24.5t-46 21q-91 39 -142.5 87t-51.5 126q0 88 65.5 140.5t169.5 52.5q102 0 170 -54l10 49h10l5 -207h-10l-30 72q-29 68 -66 99t-88 31q-47 0 -89.5 -30.5
t-42.5 -89.5q0 -55 39.5 -88t108.5 -61q209 -84 209 -228q0 -101 -68.5 -157t-173.5 -56q-100 0 -193 67zM302 930h115l-172 -180h-10z" />
    <glyph glyph-name="sacute" unicode="&#x15b;" horiz-adv-x="430" 
d="M205 -10q-80 0 -156 47l-6 -47h-10v157h10q32 -72 63 -107q36 -39 79 -39t67.5 26.5t24.5 64.5q0 37 -26 62.5t-84 50.5q-71 31 -103 66t-32 94q0 63 48 104t135 41q73 0 146 -46l6 46h10v-157h-10q-33 77 -68 111q-34 35 -76 35q-32 0 -55 -22.5t-23 -53.5
q0 -39 24.5 -62t65.5 -40q88 -38 126.5 -74.5t38.5 -99.5q0 -70 -55 -113.5t-140 -43.5zM247 730h115l-172 -180h-10z" />
    <glyph glyph-name="Scircumflex" unicode="&#x15c;" horiz-adv-x="540" 
d="M68 57l-10 -62h-10l-5 222h10l29 -70q57 -147 179 -147q58 0 96 34t38 101q0 27 -10 51t-24 40.5t-37 32t-42 24.5t-46 21q-91 39 -142.5 87t-51.5 126q0 88 65.5 140.5t169.5 52.5q102 0 170 -54l10 49h10l5 -207h-10l-30 72q-29 68 -66 99t-88 31q-47 0 -89.5 -30.5
t-42.5 -89.5q0 -55 39.5 -88t108.5 -61q209 -84 209 -228q0 -101 -68.5 -157t-173.5 -56q-100 0 -193 67zM279 839l-125 -89h-10l130 180h10l130 -180h-10z" />
    <glyph glyph-name="scircumflex" unicode="&#x15d;" horiz-adv-x="430" 
d="M205 -10q-80 0 -156 47l-6 -47h-10v157h10q32 -72 63 -107q36 -39 79 -39t67.5 26.5t24.5 64.5q0 37 -26 62.5t-84 50.5q-71 31 -103 66t-32 94q0 63 48 104t135 41q73 0 146 -46l6 46h10v-157h-10q-33 77 -68 111q-34 35 -76 35q-32 0 -55 -22.5t-23 -53.5
q0 -39 24.5 -62t65.5 -40q88 -38 126.5 -74.5t38.5 -99.5q0 -70 -55 -113.5t-140 -43.5zM217 639l-125 -89h-10l130 180h10l130 -180h-10z" />
    <glyph glyph-name="Scedilla" unicode="&#x15e;" horiz-adv-x="540" 
d="M260 -80l3 70h-2q-100 0 -193 67l-10 -62h-10l-5 222h10l29 -70q57 -147 179 -147q58 0 96 34t38 101q0 27 -10 51t-24 40.5t-37 32t-42 24.5t-46 21q-91 39 -142.5 87t-51.5 126q0 88 65.5 140.5t169.5 52.5q102 0 170 -54l10 49h10l5 -207h-10l-30 72q-29 68 -66 99
t-88 31q-47 0 -89.5 -30.5t-42.5 -89.5q0 -55 39.5 -88t108.5 -61q209 -84 209 -228q0 -98 -65 -154t-165 -59v-65q43 0 75 -21.5t32 -55.5q0 -36 -30 -57t-82 -21q-36 0 -75 12l2 9q32 -8 49 -8q31 0 48 17.5t17 49.5q0 61 -49 70z" />
    <glyph glyph-name="scedilla" unicode="&#x15f;" horiz-adv-x="430" 
d="M192 -80l2 70q-74 3 -145 47l-6 -47h-10v157h10q20 -45 42 -79q24 -37 47.5 -52t56.5 -15q42 0 65 28.5t23 62.5q0 37 -26 62.5t-84 50.5q-71 31 -103 66t-32 94q0 63 48 104t135 41q73 0 146 -46l6 46h10v-157h-10q-33 77 -68 111q-34 35 -76 35q-32 0 -55 -22.5
t-23 -53.5q0 -39 24.5 -62t65.5 -40q88 -38 126.5 -74.5t38.5 -99.5q0 -70 -55 -113.5t-140 -43.5v-65q43 0 75 -21.5t32 -55.5q0 -36 -30 -57t-82 -21q-36 0 -75 12l2 9q32 -8 49 -8q31 0 48 17.5t17 49.5q0 61 -49 70z" />
    <glyph glyph-name="Scaron" unicode="&#x160;" horiz-adv-x="540" 
d="M68 57l-10 -62h-10l-5 222h10l29 -70q57 -147 179 -147q58 0 96 34t38 101q0 27 -10 51t-24 40.5t-37 32t-42 24.5t-46 21q-91 39 -142.5 87t-51.5 126q0 88 65.5 140.5t169.5 52.5q102 0 170 -54l10 49h10l5 -207h-10l-30 72q-29 68 -66 99t-88 31q-47 0 -89.5 -30.5
t-42.5 -89.5q0 -55 39.5 -88t108.5 -61q209 -84 209 -228q0 -101 -68.5 -157t-173.5 -56q-100 0 -193 67zM135 930h10l125 -89l125 89h10l-130 -180h-10z" />
    <glyph glyph-name="scaron" unicode="&#x161;" horiz-adv-x="430" 
d="M205 -10q-80 0 -156 47l-6 -47h-10v157h10q32 -72 63 -107q36 -39 79 -39t67.5 26.5t24.5 64.5q0 37 -26 62.5t-84 50.5q-71 31 -103 66t-32 94q0 63 48 104t135 41q73 0 146 -46l6 46h10v-157h-10q-33 77 -68 111q-34 35 -76 35q-32 0 -55 -22.5t-23 -53.5
q0 -39 24.5 -62t65.5 -40q88 -38 126.5 -74.5t38.5 -99.5q0 -70 -55 -113.5t-140 -43.5zM83 730h10l125 -89l125 89h10l-130 -180h-10z" />
    <glyph glyph-name="Tcommaaccent" unicode="&#x162;" 
d="M23 533l5 167h544l5 -167h-10l-93 150l-108 5v-673l71 -5v-10h-274v10l71 5v673l-108 -5l-93 -150h-10zM225 -163v113q76 10 112.5 -21.5t36.5 -82.5q0 -67 -42.5 -120t-93.5 -72l-4 10q36 14 61 43t29.5 57.5t-20.5 50.5t-79 22z" />
    <glyph glyph-name="tcommaaccent" unicode="&#x163;" horiz-adv-x="370" 
d="M216 485v-362q0 -61 15 -83t49 -22q26 0 67 17v-10q-70 -35 -150 -35q-113 0 -113 120v375h-67v10l67 5l122 120h10v-120h131v-15h-131zM106 -163v113q76 10 112.5 -21.5t36.5 -82.5q0 -67 -42.5 -120t-93.5 -72l-4 10q36 14 61 43t29.5 57.5t-20.5 50.5t-79 22z" />
    <glyph glyph-name="Tcaron" unicode="&#x164;" 
d="M23 533l5 167h544l5 -167h-10l-93 150l-108 5v-673l71 -5v-10h-274v10l71 5v673l-108 -5l-93 -150h-10zM165 930h10l125 -89l125 89h10l-130 -180h-10z" />
    <glyph glyph-name="tcaron" unicode="&#x165;" horiz-adv-x="370" 
d="M216 485v-362q0 -61 15 -83t49 -22q26 0 67 17v-10q-70 -35 -150 -35q-113 0 -113 120v375h-67v10l67 5l122 120h10v-120h131v-15h-131zM249 734v113q76 10 112.5 -21.5t36.5 -82.5q0 -67 -42.5 -120t-93.5 -72l-4 10q36 14 61 43t29.5 57.5t-20.5 50.5t-79 22z" />
    <glyph glyph-name="Tbar" unicode="&#x166;" 
d="M366 375h87v-10h-87v-350l71 -5v-10h-274v10l71 5v350h-87v10h87v313l-108 -5l-93 -150h-10l5 167h544l5 -167h-10l-93 150l-108 5v-313z" />
    <glyph glyph-name="tbar" unicode="&#x167;" horiz-adv-x="370" 
d="M37 270h47v215h-67v10l67 5l122 120h10v-120h131v-15h-131v-215h67v-10h-67v-137q0 -61 15 -83t49 -22q26 0 67 17v-10q-70 -35 -150 -35q-113 0 -113 120v150h-47v10z" />
    <glyph glyph-name="Utilde" unicode="&#x168;" horiz-adv-x="760" 
d="M610 267v381l-107 42v10h234v-10l-112 -42v-378q0 -135 -64 -207.5t-186 -72.5q-139 0 -210 73.5t-71 206.5v415l-71 5v10h274v-10l-71 -5v-442q0 -226 187 -226q96 0 146.5 68t50.5 182zM226 775l-5 5q60 123 113 123q27 0 92.5 -29t97.5 -29q17 0 29.5 6t18.5 12t20 22
l5 -5q-57 -113 -108 -113q-30 0 -97.5 29t-97.5 29q-10 0 -18.5 -2t-16 -8.5t-11 -10.5t-11.5 -15t-11 -14z" />
    <glyph glyph-name="utilde" unicode="&#x169;" horiz-adv-x="590" 
d="M74 490h-71v10l190 10h13v-383q0 -94 72 -94q29 0 50.5 15t55.5 57v385h-71v10l190 10h13v-493h71v-10l-193 -17h-10v90h-10q-73 -90 -169 -90q-56 0 -93.5 36.5t-37.5 113.5v350zM110 575l-5 5q60 123 113 123q27 0 92.5 -29t97.5 -29q17 0 29.5 6t18.5 12t20 22l5 -5
q-57 -113 -108 -113q-30 0 -97.5 29t-97.5 29q-10 0 -18.5 -2t-16 -8.5t-11 -10.5t-11.5 -15t-11 -14z" />
    <glyph glyph-name="Umacron" unicode="&#x16a;" horiz-adv-x="760" 
d="M610 267v381l-107 42v10h234v-10l-112 -42v-378q0 -135 -64 -207.5t-186 -72.5q-139 0 -210 73.5t-71 206.5v415l-71 5v10h274v-10l-71 -5v-442q0 -226 187 -226q96 0 146.5 68t50.5 182zM246 815h310v-15h-310v15z" />
    <glyph glyph-name="umacron" unicode="&#x16b;" horiz-adv-x="590" 
d="M74 490h-71v10l190 10h13v-383q0 -94 72 -94q29 0 50.5 15t55.5 57v385h-71v10l190 10h13v-493h71v-10l-193 -17h-10v90h-10q-73 -90 -169 -90q-56 0 -93.5 36.5t-37.5 113.5v350zM137 615h310v-15h-310v15z" />
    <glyph glyph-name="Ubreve" unicode="&#x16c;" horiz-adv-x="760" 
d="M610 267v381l-107 42v10h234v-10l-112 -42v-378q0 -135 -64 -207.5t-186 -72.5q-139 0 -210 73.5t-71 206.5v415l-71 5v10h274v-10l-71 -5v-442q0 -226 187 -226q96 0 146.5 68t50.5 182zM408 770q-63 0 -97.5 45.5t-34.5 105.5h8q17 -80 124 -80t124 80h8
q0 -60 -34.5 -105.5t-97.5 -45.5z" />
    <glyph glyph-name="ubreve" unicode="&#x16d;" horiz-adv-x="590" 
d="M74 490h-71v10l190 10h13v-383q0 -94 72 -94q29 0 50.5 15t55.5 57v385h-71v10l190 10h13v-493h71v-10l-193 -17h-10v90h-10q-73 -90 -169 -90q-56 0 -93.5 36.5t-37.5 113.5v350zM284 570q-63 0 -97.5 45.5t-34.5 105.5h8q17 -80 124 -80t124 80h8q0 -60 -34.5 -105.5
t-97.5 -45.5z" />
    <glyph glyph-name="Uring" unicode="&#x16e;" horiz-adv-x="760" 
d="M610 267v381l-107 42v10h234v-10l-112 -42v-378q0 -135 -64 -207.5t-186 -72.5q-139 0 -210 73.5t-71 206.5v415l-71 5v10h274v-10l-71 -5v-442q0 -226 187 -226q96 0 146.5 68t50.5 182zM324 837q0 38 23.5 63t63.5 25t64 -25t24 -63t-24 -62.5t-64 -24.5
q-38 0 -62.5 25t-24.5 62zM348 837q0 -34 16 -55.5t47 -21.5q32 0 47.5 21.5t15.5 55.5q0 35 -15.5 56.5t-47.5 21.5q-31 0 -47 -22t-16 -56z" />
    <glyph glyph-name="uring" unicode="&#x16f;" horiz-adv-x="590" 
d="M74 490h-71v10l190 10h13v-383q0 -94 72 -94q29 0 50.5 15t55.5 57v385h-71v10l190 10h13v-493h71v-10l-193 -17h-10v90h-10q-73 -90 -169 -90q-56 0 -93.5 36.5t-37.5 113.5v350zM207 637q0 38 23.5 63t63.5 25t64 -25t24 -63t-24 -62.5t-64 -24.5q-38 0 -62.5 25
t-24.5 62zM231 637q0 -34 16 -55.5t47 -21.5q32 0 47.5 21.5t15.5 55.5q0 35 -15.5 56.5t-47.5 21.5q-31 0 -47 -22t-16 -56z" />
    <glyph glyph-name="Uhungarumlaut" unicode="&#x170;" horiz-adv-x="760" 
d="M610 267v381l-107 42v10h234v-10l-112 -42v-378q0 -135 -64 -207.5t-186 -72.5q-139 0 -210 73.5t-71 206.5v415l-71 5v10h274v-10l-71 -5v-442q0 -226 187 -226q96 0 146.5 68t50.5 182zM516 950h109l-162 -200h-10zM356 950h109l-162 -200h-10z" />
    <glyph glyph-name="uhungarumlaut" unicode="&#x171;" horiz-adv-x="590" 
d="M74 490h-71v10l190 10h13v-383q0 -94 72 -94q29 0 50.5 15t55.5 57v385h-71v10l190 10h13v-493h71v-10l-193 -17h-10v90h-10q-73 -90 -169 -90q-56 0 -93.5 36.5t-37.5 113.5v350zM395 750h109l-162 -200h-10zM235 750h109l-162 -200h-10z" />
    <glyph glyph-name="Uogonek" unicode="&#x172;" horiz-adv-x="760" 
d="M460 -178v-10q-13 -17 -38 -28.5t-48 -11.5q-52 0 -75.5 36.5t-5.5 88.5t76 93q-136 2 -205.5 75.5t-69.5 204.5v415l-71 5v10h274v-10l-71 -5v-442q0 -226 187 -226q96 0 146.5 68t50.5 182v381l-107 42v10h234v-10l-112 -42v-378q0 -133 -61.5 -205t-179.5 -75
q-28 -30 -40.5 -66t-5 -64t36.5 -41t85 3z" />
    <glyph glyph-name="uogonek" unicode="&#x173;" horiz-adv-x="590" 
d="M476 -178v-10q-13 -17 -38 -28.5t-48 -11.5q-31 0 -53 14.5t-29.5 38.5t-4 52t24.5 58.5t56 54.5v90h-10q-73 -90 -169 -90q-56 0 -93.5 36.5t-37.5 113.5v350h-71v10l190 10h13v-383q0 -94 72 -94q29 0 50.5 15t55.5 57v385h-71v10l190 10h13v-493h71v-10l-187 -16
q-38 -41 -47.5 -88.5t22.5 -74t101 -6.5z" />
    <glyph glyph-name="Wcircumflex" unicode="&#x174;" horiz-adv-x="1010" 
d="M505 430l-21 -62l-127 -373h-70l-235 690l-49 5v10h277v-10l-75 -5l175 -554h10l107 325l-75 229l-55 5v10h280v-10l-72 -5l162 -554h10l135 517l-109 42v10h234v-10l-109 -42l-175 -653h-78zM511 839l-125 -89h-10l130 180h10l130 -180h-10z" />
    <glyph glyph-name="wcircumflex" unicode="&#x175;" horiz-adv-x="860" 
d="M535 -5l-114 339l-15 -48q-86 -280 -89 -291h-82l-180 490l-52 5v10h267v-10l-64 -5l127 -369h10l72 239l-44 130l-51 5v10h273v-10l-71 -5l111 -369h10l104 349l-84 25v10h194v-10l-95 -25l-145 -470h-82zM439 639l-125 -89h-10l130 180h10l130 -180h-10z" />
    <glyph glyph-name="Ycircumflex" unicode="&#x176;" horiz-adv-x="680" 
d="M279 15v228l-219 442l-57 5v10h277v-10l-65 -5l181 -374h10l149 337l-102 42v10h224v-10l-102 -42l-164 -359v-274l71 -5v-10h-274v10zM364 839l-125 -89h-10l130 180h10l130 -180h-10z" />
    <glyph glyph-name="ycircumflex" unicode="&#x177;" horiz-adv-x="580" 
d="M308 -46l-253 531l-52 5v10h274v-10l-71 -5l152 -344h10l99 324l-84 25v10h194v-10l-95 -25l-163 -515q-69 -180 -177 -180q-40 0 -61 17.5t-21 45.5q0 38 36.5 52.5t60.5 -11.5q24 -27 11 -84h5q32 0 70.5 46t64.5 118zM330 639l-125 -89h-10l130 180h10l130 -180h-10z
" />
    <glyph glyph-name="Ydieresis" unicode="&#x178;" horiz-adv-x="680" 
d="M279 15v228l-219 442l-57 5v10h277v-10l-65 -5l181 -374h10l149 337l-102 42v10h224v-10l-102 -42l-164 -359v-274l71 -5v-10h-274v10zM182 815q0 27 17 44t43 17t43.5 -17t17.5 -44t-17 -43t-44 -16q-26 0 -43 16t-17 43zM377 815q0 27 17.5 44t43.5 17t43 -17t17 -44
t-17 -43t-43 -16q-27 0 -44 16t-17 43z" />
    <glyph glyph-name="Zacute" unicode="&#x179;" 
d="M557 690l-361 -670v-10l261 5l100 152h10l-15 -167h-519v10l367 670v10l-237 -5l-100 -152h-10l5 167h499v-10zM332 930h115l-172 -180h-10z" />
    <glyph glyph-name="zacute" unicode="&#x17a;" horiz-adv-x="480" 
d="M349 15l93 132h10l-5 -147h-424v10l272 470v10l-149 -5l-93 -132h-10l5 147h394v-10l-272 -470v-10zM272 730h115l-172 -180h-10z" />
    <glyph glyph-name="Zdotaccent" unicode="&#x17b;" 
d="M557 690l-361 -670v-10l261 5l100 152h10l-15 -167h-519v10l367 670v10l-237 -5l-100 -152h-10l5 167h499v-10zM235 827q0 28 18.5 46.5t46.5 18.5t46.5 -18.5t18.5 -46.5t-18.5 -46.5t-46.5 -18.5t-46.5 18.5t-18.5 46.5z" />
    <glyph glyph-name="zdotaccent" unicode="&#x17c;" horiz-adv-x="480" 
d="M349 15l93 132h10l-5 -147h-424v10l272 470v10l-149 -5l-93 -132h-10l5 147h394v-10l-272 -470v-10zM177 627q0 28 18.5 46.5t46.5 18.5t46.5 -18.5t18.5 -46.5t-18.5 -46.5t-46.5 -18.5t-46.5 18.5t-18.5 46.5z" />
    <glyph glyph-name="Zcaron" unicode="&#x17d;" 
d="M557 690l-361 -670v-10l261 5l100 152h10l-15 -167h-519v10l367 670v10l-237 -5l-100 -152h-10l5 167h499v-10zM165 930h10l125 -89l125 89h10l-130 -180h-10z" />
    <glyph glyph-name="zcaron" unicode="&#x17e;" horiz-adv-x="480" 
d="M349 15l93 132h10l-5 -147h-424v10l272 470v10l-149 -5l-93 -132h-10l5 147h394v-10l-272 -470v-10zM107 730h10l125 -89l125 89h10l-130 -180h-10z" />
    <glyph glyph-name="longs" unicode="&#x17f;" horiz-adv-x="258" 
d="M194 550v-567q0 -84 -63 -148.5t-145 -64.5q-39 0 -63.5 16.5t-24.5 47.5q0 23 16 39.5t43 16.5q29 0 48 -26t2 -77h10q28 0 36.5 44.5t8.5 146.5v539q0 83 63 148t144 65q40 0 64.5 -16.5t24.5 -47.5q0 -23 -16 -39.5t-43 -16.5q-29 0 -48 26t-2 77h-10q-27 0 -36 -41
t-9 -122z" />
    <glyph glyph-name="florin" unicode="&#x192;" horiz-adv-x="502" 
d="M302 485l-30 -427q-4 -51 -17.5 -98t-38.5 -91.5t-69.5 -71.5t-101.5 -27q-38 0 -62 16t-21 50q2 28 25 43t49 10t36 -29q11 -31 -6 -73q42 0 56 70q5 26 12 121l36 507h-67l1 10l67 5l1 17q5 83 73 148t149 65q40 0 63 -16.5t21 -47.5q-2 -24 -19 -40t-44 -16
q-16 0 -30 9.5t-21 32.5t9 61h-10q-27 0 -39 -40.5t-18 -122.5l-3 -50h117l-1 -15h-117z" />
    <glyph glyph-name="AEacute" unicode="&#x1fc;" horiz-adv-x="920" 
d="M424 602h-10l-125 -247h135v247zM128 52l317 633l-93 5v10h515l5 -167h-10l-93 152l-213 5v-335l157 4l49 111h10v-248h-10l-49 119l-157 4v-335l223 5l98 152h10l-10 -167h-524v10l71 5v330h-139l-142 -293l94 -42v-10h-234v10zM551 930h115l-172 -180h-10z" />
    <glyph glyph-name="aeacute" unicode="&#x1fd;" horiz-adv-x="803" 
d="M752 290h-315q2 -99 50 -155.5t118 -56.5q48 0 88.5 24.5t58.5 57.5h10q-16 -71 -71 -120.5t-136 -49.5q-130 0 -197 92q-85 -58 -126 -75t-84 -17q-55 0 -86.5 30.5t-31.5 77.5q0 46 37 75t100 52l137 45v127q0 50 -22.5 72.5t-71.5 22.5q-25 0 -57 -13t-51 -31v-10
q45 3 63.5 -25.5t1.5 -58.5t-57 -30q-25 0 -42.5 17t-17.5 42q0 50 64 88.5t146 38.5q101 0 145 -54q71 54 158 54q39 0 74 -10.5t66.5 -33.5t45.5 -68.5t3 -107.5zM558 500q-110 0 -120 -200l187 5q22 99 -1 147t-66 48zM241 45q48 0 111 45q-48 70 -48 170l-65 -24
q-40 -14 -58 -36.5t-18 -64.5t21.5 -66t56.5 -24zM466 730h115l-172 -180h-10z" />
    <glyph glyph-name="Oslashacute" unicode="&#x1fe;" horiz-adv-x="780" 
d="M445 930h115l-172 -180h-10zM691 669l8 -9l-56 -58q100 -105 100 -252q0 -154 -104.5 -257t-248.5 -103q-140 0 -241 95l-58 -60l-8 9l57 60q-103 103 -103 256q0 154 104.5 257t248.5 103q142 0 245 -100zM180 350q0 -112 24 -190l369 386q-50 154 -183 154
q-100 0 -155 -90.5t-55 -259.5zM600 350q0 106 -23 183l-369 -386q52 -147 182 -147q100 0 155 90.5t55 259.5z" />
    <glyph glyph-name="oslashacute" unicode="&#x1ff;" horiz-adv-x="560" 
d="M330 730h115l-172 -180h-10zM510 500l6 -8l-53 -58q70 -73 70 -184q0 -110 -70 -185t-183 -75q-100 0 -168 60l-46 -50l-8 8l46 50q-77 74 -77 192q0 110 70 185t183 75q105 0 176 -69zM390 250q0 55 -6 97l-204 -222q22 -125 100 -125q55 0 82.5 58.5t27.5 191.5z
M170 232q1 -50 8 -93l204 221q-19 140 -102 140q-102 0 -108 -195q-2 -23 -2 -73z" />
    <glyph glyph-name="Scommaaccent" unicode="&#x218;" horiz-adv-x="540" 
d="M68 57l-10 -62h-10l-5 222h10l29 -70q57 -147 179 -147q58 0 96 34t38 101q0 27 -10 51t-24 40.5t-37 32t-42 24.5t-46 21q-91 39 -142.5 87t-51.5 126q0 88 65.5 140.5t169.5 52.5q102 0 170 -54l10 49h10l5 -207h-10l-30 72q-29 68 -66 99t-88 31q-47 0 -89.5 -30.5
t-42.5 -89.5q0 -55 39.5 -88t108.5 -61q209 -84 209 -228q0 -101 -68.5 -157t-173.5 -56q-100 0 -193 67zM205 -163v113q76 10 112.5 -21.5t36.5 -82.5q0 -67 -42.5 -120t-93.5 -72l-4 10q36 14 61 43t29.5 57.5t-20.5 50.5t-79 22z" />
    <glyph glyph-name="scommaaccent" unicode="&#x219;" horiz-adv-x="430" 
d="M205 -10q-80 0 -156 47l-6 -47h-10v157h10q32 -72 63 -107q36 -39 79 -39t67.5 26.5t24.5 64.5q0 37 -26 62.5t-84 50.5q-71 31 -103 66t-32 94q0 63 48 104t135 41q73 0 146 -46l6 46h10v-157h-10q-33 77 -68 111q-34 35 -76 35q-32 0 -55 -22.5t-23 -53.5
q0 -39 24.5 -62t65.5 -40q88 -38 126.5 -74.5t38.5 -99.5q0 -70 -55 -113.5t-140 -43.5zM150 -163v113q76 10 112.5 -21.5t36.5 -82.5q0 -67 -42.5 -120t-93.5 -72l-4 10q36 14 61 43t29.5 57.5t-20.5 50.5t-79 22z" />
    <glyph glyph-name="uni021A" unicode="&#x21a;" 
d="M23 533l5 167h544l5 -167h-10l-93 150l-108 5v-673l71 -5v-10h-274v10l71 5v673l-108 -5l-93 -150h-10zM223 -161v113q76 10 112.5 -21.5t36.5 -82.5q0 -67 -42.5 -120t-93.5 -72l-4 10q36 14 61 43t29.5 57.5t-20.5 50.5t-79 22z" />
    <glyph glyph-name="uni021B" unicode="&#x21b;" horiz-adv-x="370" 
d="M216 485v-362q0 -61 15 -83t49 -22q26 0 67 17v-10q-70 -35 -150 -35q-113 0 -113 120v375h-67v10l67 5l122 120h10v-120h131v-15h-131zM107 -165v113q76 10 112.5 -21.5t36.5 -82.5q0 -67 -42.5 -120t-93.5 -72l-4 10q36 14 61 43t29.5 57.5t-20.5 50.5t-79 22z" />
    <glyph glyph-name="dotlessj" unicode="&#x237;" horiz-adv-x="280" 
d="M226 510v-527q0 -84 -63 -148.5t-145 -64.5q-39 0 -63.5 16.5t-24.5 47.5q0 23 16 39.5t43 16.5q29 0 48 -26t2 -77h10q28 0 36.5 44.5t8.5 146.5v512h-61v10l183 10h10z" />
    <glyph glyph-name="circumflex" unicode="&#x2c6;" horiz-adv-x="470" 
d="M235 639l-125 -89h-10l130 180h10l130 -180h-10z" />
    <glyph glyph-name="caron" unicode="&#x2c7;" horiz-adv-x="470" 
d="M100 730h10l125 -89l125 89h10l-130 -180h-10z" />
    <glyph glyph-name="uni02C9" unicode="&#x2c9;" horiz-adv-x="510" 
d="M100 615h310v-15h-310v15z" />
    <glyph glyph-name="breve" unicode="&#x2d8;" horiz-adv-x="450" 
d="M225 570q-63 0 -97.5 45.5t-34.5 105.5h8q17 -80 124 -80t124 80h8q0 -60 -34.5 -105.5t-97.5 -45.5z" />
    <glyph glyph-name="dotaccent" unicode="&#x2d9;" horiz-adv-x="314" 
d="M92 627q0 28 18.5 46.5t46.5 18.5t46.5 -18.5t18.5 -46.5t-18.5 -46.5t-46.5 -18.5t-46.5 18.5t-18.5 46.5z" />
    <glyph glyph-name="ring" unicode="&#x2da;" horiz-adv-x="375" 
d="M100 637q0 38 23.5 63t63.5 25t64 -25t24 -63t-24 -62.5t-64 -24.5q-38 0 -62.5 25t-24.5 62zM124 637q0 -34 16 -55.5t47 -21.5q32 0 47.5 21.5t15.5 55.5q0 35 -15.5 56.5t-47.5 21.5q-31 0 -47 -22t-16 -56z" />
    <glyph glyph-name="ogonek" unicode="&#x2db;" horiz-adv-x="360" 
d="M267 -178v-10q-13 -17 -38.5 -28.5t-48.5 -11.5q-32 0 -54.5 15.5t-29 41t-1 55t30.5 61t64 55.5h10q-42 -39 -55 -90t18.5 -80t103.5 -8z" />
    <glyph glyph-name="tilde" unicode="&#x2dc;" horiz-adv-x="550" 
d="M92 575l-5 5q60 123 113 123q27 0 92.5 -29t97.5 -29q17 0 29.5 6t18.5 12t20 22l5 -5q-57 -113 -108 -113q-30 0 -97.5 29t-97.5 29q-10 0 -18.5 -2t-16 -8.5t-11 -10.5t-11.5 -15t-11 -14z" />
    <glyph glyph-name="hungarumlaut" unicode="&#x2dd;" horiz-adv-x="480" 
d="M313 750h109l-162 -200h-10zM153 750h109l-162 -200h-10z" />
    <glyph glyph-name="uni037E" unicode="&#x37e;" horiz-adv-x="356" 
d="M89 248q0 38 25.5 63.5t63.5 25.5t63.5 -25.5t25.5 -63.5t-25.5 -63.5t-63.5 -25.5t-63.5 25.5t-25.5 63.5z" />
    <glyph glyph-name="tonos" unicode="&#x384;" horiz-adv-x="359" 
d="M148 800h119l-162 -200h-10z" />
    <glyph glyph-name="dieresistonos" unicode="&#x385;" horiz-adv-x="580" 
d="M92 615q0 27 17 44t43 17t43.5 -17t17.5 -44t-17 -43t-44 -16q-26 0 -43 16t-17 43zM367 615q0 27 17.5 44t43.5 17t43 -17t17 -44t-17 -43t-43 -16q-27 0 -44 16t-17 43zM313 800h119l-162 -200h-10z" />
    <glyph glyph-name="anoteleia" unicode="&#x387;" horiz-adv-x="500" 
d="M92 615q0 27 17 44t43 17t43.5 -17t17.5 -44t-17 -43t-44 -16q-26 0 -43 16t-17 43zM287 615q0 27 17.5 44t43.5 17t43 -17t17 -44t-17 -43t-43 -16q-27 0 -44 16t-17 43z" />
    <glyph glyph-name="uni03BC" unicode="&#x3bc;" horiz-adv-x="590" 
d="M74 -22v512h-71v10l190 10h13v-391q2 -86 72 -86q29 0 50.5 15t55.5 57v385h-71v10l190 10h13v-493h71v-10l-193 -17h-10v90h-10q-73 -90 -169 -90h-4q-6 -43 -20 -80.5t-37 -70t-60.5 -51t-85.5 -18.5q-37 0 -62.5 16t-25.5 50q0 28 22 43t48.5 10t38.5 -29
q14 -29 0 -73q37 0 46 41.5t9 134.5v15z" />
    <glyph glyph-name="pi" unicode="&#x3c0;" horiz-adv-x="640" 
d="M414 15v470h-188v-470l71 -5v-10h-274v10l71 5v470l-71 5v10h594v-10l-71 -5v-470l71 -5v-10h-274v10z" />
    <glyph glyph-name="uni03C2" unicode="&#x3c2;" horiz-adv-x="513" 
d="M100 249q0 68 48 114l-78 90l8 8l79 -90q44 36 100 36q55 0 99 -36l78 90l9 -8l-78 -89q50 -47 50 -115t-49 -114l76 -86l-9 -9l-77 87q-43 -35 -99 -35q-57 0 -100 35l-76 -87l-9 9l76 86q-48 46 -48 114zM112 249q0 -59 43 -102t102 -43t102.5 43t43.5 102t-43.5 102.5
t-102.5 43.5t-102 -43.5t-43 -102.5z" />
    <glyph glyph-name="sigma" unicode="&#x3c3;" horiz-adv-x="513" 
d="M100 249q0 68 48 114l-78 90l8 8l79 -90q44 36 100 36q55 0 99 -36l78 90l9 -8l-78 -89q50 -47 50 -115t-49 -114l76 -86l-9 -9l-77 87q-43 -35 -99 -35q-57 0 -100 35l-76 -87l-9 9l76 86q-48 46 -48 114zM112 249q0 -59 43 -102t102 -43t102.5 43t43.5 102t-43.5 102.5
t-102.5 43.5t-102 -43.5t-43 -102.5z" />
    <glyph glyph-name="Wgrave" unicode="&#x1e80;" horiz-adv-x="1010" 
d="M505 430l-21 -62l-127 -373h-70l-235 690l-49 5v10h277v-10l-75 -5l175 -554h10l107 325l-75 229l-55 5v10h280v-10l-72 -5l162 -554h10l135 517l-109 42v10h234v-10l-109 -42l-175 -653h-78zM489 750l-162 180h115l57 -180h-10z" />
    <glyph glyph-name="wgrave" unicode="&#x1e81;" horiz-adv-x="860" 
d="M535 -5l-114 339l-15 -48q-86 -280 -89 -291h-82l-180 490l-52 5v10h267v-10l-64 -5l127 -369h10l72 239l-44 130l-51 5v10h273v-10l-71 -5l111 -369h10l104 349l-84 25v10h194v-10l-95 -25l-145 -470h-82zM430 550l-162 180h115l57 -180h-10z" />
    <glyph glyph-name="Wacute" unicode="&#x1e82;" horiz-adv-x="1010" 
d="M505 430l-21 -62l-127 -373h-70l-235 690l-49 5v10h277v-10l-75 -5l175 -554h10l107 325l-75 229l-55 5v10h280v-10l-72 -5l162 -554h10l135 517l-109 42v10h234v-10l-109 -42l-175 -653h-78zM560 930h115l-172 -180h-10z" />
    <glyph glyph-name="wacute" unicode="&#x1e83;" horiz-adv-x="860" 
d="M535 -5l-114 339l-15 -48q-86 -280 -89 -291h-82l-180 490l-52 5v10h267v-10l-64 -5l127 -369h10l72 239l-44 130l-51 5v10h273v-10l-71 -5l111 -369h10l104 349l-84 25v10h194v-10l-95 -25l-145 -470h-82zM490 730h115l-172 -180h-10z" />
    <glyph glyph-name="Wdieresis" unicode="&#x1e84;" horiz-adv-x="1010" 
d="M505 430l-21 -62l-127 -373h-70l-235 690l-49 5v10h277v-10l-75 -5l175 -554h10l107 325l-75 229l-55 5v10h280v-10l-72 -5l162 -554h10l135 517l-109 42v10h234v-10l-109 -42l-175 -653h-78zM353 815q0 27 17 44t43 17t43.5 -17t17.5 -44t-17 -43t-44 -16q-26 0 -43 16
t-17 43zM548 815q0 27 17.5 44t43.5 17t43 -17t17 -44t-17 -43t-43 -16q-27 0 -44 16t-17 43z" />
    <glyph glyph-name="wdieresis" unicode="&#x1e85;" horiz-adv-x="860" 
d="M535 -5l-114 339l-15 -48q-86 -280 -89 -291h-82l-180 490l-52 5v10h267v-10l-64 -5l127 -369h10l72 239l-44 130l-51 5v10h273v-10l-71 -5l111 -369h10l104 349l-84 25v10h194v-10l-95 -25l-145 -470h-82zM279 615q0 27 17 44t43 17t43.5 -17t17.5 -44t-17 -43t-44 -16
q-26 0 -43 16t-17 43zM474 615q0 27 17.5 44t43.5 17t43 -17t17 -44t-17 -43t-43 -16q-27 0 -44 16t-17 43z" />
    <glyph glyph-name="Ygrave" unicode="&#x1ef2;" horiz-adv-x="680" 
d="M279 15v228l-219 442l-57 5v10h277v-10l-65 -5l181 -374h10l149 337l-102 42v10h224v-10l-102 -42l-164 -359v-274l71 -5v-10h-274v10zM358 750l-162 180h115l57 -180h-10z" />
    <glyph glyph-name="ygrave" unicode="&#x1ef3;" horiz-adv-x="580" 
d="M308 -46l-253 531l-52 5v10h274v-10l-71 -5l152 -344h10l99 324l-84 25v10h194v-10l-95 -25l-163 -515q-69 -180 -177 -180q-40 0 -61 17.5t-21 45.5q0 38 36.5 52.5t60.5 -11.5q24 -27 11 -84h5q32 0 70.5 46t64.5 118zM318 550l-162 180h115l57 -180h-10z" />
    <glyph glyph-name="figuredash" unicode="&#x2012;" horiz-adv-x="710" 
d="M93 285h524v-25h-524v25z" />
    <glyph glyph-name="endash" unicode="&#x2013;" horiz-adv-x="710" 
d="M93 285h524v-25h-524v25z" />
    <glyph glyph-name="emdash" unicode="&#x2014;" horiz-adv-x="900" 
d="M93 285h714v-25h-714v25z" />
    <glyph glyph-name="quoteleft" unicode="&#x2018;" horiz-adv-x="335" 
d="M242 549v-113q-76 -10 -112.5 21t-36.5 83q0 67 42.5 120t93.5 72l4 -10q-36 -14 -61 -43t-29.5 -57.5t20.5 -50.5t79 -22z" />
    <glyph glyph-name="quoteright" unicode="&#x2019;" horiz-adv-x="335" 
d="M93 603v114q76 10 112.5 -21.5t36.5 -82.5q0 -68 -43 -121t-93 -71l-4 10q36 14 61 42.5t29.5 57.5t-20.5 50.5t-79 21.5z" />
    <glyph glyph-name="quotesinglbase" unicode="&#x201a;" horiz-adv-x="335" 
d="M93 13v114q76 10 112.5 -21.5t36.5 -82.5q0 -68 -43 -121t-93 -71l-4 10q36 14 61 42.5t29.5 57.5t-20.5 50.5t-79 21.5z" />
    <glyph glyph-name="quotedblleft" unicode="&#x201c;" horiz-adv-x="555" 
d="M242 549v-113q-76 -10 -112.5 21t-36.5 83q0 67 42.5 120t93.5 72l4 -10q-36 -14 -61 -43t-29.5 -57.5t20.5 -50.5t79 -22zM462 549v-113q-76 -10 -112.5 21t-36.5 83q0 67 42.5 120t93.5 72l4 -10q-36 -14 -61 -43t-29.5 -57.5t20.5 -50.5t79 -22z" />
    <glyph glyph-name="quotedblright" unicode="&#x201d;" horiz-adv-x="555" 
d="M93 603v114q76 10 112.5 -21.5t36.5 -82.5q0 -68 -43 -121t-93 -71l-4 10q36 14 61 42.5t29.5 57.5t-20.5 50.5t-79 21.5zM313 603v114q76 10 112.5 -21.5t36.5 -82.5q0 -68 -43 -121t-93 -71l-4 10q36 14 61 42.5t29.5 57.5t-20.5 50.5t-79 21.5z" />
    <glyph glyph-name="quotedblbase" unicode="&#x201e;" horiz-adv-x="555" 
d="M93 13v114q76 10 112.5 -21.5t36.5 -82.5q0 -68 -43 -121t-93 -71l-4 10q36 14 61 42.5t29.5 57.5t-20.5 50.5t-79 21.5zM313 13v114q76 10 112.5 -21.5t36.5 -82.5q0 -68 -43 -121t-93 -71l-4 10q36 14 61 42.5t29.5 57.5t-20.5 50.5t-79 21.5z" />
    <glyph glyph-name="dagger" unicode="&#x2020;" horiz-adv-x="645" 
d="M318 -260v375q0 57 -9 98t-17.5 62.5t-8.5 29.5t16 77.5t19 92.5q-25 -3 -98 -19t-80 -16q-16 0 -28 12t-12 28t12 28t28 12q7 0 80 -16t98 -19q-3 27 -19 102t-16 83q0 16 11.5 28t28.5 12t28.5 -12t11.5 -28q0 -8 -16 -83t-19 -102q25 3 97 19t80 16q17 0 28.5 -12
t11.5 -28t-11.5 -28t-28.5 -12q-8 0 -80 16t-97 19q3 -23 19 -92.5t16 -77.5t-8.5 -29.5t-17.5 -62.5t-9 -98v-375h-10z" />
    <glyph glyph-name="daggerdbl" unicode="&#x2021;" horiz-adv-x="645" 
d="M363 230q0 -31 -17 -139t-18 -126q25 3 97 19t80 16q17 0 28.5 -12t11.5 -28t-11.5 -28t-28.5 -12q-8 0 -80 16t-97 19q3 -27 19 -102t16 -83q0 -16 -11.5 -28t-28.5 -12t-28.5 12t-11.5 28q0 8 16 83t19 102q-25 -3 -98 -19t-80 -16q-16 0 -28 12t-12 28t12 28t28 12
q7 0 80 -16t98 -19q-1 18 -18 126t-17 139t17 128.5t18 116.5q-25 -3 -98 -19t-80 -16q-16 0 -28 12t-12 28t12 28t28 12q7 0 80 -16t98 -19q-3 27 -19 102t-16 83q0 16 11.5 28t28.5 12t28.5 -12t11.5 -28q0 -8 -16 -83t-19 -102q25 3 97 19t80 16q17 0 28.5 -12t11.5 -28
t-11.5 -28t-28.5 -12q-8 0 -80 16t-97 19q1 -19 18 -116.5t17 -128.5z" />
    <glyph glyph-name="bullet" unicode="&#x2022;" horiz-adv-x="397" 
d="M100 232q0 41 28.5 70t69.5 29t70 -29t29 -70t-29 -69.5t-70 -28.5t-69.5 28.5t-28.5 69.5z" />
    <glyph glyph-name="onedotenleader" unicode="&#x2024;" horiz-adv-x="320" 
d="M91 59q0 28 20.5 48t48.5 20t48.5 -20t20.5 -48q0 -29 -20.5 -49t-48.5 -20t-48.5 20t-20.5 49z" />
    <glyph glyph-name="twodotenleader" unicode="&#x2025;" horiz-adv-x="543" 
d="M91 50q0 25 17.5 42.5t42.5 17.5t42.5 -17.5t17.5 -42.5t-17.5 -42.5t-42.5 -17.5t-42.5 17.5t-17.5 42.5zM331 50q0 25 17.5 42.5t42.5 17.5t42.5 -17.5t17.5 -42.5t-17.5 -42.5t-42.5 -17.5t-42.5 17.5t-17.5 42.5z" />
    <glyph glyph-name="ellipsis" unicode="&#x2026;" horiz-adv-x="783" 
d="M91 50q0 25 17.5 42.5t42.5 17.5t42.5 -17.5t17.5 -42.5t-17.5 -42.5t-42.5 -17.5t-42.5 17.5t-17.5 42.5zM331 50q0 25 17.5 42.5t42.5 17.5t42.5 -17.5t17.5 -42.5t-17.5 -42.5t-42.5 -17.5t-42.5 17.5t-17.5 42.5zM571 50q0 25 17.5 42.5t42.5 17.5t42.5 -17.5
t17.5 -42.5t-17.5 -42.5t-42.5 -17.5t-42.5 17.5t-17.5 42.5z" />
    <glyph glyph-name="perthousand" unicode="&#x2030;" horiz-adv-x="1390" 
d="M626 700h14l-286 -700h-15zM584 145q1 65 46 110t109 45q62 0 105 -45.5t42 -109.5q-2 -65 -46.5 -110t-109.5 -45q-61 0 -104 45.5t-42 109.5zM658 145q0 -79 19 -111.5t58 -32.5q77 0 77 144t-77 144t-77 -144zM94 555q1 65 46 110t109 45q62 0 105 -45.5t42 -109.5
q-2 -65 -46.5 -110t-109.5 -45q-61 0 -104 45.5t-42 109.5zM168 555q0 -144 77 -144t77 144t-77 144t-77 -144zM994 145q1 65 46 110t109 45q62 0 105 -45.5t42 -109.5q-2 -65 -46.5 -110t-109.5 -45q-61 0 -104 45.5t-42 109.5zM1068 145q0 -79 19 -111.5t58 -32.5
q77 0 77 144t-77 144t-77 -144z" />
    <glyph glyph-name="guilsinglleft" unicode="&#x2039;" horiz-adv-x="430" 
d="M337 453l-98 -184l98 -186v-10l-244 185v20l244 185v-10z" />
    <glyph glyph-name="guilsinglright" unicode="&#x203a;" horiz-adv-x="430" 
d="M198 270l-105 183v10l244 -184v-20l-244 -186v10z" />
    <glyph glyph-name="exclamdbl" unicode="&#x203c;" horiz-adv-x="520" 
d="M91 59q0 28 20.5 48t48.5 20t48.5 -20t20.5 -48q0 -29 -20.5 -49t-48.5 -20t-48.5 20t-20.5 49zM166 200h-10l-63 500h132zM291 59q0 28 20.5 48t48.5 20t48.5 -20t20.5 -48q0 -29 -20.5 -49t-48.5 -20t-48.5 20t-20.5 49zM366 200h-10l-63 500h132z" />
    <glyph glyph-name="fraction" unicode="&#x2044;" horiz-adv-x="480" 
d="M335 710h20l-210 -710h-20z" />
    <glyph glyph-name="zerosuperior" unicode="&#x2070;" horiz-adv-x="353" 
d="M50 730q0 70 33.5 125t93.5 55t93 -54.5t33 -125.5t-33 -125.5t-93 -54.5t-93.5 54t-33.5 126zM121 730q0 -87 12.5 -131t43.5 -44t43 44.5t12 130.5q0 175 -55 175q-31 0 -43.5 -44.5t-12.5 -130.5z" />
    <glyph glyph-name="foursuperior" unicode="&#x2074;" horiz-adv-x="352" 
d="M261 646h41v-6h-41v-80h-66v80h-145v8l165 250l46 17v-269zM190 852l-130 -201v-5h135v206h-5z" />
    <glyph glyph-name="fivesuperior" unicode="&#x2075;" horiz-adv-x="327" 
d="M147 550q-45 0 -71 21t-26 49q0 12 9 21t23 9q24 0 29 -23q6 -23 -15 -34q-11 -5 -26 -3v-5q30 -30 74 -30q34 0 51 29.5t17 70.5q0 42 -26 72t-84 30h-16l5 148h174v-56h-170l-3 -88q54 12 89.5 7t57 -25.5t30 -42t8.5 -42.5q0 -48 -35 -78t-95 -30z" />
    <glyph glyph-name="sixsuperior" unicode="&#x2076;" horiz-adv-x="335" 
d="M214 660q0 43 -11.5 72t-35.5 29t-46 -24q-8 -70 4.5 -126t43.5 -56q45 0 45 105zM121 751l4 -1q27 23 65 23q44 0 69.5 -31t25.5 -77q0 -51 -34.5 -83t-81.5 -32q-55 0 -87 39.5t-32 98.5q0 83 51.5 144.5t131.5 77.5l1 -5q-45 -11 -77.5 -54.5t-35.5 -99.5z" />
    <glyph glyph-name="sevensuperior" unicode="&#x2077;" horiz-adv-x="317" 
d="M244 857v5l-179 -5l-10 -34h-5l2 87h215v-5l-115 -345h-65z" />
    <glyph glyph-name="eightsuperior" unicode="&#x2078;" horiz-adv-x="332" 
d="M213 831q0 31 -12 52.5t-33 21.5t-32.5 -20.5t-11.5 -49.5q0 -17 6 -30.5t18 -22.5t20 -13.5t21 -10.5q24 22 24 73zM217 634q0 27 -19 46t-59 36q-28 -28 -28 -73q0 -39 15.5 -63.5t41.5 -24.5q24 0 36.5 22t12.5 57zM282 650q0 -47 -34.5 -73.5t-85.5 -26.5
q-49 0 -80.5 24t-31.5 68q0 28 21 49.5t63 27.5q-72 38 -72 99q0 42 32 67t76 25q41 0 70 -22.5t29 -61.5q0 -24 -20.5 -44t-55.5 -27q89 -37 89 -105z" />
    <glyph glyph-name="ninesuperior" unicode="&#x2079;" horiz-adv-x="335" 
d="M121 800q0 -101 48 -101q24 0 45 23q8 70 -4 126.5t-43 56.5q-46 0 -46 -105zM214 708l-4 2q-25 -23 -65 -23q-44 0 -69.5 31t-25.5 76q0 51 35 83.5t82 32.5q55 0 86.5 -40t31.5 -99q0 -83 -51 -144t-131 -77l-1 5q45 11 77 54t35 99z" />
    <glyph glyph-name="parenleftsuperior" unicode="&#x207d;" horiz-adv-x="208" 
d="M88 725q0 -158 70 -280h-5q-50 57 -76.5 132t-26.5 148q0 72 26.5 147.5t76.5 132.5h5q-70 -124 -70 -280z" />
    <glyph glyph-name="parenrightsuperior" unicode="&#x207e;" horiz-adv-x="208" 
d="M120 725q0 156 -70 280h5q50 -57 76.5 -132.5t26.5 -147.5q0 -73 -26.5 -148t-76.5 -132h-5q70 122 70 280z" />
    <glyph glyph-name="nsuperior" unicode="&#x207f;" horiz-adv-x="410" 
d="M341 405l42 -3v-6h-152v6l30 3v215q0 56 -43 56q-29 0 -69 -43v-228l42 -3v-6h-164v6l42 3v285h-36v6l110 6h6v-54h6q47 54 107 54q34 0 56.5 -22t22.5 -68v-207z" />
    <glyph glyph-name="zeroinferior" unicode="&#x2080;" horiz-adv-x="353" 
d="M50 -30q0 70 33.5 125t93.5 55t93 -54.5t33 -125.5t-33 -125.5t-93 -54.5t-93.5 54t-33.5 126zM121 -30q0 -87 12.5 -131t43.5 -44t43 44.5t12 130.5q0 175 -55 175q-31 0 -43.5 -44.5t-12.5 -130.5z" />
    <glyph glyph-name="oneinferior" unicode="&#x2081;" horiz-adv-x="327" 
d="M50 -195l80 2v329l-70 -9v5l131 23h5v-348l81 -2v-5h-227v5z" />
    <glyph glyph-name="twoinferior" unicode="&#x2082;" horiz-adv-x="323" 
d="M116 -147v-5l157 3v-51h-223v5q53 39 87 76.5t47.5 71t17 53.5t3.5 46q0 40 -17 65.5t-50 25.5q-37 0 -63 -26v-5q33 8 41 -18q7 -22 -13 -34q-8 -5 -18 -5q-12 0 -21 8.5t-9 23.5q0 25 28.5 46.5t76.5 21.5q57 0 83.5 -30t26.5 -70q0 -105 -154 -202z" />
    <glyph glyph-name="threeinferior" unicode="&#x2083;" horiz-adv-x="327" 
d="M145 -205q31 0 48.5 24.5t17.5 69.5q0 36 -18.5 63t-49.5 27h-13v6h11q31 0 45.5 22.5t14.5 52.5q0 27 -15.5 46t-42.5 19q-23 0 -40 -12t-23 -23.5t-13 -30.5h-5q8 36 35.5 63.5t67.5 27.5q45 0 72 -22t27 -57q0 -33 -25.5 -56.5t-75.5 -31.5v-2q114 -7 114 -89
q0 -49 -37 -75.5t-93 -26.5q-45 0 -71 21t-26 49q0 13 9 21.5t22 8.5q25 0 30 -24q6 -23 -16 -33q-10 -5 -24 -4v-5q26 -29 74 -29z" />
    <glyph glyph-name="fourinferior" unicode="&#x2084;" horiz-adv-x="352" 
d="M261 -114h41v-6h-41v-80h-66v80h-145v8l165 250l46 17v-269zM190 92l-130 -201v-5h135v206h-5z" />
    <glyph glyph-name="fiveinferior" unicode="&#x2085;" horiz-adv-x="327" 
d="M147 -210q-45 0 -71 21t-26 49q0 12 9 21t23 9q24 0 29 -23q6 -23 -15 -34q-11 -5 -26 -3v-5q30 -30 74 -30q34 0 51 29.5t17 70.5q0 42 -26 72t-84 30h-16l5 148h174v-56h-170l-3 -88q54 12 89.5 7t57 -25.5t30 -42t8.5 -42.5q0 -48 -35 -78t-95 -30z" />
    <glyph glyph-name="sixinferior" unicode="&#x2086;" horiz-adv-x="335" 
d="M214 -100q0 43 -11.5 72t-35.5 29t-46 -24q-8 -70 4.5 -126t43.5 -56q45 0 45 105zM121 -9l4 -1q27 23 65 23q44 0 69.5 -31t25.5 -77q0 -51 -34.5 -83t-81.5 -32q-55 0 -87 39.5t-32 98.5q0 83 51.5 144.5t131.5 77.5l1 -5q-45 -11 -77.5 -54.5t-35.5 -99.5z" />
    <glyph glyph-name="seveninferior" unicode="&#x2087;" horiz-adv-x="317" 
d="M244 97v5l-179 -5l-10 -34h-5l2 87h215v-5l-115 -345h-65z" />
    <glyph glyph-name="eightinferior" unicode="&#x2088;" horiz-adv-x="332" 
d="M213 71q0 31 -12 52.5t-33 21.5t-32.5 -20.5t-11.5 -49.5q0 -17 6 -30.5t18 -22.5t20 -13.5t21 -10.5q24 22 24 73zM217 -126q0 27 -19 46t-59 36q-28 -28 -28 -73q0 -39 15.5 -63.5t41.5 -24.5q24 0 36.5 22t12.5 57zM282 -110q0 -47 -34.5 -73.5t-85.5 -26.5
q-49 0 -80.5 24t-31.5 68q0 28 21 49.5t63 27.5q-72 38 -72 99q0 42 32 67t76 25q41 0 70 -22.5t29 -61.5q0 -24 -20.5 -44t-55.5 -27q89 -37 89 -105z" />
    <glyph glyph-name="nineinferior" unicode="&#x2089;" horiz-adv-x="335" 
d="M121 40q0 -101 48 -101q24 0 45 23q8 70 -4 126.5t-43 56.5q-46 0 -46 -105zM214 -52l-4 2q-25 -23 -65 -23q-44 0 -69.5 31t-25.5 76q0 51 35 83.5t82 32.5q55 0 86.5 -40t31.5 -99q0 -83 -51 -144t-131 -77l-1 5q45 11 77 54t35 99z" />
    <glyph glyph-name="parenleftinferior" unicode="&#x208d;" horiz-adv-x="208" 
d="M88 -35q0 -158 70 -280h-5q-50 57 -76.5 132t-26.5 148q0 72 26.5 147.5t76.5 132.5h5q-70 -124 -70 -280z" />
    <glyph glyph-name="parenrightinferior" unicode="&#x208e;" horiz-adv-x="208" 
d="M120 -35q0 156 -70 280h5q50 -57 76.5 -132.5t26.5 -147.5q0 -73 -26.5 -148t-76.5 -132h-5q70 122 70 280z" />
    <glyph glyph-name="colonmonetary" unicode="&#x20a1;" horiz-adv-x="652" 
d="M457 810v-105q71 -11 109.5 -47t38.5 -77q0 -27 -16.5 -45.5t-44.5 -18.5q-44 0 -59 38q-14 36 13 62q22 22 63 18v10q-61 55 -164 55q-96 0 -148 -91.5t-52 -258.5t52 -258.5t148 -91.5q103 0 164 55v10q-58 -5 -75 35q-15 35 10 63q19 20 48 20q28 0 44.5 -18.5
t16.5 -45.5q0 -41 -38.5 -77t-109.5 -47v-95h-10v93q-24 -3 -50 -3q-47 0 -100 12v-102h-10v105q-109 33 -171.5 126t-61.5 219q-1 126 61 218.5t172 125.5v116h10v-113q50 13 100 13q26 0 50 -3v103h10z" />
    <glyph glyph-name="franc" unicode="&#x20a3;" horiz-adv-x="725" 
d="M53 290h77q-3 28 -3 60q0 28 3 55h-77v10h78q18 132 108.5 213.5t230.5 81.5q99 0 153.5 -39.5t54.5 -89.5q0 -27 -16.5 -45.5t-44.5 -18.5q-44 0 -59 38q-13 36 13 62q22 22 64 18v10q-62 55 -165 55q-86 0 -137 -74t-61 -211h185v-10h-186q-1 -18 -1 -55q0 -41 1 -60
h186v-10h-185q11 -135 62 -207.5t136 -72.5q103 0 165 55v10q-58 -5 -76 35q-15 35 10 63q19 20 48 20q28 0 44.5 -18.5t16.5 -45.5q0 -50 -54.5 -89.5t-153.5 -39.5q-138 0 -228 80t-110 210h-79v10z" />
    <glyph glyph-name="lira" unicode="&#x20a4;" horiz-adv-x="725" 
d="M53 290h77q-3 28 -3 60q0 28 3 55h-77v10h78q18 132 108.5 213.5t230.5 81.5q99 0 153.5 -39.5t54.5 -89.5q0 -27 -16.5 -45.5t-44.5 -18.5q-44 0 -59 38q-13 36 13 62q22 22 64 18v10q-62 55 -165 55q-86 0 -137 -74t-61 -211h185v-10h-186q-1 -18 -1 -55q0 -41 1 -60
h186v-10h-185q11 -135 62 -207.5t136 -72.5q103 0 165 55v10q-58 -5 -76 35q-15 35 10 63q19 20 48 20q28 0 44.5 -18.5t16.5 -45.5q0 -50 -54.5 -89.5t-153.5 -39.5q-138 0 -228 80t-110 210h-79v10z" />
    <glyph glyph-name="peseta" unicode="&#x20a7;" horiz-adv-x="725" 
d="M53 290h77q-3 28 -3 60q0 28 3 55h-77v10h78q18 132 108.5 213.5t230.5 81.5q99 0 153.5 -39.5t54.5 -89.5q0 -27 -16.5 -45.5t-44.5 -18.5q-44 0 -59 38q-13 36 13 62q22 22 64 18v10q-62 55 -165 55q-86 0 -137 -74t-61 -211h185v-10h-186q-1 -18 -1 -55q0 -41 1 -60
h186v-10h-185q11 -135 62 -207.5t136 -72.5q103 0 165 55v10q-58 -5 -76 35q-15 35 10 63q19 20 48 20q28 0 44.5 -18.5t16.5 -45.5q0 -50 -54.5 -89.5t-153.5 -39.5q-138 0 -228 80t-110 210h-79v10z" />
    <glyph glyph-name="Euro" unicode="&#x20ac;" horiz-adv-x="725" 
d="M53 290h77q-3 28 -3 60q0 28 3 55h-77v10h78q18 132 108.5 213.5t230.5 81.5q99 0 153.5 -39.5t54.5 -89.5q0 -27 -16.5 -45.5t-44.5 -18.5q-44 0 -59 38q-13 36 13 62q22 22 64 18v10q-62 55 -165 55q-86 0 -137 -74t-61 -211h185v-10h-186q-1 -18 -1 -55q0 -41 1 -60
h186v-10h-185q11 -135 62 -207.5t136 -72.5q103 0 165 55v10q-58 -5 -76 35q-15 35 10 63q19 20 48 20q28 0 44.5 -18.5t16.5 -45.5q0 -50 -54.5 -89.5t-153.5 -39.5q-138 0 -228 80t-110 210h-79v10z" />
    <glyph glyph-name="litre" unicode="&#x2113;" horiz-adv-x="449" 
d="M42 156l-12 11l94 99v243q0 102 40 151q42 50 100 50q44 0 70 -27t26 -72q0 -51 -31 -112q-31 -63 -129 -176v-168q0 -75 23 -106q22 -29 60 -29q35 0 64 29q32 29 54 103h18q-21 -83 -68 -127q-37 -35 -89 -35q-43 0 -77.5 24.5t-49.5 65.5q-11 33 -11 107v52zM200 543
v-193q134 155 134 242q0 41 -19 65t-48 24t-48 -28t-19 -110z" />
    <glyph glyph-name="afii61352" unicode="&#x2116;" horiz-adv-x="1078" 
d="M894 700q-77 0 -77 -146t77 -146t77 146t-77 146zM894 398q-71 0 -114 45t-43 111t43 111t114 45t114 -45t43 -111t-43 -111t-114 -45zM750 318h288v-10h-288v10zM578 194h10l-3 454l-112 42v10h234v-10l-107 -42v-653h-60l-379 612h-10l4 -555l112 -42v-10h-234v10
l107 42v633l-107 5v10h228z" />
    <glyph glyph-name="trademark" unicode="&#x2122;" horiz-adv-x="845" 
d="M59 700h272l2 -83h-7l-38 72l-60 3v-335l35 -2v-5h-136v5l35 2v335l-61 -3l-37 -72h-7zM600 434h5l83 266h100v-5l-35 -2v-336l35 -2v-5h-136v5l35 2v293h-5l-94 -303h-21l-120 296h-5l3 -286l53 -2v-5h-116v5l53 2v336l-53 2v5h111z" />
    <glyph glyph-name="Omega" unicode="&#x2126;" horiz-adv-x="740" 
d="M138 20l175 -10v119q-113 25 -194.5 100t-81.5 181q0 133 95 216.5t238 83.5t238 -83.5t95 -216.5q0 -106 -81.5 -181t-194.5 -100v-119l175 10l78 140h10l-10 -160h-263v135q66 21 104.5 95.5t38.5 179.5q0 130 -51 210t-139 80t-139 -80t-51 -210q0 -105 38.5 -179.5
t104.5 -95.5v-135h-263l-10 160h10z" />
    <glyph glyph-name="estimated" unicode="&#x212e;" horiz-adv-x="736" 
d="M706 349h-528v-235q81 -78 190 -78q163 0 252 157l46 -26q-67 -96 -132.5 -136.5t-165.5 -40.5q-150 0 -244 102t-94 257q0 156 94.5 258.5t243.5 102.5q142 0 236.5 -94.5t101.5 -266.5zM178 397h380v189q-82 77 -191 77q-110 0 -189 -77v-189z" />
    <glyph glyph-name="onethird" unicode="&#x2153;" horiz-adv-x="800" 
d="M50 365l80 2v329l-70 -9v5l131 23h5v-348l81 -2v-5h-227v5zM618 -5q31 0 48.5 24.5t17.5 69.5q0 36 -18 63t-50 27h-13v6h11q31 0 45.5 22t14.5 53q0 27 -15.5 46t-42.5 19q-23 0 -40 -12t-23 -23.5t-13 -30.5h-5q8 36 35.5 63.5t67.5 27.5q45 0 72 -22t27 -57
q0 -33 -25.5 -56.5t-75.5 -31.5v-2q114 -7 114 -89q0 -49 -37 -75.5t-93 -26.5q-44 0 -70.5 21t-26.5 49q0 13 9 21.5t22 8.5q25 0 30 -24q6 -23 -16 -33q-10 -5 -24 -4v-5q26 -29 74 -29zM570 710h10l-160 -360l-150 -350h-10l150 350z" />
    <glyph glyph-name="twothirds" unicode="&#x2154;" horiz-adv-x="800" 
d="M116 413v-5l157 3v-51h-223v5q53 39 87 76.5t47.5 71t17 53.5t3.5 46q0 40 -17 65.5t-50 25.5q-37 0 -63 -26v-5q33 8 41 -18q7 -22 -13 -34q-8 -5 -18 -5q-12 0 -21 8.5t-9 23.5q0 25 28.5 46.5t76.5 21.5q57 0 83.5 -30t26.5 -70q0 -105 -154 -202zM618 -5
q31 0 48.5 24.5t17.5 69.5q0 36 -18 63t-50 27h-13v6h11q31 0 45.5 22t14.5 53q0 27 -15.5 46t-42.5 19q-23 0 -40 -12t-23 -23.5t-13 -30.5h-5q8 36 35.5 63.5t67.5 27.5q45 0 72 -22t27 -57q0 -33 -25.5 -56.5t-75.5 -31.5v-2q114 -7 114 -89q0 -49 -37 -75.5t-93 -26.5
q-44 0 -70.5 21t-26.5 49q0 13 9 21.5t22 8.5q25 0 30 -24q6 -23 -16 -33q-10 -5 -24 -4v-5q26 -29 74 -29zM570 710h10l-160 -360l-150 -350h-10l150 350z" />
    <glyph glyph-name="oneeighth" unicode="&#x215b;" horiz-adv-x="800" 
d="M50 365l80 2v329l-70 -9v5l131 23h5v-348l81 -2v-5h-227v5zM681 271q0 31 -12 52.5t-33 21.5t-32.5 -20.5t-11.5 -49.5q0 -17 6 -30.5t18 -22.5t20 -13.5t21 -10.5q24 22 24 73zM686 74q0 49 -79 82q-28 -28 -28 -73q0 -39 15.5 -63.5t41.5 -24.5q24 0 37 22.5t13 56.5z
M750 90q0 -47 -34.5 -73.5t-85.5 -26.5q-49 0 -80.5 24t-31.5 68q0 28 21 49.5t63 27.5q-72 38 -72 99q0 42 32 67t76 25q41 0 70 -22.5t29 -61.5q0 -24 -20.5 -44t-55.5 -27q89 -37 89 -105zM570 710h10l-160 -360l-150 -350h-10l150 350z" />
    <glyph glyph-name="threeeighths" unicode="&#x215c;" horiz-adv-x="800" 
d="M145 355q31 0 48.5 24.5t17.5 69.5q0 36 -18.5 63t-49.5 27h-13v6h11q31 0 45.5 22.5t14.5 52.5q0 27 -15.5 46t-42.5 19q-23 0 -40 -12t-23 -23.5t-13 -30.5h-5q8 36 35.5 63.5t67.5 27.5q45 0 72 -22t27 -57q0 -33 -25.5 -56.5t-75.5 -31.5v-2q114 -7 114 -89
q0 -49 -37 -75.5t-93 -26.5q-45 0 -71 21t-26 49q0 13 9 21.5t22 8.5q25 0 30 -24q6 -23 -16 -33q-10 -5 -24 -4v-5q26 -29 74 -29zM681 271q0 31 -12 52.5t-33 21.5t-32.5 -20.5t-11.5 -49.5q0 -17 6 -30.5t18 -22.5t20 -13.5t21 -10.5q24 22 24 73zM686 74q0 49 -79 82
q-28 -28 -28 -73q0 -39 15.5 -63.5t41.5 -24.5q24 0 37 22.5t13 56.5zM750 90q0 -47 -34.5 -73.5t-85.5 -26.5q-49 0 -80.5 24t-31.5 68q0 28 21 49.5t63 27.5q-72 38 -72 99q0 42 32 67t76 25q41 0 70 -22.5t29 -61.5q0 -24 -20.5 -44t-55.5 -27q89 -37 89 -105zM570 710
h10l-160 -360l-150 -350h-10l150 350z" />
    <glyph glyph-name="fiveeighths" unicode="&#x215d;" horiz-adv-x="800" 
d="M147 350q-45 0 -71 21t-26 49q0 12 9 21t23 9q24 0 29 -23q6 -23 -15 -34q-11 -5 -26 -3v-5q30 -30 74 -30q34 0 51 29.5t17 70.5q0 42 -26 72t-84 30h-16l5 148h174v-56h-170l-3 -88q54 12 89.5 7t57 -25.5t30 -42t8.5 -42.5q0 -48 -35 -78t-95 -30zM681 271
q0 31 -12 52.5t-33 21.5t-32.5 -20.5t-11.5 -49.5q0 -17 6 -30.5t18 -22.5t20 -13.5t21 -10.5q24 22 24 73zM686 74q0 49 -79 82q-28 -28 -28 -73q0 -39 15.5 -63.5t41.5 -24.5q24 0 37 22.5t13 56.5zM750 90q0 -47 -34.5 -73.5t-85.5 -26.5q-49 0 -80.5 24t-31.5 68
q0 28 21 49.5t63 27.5q-72 38 -72 99q0 42 32 67t76 25q41 0 70 -22.5t29 -61.5q0 -24 -20.5 -44t-55.5 -27q89 -37 89 -105zM550 710h10l-160 -360l-150 -350h-10l150 350z" />
    <glyph glyph-name="seveneighths" unicode="&#x215e;" horiz-adv-x="800" 
d="M244 657v5l-179 -5l-10 -34h-5l2 87h215v-5l-115 -345h-65zM681 271q0 31 -12 52.5t-33 21.5t-32.5 -20.5t-11.5 -49.5q0 -17 6 -30.5t18 -22.5t20 -13.5t21 -10.5q24 22 24 73zM686 74q0 49 -79 82q-28 -28 -28 -73q0 -39 15.5 -63.5t41.5 -24.5q24 0 37 22.5t13 56.5z
M750 90q0 -47 -34.5 -73.5t-85.5 -26.5q-49 0 -80.5 24t-31.5 68q0 28 21 49.5t63 27.5q-72 38 -72 99q0 42 32 67t76 25q41 0 70 -22.5t29 -61.5q0 -24 -20.5 -44t-55.5 -27q89 -37 89 -105zM530 710h10l-160 -360l-150 -350h-10l150 350z" />
    <glyph glyph-name="partialdiff" unicode="&#x2202;" horiz-adv-x="540" 
d="M172 210q-30 -210 60 -210q41 0 75 55.5t51.5 137.5t20.5 172q-37 48 -84 48q-49 0 -79.5 -57.5t-43.5 -145.5zM374 390l8 3q10 112 -42 199t-139 108l3 10q156 -32 241.5 -154.5t62.5 -288.5q-16 -117 -91.5 -197t-184.5 -80q-94 0 -155 64.5t-47 166.5
q13 91 73.5 153.5t148.5 62.5q73 0 122 -47z" />
    <glyph glyph-name="Delta" unicode="&#x2206;" horiz-adv-x="706" 
d="M366 710l280 -710h-586zM76 10h476l-221 592z" />
    <glyph glyph-name="product" unicode="&#x220f;" horiz-adv-x="740" 
d="M504 -205v890h-268v-890l71 -5v-10h-274v10l71 5v890l-71 5v10h674v-10l-71 -5v-890l71 -5v-10h-274v10z" />
    <glyph glyph-name="summation" unicode="&#x2211;" horiz-adv-x="590" 
d="M381 350l-183 -330v-10l236 5l103 152h10l-5 -167h-505v10l182 340l-182 340v10h485l5 -167h-10l-93 152l-226 5v-10z" />
    <glyph glyph-name="minus" unicode="&#x2212;" horiz-adv-x="560" 
d="M93 275h374v-15h-374v15z" />
    <glyph glyph-name="uni2215" unicode="&#x2215;" horiz-adv-x="480" 
d="M335 710h20l-210 -710h-20z" />
    <glyph glyph-name="uni2219" unicode="&#x2219;" horiz-adv-x="306" 
d="M93 263q0 27 17 44t43 17t43 -17t17 -44t-17 -43t-43 -16t-43 16t-17 43z" />
    <glyph glyph-name="radical" unicode="&#x221a;" horiz-adv-x="785" 
d="M715 710h10l-280 -710h-35l-168 410h-182v10h264l138 -350z" />
    <glyph glyph-name="infinity" unicode="&#x221e;" horiz-adv-x="949" 
d="M268 130q62 0 114.5 41t73.5 84q-21 47 -75 81t-111 34q-79 0 -119.5 -33t-40.5 -82q0 -50 39.5 -87.5t118.5 -37.5zM681 370q-62 0 -114.5 -41t-73.5 -84q21 -47 75 -81t111 -34q79 0 119.5 33t40.5 82q0 50 -39.5 87.5t-118.5 37.5zM270 400q69 0 124 -37t83 -88
q83 125 212 125q81 0 130.5 -44t49.5 -111q0 -65 -51 -105t-139 -40q-69 0 -125 37t-83 86q-82 -123 -211 -123q-81 0 -130.5 44t-49.5 111q0 65 51 105t139 40z" />
    <glyph glyph-name="integral" unicode="&#x222b;" horiz-adv-x="340" 
d="M246 550l-34 -492q-4 -51 -17.5 -98t-38.5 -91.5t-69.5 -71.5t-101.5 -27q-38 0 -62 16t-21 50q2 28 25 43t49 10t36 -29q11 -31 -6 -73q42 0 56 70q5 26 12 121l38 539q5 83 73 148t149 65q40 0 63 -16.5t21 -47.5q-2 -24 -19 -40t-44 -16q-16 0 -30 9.5t-21 32.5t9 61
h-10q-27 0 -39 -40.5t-18 -122.5z" />
    <glyph glyph-name="approxequal" unicode="&#x2248;" horiz-adv-x="550" 
d="M94 306l-7 4q55 113 103 113q20 0 99 -25t101 -25q32 0 66 41l7 -4q-11 -22 -18.5 -35t-20.5 -31.5t-28 -27.5t-31 -9q-23 0 -99 24t-100 24q-22 0 -37.5 -11.5t-34.5 -37.5zM94 156l-7 4q55 113 103 113q20 0 99 -25t101 -25q32 0 66 41l7 -4q-11 -22 -18.5 -35
t-20.5 -31.5t-28 -27.5t-31 -9q-23 0 -99 24t-100 24q-22 0 -37.5 -11.5t-34.5 -37.5z" />
    <glyph glyph-name="notequal" unicode="&#x2260;" horiz-adv-x="560" 
d="M93 345h198l84 285h20l-84 -285h156v-15h-161l-37 -125h198v-15h-202l-80 -270h-20l80 270h-152v15h156l37 125h-193v15z" />
    <glyph glyph-name="lessequal" unicode="&#x2264;" horiz-adv-x="560" 
d="M135 269l332 -171v-45h-374v27h351l-351 180v16l374 187v-30z" />
    <glyph glyph-name="greaterequal" unicode="&#x2265;" horiz-adv-x="560" 
d="M93 98l332 171l-332 164v30l374 -187v-16l-351 -180h351v-27h-374v45z" />
    <glyph glyph-name="lozenge" unicode="&#x25ca;" horiz-adv-x="612" 
d="M295 -30l-195 374l195 374h22l195 -374l-195 -374h-22zM113 344l193 -366l192 366l-192 366z" />
    <glyph glyph-name="undercommaaccent" unicode="&#xf005;" horiz-adv-x="335" 
d="M93 -163v113q76 10 112.5 -21.5t36.5 -82.5q0 -67 -42.5 -120t-93.5 -72l-4 10q36 14 61 43t29.5 57.5t-20.5 50.5t-79 22z" />
    <glyph glyph-name="Abreve.small" unicode="&#xf66d;" 
d="M119 52l111 -42v-10h-227v10l102 42l163 473l62 25l213 -535l54 -5v-10h-270v10l69 5l-62 165h-172zM249 411h-10l-74 -221h166zM300 620q-63 0 -97.5 45.5t-34.5 105.5h8q17 -80 124 -80t124 80h8q0 -60 -34.5 -105.5t-97.5 -45.5z" />
    <glyph glyph-name="Amacron.small" unicode="&#xf66e;" 
d="M119 52l111 -42v-10h-227v10l102 42l163 473l62 25l213 -535l54 -5v-10h-270v10l69 5l-62 165h-172zM249 411h-10l-74 -221h166zM145 665h310v-15h-310v15z" />
    <glyph glyph-name="AEacute.small" unicode="&#xf670;" horiz-adv-x="790" 
d="M367 474h-10l-105 -197h115v197zM115 52l260 473l-100 5v10h462l5 -147h-10l-93 132l-139 5v-253l106 3l32 97h10v-209h-10l-32 96l-106 3v-257l149 5l98 132h10l-10 -147h-450v10l70 5v252h-121l-115 -215l106 -42v-10h-234v10zM499 780h115l-172 -180h-10z" />
    <glyph glyph-name="Cacute.small" unicode="&#xf671;" horiz-adv-x="580" 
d="M330 540q-70 0 -110 -66t-40 -204t40 -204t110 -66q51 0 91 26.5t59 60.5l57 98h10l-5 -135q-96 -60 -212 -60q-54 0 -104 16t-93.5 48.5t-69.5 88t-26 127.5t26 127.5t69.5 88t93.5 48.5t104 16q111 0 207 -60l5 -135h-10l-57 97q-21 35 -58 61.5t-87 26.5zM372 780h115
l-172 -180h-10z" />
    <glyph glyph-name="Ccaron.small" unicode="&#xf672;" horiz-adv-x="580" 
d="M330 540q-70 0 -110 -66t-40 -204t40 -204t110 -66q51 0 91 26.5t59 60.5l57 98h10l-5 -135q-96 -60 -212 -60q-54 0 -104 16t-93.5 48.5t-69.5 88t-26 127.5t26 127.5t69.5 88t93.5 48.5t104 16q111 0 207 -60l5 -135h-10l-57 97q-21 35 -58 61.5t-87 26.5zM189 780h10
l125 -89l125 89h10l-130 -180h-10z" />
    <glyph glyph-name="Ccircumflex.small" unicode="&#xf673;" horiz-adv-x="580" 
d="M330 540q-70 0 -110 -66t-40 -204t40 -204t110 -66q51 0 91 26.5t59 60.5l57 98h10l-5 -135q-96 -60 -212 -60q-54 0 -104 16t-93.5 48.5t-69.5 88t-26 127.5t26 127.5t69.5 88t93.5 48.5t104 16q111 0 207 -60l5 -135h-10l-57 97q-21 35 -58 61.5t-87 26.5zM324 689
l-125 -89h-10l130 180h10l130 -180h-10z" />
    <glyph glyph-name="Cdotaccent.small" unicode="&#xf674;" horiz-adv-x="580" 
d="M330 540q-70 0 -110 -66t-40 -204t40 -204t110 -66q51 0 91 26.5t59 60.5l57 98h10l-5 -135q-96 -60 -212 -60q-54 0 -104 16t-93.5 48.5t-69.5 88t-26 127.5t26 127.5t69.5 88t93.5 48.5t104 16q111 0 207 -60l5 -135h-10l-57 97q-21 35 -58 61.5t-87 26.5zM267 677
q0 28 18.5 46.5t46.5 18.5t46.5 -18.5t18.5 -46.5t-18.5 -46.5t-46.5 -18.5t-46.5 18.5t-18.5 46.5z" />
    <glyph glyph-name="Dcaron.small" unicode="&#xf675;" horiz-adv-x="660" 
d="M236 10h64q51 0 87.5 23.5t56 63t28 82.5t8.5 91q0 260 -190 260h-54v-520zM300 0h-267v10l71 5v510l-71 5v10h267q159 0 241 -70.5t82 -199.5q0 -121 -83.5 -195.5t-239.5 -74.5zM184 780h10l125 -89l125 89h10l-130 -180h-10z" />
    <glyph glyph-name="Ebreve.small" unicode="&#xf677;" horiz-adv-x="560" 
d="M236 530v-253l117 4l49 96h10v-209h-10l-49 95l-117 4v-257l183 5l98 132h10l-10 -147h-484v10l71 5v510l-71 5v10h474l5 -147h-10l-93 132zM290 620q-63 0 -97.5 45.5t-34.5 105.5h8q17 -80 124 -80t124 80h8q0 -60 -34.5 -105.5t-97.5 -45.5z" />
    <glyph glyph-name="Ecaron.small" unicode="&#xf678;" horiz-adv-x="560" 
d="M236 530v-253l117 4l49 96h10v-209h-10l-49 95l-117 4v-257l183 5l98 132h10l-10 -147h-484v10l71 5v510l-71 5v10h474l5 -147h-10l-93 132zM173 780h10l125 -89l125 89h10l-130 -180h-10z" />
    <glyph glyph-name="Edotaccent.small" unicode="&#xf679;" horiz-adv-x="560" 
d="M236 530v-253l117 4l49 96h10v-209h-10l-49 95l-117 4v-257l183 5l98 132h10l-10 -147h-484v10l71 5v510l-71 5v10h474l5 -147h-10l-93 132zM230 677q0 28 18.5 46.5t46.5 18.5t46.5 -18.5t18.5 -46.5t-18.5 -46.5t-46.5 -18.5t-46.5 18.5t-18.5 46.5z" />
    <glyph glyph-name="Emacron.small" unicode="&#xf67a;" horiz-adv-x="560" 
d="M236 530v-253l117 4l49 96h10v-209h-10l-49 95l-117 4v-257l183 5l98 132h10l-10 -147h-484v10l71 5v510l-71 5v10h474l5 -147h-10l-93 132zM142 665h310v-15h-310v15z" />
    <glyph glyph-name="Gbreve.small" unicode="&#xf67d;" horiz-adv-x="640" 
d="M330 0q53 0 97 29v216l-57 5v10h247v-10l-57 -5v-182q-117 -73 -230 -73q-54 0 -104 16t-93.5 48.5t-69.5 88t-26 127.5t26 127.5t69.5 88t93.5 48.5t104 16q111 0 207 -60l5 -135h-10l-57 97q-49 88 -145 88q-70 0 -110 -66t-40 -204t40 -204t110 -66zM330 620
q-63 0 -97.5 45.5t-34.5 105.5h8q17 -80 124 -80t124 80h8q0 -60 -34.5 -105.5t-97.5 -45.5z" />
    <glyph glyph-name="Gcircumflex.small" unicode="&#xf67e;" horiz-adv-x="640" 
d="M330 0q53 0 97 29v216l-57 5v10h247v-10l-57 -5v-182q-117 -73 -230 -73q-54 0 -104 16t-93.5 48.5t-69.5 88t-26 127.5t26 127.5t69.5 88t93.5 48.5t104 16q111 0 207 -60l5 -135h-10l-57 97q-49 88 -145 88q-70 0 -110 -66t-40 -204t40 -204t110 -66zM334 689l-125 -89
h-10l130 180h10l130 -180h-10z" />
    <glyph glyph-name="Gcommaaccent.small" unicode="&#xf67f;" horiz-adv-x="640" 
d="M330 0q53 0 97 29v216l-57 5v10h247v-10l-57 -5v-182q-117 -73 -230 -73q-54 0 -104 16t-93.5 48.5t-69.5 88t-26 127.5t26 127.5t69.5 88t93.5 48.5t104 16q111 0 207 -60l5 -135h-10l-57 97q-49 88 -145 88q-70 0 -110 -66t-40 -204t40 -204t110 -66zM252 -163v113
q76 10 112.5 -21.5t36.5 -82.5q0 -67 -42.5 -120t-93.5 -72l-4 10q36 14 61 43t29.5 57.5t-20.5 50.5t-79 22z" />
    <glyph glyph-name="Gdotaccent.small" unicode="&#xf680;" horiz-adv-x="640" 
d="M330 0q53 0 97 29v216l-57 5v10h247v-10l-57 -5v-182q-117 -73 -230 -73q-54 0 -104 16t-93.5 48.5t-69.5 88t-26 127.5t26 127.5t69.5 88t93.5 48.5t104 16q111 0 207 -60l5 -135h-10l-57 97q-49 88 -145 88q-70 0 -110 -66t-40 -204t40 -204t110 -66zM276 677
q0 28 18.5 46.5t46.5 18.5t46.5 -18.5t18.5 -46.5t-18.5 -46.5t-46.5 -18.5t-46.5 18.5t-18.5 46.5z" />
    <glyph glyph-name="Hcircumflex.small" unicode="&#xf682;" horiz-adv-x="720" 
d="M484 15v257h-248v-257l71 -5v-10h-274v10l71 5v510l-71 5v10h274v-10l-71 -5v-243h248v243l-71 5v10h274v-10l-71 -5v-510l71 -5v-10h-274v10zM362 689l-125 -89h-10l130 180h10l130 -180h-10z" />
    <glyph glyph-name="Ibreve.small" unicode="&#xf683;" horiz-adv-x="340" 
d="M104 15v510l-71 5v10h274v-10l-71 -5v-510l71 -5v-10h-274v10zM170 620q-63 0 -97.5 45.5t-34.5 105.5h8q17 -80 124 -80t124 80h8q0 -60 -34.5 -105.5t-97.5 -45.5z" />
    <glyph glyph-name="Imacron.small" unicode="&#xf685;" horiz-adv-x="340" 
d="M104 15v510l-71 5v10h274v-10l-71 -5v-510l71 -5v-10h-274v10zM15 665h310v-15h-310v15z" />
    <glyph glyph-name="Itilde.small" unicode="&#xf687;" horiz-adv-x="340" 
d="M104 15v510l-71 5v10h274v-10l-71 -5v-510l71 -5v-10h-274v10zM-13 625l-5 5q60 123 113 123q27 0 92.5 -29t97.5 -29q17 0 29.5 6t18.5 12t20 22l5 -5q-56 -113 -108 -113q-30 0 -97.5 29t-97.5 29q-10 0 -18.5 -2t-16 -8.5t-11 -10.5t-11.5 -15t-11 -14z" />
    <glyph glyph-name="Jcircumflex.small" unicode="&#xf688;" horiz-adv-x="410" 
d="M183 170v355l-70 5v10h273v-10l-70 -5v-322q0 -84 -63 -148.5t-145 -64.5q-42 0 -65 17.5t-23 45.5q0 41 38 53q36 12 61 -13q29 -29 9 -86h10q27 0 36 41t9 122zM245 689l-125 -89h-10l130 180h10l130 -180h-10z" />
    <glyph glyph-name="Kcommaaccent.small" unicode="&#xf689;" horiz-adv-x="665" 
d="M290 280l176 208l-108 42v10h264v-10l-141 -42l-116 -137l241 -336l46 -5v-10h-289v10l66 5l-173 255h-20v-255l71 -5v-10h-274v10l71 5v510l-71 5v10h274v-10l-71 -5v-245h54zM259 -163v113q76 10 112.5 -21.5t36.5 -82.5q0 -67 -42.5 -120t-93.5 -72l-4 10q36 14 61 43
t29.5 57.5t-20.5 50.5t-79 22z" />
    <glyph glyph-name="Lacute.small" unicode="&#xf68a;" horiz-adv-x="540" 
d="M236 10l183 5l98 132h10l-10 -147h-484v10l71 5v510l-71 5v10h274v-10l-71 -5v-515zM226 780h115l-172 -180h-10z" />
    <glyph glyph-name="Lcaron.small" unicode="&#xf68b;" horiz-adv-x="540" 
d="M236 10l183 5l98 132h10l-10 -147h-484v10l71 5v510l-71 5v10h274v-10l-71 -5v-515zM346 434v113q76 10 112.5 -21.5t36.5 -82.5q0 -67 -42.5 -120t-93.5 -72l-4 10q36 14 61 43t29.5 57.5t-20.5 50.5t-79 22z" />
    <glyph glyph-name="Lcommaaccent.small" unicode="&#xf68c;" horiz-adv-x="540" 
d="M236 10l183 5l98 132h10l-10 -147h-484v10l71 5v510l-71 5v10h274v-10l-71 -5v-515zM208 -163v113q76 10 112.5 -21.5t36.5 -82.5q0 -67 -42.5 -120t-93.5 -72l-4 10q36 14 61 43t29.5 57.5t-20.5 50.5t-79 22z" />
    <glyph glyph-name="Ldot.small" unicode="&#xf68d;" horiz-adv-x="540" 
d="M236 10l183 5l98 132h10l-10 -147h-484v10l71 5v510l-71 5v10h274v-10l-71 -5v-515zM298 297q0 28 18.5 46.5t46.5 18.5t46.5 -18.5t18.5 -46.5t-18.5 -46.5t-46.5 -18.5t-46.5 18.5t-18.5 46.5z" />
    <glyph glyph-name="Nacute.small" unicode="&#xf68e;" horiz-adv-x="670" 
d="M527 204h10l-5 284l-119 42v10h234v-10l-100 -42v-498h-17l-377 447h-10l5 -385l119 -42v-10h-234v10l100 42v473l-100 5v10h208zM376 780h115l-172 -180h-10z" />
    <glyph glyph-name="Ncaron.small" unicode="&#xf68f;" horiz-adv-x="670" 
d="M527 204h10l-5 284l-119 42v10h234v-10l-100 -42v-498h-17l-377 447h-10l5 -385l119 -42v-10h-234v10l100 42v473l-100 5v10h208zM206 780h10l125 -89l125 89h10l-130 -180h-10z" />
    <glyph glyph-name="Ncommaaccent.small" unicode="&#xf690;" horiz-adv-x="670" 
d="M527 204h10l-5 284l-119 42v10h234v-10l-100 -42v-498h-17l-377 447h-10l5 -385l119 -42v-10h-234v10l100 42v473l-100 5v10h208zM269 -163v113q76 10 112.5 -21.5t36.5 -82.5q0 -67 -42.5 -120t-93.5 -72l-4 10q36 14 61 43t29.5 57.5t-20.5 50.5t-79 22z" />
    <glyph glyph-name="Obreve.small" unicode="&#xf691;" horiz-adv-x="660" 
d="M37 270q0 69 25 123.5t67 88t93.5 51t107.5 17.5t107.5 -17.5t93.5 -51t67 -88t25 -123.5t-25 -123.5t-67 -88t-93.5 -51t-107.5 -17.5t-107.5 17.5t-93.5 51t-67 88t-25 123.5zM180 270q0 -137 40 -203.5t110 -66.5t110 66.5t40 203.5t-40 203.5t-110 66.5t-110 -66.5
t-40 -203.5zM335 620q-63 0 -97.5 45.5t-34.5 105.5h8q17 -80 124 -80t124 80h8q0 -60 -34.5 -105.5t-97.5 -45.5z" />
    <glyph glyph-name="Ohungarumlaut.small" unicode="&#xf692;" horiz-adv-x="660" 
d="M37 270q0 69 25 123.5t67 88t93.5 51t107.5 17.5t107.5 -17.5t93.5 -51t67 -88t25 -123.5t-25 -123.5t-67 -88t-93.5 -51t-107.5 -17.5t-107.5 17.5t-93.5 51t-67 88t-25 123.5zM180 270q0 -137 40 -203.5t110 -66.5t110 66.5t40 203.5t-40 203.5t-110 66.5t-110 -66.5
t-40 -203.5zM443 800h109l-162 -200h-10zM283 800h109l-162 -200h-10z" />
    <glyph glyph-name="Omacron.small" unicode="&#xf693;" horiz-adv-x="660" 
d="M37 270q0 69 25 123.5t67 88t93.5 51t107.5 17.5t107.5 -17.5t93.5 -51t67 -88t25 -123.5t-25 -123.5t-67 -88t-93.5 -51t-107.5 -17.5t-107.5 17.5t-93.5 51t-67 88t-25 123.5zM180 270q0 -137 40 -203.5t110 -66.5t110 66.5t40 203.5t-40 203.5t-110 66.5t-110 -66.5
t-40 -203.5zM179 665h310v-15h-310v15z" />
    <glyph glyph-name="Oslashacute.small" unicode="&#xf694;" horiz-adv-x="660" 
d="M376 780h115l-172 -180h-10zM587 533l8 -8l-53 -54q81 -76 81 -201q0 -69 -25 -123.5t-67 -88t-93.5 -51t-107.5 -17.5q-114 0 -196 64l-53 -54l-8 8l52 54q-88 76 -88 208q0 69 25 123.5t67 88t93.5 51t107.5 17.5q121 0 204 -71zM180 270q0 -80 14 -138l271 277
q-33 131 -135 131q-70 0 -110 -66.5t-40 -203.5zM480 270q0 72 -12 125l-270 -276q34 -119 132 -119q70 0 110 66.5t40 203.5z" />
    <glyph glyph-name="Racute.small" unicode="&#xf695;" horiz-adv-x="630" 
d="M272 230h-36v-215l71 -5v-10h-274v10l71 5v510l-71 5v10h277q233 0 233 -152q0 -63 -56.5 -103.5t-145.5 -49.5v-10q32 0 60 -15t40.5 -28t29.5 -34l99 -133l47 -5v-10h-187zM236 240h64q48 0 76.5 37.5t28.5 110.5q0 142 -128 142h-41v-290zM323 780h115l-172 -180h-10z
" />
    <glyph glyph-name="Rcaron.small" unicode="&#xf696;" horiz-adv-x="630" 
d="M272 230h-36v-215l71 -5v-10h-274v10l71 5v510l-71 5v10h277q233 0 233 -152q0 -63 -56.5 -103.5t-145.5 -49.5v-10q32 0 60 -15t40.5 -28t29.5 -34l99 -133l47 -5v-10h-187zM236 240h64q48 0 76.5 37.5t28.5 110.5q0 142 -128 142h-41v-290zM164 780h10l125 -89l125 89
h10l-130 -180h-10z" />
    <glyph glyph-name="Rcommaaccent.small" unicode="&#xf697;" horiz-adv-x="630" 
d="M272 230h-36v-215l71 -5v-10h-274v10l71 5v510l-71 5v10h277q233 0 233 -152q0 -63 -56.5 -103.5t-145.5 -49.5v-10q32 0 60 -15t40.5 -28t29.5 -34l99 -133l47 -5v-10h-187zM236 240h64q48 0 76.5 37.5t28.5 110.5q0 142 -128 142h-41v-290zM249 -163v113
q76 10 112.5 -21.5t36.5 -82.5q0 -67 -42.5 -120t-93.5 -72l-4 10q36 14 61 43t29.5 57.5t-20.5 50.5t-79 22z" />
    <glyph glyph-name="Sacute.small" unicode="&#xf698;" horiz-adv-x="480" 
d="M232 -10q-85 0 -159 60l-10 -55h-10l-5 177h10l47 -86q19 -36 51.5 -61t75.5 -25q41 0 67 27t26 72q0 25 -10 44t-32 34.5t-40 24.5t-50 22q-80 33 -118 72t-38 106q0 69 54 108.5t142 39.5q83 0 154 -50l5 45h10l5 -177h-10l-39 79q-15 34 -47.5 63.5t-73.5 29.5
q-37 0 -61.5 -22t-24.5 -61q0 -23 9.5 -42t18.5 -29t34.5 -23t33 -16t38.5 -15q158 -60 158 -174q0 -77 -61.5 -122.5t-149.5 -45.5zM269 780h115l-172 -180h-10z" />
    <glyph glyph-name="Scircumflex.small" unicode="&#xf69a;" horiz-adv-x="480" 
d="M232 -10q-85 0 -159 60l-10 -55h-10l-5 177h10l47 -86q19 -36 51.5 -61t75.5 -25q41 0 67 27t26 72q0 25 -10 44t-32 34.5t-40 24.5t-50 22q-80 33 -118 72t-38 106q0 69 54 108.5t142 39.5q83 0 154 -50l5 45h10l5 -177h-10l-39 79q-15 34 -47.5 63.5t-73.5 29.5
q-37 0 -61.5 -22t-24.5 -61q0 -23 9.5 -42t18.5 -29t34.5 -23t33 -16t38.5 -15q158 -60 158 -174q0 -77 -61.5 -122.5t-149.5 -45.5zM234 689l-125 -89h-10l130 180h10l130 -180h-10z" />
    <glyph glyph-name="Scommaaccent.small" unicode="&#xf69b;" horiz-adv-x="480" 
d="M232 -10q-85 0 -159 60l-10 -55h-10l-5 177h10l47 -86q19 -36 51.5 -61t75.5 -25q41 0 67 27t26 72q0 25 -10 44t-32 34.5t-40 24.5t-50 22q-80 33 -118 72t-38 106q0 69 54 108.5t142 39.5q83 0 154 -50l5 45h10l5 -177h-10l-39 79q-15 34 -47.5 63.5t-73.5 29.5
q-37 0 -61.5 -22t-24.5 -61q0 -23 9.5 -42t18.5 -29t34.5 -23t33 -16t38.5 -15q158 -60 158 -174q0 -77 -61.5 -122.5t-149.5 -45.5zM173 -163v113q76 10 112.5 -21.5t36.5 -82.5q0 -67 -42.5 -120t-93.5 -72l-4 10q36 14 61 43t29.5 57.5t-20.5 50.5t-79 22z" />
    <glyph glyph-name="Tcaron.small" unicode="&#xf69d;" horiz-adv-x="540" 
d="M28 540h484l5 -147h-10l-93 132l-78 3v-513l71 -5v-10h-274v10l71 5v513l-71 -3l-100 -132h-10zM134 780h10l125 -89l125 89h10l-130 -180h-10z" />
    <glyph glyph-name="Tcommaaccent.small" unicode="&#xf69e;" horiz-adv-x="540" 
d="M28 540h484l5 -147h-10l-93 132l-78 3v-513l71 -5v-10h-274v10l71 5v513l-71 -3l-100 -132h-10zM201 -163v113q76 10 112.5 -21.5t36.5 -82.5q0 -67 -42.5 -120t-93.5 -72l-4 10q36 14 61 43t29.5 57.5t-20.5 50.5t-79 22z" />
    <glyph glyph-name="Ubreve.small" unicode="&#xf69f;" horiz-adv-x="700" 
d="M555 250v238l-112 42v10h234v-10l-112 -42v-238q0 -260 -220 -260q-118 0 -184.5 64.5t-66.5 185.5v285l-71 5v10h274v-10l-71 -5v-275q0 -117 36.5 -175t120.5 -58q85 0 128.5 59.5t43.5 173.5zM370 620q-63 0 -97.5 45.5t-34.5 105.5h8q17 -80 124 -80t124 80h8
q0 -60 -34.5 -105.5t-97.5 -45.5z" />
    <glyph glyph-name="Uhungarumlaut.small" unicode="&#xf6a0;" horiz-adv-x="700" 
d="M555 250v238l-112 42v10h234v-10l-112 -42v-238q0 -260 -220 -260q-118 0 -184.5 64.5t-66.5 185.5v285l-71 5v10h274v-10l-71 -5v-275q0 -117 36.5 -175t120.5 -58q85 0 128.5 59.5t43.5 173.5zM470 800h109l-162 -200h-10zM310 800h109l-162 -200h-10z" />
    <glyph glyph-name="Umacron.small" unicode="&#xf6a1;" horiz-adv-x="700" 
d="M555 250v238l-112 42v10h234v-10l-112 -42v-238q0 -260 -220 -260q-118 0 -184.5 64.5t-66.5 185.5v285l-71 5v10h274v-10l-71 -5v-275q0 -117 36.5 -175t120.5 -58q85 0 128.5 59.5t43.5 173.5zM208 665h310v-15h-310v15z" />
    <glyph glyph-name="Uring.small" unicode="&#xf6a3;" horiz-adv-x="700" 
d="M555 250v238l-112 42v10h234v-10l-112 -42v-238q0 -260 -220 -260q-118 0 -184.5 64.5t-66.5 185.5v285l-71 5v10h274v-10l-71 -5v-275q0 -117 36.5 -175t120.5 -58q85 0 128.5 59.5t43.5 173.5zM281 687q0 38 23.5 63t63.5 25t64 -25t24 -63t-24 -62.5t-64 -24.5
q-38 0 -62.5 25t-24.5 62zM305 687q0 -34 16 -55.5t47 -21.5q32 0 47.5 21.5t15.5 55.5q0 35 -15.5 56.5t-47.5 21.5q-31 0 -47 -22t-16 -56z" />
    <glyph glyph-name="Utilde.small" unicode="&#xf6a4;" horiz-adv-x="700" 
d="M555 250v238l-112 42v10h234v-10l-112 -42v-238q0 -260 -220 -260q-118 0 -184.5 64.5t-66.5 185.5v285l-71 5v10h274v-10l-71 -5v-275q0 -117 36.5 -175t120.5 -58q85 0 128.5 59.5t43.5 173.5zM184 625l-5 5q60 123 113 123q27 0 92.5 -29t97.5 -29q17 0 29.5 6
t18.5 12t20 22l5 -5q-57 -113 -108 -113q-30 0 -97.5 29t-97.5 29q-10 0 -18.5 -2t-16 -8.5t-11 -10.5t-11.5 -15t-11 -14z" />
    <glyph glyph-name="Wacute.small" unicode="&#xf6a5;" horiz-adv-x="880" 
d="M449 360h-10l-116 -365h-78l-189 530l-53 5v10h267v-10l-73 -5l137 -425h10l92 287l-44 138l-55 5v10h266v-10l-72 -5l132 -425h10l99 388l-102 42v10h207v-10l-92 -42l-129 -493h-84zM522 780h115l-172 -180h-10z" />
    <glyph glyph-name="Wcircumflex.small" unicode="&#xf6a6;" horiz-adv-x="880" 
d="M449 360h-10l-116 -365h-78l-189 530l-53 5v10h267v-10l-73 -5l137 -425h10l92 287l-44 138l-55 5v10h266v-10l-72 -5l132 -425h10l99 388l-102 42v10h207v-10l-92 -42l-129 -493h-84zM458 689l-125 -89h-10l130 180h10l130 -180h-10z" />
    <glyph glyph-name="Wdieresis.small" unicode="&#xf6a7;" horiz-adv-x="880" 
d="M449 360h-10l-116 -365h-78l-189 530l-53 5v10h267v-10l-73 -5l137 -425h10l92 287l-44 138l-55 5v10h266v-10l-72 -5l132 -425h10l99 388l-102 42v10h207v-10l-92 -42l-129 -493h-84zM299 665q0 27 17 44t43 17t43.5 -17t17.5 -44t-17 -43t-44 -16q-26 0 -43 16t-17 43z
M494 665q0 27 17.5 44t43.5 17t43 -17t17 -44t-17 -43t-43 -16q-27 0 -44 16t-17 43z" />
    <glyph glyph-name="Wgrave.small" unicode="&#xf6a8;" horiz-adv-x="880" 
d="M449 360h-10l-116 -365h-78l-189 530l-53 5v10h267v-10l-73 -5l137 -425h10l92 287l-44 138l-55 5v10h266v-10l-72 -5l132 -425h10l99 388l-102 42v10h207v-10l-92 -42l-129 -493h-84zM448 600l-162 180h115l57 -180h-10z" />
    <glyph glyph-name="Ycircumflex.small" unicode="&#xf6a9;" horiz-adv-x="567" 
d="M225 164l-185 361l-37 5v10h250v-10l-68 -5l154 -308h10l104 271l-93 42v10h203v-10l-95 -42l-110 -283v-190l70 -5v-10h-273v10l70 5v149zM301 689l-125 -89h-10l130 180h10l130 -180h-10z" />
    <glyph glyph-name="Ygrave.small" unicode="&#xf6aa;" horiz-adv-x="567" 
d="M225 164l-185 361l-37 5v10h250v-10l-68 -5l154 -308h10l104 271l-93 42v10h203v-10l-95 -42l-110 -283v-190l70 -5v-10h-273v10l70 5v149zM289 600l-162 180h115l57 -180h-10z" />
    <glyph glyph-name="Zacute.small" unicode="&#xf6ab;" horiz-adv-x="540" 
d="M490 530l-299 -510v-10l203 5l103 132h10l-15 -147h-459v10l302 510v10l-179 -5l-93 -132h-10l5 147h432v-10zM307 780h115l-172 -180h-10z" />
    <glyph glyph-name="Zdotaccent.small" unicode="&#xf6ac;" horiz-adv-x="540" 
d="M490 530l-299 -510v-10l203 5l103 132h10l-15 -147h-459v10l302 510v10l-179 -5l-93 -132h-10l5 147h432v-10zM207 677q0 28 18.5 46.5t46.5 18.5t46.5 -18.5t18.5 -46.5t-18.5 -46.5t-46.5 -18.5t-46.5 18.5t-18.5 46.5z" />
    <glyph glyph-name="Idotaccent.small" unicode="&#xf6ad;" horiz-adv-x="340" 
d="M104 15v510l-71 5v10h274v-10l-71 -5v-510l71 -5v-10h-274v10zM106 677q0 28 18.5 46.5t46.5 18.5t46.5 -18.5t18.5 -46.5t-18.5 -46.5t-46.5 -18.5t-46.5 18.5t-18.5 46.5z" />
    <glyph glyph-name="commaaccent" unicode="&#xf6c3;" horiz-adv-x="335" 
d="M93 -163v113q76 10 112.5 -21.5t36.5 -82.5q0 -67 -42.5 -120t-93.5 -72l-4 10q36 14 61 43t29.5 57.5t-20.5 50.5t-79 22z" />
    <glyph glyph-name="Acute" unicode="&#xf6c9;" horiz-adv-x="369" 
d="M162 930h115l-172 -180h-10z" />
    <glyph glyph-name="Caron" unicode="&#xf6ca;" horiz-adv-x="470" 
d="M100 930h10l125 -89l125 89h10l-130 -180h-10z" />
    <glyph glyph-name="Dieresis" unicode="&#xf6cb;" horiz-adv-x="500" 
d="M92 815q0 27 17 44t43 17t43.5 -17t17.5 -44t-17 -43t-44 -16q-26 0 -43 16t-17 43zM287 815q0 27 17.5 44t43.5 17t43 -17t17 -44t-17 -43t-43 -16q-27 0 -44 16t-17 43z" />
    <glyph glyph-name="Grave" unicode="&#xf6ce;" horiz-adv-x="369" 
d="M254 750l-162 180h115l57 -180h-10z" />
    <glyph glyph-name="Hungarumlaut" unicode="&#xf6cf;" horiz-adv-x="480" 
d="M313 950h109l-162 -200h-10zM153 950h109l-162 -200h-10z" />
    <glyph glyph-name="Macron" unicode="&#xf6d0;" horiz-adv-x="510" 
d="M100 815h310v-15h-310v15z" />
    <glyph glyph-name="cyrBreve" unicode="&#xf6d1;" horiz-adv-x="450" 
d="M225 770q-63 0 -97.5 45.5t-34.5 105.5h8q17 -80 124 -80t124 80h8q0 -60 -34.5 -105.5t-97.5 -45.5z" />
    <glyph glyph-name="cyrFlex" unicode="&#xf6d2;" horiz-adv-x="470" 
d="M235 839l-125 -89h-10l130 180h10l130 -180h-10z" />
    <glyph glyph-name="dblGrave" unicode="&#xf6d3;" horiz-adv-x="480" 
d="M240 750l-162 200h109l63 -200h-10zM400 750l-162 200h109l63 -200h-10z" />
    <glyph glyph-name="cyrbreve" unicode="&#xf6d4;" horiz-adv-x="450" 
d="M225 570q-63 0 -97.5 45.5t-34.5 105.5h8q17 -80 124 -80t124 80h8q0 -60 -34.5 -105.5t-97.5 -45.5z" />
    <glyph glyph-name="cyrflex" unicode="&#xf6d5;" horiz-adv-x="470" 
d="M235 639l-125 -89h-10l130 180h10l130 -180h-10z" />
    <glyph glyph-name="dblgrave" unicode="&#xf6d6;" horiz-adv-x="480" 
d="M400 550l-162 200h109l63 -200h-10zM240 550l-162 200h109l63 -200h-10z" />
    <glyph glyph-name="dieresisacute" unicode="&#xf6d7;" horiz-adv-x="580" 
d="M92 615q0 27 17 44t43 17t43.5 -17t17.5 -44t-17 -43t-44 -16q-26 0 -43 16t-17 43zM367 615q0 27 17.5 44t43.5 17t43 -17t17 -44t-17 -43t-43 -16q-27 0 -44 16t-17 43zM313 800h119l-162 -200h-10z" />
    <glyph glyph-name="rupiah" unicode="&#xf6dd;" horiz-adv-x="1280" 
d="M886 30h-10v-235l71 -5v-10h-274v10l71 5v205h-277l-189 320h-42v-305l71 -5v-10h-274v10l71 5v670l-71 5v10h310q110 0 170 -51.5t60 -136.5q0 -68 -53.5 -120.5t-162.5 -59.5v-10q69 -5 119 -84l142 -223l126 -4v479h-61v10l183 10h10v-53h10q56 53 137 53
q96 0 153 -73t57 -187q0 -113 -63 -186.5t-160 -73.5q-70 0 -124 40zM876 436v-385q47 -33 89 -33q59 0 92 49.5t33 182.5q0 130 -33.5 180t-91.5 50q-41 0 -89 -44zM236 330h54q82 0 113.5 44t31.5 128q0 52 -10 91.5t-39.5 68t-75.5 28.5h-74v-360z" />
    <glyph glyph-name="asuperior" unicode="&#xf6e9;" horiz-adv-x="339" 
d="M191 432v120l-39 -14q-46 -17 -46 -61q0 -25 13.5 -39.5t34.5 -14.5q19 0 37 9zM191 390v33h-6q-46 -33 -87 -33q-33 0 -52 18.5t-19 46.5q0 47 82 76l82 27v76q0 30 -13.5 43.5t-42.5 13.5q-37 0 -65 -26v-6q27 2 38 -15.5t1 -35.5t-34 -18q-16 0 -26 10.5t-10 25.5
q0 30 38.5 53t87.5 23q46 0 76 -19.5t30 -64.5v-216h42v-6l-116 -6h-6z" />
    <glyph glyph-name="bsuperior" unicode="&#xf6ea;" horiz-adv-x="383" 
d="M143 658v-232q28 -19 53 -19q35 0 55 29.5t20 109.5q0 138 -75 138q-25 0 -53 -26zM63 390v432h-36v6q25 1 82 5l28 1h6v-164h6q34 32 82 32q58 0 92 -43.5t34 -112.5q0 -68 -38 -112t-96 -44q-42 0 -74 24h-6l-74 -24h-6z" />
    <glyph glyph-name="dsuperior" unicode="&#xf6eb;" horiz-adv-x="389" 
d="M321 402h42v-6l-116 -6h-6v32h-6q-34 -32 -82 -32q-58 0 -92 43.5t-34 112.5q0 68 38 112t96 44q42 0 74 -24h6v144h-36v6l110 6h6v-432zM241 434v232q-28 19 -53 19q-36 0 -56 -29.5t-20 -109.5q0 -138 76 -138q25 0 53 26z" />
    <glyph glyph-name="esuperior" unicode="&#xf6ec;" horiz-adv-x="327" 
d="M295 570h-190q1 -59 30.5 -93t71.5 -34q29 0 53 14.5t35 34.5h6q-10 -42 -42.5 -72t-81.5 -30q-70 0 -110 45t-40 109q0 74 47 116t108 42q53 0 89 -30.5t24 -101.5zM179 696q-67 0 -73 -120l113 3q13 60 -0.5 88.5t-39.5 28.5z" />
    <glyph glyph-name="isuperior" unicode="&#xf6ed;" horiz-adv-x="218" 
d="M61 790q0 20 14 34t34 14t34 -14t14 -34t-14 -34t-34 -14t-34 14t-14 34zM149 702v-297l42 -3v-6h-164v6l42 3v285h-36v6l110 6h6z" />
    <glyph glyph-name="lsuperior" unicode="&#xf6ee;" horiz-adv-x="218" 
d="M149 834v-429l42 -3v-6h-164v6l42 3v417h-36v6l110 6h6z" />
    <glyph glyph-name="msuperior" unicode="&#xf6ef;" horiz-adv-x="590" 
d="M256 702q61 0 75 -60h5q45 60 106 60q34 0 56.5 -22t22.5 -68v-207l42 -3v-6h-152v6l30 3v215q0 56 -42 56q-29 0 -64 -46v-225l42 -3v-6h-152v6l30 3v215q0 56 -42 56q-24 0 -64 -43v-228l42 -3v-6h-164v6l42 3v285h-36v6l110 6h6v-54h6q43 54 101 54z" />
    <glyph glyph-name="osuperior" unicode="&#xf6f0;" horiz-adv-x="357" 
d="M179 696q-67 0 -67 -150t67 -150q66 0 66 150t-66 150zM179 390q-64 0 -108 42.5t-44 113.5t44 113.5t108 42.5t108 -42.5t44 -113.5t-44 -113.5t-108 -42.5z" />
    <glyph glyph-name="rsuperior" unicode="&#xf6f1;" horiz-adv-x="307" 
d="M149 620h6q36 82 85 82q17 0 28.5 -10.5t11.5 -27.5q0 -26 -19.5 -36.5t-39.5 1t-21 38.5h-6q-20 -16 -45 -80v-182l42 -3v-6h-164v6l42 3v285h-36v6l110 6h6v-82z" />
    <glyph glyph-name="ssuperior" unicode="&#xf6f2;" horiz-adv-x="275" 
d="M132 390q-48 0 -94 29l-3 -29h-6v94h6q18 -43 38 -64q20 -23 47 -23q26 0 40.5 16t14.5 38t-15.5 37.5t-50.5 30.5q-43 19 -62 40t-19 56q0 38 28.5 62.5t81.5 24.5q44 0 87 -28l4 28h6v-94h-6q-17 40 -40 67q-23 20 -46 20q-20 0 -33.5 -13t-13.5 -32q0 -38 54 -61
q53 -23 76 -45t23 -60q0 -42 -33 -68t-84 -26z" />
    <glyph glyph-name="tsuperior" unicode="&#xf6f3;" horiz-adv-x="251" 
d="M147 687v-217q0 -36 9 -49.5t29 -13.5q16 0 40 10v-6q-42 -21 -90 -21q-68 0 -68 72v225h-40v6l40 3l74 72h6v-72h78v-9h-78z" />
    <glyph glyph-name="Brevesmall" unicode="&#xf6f4;" horiz-adv-x="450" 
d="M225 620q-63 0 -97.5 45.5t-34.5 105.5h8q17 -80 124 -80t124 80h8q0 -60 -34.5 -105.5t-97.5 -45.5z" />
    <glyph glyph-name="Caronsmall" unicode="&#xf6f5;" horiz-adv-x="470" 
d="M100 780h10l125 -89l125 89h10l-130 -180h-10z" />
    <glyph glyph-name="Circumflexsmall" unicode="&#xf6f6;" horiz-adv-x="470" 
d="M235 689l-125 -89h-10l130 180h10l130 -180h-10z" />
    <glyph glyph-name="Dotaccentsmall" unicode="&#xf6f7;" horiz-adv-x="314" 
d="M92 677q0 28 18.5 46.5t46.5 18.5t46.5 -18.5t18.5 -46.5t-18.5 -46.5t-46.5 -18.5t-46.5 18.5t-18.5 46.5z" />
    <glyph glyph-name="Hungarumlautsmall" unicode="&#xf6f8;" horiz-adv-x="480" 
d="M313 800h109l-162 -200h-10zM153 800h109l-162 -200h-10z" />
    <glyph glyph-name="Lslashsmall" unicode="&#xf6f9;" horiz-adv-x="540" 
d="M236 10l183 5l98 132h10l-10 -147h-484v10l71 5v218l-47 -19v15l47 19v277l-71 5v10h274v-10l-71 -5v-223l67 27v-15l-67 -27v-277z" />
    <glyph glyph-name="OEsmall" unicode="&#xf6fa;" horiz-adv-x="880" 
d="M827 540l5 -147h-10l-93 132l-173 5v-253l117 4l49 96h10v-209h-10l-49 95l-117 4v-257l183 5l98 132h10l-10 -147h-427q-33 -10 -80 -10q-56 0 -107.5 17.5t-93.5 51t-67 88t-25 123.5t25 123.5t67 88t93.5 51t107.5 17.5q47 0 80 -10h417zM180 270q0 -270 150 -270
q58 0 73.5 56.5t15.5 213.5q0 54 -1 86.5t-4 67t-8.5 53.5t-15.5 35t-24.5 22t-35.5 6q-150 0 -150 -270z" />
    <glyph glyph-name="Ogoneksmall" unicode="&#xf6fb;" horiz-adv-x="360" 
d="M267 -178v-10q-13 -17 -38.5 -28.5t-48.5 -11.5q-32 0 -54.5 15.5t-29 41t-1 55t30.5 61t64 55.5h10q-42 -39 -55 -90t18.5 -80t103.5 -8z" />
    <glyph glyph-name="Ringsmall" unicode="&#xf6fc;" horiz-adv-x="375" 
d="M100 687q0 38 23.5 63t63.5 25t64 -25t24 -63t-24 -62.5t-64 -24.5q-38 0 -62.5 25t-24.5 62zM124 687q0 -34 16 -55.5t47 -21.5q32 0 47.5 21.5t15.5 55.5q0 35 -15.5 56.5t-47.5 21.5q-31 0 -47 -22t-16 -56z" />
    <glyph glyph-name="Scaronsmall" unicode="&#xf6fd;" horiz-adv-x="480" 
d="M105 810h10l125 -89l125 89h10l-130 -180h-10zM232 -10q-85 0 -159 60l-10 -55h-10l-5 177h10l47 -86q19 -36 51.5 -61t75.5 -25q41 0 67 27t26 72q0 25 -10 44t-32 34.5t-40 24.5t-50 22q-80 33 -118 72t-38 106q0 69 54 108.5t142 39.5q83 0 154 -50l5 45h10l5 -177
h-10l-39 79q-15 34 -47.5 63.5t-73.5 29.5q-37 0 -61.5 -22t-24.5 -61q0 -23 9.5 -42t18.5 -29t34.5 -23t33 -16t38.5 -15q158 -60 158 -174q0 -77 -61.5 -122.5t-149.5 -45.5z" />
    <glyph glyph-name="Tildesmall" unicode="&#xf6fe;" horiz-adv-x="550" 
d="M92 625l-5 5q60 123 113 123q27 0 92.5 -29t97.5 -29q17 0 29.5 6t18.5 12t20 22l5 -5q-57 -113 -108 -113q-30 0 -97.5 29t-97.5 29q-10 0 -18.5 -2t-16 -8.5t-11 -10.5t-11.5 -15t-11 -14z" />
    <glyph glyph-name="Zcaronsmall" unicode="&#xf6ff;" horiz-adv-x="540" 
d="M135 810h10l125 -89l125 89h10l-130 -180h-10zM490 530l-299 -510v-10l203 5l103 132h10l-15 -147h-459v10l302 510v10l-179 -5l-93 -132h-10l5 147h432v-10z" />
    <glyph glyph-name="exclamsmall" unicode="&#xf721;" horiz-adv-x="320" 
d="M91 59q0 28 20.5 48t48.5 20t48.5 -20t20.5 -48q0 -29 -20.5 -49t-48.5 -20t-48.5 20t-20.5 49zM166 200h-10l-63 340h132z" />
    <glyph glyph-name="dollaroldstyle" unicode="&#xf724;" horiz-adv-x="505" 
d="M245 -100v90h-10q-83 0 -135.5 39t-52.5 87q0 35 20 49.5t40 14.5q26 0 45 -16.5t19 -41.5q0 -28 -21 -47t-65 -10v-10q52 -52 126 -52q17 0 34 3v202l-25 10q-168 63 -168 183q0 63 48 104t145 45v100h10v-100h6q80 0 128.5 -39t48.5 -87q0 -35 -20.5 -49.5t-40.5 -14.5
q-26 0 -45 16.5t-19 41.5q0 29 21 47.5t66 9.5v10q-52 52 -126 52q-13 0 -19 -1v-187q1 -1 21 -8q39 -15 64.5 -27.5t56 -34.5t46 -53.5t15.5 -72.5q0 -62 -54 -109.5t-149 -52.5v-91h-10zM330 106q0 36 -17.5 57.5t-57.5 39.5v-195q75 20 75 98zM176 445q0 -59 69 -91v180
q-69 -14 -69 -89z" />
    <glyph glyph-name="ampersandsmall" unicode="&#xf726;" horiz-adv-x="796" 
d="M498 379q-94 0 -129 -69v-10q66 38 100 1q25 -27 14 -62q-13 -36 -54 -37q-29 0 -51 20.5t-22 60.5q0 58 54.5 88t147.5 30q84 0 140.5 26.5t75.5 69.5v10q-64 -36 -97 0q-23 26 -9 59q13 32 53 32q28 0 48 -21t20 -63q0 -47 -65.5 -86t-160.5 -39v-10q44 -20 67.5 -66.5
t16.5 -100.5t-37 -104.5t-100 -84t-165 -33.5q-58 0 -106.5 11t-82 30.5t-58.5 45t-36.5 55t-14 60t7.5 60.5t27.5 56.5t47 48t66.5 34.5q-58 28 -86.5 70.5t-23 84.5t33 79.5t84 61t128.5 23.5q53 0 92.5 -13t59.5 -34t29.5 -41.5t9.5 -39.5q0 -26 -17.5 -44t-44.5 -18
q-46 0 -60 39q-13 35 12 61q25 27 73 15v10q-55 55 -147 55q-98 0 -140 -82.5t5 -223.5q63 40 93 14q19 -15 8 -36q-10 -18 -35 -18t-68 33q-20 -39 -28 -88.5t-1 -101t29 -94.5t67.5 -70.5t109.5 -27.5q139 0 212 96q57 74 45 158q-11 81 -78 109q-27 11 -60 11z" />
    <glyph glyph-name="zerooldstyle" unicode="&#xf730;" horiz-adv-x="640" 
d="M47 250q0 117 75 188.5t198 71.5t198 -71.5t75 -188.5t-75 -188.5t-198 -71.5t-198 71.5t-75 188.5zM129 250q0 -103 51.5 -176.5t139.5 -73.5t139.5 73.5t51.5 176.5t-51.5 176.5t-139.5 73.5t-139.5 -73.5t-51.5 -176.5z" />
    <glyph glyph-name="oneoldstyle" unicode="&#xf731;" horiz-adv-x="430" 
d="M43 10l111 5v457l-111 -17v10l233 45h10v-495l111 -5v-10h-354v10z" />
    <glyph glyph-name="twooldstyle" unicode="&#xf732;" horiz-adv-x="510" 
d="M190 103v-10l293 10v-103h-446v10q121 75 188.5 134.5t89.5 101.5t22 91t-30.5 84.5t-86.5 35.5q-41 0 -73.5 -20.5t-48 -42.5t-31.5 -54h-10q17 68 75.5 119t149.5 51q83 0 134.5 -41t51.5 -108q0 -37 -14 -68t-33 -53t-58.5 -47t-68.5 -39.5t-85 -41.5q-13 -6 -19 -9z
" />
    <glyph glyph-name="threeoldstyle" unicode="&#xf733;" horiz-adv-x="535" 
d="M223 -200q63 0 97.5 49t34.5 139q0 73 -36.5 126.5t-99.5 53.5h-25v12h22q62 0 91 44t29 105q0 54 -31.5 92.5t-84.5 38.5q-35 0 -62.5 -12t-45 -34.5t-26.5 -40.5t-19 -44h-10q17 71 72.5 126t135.5 55q89 0 143 -43.5t54 -114.5q0 -66 -51 -112.5t-152 -62.5v-5
q107 -5 168 -50.5t61 -127.5q0 -97 -74.5 -150.5t-185.5 -53.5q-89 0 -142 42.5t-53 97.5q0 26 18 43t44 17q43 0 59 -38q14 -36 -12 -64q-23 -23 -66 -20v-10q58 -58 147 -58z" />
    <glyph glyph-name="fouroldstyle" unicode="&#xf734;" horiz-adv-x="570" 
d="M456 12h81v-12h-81v-200h-132v200h-291v16l330 474l93 20v-498zM314 397l-261 -375v-10h271v385h-10z" />
    <glyph glyph-name="fiveoldstyle" unicode="&#xf735;" horiz-adv-x="535" 
d="M228 -210q-89 0 -142 42.5t-53 97.5q0 26 17.5 43t46.5 17q42 0 57 -38q14 -37 -13 -64q-23 -22 -67 -18v-10q58 -60 148 -60q67 0 101 58t34 142q0 83 -52 143.5t-166 60.5h-32l10 296h346v-112h-339l-6 -174q86 24 149.5 16.5t105.5 -28.5t68 -57.5t36.5 -70.5
t10.5 -67q0 -96 -70 -156.5t-190 -60.5z" />
    <glyph glyph-name="sevenoldstyle" unicode="&#xf737;" horiz-adv-x="490" 
d="M422 395v10l-359 -10l-20 -68h-10l5 173h429v-10l-229 -690h-130z" />
    <glyph glyph-name="nineoldstyle" unicode="&#xf739;" horiz-adv-x="565" 
d="M190 290q0 -88 23 -145.5t72 -57.5t90 48q8 91 3.5 172t-31 137t-67.5 56q-90 0 -90 -210zM375 107l-8 3q-55 -47 -129 -47q-88 0 -139.5 63t-51.5 153q0 102 70 166.5t164 64.5q109 0 173 -80t64 -197q0 -166 -102.5 -288.5t-263.5 -154.5l-2 10q90 21 154 108t71 199z
" />
    <glyph glyph-name="questionsmall" unicode="&#xf73f;" horiz-adv-x="516" 
d="M161 59q0 28 20.5 48t48.5 20t48.5 -20t20.5 -48q0 -29 -20.5 -49t-48.5 -20t-48.5 20t-20.5 49zM467 420q0 -124 -231 -135l-5 -85h-10l-5 92q119 33 119 128q0 43 -29 75.5t-94 32.5q-36 0 -69.5 -14.5t-50.5 -36.5v-10q58 8 76 -34q14 -34 -10 -62q-19 -21 -49 -21
q-25 0 -42.5 17.5t-17.5 42.5q0 59 61.5 99.5t154.5 40.5q105 0 153.5 -36t48.5 -94z" />
    <glyph glyph-name="Gravesmall" unicode="&#xf760;" horiz-adv-x="369" 
d="M254 600l-162 180h115l57 -180h-10z" />
    <glyph glyph-name="Asmall" unicode="&#xf761;" 
d="M119 52l111 -42v-10h-227v10l102 42l163 473l62 25l213 -535l54 -5v-10h-270v10l69 5l-62 165h-172zM249 411h-10l-74 -221h166z" />
    <glyph glyph-name="Bsmall" unicode="&#xf762;" horiz-adv-x="570" 
d="M310 287v-2q105 1 169 -35t64 -100q0 -150 -243 -150h-267v10l71 5v510l-71 5v10h247q124 0 178.5 -33.5t54.5 -96.5q0 -58 -54.5 -89t-148.5 -34zM260 280h-24v-270h37q132 0 132 140q0 64 -33 97t-112 33zM236 290h24q64 0 89.5 27.5t25.5 92.5q0 120 -102 120h-37
v-240z" />
    <glyph glyph-name="Csmall" unicode="&#xf763;" horiz-adv-x="580" 
d="M330 540q-70 0 -110 -66t-40 -204t40 -204t110 -66q51 0 91 26.5t59 60.5l57 98h10l-5 -135q-96 -60 -212 -60q-54 0 -104 16t-93.5 48.5t-69.5 88t-26 127.5t26 127.5t69.5 88t93.5 48.5t104 16q111 0 207 -60l5 -135h-10l-57 97q-21 35 -58 61.5t-87 26.5z" />
    <glyph glyph-name="Dsmall" unicode="&#xf764;" horiz-adv-x="660" 
d="M236 10h64q51 0 87.5 23.5t56 63t28 82.5t8.5 91q0 260 -190 260h-54v-520zM300 0h-267v10l71 5v510l-71 5v10h267q159 0 241 -70.5t82 -199.5q0 -121 -83.5 -195.5t-239.5 -74.5z" />
    <glyph glyph-name="Esmall" unicode="&#xf765;" horiz-adv-x="560" 
d="M236 530v-253l117 4l49 96h10v-209h-10l-49 95l-117 4v-257l183 5l98 132h10l-10 -147h-484v10l71 5v510l-71 5v10h474l5 -147h-10l-93 132z" />
    <glyph glyph-name="Fsmall" unicode="&#xf766;" horiz-adv-x="535" 
d="M236 529v-273l131 5l35 96h10v-209h-10l-35 96l-131 2v-231l71 -5v-10h-274v10l71 5v510l-71 5v10h474l5 -147h-10l-93 132z" />
    <glyph glyph-name="Gsmall" unicode="&#xf767;" horiz-adv-x="640" 
d="M330 0q53 0 97 29v216l-57 5v10h247v-10l-57 -5v-182q-117 -73 -230 -73q-54 0 -104 16t-93.5 48.5t-69.5 88t-26 127.5t26 127.5t69.5 88t93.5 48.5t104 16q111 0 207 -60l5 -135h-10l-57 97q-49 88 -145 88q-70 0 -110 -66t-40 -204t40 -204t110 -66z" />
    <glyph glyph-name="Hsmall" unicode="&#xf768;" horiz-adv-x="720" 
d="M484 15v257h-248v-257l71 -5v-10h-274v10l71 5v510l-71 5v10h274v-10l-71 -5v-243h248v243l-71 5v10h274v-10l-71 -5v-510l71 -5v-10h-274v10z" />
    <glyph glyph-name="Ismall" unicode="&#xf769;" horiz-adv-x="340" 
d="M104 15v510l-71 5v10h274v-10l-71 -5v-510l71 -5v-10h-274v10z" />
    <glyph glyph-name="Jsmall" unicode="&#xf76a;" horiz-adv-x="410" 
d="M183 170v355l-70 5v10h273v-10l-70 -5v-322q0 -84 -63 -148.5t-145 -64.5q-42 0 -65 17.5t-23 45.5q0 41 38 53q36 12 61 -13q29 -29 9 -86h10q27 0 36 41t9 122z" />
    <glyph glyph-name="Ksmall" unicode="&#xf76b;" horiz-adv-x="665" 
d="M290 280l176 208l-108 42v10h264v-10l-141 -42l-116 -137l241 -336l46 -5v-10h-289v10l66 5l-173 255h-20v-255l71 -5v-10h-274v10l71 5v510l-71 5v10h274v-10l-71 -5v-245h54z" />
    <glyph glyph-name="Lsmall" unicode="&#xf76c;" horiz-adv-x="540" 
d="M236 10l183 5l98 132h10l-10 -147h-484v10l71 5v510l-71 5v10h274v-10l-71 -5v-515z" />
    <glyph glyph-name="Msmall" unicode="&#xf76d;" horiz-adv-x="800" 
d="M436 171h10l136 369h185v-10l-71 -5v-510l71 -5v-10h-274v10l71 5v407h-10l-161 -432h-16l-217 437h-10l5 -375l112 -42v-10h-234v10l107 42v473l-107 5v10h223z" />
    <glyph glyph-name="Nsmall" unicode="&#xf76e;" horiz-adv-x="670" 
d="M527 204h10l-5 284l-119 42v10h234v-10l-100 -42v-498h-17l-377 447h-10l5 -385l119 -42v-10h-234v10l100 42v473l-100 5v10h208z" />
    <glyph glyph-name="Osmall" unicode="&#xf76f;" horiz-adv-x="660" 
d="M37 270q0 69 25 123.5t67 88t93.5 51t107.5 17.5t107.5 -17.5t93.5 -51t67 -88t25 -123.5t-25 -123.5t-67 -88t-93.5 -51t-107.5 -17.5t-107.5 17.5t-93.5 51t-67 88t-25 123.5zM180 270q0 -137 40 -203.5t110 -66.5t110 66.5t40 203.5t-40 203.5t-110 66.5t-110 -66.5
t-40 -203.5z" />
    <glyph glyph-name="Psmall" unicode="&#xf770;" horiz-adv-x="570" 
d="M236 203h21q73 0 110.5 50t37.5 122q0 67 -29.5 111t-95.5 44h-44v-327zM257 193h-21v-178l71 -5v-10h-274v10l71 5v510l-71 5v10h267q115 0 179 -42t64 -123q0 -82 -69 -132t-217 -50z" />
    <glyph glyph-name="Qsmall" unicode="&#xf771;" horiz-adv-x="660" 
d="M180 270q0 -137 40 -203.5t110 -66.5t110 66.5t40 203.5t-40 203.5t-110 66.5t-110 -66.5t-40 -203.5zM623 270q0 -138 -103 -219t-262 -57v-9l455 -135v-10l-143 -70l-387 253q-61 39 -103.5 107t-42.5 140q0 69 25 123.5t67 88t93.5 51t107.5 17.5t107.5 -17.5
t93.5 -51t67 -88t25 -123.5z" />
    <glyph glyph-name="Rsmall" unicode="&#xf772;" horiz-adv-x="630" 
d="M272 230h-36v-215l71 -5v-10h-274v10l71 5v510l-71 5v10h277q233 0 233 -152q0 -63 -56.5 -103.5t-145.5 -49.5v-10q32 0 60 -15t40.5 -28t29.5 -34l99 -133l47 -5v-10h-187zM236 240h64q48 0 76.5 37.5t28.5 110.5q0 142 -128 142h-41v-290z" />
    <glyph glyph-name="Ssmall" unicode="&#xf773;" horiz-adv-x="480" 
d="M232 -10q-85 0 -159 60l-10 -55h-10l-5 177h10l47 -86q19 -36 51.5 -61t75.5 -25q41 0 67 27t26 72q0 25 -10 44t-32 34.5t-40 24.5t-50 22q-80 33 -118 72t-38 106q0 69 54 108.5t142 39.5q83 0 154 -50l5 45h10l5 -177h-10l-39 79q-15 34 -47.5 63.5t-73.5 29.5
q-37 0 -61.5 -22t-24.5 -61q0 -23 9.5 -42t18.5 -29t34.5 -23t33 -16t38.5 -15q158 -60 158 -174q0 -77 -61.5 -122.5t-149.5 -45.5z" />
    <glyph glyph-name="Tsmall" unicode="&#xf774;" horiz-adv-x="540" 
d="M28 540h484l5 -147h-10l-93 132l-78 3v-513l71 -5v-10h-274v10l71 5v513l-71 -3l-100 -132h-10z" />
    <glyph glyph-name="Usmall" unicode="&#xf775;" horiz-adv-x="700" 
d="M555 250v238l-112 42v10h234v-10l-112 -42v-238q0 -260 -220 -260q-118 0 -184.5 64.5t-66.5 185.5v285l-71 5v10h274v-10l-71 -5v-275q0 -117 36.5 -175t120.5 -58q85 0 128.5 59.5t43.5 173.5z" />
    <glyph glyph-name="Vsmall" unicode="&#xf776;" 
d="M197 525l156 -417h10l115 380l-115 42v10h234v-10l-105 -42l-150 -493h-77l-210 530l-52 5v10h280v-10z" />
    <glyph glyph-name="Wsmall" unicode="&#xf777;" horiz-adv-x="880" 
d="M449 360h-10l-116 -365h-78l-189 530l-53 5v10h267v-10l-73 -5l137 -425h10l92 287l-44 138l-55 5v10h266v-10l-72 -5l132 -425h10l99 388l-102 42v10h207v-10l-92 -42l-129 -493h-84z" />
    <glyph glyph-name="Xsmall" unicode="&#xf778;" 
d="M241 244l-169 281l-49 5v10h250v-10l-47 -5l114 -192l115 155l-82 42v10h202v-10l-105 -42l-123 -164l188 -309l52 -5v-10h-260v10l51 5l-130 219l-113 -182l76 -42v-10h-198v10l107 42z" />
    <glyph glyph-name="Ysmall" unicode="&#xf779;" horiz-adv-x="567" 
d="M225 164l-185 361l-37 5v10h250v-10l-68 -5l154 -308h10l104 271l-93 42v10h203v-10l-95 -42l-110 -283v-190l70 -5v-10h-273v10l70 5v149z" />
    <glyph glyph-name="Zsmall" unicode="&#xf77a;" horiz-adv-x="540" 
d="M490 530l-299 -510v-10l203 5l103 132h10l-15 -147h-459v10l302 510v10l-179 -5l-93 -132h-10l5 147h432v-10z" />
    <glyph glyph-name="exclamdownsmall" unicode="&#xf7a1;" horiz-adv-x="320" 
d="M91 481q0 29 20.5 49t48.5 20t48.5 -20t20.5 -49q0 -28 -20.5 -48t-48.5 -20t-48.5 20t-20.5 48zM156 340h10l59 -340h-132z" />
    <glyph glyph-name="centoldstyle" unicode="&#xf7a2;" horiz-adv-x="580" 
d="M325 -100v90q-115 3 -196.5 77t-81.5 203q0 87 40.5 151.5t102.5 95.5t135 33v100h10v-100q105 -1 151.5 -41.5t46.5 -88.5q0 -28 -18.5 -45t-41.5 -17q-46 0 -60 38q-13 35 13 60q24 24 69 17v10q-50 50 -142 50q-3 0 -9 -0.5t-9 -0.5v-524q6 -1 18 -1q92 0 142 50v10
q-59 -10 -80 30q-16 32 6 61q17 23 52 23q23 0 41.5 -16.5t18.5 -44.5q0 -48 -46.5 -88.5t-151.5 -41.5v-90h-10zM190 270q0 -237 135 -261v521q-135 -22 -135 -260z" />
    <glyph glyph-name="Dieresissmall" unicode="&#xf7a8;" horiz-adv-x="500" 
d="M92 665q0 27 17 44t43 17t43.5 -17t17.5 -44t-17 -43t-44 -16q-26 0 -43 16t-17 43zM287 665q0 27 17.5 44t43.5 17t43 -17t17 -44t-17 -43t-43 -16q-27 0 -44 16t-17 43z" />
    <glyph glyph-name="Macronsmall" unicode="&#xf7af;" horiz-adv-x="510" 
d="M100 665h310v-15h-310v15z" />
    <glyph glyph-name="Acutesmall" unicode="&#xf7b4;" horiz-adv-x="369" 
d="M162 780h115l-172 -180h-10z" />
    <glyph glyph-name="Cedillasmall" unicode="&#xf7b8;" horiz-adv-x="373" 
d="M160 -80l3 80h10v-75q43 0 75 -21.5t32 -55.5q0 -36 -30 -57t-82 -21q-36 0 -75 12l2 9q32 -8 49 -8q31 0 48 17.5t17 49.5q0 61 -49 70z" />
    <glyph glyph-name="Agravesmall" unicode="&#xf7e0;" 
d="M119 52l111 -42v-10h-227v10l102 42l163 473l62 25l213 -535l54 -5v-10h-270v10l69 5l-62 165h-172zM249 411h-10l-74 -221h166zM288 600l-162 180h115l57 -180h-10z" />
    <glyph glyph-name="Aacutesmall" unicode="&#xf7e1;" 
d="M119 52l111 -42v-10h-227v10l102 42l163 473l62 25l213 -535l54 -5v-10h-270v10l69 5l-62 165h-172zM249 411h-10l-74 -221h166zM365 780h115l-172 -180h-10z" />
    <glyph glyph-name="Acircumflexsmall" unicode="&#xf7e2;" 
d="M119 52l111 -42v-10h-227v10l102 42l163 473l62 25l213 -535l54 -5v-10h-270v10l69 5l-62 165h-172zM249 411h-10l-74 -221h166zM302 689l-125 -89h-10l130 180h10l130 -180h-10z" />
    <glyph glyph-name="Atildesmall" unicode="&#xf7e3;" 
d="M119 52l111 -42v-10h-227v10l102 42l163 473l62 25l213 -535l54 -5v-10h-270v10l69 5l-62 165h-172zM249 411h-10l-74 -221h166zM126 625l-5 5q60 123 113 123q27 0 92.5 -29t97.5 -29q17 0 29.5 6t18.5 12t20 22l5 -5q-57 -113 -108 -113q-30 0 -97.5 29t-97.5 29
q-10 0 -18.5 -2t-16 -8.5t-11 -10.5t-11.5 -15t-11 -14z" />
    <glyph glyph-name="Adieresissmall" unicode="&#xf7e4;" 
d="M119 52l111 -42v-10h-227v10l102 42l163 473l62 25l213 -535l54 -5v-10h-270v10l69 5l-62 165h-172zM249 411h-10l-74 -221h166zM145 665q0 27 17 44t43 17t43.5 -17t17.5 -44t-17 -43t-44 -16q-26 0 -43 16t-17 43zM340 665q0 27 17.5 44t43.5 17t43 -17t17 -44t-17 -43
t-43 -16q-27 0 -44 16t-17 43z" />
    <glyph glyph-name="Aringsmall" unicode="&#xf7e5;" 
d="M119 52l111 -42v-10h-227v10l102 42l163 473l62 25l213 -535l54 -5v-10h-270v10l69 5l-62 165h-172zM249 411h-10l-74 -221h166zM213 687q0 38 23.5 63t63.5 25t64 -25t24 -63t-24 -62.5t-64 -24.5q-38 0 -62.5 25t-24.5 62zM237 687q0 -34 16 -55.5t47 -21.5
q32 0 47.5 21.5t15.5 55.5q0 35 -15.5 56.5t-47.5 21.5q-31 0 -47 -22t-16 -56z" />
    <glyph glyph-name="AEsmall" unicode="&#xf7e6;" horiz-adv-x="790" 
d="M367 474h-10l-105 -197h115v197zM115 52l260 473l-100 5v10h462l5 -147h-10l-93 132l-139 5v-253l106 3l32 97h10v-209h-10l-32 96l-106 3v-257l149 5l98 132h10l-10 -147h-450v10l70 5v252h-121l-115 -215l106 -42v-10h-234v10z" />
    <glyph glyph-name="Ccedillasmall" unicode="&#xf7e7;" horiz-adv-x="580" 
d="M320 -80l3 70q-53 1 -102.5 17.5t-91.5 49t-67 87.5t-25 126q0 72 26 127.5t69.5 88t93.5 48.5t104 16q111 0 207 -60l5 -135h-10l-57 97q-21 35 -58 61.5t-87 26.5q-70 0 -110 -66t-40 -204t40 -204t110 -66q51 0 91 26.5t59 60.5l57 98h10l-5 -135q-94 -59 -209 -60
v-65q43 0 75 -21.5t32 -55.5q0 -36 -30 -57t-82 -21q-36 0 -75 12l2 9q32 -8 49 -8q31 0 48 17.5t17 49.5q0 61 -49 70z" />
    <glyph glyph-name="Egravesmall" unicode="&#xf7e8;" horiz-adv-x="560" 
d="M236 530v-253l117 4l49 96h10v-209h-10l-49 95l-117 4v-257l183 5l98 132h10l-10 -147h-484v10l71 5v510l-71 5v10h474l5 -147h-10l-93 132zM300 600l-162 180h115l57 -180h-10z" />
    <glyph glyph-name="Eacutesmall" unicode="&#xf7e9;" horiz-adv-x="560" 
d="M236 530v-253l117 4l49 96h10v-209h-10l-49 95l-117 4v-257l183 5l98 132h10l-10 -147h-484v10l71 5v510l-71 5v10h474l5 -147h-10l-93 132zM362 780h115l-172 -180h-10z" />
    <glyph glyph-name="Ecircumflexsmall" unicode="&#xf7ea;" horiz-adv-x="560" 
d="M236 530v-253l117 4l49 96h10v-209h-10l-49 95l-117 4v-257l183 5l98 132h10l-10 -147h-484v10l71 5v510l-71 5v10h474l5 -147h-10l-93 132zM288 689l-125 -89h-10l130 180h10l130 -180h-10z" />
    <glyph glyph-name="Edieresissmall" unicode="&#xf7eb;" horiz-adv-x="560" 
d="M236 530v-253l117 4l49 96h10v-209h-10l-49 95l-117 4v-257l183 5l98 132h10l-10 -147h-484v10l71 5v510l-71 5v10h474l5 -147h-10l-93 132zM144 665q0 27 17 44t43 17t43.5 -17t17.5 -44t-17 -43t-44 -16q-26 0 -43 16t-17 43zM339 665q0 27 17.5 44t43.5 17t43 -17
t17 -44t-17 -43t-43 -16q-27 0 -44 16t-17 43z" />
    <glyph glyph-name="Igravesmall" unicode="&#xf7ec;" horiz-adv-x="340" 
d="M104 15v510l-71 5v10h274v-10l-71 -5v-510l71 -5v-10h-274v10zM159 600l-162 180h115l57 -180h-10z" />
    <glyph glyph-name="Iacutesmall" unicode="&#xf7ed;" horiz-adv-x="340" 
d="M104 15v510l-71 5v10h274v-10l-71 -5v-510l71 -5v-10h-274v10zM228 780h115l-172 -180h-10z" />
    <glyph glyph-name="Icircumflexsmall" unicode="&#xf7ee;" horiz-adv-x="340" 
d="M104 15v510l-71 5v10h274v-10l-71 -5v-510l71 -5v-10h-274v10zM170 689l-125 -89h-10l130 180h10l130 -180h-10z" />
    <glyph glyph-name="Idieresissmall" unicode="&#xf7ef;" horiz-adv-x="340" 
d="M104 15v510l-71 5v10h274v-10l-71 -5v-510l71 -5v-10h-274v10zM12 665q0 27 17 44t43 17t43.5 -17t17.5 -44t-17 -43t-44 -16q-26 0 -43 16t-17 43zM207 665q0 27 17.5 44t43.5 17t43 -17t17 -44t-17 -43t-43 -16q-27 0 -44 16t-17 43z" />
    <glyph glyph-name="Ntildesmall" unicode="&#xf7f1;" horiz-adv-x="670" 
d="M527 204h10l-5 284l-119 42v10h234v-10l-100 -42v-498h-17l-377 447h-10l5 -385l119 -42v-10h-234v10l100 42v473l-100 5v10h208zM172 625l-5 5q60 123 113 123q27 0 92.5 -29t97.5 -29q17 0 29.5 6t18.5 12t20 22l5 -5q-57 -113 -108 -113q-30 0 -97.5 29t-97.5 29
q-10 0 -18.5 -2t-16 -8.5t-11 -10.5t-11.5 -15t-11 -14z" />
    <glyph glyph-name="Ogravesmall" unicode="&#xf7f2;" horiz-adv-x="660" 
d="M37 270q0 69 25 123.5t67 88t93.5 51t107.5 17.5t107.5 -17.5t93.5 -51t67 -88t25 -123.5t-25 -123.5t-67 -88t-93.5 -51t-107.5 -17.5t-107.5 17.5t-93.5 51t-67 88t-25 123.5zM180 270q0 -137 40 -203.5t110 -66.5t110 66.5t40 203.5t-40 203.5t-110 66.5t-110 -66.5
t-40 -203.5zM327 600l-162 180h115l57 -180h-10z" />
    <glyph glyph-name="Oacutesmall" unicode="&#xf7f3;" horiz-adv-x="660" 
d="M37 270q0 69 25 123.5t67 88t93.5 51t107.5 17.5t107.5 -17.5t93.5 -51t67 -88t25 -123.5t-25 -123.5t-67 -88t-93.5 -51t-107.5 -17.5t-107.5 17.5t-93.5 51t-67 88t-25 123.5zM180 270q0 -137 40 -203.5t110 -66.5t110 66.5t40 203.5t-40 203.5t-110 66.5t-110 -66.5
t-40 -203.5zM376 780h115l-172 -180h-10z" />
    <glyph glyph-name="Ocircumflexsmall" unicode="&#xf7f4;" horiz-adv-x="660" 
d="M37 270q0 69 25 123.5t67 88t93.5 51t107.5 17.5t107.5 -17.5t93.5 -51t67 -88t25 -123.5t-25 -123.5t-67 -88t-93.5 -51t-107.5 -17.5t-107.5 17.5t-93.5 51t-67 88t-25 123.5zM180 270q0 -137 40 -203.5t110 -66.5t110 66.5t40 203.5t-40 203.5t-110 66.5t-110 -66.5
t-40 -203.5zM333 689l-125 -89h-10l130 180h10l130 -180h-10z" />
    <glyph glyph-name="Otildesmall" unicode="&#xf7f5;" horiz-adv-x="660" 
d="M37 270q0 69 25 123.5t67 88t93.5 51t107.5 17.5t107.5 -17.5t93.5 -51t67 -88t25 -123.5t-25 -123.5t-67 -88t-93.5 -51t-107.5 -17.5t-107.5 17.5t-93.5 51t-67 88t-25 123.5zM180 270q0 -137 40 -203.5t110 -66.5t110 66.5t40 203.5t-40 203.5t-110 66.5t-110 -66.5
t-40 -203.5zM150 625l-5 5q60 123 113 123q27 0 92.5 -29t97.5 -29q17 0 29.5 6t18.5 12t20 22l5 -5q-57 -113 -108 -113q-30 0 -97.5 29t-97.5 29q-10 0 -18.5 -2t-16 -8.5t-11 -10.5t-11.5 -15t-11 -14z" />
    <glyph glyph-name="Odieresissmall" unicode="&#xf7f6;" horiz-adv-x="660" 
d="M37 270q0 69 25 123.5t67 88t93.5 51t107.5 17.5t107.5 -17.5t93.5 -51t67 -88t25 -123.5t-25 -123.5t-67 -88t-93.5 -51t-107.5 -17.5t-107.5 17.5t-93.5 51t-67 88t-25 123.5zM180 270q0 -137 40 -203.5t110 -66.5t110 66.5t40 203.5t-40 203.5t-110 66.5t-110 -66.5
t-40 -203.5zM175 665q0 27 17 44t43 17t43.5 -17t17.5 -44t-17 -43t-44 -16q-26 0 -43 16t-17 43zM370 665q0 27 17.5 44t43.5 17t43 -17t17 -44t-17 -43t-43 -16q-27 0 -44 16t-17 43z" />
    <glyph glyph-name="Oslashsmall" unicode="&#xf7f8;" horiz-adv-x="660" 
d="M587 533l8 -8l-53 -54q81 -76 81 -201q0 -69 -25 -123.5t-67 -88t-93.5 -51t-107.5 -17.5q-114 0 -196 64l-53 -54l-8 8l52 54q-88 76 -88 208q0 69 25 123.5t67 88t93.5 51t107.5 17.5q121 0 204 -71zM180 270q0 -80 14 -138l271 277q-33 131 -135 131q-70 0 -110 -66.5
t-40 -203.5zM480 270q0 72 -12 125l-270 -276q34 -119 132 -119q70 0 110 66.5t40 203.5z" />
    <glyph glyph-name="Ugravesmall" unicode="&#xf7f9;" horiz-adv-x="700" 
d="M555 250v238l-112 42v10h234v-10l-112 -42v-238q0 -260 -220 -260q-118 0 -184.5 64.5t-66.5 185.5v285l-71 5v10h274v-10l-71 -5v-275q0 -117 36.5 -175t120.5 -58q85 0 128.5 59.5t43.5 173.5zM355 600l-162 180h115l57 -180h-10z" />
    <glyph glyph-name="Uacutesmall" unicode="&#xf7fa;" horiz-adv-x="700" 
d="M555 250v238l-112 42v10h234v-10l-112 -42v-238q0 -260 -220 -260q-118 0 -184.5 64.5t-66.5 185.5v285l-71 5v10h274v-10l-71 -5v-275q0 -117 36.5 -175t120.5 -58q85 0 128.5 59.5t43.5 173.5zM412 780h115l-172 -180h-10z" />
    <glyph glyph-name="Ucircumflexsmall" unicode="&#xf7fb;" horiz-adv-x="700" 
d="M555 250v238l-112 42v10h234v-10l-112 -42v-238q0 -260 -220 -260q-118 0 -184.5 64.5t-66.5 185.5v285l-71 5v10h274v-10l-71 -5v-275q0 -117 36.5 -175t120.5 -58q85 0 128.5 59.5t43.5 173.5zM361 689l-125 -89h-10l130 180h10l130 -180h-10z" />
    <glyph glyph-name="Udieresissmall" unicode="&#xf7fc;" horiz-adv-x="700" 
d="M555 250v238l-112 42v10h234v-10l-112 -42v-238q0 -260 -220 -260q-118 0 -184.5 64.5t-66.5 185.5v285l-71 5v10h274v-10l-71 -5v-275q0 -117 36.5 -175t120.5 -58q85 0 128.5 59.5t43.5 173.5zM211 665q0 27 17 44t43 17t43.5 -17t17.5 -44t-17 -43t-44 -16
q-26 0 -43 16t-17 43zM406 665q0 27 17.5 44t43.5 17t43 -17t17 -44t-17 -43t-43 -16q-27 0 -44 16t-17 43z" />
    <glyph glyph-name="Yacutesmall" unicode="&#xf7fd;" horiz-adv-x="567" 
d="M225 164l-185 361l-37 5v10h250v-10l-68 -5l154 -308h10l104 271l-93 42v10h203v-10l-95 -42l-110 -283v-190l70 -5v-10h-273v10l70 5v149zM349 780h115l-172 -180h-10z" />
    <glyph glyph-name="Thornsmall" unicode="&#xf7fe;" horiz-adv-x="570" 
d="M236 108h24q81 0 113 43.5t32 118.5q0 162 -135 162h-34v-324zM104 525l-71 5v10h274v-10l-71 -5v-83h67q122 0 181 -39.5t59 -122.5q0 -82 -67.5 -132t-215.5 -50h-24v-83l71 -5v-10h-274v10l71 5v510z" />
    <glyph glyph-name="Ydieresissmall" unicode="&#xf7ff;" horiz-adv-x="567" 
d="M225 164l-185 361l-37 5v10h250v-10l-68 -5l154 -308h10l104 271l-93 42v10h203v-10l-95 -42l-110 -283v-190l70 -5v-10h-273v10l70 5v149zM146 665q0 27 17 44t43 17t43.5 -17t17.5 -44t-17 -43t-44 -16q-26 0 -43 16t-17 43zM341 665q0 27 17.5 44t43.5 17t43 -17
t17 -44t-17 -43t-43 -16q-27 0 -44 16t-17 43z" />
    <glyph glyph-name="longs_t" unicode="&#xfb05;" horiz-adv-x="618" 
d="M194 550v-567q0 -84 -63 -148.5t-145 -64.5q-39 0 -63.5 16.5t-24.5 47.5q0 23 16 39.5t43 16.5q29 0 48 -26t2 -77h10q28 0 36.5 44.5t8.5 146.5v539q0 83 63 148t144 65q40 0 64.5 -16.5t24.5 -47.5q0 -23 -16 -39.5t-43 -16.5q-29 0 -48 26t-2 77h-10q-27 0 -36 -41
t-9 -122zM466 485v-362q0 -61 15 -83t49 -22q26 0 67 17v-10q-70 -35 -150 -35q-113 0 -113 120v375h-67v10l67 5l122 120h10v-120h131v-15h-131z" />
    <glyph glyph-name="s_t" unicode="&#xfb06;" horiz-adv-x="790" 
d="M205 -10q-80 0 -156 47l-6 -47h-10v157h10q32 -72 63 -107q36 -39 79 -39t67.5 26.5t24.5 64.5q0 37 -26 62.5t-84 50.5q-71 31 -103 66t-32 94q0 63 48 104t135 41q73 0 146 -46l6 46h10v-157h-10q-33 77 -68 111q-34 35 -76 35q-32 0 -55 -22.5t-23 -53.5
q0 -39 24.5 -62t65.5 -40q88 -38 126.5 -74.5t38.5 -99.5q0 -70 -55 -113.5t-140 -43.5zM636 485v-362q0 -61 15 -83t49 -22q26 0 67 17v-10q-70 -35 -150 -35q-113 0 -113 120v375h-67v10l67 5l122 120h10v-120h131v-15h-131z" />
    <glyph glyph-name="dieresisgrave" horiz-adv-x="580" 
d="M488 615q0 -27 -17 -43t-43 -16q-27 0 -44 16t-17 43t17.5 44t43.5 17t43 -17t17 -44zM213 615q0 -27 -17 -43t-44 -16q-26 0 -43 16t-17 43t17 44t43 17t43.5 -17t17.5 -44zM148 800h119l53 -200h-10z" />
    <glyph glyph-name="Breve" horiz-adv-x="450" 
d="M225 770q-63 0 -97.5 45.5t-34.5 105.5h8q17 -80 124 -80t124 80h8q0 -60 -34.5 -105.5t-97.5 -45.5z" />
    <glyph glyph-name="Cedilla" horiz-adv-x="373" 
d="M160 -80l3 80h10v-75q43 0 75 -21.5t32 -55.5q0 -36 -30 -57t-82 -21q-36 0 -75 12l2 9q32 -8 49 -8q31 0 48 17.5t17 49.5q0 61 -49 70z" />
    <glyph glyph-name="Circumflex" horiz-adv-x="470" 
d="M235 839l-125 -89h-10l130 180h10l130 -180h-10z" />
    <glyph glyph-name="commaaccent.cap" horiz-adv-x="335" 
d="M93 -163v113q76 10 112.5 -21.5t36.5 -82.5q0 -67 -42.5 -120t-93.5 -72l-4 10q36 14 61 43t29.5 57.5t-20.5 50.5t-79 22z" />
    <glyph glyph-name="DieresisAcute" horiz-adv-x="580" 
d="M92 815q0 27 17 44t43 17t43.5 -17t17.5 -44t-17 -43t-44 -16q-26 0 -43 16t-17 43zM367 815q0 27 17.5 44t43.5 17t43 -17t17 -44t-17 -43t-43 -16q-27 0 -44 16t-17 43zM313 1000h119l-162 -200h-10z" />
    <glyph glyph-name="DieresisGrave" horiz-adv-x="580" 
d="M488 815q0 -27 -17 -43t-43 -16q-27 0 -44 16t-17 43t17.5 44t43.5 17t43 -17t17 -44zM213 815q0 -27 -17 -43t-44 -16q-26 0 -43 16t-17 43t17 44t43 17t43.5 -17t17.5 -44zM148 1000h119l53 -200h-10z" />
    <glyph glyph-name="Dotaccent" horiz-adv-x="314" 
d="M92 827q0 28 18.5 46.5t46.5 18.5t46.5 -18.5t18.5 -46.5t-18.5 -46.5t-46.5 -18.5t-46.5 18.5t-18.5 46.5z" />
    <glyph glyph-name="Ogonek" horiz-adv-x="360" 
d="M267 -178v-10q-13 -17 -38.5 -28.5t-48.5 -11.5q-32 0 -54.5 15.5t-29 41t-1 55t30.5 61t64 55.5h10q-42 -39 -55 -90t18.5 -80t103.5 -8z" />
    <glyph glyph-name="Ring" horiz-adv-x="375" 
d="M100 837q0 38 23.5 63t63.5 25t64 -25t24 -63t-24 -62.5t-64 -24.5q-38 0 -62.5 25t-24.5 62zM124 837q0 -34 16 -55.5t47 -21.5q32 0 47.5 21.5t15.5 55.5q0 35 -15.5 56.5t-47.5 21.5q-31 0 -47 -22t-16 -56z" />
    <glyph glyph-name="Tilde" horiz-adv-x="550" 
d="M92 775l-5 5q60 123 113 123q27 0 92.5 -29t97.5 -29q17 0 29.5 6t18.5 12t20 22l5 -5q-57 -113 -108 -113q-30 0 -97.5 29t-97.5 29q-10 0 -18.5 -2t-16 -8.5t-11 -10.5t-11.5 -15t-11 -14z" />
    <glyph glyph-name="commaaccent.small" horiz-adv-x="335" 
d="M93 -163v113q76 10 112.5 -21.5t36.5 -82.5q0 -67 -42.5 -120t-93.5 -72l-4 10q36 14 61 43t29.5 57.5t-20.5 50.5t-79 22z" />
    <glyph glyph-name="DieresisAcute.small" horiz-adv-x="580" 
d="M92 665q0 27 17 44t43 17t43.5 -17t17.5 -44t-17 -43t-44 -16q-26 0 -43 16t-17 43zM367 665q0 27 17.5 44t43.5 17t43 -17t17 -44t-17 -43t-43 -16q-27 0 -44 16t-17 43zM313 850h119l-162 -200h-10z" />
    <glyph glyph-name="DieresisGrave.small" horiz-adv-x="580" 
d="M488 665q0 -27 -17 -43t-43 -16q-27 0 -44 16t-17 43t17.5 44t43.5 17t43 -17t17 -44zM213 665q0 -27 -17 -43t-44 -16q-26 0 -43 16t-17 43t17 44t43 17t43.5 -17t17.5 -44zM148 850h119l53 -200h-10z" />
    <glyph glyph-name="dblGrave.small" horiz-adv-x="480" 
d="M400 600l-162 200h109l63 -200h-10zM240 600l-162 200h109l63 -200h-10z" />
    <glyph glyph-name="middot" horiz-adv-x="306" 
d="M93 263q0 27 17 44t43 17t43 -17t17 -44t-17 -43t-43 -16t-43 16t-17 43z" />
    <glyph glyph-name="Aogonek.small" 
d="M567 -178v-10q-13 -17 -38.5 -28.5t-48.5 -11.5q-32 0 -54.5 15.5t-29 41t-1 55t30.5 61t64 55.5h-163v10l69 5l-62 165h-172l-43 -128l111 -42v-10h-227v10l102 42l163 473l62 25l213 -535l54 -5v-10h-97q-42 -39 -55 -90t18.5 -80t103.5 -8zM249 411h-10l-74 -221h166z
" />
    <glyph glyph-name="Dcroat.small" horiz-adv-x="660" 
d="M37 275h67v250l-71 5v10h267q159 0 241 -70.5t82 -199.5q0 -121 -83.5 -195.5t-239.5 -74.5h-267v10l71 5v245h-67v15zM236 10h64q51 0 87.5 23.5t56 63t28 82.5t8.5 91q0 260 -190 260h-54v-255h117v-15h-117v-250z" />
    <glyph glyph-name="Eogonek.small" horiz-adv-x="560" 
d="M583 -178v-10q-13 -17 -38 -28.5t-48 -11.5q-33 0 -55.5 15.5t-29 41t-0.5 55t31 61t64 55.5h-474v10l71 5v510l-71 5v10h474l5 -147h-10l-93 132l-173 5v-253l117 4l49 96h10v-209h-10l-49 95l-117 4v-257l183 5l98 132h10l-10 -147q-42 -39 -55 -90t18 -80t103 -8z" />
    <glyph glyph-name="Hbar.small" horiz-adv-x="720" 
d="M37 392h67v133l-71 5v10h274v-10l-71 -5v-133h248v133l-71 5v10h274v-10l-71 -5v-133h67v-10h-67v-367l71 -5v-10h-274v10l71 5v257h-248v-257l71 -5v-10h-274v10l71 5v367h-67v10zM236 282h248v100h-248v-100z" />
    <glyph glyph-name="Iogonek.small" horiz-adv-x="340" 
d="M258 -178v-10q-13 -17 -38 -28.5t-48 -11.5q-32 0 -54.5 15.5t-29 41t-1 55t30.5 61t64 55.5h-149v10l71 5v510l-71 5v10h274v-10l-71 -5v-510l71 -5v-10h-115q-42 -39 -55 -90t18 -80t103 -8z" />
    <glyph glyph-name="IJ.small" horiz-adv-x="720" 
d="M104 15v510l-71 5v10h274v-10l-71 -5v-510l71 -5v-10h-274v10zM493 170v355l-70 5v10h273v-10l-70 -5v-322q0 -84 -63 -148.5t-145 -64.5q-42 0 -65 17.5t-23 45.5q0 41 38 53q36 12 61 -13q29 -29 9 -86h10q27 0 36 41t9 122z" />
    <glyph glyph-name="Scedilla.small" horiz-adv-x="480" 
d="M225 -80l2 70q-85 4 -154 60l-10 -55h-10l-5 177h10l47 -86q19 -36 51.5 -61t75.5 -25h4q40 2 64.5 28.5t24.5 70.5q0 25 -10 44t-32 34.5t-40 24.5t-50 22q-80 33 -118 72t-38 106q0 69 54 108.5t142 39.5q83 0 154 -50l5 45h10l5 -177h-10l-39 79q-15 34 -47.5 63.5
t-73.5 29.5q-37 0 -61.5 -22t-24.5 -61q0 -23 9.5 -42t18.5 -29t34.5 -23t33 -16t38.5 -15q158 -60 158 -174q0 -75 -59.5 -120.5t-145.5 -47.5v-65q43 0 75 -21.5t32 -55.5q0 -36 -30 -57t-82 -21q-36 0 -75 12l2 9q32 -8 49 -8q31 0 48 17.5t17 49.5q0 61 -49 70z" />
    <glyph glyph-name="Tbar.small" horiz-adv-x="540" 
d="M117 275h87v253l-71 -3l-100 -132h-10l5 147h484l5 -147h-10l-93 132l-78 3v-253h87v-15h-87v-245l71 -5v-10h-274v10l71 5v245h-87v15z" />
    <glyph glyph-name="Uogonek.small" horiz-adv-x="700" 
d="M431 -178v-10q-13 -17 -38.5 -28.5t-48.5 -11.5q-52 0 -75.5 36.5t-5.5 88.5t76 93q-116 2 -180.5 66t-64.5 184v285l-71 5v10h274v-10l-71 -5v-275q0 -117 36.5 -175t120.5 -58q85 0 128.5 59.5t43.5 173.5v238l-112 42v10h234v-10l-112 -42v-238q0 -254 -211 -260
q-38 -40 -47 -87.5t23 -74t101 -6.5z" />
    <glyph glyph-name="c_t" horiz-adv-x="870" 
d="M277 -10q-116 0 -183 75t-67 182q0 121 80 192t185 71q83 0 132 -38t49 -90q0 -26 -17.5 -44t-42.5 -18q-44 0 -59 37q-15 35 11 61q23 23 68 17v10q-45 51 -123 51q-69 0 -110.5 -57.5t-41.5 -157.5q0 -98 48.5 -150.5t119.5 -52.5q50 0 89.5 24.5t57.5 57.5h10
q-16 -71 -70.5 -120.5t-135.5 -49.5zM716 485v-362q0 -61 15 -83t49 -22q26 0 67 17v-10q-70 -35 -150 -35q-113 0 -113 120v375h-67v10l67 5l122 120h10v-120h131v-15h-131z" />
    <glyph glyph-name="s_p" horiz-adv-x="1020" 
d="M205 -10q-80 0 -156 47l-6 -47h-10v157h10q32 -72 63 -107q36 -39 79 -39t67.5 26.5t24.5 64.5q0 37 -26 62.5t-84 50.5q-71 31 -103 66t-32 94q0 63 48 104t135 41q73 0 146 -46l6 46h10v-157h-10q-33 77 -68 111q-34 35 -76 35q-32 0 -55 -22.5t-23 -53.5
q0 -39 24.5 -62t65.5 -40q88 -38 126.5 -74.5t38.5 -99.5q0 -70 -55 -113.5t-140 -43.5zM646 30h-10v-235l71 -5v-10h-274v10l71 5v695h-61v10l183 10h10v-53h10q56 53 137 53q96 0 153 -73t57 -187q0 -113 -63 -186.5t-160 -73.5q-70 0 -124 40zM636 436v-385
q47 -33 89 -33q59 0 92 49.5t33 182.5q0 130 -33.5 180t-91.5 50q-41 0 -89 -44z" />
    <glyph glyph-name="h.superior" horiz-adv-x="410" 
d="M341 405l42 -3v-6h-152v6l30 3v215q0 56 -43 56q-29 0 -69 -43v-228l42 -3v-6h-164v6l42 3v417h-36v6l110 6h6v-186h6q47 54 107 54q34 0 56.5 -22t22.5 -68v-207z" />
    <glyph glyph-name="Ethsmall" horiz-adv-x="660" 
d="M37 275h67v250l-71 5v10h267q159 0 241 -70.5t82 -199.5q0 -121 -83.5 -195.5t-239.5 -74.5h-267v10l71 5v245h-67v15zM236 10h64q51 0 87.5 23.5t56 63t28 82.5t8.5 91q0 260 -190 260h-54v-255h117v-15h-117v-250z" />
    <glyph glyph-name="Eng.small" horiz-adv-x="670" 
d="M547 71q0 -301 -156 -301q-33 0 -57 16.5t-24 49.5q0 28 22 43t48.5 10t38.5 -29q13 -28 -1 -73q41 0 75 63t34 150l-374 437h-10l5 -385l119 -42v-10h-234v10l100 42v473l-100 5v10h208l286 -336h10l-5 284l-119 42v10h234v-10l-100 -42v-417z" />
    <glyph glyph-name="longs_h" horiz-adv-x="900" 
d="M496 730h10v-310h10q81 90 179 90q56 0 93.5 -36.5t37.5 -113.5v-345l71 -5v-10h-254v10l51 5v358q0 94 -72 94q-28 0 -53.5 -16.5t-62.5 -55.5v-380l71 -5v-10h-274v10l71 5v622q0 39 -18.5 61t-55.5 22q-32 0 -53 -14.5t-32 -43t-15 -62t-4 -80.5v-537
q0 -84 -63 -148.5t-145 -64.5q-39 0 -63.5 16.5t-24.5 47.5q0 23 16 39.5t43 16.5q29 0 48 -26t2 -77h10q28 0 36.5 44.5t8.5 146.5v542q0 95 68.5 152.5t167.5 57.5q56 0 110 -31z" />
    <glyph glyph-name="longs_l" horiz-adv-x="580" 
d="M196 520v-537q0 -84 -63 -148.5t-145 -64.5q-39 0 -63.5 16.5t-24.5 47.5q0 23 16 39.5t43 16.5q29 0 48 -26t2 -77h10q28 0 36.5 44.5t8.5 146.5v542q0 95 68.5 152.5t167.5 57.5q56 0 110 -31l86 31h10v-715l71 -5v-10h-274v10l71 5v622q0 39 -18.5 61t-55.5 22
q-32 0 -53 -14.5t-32 -43t-15 -62t-4 -80.5z" />
    <glyph glyph-name="longs_i" horiz-adv-x="578" 
d="M94 -22v542q0 93 78.5 151.5t178.5 58.5q94 0 144.5 -39t50.5 -83q0 -30 -19.5 -49t-48.5 -19q-31 0 -47 18t-16 42q0 25 22 44.5t68 10.5v10q-22 22 -62.5 38.5t-89.5 16.5q-70 0 -98.5 -52t-28.5 -148v-537q0 -84 -63 -148.5t-145 -64.5q-39 0 -63.5 16.5t-24.5 47.5
q0 23 16 39.5t43 16.5q29 0 48 -26t2 -77h10q28 0 36.5 44.5t8.5 146.5zM536 510v-495l71 -5v-10h-274v10l71 5v475h-61v10l183 10h10z" />
    <glyph glyph-name="longs_longs" horiz-adv-x="516" 
d="M194 550v-567q0 -84 -63 -148.5t-145 -64.5q-39 0 -63.5 16.5t-24.5 47.5q0 23 16 39.5t43 16.5q29 0 48 -26t2 -77h10q28 0 36.5 44.5t8.5 146.5v539q0 83 63 148t144 65q40 0 64.5 -16.5t24.5 -47.5q0 -23 -16 -39.5t-43 -16.5q-29 0 -48 26t-2 77h-10q-27 0 -36 -41
t-9 -122zM494 550v-567q0 -84 -63 -148.5t-145 -64.5q-39 0 -63.5 16.5t-24.5 47.5q0 24 16 40t43 16q28 0 47 -26t2 -77h10q28 0 36.5 44.5t8.5 146.5v539q0 83 63.5 148t144.5 65q39 0 63.5 -16.5t24.5 -47.5q0 -24 -16 -40t-43 -16q-28 0 -47 26t-2 77h-10q-27 0 -36 -41
t-9 -122z" />
    <glyph glyph-name="zero.slash" 
d="M47 350q0 89 27 169t86 135.5t140 55.5t140 -55.5t86 -135.5t27 -169t-27 -169t-86 -135.5t-140 -55.5t-140 54t-86 134t-27 172zM206 56l10 -16l7 23q26 -63 77 -63q62 0 86 88.5t24 261.5q0 177 -25 262l11 35l-10 15l-8 -28q-27 66 -78 66q-62 0 -86 -88.5t-24 -261.5
q0 -184 25 -264zM385 612q-3 14 -7 22l-163 -548q3 -10 8 -23z" />
    <glyph glyph-name="zero.fitted" 
d="M47 350q0 89 27 169t86 135.5t140 55.5t140 -55.5t86 -135.5t27 -169t-27 -169t-86 -135.5t-140 -55.5t-140 54t-86 134t-27 172zM190 350q0 -173 24 -261.5t86 -88.5t86 88.5t24 261.5t-24 261.5t-86 88.5t-86 -88.5t-24 -261.5z" />
    <glyph glyph-name="one.fitted" 
d="M73 10l161 5v657l-141 -17v10l263 45h10v-695l161 -5v-10h-454v10z" />
    <glyph glyph-name="two.fitted" 
d="M209 108v-10l314 5v-103h-446v10q72 53 127.5 105t87.5 99.5t53 86.5t29 80t10.5 65t2.5 57q0 80 -34 132t-100 52q-73 0 -125 -52v-10q57 13 77 -27q17 -32 -5 -63q-18 -25 -53 -25q-23 0 -41.5 17t-18.5 46q0 51 57.5 94t152.5 43q60 0 105 -18t69 -48.5t35.5 -63.5
t11.5 -69t-11.5 -75t-41.5 -92.5t-95.5 -115t-160.5 -120.5z" />
    <glyph glyph-name="three.fitted" 
d="M262 0q63 0 97.5 49t34.5 139q0 73 -36.5 126.5t-99.5 53.5h-25v12h21q62 0 91 44t29 105q0 54 -31 92.5t-84 38.5q-35 0 -62.5 -12t-45 -34.5t-27 -40.5t-19.5 -44h-10q17 71 72.5 126t136.5 55q89 0 143 -43.5t54 -114.5q0 -66 -51.5 -112.5t-152.5 -62.5v-5
q108 -5 169 -50.5t61 -127.5q0 -97 -74.5 -150.5t-185.5 -53.5q-89 0 -142 42.5t-53 97.5q0 26 18 43t44 17q43 0 58 -38q14 -36 -12 -64q-23 -23 -66 -20v-10q58 -58 148 -58z" />
    <glyph glyph-name="four.fitted" 
d="M471 172h81v-12h-81v-160h-132v160h-291v16l330 501l93 33v-538zM329 584l-261 -402v-10h271v412h-10z" />
    <glyph glyph-name="five.fitted" 
d="M267 -10q-89 0 -142 42.5t-53 97.5q0 26 17 43t46 17q42 0 57 -38q15 -37 -12 -64q-25 -22 -68 -18v-10q60 -60 148 -60q68 0 102 58t34 142q0 38 -11 72t-35 65t-68.5 49t-104.5 18h-32l10 296h347v-112h-340l-6 -174q86 24 149.5 16.5t106 -28.5t68 -57.5t36.5 -70.5
t11 -67q0 -96 -70 -156.5t-190 -60.5z" />
    <glyph glyph-name="six.fitted" 
d="M392 210q0 88 -23 145.5t-72 57.5t-90 -48q-8 -91 -3.5 -172t31 -137t67.5 -56q90 0 90 210zM207 393l8 -3q55 47 129 47q88 0 139.5 -63t51.5 -153q0 -102 -70 -166.5t-164 -64.5q-109 0 -173 80t-64 197q0 166 102.5 288.5t263.5 154.5l2 -10q-90 -21 -154 -108
t-71 -199z" />
    <glyph glyph-name="seven.fitted" 
d="M472 595v10l-359 -10l-20 -68h-10l5 173h429v-10l-229 -690h-130z" />
    <glyph glyph-name="eight.fitted" 
d="M394 552q0 63 -24.5 105.5t-66.5 42.5t-65 -40.5t-23 -98.5q0 -34 12 -60.5t36.5 -45.5t39 -27.5t42.5 -21.5q49 47 49 146zM402 158q0 54 -37.5 92t-117.5 73q-57 -57 -57 -147q0 -78 30.5 -127t82.5 -49q49 0 74 44.5t25 113.5zM532 191q0 -95 -70 -148t-171 -53
q-98 0 -161 48t-63 136q0 56 42.5 99t126.5 56q-144 75 -144 197q0 84 63.5 134t152.5 50q83 0 140 -44.5t57 -123.5q0 -49 -41 -88t-111 -53q99 -41 139 -93t40 -117z" />
    </font>
</defs>
</svg>
