<?xml version="1.0" encoding="utf-8"?>
<!-- Generator: Adobe Illustrator 19.1.0, SVG Export Plug-In . SVG Version: 6.00 Build 0)  -->
<svg version="1.1" id="Artwork" xmlns="http://www.w3.org/2000/svg" xmlns:xlink="http://www.w3.org/1999/xlink" x="0px" y="0px"
	 viewBox="0 0 431.1 95.8" style="enable-background:new 0 0 431.1 95.8;" xml:space="preserve">
<style type="text/css">
	.st0{fill:#D52B1E;}
	.st1{fill:#FFFFFF;}
</style>
<g id="TurboTax_-_Clearspace__x26__Lockup">
	<g id="Cornerstone_Lockup">
		<g id="Wordmark">
			<path id="_xAE__2_" d="M428.6,82.8c0-1.1-0.9-1.5-1.9-1.5H425v5h0.9v-2.1h0.6l1.2,2.1h1.1l-1.3-2.2
				C428.1,84,428.6,83.6,428.6,82.8z M425.9,83.6v-1.4h0.8c0.5,0,1,0.1,1,0.7c0,0.6-0.6,0.7-1.1,0.7H425.9z M426.7,79.5
				c-2.5,0-4.4,2-4.4,4.4c0,2.5,2,4.4,4.4,4.4s4.4-1.9,4.4-4.4C431.1,81.4,429.1,79.5,426.7,79.5z M426.7,87.6
				c-2.1,0-3.7-1.7-3.7-3.7c0-2.1,1.7-3.7,3.7-3.7c2.1,0,3.7,1.7,3.7,3.7C430.4,85.9,428.8,87.6,426.7,87.6z"/>
			<path id="turbotax" d="M233.1,48.5c-4.9,0-8.5,2.1-11.9,5.3H221V28.2h-10.7v60h10.2v-5.5h0.2c2.4,4,7.2,6.6,12.2,6.6
				c11,0,19.4-8.7,19.4-20.6C252.3,57,244,48.5,233.1,48.5z M231,80.2c-6.4,0-10.3-5.7-10.3-11.3c0-5.5,3.9-11.5,10.3-11.5
				c6.9,0,10.4,5.9,10.4,11.3C241.4,74.4,237.6,80.2,231,80.2z M160.8,70.8c0,4.5-3,9.4-8.5,9.4c-4.3,0-6.5-3-6.5-9.3V49.6h-10.7v24
				c0,8,4,15.8,14.6,15.8c5,0,9.2-4,11.4-6.9h0.2v5.8h10.2V49.6h-10.7V70.8z M118.1,38.7h-10.5v10.8H101v8.5h6.5v17
				c0,6,1.5,14,12.9,14c2.2,0,5.1-0.5,6.8-1.1l-0.3-8.4c-1.1,0.4-2.7,0.8-4.7,0.8c-3.1,0-4.2-2.2-4.2-5.4V58.1h9.3v-8.5h-9.3V38.7z
				 M191,55.5h-0.2v-6h-10.3v38.7h10.7V67.6c0-0.1,0.5-9.4,9.7-9.4c0.8,0,2.1,0.1,3.3,0.4v-9.8c-0.7-0.2-2.4-0.3-3.1-0.3
				C197,48.5,193.4,51.9,191,55.5z M352.6,48.5c-6.1,0-12.4,2.5-16.6,6.4l5.5,6.1c2.5-2.5,6.8-4.1,10.3-4.1c3.8,0,7.7,1.9,7.7,6.5
				V64C348.3,64,334,65.4,334,76.9c0,8.5,7.4,12.3,14.7,12.3c4.6,0,8.5-2.6,10.9-5.4h0.2v4.5h10.1V64.9
				C369.9,58.7,367.7,48.5,352.6,48.5z M359.7,71.9c0,5.7-3.2,9.3-9.1,9.3c-2.2,0-6.1-0.7-6.1-4.1c0-3.7,4.7-6,13.8-6h1.4V71.9z
				 M278.2,48.5c-12.2,0-21,8.5-21,20.3c0,12.2,9,20.7,21,20.7c12,0,21-8.6,21-20.7C299.1,57,290.3,48.5,278.2,48.5z M278.2,80.2
				c-7,0-10.1-5.9-10.1-11.5c0-5.4,3.2-11.3,10.1-11.3c7,0,10.1,5.9,10.1,11.3C288.3,74.3,285.1,80.2,278.2,80.2z M401.5,67.7
				l13.9-18.2h-12.4l-8,11.1l-7.7-11.1h-12.9l14,18.2l-15.7,20.5h12.8l9.5-13.1l9.4,13.1h13.1L401.5,67.7z M319.5,38.7h-10.5v10.8
				h-6.5v8.5h6.5v17c0,6,1.5,14,12.9,14c2.2,0,5.1-0.5,6.8-1.1l-0.3-8.4c-1.1,0.4-2.7,0.8-4.7,0.8c-3.1,0-4.2-2.2-4.2-5.4V58.1h9.3
				v-8.5h-9.3V38.7z"/>
		</g>
		<g id="Icon_3_">
			<circle id="Circle_3_" class="st0" cx="45" cy="50.8" r="45"/>
			<path id="Check" class="st1" d="M35,67.3c-5.2-3.7-10.1-7.7-14.9-11.9c-1.7,3.8-3.3,7.8-4.7,11.8c7.6,6.4,17.7,13.8,24.7,18
				c9-23.4,23.1-38.6,36.6-49.3c-1.7-3.7-4.1-7-6.9-9.8C55.4,37,43.4,51.1,35,67.3z"/>
		</g>
		<path id="intuit_3_" d="M128.3,8c-2.9,0-5.2,1.8-6.1,3.7h-0.1V8.5h-4.7v19.7h4.9V17.4c0-2.6,1.5-5.3,4.6-5.3
			c3.2,0,3.7,2.9,3.7,5.2v10.9h4.9V15.9C135.6,11.9,133.5,8,128.3,8z M107.5,28.2h4.9V8.5h-4.9V28.2z M189,8.5v4.4h5.5v15.3h4.9
			V12.9h5.5V8.5H189z M197,5.9c1.6,0,3-1.3,3-3s-1.3-3-3-3c-1.6,0-3,1.3-3,3S195.3,5.9,197,5.9z M146.1,5.9c1.6,0,3-1.3,3-3
			s-1.3-3-3-3c-1.6,0-3,1.3-3,3S144.4,5.9,146.1,5.9z M180.6,28.2h4.9V8.5h-4.9V28.2z M170.7,19.4c0,2.6-1.5,5.3-4.6,5.3
			c-3.2,0-3.7-2.9-3.7-5.2V8.5h-4.9v12.3c0,4,2.1,8,7.3,8c2.9,0,5.2-1.8,6.1-3.7h0.1v3.2h4.7V8.5h-4.9V19.4z M138.1,12.9h5.5v15.3
			h4.9V12.9h5.5V8.5h-16V12.9z"/>
	</g>
</g>
</svg>
