<svg width="754" height="460" viewBox="0 0 754 460" fill="none" xmlns="http://www.w3.org/2000/svg">
<path d="M116 362.841C116 369.149 92.0472 374.262 62.5 374.262C32.9528 374.262 14.5 371.57 14.5 365.262C14.5 358.955 32.9528 351.42 62.5 351.42C92.0472 351.42 116 356.533 116 362.841Z" fill="#BFBFBF"/>
<path d="M83 352.236C83 357.192 64.4198 361.21 41.5 361.21C7.5 368.262 0 357.192 0 352.236C0 347.28 18.5802 343.262 41.5 343.262C64.4198 343.262 83 347.28 83 352.236Z" fill="#BFBFBF"/>
<path d="M223.5 389.015C223.5 394.453 202.851 398.861 177.379 398.861C151.908 398.861 136 396.54 136 391.103C136 385.665 151.908 379.17 177.379 379.17C202.851 379.17 223.5 383.578 223.5 389.015Z" fill="#BFBFBF"/>
<path fill-rule="evenodd" clip-rule="evenodd" d="M90.4223 369.953C115.668 369.953 136.134 364.19 136.134 357.081C136.134 356.993 136.131 356.905 136.124 356.818H136.133V347.36H120.392C112.367 345.396 101.888 344.208 90.4223 344.208C78.9568 344.208 68.4773 345.396 60.453 347.36H44.7104V356.818H44.7203C44.714 356.905 44.7109 356.993 44.7109 357.081C44.7109 364.19 65.1766 369.953 90.4223 369.953Z" fill="#B9B187"/>
<ellipse cx="90.4213" cy="347.623" rx="45.7114" ry="12.8727" fill="#FFF2AE"/>
<path d="M44.4336 349.148C44.4336 354.088 64.4543 358.093 89.1511 358.093C106.419 358.093 121.401 356.135 128.851 353.268" stroke="#161338" stroke-width="3" stroke-linecap="round"/>
<path fill-rule="evenodd" clip-rule="evenodd" d="M73.0651 350.68C93.5095 350.68 110.083 347.294 110.083 343.118C110.083 343.066 110.08 343.015 110.075 342.964H110.083V337.408H97.3366C90.8382 336.254 82.3509 335.556 73.0651 335.556C63.7793 335.556 55.2921 336.254 48.7936 337.408H36.0478V342.964H36.0549C36.0499 343.015 36.0474 343.066 36.0474 343.118C36.0474 347.294 52.6208 350.68 73.0651 350.68Z" fill="#B9B188"/>
<ellipse cx="73.0646" cy="337.562" rx="37.0178" ry="7.5622" fill="#FFF2AE"/>
<path d="M36.0469 337.828C36.0469 342.005 52.6203 345.39 73.0646 345.39C87.3592 345.39 99.7613 343.735 105.929 341.312" stroke="#161338" stroke-width="3" stroke-linecap="round"/>
<path d="M100.898 342.859L100.898 346.773" stroke="#161338" stroke-linecap="round"/>
<path d="M98.6602 342.859L98.6602 346.772" stroke="#161338" stroke-linecap="round"/>
<path d="M95.3086 343.977L95.3086 346.772" stroke="#161338" stroke-linecap="round"/>
<path d="M94.1914 343.977L94.1914 346.773" stroke="#161338" stroke-linecap="round"/>
<path d="M96.4258 343.978L96.4258 347.892" stroke="#161338" stroke-linecap="round"/>
<path d="M99.7813 342.859L99.7812 347.332" stroke="#161338" stroke-linecap="round"/>
<path d="M97.543 343.419L97.543 347.892" stroke="#161338" stroke-linecap="round"/>
<path d="M60.6455 351.804C44.8575 350.51 36.0469 346.297 36.0469 342.859V338.387" stroke="#161338" stroke-width="3" stroke-linecap="round"/>
<path d="M107.048 370.16C101.568 370.759 95.5147 371.091 89.151 371.091C64.4543 371.091 44.4336 366.085 44.4336 359.91V349.847" stroke="#161338" stroke-width="3" stroke-linecap="round"/>
<path d="M60.0898 367.735V361.026" stroke="#161338" stroke-linecap="round"/>
<path d="M56.1719 366.618V359.91" stroke="#161338" stroke-linecap="round"/>
<path d="M52.8203 365.501V358.792" stroke="#161338" stroke-linecap="round"/>
<path d="M63.4414 369.415V362.148" stroke="#161338" stroke-linecap="round"/>
<path d="M61.7617 369.415V362.148" stroke="#161338" stroke-linecap="round"/>
<path d="M57.8516 368.294V361.026" stroke="#161338" stroke-linecap="round"/>
<path d="M54.5005 367.178V359.91" stroke="#161338" stroke-linecap="round"/>
<path d="M65.1211 369.415V362.148" stroke="#161338" stroke-linecap="round"/>
<g opacity="0.3">
<mask id="mask0" mask-type="alpha" maskUnits="userSpaceOnUse" x="46" y="336" width="91" height="38">
<path d="M48.4641 338.229C54.2468 338.229 73.8681 333.504 109.179 338.229C109.179 338.229 132.308 341.602 135.2 348.83C138.091 356.058 132.308 365.213 132.308 365.213C132.308 365.213 112.552 374.369 89.9044 373.405C67.2568 372.441 48.4641 365.213 48.4641 365.213C52.9567 354.184 42.6815 338.229 48.4641 338.229Z" fill="#C4C4C4"/>
</mask>
<g mask="url(#mask0)">
<rect x="237.355" y="746.852" width="608.112" height="778.692" transform="rotate(-180 237.355 746.852)"/>
</g>
</g>
<path fill-rule="evenodd" clip-rule="evenodd" d="M192.924 396.503C212.646 396.503 228.634 392.001 228.634 386.447C228.634 386.378 228.631 386.309 228.626 386.24H228.634V378.852H216.329C210.061 377.319 201.877 376.391 192.924 376.391C183.97 376.391 175.786 377.319 169.519 378.852H157.214V386.24H157.221C157.216 386.309 157.214 386.378 157.214 386.447C157.214 392.001 173.202 396.503 192.924 396.503Z" fill="#B9B187"/>
<ellipse cx="192.925" cy="379.056" rx="35.7099" ry="10.0562" fill="#FFF2AE"/>
<path d="M157 380.246C157 384.105 172.64 387.234 191.933 387.234C205.423 387.234 217.127 385.704 222.948 383.465" stroke="#161338" stroke-width="3" stroke-linecap="round"/>
<path d="M205.915 396.658C201.634 397.126 196.905 397.386 191.934 397.386C172.641 397.386 157 393.475 157 388.651V380.79" stroke="#161338" stroke-width="3" stroke-linecap="round"/>
<path d="M169.231 394.764V389.523" stroke="#161338" stroke-linecap="round"/>
<path d="M166.17 393.89V388.649" stroke="#161338" stroke-linecap="round"/>
<path d="M163.552 393.019V387.778" stroke="#161338" stroke-linecap="round"/>
<path d="M171.85 396.077V390.399" stroke="#161338" stroke-linecap="round"/>
<path d="M170.537 396.077V390.399" stroke="#161338" stroke-linecap="round"/>
<path d="M167.482 395.201V389.523" stroke="#161338" stroke-linecap="round"/>
<path d="M164.865 394.327V388.649" stroke="#161338" stroke-linecap="round"/>
<path d="M173.162 396.077V390.399" stroke="#161338" stroke-linecap="round"/>
<g opacity="0.3">
<mask id="mask1" mask-type="alpha" maskUnits="userSpaceOnUse" x="158" y="370" width="71" height="30">
<path d="M160.15 371.715C164.667 371.714 179.995 368.024 207.58 371.715C207.58 371.715 225.649 374.35 227.908 379.996C230.166 385.643 225.649 392.795 225.649 392.795C225.649 392.795 210.215 399.947 192.523 399.194C174.831 398.441 160.15 392.795 160.15 392.795C163.659 384.179 155.632 371.715 160.15 371.715Z" fill="#C4C4C4"/>
</mask>
<g mask="url(#mask1)">
<rect x="307.712" y="690.933" width="475.059" height="608.317" transform="rotate(-180 307.712 690.933)"/>
</g>
</g>
<path d="M433.5 318L323 354.5L326.123 355.623L295 364.5L305.856 368.404L295 371.5L311.838 376.838L299 380.5L530.5 459L533.2 457.735L539.5 460L608.868 446.795L680 430L669.715 426.441L680 423L679.069 422.678L708 413L433.5 318Z" fill="#BFBFBF"/>
<path d="M344.267 372.804L590.324 455.43V459.998L344.267 376.143L344.267 372.804Z" fill="#288067"/>
<path d="M590.325 455.093L721.017 420.965V424.955L590.325 459.776L590.325 455.093Z" fill="#83E4C8"/>
<path d="M474.959 338.675L721.015 421.301L590.323 455.429L344.266 372.803L474.959 338.675Z" fill="#67C8AC"/>
<path d="M357.087 370.125L603.144 452.751V457.32L357.087 373.465L357.087 370.125Z" fill="#288067"/>
<path d="M603.145 452.413L733.837 418.285V422.276L603.145 457.097L603.145 452.413Z" fill="#83E4C8"/>
<path d="M487.778 335.996L733.835 418.622L603.143 452.75L357.086 370.124L487.778 335.996Z" fill="#67C8AC"/>
<path d="M340.457 349.827L586.513 432.79V452.416L340.457 368.561L340.457 349.827Z" fill="#288067"/>
<path d="M586.516 432.79L717.209 398.445V417.372L586.516 452.193L586.516 432.79Z" fill="#83E4C8"/>
<path d="M471.149 315.929L717.206 398.555L586.513 432.683L340.457 350.057L471.149 315.929Z" fill="#67C8AC"/>
<path d="M340.801 349.949V367.859L422.267 395.677" stroke="black" stroke-width="3" stroke-linecap="round"/>
<path d="M324.43 345.597L570.486 428.223V432.791L324.43 348.936L324.43 345.597Z" fill="#288067"/>
<path d="M570.488 427.885L701.18 393.757V397.748L570.488 432.569L570.488 427.885Z" fill="#83E4C8"/>
<path d="M455.122 311.468L701.179 394.094L570.486 428.222L324.43 345.596L455.122 311.468Z" fill="#67C8AC"/>
<path d="M340.457 338.457L586.513 421.083V425.652L340.457 341.796L340.457 338.457Z" fill="#288067"/>
<path d="M586.516 420.745L717.209 386.617V390.608L586.516 425.429L586.516 420.745Z" fill="#83E4C8"/>
<path d="M471.149 304.332L717.206 386.958L586.513 421.086L340.457 338.46L471.149 304.332Z" fill="#67C8AC"/>
<path d="M331.649 333.999L577.706 416.625V421.193L331.649 337.338L331.649 333.999Z" fill="#288067"/>
<path d="M577.707 416.287L708.399 382.159V386.149L577.707 420.971L577.707 416.287Z" fill="#83E4C8"/>
<path d="M462.341 299.871L708.398 382.497L577.705 416.625L331.648 333.999L462.341 299.871Z" fill="#67C8AC"/>
<path d="M344.461 320.837L590.518 403.354V414.059L344.461 330.204L344.461 320.837Z" fill="#288067"/>
<path d="M590.519 402.904L721.211 369.005V379.011L590.519 413.832L590.519 402.904Z" fill="#83E4C8"/>
<path d="M475.153 286.489L721.21 369.115L590.518 403.243L344.461 320.617L475.153 286.489Z" fill="#67C8AC"/>
<path d="M344.461 320.837L590.518 403.354V414.059L344.461 330.204L344.461 320.837Z" fill="#288067"/>
<path d="M590.519 402.904L721.211 369.005V379.011L590.519 413.832L590.519 402.904Z" fill="#83E4C8"/>
<path d="M475.153 286.489L721.21 369.115L590.518 403.243L344.461 320.617L475.153 286.489Z" fill="#67C8AC"/>
<path d="M334.848 299.871L580.904 382.834V402.459L334.848 318.604L334.848 299.871Z" fill="#288067"/>
<path d="M580.905 382.832L711.598 348.487V367.414L580.905 402.235L580.905 382.832Z" fill="#83E4C8"/>
<path d="M465.54 265.972L711.597 348.597L580.904 382.725L334.848 300.1L465.54 265.972Z" fill="#67C8AC"/>
<path d="M581.852 396.059L705.353 362.906" stroke="#161338" stroke-linecap="round"/>
<path d="M581.852 393.772L684.894 365.954" stroke="#161338" stroke-linecap="round"/>
<path d="M585.571 421.971L688.614 394.153" stroke="#161338" stroke-linecap="round"/>
<path d="M587.804 441.786L690.846 413.968" stroke="#161338" stroke-linecap="round"/>
<path d="M581.852 401.011L581.852 387.292" stroke="#161338" stroke-width="3" stroke-linecap="round"/>
<path d="M581.852 401.012L634.675 386.531" stroke="#161338" stroke-width="3" stroke-linecap="round"/>
<path d="M582.594 390.342L612.726 382.34" stroke="#161338" stroke-linecap="round"/>
<path d="M350.871 292.288L596.928 374.805V385.51L350.871 301.655L350.871 292.288Z" fill="#288067"/>
<path d="M596.931 374.358L727.623 340.459V350.465L596.931 385.286L596.931 374.358Z" fill="#83E4C8"/>
<path d="M481.564 257.944L727.62 340.57L596.928 374.698L350.871 292.072L481.564 257.944Z" fill="#67C8AC"/>
<path d="M340.457 274.449L586.514 356.966V367.671L340.457 283.816L340.457 274.449Z" fill="#288067"/>
<path d="M586.517 356.516L717.209 322.617V332.623L586.517 367.444L586.517 356.516Z" fill="#83E4C8"/>
<path d="M471.149 240.102L717.206 322.727L586.514 356.855L340.457 274.229L471.149 240.102Z" fill="#67C8AC"/>
<path d="M350.871 257.496L596.928 340.013V350.718L350.871 266.863L350.871 257.496Z" fill="#288067"/>
<path d="M596.931 339.566L727.623 305.667V315.673L596.931 350.494L596.931 339.566Z" fill="#83E4C8"/>
<path d="M481.564 223.152L727.62 305.778L596.928 339.906L350.871 257.28L481.564 223.152Z" fill="#67C8AC"/>
<path d="M354.082 252.824L600.139 335.45V340.018L354.082 256.163L354.082 252.824Z" fill="#288067"/>
<path d="M600.142 335.109L730.834 300.981V304.972L600.142 339.793L600.142 335.109Z" fill="#83E4C8"/>
<path d="M484.774 218.695L730.831 301.321L600.139 335.449L354.082 252.823L484.774 218.695Z" fill="#67C8AC"/>
<path d="M353.283 244.789L599.34 327.414V331.983L353.283 248.128L353.283 244.789Z" fill="#288067"/>
<path d="M599.341 327.076L730.033 292.948V296.939L599.341 331.76L599.341 327.076Z" fill="#83E4C8"/>
<path d="M483.975 210.66L730.031 293.286L599.339 327.414L353.282 244.788L483.975 210.66Z" fill="#67C8AC"/>
<path d="M361.293 241.222L607.35 323.847V328.416L361.293 244.561L361.293 241.222Z" fill="#288067"/>
<path d="M607.356 323.511L738.048 289.383V293.373L607.356 328.194L607.356 323.511Z" fill="#83E4C8"/>
<path d="M491.985 207.094L738.042 289.719L607.35 323.847L361.293 241.222L491.985 207.094Z" fill="#67C8AC"/>
<path d="M340.457 230.734L586.513 313.251V323.956L340.457 240.101L340.457 230.734Z" fill="#288067"/>
<path d="M586.516 312.804L717.209 278.905V288.911L586.516 323.732L586.516 312.804Z" fill="#83E4C8"/>
<path d="M471.149 196.39L717.206 279.015L586.513 313.143L340.457 230.518L471.149 196.39Z" fill="#67C8AC"/>
<path d="M334.848 210.66L580.904 293.623V313.249L334.848 229.394L334.848 210.66Z" fill="#288067"/>
<path d="M580.905 293.623L711.598 259.278V278.205L580.905 313.026L580.905 293.623Z" fill="#83E4C8"/>
<path d="M465.54 176.762L711.597 259.387L580.904 293.515L334.848 210.89L465.54 176.762Z" fill="#67C8AC"/>
<path d="M344.461 189.25L590.518 272.213V291.839L344.461 207.984L344.461 189.25Z" fill="#288067"/>
<path d="M590.519 272.211L721.211 237.866V256.793L590.519 291.614L590.519 272.211Z" fill="#83E4C8"/>
<path d="M475.153 155.352L721.21 237.977L590.518 272.105L344.461 189.479L475.153 155.352Z" fill="#67C8AC"/>
<path d="M367.695 172.75L613.752 255.267V265.972L367.695 182.117L367.695 172.75Z" fill="#288067"/>
<path d="M613.753 254.821L744.445 220.922V230.928L613.753 265.749L613.753 254.821Z" fill="#83E4C8"/>
<path d="M498.388 138.402L744.444 221.028L613.752 255.156L367.695 172.53L498.388 138.402Z" fill="#67C8AC"/>
<path d="M376.521 159.367L622.577 241.884V252.589L376.521 168.734L376.521 159.367Z" fill="#288067"/>
<path d="M622.578 241.438L753.271 207.539V217.545L622.578 252.366L622.578 241.438Z" fill="#83E4C8"/>
<path d="M507.212 125.024L753.269 207.65L622.576 241.778L376.52 159.152L507.212 125.024Z" fill="#67C8AC"/>
<path d="M639.512 242.489L708.331 223.816" stroke="#161338" stroke-linecap="round"/>
<path d="M607.891 312.226L676.709 293.554" stroke="#161338" stroke-linecap="round"/>
<path d="M640.625 396.821L709.444 378.148" stroke="#161338" stroke-linecap="round"/>
<path d="M654.02 328.231L722.838 309.559" stroke="#161338" stroke-linecap="round"/>
<path d="M659.969 239.442L688.24 231.82" stroke="#161338" stroke-linecap="round"/>
<path d="M628.352 309.176L656.623 301.555" stroke="#161338" stroke-linecap="round"/>
<path d="M686.008 257.735L714.279 250.113" stroke="#161338" stroke-linecap="round"/>
<path d="M677.827 257.735L706.099 250.113" stroke="#161338" stroke-linecap="round"/>
<path d="M661.086 393.774L689.357 386.152" stroke="#161338" stroke-linecap="round"/>
<path d="M676.707 325.184L704.979 317.562" stroke="#161338" stroke-linecap="round"/>
<path d="M627.98 331.659L705.355 311.844" stroke="#161338" stroke-linecap="round"/>
<path d="M582.97 199.048L651.789 180.376" stroke="#161338" stroke-linecap="round"/>
<path d="M367.695 154.691L613.752 237.317V241.886L367.695 158.031L367.695 154.691Z" fill="#288067"/>
<path d="M613.753 236.979L744.445 202.852V206.842L613.753 241.663L613.753 236.979Z" fill="#83E4C8"/>
<path d="M498.388 120.562L744.444 203.188L613.752 237.316L367.695 154.69L498.388 120.562Z" fill="#67C8AC"/>
<path d="M357.281 150.231L603.338 232.856V237.425L357.281 153.57L357.281 150.231Z" fill="#288067"/>
<path d="M603.339 232.519L734.031 198.391V202.381L603.339 237.202L603.339 232.519Z" fill="#83E4C8"/>
<path d="M487.974 116.102L734.031 198.728L603.338 232.855L357.282 150.23L487.974 116.102Z" fill="#67C8AC"/>
<path d="M364.498 128.589L610.554 211.552V231.178L364.498 147.323L364.498 128.589Z" fill="#288067"/>
<path d="M610.556 211.552L741.248 177.207V196.133L610.556 230.955L610.556 211.552Z" fill="#83E4C8"/>
<path d="M495.189 94.6914L741.246 177.317L610.554 211.445L364.497 128.819L495.189 94.6914Z" fill="#67C8AC"/>
<path d="M681.963 207.949L613.034 226.192" stroke="#161338" stroke-linecap="round"/>
<path d="M659.248 210.855L630.932 218.3" stroke="#161338" stroke-linecap="round"/>
<path d="M708.024 204.681L630.533 224.013" stroke="#161338" stroke-linecap="round"/>
<path d="M353.283 110.75L599.339 193.713V213.339L353.283 129.484L353.283 110.75Z" fill="#288067"/>
<path d="M599.34 193.711L730.033 159.366V178.293L599.34 213.114L599.34 193.711Z" fill="#83E4C8"/>
<path d="M483.974 76.8508L730.031 159.476L599.338 193.604L353.282 110.979L483.974 76.8508Z" fill="#67C8AC"/>
<path d="M336.449 106.52L582.506 189.145V193.714L336.449 109.859L336.449 106.52Z" fill="#288067"/>
<path d="M582.507 188.808L713.199 154.68V158.67L582.507 193.491L582.507 188.808Z" fill="#83E4C8"/>
<path d="M467.142 72.3906L713.198 155.016L582.506 189.144L336.449 106.519L467.142 72.3906Z" fill="#67C8AC"/>
<path d="M344.461 102.059L590.518 184.684V189.253L344.461 105.398L344.461 102.059Z" fill="#288067"/>
<path d="M590.519 184.348L721.211 150.22V154.21L590.519 189.032L590.519 184.348Z" fill="#83E4C8"/>
<path d="M475.153 67.9307L721.21 150.556L590.518 184.684L344.461 102.059L475.153 67.9307Z" fill="#67C8AC"/>
<path d="M343.66 94.9258L589.717 177.551V182.12L343.66 98.265L343.66 94.9258Z" fill="#288067"/>
<path d="M589.715 177.21L720.407 143.082V147.072L589.715 181.893L589.715 177.21Z" fill="#83E4C8"/>
<path d="M474.353 60.7969L720.409 143.422L589.717 177.55L343.66 94.9248L474.353 60.7969Z" fill="#67C8AC"/>
<path d="M350.871 74.1758L596.928 157.139V176.764L350.871 92.9094L350.871 74.1758Z" fill="#288067"/>
<path d="M596.931 157.136L727.623 122.791V141.718L596.931 176.539L596.931 157.136Z" fill="#83E4C8"/>
<path d="M481.564 40.2764L727.62 122.902L596.928 157.03L350.871 74.4043L481.564 40.2764Z" fill="#67C8AC"/>
<path d="M367.695 61.6841L613.752 144.647V164.273L367.695 80.4177L367.695 61.6841Z" fill="#288067"/>
<path d="M613.753 144.65L744.445 110.305V129.232L613.753 164.053L613.753 144.65Z" fill="#83E4C8"/>
<path d="M498.388 27.7856L744.444 110.411L613.752 144.539L367.695 61.9136L498.388 27.7856Z" fill="#67C8AC"/>
<path d="M629.469 151.797L657.74 144.176" stroke="#161338" stroke-linecap="round"/>
<path d="M621.282 151.797L649.554 144.176" stroke="#161338" stroke-linecap="round"/>
<path d="M369.07 61.8672V79.7772L412.966 95.0198" stroke="black" stroke-width="3" stroke-linecap="round"/>
<path d="M343.66 45.1797L589.717 127.697V138.402L343.66 54.5465L343.66 45.1797Z" fill="#288067"/>
<path d="M589.715 127.251L720.407 93.3521V103.358L589.715 138.179L589.715 127.251Z" fill="#83E4C8"/>
<path d="M474.353 10.8359L720.409 93.4614L589.717 127.589L343.66 44.9639L474.353 10.8359Z" fill="#67C8AC"/>
<path d="M357.281 34.4766L603.338 116.994V127.698L357.281 43.8434L357.281 34.4766Z" fill="#288067"/>
<path d="M603.339 116.548L734.031 82.6492V92.6549L603.339 127.476L603.339 116.548Z" fill="#83E4C8"/>
<path d="M487.974 0.132812L734.031 82.7583L603.338 116.886L357.282 34.2607L487.974 0.132812Z" fill="#67C8AC"/>
<path d="M407.015 21.0898L357.168 34.8082L401.063 50.0508" stroke="black" stroke-width="3" stroke-linecap="round" stroke-linejoin="round"/>
<path d="M603.425 121.693L686.38 99.21" stroke="#161338" stroke-linecap="round"/>
<path d="M603.425 119.409L672.244 100.737" stroke="#161338" stroke-linecap="round"/>
<path d="M603.425 126.647L603.425 112.928" stroke="#161338" stroke-width="3" stroke-linecap="round"/>
<path d="M603.425 126.648L656.248 112.167" stroke="#161338" stroke-width="3" stroke-linecap="round"/>
<path d="M586.316 446.359L606.776 441.024" stroke="#161338" stroke-linecap="round"/>
<path d="M586.316 451.313L586.316 437.595" stroke="#161338" stroke-width="3" stroke-linecap="round"/>
<path d="M586.317 451.312L639.14 436.832" stroke="#161338" stroke-width="3" stroke-linecap="round"/>
<path d="M586.316 425.398L639.14 410.918" stroke="#161338" stroke-width="3" stroke-linecap="round"/>
<path d="M607.148 328.613L642.116 319.086" stroke="#161338" stroke-width="3" stroke-linecap="round"/>
<path d="M709.07 216.196L744.038 206.669" stroke="#161338" stroke-width="3" stroke-linecap="round"/>
<path d="M656.996 169.325L719.863 152.559" stroke="#161338" stroke-width="3" stroke-linecap="round"/>
<path d="M599.708 208.578L723.21 175.425" stroke="#161338" stroke-linecap="round"/>
<path d="M599.708 205.527L723.209 172.374" stroke="#161338" stroke-linecap="round"/>
<path d="M599.708 213.531L599.708 199.813" stroke="#161338" stroke-width="3" stroke-linecap="round"/>
<path d="M599.708 213.531L652.532 199.051" stroke="#161338" stroke-width="3" stroke-linecap="round"/>
<path d="M600.458 202.86L630.589 194.858" stroke="#161338" stroke-linecap="round"/>
<path d="M600.458 199.814L630.589 191.812" stroke="#161338" stroke-linecap="round"/>
<path d="M581.105 308.415L667.78 284.789" stroke="#161338" stroke-linecap="round"/>
<path d="M581.105 313.367L581.105 299.648" stroke="#161338" stroke-width="3" stroke-linecap="round"/>
<path d="M581.105 313.369L603.425 307.653" stroke="#161338" stroke-width="3" stroke-linecap="round"/>
<path d="M581.851 302.698L611.983 294.696" stroke="#161338" stroke-linecap="round"/>
<path d="M581.851 305.368L600.079 300.414" stroke="#161338" stroke-linecap="round"/>
<path d="M590.776 285.551L616.444 278.691" stroke="#161338" stroke-linecap="round"/>
<path d="M590.776 283.645L605.656 279.453" stroke="#161338" stroke-linecap="round"/>
<path d="M590.776 290.503L590.776 276.785" stroke="#161338" stroke-width="3" stroke-linecap="round"/>
<path d="M590.776 290.504L643.599 276.024" stroke="#161338" stroke-width="3" stroke-linecap="round"/>
<path d="M591.522 279.834L621.654 271.832" stroke="#161338" stroke-linecap="round"/>
<path d="M591.522 287.077L621.654 279.074" stroke="#161338" stroke-linecap="round"/>
<path d="M344.891 189.902V207.812L429.333 236.773" stroke="black" stroke-width="3" stroke-linecap="round"/>
<path d="M389.16 298.125L566.601 359.095" stroke="black" stroke-width="3" stroke-linecap="round"/>
<path d="M381.715 100.735L559.156 161.706" stroke="black" stroke-width="3" stroke-linecap="round"/>
<path d="M452.024 175.804L573.294 216.578" stroke="black" stroke-width="3" stroke-linecap="round"/>
<path d="M336.336 300.414V318.324L484.389 368.625" stroke="black" stroke-width="3" stroke-linecap="round"/>
<path d="M336.336 211.243V229.153L547.256 301.936" stroke="black" stroke-width="3" stroke-linecap="round"/>
<g opacity="0.15">
<mask id="mask2" mask-type="alpha" maskUnits="userSpaceOnUse" x="355" y="0" width="376" height="458">
<path d="M488.749 0L731 83.5L714.734 414.632L588.5 457.5L355.898 371.97V197.647L375.196 182.033V99.9385L361.196 36.4322L488.749 0Z" fill="#C4C4C4"/>
</mask>
<g mask="url(#mask2)">
<rect x="796.52" y="804.833" width="639.523" height="818.913" transform="rotate(-180 796.52 804.833)"/>
</g>
</g>
</svg>
