<?xml version="1.0" encoding="utf-8"?><svg width="21" height="20" viewBox="0 0 21 20" fill="none" xmlns="http://www.w3.org/2000/svg">
<path fill-rule="evenodd" clip-rule="evenodd" d="M21 19.9016L20.9989 19.839C20.9845 19.8131 20.9557 19.7799 20.9074 19.7377C16.3216 15.9257 16.8988 7.95121 18.2013 0.549452C18.2537 0.251415 18.2891 0.0521697 18.0565 0.0244778C16.5749 -0.151901 11.6383 0.669388 10.2214 1.06356C9.85264 1.16613 9.81947 1.2748 9.81324 1.51232C9.42441 16.3288 18.3593 19.4308 20.7874 19.9135C20.8425 19.9245 20.9637 19.9384 21 19.9016ZM8.10045 5.67232C6.28159 6.03362 4.59791 6.73881 3.14099 7.37216C3.0129 7.4096 2.80828 7.63162 2.86127 7.90767C3.4359 10.901 6.23818 19.3414 16.952 19.9983C17.1984 20.0098 17.4472 19.9637 17.253 19.8404C15.8081 18.7085 10.6701 17.5444 8.56955 6.09761C8.54808 5.98064 8.55094 5.53535 8.10045 5.67232ZM2.95945 12.6998C2.32107 13.0917 0.675222 14.1923 0.0847922 14.7594C-0.0321082 14.8716 -0.00952701 14.9511 0.041964 15.1426C0.518557 16.9146 3.33084 20.0208 10.3173 19.7796C10.6475 19.7682 10.649 19.6652 10.4767 19.5352C10.3645 19.4505 8.15627 18.7278 6.13748 16.8342C5.12737 15.8867 4.09998 14.4472 3.41069 13.079C3.23956 12.7055 3.15305 12.5809 2.95945 12.6998Z" fill="#4840BB"/>
<mask id="mask0" mask-type="alpha" maskUnits="userSpaceOnUse" x="0" y="0" width="21" height="20">
<path fill-rule="evenodd" clip-rule="evenodd" d="M21 19.9016L20.9989 19.839C20.9845 19.8131 20.9557 19.7799 20.9074 19.7377C16.3216 15.9257 16.8988 7.95121 18.2013 0.549452C18.2537 0.251415 18.2891 0.0521697 18.0565 0.0244778C16.5749 -0.151901 11.6383 0.669388 10.2214 1.06356C9.85264 1.16613 9.81947 1.2748 9.81324 1.51232C9.42441 16.3288 18.3593 19.4308 20.7874 19.9135C20.8425 19.9245 20.9637 19.9384 21 19.9016ZM8.10045 5.67232C6.28159 6.03362 4.59791 6.73881 3.14099 7.37216C3.0129 7.4096 2.80828 7.63162 2.86127 7.90767C3.4359 10.901 6.23818 19.3414 16.952 19.9983C17.1984 20.0098 17.4472 19.9637 17.253 19.8404C15.8081 18.7085 10.6701 17.5444 8.56955 6.09761C8.54808 5.98064 8.55094 5.53535 8.10045 5.67232ZM2.95945 12.6998C2.32107 13.0917 0.675222 14.1923 0.0847922 14.7594C-0.0321082 14.8716 -0.00952701 14.9511 0.041964 15.1426C0.518557 16.9146 3.33084 20.0208 10.3173 19.7796C10.6475 19.7682 10.649 19.6652 10.4767 19.5352C10.3645 19.4505 8.15627 18.7278 6.13748 16.8342C5.12737 15.8867 4.09998 14.4472 3.41069 13.079C3.23956 12.7055 3.15305 12.5809 2.95945 12.6998Z" fill="white"/>
</mask>
<g mask="url(#mask0)">
</g>
</svg>
