<?xml version="1.0" standalone="no"?>
<!DOCTYPE svg PUBLIC "-//W3C//DTD SVG 1.1//EN" "http://www.w3.org/Graphics/SVG/1.1/DTD/svg11.dtd" >
<svg xmlns="http://www.w3.org/2000/svg" xmlns:xlink="http://www.w3.org/1999/xlink" version="1.1">
<metadata></metadata>
<defs>
<font id="chivoregular" horiz-adv-x="1259" >
<font-face units-per-em="2048" ascent="1638" descent="-410" />
<missing-glyph horiz-adv-x="499" />
<glyph unicode="&#xfb01;" horiz-adv-x="1230" d="M96 893v154h115v141q0 303 244 303q118 0 192 -39v-141q-62 26 -104 26q-82 0 -111 -29.5t-29 -99.5v-161h244v-154h-244v-893h-192v893h-115zM868 1296v179h201v-179h-201zM872 0v1047h193v-1047h-193z" />
<glyph unicode="&#xfb02;" horiz-adv-x="1243" d="M96 893v154h115v141q0 303 244 303q118 0 192 -39v-141q-62 26 -104 26q-82 0 -111 -29.5t-29 -99.5v-161h244v-154h-244v-893h-192v893h-115zM872 0v1475h193v-1475h-193z" />
<glyph horiz-adv-x="0" />
<glyph horiz-adv-x="682" />
<glyph unicode=" "  horiz-adv-x="499" />
<glyph unicode="&#x09;" horiz-adv-x="499" />
<glyph unicode="&#xa0;" horiz-adv-x="499" />
<glyph unicode="!" horiz-adv-x="550" d="M160 1405h235l-26 -1049h-185zM174 0v227h207v-227h-207z" />
<glyph unicode="&#x22;" horiz-adv-x="745" d="M131 1104v301h168v-301l-43 -270h-80zM446 1104v301h168v-301l-45 -270h-80z" />
<glyph unicode="#" horiz-adv-x="1316" d="M57 367v155h260l70 318h-248v155h283l96 430h156l-96 -430h307l96 430h156l-97 -430h215v-155h-249l-70 -318h238v-155h-273l-82 -367h-155l81 367h-307l-82 -367h-155l82 367h-226zM473 522h307l70 318h-307z" />
<glyph unicode="$" horiz-adv-x="1118" d="M63 428q0 7 5 37h194q-4 -24 -4 -39q0 -105 79 -158t212 -53q311 0 311 199q0 45 -21.5 80t-58 57.5t-85.5 41.5t-104.5 32.5t-113.5 30.5t-113.5 34t-104.5 45.5t-85.5 63t-58 87t-21.5 118.5q0 93 30.5 162.5t87.5 112.5t128.5 66t161.5 29l-23 182h150l-23 -182 q190 -9 302 -101.5t112 -258.5v-25h-195v29q0 88 -72 135t-192 47q-122 0 -197 -41.5t-75 -124.5q0 -46 26 -81t70.5 -57.5t101.5 -40.5t120.5 -34.5t127 -35.5t120.5 -47.5t101.5 -66.5t70.5 -96.5t26 -132.5q0 -189 -114 -291.5t-333 -111.5l23 -174h-150l21 176 q-213 14 -325 111.5t-112 275.5z" />
<glyph unicode="%" horiz-adv-x="1431" d="M61 936v219q0 106 70 177t178 71h15q108 0 177.5 -70.5t69.5 -177.5v-219q0 -106 -70.5 -177t-176.5 -71h-15q-106 0 -177 71t-71 177zM193 922q0 -53 33 -87t91 -34t90.5 34t32.5 87v247q0 53 -32.5 87t-90.5 34t-91 -34t-33 -87v-247zM219 0l856 1405h139l-852 -1405 h-143zM860 246v219q0 106 71 177t177 71h14q106 0 177 -71t71 -177v-219q0 -106 -70 -177t-178 -71h-14q-108 0 -178 71t-70 177zM991 231q0 -53 33.5 -86.5t91.5 -33.5t90.5 33.5t32.5 86.5v248q0 53 -32.5 87t-90.5 34t-91.5 -34t-33.5 -87v-248z" />
<glyph unicode="&#x26;" horiz-adv-x="1355" d="M119 395q0 253 258 330l6 4q-231 101 -231 297q0 84 27 152.5t71 113.5t102.5 75.5t119.5 44t124 13.5q80 0 143 -14v-186q-59 18 -114 18q-125 0 -200 -56.5t-75 -156.5q0 -96 79 -158.5t198 -62.5h252l57 293h139v-293h221v-182h-221v-627h-461q-224 0 -359.5 103.5 t-135.5 291.5zM319 406q0 -108 85.5 -166t238.5 -58h231v445h-233q-155 0 -238.5 -56t-83.5 -165z" />
<glyph unicode="'" horiz-adv-x="430" d="M131 1104v301h168v-301l-45 -270h-80z" />
<glyph unicode="(" horiz-adv-x="591" d="M100 541q0 239 84 461.5t242 402.5h106q-124 -195 -194 -418t-70 -444q0 -438 264 -865h-106q-158 180 -242 402t-84 461z" />
<glyph unicode=")" horiz-adv-x="589" d="M59 -322q123 196 193 419.5t70 445.5q0 216 -71 442t-192 420h107q158 -180 242 -402t84 -460q0 -239 -84 -462t-242 -403h-107z" />
<glyph unicode="*" horiz-adv-x="958" d="M59 1042l52 158l317 -135l-27 340h162l-33 -342l324 133l47 -160l-338 -78l223 -256l-131 -100l-180 295l-178 -291l-131 99l227 256z" />
<glyph unicode="+" d="M104 436v172h439v439h170v-439h440v-172h-440v-436h-170v436h-439z" />
<glyph unicode="," horiz-adv-x="487" d="M139 0v238h228v-164q0 -210 -154 -342l-74 63q105 94 105 205h-105z" />
<glyph unicode="-" horiz-adv-x="800" d="M141 453v200h518v-200h-518z" />
<glyph unicode="." horiz-adv-x="489" d="M141 0v227h207v-227h-207z" />
<glyph unicode="/" horiz-adv-x="1228" d="M31 -350l1003 1755h164l-1001 -1755h-166z" />
<glyph unicode="0" d="M145 453v497q0 207 135 341t334 134h27q128 0 235.5 -60t171.5 -169.5t64 -245.5v-497q0 -202 -134 -337.5t-337 -135.5h-27q-135 0 -243 63t-167 171t-59 239zM346 438q0 -120 82 -198t201 -78q122 0 202 79t80 197v529q0 118 -80 197t-202 79q-119 0 -201 -78t-82 -198 v-529z" />
<glyph unicode="1" d="M199 1137v131q243 24 495 137h78v-1223h369v-182h-938v182h368v955h-372z" />
<glyph unicode="2" d="M143 0v49q0 104 50 200t141 163l407 307q87 69 123.5 137t36.5 150q0 95 -70.5 166t-193.5 71q-129 0 -211 -78.5t-82 -191.5q0 -49 2 -53h-201q-2 12 -2 36q0 69 17 134.5t56 127t96 107t142 73t189 27.5h8q111 0 199.5 -36t142 -95.5t81.5 -131t28 -148.5t-16 -139 t-51 -114t-76.5 -92.5t-106.5 -90.5l-391 -299q-48 -33 -73.5 -59t-25.5 -38h746v-182h-965z" />
<glyph unicode="3" d="M119 397v17h200q0 -128 71 -190t222 -62q145 0 226.5 58.5t81.5 176.5q0 226 -316 226h-153v184h157q125 0 202 57t77 164q0 104 -75 159.5t-200 55.5t-192.5 -59t-67.5 -176h-200v36q0 170 131.5 275.5t328.5 105.5h19q202 0 329 -107.5t127 -273.5q0 -117 -58.5 -192 t-164.5 -123l2 -6q117 -37 185.5 -124t68.5 -222q0 -115 -64 -206t-175.5 -141t-249.5 -50h-25q-223 0 -355 111.5t-132 305.5z" />
<glyph unicode="4" d="M102 346v184q282 423 437 895h215q-58 -205 -201.5 -483t-259.5 -414h471v408q67 131 110 281h91v-689h178v-182h-178v-346h-201v346h-662z" />
<glyph unicode="5" d="M145 438h201q3 -119 84 -197.5t201 -78.5q127 0 205.5 81t78.5 218q0 123 -79.5 202.5t-196.5 79.5q-175 0 -264 -141l-180 27l57 776h790v-182h-622l-31 -412q131 104 266 104q121 0 211.5 -36t144 -100t79.5 -145t26 -179q0 -212 -133 -343.5t-352 -131.5 q-210 0 -346.5 129.5t-139.5 328.5z" />
<glyph unicode="6" d="M162 457v495q0 127 63.5 236t171 173t232.5 64h12q205 0 336 -126.5t131 -329.5h-201q0 128 -74 201t-198 73q-113 0 -193 -80t-80 -192v-221q126 135 318 135q122 0 225.5 -57t164 -156.5t60.5 -218.5q0 -209 -134.5 -341t-342.5 -132h-12q-207 0 -343 134.5t-136 342.5 zM362 432q0 -117 81.5 -193.5t203.5 -76.5q121 0 202 74.5t81 195.5t-81 195.5t-202 74.5q-122 0 -203.5 -76.5t-81.5 -193.5z" />
<glyph unicode="7" d="M150 1223v182h987v-109q-272 -319 -416.5 -649t-118.5 -647h-233q0 582 512 1223h-731z" />
<glyph unicode="8" d="M137 379q0 238 238 338v8q-113 69 -152 136.5t-39 160.5q0 197 123 300t322 103q200 0 322 -106.5t122 -284.5q0 -111 -45.5 -180t-144.5 -129v-8q116 -54 176.5 -132t60.5 -206q0 -188 -127.5 -293.5t-363.5 -105.5q-226 0 -359 105.5t-133 293.5zM338 393 q0 -114 82 -172.5t209 -58.5q129 0 210 60.5t81 170.5q0 109 -79.5 171.5t-211.5 62.5q-133 0 -212 -61t-79 -173zM385 1026q0 -94 67 -155.5t177 -61.5t176.5 61.5t66.5 155.5t-66.5 155.5t-176.5 61.5t-177 -61.5t-67 -155.5z" />
<glyph unicode="9" d="M129 952q0 212 134.5 342.5t348.5 130.5q213 0 349.5 -134.5t136.5 -342.5v-495q0 -128 -63.5 -237t-172.5 -172.5t-237 -63.5q-211 0 -342 127t-131 329h200q0 -128 74.5 -201t198.5 -73q113 0 192.5 80t79.5 192v221q-126 -135 -317 -135q-122 0 -226 57t-164.5 156.5 t-60.5 218.5zM330 973q0 -121 80.5 -196t201.5 -75t203 76t82 195t-81.5 194.5t-203.5 75.5q-121 0 -201.5 -74.5t-80.5 -195.5z" />
<glyph unicode=":" horiz-adv-x="489" d="M141 0v227h207v-227h-207zM141 817v230h207v-230h-207z" />
<glyph unicode=";" horiz-adv-x="489" d="M141 0v227h207v-174l-72 -307h-106l55 254h-84zM141 817v230h207v-230h-207z" />
<glyph unicode="&#x3c;" d="M90 410v219l1043 403v-184l-879 -328l879 -327v-185z" />
<glyph unicode="=" d="M113 217v170h1032v-170h-1032zM113 651v172h1032v-172h-1032z" />
<glyph unicode="&#x3e;" d="M127 8v185l877 327l-877 328v184l1042 -403v-219z" />
<glyph unicode="?" horiz-adv-x="1028" d="M53 1016q0 72 29.5 143.5t84.5 131.5t143 97t194 37q201 0 321.5 -116.5t120.5 -300.5q0 -72 -23.5 -133.5t-58.5 -102t-76.5 -80t-76.5 -69.5t-58.5 -67.5t-23.5 -76.5v-100h-205v131q0 57 33 112t80 100t93.5 90t79.5 99t33 109q0 96 -69 159.5t-172 63.5 q-112 0 -179 -63t-67 -166q0 -26 4 -76h-201q-6 24 -6 78zM420 0v227h213v-227h-213z" />
<glyph unicode="@" horiz-adv-x="1812" d="M78 549q0 219 63 388t178 275.5t271.5 160.5t349.5 54q379 0 595 -211.5t216 -584.5q0 -172 -34 -302.5t-90.5 -204t-122 -109t-136.5 -35.5q-193 0 -203 188q-126 -188 -366 -188q-172 0 -257 74.5t-85 236.5q0 126 66 198.5t217 106t417 33.5v96q0 103 -61 145.5 t-178 42.5q-111 0 -172.5 -42.5t-61.5 -120.5v-25h-188q-4 28 -4 68q0 111 125 192.5t305 81.5h18q410 0 410 -319v-543q0 -36 16 -54t41 -18q106 0 164.5 127t58.5 375q0 313 -182.5 496.5t-509.5 183.5q-354 0 -546.5 -199.5t-192.5 -570.5q0 -381 163 -563.5t506 -182.5 q97 0 200.5 24t137.5 42v-123q-54 -21 -133.5 -34.5t-127.5 -17t-77 -3.5q-389 0 -589.5 214.5t-200.5 647.5zM649 274q0 -141 215 -141q119 0 206 84.5t87 220.5v41q-131 0 -222 -8.5t-147 -23.5t-87 -41.5t-41.5 -56.5t-10.5 -75z" />
<glyph unicode="A" horiz-adv-x="1335" d="M8 0l549 1405h221l549 -1405h-217l-119 305h-672l-116 -305h-195zM391 487h531l-258 676h-13z" />
<glyph unicode="B" horiz-adv-x="1333" d="M188 0v1405h623q153 0 261 -100t108 -244q0 -124 -61.5 -208.5t-184.5 -119.5v-10q121 -20 199.5 -109t78.5 -231q0 -85 -33 -158t-87 -121.5t-124 -76t-145 -27.5h-635zM389 182h402q92 0 156.5 64.5t64.5 156.5t-64.5 157t-156.5 65h-402v-443zM389 807h381 q81 0 145 59.5t64 147.5q0 86 -61.5 147.5t-147.5 61.5h-381v-416z" />
<glyph unicode="C" horiz-adv-x="1357" d="M127 610v185q0 291 151.5 460.5t411.5 169.5h23q242 0 388 -150.5t146 -408.5h-200q0 179 -88 278t-254 99q-184 0 -280.5 -114t-96.5 -334v-185q0 -219 94 -333.5t278 -114.5q172 0 263.5 98.5t91.5 274.5h192q0 -252 -145.5 -403.5t-382.5 -151.5h-23q-265 0 -417 167 t-152 463z" />
<glyph unicode="D" horiz-adv-x="1382" d="M188 0v1405h488q266 0 423.5 -170.5t157.5 -460.5v-143q0 -290 -157.5 -460.5t-423.5 -170.5h-488zM389 182h287q183 0 282 114t99 335v143q0 218 -97 333.5t-284 115.5h-287v-1041z" />
<glyph unicode="E" horiz-adv-x="1214" d="M188 0v1405h922l-27 -182h-694v-414h629v-182h-629v-445h707l28 -182h-936z" />
<glyph unicode="F" horiz-adv-x="1126" d="M188 0v1405h885l-26 -182h-658v-428h574v-183h-574v-612h-201z" />
<glyph unicode="G" horiz-adv-x="1386" d="M127 610v185q0 295 152.5 462.5t420.5 167.5h11q242 0 387 -142t145 -372h-201q0 158 -86.5 245t-250.5 87q-184 0 -280.5 -114t-96.5 -334v-185q0 -221 95 -334.5t282 -113.5q178 0 260 88.5t82 284.5v26h-398v180h594v-479q0 -170 12 -262h-118l-41 168 q-132 -188 -389 -188h-11q-266 0 -417.5 167.5t-151.5 462.5z" />
<glyph unicode="H" horiz-adv-x="1419" d="M188 0v1405h201v-596h641v596h201v-1405h-201v627h-641v-627h-201z" />
<glyph unicode="I" horiz-adv-x="745" d="M109 0v182h163v1041h-163v182h528v-182h-164v-1041h164v-182h-528z" />
<glyph unicode="J" horiz-adv-x="1077" d="M59 383v43h201v-55q0 -92 62 -150.5t159 -58.5q95 0 156 57t61 152v1034h201v-1022q0 -185 -114.5 -294t-301.5 -109h-18q-187 0 -296.5 104t-109.5 299z" />
<glyph unicode="K" horiz-adv-x="1275" d="M188 0v1405h201v-731l610 731h232l-516 -621l532 -784h-233l-426 631l-199 -209v-422h-201z" />
<glyph unicode="L" horiz-adv-x="1097" d="M188 0v1405h201v-1223h645l29 -182h-875z" />
<glyph unicode="M" horiz-adv-x="1921" d="M188 0v1405h316l452 -1106h9l454 1106h314v-1405h-201v1169h-12l-486 -1169h-170l-483 1169h-10v-1169h-183z" />
<glyph unicode="N" horiz-adv-x="1421" d="M188 0v1405h177l598 -893l81 -129l7 2v1020h182v-1405h-170l-621 930l-65 104l-6 -2v-1032h-183z" />
<glyph unicode="O" horiz-adv-x="1413" d="M125 610v185q0 292 157 461t412 169h21q257 0 415 -169.5t158 -460.5v-185q0 -291 -157.5 -460.5t-411.5 -169.5h-21q-257 0 -415 169t-158 461zM326 610q0 -219 97 -333.5t284 -114.5q179 0 279.5 113.5t100.5 334.5v185q0 219 -96.5 333.5t-283.5 114.5 q-181 0 -281 -114t-100 -334v-185z" />
<glyph unicode="P" horiz-adv-x="1277" d="M188 0v1405h607q180 0 299.5 -115.5t119.5 -288.5v-12q0 -172 -119 -287.5t-300 -115.5h-406v-586h-201zM389 768h387q96 0 167 66t71 161t-70.5 161.5t-167.5 66.5h-387v-455z" />
<glyph unicode="Q" horiz-adv-x="1413" d="M125 610v185q0 292 157 461t412 169h21q257 0 415 -169.5t158 -460.5v-185q0 -259 -126 -423.5t-339 -198.5q39 -131 203 -131q95 0 240 57v-143q-121 -68 -244 -68q-85 0 -151.5 16t-108 41.5t-71 64t-43.5 75.5t-23 84q-227 25 -363.5 190.5t-136.5 435.5zM326 610 q0 -219 97 -333.5t284 -114.5q179 0 279.5 113.5t100.5 334.5v185q0 219 -96.5 333.5t-283.5 114.5q-181 0 -281 -114t-100 -334v-185z" />
<glyph unicode="R" horiz-adv-x="1372" d="M188 0v1405h598q185 0 305.5 -90t120.5 -244q0 -75 -21 -138.5t-57.5 -108.5t-79 -76t-93.5 -52v-10q97 -38 161 -130.5t64 -207.5q0 -112 13.5 -172.5t33 -80t57.5 -32.5v-57q-46 -18 -96 -18q-47 0 -81.5 11t-65 40t-46.5 86t-16 141q0 147 -69.5 235.5t-170.5 88.5 h-356v-590h-201zM389 772h399q93 0 158.5 74.5t65.5 177.5q0 90 -57 144.5t-158 54.5h-408v-451z" />
<glyph unicode="S" horiz-adv-x="1284" d="M106 399q0 14 3 41h200q-2 -18 -2 -43q0 -118 88.5 -176.5t247.5 -58.5q154 0 243 56.5t89 154.5q0 57 -28.5 100t-77 70t-111 48t-132 38.5t-139 37t-132 48.5t-111 68t-77 101t-28.5 142q0 104 38 182t107 125t158.5 69.5t200.5 22.5q230 0 363 -102.5t133 -290.5v-24 h-201v30q0 97 -80 151t-211 54q-144 0 -225.5 -48t-81.5 -138q0 -51 28.5 -89.5t77 -63t111 -44t132 -37t139 -37.5t132 -50.5t111 -70.5t77 -102.5t28.5 -142.5q0 -228 -140.5 -334t-394.5 -106t-394.5 106.5t-140.5 312.5z" />
<glyph unicode="T" horiz-adv-x="1183" d="M51 1223v182h1082v-182h-441v-1223h-200v1223h-441z" />
<glyph unicode="U" horiz-adv-x="1392" d="M176 449v956h201v-952q0 -131 91 -211t232 -80q145 0 230.5 80.5t85.5 210.5v952h201v-956q0 -212 -139 -340.5t-369 -128.5h-27q-228 0 -367 127.5t-139 341.5z" />
<glyph unicode="V" horiz-adv-x="1234" d="M10 1405h215l396 -1133h12l397 1133h195l-500 -1405h-215z" />
<glyph unicode="W" horiz-adv-x="1875" d="M29 1405h215l297 -1059h12l299 1059h195l296 -1059h13l299 1059h194l-411 -1405h-205l-287 1016h-14l-297 -1016h-205z" />
<glyph unicode="X" horiz-adv-x="1292" d="M18 0l512 727l-464 676h241l340 -500h8l349 500h223l-465 -664l510 -739h-242l-385 563h-8l-395 -563h-224z" />
<glyph unicode="Y" horiz-adv-x="1171" d="M-10 1405h229l375 -653h8l371 653h207l-494 -862v-543h-201v543z" />
<glyph unicode="Z" horiz-adv-x="1220" d="M66 0v78l747 1145h-698v182h1005v-78l-749 -1145h766v-182h-1071z" />
<glyph unicode="[" horiz-adv-x="600" d="M174 -330v1735h346v-113h-180v-1509h180v-113h-346z" />
<glyph unicode="\" horiz-adv-x="1228" d="M31 1405h164l1003 -1755h-166z" />
<glyph unicode="]" horiz-adv-x="600" d="M80 -217h180v1509h-180v113h346v-1735h-346v113z" />
<glyph unicode="^" horiz-adv-x="1220" d="M100 0l404 1047h211l403 -1047h-172l-336 862l-338 -862h-172z" />
<glyph unicode="_" horiz-adv-x="1421" d="M199 -131h1024v-123h-1024v123z" />
<glyph unicode="`" horiz-adv-x="681" d="M139 1468l2 7h183l194 -297h-143z" />
<glyph unicode="a" horiz-adv-x="1198" d="M98 291q0 126 66.5 198.5t217.5 106t417 33.5v96q0 103 -61.5 145.5t-178.5 42.5q-111 0 -172 -42.5t-61 -120.5v-25h-189q-4 28 -4 68q0 111 125 192.5t305 81.5h19q409 0 409 -319v-543q0 -36 16.5 -54t41.5 -18q44 0 94 29v-142q-67 -40 -158 -40q-168 0 -178 188 q-126 -188 -367 -188q-172 0 -257 74.5t-85 236.5zM291 274q0 -141 215 -141q119 0 206 84.5t87 220.5v41q-131 0 -222 -8.5t-147 -23.5t-87 -41.5t-41.5 -56.5t-10.5 -75z" />
<glyph unicode="b" horiz-adv-x="1193" d="M170 0v1475h192v-562q47 67 128.5 110.5t175.5 43.5q200 0 310.5 -140.5t110.5 -379.5v-23q0 -254 -113 -399t-310 -145q-234 0 -353 186l-67 -166h-74zM360 518q0 -197 66.5 -291t200.5 -94q268 0 268 385v19q0 188 -68.5 282t-199.5 94q-135 0 -201 -95t-66 -290v-10z " />
<glyph unicode="c" horiz-adv-x="1114" d="M104 498v49q0 234 126.5 377t332.5 143h17q191 0 312.5 -119.5t121.5 -312.5h-191q0 127 -64.5 202.5t-185.5 75.5q-127 0 -201.5 -84.5t-74.5 -232.5v-111q0 -178 74 -265t209 -87q124 0 186.5 75t62.5 202h185q0 -197 -118 -313.5t-314 -116.5h-17q-211 0 -336 141.5 t-125 376.5z" />
<glyph unicode="d" horiz-adv-x="1193" d="M106 524v23q0 239 112 379.5t312 140.5q192 0 301 -154v562h193v-1475h-143l-27 143q-117 -163 -324 -163q-197 0 -310.5 145t-113.5 399zM299 520q0 -198 66 -292.5t200 -94.5q269 0 269 387v10q0 383 -269 383q-266 0 -266 -381v-12z" />
<glyph unicode="e" horiz-adv-x="1138" d="M104 502v41q0 236 127.5 380t343.5 144h15q195 0 316.5 -120.5t121.5 -321.5v-146h-731q5 -167 78.5 -256.5t218.5 -89.5q67 0 117.5 22.5t79 60t42 81t13.5 92.5h182q0 -184 -122 -296.5t-316 -112.5h-8q-221 0 -349.5 142t-128.5 380zM301 629h537q0 139 -69 211.5 t-189 72.5q-117 0 -189.5 -72t-89.5 -212z" />
<glyph unicode="f" horiz-adv-x="692" d="M96 893v154h115v141q0 303 244 303q118 0 192 -39v-141q-62 26 -104 26q-82 0 -111 -29.5t-29 -99.5v-161h244v-154h-244v-893h-192v893h-115z" />
<glyph unicode="g" horiz-adv-x="1163" d="M74 -139q0 85 41.5 149t111.5 94q-94 58 -94 170q0 73 43.5 126.5t120.5 80.5q-137 76 -137 256q0 152 112 241t310 89q125 0 217 -35q145 71 166 203h163q0 -103 -55 -174.5t-153 -91.5l-5 -6q103 -89 103 -226q0 -148 -110.5 -237.5t-301.5 -89.5h-139 q-62 0 -102.5 -32t-40.5 -81t38.5 -78t104.5 -29h395q121 0 193.5 -75t72.5 -193q0 -140 -105.5 -223.5t-283.5 -83.5h-411q-104 0 -179 77.5t-75 168.5zM264 -113q0 -49 34.5 -83.5t84.5 -34.5h395q65 0 112.5 37.5t47.5 87.5q0 51 -34.5 81.5t-98.5 30.5h-422 q-49 0 -84 -35t-35 -84zM350 737q0 -91 65 -132.5t173 -41.5q109 0 174 41.5t65 132.5t-65.5 133.5t-173.5 42.5t-173 -42.5t-65 -133.5z" />
<glyph unicode="h" horiz-adv-x="1214" d="M170 0v1475h192v-560q131 152 324 152q172 0 270.5 -92.5t98.5 -269.5v-705h-193v670q0 243 -221 243q-112 0 -195.5 -85t-83.5 -205v-623h-192z" />
<glyph unicode="i" horiz-adv-x="532" d="M166 1296v179h201v-179h-201zM170 0v1047h192v-1047h-192z" />
<glyph unicode="j" horiz-adv-x="532" d="M-70 -199q67 -30 107 -30q75 0 104 31.5t29 107.5v1137h192v-1078q0 -186 -58 -268t-198 -82q-108 0 -176 39v143zM166 1296v179h201v-179h-201z" />
<glyph unicode="k" horiz-adv-x="1095" d="M170 0v1475h192v-1012l467 584h211l-403 -508l430 -539h-233l-314 389l-158 -164v-225h-192z" />
<glyph unicode="l" horiz-adv-x="548" d="M178 0v1475h193v-1475h-193z" />
<glyph unicode="m" horiz-adv-x="1775" d="M170 0v1047h139l27 -154q119 174 330 174q207 0 286 -174q123 174 322 174q161 0 251.5 -94.5t90.5 -267.5v-705h-193v670q0 243 -188 243q-101 0 -173.5 -84t-72.5 -206v-623h-192v670q0 243 -189 243q-101 0 -173.5 -84t-72.5 -206v-623h-192z" />
<glyph unicode="n" horiz-adv-x="1214" d="M170 0v1047h139l27 -154q131 174 350 174q172 0 270.5 -92.5t98.5 -269.5v-705h-193v670q0 243 -221 243q-112 0 -195.5 -85t-83.5 -205v-623h-192z" />
<glyph unicode="o" horiz-adv-x="1175" d="M106 485v76q0 236 129 371t347 135h10q219 0 348 -135.5t129 -370.5v-76q0 -233 -129 -369t-346 -136h-10q-219 0 -348.5 135.5t-129.5 369.5zM299 504q0 -178 75 -274.5t214 -96.5q136 0 212.5 95t76.5 276v39q0 177 -75 273.5t-214 96.5q-137 0 -213 -94t-76 -276v-39z " />
<glyph unicode="p" horiz-adv-x="1193" d="M170 -371v1418h143l27 -144q117 164 324 164q198 0 310.5 -145t112.5 -400v-22q0 -240 -111.5 -380t-311.5 -140q-194 0 -302 153v-504h-192zM360 518q0 -197 66.5 -291t200.5 -94q268 0 268 385v19q0 188 -68.5 282t-199.5 94q-135 0 -201 -95t-66 -290v-10z" />
<glyph unicode="q" horiz-adv-x="1193" d="M106 500v22q0 255 112.5 400t311.5 145q234 0 353 -186l67 166h74v-1416h-193v502q-47 -66 -128 -109.5t-175 -43.5q-200 0 -311 141t-111 379zM299 520q0 -198 66 -292.5t200 -94.5q269 0 269 387v10q0 383 -269 383q-266 0 -266 -381v-12z" />
<glyph unicode="r" horiz-adv-x="1003" d="M170 0v1047h137l29 -156q37 73 114.5 124.5t190.5 51.5q146 0 227.5 -93t81.5 -235q0 -37 -6 -77h-170v45q0 206 -192 206q-105 0 -162.5 -77t-57.5 -211v-625h-192z" />
<glyph unicode="s" horiz-adv-x="1093" d="M96 328h191q-2 -10 -2 -21q0 -174 293 -174q85 0 154 39.5t69 106.5q0 43 -23 73.5t-62.5 47.5t-90.5 29.5t-107 22.5t-112 22t-107 33t-90.5 51t-62.5 80.5t-23 117.5q0 146 114.5 228.5t313.5 82.5h18q177 0 288.5 -81t111.5 -204q0 -21 -2 -37h-191v19q0 149 -231 149 q-230 0 -230 -137q0 -44 37.5 -73.5t97 -46t132 -30t145 -34t132 -51.5t97 -88.5t37.5 -137.5q0 -168 -114 -251.5t-330 -83.5h-31q-194 0 -310 86q-114 84 -114 213q0 31 2 49z" />
<glyph unicode="t" horiz-adv-x="708" d="M88 893v154h121l65 333h121v-333h244v-154h-244v-625q0 -74 28.5 -106.5t88.5 -32.5q51 0 127 31v-144q-71 -36 -190 -36q-122 0 -184 71.5t-62 227.5v614h-115z" />
<glyph unicode="u" horiz-adv-x="1265" d="M160 342v705h192v-670q0 -244 221 -244q111 0 195 85t84 206v623h192v-842q0 -36 16.5 -54t41.5 -18q42 0 92 29v-142q-61 -40 -129 -40q-111 0 -155.5 45.5t-47.5 126.5q-56 -81 -143 -126.5t-199 -45.5q-159 0 -259.5 93t-100.5 269z" />
<glyph unicode="v" horiz-adv-x="1048" d="M25 1047h204l299 -801h9l299 801h188l-397 -1047h-205z" />
<glyph unicode="w" horiz-adv-x="1660" d="M41 1047h199l243 -766h9l247 766h189l243 -766h9l247 766h189l-342 -1047h-201l-242 731h-8l-237 -731h-201z" />
<glyph unicode="x" horiz-adv-x="1062" d="M37 0l385 530l-365 517h230l248 -355h8l254 355h211l-367 -504l385 -543h-229l-269 381h-8l-272 -381h-211z" />
<glyph unicode="y" horiz-adv-x="1048" d="M25 1047h204l301 -773h9l297 773h188l-391 -1006q-70 -173 -131.5 -265.5t-120 -124.5t-141.5 -32q-75 0 -144 29v157q67 -28 103 -28q85 0 140.5 56.5t92.5 176.5z" />
<glyph unicode="z" horiz-adv-x="948" d="M74 0v78l510 815h-480v154h746v-76l-512 -817h528v-154h-792z" />
<glyph unicode="{" horiz-adv-x="645" d="M82 459v162q71 0 114.5 30t43.5 86v381q0 155 78.5 221t244.5 66v-102q-86 0 -122.5 -41.5t-39.5 -114.5l-14 -387q-3 -106 -44.5 -158.5t-137.5 -52.5v-19q96 0 136.5 -52t45.5 -159l14 -368q2 -58 15 -94.5t37.5 -53t48.5 -21.5t61 -5v-103q-170 0 -246.5 68t-76.5 219 v381q0 52 -43 84.5t-115 32.5z" />
<glyph unicode="|" horiz-adv-x="507" d="M172 -408v1885h164v-1885h-164z" />
<glyph unicode="}" horiz-adv-x="645" d="M82 -223q86 0 122.5 41t39.5 116l14 385q3 106 44.5 158.5t137.5 52.5v19q-96 0 -136.5 52t-45.5 159l-14 370q-2 57 -15.5 94t-38 53t-48.5 21t-60 5v102q170 0 247 -68t77 -219v-381q0 -55 40.5 -85.5t116.5 -30.5v-162q-70 0 -113.5 -30t-43.5 -87v-381 q0 -155 -79.5 -221t-244.5 -66v103z" />
<glyph unicode="~" horiz-adv-x="1411" d="M131 432v174q70 74 162.5 117t171.5 43q58 0 124 -21t116.5 -46.5t119 -46.5t129.5 -21q84 0 176.5 43.5t155.5 116.5v-175q-60 -66 -150 -112.5t-180 -46.5q-61 0 -128 21t-117 46.5t-118 46.5t-130 21q-79 0 -171 -42.5t-161 -117.5z" />
<glyph unicode="&#xa1;" horiz-adv-x="520" d="M139 -358l27 1048h184l25 -1048h-236zM154 819v228h206v-228h-206z" />
<glyph unicode="&#xa2;" horiz-adv-x="1079" d="M98 678v49q0 223 113 364.5t303 153.5l-20 174h149l-22 -174q174 -18 280.5 -130t106.5 -300h-191q0 128 -65 203.5t-185 75.5q-127 0 -201.5 -85t-74.5 -233v-110q0 -178 74 -265.5t208 -87.5q124 0 187 75t63 202h185q0 -184 -106 -300t-281 -128l22 -176h-149l20 176 q-189 12 -302.5 151t-113.5 365z" />
<glyph unicode="&#xa3;" horiz-adv-x="1222" d="M100 600v182h217v240q0 185 114.5 294t301.5 109q208 0 316 -105t108 -298v-18h-201v30q0 92 -62.5 150.5t-156.5 58.5q-98 0 -158.5 -56.5t-60.5 -152.5v-252h383v-182h-383l-35 -418h621v-182h-971v182h184v418h-217z" />
<glyph unicode="&#xa4;" horiz-adv-x="1277" d="M127 272l109 109q-105 138 -105 307q0 165 102 309l-104 107l98 98l105 -106q144 102 309 102q169 0 307 -106l111 110l98 -98l-110 -111q100 -135 100 -303q0 -169 -105 -307l113 -111l-98 -98l-113 111q-139 -103 -305 -103q-168 0 -305 101l-109 -109zM272 690 q0 -152 107.5 -259t259.5 -107q151 0 259 107.5t108 258.5q0 149 -109 258t-258 109q-151 0 -259 -108t-108 -259z" />
<glyph unicode="&#xa5;" horiz-adv-x="1298" d="M53 1405h230l374 -653h9l370 653h207l-289 -504h228v-131h-303l-84 -149h387v-132h-432v-489h-201v489h-428v132h383l-86 149h-297v131h221z" />
<glyph unicode="&#xa6;" horiz-adv-x="507" d="M172 328h164v-740h-164v740zM172 737v740h164v-740h-164z" />
<glyph unicode="&#xa7;" horiz-adv-x="1052" d="M78 537q0 203 174 307q-72 52 -111 115.5t-39 154.5q0 146 114.5 228.5t313.5 82.5h19q177 0 288 -80.5t111 -203.5q0 -29 -2 -37h-190v18q0 150 -232 150q-229 0 -229 -137q0 -50 29 -92t77 -71.5t108.5 -60t124.5 -56t124.5 -60.5t108.5 -72.5t77 -93t29 -121.5 q0 -199 -176 -307q151 -109 151 -262q0 -152 -114 -236t-314 -84h-18q-177 0 -288.5 81t-111.5 204q0 25 2 37h191v-19q0 -149 231 -149q113 0 171.5 35.5t58.5 101.5q0 56 -37.5 102.5t-97 79.5t-132 64.5t-145 66.5t-132 76t-97 102t-37.5 136zM268 592q0 -36 11.5 -67 t35.5 -56.5t49.5 -45.5t66.5 -41.5t72 -35.5t81 -36t80 -36q118 78 118 181q0 33 -10 61t-34.5 53.5t-47 44t-65.5 41.5t-71 36.5t-83.5 38.5t-83.5 38q-119 -72 -119 -176z" />
<glyph unicode="&#xa8;" horiz-adv-x="817" d="M123 1296v201h184v-201h-184zM508 1296v201h186v-201h-186z" />
<glyph unicode="&#xa9;" horiz-adv-x="1597" d="M74 705q0 147 57 280.5t154 229.5t231.5 153t282.5 57q196 0 363 -96t264.5 -262t97.5 -362q0 -198 -97.5 -365t-264 -263.5t-363.5 -96.5q-149 0 -283 57t-231 154t-154 231t-57 283zM156 705q0 -180 82.5 -327.5t230.5 -232t330 -84.5q177 0 324 83.5t232 231t85 326.5 q0 183 -88 330.5t-234.5 228t-318.5 80.5q-182 0 -330 -85t-230.5 -230.5t-82.5 -320.5zM453 614v177q0 159 94.5 253.5t251.5 94.5q167 0 255.5 -88.5t88.5 -255.5h-137q0 112 -54 169.5t-147 57.5q-96 0 -155.5 -51.5t-59.5 -149.5v-235q0 -95 59.5 -149t157.5 -54 q91 0 147 58.5t56 164.5h133q0 -161 -90.5 -251.5t-251.5 -90.5q-159 0 -253.5 94.5t-94.5 255.5z" />
<glyph unicode="&#xaa;" horiz-adv-x="849" d="M113 946q0 121 94 167t332 46v58q0 114 -146 114q-66 0 -104.5 -25.5t-38.5 -72.5v-16h-113q-4 20 -4 28q0 81 73 130.5t189 49.5h11q249 0 249 -194v-330q0 -22 11 -32.5t26 -10.5q13 0 56 16v-86q-50 -24 -95 -24q-101 0 -110 115q-77 -115 -221 -115q-209 0 -209 182z M229 952q0 -52 31.5 -73t101.5 -21t123.5 50t53.5 134v27q-159 0 -234.5 -24.5t-75.5 -92.5z" />
<glyph unicode="&#xab;" horiz-adv-x="942" d="M100 690l250 357h105l-193 -357l193 -356h-105zM473 690l252 357h102l-190 -357l190 -356h-102z" />
<glyph unicode="&#xac;" horiz-adv-x="1263" d="M76 737v191h1063v-572h-172v381h-891z" />
<glyph unicode="&#xad;" horiz-adv-x="800" d="M141 453v200h518v-200h-518z" />
<glyph unicode="&#xae;" horiz-adv-x="1597" d="M74 705q0 147 57 280.5t154 229.5t231.5 153t282.5 57q196 0 363 -96t264.5 -262t97.5 -362q0 -198 -97.5 -365t-264 -263.5t-363.5 -96.5q-149 0 -283 57t-231 154t-154 231t-57 283zM156 705q0 -180 82.5 -327.5t230.5 -232t330 -84.5q177 0 324 82.5t233 230.5t86 331 q0 139 -51.5 259t-139 202.5t-205 129.5t-247.5 47q-182 0 -330 -84.5t-230.5 -230.5t-82.5 -323zM504 276v844h383q91 0 162 -59.5t71 -140.5q0 -77 -39.5 -132t-97.5 -77q35 -15 58.5 -39.5t35.5 -59.5t16.5 -62.5t8.5 -70.5q3 -32 5 -44.5t7 -37.5t11 -36.5t17.5 -24 t26.5 -17.5v-36q-33 -13 -61 -13q-69 0 -101 37.5t-32 112.5q0 127 -39 180t-98 53h-203v-377h-131zM635 764h227q56 0 92.5 36t36.5 91q0 49 -37.5 83t-91.5 34h-227v-244z" />
<glyph unicode="&#xaf;" horiz-adv-x="897" d="M123 1356v151h651v-151h-651z" />
<glyph unicode="&#xb0;" horiz-adv-x="806" d="M96 1118q0 122 89 214.5t218 92.5q123 0 215.5 -92t92.5 -215q0 -126 -92.5 -216.5t-215.5 -90.5t-215 90.5t-92 216.5zM211 1116q0 -78 56.5 -131t135.5 -53q77 0 134 54t57 130q0 75 -57 129.5t-136 54.5q-77 0 -133.5 -53t-56.5 -131z" />
<glyph unicode="&#xb1;" d="M104 573v172h439v302h170v-302h440v-172h-440v-299h-170v299h-439zM113 0v170h1030v-170h-1030z" />
<glyph unicode="&#xb2;" horiz-adv-x="786" d="M125 854v27q0 124 104 200l226 168q88 64 88 160q0 56 -39 92.5t-113 36.5q-41 0 -73 -15t-49 -38.5t-25 -48t-8 -47.5v-29h-109q-2 6 -2 22q0 115 76 185.5t198 70.5q112 0 183 -64t71 -153q0 -79 -28 -133t-111 -117l-215 -163q-53 -41 -53 -54h409v-100h-530z" />
<glyph unicode="&#xb3;" horiz-adv-x="743" d="M86 1073v8h111v-12q0 -125 159 -125q81 0 125.5 33t44.5 100q0 63 -49.5 92t-124.5 29h-84v100h86q67 0 110.5 32.5t43.5 92.5q0 58 -41.5 86.5t-106.5 28.5q-64 0 -104.5 -30.5t-40.5 -88.5v-10h-111v21q0 95 71 151.5t183 56.5q121 0 190.5 -57.5t69.5 -150.5 q0 -117 -122 -175q141 -53 141 -192q0 -100 -78.5 -159.5t-204.5 -59.5q-127 0 -197.5 61.5t-70.5 167.5z" />
<glyph unicode="&#xb4;" horiz-adv-x="657" d="M139 1178l193 297h184l2 -7l-237 -290h-142z" />
<glyph unicode="&#xb5;" horiz-adv-x="1253" d="M168 -330v1377h192v-670q0 -244 222 -244q111 0 194.5 85t83.5 206v623h193v-842q0 -36 16 -54t41 -18q42 0 92 29v-142q-61 -40 -129 -40q-111 0 -155.5 45.5t-47.5 126.5q-53 -77 -140.5 -124.5t-188.5 -47.5q-113 0 -193 51q12 -66 12 -97v-264h-192z" />
<glyph unicode="&#xb6;" horiz-adv-x="1073" d="M51 956q0 185 130 317t317 132h487v-125h-135v-1626h-129v1626h-148v-1626h-129v858q-169 22 -281 147t-112 297z" />
<glyph unicode="&#xb7;" horiz-adv-x="489" d="M141 475v230h207v-230h-207z" />
<glyph unicode="&#xb8;" horiz-adv-x="716" d="M143 -379l19 100q81 -40 149 -40q135 0 135 92q0 40 -30.5 62t-75.5 22h-43v88h49q227 0 227 -183q0 -85 -65 -135.5t-150 -50.5q-135 0 -215 45z" />
<glyph unicode="&#xb9;" horiz-adv-x="684" d="M102 864v101h203v518h-203v71q117 9 271 76h43v-665h166v-101h-480z" />
<glyph unicode="&#xba;" horiz-adv-x="802" d="M109 1071v47q0 144 77.5 225.5t214.5 81.5t215 -81.5t78 -225.5v-47q0 -146 -79.5 -226.5t-213.5 -80.5t-213 80.5t-79 226.5zM225 1083q0 -115 49 -170t127 -55t127.5 55t49.5 170v23q0 115 -49.5 170t-127.5 55t-127 -55t-49 -170v-23z" />
<glyph unicode="&#xbb;" horiz-adv-x="942" d="M115 334l192 356l-192 357h104l252 -357l-252 -356h-104zM489 334l191 356l-191 357h103l250 -357l-250 -356h-103z" />
<glyph unicode="&#xbc;" horiz-adv-x="1755" d="M102 639v100h203v518h-203v72q117 9 271 76h43v-666h166v-100h-480zM356 0l861 1405h114l-854 -1405h-121zM1090 176v103q152 232 235 477h113q-36 -141 -116.5 -284t-129.5 -196h252v216q40 81 59 151h51v-367h95v-100h-95v-186h-110v186h-354z" />
<glyph unicode="&#xbd;" horiz-adv-x="1789" d="M102 639v100h203v518h-203v72q117 9 271 76h43v-666h166v-100h-480zM356 0l861 1405h114l-854 -1405h-121zM1128 0v27q0 123 105 200l225 168q88 64 88 160q0 56 -38.5 92.5t-112.5 36.5q-41 0 -73 -15t-49 -38.5t-25.5 -48t-8.5 -47.5v-29h-109q-2 6 -2 22 q0 115 76.5 185.5t198.5 70.5q112 0 183 -64t71 -153q0 -79 -28 -133t-111 -117l-215 -163q-54 -42 -54 -54h410v-100h-531z" />
<glyph unicode="&#xbe;" horiz-adv-x="1814" d="M86 858v8h111v-12q0 -125 159 -125q81 0 125.5 33t44.5 100q0 63 -49.5 92t-124.5 29h-84v100h86q67 0 110.5 32.5t43.5 92.5q0 58 -41.5 86.5t-106.5 28.5q-64 0 -104.5 -30.5t-40.5 -88.5v-10h-111v20q0 95 71 152t183 57q121 0 190.5 -58t69.5 -151q0 -116 -122 -174 q141 -52 141 -192q0 -100 -78.5 -159.5t-204.5 -59.5q-127 0 -197.5 61.5t-70.5 167.5zM416 0l860 1405h115l-854 -1405h-121zM1149 176v103q152 232 235 477h113q-36 -141 -116.5 -284t-129.5 -196h252v216q42 86 60 151h51v-367h94v-100h-94v-186h-111v186h-354z" />
<glyph unicode="&#xbf;" horiz-adv-x="1013" d="M72 39q0 72 23.5 133.5t58.5 102t76.5 80t76.5 69t58.5 67t23.5 76.5v101h205v-131q0 -57 -33 -112t-80 -100l-94 -90t-80 -99t-33 -109q0 -96 69.5 -160t172.5 -64q112 0 179 63.5t67 166.5q0 26 -4 76h200q7 -28 7 -78q0 -72 -29.5 -143.5t-84.5 -131.5t-143 -97.5 t-194 -37.5q-201 0 -321.5 117t-120.5 301zM385 819v228h213v-228h-213z" />
<glyph unicode="&#xc0;" horiz-adv-x="1335" d="M8 0l549 1405h221l549 -1405h-217l-119 305h-672l-116 -305h-195zM356 1827l2 6h185l192 -297h-141zM391 487h531l-258 676h-13z" />
<glyph unicode="&#xc1;" horiz-adv-x="1335" d="M8 0l549 1405h221l549 -1405h-217l-119 305h-672l-116 -305h-195zM391 487h531l-258 676h-13zM596 1536l192 297h185l2 -6l-238 -291h-141z" />
<glyph unicode="&#xc2;" horiz-adv-x="1335" d="M8 0l549 1405h221l549 -1405h-217l-119 305h-672l-116 -305h-195zM293 1556l276 256h160l279 -256h-164l-195 142l-192 -142h-164zM391 487h531l-258 676h-13z" />
<glyph unicode="&#xc3;" horiz-adv-x="1335" d="M8 0l549 1405h221l549 -1405h-217l-119 305h-672l-116 -305h-195zM262 1536q0 85 61 149t166 64q61 0 183 -36t166 -36q91 0 112 72h103q0 -92 -64 -152.5t-166 -60.5q-76 0 -181 35t-165 35q-91 0 -112 -70h-103zM391 487h531l-258 676h-13z" />
<glyph unicode="&#xc4;" horiz-adv-x="1335" d="M8 0l549 1405h221l549 -1405h-217l-119 305h-672l-116 -305h-195zM373 1585v201h184v-201h-184zM391 487h531l-258 676h-13zM758 1585v201h186v-201h-186z" />
<glyph unicode="&#xc5;" horiz-adv-x="1335" d="M8 0l549 1405h221l549 -1405h-217l-119 305h-672l-116 -305h-195zM391 487h531l-258 676h-13zM451 1690q0 86 60 146t146 60q80 0 143.5 -60t63.5 -146q0 -85 -60.5 -145t-146.5 -60q-83 0 -144.5 59.5t-61.5 145.5zM543 1690q0 -47 33 -78t81 -31t81.5 32t33.5 79 q0 44 -34 76t-81 32q-48 0 -81 -31.5t-33 -78.5z" />
<glyph unicode="&#xc6;" horiz-adv-x="2013" d="M14 0l746 1405h1149l-27 -182h-856l102 -414h689v-182h-643l110 -445h610l29 -182h-809l-76 305h-671l-160 -305h-193zM465 487h530l-164 676h-12z" />
<glyph unicode="&#xc7;" horiz-adv-x="1357" d="M127 610v185q0 291 151.5 460.5t411.5 169.5h23q242 0 388 -150.5t146 -408.5h-200q0 179 -88 278t-254 99q-184 0 -280.5 -114t-96.5 -334v-185q0 -219 94 -333.5t278 -114.5q172 0 263.5 98.5t91.5 274.5h192q0 -252 -145.5 -403.5t-382.5 -151.5h-23q-265 0 -417 167 t-152 463zM494 -379l18 100q81 -40 150 -40q135 0 135 92q0 40 -31 62t-76 22h-43v88h49q228 0 228 -183q0 -85 -65 -135.5t-150 -50.5q-135 0 -215 45z" />
<glyph unicode="&#xc8;" horiz-adv-x="1214" d="M188 0v1405h922l-27 -182h-694v-414h629v-182h-629v-445h707l28 -182h-936zM342 1827l2 6h184l193 -297h-141z" />
<glyph unicode="&#xc9;" horiz-adv-x="1214" d="M188 0v1405h922l-27 -182h-694v-414h629v-182h-629v-445h707l28 -182h-936zM582 1536l192 297h184l3 -6l-238 -291h-141z" />
<glyph unicode="&#xca;" horiz-adv-x="1214" d="M188 0v1405h922l-27 -182h-694v-414h629v-182h-629v-445h707l28 -182h-936zM279 1556l276 256h160l278 -256h-164l-194 142l-193 -142h-163z" />
<glyph unicode="&#xcb;" horiz-adv-x="1214" d="M188 0v1405h922l-27 -182h-694v-414h629v-182h-629v-445h707l28 -182h-936zM358 1585v201h185v-201h-185zM743 1585v201h187v-201h-187z" />
<glyph unicode="&#xcc;" horiz-adv-x="745" d="M72 1827l2 6h184l193 -297h-142zM109 0v182h163v1041h-163v182h528v-182h-164v-1041h164v-182h-528z" />
<glyph unicode="&#xcd;" horiz-adv-x="745" d="M109 0v182h163v1041h-163v182h528v-182h-164v-1041h164v-182h-528zM311 1536l193 297h184l2 -6l-237 -291h-142z" />
<glyph unicode="&#xce;" horiz-adv-x="745" d="M8 1556l277 256h159l279 -256h-164l-194 142l-193 -142h-164zM109 0v182h163v1041h-163v182h528v-182h-164v-1041h164v-182h-528z" />
<glyph unicode="&#xcf;" horiz-adv-x="745" d="M88 1585v201h184v-201h-184zM109 0v182h163v1041h-163v182h528v-182h-164v-1041h164v-182h-528zM473 1585v201h186v-201h-186z" />
<glyph unicode="&#xd0;" horiz-adv-x="1382" d="M72 623v180h116v602h488q266 0 423.5 -170.5t157.5 -460.5v-143q0 -290 -157.5 -460.5t-423.5 -170.5h-488v623h-116zM389 182h287q183 0 282 114t99 335v143q0 218 -97 333.5t-284 115.5h-287v-420h297v-180h-297v-441z" />
<glyph unicode="&#xd1;" horiz-adv-x="1421" d="M188 0v1405h177l598 -893l81 -129l7 2v1020h182v-1405h-170l-621 930l-65 104l-6 -2v-1032h-183zM326 1536q0 85 61 149t166 64q61 0 182.5 -36t165.5 -36q92 0 113 72h102q0 -92 -63.5 -152.5t-165.5 -60.5q-76 0 -181 35t-165 35q-92 0 -113 -70h-102z" />
<glyph unicode="&#xd2;" horiz-adv-x="1413" d="M125 610v185q0 292 157 461t412 169h21q257 0 415 -169.5t158 -460.5v-185q0 -291 -157.5 -460.5t-411.5 -169.5h-21q-257 0 -415 169t-158 461zM326 610q0 -219 97 -333.5t284 -114.5q179 0 279.5 113.5t100.5 334.5v185q0 219 -96.5 333.5t-283.5 114.5 q-181 0 -281 -114t-100 -334v-185zM406 1827l2 6h184l192 -297h-141z" />
<glyph unicode="&#xd3;" horiz-adv-x="1413" d="M125 610v185q0 292 157 461t412 169h21q257 0 415 -169.5t158 -460.5v-185q0 -291 -157.5 -460.5t-411.5 -169.5h-21q-257 0 -415 169t-158 461zM326 610q0 -219 97 -333.5t284 -114.5q179 0 279.5 113.5t100.5 334.5v185q0 219 -96.5 333.5t-283.5 114.5 q-181 0 -281 -114t-100 -334v-185zM645 1536l193 297h184l2 -6l-238 -291h-141z" />
<glyph unicode="&#xd4;" horiz-adv-x="1413" d="M125 610v185q0 292 157 461t412 169h21q257 0 415 -169.5t158 -460.5v-185q0 -291 -157.5 -460.5t-411.5 -169.5h-21q-257 0 -415 169t-158 461zM326 610q0 -219 97 -333.5t284 -114.5q179 0 279.5 113.5t100.5 334.5v185q0 219 -96.5 333.5t-283.5 114.5 q-181 0 -281 -114t-100 -334v-185zM342 1556l276 256h160l279 -256h-164l-195 142l-192 -142h-164z" />
<glyph unicode="&#xd5;" horiz-adv-x="1413" d="M125 610v185q0 292 157 461t412 169h21q257 0 415 -169.5t158 -460.5v-185q0 -291 -157.5 -460.5t-411.5 -169.5h-21q-257 0 -415 169t-158 461zM311 1536q0 85 61.5 149t166.5 64q61 0 182.5 -36t165.5 -36q91 0 112 72h103q0 -92 -64 -152.5t-166 -60.5q-76 0 -181 35 t-165 35q-91 0 -112 -70h-103zM326 610q0 -219 97 -333.5t284 -114.5q179 0 279.5 113.5t100.5 334.5v185q0 219 -96.5 333.5t-283.5 114.5q-181 0 -281 -114t-100 -334v-185z" />
<glyph unicode="&#xd6;" horiz-adv-x="1413" d="M125 610v185q0 292 157 461t412 169h21q257 0 415 -169.5t158 -460.5v-185q0 -291 -157.5 -460.5t-411.5 -169.5h-21q-257 0 -415 169t-158 461zM326 610q0 -219 97 -333.5t284 -114.5q179 0 279.5 113.5t100.5 334.5v185q0 219 -96.5 333.5t-283.5 114.5 q-181 0 -281 -114t-100 -334v-185zM422 1585v201h184v-201h-184zM807 1585v201h186v-201h-186z" />
<glyph unicode="&#xd7;" d="M203 213l313 309l-313 312l112 120l316 -311l313 311l113 -120l-314 -312l314 -309l-113 -121l-313 307l-316 -307z" />
<glyph unicode="&#xd8;" horiz-adv-x="1413" d="M125 610v185q0 292 157 461t412 169h21q177 0 315 -86l109 181h131l-152 -252q170 -175 170 -473v-185q0 -291 -157.5 -460.5t-411.5 -169.5h-21q-173 0 -303 77l-129 -215h-131l170 285q-180 174 -180 483zM326 610q0 -203 82 -313l528 883q-91 63 -229 63 q-181 0 -281 -114t-100 -334v-185zM492 217q85 -55 215 -55q179 0 279.5 113.5t100.5 334.5v185q0 187 -71 299z" />
<glyph unicode="&#xd9;" horiz-adv-x="1392" d="M176 449v956h201v-952q0 -131 91 -211t232 -80q145 0 230.5 80.5t85.5 210.5v952h201v-956q0 -212 -139 -340.5t-369 -128.5h-27q-228 0 -367 127.5t-139 341.5zM403 1827l3 6h184l192 -297h-141z" />
<glyph unicode="&#xda;" horiz-adv-x="1392" d="M176 449v956h201v-952q0 -131 91 -211t232 -80q145 0 230.5 80.5t85.5 210.5v952h201v-956q0 -212 -139 -340.5t-369 -128.5h-27q-228 0 -367 127.5t-139 341.5zM643 1536l193 297h184l2 -6l-238 -291h-141z" />
<glyph unicode="&#xdb;" horiz-adv-x="1392" d="M176 449v956h201v-952q0 -131 91 -211t232 -80q145 0 230.5 80.5t85.5 210.5v952h201v-956q0 -212 -139 -340.5t-369 -128.5h-27q-228 0 -367 127.5t-139 341.5zM340 1556l276 256h160l279 -256h-164l-195 142l-192 -142h-164z" />
<glyph unicode="&#xdc;" horiz-adv-x="1392" d="M176 449v956h201v-952q0 -131 91 -211t232 -80q145 0 230.5 80.5t85.5 210.5v952h201v-956q0 -212 -139 -340.5t-369 -128.5h-27q-228 0 -367 127.5t-139 341.5zM420 1585v201h184v-201h-184zM805 1585v201h186v-201h-186z" />
<glyph unicode="&#xdd;" horiz-adv-x="1171" d="M-10 1405h229l375 -653h8l371 653h207l-494 -862v-543h-201v543zM541 1536l192 297h185l2 -6l-238 -291h-141z" />
<glyph unicode="&#xde;" horiz-adv-x="1296" d="M188 0v1405h201v-254h406q182 0 300.5 -116t118.5 -294t-118.5 -293.5t-300.5 -115.5h-406v-332h-201zM389 514h387q96 0 167 66t71 161t-70.5 161.5t-167.5 66.5h-387v-455z" />
<glyph unicode="&#xdf;" horiz-adv-x="1257" d="M94 893v154h119q3 200 134.5 322t330.5 122q190 0 311 -107t121 -272q0 -103 -57 -189.5t-148 -121.5l4 -8q111 -42 179.5 -144.5t68.5 -238.5q0 -170 -134 -290t-323 -120h-170v154h150q123 0 204 85t81 199q0 109 -84.5 190t-200.5 81h-150v151h134q106 0 180 71 t74 175t-66.5 167.5t-181.5 63.5q-117 0 -190.5 -79t-73.5 -207v-1186h-193v1028h-119z" />
<glyph unicode="&#xe0;" horiz-adv-x="1198" d="M98 291q0 126 66.5 198.5t217.5 106t417 33.5v96q0 103 -61.5 145.5t-178.5 42.5q-111 0 -172 -42.5t-61 -120.5v-25h-189q-4 28 -4 68q0 111 125 192.5t305 81.5h19q409 0 409 -319v-543q0 -36 16.5 -54t41.5 -18q44 0 94 29v-142q-67 -40 -158 -40q-168 0 -178 188 q-126 -188 -367 -188q-172 0 -257 74.5t-85 236.5zM262 1468l2 7h182l195 -297h-143zM291 274q0 -141 215 -141q119 0 206 84.5t87 220.5v41q-131 0 -222 -8.5t-147 -23.5t-87 -41.5t-41.5 -56.5t-10.5 -75z" />
<glyph unicode="&#xe1;" horiz-adv-x="1198" d="M98 291q0 126 66.5 198.5t217.5 106t417 33.5v96q0 103 -61.5 145.5t-178.5 42.5q-111 0 -172 -42.5t-61 -120.5v-25h-189q-4 28 -4 68q0 111 125 192.5t305 81.5h19q409 0 409 -319v-543q0 -36 16.5 -54t41.5 -18q44 0 94 29v-142q-67 -40 -158 -40q-168 0 -178 188 q-126 -188 -367 -188q-172 0 -257 74.5t-85 236.5zM291 274q0 -141 215 -141q119 0 206 84.5t87 220.5v41q-131 0 -222 -8.5t-147 -23.5t-87 -41.5t-41.5 -56.5t-10.5 -75zM500 1178l192 297h185l2 -7l-238 -290h-141z" />
<glyph unicode="&#xe2;" horiz-adv-x="1198" d="M98 291q0 126 66.5 198.5t217.5 106t417 33.5v96q0 103 -61.5 145.5t-178.5 42.5q-111 0 -172 -42.5t-61 -120.5v-25h-189q-4 28 -4 68q0 111 125 192.5t305 81.5h19q409 0 409 -319v-543q0 -36 16.5 -54t41.5 -18q44 0 94 29v-142q-67 -40 -158 -40q-168 0 -178 188 q-126 -188 -367 -188q-172 0 -257 74.5t-85 236.5zM207 1178l278 297h160l277 -297h-164l-193 182l-194 -182h-164zM291 274q0 -141 215 -141q119 0 206 84.5t87 220.5v41q-131 0 -222 -8.5t-147 -23.5t-87 -41.5t-41.5 -56.5t-10.5 -75z" />
<glyph unicode="&#xe3;" horiz-adv-x="1198" d="M98 291q0 126 66.5 198.5t217.5 106t417 33.5v96q0 103 -61.5 145.5t-178.5 42.5q-111 0 -172 -42.5t-61 -120.5v-25h-189q-4 28 -4 68q0 111 125 192.5t305 81.5h19q409 0 409 -319v-543q0 -36 16.5 -54t41.5 -18q44 0 94 29v-142q-67 -40 -158 -40q-168 0 -178 188 q-126 -188 -367 -188q-172 0 -257 74.5t-85 236.5zM170 1255q0 85 61 149t166 64q65 0 188.5 -35.5t159.5 -35.5q92 0 113 71h103q0 -92 -64 -152.5t-166 -60.5q-70 0 -180.5 35t-165.5 35q-92 0 -113 -70h-102zM291 274q0 -141 215 -141q119 0 206 84.5t87 220.5v41 q-131 0 -222 -8.5t-147 -23.5t-87 -41.5t-41.5 -56.5t-10.5 -75z" />
<glyph unicode="&#xe4;" horiz-adv-x="1198" d="M98 291q0 126 66.5 198.5t217.5 106t417 33.5v96q0 103 -61.5 145.5t-178.5 42.5q-111 0 -172 -42.5t-61 -120.5v-25h-189q-4 28 -4 68q0 111 125 192.5t305 81.5h19q409 0 409 -319v-543q0 -36 16.5 -54t41.5 -18q44 0 94 29v-142q-67 -40 -158 -40q-168 0 -178 188 q-126 -188 -367 -188q-172 0 -257 74.5t-85 236.5zM283 1296v201h184v-201h-184zM291 274q0 -141 215 -141q119 0 206 84.5t87 220.5v41q-131 0 -222 -8.5t-147 -23.5t-87 -41.5t-41.5 -56.5t-10.5 -75zM668 1296v201h186v-201h-186z" />
<glyph unicode="&#xe5;" horiz-adv-x="1198" d="M98 291q0 126 66.5 198.5t217.5 106t417 33.5v96q0 103 -61.5 145.5t-178.5 42.5q-111 0 -172 -42.5t-61 -120.5v-25h-189q-4 28 -4 68q0 111 125 192.5t305 81.5h19q409 0 409 -319v-543q0 -36 16.5 -54t41.5 -18q44 0 94 29v-142q-67 -40 -158 -40q-168 0 -178 188 q-126 -188 -367 -188q-172 0 -257 74.5t-85 236.5zM291 274q0 -141 215 -141q119 0 206 84.5t87 220.5v41q-131 0 -222 -8.5t-147 -23.5t-87 -41.5t-41.5 -56.5t-10.5 -75zM358 1321q0 86 60.5 146.5t146.5 60.5q79 0 143 -60.5t64 -146.5q0 -85 -60.5 -145t-146.5 -60 q-83 0 -145 59.5t-62 145.5zM451 1321q0 -47 33 -78t81 -31t81.5 32t33.5 79q0 44 -34 76.5t-81 32.5q-48 0 -81 -32t-33 -79z" />
<glyph unicode="&#xe6;" horiz-adv-x="1832" d="M98 291q0 126 66.5 198.5t217.5 106t417 33.5v96q0 103 -61.5 145.5t-178.5 42.5q-111 0 -172 -42.5t-61 -120.5v-25h-189q-4 28 -4 68q0 111 125 192.5t305 81.5h19q260 0 354 -131q122 131 334 131h14q195 0 316.5 -119.5t121.5 -322.5v-146h-731q5 -167 78.5 -256.5 t218.5 -89.5q67 0 117.5 22.5t79 60t42 81t13.5 92.5h182q0 -183 -121.5 -296t-316.5 -113h-8q-137 0 -243 58.5t-167 168.5q-67 -107 -183 -167t-243 -60q-172 0 -257 74.5t-85 236.5zM291 274q0 -141 215 -141q119 0 206 84.5t87 220.5v41q-131 0 -222 -8.5t-147 -23.5 t-87 -41.5t-41.5 -56.5t-10.5 -75zM995 629h537q0 139 -69 211.5t-189 72.5q-117 0 -189.5 -72t-89.5 -212z" />
<glyph unicode="&#xe7;" horiz-adv-x="1114" d="M104 498v49q0 234 126.5 377t332.5 143h17q191 0 312.5 -119.5t121.5 -312.5h-191q0 127 -64.5 202.5t-185.5 75.5q-127 0 -201.5 -84.5t-74.5 -232.5v-111q0 -178 74 -265t209 -87q124 0 186.5 75t62.5 202h185q0 -197 -118 -313.5t-314 -116.5h-17q-211 0 -336 141.5 t-125 376.5zM377 -379l18 100q81 -40 150 -40q135 0 135 92q0 40 -31 62t-76 22h-43v88h50q227 0 227 -183q0 -85 -65 -135.5t-150 -50.5q-135 0 -215 45z" />
<glyph unicode="&#xe8;" horiz-adv-x="1138" d="M104 502v41q0 236 127.5 380t343.5 144h15q195 0 316.5 -120.5t121.5 -321.5v-146h-731q5 -167 78.5 -256.5t218.5 -89.5q67 0 117.5 22.5t79 60t42 81t13.5 92.5h182q0 -184 -122 -296.5t-316 -112.5h-8q-221 0 -349.5 142t-128.5 380zM285 1468l2 7h182l195 -297h-144z M301 629h537q0 139 -69 211.5t-189 72.5q-117 0 -189.5 -72t-89.5 -212z" />
<glyph unicode="&#xe9;" horiz-adv-x="1138" d="M104 502v41q0 236 127.5 380t343.5 144h15q195 0 316.5 -120.5t121.5 -321.5v-146h-731q5 -167 78.5 -256.5t218.5 -89.5q67 0 117.5 22.5t79 60t42 81t13.5 92.5h182q0 -184 -122 -296.5t-316 -112.5h-8q-221 0 -349.5 142t-128.5 380zM301 629h537q0 139 -69 211.5 t-189 72.5q-117 0 -189.5 -72t-89.5 -212zM522 1178l193 297h184l2 -7l-237 -290h-142z" />
<glyph unicode="&#xea;" horiz-adv-x="1138" d="M104 502v41q0 236 127.5 380t343.5 144h15q195 0 316.5 -120.5t121.5 -321.5v-146h-731q5 -167 78.5 -256.5t218.5 -89.5q67 0 117.5 22.5t79 60t42 81t13.5 92.5h182q0 -184 -122 -296.5t-316 -112.5h-8q-221 0 -349.5 142t-128.5 380zM229 1178l279 297h160l276 -297 h-164l-192 182l-195 -182h-164zM301 629h537q0 139 -69 211.5t-189 72.5q-117 0 -189.5 -72t-89.5 -212z" />
<glyph unicode="&#xeb;" horiz-adv-x="1138" d="M104 502v41q0 236 127.5 380t343.5 144h15q195 0 316.5 -120.5t121.5 -321.5v-146h-731q5 -167 78.5 -256.5t218.5 -89.5q67 0 117.5 22.5t79 60t42 81t13.5 92.5h182q0 -184 -122 -296.5t-316 -112.5h-8q-221 0 -349.5 142t-128.5 380zM301 629h537q0 139 -69 211.5 t-189 72.5q-117 0 -189.5 -72t-89.5 -212zM305 1296v201h184v-201h-184zM690 1296v201h187v-201h-187z" />
<glyph unicode="&#xec;" horiz-adv-x="532" d="M-37 1468l2 7h182l195 -297h-143zM170 0v1047h192v-1047h-192z" />
<glyph unicode="&#xed;" horiz-adv-x="532" d="M170 0v1047h192v-1047h-192zM201 1178l192 297h185l2 -7l-238 -290h-141z" />
<glyph unicode="&#xee;" horiz-adv-x="532" d="M-92 1178l278 297h160l277 -297h-164l-193 182l-194 -182h-164zM170 0v1047h192v-1047h-192z" />
<glyph unicode="&#xef;" horiz-adv-x="532" d="M-16 1296v201h184v-201h-184zM170 0v1047h192v-1047h-192zM369 1296v201h186v-201h-186z" />
<glyph unicode="&#xf0;" horiz-adv-x="1177" d="M106 485v76q0 224 129 366t326 142q51 0 92 -8q-70 85 -170 178l-186 -88l-74 68l193 90q-37 33 -107 77t-76 48l121 59q91 -46 195 -115l192 90l66 -69l-178 -82q440 -361 440 -756v-76q0 -228 -127.5 -366.5t-337.5 -138.5h-20q-219 0 -348.5 135.5t-129.5 369.5z M299 504q0 -178 75 -274.5t214 -96.5q136 0 212.5 95t76.5 276v39q0 177 -75 273.5t-214 96.5q-137 0 -213 -94t-76 -276v-39z" />
<glyph unicode="&#xf1;" horiz-adv-x="1214" d="M170 0v1047h139l27 -154q131 174 350 174q172 0 270.5 -92.5t98.5 -269.5v-705h-193v670q0 243 -221 243q-112 0 -195.5 -85t-83.5 -205v-623h-192zM219 1255q0 85 61 149t166 64q65 0 189 -35.5t160 -35.5q91 0 112 71h103q0 -92 -64 -152.5t-166 -60.5q-70 0 -180.5 35 t-165.5 35q-91 0 -112 -70h-103z" />
<glyph unicode="&#xf2;" horiz-adv-x="1175" d="M106 485v76q0 236 129 371t347 135h10q219 0 348 -135.5t129 -370.5v-76q0 -233 -129 -369t-346 -136h-10q-219 0 -348.5 135.5t-129.5 369.5zM285 1468l2 7h182l195 -297h-144zM299 504q0 -178 75 -274.5t214 -96.5q136 0 212.5 95t76.5 276v39q0 177 -75 273.5 t-214 96.5q-137 0 -213 -94t-76 -276v-39z" />
<glyph unicode="&#xf3;" horiz-adv-x="1175" d="M106 485v76q0 236 129 371t347 135h10q219 0 348 -135.5t129 -370.5v-76q0 -233 -129 -369t-346 -136h-10q-219 0 -348.5 135.5t-129.5 369.5zM299 504q0 -178 75 -274.5t214 -96.5q136 0 212.5 95t76.5 276v39q0 177 -75 273.5t-214 96.5q-137 0 -213 -94t-76 -276v-39z M522 1178l193 297h184l2 -7l-237 -290h-142z" />
<glyph unicode="&#xf4;" horiz-adv-x="1175" d="M106 485v76q0 236 129 371t347 135h10q219 0 348 -135.5t129 -370.5v-76q0 -233 -129 -369t-346 -136h-10q-219 0 -348.5 135.5t-129.5 369.5zM229 1178l279 297h160l276 -297h-164l-192 182l-195 -182h-164zM299 504q0 -178 75 -274.5t214 -96.5q136 0 212.5 95 t76.5 276v39q0 177 -75 273.5t-214 96.5q-137 0 -213 -94t-76 -276v-39z" />
<glyph unicode="&#xf5;" horiz-adv-x="1175" d="M106 485v76q0 236 129 371t347 135h10q219 0 348 -135.5t129 -370.5v-76q0 -233 -129 -369t-346 -136h-10q-219 0 -348.5 135.5t-129.5 369.5zM193 1255q0 85 61 149t166 64q65 0 188.5 -35.5t159.5 -35.5q92 0 113 71h102q0 -92 -63.5 -152.5t-165.5 -60.5 q-70 0 -180.5 35t-165.5 35q-92 0 -113 -70h-102zM299 504q0 -178 75 -274.5t214 -96.5q136 0 212.5 95t76.5 276v39q0 177 -75 273.5t-214 96.5q-137 0 -213 -94t-76 -276v-39z" />
<glyph unicode="&#xf6;" horiz-adv-x="1175" d="M106 485v76q0 236 129 371t347 135h10q219 0 348 -135.5t129 -370.5v-76q0 -233 -129 -369t-346 -136h-10q-219 0 -348.5 135.5t-129.5 369.5zM299 504q0 -178 75 -274.5t214 -96.5q136 0 212.5 95t76.5 276v39q0 177 -75 273.5t-214 96.5q-137 0 -213 -94t-76 -276v-39z M305 1296v201h184v-201h-184zM690 1296v201h187v-201h-187z" />
<glyph unicode="&#xf7;" d="M104 436v172h1049v-172h-1049zM545 104v185h170v-185h-170zM545 756v186h170v-186h-170z" />
<glyph unicode="&#xf8;" horiz-adv-x="1175" d="M106 485v76q0 236 129 371t347 135h10q136 0 239 -53l89 141h120l-125 -201q154 -135 154 -393v-76q0 -233 -129 -369t-346 -136h-10q-141 0 -242 55l-98 -156h-121l135 215q-152 139 -152 391zM299 504q0 -156 57 -250l387 618q-65 41 -155 41q-137 0 -213 -94t-76 -276 v-39zM430 176q64 -43 158 -43q136 0 212.5 95t76.5 276v39q0 157 -60 254z" />
<glyph unicode="&#xf9;" horiz-adv-x="1265" d="M160 342v705h192v-670q0 -244 221 -244q111 0 195 85t84 206v623h192v-842q0 -36 16.5 -54t41.5 -18q42 0 92 29v-142q-61 -40 -129 -40q-111 0 -155.5 45.5t-47.5 126.5q-56 -81 -143 -126.5t-199 -45.5q-159 0 -259.5 93t-100.5 269zM291 1468l2 7h182l195 -297h-144z " />
<glyph unicode="&#xfa;" horiz-adv-x="1265" d="M160 342v705h192v-670q0 -244 221 -244q111 0 195 85t84 206v623h192v-842q0 -36 16.5 -54t41.5 -18q42 0 92 29v-142q-61 -40 -129 -40q-111 0 -155.5 45.5t-47.5 126.5q-56 -81 -143 -126.5t-199 -45.5q-159 0 -259.5 93t-100.5 269zM528 1178l193 297h184l2 -7 l-237 -290h-142z" />
<glyph unicode="&#xfb;" horiz-adv-x="1265" d="M160 342v705h192v-670q0 -244 221 -244q111 0 195 85t84 206v623h192v-842q0 -36 16.5 -54t41.5 -18q42 0 92 29v-142q-61 -40 -129 -40q-111 0 -155.5 45.5t-47.5 126.5q-56 -81 -143 -126.5t-199 -45.5q-159 0 -259.5 93t-100.5 269zM236 1178l278 297h160l276 -297 h-164l-192 182l-195 -182h-163z" />
<glyph unicode="&#xfc;" horiz-adv-x="1265" d="M160 342v705h192v-670q0 -244 221 -244q111 0 195 85t84 206v623h192v-842q0 -36 16.5 -54t41.5 -18q42 0 92 29v-142q-61 -40 -129 -40q-111 0 -155.5 45.5t-47.5 126.5q-56 -81 -143 -126.5t-199 -45.5q-159 0 -259.5 93t-100.5 269zM311 1296v201h185v-201h-185z M696 1296v201h187v-201h-187z" />
<glyph unicode="&#xfd;" horiz-adv-x="1048" d="M25 1047h204l301 -773h9l297 773h188l-391 -1006q-70 -173 -131.5 -265.5t-120 -124.5t-141.5 -32q-75 0 -144 29v157q67 -28 103 -28q85 0 140.5 56.5t92.5 176.5zM469 1178l193 297h184l2 -7l-238 -290h-141z" />
<glyph unicode="&#xfe;" horiz-adv-x="1193" d="M170 -371v1846h192v-543q114 135 302 135q198 0 310.5 -145t112.5 -400v-22q0 -240 -111.5 -380t-311.5 -140q-194 0 -302 153v-504h-192zM360 518q0 -197 66.5 -291t200.5 -94q268 0 268 385v19q0 188 -68.5 282t-199.5 94q-135 0 -201 -95t-66 -290v-10z" />
<glyph unicode="&#xff;" horiz-adv-x="1048" d="M25 1047h204l301 -773h9l297 773h188l-391 -1006q-70 -173 -131.5 -265.5t-120 -124.5t-141.5 -32q-75 0 -144 29v157q67 -28 103 -28q85 0 140.5 56.5t92.5 176.5zM252 1296v201h184v-201h-184zM637 1296v201h186v-201h-186z" />
<glyph unicode="&#x152;" horiz-adv-x="2113" d="M125 610v185q0 292 157.5 461t413.5 169q240 0 391 -139v119h922l-27 -182h-694v-414h629v-182h-629v-445h707l28 -182h-936v119q-145 -139 -380 -139q-264 0 -423 168.5t-159 461.5zM326 610q0 -219 97 -333.5t284 -114.5q179 0 279.5 113.5t100.5 334.5v185 q0 219 -96.5 333.5t-283.5 114.5q-181 0 -281 -114t-100 -334v-185z" />
<glyph unicode="&#x153;" horiz-adv-x="1910" d="M106 485v76q0 236 129 371t347 135h10q255 0 385 -178q61 86 156 132t215 46h14q195 0 316.5 -120.5t121.5 -321.5v-146h-731q5 -167 78.5 -256.5t218.5 -89.5q67 0 117.5 22.5t79 60t42 81t13.5 92.5h182q0 -184 -122 -296.5t-316 -112.5h-8q-250 0 -379 178 q-62 -86 -159.5 -132t-221.5 -46h-10q-219 0 -348.5 135.5t-129.5 369.5zM299 504q0 -178 75 -274.5t214 -96.5q136 0 212.5 95t76.5 276v39q0 177 -75 273.5t-214 96.5q-137 0 -213 -94t-76 -276v-39zM1073 629h537q0 139 -69 211.5t-189 72.5q-117 0 -189.5 -72 t-89.5 -212z" />
<glyph unicode="&#x178;" horiz-adv-x="1171" d="M-10 1405h229l375 -653h8l371 653h207l-494 -862v-543h-201v543zM317 1585v201h185v-201h-185zM702 1585v201h187v-201h-187z" />
<glyph unicode="&#x2c6;" horiz-adv-x="1097" d="M188 1178l279 297h160l276 -297h-164l-192 182l-195 -182h-164z" />
<glyph unicode="&#x2dc;" horiz-adv-x="872" d="M41 1255q0 85 61 149t166 64q65 0 188.5 -35.5t159.5 -35.5q92 0 113 71h102q0 -92 -63.5 -152.5t-165.5 -60.5q-70 0 -180.5 35t-165.5 35q-92 0 -113 -70h-102z" />
<glyph unicode="&#x2000;" horiz-adv-x="948" />
<glyph unicode="&#x2001;" horiz-adv-x="1896" />
<glyph unicode="&#x2002;" horiz-adv-x="948" />
<glyph unicode="&#x2003;" horiz-adv-x="1896" />
<glyph unicode="&#x2004;" horiz-adv-x="632" />
<glyph unicode="&#x2005;" horiz-adv-x="474" />
<glyph unicode="&#x2006;" horiz-adv-x="316" />
<glyph unicode="&#x2007;" horiz-adv-x="316" />
<glyph unicode="&#x2008;" horiz-adv-x="237" />
<glyph unicode="&#x2009;" horiz-adv-x="379" />
<glyph unicode="&#x200a;" horiz-adv-x="105" />
<glyph unicode="&#x2010;" horiz-adv-x="800" d="M141 453v200h518v-200h-518z" />
<glyph unicode="&#x2011;" horiz-adv-x="800" d="M141 453v200h518v-200h-518z" />
<glyph unicode="&#x2012;" horiz-adv-x="800" d="M141 453v200h518v-200h-518z" />
<glyph unicode="&#x2013;" horiz-adv-x="1024" d="M0 457v194h1024v-194h-1024z" />
<glyph unicode="&#x2014;" horiz-adv-x="1863" d="M0 457v192h1864v-192h-1864z" />
<glyph unicode="&#x2018;" horiz-adv-x="458" d="M104 924v163q0 211 154 343l74 -64q-105 -94 -105 -205h105v-237h-228z" />
<glyph unicode="&#x2019;" horiz-adv-x="448" d="M125 963q104 94 104 204h-104v238h227v-164q0 -211 -153 -342z" />
<glyph unicode="&#x201a;" horiz-adv-x="487" d="M139 0v238h228v-164q0 -210 -154 -342l-74 63q105 94 105 205h-105z" />
<glyph unicode="&#x201c;" horiz-adv-x="770" d="M98 924v163q0 211 154 343l74 -64q-105 -94 -105 -205h105v-237h-228zM416 924v163q0 212 153 343l74 -64q-104 -94 -104 -205h104v-237h-227z" />
<glyph unicode="&#x201d;" horiz-adv-x="759" d="M125 963q104 94 104 204h-104v238h227v-164q0 -211 -153 -342zM442 963q105 95 105 204h-105v238h228v-164q0 -210 -154 -342z" />
<glyph unicode="&#x201e;" horiz-adv-x="798" d="M139 0v238h228v-164q0 -210 -154 -342l-74 63q105 94 105 205h-105zM457 0v238h227v-164q0 -210 -154 -342l-73 63q104 94 104 205h-104z" />
<glyph unicode="&#x2022;" horiz-adv-x="1228" d="M307 705q0 130 90 220.5t215 90.5t217.5 -92t92.5 -219q0 -133 -92.5 -223.5t-217.5 -90.5q-126 0 -215.5 93t-89.5 221z" />
<glyph unicode="&#x2026;" horiz-adv-x="1505" d="M141 0v227h209v-227h-209zM649 0v227h209v-227h-209zM1155 0v227h209v-227h-209z" />
<glyph unicode="&#x202f;" horiz-adv-x="379" />
<glyph unicode="&#x2039;" horiz-adv-x="569" d="M100 690l250 357h105l-193 -357l193 -356h-105z" />
<glyph unicode="&#x203a;" horiz-adv-x="569" d="M115 334l192 356l-192 357h104l250 -357l-250 -356h-104z" />
<glyph unicode="&#x205f;" horiz-adv-x="474" />
<glyph unicode="&#x20ac;" horiz-adv-x="1150" d="M61 487v134h185q-2 14 -2 79q0 15 0.5 32t1 28t0.5 12h-185v131h203q52 234 221 375t410 141q65 0 180 -16v-186q-67 20 -162 20q-164 0 -282.5 -90t-163.5 -244h405v-131h-430q-4 -23 -4 -74q0 -41 4 -77h430v-134h-401q49 -152 170 -237.5t287 -85.5q62 0 147 26v-186 q-84 -20 -194 -20q-228 0 -396 139t-219 364h-205z" />
<glyph unicode="&#x2122;" horiz-adv-x="1837" d="M94 1282v123h643v-123h-254v-692h-133v692h-256zM786 590v815h203l248 -617l252 617h201v-815h-134l-4 645l-262 -645h-127l-258 639v-639h-119z" />
<glyph unicode="&#x25fc;" horiz-adv-x="1044" d="M0 0v1044h1044v-1044h-1044z" />
<glyph unicode="&#xfb03;" horiz-adv-x="1835" d="M96 893v154h115v141q0 303 244 303q118 0 192 -39v-141q-62 26 -104 26q-82 0 -111 -29.5t-29 -99.5v-161h439v141q0 303 243 303q119 0 193 -39v-141q-62 26 -104 26q-82 0 -111 -29.5t-29 -99.5v-161h244v-154h-244v-893h-192v893h-439v-893h-192v893h-115zM1468 1296 v179h201v-179h-201zM1473 0v1047h192v-1047h-192z" />
<glyph unicode="&#xfb04;" horiz-adv-x="1851" d="M96 893v154h115v141q0 303 244 303q118 0 192 -39v-141q-62 26 -104 26q-82 0 -111 -29.5t-29 -99.5v-161h439v141q0 303 243 303q119 0 193 -39v-141q-62 26 -104 26q-82 0 -111 -29.5t-29 -99.5v-161h244v-154h-244v-893h-192v893h-439v-893h-192v893h-115zM1481 0 v1475h192v-1475h-192z" />
</font>
</defs>
</svg>
