<?xml version="1.0" standalone="no"?>
<!DOCTYPE svg PUBLIC "-//W3C//DTD SVG 1.1//EN" "http://www.w3.org/Graphics/SVG/1.1/DTD/svg11.dtd" >
<svg xmlns="http://www.w3.org/2000/svg" xmlns:xlink="http://www.w3.org/1999/xlink" version="1.1">
<metadata></metadata>
<defs>
<font id="chivolight" horiz-adv-x="1259" >
<font-face units-per-em="2048" ascent="1638" descent="-410" />
<missing-glyph horiz-adv-x="499" />
<glyph unicode="&#xfb01;" horiz-adv-x="1230" d="M96 926v121h115v182q0 131 59 196.5t166 65.5q95 0 164 -37v-115q-72 31 -117 31q-65 0 -96 -29.5t-31 -105.5v-188h244v-121h-244v-926h-145v926h-115zM834 1333v142h157v-142h-157zM840 0v1047h145v-1047h-145z" />
<glyph unicode="&#xfb02;" horiz-adv-x="1243" d="M96 926v121h115v182q0 131 59 196.5t166 65.5q95 0 164 -37v-115q-72 31 -117 31q-65 0 -96 -29.5t-31 -105.5v-188h244v-121h-244v-926h-145v926h-115zM842 0v1475h145v-1475h-145z" />
<glyph horiz-adv-x="0" />
<glyph horiz-adv-x="682" />
<glyph unicode=" "  horiz-adv-x="499" />
<glyph unicode="&#x09;" horiz-adv-x="499" />
<glyph unicode="&#xa0;" horiz-adv-x="499" />
<glyph unicode="!" horiz-adv-x="550" d="M186 1405h181l-25 -1086h-131zM193 0v182h167v-182h-167z" />
<glyph unicode="&#x22;" horiz-adv-x="745" d="M158 1104v301h135v-301l-31 -262h-72zM451 1104v301h135v-301l-33 -262h-70z" />
<glyph unicode="#" horiz-adv-x="1316" d="M57 377v135h265l73 338h-258v137h289l98 438h138l-99 -438h324l98 438h137l-100 -438h225v-137h-254l-75 -338h247v-135h-278l-84 -377h-135l84 377h-326l-84 -377h-135l84 377h-234zM457 512h325l74 338h-324z" />
<glyph unicode="$" horiz-adv-x="1118" d="M63 420q0 7 1.5 20t1.5 15h147q-4 -12 -4 -45q0 -122 93.5 -178t252.5 -56q356 0 356 236q0 57 -28 99.5t-75 69t-108 46t-129 36t-135.5 34t-128.5 44.5t-108 63t-75 94t-28 134q0 85 32.5 150t90.5 105.5t132.5 62t164.5 26.5l-22 183h124l-20 -183q193 -8 308.5 -95.5 t115.5 -254.5v-25h-145v37q0 100 -87.5 152.5t-226.5 52.5q-144 0 -230.5 -48t-86.5 -151q0 -67 45 -112t116.5 -70t158.5 -45.5t173.5 -47t158 -64.5t116.5 -108.5t45 -168.5q0 -128 -59 -215t-160 -128.5t-242 -45.5l20 -174h-124l20 174q-211 11 -331 104.5t-120 276.5z " />
<glyph unicode="%" horiz-adv-x="1431" d="M68 934v223q0 105 67.5 176.5t175.5 71.5h11q110 0 177.5 -71.5t67.5 -176.5v-223q0 -104 -68.5 -175t-176.5 -71h-11q-107 0 -175 71t-68 175zM182 924q0 -57 36 -95t99 -38q64 0 99 37.5t35 95.5v243q0 59 -35 96t-99 37q-63 0 -99 -37t-36 -96v-243zM225 0l856 1405 h129l-852 -1405h-133zM866 244v223q0 105 68.5 176.5t175.5 71.5h10q108 0 177 -71.5t69 -176.5v-223q0 -104 -68 -175t-178 -71h-10q-108 0 -176 70.5t-68 175.5zM981 233q0 -57 36 -95t99 -38q64 0 98.5 37.5t34.5 95.5v244q0 59 -34.5 96t-98.5 37q-63 0 -99 -37t-36 -96 v-244z" />
<glyph unicode="&#x26;" horiz-adv-x="1355" d="M141 393q0 257 260 330l2 4q-111 53 -171 124t-60 185q0 96 37 172.5t100 122.5t140.5 70t164.5 24q73 0 142 -16v-141q-59 20 -127 20q-136 0 -220.5 -65t-84.5 -185q0 -116 88.5 -184t222.5 -68h260l47 316h100v-316h234v-135h-234v-651h-419q-137 0 -245.5 45.5 t-172.5 135.5t-64 212zM293 397q0 -125 93.5 -193.5t250.5 -68.5h256v516h-258q-158 0 -250 -63t-92 -191z" />
<glyph unicode="'" horiz-adv-x="452" d="M158 1104v301h135v-301l-33 -262h-70z" />
<glyph unicode="(" horiz-adv-x="591" d="M100 543q0 236 84.5 459.5t241.5 402.5h82q-125 -193 -198.5 -415.5t-73.5 -446.5t73 -446t199 -419h-82q-157 179 -241.5 402.5t-84.5 462.5z" />
<glyph unicode=")" horiz-adv-x="589" d="M59 -322q124 192 197.5 415.5t73.5 449.5q0 221 -74 445t-197 417h82q157 -179 241.5 -402.5t84.5 -459.5q0 -238 -84.5 -462t-241.5 -403h-82z" />
<glyph unicode="*" horiz-adv-x="958" d="M68 1059l47 137l323 -139l-26 348h143l-35 -352l330 137l41 -139l-346 -80l229 -264l-115 -86l-186 303l-180 -297l-117 84l234 264z" />
<glyph unicode="+" horiz-adv-x="1261" d="M106 451v143h451v453h143v-453h455v-143h-455v-451h-143v451h-451z" />
<glyph unicode="," horiz-adv-x="487" d="M162 0v193h188v-130q0 -189 -123 -307l-65 51q86 92 86 193h-86z" />
<glyph unicode="-" horiz-adv-x="800" d="M141 471v160h518v-160h-518z" />
<glyph unicode="." horiz-adv-x="489" d="M162 0v182h166v-182h-166z" />
<glyph unicode="/" horiz-adv-x="1228" d="M31 -350l1003 1755h142l-1002 -1755h-143z" />
<glyph unicode="0" d="M162 442v521q0 203 130 332.5t326 129.5h19q196 0 327.5 -129.5t131.5 -332.5v-521q0 -202 -130 -332t-329 -130h-19q-198 0 -327 130.5t-129 331.5zM313 428q0 -134 91 -222.5t225 -88.5q136 0 225.5 88.5t89.5 222.5v549q0 134 -89.5 222.5t-225.5 88.5 q-134 0 -225 -88.5t-91 -222.5v-549z" />
<glyph unicode="1" d="M199 1206v99q256 27 477 110h61v-1278h385v-137h-921v137h385v1069h-387z" />
<glyph unicode="2" d="M154 0v47q0 118 50 203.5t152 155.5l410 286q174 127 174 303q0 126 -80 209.5t-221 83.5q-139 0 -231.5 -90.5t-92.5 -220.5q0 -41 2 -51h-151q-2 16 -2 37q0 127 54.5 230.5t164 167.5t256.5 64h6q105 0 191.5 -35t142 -93.5t85.5 -135t30 -160.5q0 -77 -18.5 -141 t-54.5 -115.5t-76.5 -89.5t-98.5 -80l-414 -288q-28 -19 -49.5 -40t-32.5 -38t-18 -33.5t-8.5 -25t-1.5 -13.5h778v-137h-946z" />
<glyph unicode="3" d="M141 385v25h152q0 -295 328 -295q153 0 245 69.5t92 198.5q0 130 -91.5 197t-250.5 67h-155v139h153q136 0 224 65t88 187q0 123 -84 186.5t-221 63.5q-141 0 -219 -70.5t-78 -203.5h-152v33q0 115 60 202t160.5 131.5t225.5 44.5h15q194 0 320 -103.5t126 -274.5 q0 -121 -58.5 -193.5t-168.5 -126.5v-6q117 -36 187.5 -123t70.5 -223q0 -176 -137 -285.5t-340 -109.5h-17q-213 0 -344 109.5t-131 295.5z" />
<glyph unicode="4" d="M115 367v137q105 148 243 417.5t220 503.5h161q-73 -234 -220 -517.5t-253 -403.5h537v471q54 103 92 219h61v-690h174v-137h-174v-367h-153v367h-688z" />
<glyph unicode="5" d="M168 434h154q2 -135 89.5 -226t225.5 -91q141 0 228 94.5t87 239.5q0 138 -90.5 231.5t-220.5 93.5q-93 0 -169.5 -43.5t-121.5 -120.5l-135 21l57 772h764v-143h-630l-37 -465q133 112 286 112q213 0 331 -129t118 -334q0 -202 -128.5 -334t-338.5 -132q-209 0 -338 129 t-131 325z" />
<glyph unicode="6" d="M178 444v519q0 198 130.5 330t322.5 132h10q199 0 324 -125.5t125 -328.5h-150q0 145 -84.5 231t-218.5 86q-131 0 -219 -89t-88 -220v-256q61 76 149.5 117t190.5 41q187 0 314.5 -126t127.5 -313q0 -205 -130 -333.5t-331 -128.5h-10q-200 0 -331.5 129.5t-131.5 334.5 zM330 430q0 -137 89.5 -225t225.5 -88q137 0 226.5 88t89.5 225q0 139 -90 226t-226 87q-137 0 -226 -88.5t-89 -224.5z" />
<glyph unicode="7" d="M154 1262v143h974v-84q-129 -148 -231.5 -303t-181.5 -324t-116 -347.5t-24 -346.5h-178q0 170 40.5 343t114.5 333t164.5 303.5t203.5 282.5h-766z" />
<glyph unicode="8" d="M152 377q0 252 243 342v8q-105 60 -150.5 130t-45.5 179q0 185 118.5 287t313.5 102t312.5 -103.5t117.5 -279.5q0 -119 -49 -189t-150 -126v-8q120 -50 183 -129.5t63 -212.5q0 -185 -123.5 -291t-353.5 -106q-220 0 -349.5 103.5t-129.5 293.5zM303 383 q0 -127 86.5 -196.5t241.5 -69.5q154 0 239.5 70t85.5 196q0 124 -87.5 196t-237.5 72q-152 0 -240 -71.5t-88 -196.5zM350 1038q0 -114 78.5 -182t200.5 -68t200 67.5t78 182.5t-75 182.5t-203 67.5q-127 0 -203 -68t-76 -182z" />
<glyph unicode="9" d="M162 963q0 208 130.5 335t336.5 127q205 0 336 -129t131 -335v-519q0 -200 -131.5 -331t-327.5 -131q-203 0 -330 125.5t-127 328.5h152q0 -146 84 -231.5t221 -85.5q130 0 218.5 89t88.5 220v258q-60 -77 -148.5 -118.5t-191.5 -41.5q-185 0 -313.5 126t-128.5 313z M315 975q0 -139 89.5 -226t224.5 -87q137 0 226 88t89 225q0 138 -89.5 225.5t-225.5 87.5q-137 0 -225.5 -87.5t-88.5 -225.5z" />
<glyph unicode=":" horiz-adv-x="489" d="M162 0v182h166v-182h-166zM162 864v183h166v-183h-166z" />
<glyph unicode=";" horiz-adv-x="489" d="M162 0v182h166v-145l-66 -266h-86l51 229h-65zM162 864v183h166v-183h-166z" />
<glyph unicode="&#x3c;" d="M90 420v198l1043 404v-154l-916 -348l916 -348v-154z" />
<glyph unicode="=" horiz-adv-x="1247" d="M109 231v144h1028v-144h-1028zM109 662v143h1028v-143h-1028z" />
<glyph unicode="&#x3e;" d="M127 18v154l913 348l-913 348v154l1042 -404v-198z" />
<glyph unicode="?" horiz-adv-x="1028" d="M76 1018q0 41 11.5 89.5t43 106.5t78 104.5t125 77.5t176.5 31q95 0 171 -29t120.5 -72t74 -98.5t40 -103.5t10.5 -92q0 -68 -17.5 -125t-46 -96.5t-62.5 -73t-68 -62.5t-62.5 -57.5t-46 -64.5t-17.5 -78v-117h-155v146q0 47 17.5 88.5t46 74t63 63.5t68.5 63t62.5 66.5 t46 80t17.5 96.5q0 42 -14 84t-43 80.5t-82.5 63t-122.5 24.5q-64 0 -114.5 -19t-81 -48.5t-50.5 -67.5t-27.5 -73t-7.5 -68q0 -11 2 -36.5t2 -29.5h-151q-6 18 -6 72zM442 0v182h170v-182h-170z" />
<glyph unicode="@" horiz-adv-x="1812" d="M78 543q0 183 43 331.5t119.5 250.5t184.5 170.5t235 100t274 31.5q180 0 327 -51t254 -149t165.5 -249.5t58.5 -344.5q0 -134 -25 -246t-64.5 -185.5t-91.5 -124.5t-103.5 -73t-102.5 -22q-95 0 -135 51t-43 143q-122 -196 -375 -196q-336 0 -336 301q0 83 30 142 t83.5 96.5t144 59t195.5 29.5t253 8v115q0 119 -61 167t-195 48q-124 0 -196 -47.5t-72 -142.5v-29h-141q-4 28 -4 59q0 123 119 202t296 79h13q387 0 387 -313v-584q0 -70 53 -70q108 0 182 139.5t74 397.5q0 327 -184.5 504.5t-507.5 177.5q-352 0 -545.5 -199 t-193.5 -581q0 -376 163.5 -560t505.5 -184q84 0 189.5 22t148.5 44v-119q-68 -26 -172 -40.5t-166 -14.5q-381 0 -582.5 211.5t-201.5 644.5zM608 272q0 -88 56 -130t176 -42q63 0 121.5 22t105 63.5t74.5 107.5t28 147v58q-314 0 -437.5 -45.5t-123.5 -180.5z" />
<glyph unicode="A" horiz-adv-x="1335" d="M23 0l567 1405h155l568 -1405h-166l-133 328h-709l-131 -328h-151zM360 467h601l-295 745h-11z" />
<glyph unicode="B" horiz-adv-x="1333" d="M205 0v1405h590q160 0 264 -97t104 -241q0 -134 -69 -219t-179 -113v-12q47 -7 92.5 -28t89.5 -59.5t71.5 -105.5t27.5 -151q0 -161 -115.5 -270t-273.5 -109h-602zM356 137h428q108 0 184 73.5t76 180.5t-76 181.5t-184 74.5h-428v-510zM356 784h408q99 0 172.5 72.5 t73.5 175.5t-62 169.5t-166 66.5h-426v-484z" />
<glyph unicode="C" horiz-adv-x="1357" d="M145 645v115q0 176 39.5 306t113 207.5t170.5 114.5t220 37h17q111 0 204 -31.5t165 -95.5t112.5 -171t40.5 -248h-152q0 212 -102 310.5t-277 98.5q-94 0 -164.5 -26.5t-124 -85.5t-81 -160.5t-27.5 -243.5v-139q0 -142 27 -243t80 -160t123.5 -86t164.5 -27 q179 0 282 98t103 309h148q0 -138 -40 -244t-112 -170.5t-164.5 -97t-203.5 -32.5h-17q-124 0 -221.5 36.5t-171 113.5t-113 207t-39.5 308z" />
<glyph unicode="D" horiz-adv-x="1378" d="M205 0v1405h467q125 0 226 -37.5t177.5 -115t118 -205t41.5 -297.5v-95q0 -136 -27.5 -245t-77 -185t-120 -127t-155 -74.5t-183.5 -23.5h-467zM356 137h316q409 0 409 508v115q0 508 -409 508h-316v-1131z" />
<glyph unicode="E" horiz-adv-x="1214" d="M205 0v1405h893l-23 -137h-719v-482h643v-137h-643v-512h734l26 -137h-911z" />
<glyph unicode="F" horiz-adv-x="1126" d="M205 0v1405h856l-23 -137h-682v-488h588v-139h-588v-641h-151z" />
<glyph unicode="G" horiz-adv-x="1386" d="M145 645v115q0 177 39 307t113 207.5t172.5 114t224.5 36.5h11q111 0 203.5 -30.5t164.5 -91t112 -160t40 -228.5h-150q0 193 -103 283t-276 90q-94 0 -164.5 -26.5t-124 -85.5t-81 -160.5t-27.5 -243.5v-139q0 -142 27 -243t80.5 -160t124 -86t165.5 -27 q88 0 155.5 20.5t120 66t80 126t27.5 194.5v70h-438v135h584v-477q0 -78 12 -252h-94l-37 178q-124 -198 -404 -198h-10q-126 0 -223.5 36.5t-171.5 114t-113 207.5t-39 307z" />
<glyph unicode="H" horiz-adv-x="1419" d="M205 0v1405h151v-619h707v619h151v-1405h-151v649h-707v-649h-151z" />
<glyph unicode="I" horiz-adv-x="745" d="M133 0v139h164v1127h-164v139h479v-139h-163v-1127h163v-139h-479z" />
<glyph unicode="J" horiz-adv-x="1077" d="M76 360v41h147v-41q0 -117 71 -180t185 -63q111 0 182.5 63t71.5 180v1045h152v-1045q0 -178 -113.5 -279t-290.5 -101h-12q-176 0 -284.5 99t-108.5 281z" />
<glyph unicode="K" horiz-adv-x="1275" d="M205 0v1405h151v-787l682 787h179l-533 -617l549 -788h-182l-467 672l-228 -248v-424h-151z" />
<glyph unicode="L" horiz-adv-x="1095" d="M205 0v1405h151v-1268h674l27 -137h-852z" />
<glyph unicode="M" horiz-adv-x="1906" d="M205 0v1405h241l504 -1190h4l508 1190h240v-1405h-152v1229h-12l-526 -1229h-135l-525 1229h-10v-1229h-137z" />
<glyph unicode="N" horiz-adv-x="1419" d="M205 0v1405h133l649 -983l84 -135l6 2v1116h137v-1405h-131l-669 1018l-66 104h-6v-1122h-137z" />
<glyph unicode="O" horiz-adv-x="1413" d="M145 645v115q0 177 42.5 308t119 207.5t174 113t217.5 36.5h13q123 0 222 -37t175.5 -114.5t118 -207.5t41.5 -306v-115q0 -176 -41.5 -306t-117.5 -207.5t-174 -114.5t-220 -37h-13q-123 0 -221.5 36.5t-175 113.5t-118.5 207.5t-42 307.5zM297 633q0 -141 29 -242.5 t85 -160.5t128.5 -86t167.5 -27q93 0 165 26.5t128 85t86 160.5t30 244v139q0 141 -29 242.5t-84.5 160.5t-128 86t-167.5 27q-410 0 -410 -516v-139z" />
<glyph unicode="P" horiz-adv-x="1277" d="M205 0v1405h590q167 0 283 -113.5t116 -277.5v-10q0 -163 -115.5 -276.5t-283.5 -113.5h-439v-614h-151zM356 750h422q108 0 187 76t79 184t-78 183t-188 75h-422v-518z" />
<glyph unicode="Q" horiz-adv-x="1413" d="M145 645v115q0 177 42.5 308t119 207.5t174 113t217.5 36.5h13q123 0 222 -37t175.5 -114.5t118 -207.5t41.5 -306v-115q0 -162 -35 -285t-100.5 -200.5t-150 -120.5t-191.5 -55q18 -69 71.5 -109.5t141.5 -40.5q90 0 237 60v-121q-115 -62 -237 -62q-316 0 -359 271 q-89 7 -163 33.5t-137.5 78.5t-107 126.5t-68 182.5t-24.5 242zM297 633q0 -141 29 -242.5t85 -160.5t128.5 -86t167.5 -27q93 0 165 26.5t128 85t86 160.5t30 244v139q0 141 -29 242.5t-84.5 160.5t-128 86t-167.5 27q-410 0 -410 -516v-139z" />
<glyph unicode="R" horiz-adv-x="1372" d="M205 0v1405h594q170 0 282.5 -91t112.5 -245q0 -131 -70.5 -227.5t-175.5 -141.5v-10q24 -10 45.5 -21.5t55.5 -41t58 -66t42 -97.5t18 -134q0 -84 6.5 -137.5t23 -80.5t29.5 -37t39 -21q5 -2 7 -3v-47q-28 -12 -72 -12q-29 0 -52.5 5.5t-48.5 23t-42 46.5t-28 78.5 t-11 116.5q0 83 -17.5 148t-44 103.5t-61.5 64t-66.5 34.5t-62.5 9h-410v-621h-151zM356 758h437q103 0 177 85t74 199q0 105 -67 165.5t-180 60.5h-441v-510z" />
<glyph unicode="S" horiz-adv-x="1284" d="M123 391q0 25 2 39h149q-2 -18 -2 -51q0 -134 99.5 -198t267.5 -64q170 0 269.5 63.5t99.5 196.5q0 63 -29 110.5t-78.5 77t-113 52t-134 40.5t-141 37.5t-134 48.5t-113 68t-78.5 101t-29 143q0 95 37.5 167.5t104.5 116t152 65t187 21.5q219 0 349 -96t130 -285v-24 h-147v39q0 110 -92 169.5t-236 59.5q-154 0 -245 -55t-91 -166q0 -57 29 -100t78.5 -70t113 -47.5t134 -38.5t141 -38t134 -50.5t113 -70.5t78.5 -104t29 -147q0 -112 -38 -194.5t-108.5 -131.5t-162 -72t-205.5 -23q-240 0 -380 100.5t-140 310.5z" />
<glyph unicode="T" horiz-adv-x="1183" d="M57 1268v137h1069v-137h-458v-1268h-152v1268h-459z" />
<glyph unicode="U" horiz-adv-x="1390" d="M193 451v954h151v-950q0 -154 95.5 -246t256.5 -92q163 0 257 93t94 245v950h151v-954q0 -212 -135 -341.5t-358 -129.5h-19q-223 0 -358 128t-135 343z" />
<glyph unicode="V" horiz-adv-x="1234" d="M25 1405h163l430 -1184h13l432 1184h147l-516 -1405h-151z" />
<glyph unicode="W" horiz-adv-x="1875" d="M57 1405h164l322 -1126h10l321 1126h146l321 -1126h11l321 1126h146l-410 -1405h-147l-318 1108h-10l-324 -1108h-145z" />
<glyph unicode="X" horiz-adv-x="1292" d="M41 0l516 731l-469 674h182l377 -545h6l383 545h168l-471 -668l516 -737h-182l-424 606h-4l-430 -606h-168z" />
<glyph unicode="Y" horiz-adv-x="1171" d="M8 1405h176l406 -705h6l408 705h155l-497 -860v-545h-154v545z" />
<glyph unicode="Z" horiz-adv-x="1220" d="M82 0v63l801 1205h-752v137h983v-64l-801 -1204h817v-137h-1048z" />
<glyph unicode="[" horiz-adv-x="600" d="M174 -330v1735h315v-94h-180v-1547h180v-94h-315z" />
<glyph unicode="\" horiz-adv-x="1228" d="M31 1405h141l1004 -1755h-144z" />
<glyph unicode="]" horiz-adv-x="600" d="M80 -236h180v1547h-180v94h315v-1735h-315v94z" />
<glyph unicode="^" horiz-adv-x="1220" d="M109 0l403 1047h195l403 -1047h-147l-353 909l-352 -909h-149z" />
<glyph unicode="_" horiz-adv-x="1421" d="M199 -131h1024v-121h-1024v121z" />
<glyph unicode="`" horiz-adv-x="681" d="M139 1468v7h158l195 -297h-121z" />
<glyph unicode="a" horiz-adv-x="1198" d="M109 281q0 83 30 142t84 96.5t144.5 59t195.5 29.5t254 8v115q0 119 -62 167t-196 48q-124 0 -196 -47.5t-72 -142.5v-29h-141q-5 35 -5 59q0 123 119.5 202t296.5 79h12q390 0 390 -313v-584q0 -35 15 -52.5t40 -17.5q41 0 98 33v-115q-62 -38 -143 -38q-147 0 -154 196 q-122 -196 -375 -196q-335 0 -335 301zM254 272q0 -88 56 -130t175 -42q134 0 233 91t99 249v58q-315 0 -439 -45.5t-124 -180.5z" />
<glyph unicode="b" horiz-adv-x="1189" d="M180 0v1475h146v-568q49 73 133 116.5t186 43.5q190 0 305 -138t115 -378v-23q0 -267 -115 -407.5t-305 -140.5q-237 0 -354 190l-53 -170h-58zM324 522q0 -422 299 -422q140 0 218.5 103.5t78.5 320.5v21q0 199 -80.5 300t-216.5 101q-140 0 -219.5 -101t-79.5 -304v-19 z" />
<glyph unicode="c" horiz-adv-x="1118" d="M127 504v39q0 242 123 383t323 141h11q183 0 301.5 -116.5t118.5 -311.5h-144q0 145 -76.5 226t-203.5 81q-139 0 -223.5 -97.5t-84.5 -277.5v-79q0 -193 85 -292.5t227 -99.5q128 0 203 80t75 226h142q0 -197 -116.5 -311.5t-301.5 -114.5h-13q-202 0 -324 141t-122 383 z" />
<glyph unicode="d" horiz-adv-x="1193" d="M129 528v23q0 240 115 378t305 138q207 0 317 -160v568h146v-1475h-105l-24 152q-117 -172 -334 -172q-191 0 -305.5 140.5t-114.5 407.5zM274 524q0 -424 295 -424q141 0 220 102.5t79 321.5v17q0 203 -80.5 304t-218.5 101t-216.5 -101.5t-78.5 -301.5v-19z" />
<glyph unicode="e" horiz-adv-x="1138" d="M127 506v35q0 243 123.5 384.5t327.5 141.5h10q184 0 302 -117t118 -315v-137h-736q1 -192 83 -295t233 -103q129 0 204.5 78.5t75.5 208.5h140q0 -185 -118.5 -296t-297.5 -111h-10q-207 0 -331 141t-124 385zM274 616h590q0 163 -74.5 246.5t-207.5 83.5 q-128 0 -210.5 -84.5t-97.5 -245.5z" />
<glyph unicode="f" horiz-adv-x="692" d="M106 926v121h115v182q0 131 59 196.5t166 65.5q98 0 164 -37v-115q-72 31 -116 31q-65 0 -96 -29.5t-31 -105.5v-188h243v-121h-243v-926h-146v926h-115z" />
<glyph unicode="g" horiz-adv-x="1163" d="M96 -131q0 80 41.5 145.5t110.5 94.5q-92 59 -92 167q0 143 163 207q-137 86 -137 248q0 146 108 241t302 95q128 0 221 -41q74 28 120 81.5t56 127.5h129q0 -96 -56 -170.5t-149 -91.5l-4 -6q99 -85 99 -224q0 -147 -105.5 -240t-300.5 -93h-153q-64 0 -107 -34.5 t-43 -90.5q0 -57 41.5 -90t108.5 -33h417q112 0 182 -72.5t70 -181.5q0 -129 -93.5 -211t-244.5 -82h-428q-107 0 -181.5 77.5t-74.5 176.5zM240 -121q0 -59 41.5 -101t99.5 -42h422q69 0 120.5 46t51.5 107q0 57 -39.5 95.5t-101.5 38.5h-453q-59 0 -100 -42t-41 -102z M326 737q0 -96 72 -151.5t196 -55.5t197 55.5t73 151.5t-73.5 152.5t-196.5 56.5t-195.5 -56t-72.5 -153z" />
<glyph unicode="h" horiz-adv-x="1216" d="M180 0v1475h146v-568q59 77 146 118.5t181 41.5q173 0 277 -96t104 -283v-688h-145v655q0 149 -68.5 220t-191.5 71q-126 0 -214.5 -90.5t-88.5 -222.5v-633h-146z" />
<glyph unicode="i" horiz-adv-x="532" d="M188 1333v142h158v-142h-158zM195 0v1047h145v-1047h-145z" />
<glyph unicode="j" horiz-adv-x="532" d="M-47 -227q68 -33 117 -33q63 0 94 29t31 108v1170h145v-1143q0 -148 -57 -216.5t-174 -68.5q-93 0 -156 37v117zM188 1333v142h158v-142h-158z" />
<glyph unicode="k" horiz-adv-x="1095" d="M180 0v1475h146v-1055l536 627h166l-424 -500l455 -547h-180l-365 434l-188 -190v-244h-146z" />
<glyph unicode="l" horiz-adv-x="522" d="M184 0v1475h146v-1475h-146z" />
<glyph unicode="m" horiz-adv-x="1773" d="M180 0v1047h103l26 -156q52 86 132.5 131t179.5 45q216 0 303 -176q116 176 321 176q158 0 253 -97t95 -282v-688h-145v655q0 291 -225 291q-112 0 -187 -89.5t-75 -223.5v-633h-146v655q0 291 -225 291q-113 0 -188.5 -90t-75.5 -223v-633h-146z" />
<glyph unicode="n" horiz-adv-x="1214" d="M180 0v1047h103l24 -156q59 85 149.5 130.5t196.5 45.5q173 0 276 -96t103 -283v-688h-143v655q0 149 -68.5 220t-191.5 71q-126 0 -214.5 -90.5t-88.5 -222.5v-633h-146z" />
<glyph unicode="o" horiz-adv-x="1177" d="M129 498v51q0 242 125 380t330 138h8q206 0 331.5 -138.5t125.5 -379.5v-51q0 -241 -125.5 -379.5t-329.5 -138.5h-8q-206 0 -331.5 138t-125.5 380zM274 500q0 -192 85.5 -296t230.5 -104q141 0 227 103t86 297v47q0 192 -85 295.5t-228 103.5q-144 0 -230 -102.5 t-86 -296.5v-47z" />
<glyph unicode="p" horiz-adv-x="1191" d="M180 -371v1418h105l22 -152q117 172 336 172q191 0 305.5 -141t114.5 -408v-22q0 -241 -115 -378.5t-305 -137.5q-208 0 -317 159v-510h-146zM324 506q0 -204 79 -305t218 -101q138 0 217.5 102.5t79.5 303.5v20q0 216 -79 318t-218 102q-297 0 -297 -422v-18z" />
<glyph unicode="q" horiz-adv-x="1193" d="M129 496v22q0 268 114 408.5t306 140.5q234 0 354 -190l51 170h58v-1416h-146v508q-48 -72 -132.5 -115.5t-186.5 -43.5q-189 0 -303.5 138t-114.5 378zM274 508q0 -205 78.5 -306.5t216.5 -101.5q139 0 219 102.5t80 305.5v16q0 220 -79.5 321t-219.5 101t-217.5 -102.5 t-77.5 -319.5v-16z" />
<glyph unicode="r" horiz-adv-x="993" d="M180 0v1047h103l24 -156q9 17 20 34t37.5 44.5t57.5 47.5t80.5 35t105.5 15q154 0 239 -97t85 -241q0 -25 -6 -61h-129v37q0 102 -55 171.5t-173 69.5q-63 0 -111 -26.5t-76 -71t-42 -96t-14 -107.5v-645h-146z" />
<glyph unicode="s" horiz-adv-x="1093" d="M109 276q0 28 2 48h143q-2 -10 -2 -25q0 -96 83 -147.5t236 -51.5q114 0 188.5 49t74.5 130q0 60 -38.5 99t-99.5 57.5t-135.5 32t-148.5 31.5t-135 46t-99.5 84.5t-38.5 138.5q0 136 108.5 217.5t307.5 81.5h12q180 0 283.5 -85t103.5 -198q0 -26 -2 -32h-143v22 q0 31 -11 58t-38 54.5t-83 43.5t-134 16q-77 0 -131 -15.5t-80 -42t-36.5 -52.5t-10.5 -56q0 -51 38.5 -84.5t99.5 -51.5t135 -32.5t148 -34.5t135 -49.5t99.5 -85.5t38.5 -135q0 -167 -114 -247t-318 -80h-19q-106 0 -189 26.5t-131.5 70.5t-73.5 94.5t-25 104.5z" />
<glyph unicode="t" horiz-adv-x="708" d="M98 926v121h119l49 333h92v-333h244v-121h-244v-688q0 -77 31 -107.5t86 -30.5q51 0 127 31v-117q-70 -34 -162 -34q-108 0 -167.5 64t-59.5 196v686h-115z" />
<glyph unicode="u" horiz-adv-x="1265" d="M170 358v689h145v-656q0 -149 69 -220t194 -71t213 90.5t88 223.5v633h145v-877q0 -35 15 -52.5t40 -17.5q42 0 99 33v-115q-59 -38 -131 -38q-160 0 -164 174q-54 -82 -143 -128t-197 -46q-165 0 -269 96.5t-104 281.5z" />
<glyph unicode="v" horiz-adv-x="1048" d="M41 1047h156l329 -852h6l332 852h144l-412 -1047h-145z" />
<glyph unicode="w" horiz-adv-x="1660" d="M51 1047h152l272 -816h6l275 816h151l273 -816h8l274 816h142l-355 -1047h-137l-283 829h-6l-280 -829h-137z" />
<glyph unicode="x" horiz-adv-x="1062" d="M61 0l388 535l-369 512h176l276 -394h7l282 394h162l-369 -508l387 -539h-176l-297 420h-4l-301 -420h-162z" />
<glyph unicode="y" horiz-adv-x="1048" d="M41 1047h156l329 -836h9l329 836h144l-404 -1014q-31 -78 -54 -129t-50 -102.5t-52 -81.5t-56 -55t-66 -35.5t-78 -10.5q-70 0 -135 29v123q72 -29 106 -29q80 0 128 57.5t106 214.5z" />
<glyph unicode="z" horiz-adv-x="948" d="M90 0v63l541 863h-508v121h715v-62l-543 -864h559v-121h-764z" />
<glyph unicode="{" horiz-adv-x="645" d="M82 459v162q66 -2 112 28t46 88v412q0 134 80.5 195t214.5 61v-90q-69 0 -114 -35t-48 -100l-15 -420q-3 -107 -41.5 -159t-134.5 -52v-19q96 0 134.5 -52t41.5 -159l15 -409q5 -146 162 -146v-90q-136 0 -215.5 61.5t-79.5 194.5v412q0 55 -45.5 87t-112.5 30z" />
<glyph unicode="|" horiz-adv-x="507" d="M186 -408v1883h136v-1883h-136z" />
<glyph unicode="}" horiz-adv-x="645" d="M82 -236q69 0 115 36t47 102l14 417q3 107 41.5 159t134.5 52v19q-96 0 -134.5 52t-41.5 159l-14 411q-5 144 -162 144v90q136 0 215.5 -61.5t79.5 -194.5v-412q0 -56 45 -87t113 -29v-162q-66 2 -112 -28.5t-46 -88.5v-412q0 -70 -23 -121t-64.5 -80t-92.5 -42t-115 -13 v90z" />
<glyph unicode="~" horiz-adv-x="1411" d="M131 446v148q30 31 73 63.5t117.5 64.5t143.5 32q58 0 124 -21t117 -47t118.5 -47t127.5 -21q103 0 195.5 54t138.5 106v-147q-17 -19 -45 -42t-71.5 -52t-101 -47.5t-114.5 -18.5q-59 0 -126 21t-117 46.5t-117.5 46.5t-128.5 21q-100 0 -192.5 -53t-141.5 -107z" />
<glyph unicode="&#xa1;" horiz-adv-x="520" d="M168 -360l27 1085h131l24 -1085h-182zM176 864v180h166v-180h-166z" />
<glyph unicode="&#xa2;" horiz-adv-x="1079" d="M98 684v39q0 231 112 371.5t300 152.5l-21 172h125l-20 -174q168 -14 273.5 -126t105.5 -300h-144q0 145 -76 226t-204 81q-138 0 -221.5 -97t-83.5 -277v-80q0 -193 84 -292t225 -99q130 0 205.5 79.5t75.5 225.5h139q0 -186 -105 -299.5t-274 -124.5l20 -174h-125 l21 174q-187 11 -299.5 150t-112.5 372z" />
<glyph unicode="&#xa3;" horiz-adv-x="1222" d="M100 623v137h232v289q0 178 113.5 279.5t291.5 101.5q188 0 296 -99.5t108 -281.5v-29h-148v29q0 117 -71.5 180t-182.5 63q-114 0 -185 -62.5t-71 -180.5v-289h428v-137h-428l-24 -486h639v-137h-963v137h197v486h-232z" />
<glyph unicode="&#xa4;" horiz-adv-x="1277" d="M127 266l111 111q-107 127 -107 311q0 180 107 313l-111 109l92 90l111 -110q132 106 309 106q178 0 311 -109l113 113l90 -90l-111 -111q105 -131 105 -311q0 -181 -107 -311l113 -111l-92 -90l-113 113q-136 -109 -309 -109q-171 0 -309 107l-111 -111zM250 688 q0 -160 114.5 -274.5t274.5 -114.5q159 0 274 115t115 274t-115 274t-274 115t-274 -114t-115 -275z" />
<glyph unicode="&#xa5;" horiz-adv-x="1298" d="M53 1405h176l406 -705h6l408 705h155l-297 -512h240v-115h-305l-97 -166h402v-112h-440v-500h-154v500h-440v112h401l-98 166h-303v115h237z" />
<glyph unicode="&#xa6;" horiz-adv-x="507" d="M186 328h136v-738h-136v738zM186 737v738h136v-738h-136z" />
<glyph unicode="&#xa7;" horiz-adv-x="1052" d="M94 543q0 101 46.5 172t146.5 127q-168 110 -168 274q0 139 108.5 224t307.5 85h10q181 0 285 -84.5t104 -197.5q0 -29 -2 -33h-144v23q0 31 -11 58t-38 54.5t-83 43.5t-134 16q-77 0 -131 -17t-80 -45.5t-36.5 -56t-10.5 -58.5q0 -59 38.5 -107.5t99.5 -83.5t135 -67.5 t148 -67t135 -74.5t99.5 -97.5t38.5 -128.5q0 -100 -47 -171.5t-147 -127.5q170 -111 170 -271q0 -142 -108.5 -226.5t-307.5 -84.5h-10q-182 0 -285.5 84.5t-103.5 198.5q0 7 1 19t1 14h143v-23q0 -30 11.5 -57.5t38.5 -55t82.5 -43.5t133.5 -16q62 0 109.5 11.5t74.5 29.5 t44.5 42.5t23.5 46.5t6 46q0 58 -38.5 106.5t-99.5 83.5t-135 67.5t-148 67t-135 74.5t-99.5 97.5t-38.5 128.5zM240 582q0 -41 19 -77.5t46.5 -62t75 -52.5t86.5 -44.5t100.5 -44.5t98.5 -45q149 87 149 209q0 40 -19 74.5t-46 59.5t-74.5 52t-86.5 44.5t-101.5 44.5 t-100.5 46q-147 -75 -147 -204z" />
<glyph unicode="&#xa8;" horiz-adv-x="776" d="M123 1317v168h158v-168h-158zM496 1317v168h157v-168h-157z" />
<glyph unicode="&#xa9;" horiz-adv-x="1597" d="M74 705q0 147 57.5 280.5t154.5 229.5t231 153t282 57q196 0 363 -96t264.5 -262t97.5 -362q0 -198 -97.5 -365t-264 -263.5t-363.5 -96.5t-364 96.5t-264 263.5t-97 365zM141 705q0 -182 86.5 -333t237.5 -238t334 -87q180 0 331 86.5t238.5 238t87.5 333.5 q0 136 -52.5 258t-141.5 208t-210 136.5t-253 50.5q-137 0 -259 -51.5t-209.5 -139t-138.5 -208t-51 -254.5zM463 608v191q0 165 94 253.5t246 88.5q155 0 244.5 -86.5t89.5 -253.5h-103q0 121 -60.5 183.5t-166.5 62.5q-105 0 -170.5 -57.5t-65.5 -168.5v-233 q0 -112 65 -171t171 -59q103 0 166 63t63 181h101q0 -164 -90 -251t-242 -87q-153 0 -247.5 89t-94.5 255z" />
<glyph unicode="&#xaa;" horiz-adv-x="849" d="M123 948q0 52 18 88.5t51 60t87.5 37t117 18.5t150.5 5v64q0 64 -36 92t-112 28q-71 0 -113 -26.5t-42 -79.5v-18h-94q-5 10 -5 30q0 83 71.5 131.5t182.5 48.5h11q235 0 235 -194v-348q0 -19 8.5 -28t20.5 -9q15 0 65 22v-79q-49 -27 -92 -27q-89 0 -98 106 q-75 -106 -219 -106q-207 0 -207 184zM221 948q0 -53 32.5 -76.5t102.5 -23.5q77 0 134 52.5t57 146.5v28q-83 0 -137 -4.5t-100 -17.5t-67.5 -38.5t-21.5 -66.5z" />
<glyph unicode="&#xab;" horiz-adv-x="942" d="M100 690l252 357h92l-194 -357l194 -356h-92zM473 690l254 357h92l-194 -357l194 -356h-92z" />
<glyph unicode="&#xac;" horiz-adv-x="1263" d="M76 756v151h1054v-540h-143v389h-911z" />
<glyph unicode="&#xad;" horiz-adv-x="800" d="M141 471v160h518v-160h-518z" />
<glyph unicode="&#xae;" horiz-adv-x="1597" d="M74 705q0 147 57.5 280.5t154.5 229.5t231 153t282 57q196 0 363 -96t264.5 -262t97.5 -362q0 -198 -97.5 -365t-264 -263.5t-363.5 -96.5t-364 96.5t-264 263.5t-97 365zM141 705q0 -182 86.5 -333t237.5 -238t334 -87q135 0 256.5 51t209.5 138t139.5 209.5t51.5 259.5 q0 182 -89.5 333t-240 235.5t-327.5 84.5q-182 0 -333.5 -86.5t-238 -236.5t-86.5 -330zM512 276v844h365q93 0 163 -60t70 -147q0 -70 -37 -124t-96 -80q111 -44 117 -236q4 -74 15 -109t50 -51v-32q-36 -9 -49 -9q-117 0 -117 158q0 58 -10 102t-25 68.5t-35.5 39.5 t-37.5 19.5t-35 4.5h-232v-388h-106zM618 754h248q60 0 102 40.5t42 100.5q0 57 -42 95t-102 38h-248v-274z" />
<glyph unicode="&#xaf;" horiz-adv-x="897" d="M123 1389v118h651v-118h-651z" />
<glyph unicode="&#xb0;" horiz-adv-x="806" d="M96 1118q0 124 89.5 215.5t217.5 91.5q125 0 216.5 -91.5t91.5 -215.5q0 -127 -91.5 -217t-216.5 -90t-215.5 90t-91.5 217zM199 1116q0 -86 59.5 -144.5t144.5 -58.5t145 59t60 144q0 83 -60 143t-145 60t-144.5 -58.5t-59.5 -144.5z" />
<glyph unicode="&#xb1;" horiz-adv-x="1261" d="M106 580v143h451v324h143v-324h455v-143h-455v-320h-143v320h-451zM117 0v143h1026v-143h-1026z" />
<glyph unicode="&#xb2;" horiz-adv-x="786" d="M125 860v33q0 119 113 199l223 155q90 65 90 158q0 67 -41.5 109t-118.5 42t-121.5 -48.5t-44.5 -112.5q0 -23 2 -35h-96q-2 8 -2 26q0 116 75.5 187.5t190.5 71.5q113 0 182.5 -67t69.5 -165q0 -80 -34 -134.5t-105 -104.5l-221 -160q-56 -37 -56 -66h418v-88h-524z" />
<glyph unicode="&#xb3;" horiz-adv-x="743" d="M96 1069v21h97v-23q0 -65 44.5 -100t124.5 -35q81 0 129 35.5t48 103.5t-51 101.5t-128 33.5h-90v88h88q70 0 116 33.5t46 97.5q0 63 -43 95t-112 32t-112.5 -34t-43.5 -95v-20h-94v24q0 98 70 155.5t180 57.5q112 0 181.5 -58t69.5 -155q0 -61 -31.5 -104.5t-80.5 -65.5 q129 -53 129 -192q0 -100 -77 -159.5t-194 -59.5q-122 0 -194 60t-72 163z" />
<glyph unicode="&#xb4;" horiz-adv-x="630" d="M139 1178l195 297h158v-7l-232 -290h-121z" />
<glyph unicode="&#xb5;" horiz-adv-x="1253" d="M168 -330v1377h145v-664q0 -142 68.5 -212.5t191.5 -70.5q125 0 213 90.5t88 223.5v633h146v-877q0 -35 16 -52.5t41 -17.5q42 0 99 33v-115q-59 -38 -132 -38q-159 0 -163 174q-53 -80 -141 -127t-191 -47q-72 0 -138 23t-110 67q12 -84 12 -99v-301h-145z" />
<glyph unicode="&#xb6;" horiz-adv-x="1073" d="M74 954q0 195 129 323t317 128h457v-113h-135v-1644h-117v1644h-147v-1644h-117v862q-166 25 -276.5 150t-110.5 294z" />
<glyph unicode="&#xb7;" horiz-adv-x="485" d="M160 500v182h166v-182h-166z" />
<glyph unicode="&#xb8;" horiz-adv-x="716" d="M143 -389l9 98q72 -35 145 -35q145 0 145 103q0 42 -33 66t-79 24h-43v78h49q103 0 163 -44.5t60 -138.5q0 -48 -21.5 -85.5t-56.5 -58.5t-73.5 -31.5t-77.5 -10.5q-116 0 -187 35z" />
<glyph unicode="&#xb9;" horiz-adv-x="684" d="M102 864v88h207v553h-207v66q117 6 260 61h44v-680h161v-88h-465z" />
<glyph unicode="&#xba;" horiz-adv-x="804" d="M121 1081v33q0 147 76 230t204 83q129 0 206 -83t77 -230v-33q0 -148 -77 -230.5t-206 -82.5q-127 0 -203.5 82.5t-76.5 230.5zM219 1085q0 -117 51 -175t131 -58q82 0 132.5 58t50.5 175v27q0 116 -50.5 173.5t-132.5 57.5q-80 0 -131 -58t-51 -173v-27z" />
<glyph unicode="&#xbb;" horiz-adv-x="942" d="M115 334l196 356l-196 357h94l252 -357l-252 -356h-94zM489 334l195 356l-195 357h93l252 -357l-252 -356h-93z" />
<glyph unicode="&#xbc;" horiz-adv-x="1746" d="M102 639v88h207v553h-207v66q117 6 260 61h44v-680h161v-88h-465zM356 0l861 1405h102l-854 -1405h-109zM1077 188v86q56 81 129.5 223.5t116.5 264.5h100q-40 -131 -116.5 -275.5t-128.5 -210.5h262v242q37 81 51 121h45v-363h90v-88h-90v-192h-96v192h-363z" />
<glyph unicode="&#xbd;" horiz-adv-x="1777" d="M102 639v88h207v553h-207v66q117 6 260 61h44v-680h161v-88h-465zM356 0l861 1405h102l-854 -1405h-109zM1116 2v33q0 118 113 198l221 156q90 63 90 158q0 67 -41 108t-117 41q-77 0 -121 -47.5t-44 -111.5v-35h-95q-2 8 -2 26q0 116 74.5 187t189.5 71q114 0 183 -67 t69 -164q0 -80 -33 -135t-104 -107l-223 -157q-53 -37 -53 -66h417v-88h-524z" />
<glyph unicode="&#xbe;" horiz-adv-x="1806" d="M86 854v20h96v-22q0 -65 45 -100t125 -35q81 0 128.5 35.5t47.5 103.5t-50.5 101.5t-127.5 33.5h-90v88h88q70 0 116 33.5t46 97.5q0 63 -44 95t-112 32t-111.5 -34t-43.5 -95v-20h-97v24q0 98 71 155.5t179 57.5q114 0 184 -58t70 -155q0 -61 -32 -104.5t-82 -65.5 q131 -53 131 -192q0 -100 -77 -159.5t-196 -59.5q-120 0 -192 60.5t-72 162.5zM416 0l860 1405h102l-854 -1405h-108zM1137 188v86q56 80 128.5 222.5t116.5 265.5h101q-40 -131 -117 -275.5t-129 -210.5h262v242q37 81 51 121h45v-363h91v-88h-91v-192h-96v192h-362z" />
<glyph unicode="&#xbf;" horiz-adv-x="1013" d="M94 14q0 68 17.5 125t46 96.5t62.5 73t68 62.5t62.5 57.5t46 64.5t17.5 78v117h155v-145q0 -47 -17.5 -88.5t-46 -74t-62.5 -64t-68.5 -63.5t-63 -66.5t-46 -80t-17.5 -96.5q0 -42 14 -84t43 -80.5t82.5 -63t122.5 -24.5q64 0 114.5 19.5t81 48.5t50.5 67.5t27.5 73.5 t7.5 68q0 11 -2.5 36t-2.5 29h152q6 -18 6 -71q0 -41 -11.5 -89.5t-43 -106.5t-78 -104.5t-125 -78t-176.5 -31.5q-95 0 -171 29t-120.5 72t-74 98.5t-40 103.5t-10.5 92zM408 864v183h170v-183h-170z" />
<glyph unicode="&#xc0;" horiz-adv-x="1335" d="M23 0l567 1405h155l568 -1405h-166l-133 328h-709l-131 -328h-151zM360 467h601l-295 745h-11zM377 1827v6h158l194 -297h-121z" />
<glyph unicode="&#xc1;" horiz-adv-x="1335" d="M23 0l567 1405h155l568 -1405h-166l-133 328h-709l-131 -328h-151zM360 467h601l-295 745h-11zM614 1536l195 297h158v-6l-232 -291h-121z" />
<glyph unicode="&#xc2;" horiz-adv-x="1335" d="M23 0l567 1405h155l568 -1405h-166l-133 328h-709l-131 -328h-151zM311 1556l275 256h139l276 -256h-143l-203 150l-202 -150h-142zM360 467h601l-295 745h-11z" />
<glyph unicode="&#xc3;" horiz-adv-x="1335" d="M23 0l567 1405h155l568 -1405h-166l-133 328h-709l-131 -328h-151zM279 1536q0 73 55.5 130.5t161.5 57.5q65 0 180.5 -33.5t163.5 -33.5q96 0 116 67h88q0 -75 -56.5 -131.5t-162.5 -56.5q-71 0 -178.5 34t-163.5 34q-96 0 -116 -68h-88zM360 467h601l-295 745h-11z" />
<glyph unicode="&#xc4;" horiz-adv-x="1335" d="M23 0l567 1405h155l568 -1405h-166l-133 328h-709l-131 -328h-151zM360 467h601l-295 745h-11zM399 1610v170h156v-170h-156zM770 1610v170h158v-170h-158z" />
<glyph unicode="&#xc5;" horiz-adv-x="1335" d="M23 0l567 1405h155l568 -1405h-166l-133 328h-709l-131 -328h-151zM360 467h601l-295 745h-11zM455 1683q0 86 60.5 146.5t146.5 60.5q83 0 144.5 -59.5t61.5 -147.5q0 -85 -60 -144.5t-146 -59.5q-84 0 -145.5 59.5t-61.5 144.5zM537 1683q0 -51 37 -85.5t88 -34.5 q52 0 88 36t36 87t-36.5 85.5t-87.5 34.5q-53 0 -89 -35.5t-36 -87.5z" />
<glyph unicode="&#xc6;" horiz-adv-x="2004" d="M25 0l763 1405h1100l-26 -137h-885l127 -482h686v-137h-651l135 -512h608l23 -137h-758l-86 328h-701l-178 -328h-157zM436 467h590l-188 739h-11z" />
<glyph unicode="&#xc7;" horiz-adv-x="1357" d="M145 645v115q0 176 39.5 306t113 207.5t170.5 114.5t220 37h17q111 0 204 -31.5t165 -95.5t112.5 -171t40.5 -248h-152q0 212 -102 310.5t-277 98.5q-94 0 -164.5 -26.5t-124 -85.5t-81 -160.5t-27.5 -243.5v-139q0 -142 27 -243t80 -160t123.5 -86t164.5 -27 q179 0 282 98t103 309h148q0 -138 -40 -244t-112 -170.5t-164.5 -97t-203.5 -32.5h-17q-124 0 -221.5 36.5t-171 113.5t-113 207t-39.5 308zM487 -389l9 98q72 -35 145 -35q145 0 145 103q0 42 -33 66t-79 24h-43v78h49q103 0 163 -44.5t60 -138.5q0 -48 -21.5 -85.5 t-56.5 -58.5t-73.5 -31.5t-77.5 -10.5q-116 0 -187 35z" />
<glyph unicode="&#xc8;" horiz-adv-x="1214" d="M205 0v1405h893l-23 -137h-719v-482h643v-137h-643v-512h734l26 -137h-911zM362 1827v6h158l195 -297h-121z" />
<glyph unicode="&#xc9;" horiz-adv-x="1214" d="M205 0v1405h893l-23 -137h-719v-482h643v-137h-643v-512h734l26 -137h-911zM600 1536l195 297h157v-6l-231 -291h-121z" />
<glyph unicode="&#xca;" horiz-adv-x="1214" d="M205 0v1405h893l-23 -137h-719v-482h643v-137h-643v-512h734l26 -137h-911zM297 1556l274 256h140l276 -256h-143l-203 150l-203 -150h-141z" />
<glyph unicode="&#xcb;" horiz-adv-x="1214" d="M205 0v1405h893l-23 -137h-719v-482h643v-137h-643v-512h734l26 -137h-911zM385 1610v170h156v-170h-156zM756 1610v170h157v-170h-157z" />
<glyph unicode="&#xcc;" horiz-adv-x="745" d="M88 1827v6h158l194 -297h-121zM133 0v139h164v1127h-164v139h479v-139h-163v-1127h163v-139h-479z" />
<glyph unicode="&#xcd;" horiz-adv-x="745" d="M133 0v139h164v1127h-164v139h479v-139h-163v-1127h163v-139h-479zM326 1536l194 297h158v-6l-232 -291h-120z" />
<glyph unicode="&#xce;" horiz-adv-x="745" d="M23 1556l274 256h139l277 -256h-144l-202 150l-203 -150h-141zM133 0v139h164v1127h-164v139h479v-139h-163v-1127h163v-139h-479z" />
<glyph unicode="&#xcf;" horiz-adv-x="745" d="M111 1610v170h155v-170h-155zM133 0v139h164v1127h-164v139h479v-139h-163v-1127h163v-139h-479zM481 1610v170h158v-170h-158z" />
<glyph unicode="&#xd0;" horiz-adv-x="1378" d="M76 647v131h129v627h467q125 0 226 -37.5t177.5 -115t118 -205t41.5 -297.5v-95q0 -136 -27.5 -245t-77 -185t-120 -127t-155 -74.5t-183.5 -23.5h-467v647h-129zM356 137h316q409 0 409 508v115q0 508 -409 508h-316v-490h324v-131h-324v-510z" />
<glyph unicode="&#xd1;" horiz-adv-x="1419" d="M205 0v1405h133l649 -983l84 -135l6 2v1116h137v-1405h-131l-669 1018l-66 104h-6v-1122h-137zM334 1536q0 73 55.5 130.5t161.5 57.5q65 0 180.5 -33.5t163.5 -33.5q97 0 117 67h88q0 -75 -56.5 -131.5t-162.5 -56.5q-71 0 -178.5 34t-163.5 34q-97 0 -117 -68h-88z" />
<glyph unicode="&#xd2;" horiz-adv-x="1413" d="M145 645v115q0 177 42.5 308t119 207.5t174 113t217.5 36.5h13q123 0 222 -37t175.5 -114.5t118 -207.5t41.5 -306v-115q0 -176 -41.5 -306t-117.5 -207.5t-174 -114.5t-220 -37h-13q-123 0 -221.5 36.5t-175 113.5t-118.5 207.5t-42 307.5zM297 633q0 -141 29 -242.5 t85 -160.5t128.5 -86t167.5 -27q93 0 165 26.5t128 85t86 160.5t30 244v139q0 141 -29 242.5t-84.5 160.5t-128 86t-167.5 27q-410 0 -410 -516v-139zM422 1827v6h158l194 -297h-121z" />
<glyph unicode="&#xd3;" horiz-adv-x="1413" d="M145 645v115q0 177 42.5 308t119 207.5t174 113t217.5 36.5h13q123 0 222 -37t175.5 -114.5t118 -207.5t41.5 -306v-115q0 -176 -41.5 -306t-117.5 -207.5t-174 -114.5t-220 -37h-13q-123 0 -221.5 36.5t-175 113.5t-118.5 207.5t-42 307.5zM297 633q0 -141 29 -242.5 t85 -160.5t128.5 -86t167.5 -27q93 0 165 26.5t128 85t86 160.5t30 244v139q0 141 -29 242.5t-84.5 160.5t-128 86t-167.5 27q-410 0 -410 -516v-139zM659 1536l195 297h158v-6l-232 -291h-121z" />
<glyph unicode="&#xd4;" horiz-adv-x="1413" d="M145 645v115q0 177 42.5 308t119 207.5t174 113t217.5 36.5h13q123 0 222 -37t175.5 -114.5t118 -207.5t41.5 -306v-115q0 -176 -41.5 -306t-117.5 -207.5t-174 -114.5t-220 -37h-13q-123 0 -221.5 36.5t-175 113.5t-118.5 207.5t-42 307.5zM297 633q0 -141 29 -242.5 t85 -160.5t128.5 -86t167.5 -27q93 0 165 26.5t128 85t86 160.5t30 244v139q0 141 -29 242.5t-84.5 160.5t-128 86t-167.5 27q-410 0 -410 -516v-139zM354 1556l275 256h139l276 -256h-143l-203 150l-202 -150h-142z" />
<glyph unicode="&#xd5;" horiz-adv-x="1413" d="M145 645v115q0 177 42.5 308t119 207.5t174 113t217.5 36.5h13q123 0 222 -37t175.5 -114.5t118 -207.5t41.5 -306v-115q0 -176 -41.5 -306t-117.5 -207.5t-174 -114.5t-220 -37h-13q-123 0 -221.5 36.5t-175 113.5t-118.5 207.5t-42 307.5zM297 633q0 -141 29 -242.5 t85 -160.5t128.5 -86t167.5 -27q93 0 165 26.5t128 85t86 160.5t30 244v139q0 141 -29 242.5t-84.5 160.5t-128 86t-167.5 27q-410 0 -410 -516v-139zM322 1536q0 73 55.5 130.5t161.5 57.5q65 0 180.5 -33.5t163.5 -33.5q96 0 116 67h88q0 -75 -56.5 -131.5t-162.5 -56.5 q-71 0 -178.5 34t-163.5 34q-96 0 -116 -68h-88z" />
<glyph unicode="&#xd6;" horiz-adv-x="1413" d="M145 645v115q0 177 42.5 308t119 207.5t174 113t217.5 36.5h13q123 0 222 -37t175.5 -114.5t118 -207.5t41.5 -306v-115q0 -176 -41.5 -306t-117.5 -207.5t-174 -114.5t-220 -37h-13q-123 0 -221.5 36.5t-175 113.5t-118.5 207.5t-42 307.5zM297 633q0 -141 29 -242.5 t85 -160.5t128.5 -86t167.5 -27q93 0 165 26.5t128 85t86 160.5t30 244v139q0 141 -29 242.5t-84.5 160.5t-128 86t-167.5 27q-410 0 -410 -516v-139zM442 1610v170h156v-170h-156zM813 1610v170h158v-170h-158z" />
<glyph unicode="&#xd7;" d="M211 203l319 319l-319 322l96 100l322 -321l323 321l97 -100l-322 -322l322 -319l-99 -101l-321 318l-322 -318z" />
<glyph unicode="&#xd8;" horiz-adv-x="1413" d="M141 -162l170 285q-166 173 -166 522v115q0 177 42.5 308t119 207.5t174 113t217.5 36.5h13q192 0 325 -90l109 181h108l-145 -242q160 -170 160 -514v-115q0 -176 -41.5 -306t-117.5 -207.5t-174 -114.5t-220 -37h-13q-190 0 -317 83l-133 -225h-111zM297 633 q0 -248 94 -379l572 958q-98 76 -256 76q-410 0 -410 -516v-139zM459 186q96 -69 248 -69q93 0 165 26.5t128 85t86 160.5t30 244v139q0 241 -86 369z" />
<glyph unicode="&#xd9;" horiz-adv-x="1390" d="M193 451v954h151v-950q0 -154 95.5 -246t256.5 -92q163 0 257 93t94 245v950h151v-954q0 -212 -135 -341.5t-358 -129.5h-19q-223 0 -358 128t-135 343zM416 1827v6h157l195 -297h-121z" />
<glyph unicode="&#xda;" horiz-adv-x="1390" d="M193 451v954h151v-950q0 -154 95.5 -246t256.5 -92q163 0 257 93t94 245v950h151v-954q0 -212 -135 -341.5t-358 -129.5h-19q-223 0 -358 128t-135 343zM653 1536l195 297h158v-6l-232 -291h-121z" />
<glyph unicode="&#xdb;" horiz-adv-x="1390" d="M193 451v954h151v-950q0 -154 95.5 -246t256.5 -92q163 0 257 93t94 245v950h151v-954q0 -212 -135 -341.5t-358 -129.5h-19q-223 0 -358 128t-135 343zM350 1556l275 256h139l276 -256h-143l-203 150l-202 -150h-142z" />
<glyph unicode="&#xdc;" horiz-adv-x="1390" d="M193 451v954h151v-950q0 -154 95.5 -246t256.5 -92q163 0 257 93t94 245v950h151v-954q0 -212 -135 -341.5t-358 -129.5h-19q-223 0 -358 128t-135 343zM438 1610v170h156v-170h-156zM809 1610v170h158v-170h-158z" />
<glyph unicode="&#xdd;" horiz-adv-x="1171" d="M8 1405h176l406 -705h6l408 705h155l-497 -860v-545h-154v545zM549 1536l194 297h158v-6l-231 -291h-121z" />
<glyph unicode="&#xde;" horiz-adv-x="1296" d="M205 0v1405h151v-266h439q169 0 284 -114.5t115 -281.5t-115 -281t-284 -114h-439v-348h-151zM356 485h422q108 0 187 75t79 183t-78 183t-188 75h-422v-516z" />
<glyph unicode="&#xdf;" horiz-adv-x="1257" d="M117 926v121h116q1 200 127 322t322 122q181 0 297.5 -108t116.5 -269q0 -102 -58.5 -192t-148.5 -125l4 -6q110 -42 180 -145t70 -232q0 -172 -131.5 -293t-317.5 -121h-180v121h170q132 0 222.5 90t90.5 215q0 123 -92 211t-221 88h-170v121h152q119 0 201.5 77 t82.5 187q0 113 -74 186.5t-198 73.5q-136 0 -217.5 -87.5t-81.5 -229.5v-1188h-146v1061h-116z" />
<glyph unicode="&#xe0;" horiz-adv-x="1198" d="M109 281q0 83 30 142t84 96.5t144.5 59t195.5 29.5t254 8v115q0 119 -62 167t-196 48q-124 0 -196 -47.5t-72 -142.5v-29h-141q-5 35 -5 59q0 123 119.5 202t296.5 79h12q390 0 390 -313v-584q0 -35 15 -52.5t40 -17.5q41 0 98 33v-115q-62 -38 -143 -38q-147 0 -154 196 q-122 -196 -375 -196q-335 0 -335 301zM254 272q0 -88 56 -130t175 -42q134 0 233 91t99 249v58q-315 0 -439 -45.5t-124 -180.5zM285 1468v7h157l195 -297h-121z" />
<glyph unicode="&#xe1;" horiz-adv-x="1198" d="M109 281q0 83 30 142t84 96.5t144.5 59t195.5 29.5t254 8v115q0 119 -62 167t-196 48q-124 0 -196 -47.5t-72 -142.5v-29h-141q-5 35 -5 59q0 123 119.5 202t296.5 79h12q390 0 390 -313v-584q0 -35 15 -52.5t40 -17.5q41 0 98 33v-115q-62 -38 -143 -38q-147 0 -154 196 q-122 -196 -375 -196q-335 0 -335 301zM254 272q0 -88 56 -130t175 -42q134 0 233 91t99 249v58q-315 0 -439 -45.5t-124 -180.5zM504 1178l194 297h158v-7l-231 -290h-121z" />
<glyph unicode="&#xe2;" horiz-adv-x="1198" d="M109 281q0 83 30 142t84 96.5t144.5 59t195.5 29.5t254 8v115q0 119 -62 167t-196 48q-124 0 -196 -47.5t-72 -142.5v-29h-141q-5 35 -5 59q0 123 119.5 202t296.5 79h12q390 0 390 -313v-584q0 -35 15 -52.5t40 -17.5q41 0 98 33v-115q-62 -38 -143 -38q-147 0 -154 196 q-122 -196 -375 -196q-335 0 -335 301zM221 1178l277 297h137l276 -297h-143l-201 190l-205 -190h-141zM254 272q0 -88 56 -130t175 -42q134 0 233 91t99 249v58q-315 0 -439 -45.5t-124 -180.5z" />
<glyph unicode="&#xe3;" horiz-adv-x="1198" d="M109 281q0 83 30 142t84 96.5t144.5 59t195.5 29.5t254 8v115q0 119 -62 167t-196 48q-124 0 -196 -47.5t-72 -142.5v-29h-141q-5 35 -5 59q0 123 119.5 202t296.5 79h12q390 0 390 -313v-584q0 -35 15 -52.5t40 -17.5q41 0 98 33v-115q-62 -38 -143 -38q-147 0 -154 196 q-122 -196 -375 -196q-335 0 -335 301zM184 1278q0 74 54.5 131t160.5 57q67 0 184 -33.5t162 -33.5q95 0 115 67h88q0 -75 -56 -131.5t-161 -56.5q-69 0 -179.5 34t-164.5 34q-95 0 -115 -68h-88zM254 272q0 -88 56 -130t175 -42q134 0 233 91t99 249v58q-315 0 -439 -45.5 t-124 -180.5z" />
<glyph unicode="&#xe4;" horiz-adv-x="1198" d="M109 281q0 83 30 142t84 96.5t144.5 59t195.5 29.5t254 8v115q0 119 -62 167t-196 48q-124 0 -196 -47.5t-72 -142.5v-29h-141q-5 35 -5 59q0 123 119.5 202t296.5 79h12q390 0 390 -313v-584q0 -35 15 -52.5t40 -17.5q41 0 98 33v-115q-62 -38 -143 -38q-147 0 -154 196 q-122 -196 -375 -196q-335 0 -335 301zM254 272q0 -88 56 -130t175 -42q134 0 233 91t99 249v58q-315 0 -439 -45.5t-124 -180.5zM303 1317v168h158v-168h-158zM676 1317v168h158v-168h-158z" />
<glyph unicode="&#xe5;" horiz-adv-x="1198" d="M109 281q0 83 30 142t84 96.5t144.5 59t195.5 29.5t254 8v115q0 119 -62 167t-196 48q-124 0 -196 -47.5t-72 -142.5v-29h-141q-5 35 -5 59q0 123 119.5 202t296.5 79h12q390 0 390 -313v-584q0 -35 15 -52.5t40 -17.5q41 0 98 33v-115q-62 -38 -143 -38q-147 0 -154 196 q-122 -196 -375 -196q-335 0 -335 301zM254 272q0 -88 56 -130t175 -42q134 0 233 91t99 249v58q-315 0 -439 -45.5t-124 -180.5zM360 1321q0 86 60.5 146.5t146.5 60.5q83 0 145 -60.5t62 -146.5q0 -85 -60.5 -145t-146.5 -60q-84 0 -145.5 60t-61.5 145zM442 1321 q0 -52 36.5 -86.5t88.5 -34.5q53 0 89 35t36 86q0 52 -36.5 87.5t-88.5 35.5q-53 0 -89 -35.5t-36 -87.5z" />
<glyph unicode="&#xe6;" horiz-adv-x="1828" d="M109 281q0 83 30 142t84 96.5t144.5 59t195.5 29.5t254 8v115q0 119 -62 167t-196 48q-124 0 -196 -47.5t-72 -142.5v-29h-141q-5 35 -5 59q0 123 119.5 202t296.5 79h12q276 0 353 -160q123 160 342 160h10q183 0 301.5 -116.5t118.5 -315.5v-137h-735q2 -192 83 -295 t232 -103q130 0 205.5 78.5t75.5 208.5h139q0 -184 -118 -295.5t-300 -111.5h-8q-136 0 -239.5 63t-160.5 182q-60 -122 -177.5 -183.5t-250.5 -61.5q-335 0 -335 301zM254 272q0 -88 56 -130t175 -42q134 0 233 91t99 249v58q-315 0 -439 -45.5t-124 -180.5zM965 616h589 q0 163 -74.5 246.5t-209.5 83.5q-127 0 -209.5 -84.5t-95.5 -245.5z" />
<glyph unicode="&#xe7;" horiz-adv-x="1118" d="M127 504v39q0 242 123 383t323 141h11q183 0 301.5 -116.5t118.5 -311.5h-144q0 145 -76.5 226t-203.5 81q-139 0 -223.5 -97.5t-84.5 -277.5v-79q0 -193 85 -292.5t227 -99.5q128 0 203 80t75 226h142q0 -197 -116.5 -311.5t-301.5 -114.5h-13q-202 0 -324 141t-122 383 zM358 -389l9 98q72 -35 145 -35q145 0 145 103q0 42 -33 66t-79 24h-43v78h49q103 0 163 -44.5t60 -138.5q0 -48 -21.5 -85.5t-56.5 -58.5t-73.5 -31.5t-77.5 -10.5q-116 0 -187 35z" />
<glyph unicode="&#xe8;" horiz-adv-x="1138" d="M127 506v35q0 243 123.5 384.5t327.5 141.5h10q184 0 302 -117t118 -315v-137h-736q1 -192 83 -295t233 -103q129 0 204.5 78.5t75.5 208.5h140q0 -185 -118.5 -296t-297.5 -111h-10q-207 0 -331 141t-124 385zM274 616h590q0 163 -74.5 246.5t-207.5 83.5 q-128 0 -210.5 -84.5t-97.5 -245.5zM305 1468v7h158l194 -297h-120z" />
<glyph unicode="&#xe9;" horiz-adv-x="1138" d="M127 506v35q0 243 123.5 384.5t327.5 141.5h10q184 0 302 -117t118 -315v-137h-736q1 -192 83 -295t233 -103q129 0 204.5 78.5t75.5 208.5h140q0 -185 -118.5 -296t-297.5 -111h-10q-207 0 -331 141t-124 385zM274 616h590q0 163 -74.5 246.5t-207.5 83.5 q-128 0 -210.5 -84.5t-97.5 -245.5zM526 1178l195 297h158v-7l-232 -290h-121z" />
<glyph unicode="&#xea;" horiz-adv-x="1138" d="M127 506v35q0 243 123.5 384.5t327.5 141.5h10q184 0 302 -117t118 -315v-137h-736q1 -192 83 -295t233 -103q129 0 204.5 78.5t75.5 208.5h140q0 -185 -118.5 -296t-297.5 -111h-10q-207 0 -331 141t-124 385zM244 1178l276 297h137l277 -297h-143l-201 190l-205 -190 h-141zM274 616h590q0 163 -74.5 246.5t-207.5 83.5q-128 0 -210.5 -84.5t-97.5 -245.5z" />
<glyph unicode="&#xeb;" horiz-adv-x="1138" d="M127 506v35q0 243 123.5 384.5t327.5 141.5h10q184 0 302 -117t118 -315v-137h-736q1 -192 83 -295t233 -103q129 0 204.5 78.5t75.5 208.5h140q0 -185 -118.5 -296t-297.5 -111h-10q-207 0 -331 141t-124 385zM274 616h590q0 163 -74.5 246.5t-207.5 83.5 q-128 0 -210.5 -84.5t-97.5 -245.5zM326 1317v168h157v-168h-157zM698 1317v168h158v-168h-158z" />
<glyph unicode="&#xec;" horiz-adv-x="524" d="M-23 1468v7h158l195 -297h-121zM190 0v1047h146v-1047h-146z" />
<glyph unicode="&#xed;" horiz-adv-x="524" d="M190 0v1047h146v-1047h-146zM199 1178l194 297h158v-7l-232 -290h-120z" />
<glyph unicode="&#xee;" horiz-adv-x="524" d="M-84 1178l277 297h137l276 -297h-143l-201 190l-205 -190h-141zM190 0v1047h146v-1047h-146z" />
<glyph unicode="&#xef;" horiz-adv-x="524" d="M-2 1317v168h158v-168h-158zM190 0v1047h146v-1047h-146zM371 1317v168h157v-168h-157z" />
<glyph unicode="&#xf0;" horiz-adv-x="1179" d="M129 498v51q0 230 124 375t316 145q65 0 133 -18q-92 109 -204 204l-197 -96l-63 58l200 96q-30 24 -65 48t-70.5 47t-50.5 34l96 45q111 -63 195 -121l205 96l55 -57l-193 -92q439 -349 439 -764v-51q0 -238 -124 -378t-325 -140h-14q-207 0 -332 138t-125 380zM274 500 q0 -192 85.5 -296t230.5 -104q141 0 227 103t86 297v47q0 192 -85 295.5t-228 103.5q-144 0 -230 -102.5t-86 -296.5v-47z" />
<glyph unicode="&#xf1;" horiz-adv-x="1214" d="M180 0v1047h103l24 -156q59 85 149.5 130.5t196.5 45.5q173 0 276 -96t103 -283v-688h-143v655q0 149 -68.5 220t-191.5 71q-126 0 -214.5 -90.5t-88.5 -222.5v-633h-146zM223 1278q0 74 54.5 131t160.5 57q67 0 184 -33.5t162 -33.5q95 0 115 67h88q0 -75 -56 -131.5 t-161 -56.5q-69 0 -179.5 34t-164.5 34q-95 0 -115 -68h-88z" />
<glyph unicode="&#xf2;" horiz-adv-x="1177" d="M129 498v51q0 242 125 380t330 138h8q206 0 331.5 -138.5t125.5 -379.5v-51q0 -241 -125.5 -379.5t-329.5 -138.5h-8q-206 0 -331.5 138t-125.5 380zM274 500q0 -192 85.5 -296t230.5 -104q141 0 227 103t86 297v47q0 192 -85 295.5t-228 103.5q-144 0 -230 -102.5 t-86 -296.5v-47zM305 1468v7h158l194 -297h-120z" />
<glyph unicode="&#xf3;" horiz-adv-x="1177" d="M129 498v51q0 242 125 380t330 138h8q206 0 331.5 -138.5t125.5 -379.5v-51q0 -241 -125.5 -379.5t-329.5 -138.5h-8q-206 0 -331.5 138t-125.5 380zM274 500q0 -192 85.5 -296t230.5 -104q141 0 227 103t86 297v47q0 192 -85 295.5t-228 103.5q-144 0 -230 -102.5 t-86 -296.5v-47zM526 1178l195 297h158v-7l-232 -290h-121z" />
<glyph unicode="&#xf4;" horiz-adv-x="1177" d="M129 498v51q0 242 125 380t330 138h8q206 0 331.5 -138.5t125.5 -379.5v-51q0 -241 -125.5 -379.5t-329.5 -138.5h-8q-206 0 -331.5 138t-125.5 380zM244 1178l276 297h137l277 -297h-143l-201 190l-205 -190h-141zM274 500q0 -192 85.5 -296t230.5 -104q141 0 227 103 t86 297v47q0 192 -85 295.5t-228 103.5q-144 0 -230 -102.5t-86 -296.5v-47z" />
<glyph unicode="&#xf5;" horiz-adv-x="1177" d="M129 498v51q0 242 125 380t330 138h8q206 0 331.5 -138.5t125.5 -379.5v-51q0 -241 -125.5 -379.5t-329.5 -138.5h-8q-206 0 -331.5 138t-125.5 380zM207 1278q0 74 54.5 131t160.5 57q67 0 184 -33.5t162 -33.5q95 0 115 67h88q0 -75 -56 -131.5t-161 -56.5 q-69 0 -179.5 34t-164.5 34q-95 0 -115 -68h-88zM274 500q0 -192 85.5 -296t230.5 -104q141 0 227 103t86 297v47q0 192 -85 295.5t-228 103.5q-144 0 -230 -102.5t-86 -296.5v-47z" />
<glyph unicode="&#xf6;" horiz-adv-x="1177" d="M129 498v51q0 242 125 380t330 138h8q206 0 331.5 -138.5t125.5 -379.5v-51q0 -241 -125.5 -379.5t-329.5 -138.5h-8q-206 0 -331.5 138t-125.5 380zM274 500q0 -192 85.5 -296t230.5 -104q141 0 227 103t86 297v47q0 192 -85 295.5t-228 103.5q-144 0 -230 -102.5 t-86 -296.5v-47zM326 1317v168h157v-168h-157zM698 1317v168h158v-168h-158z" />
<glyph unicode="&#xf7;" horiz-adv-x="1261" d="M106 451v143h1049v-143h-1049zM555 127v160h150v-160h-150zM555 758v162h150v-162h-150z" />
<glyph unicode="&#xf8;" horiz-adv-x="1177" d="M129 498v51q0 242 125 380t330 138h8q138 0 242 -63l94 151h106l-129 -207q144 -144 144 -399v-51q0 -241 -125.5 -379.5t-329.5 -138.5h-8q-138 0 -242 63l-104 -166h-107l139 223q-143 140 -143 398zM274 500q0 -173 72 -279l420 672q-74 53 -176 53 q-144 0 -230 -102.5t-86 -296.5v-47zM412 154q76 -54 178 -54q141 0 227 103t86 297v47q0 173 -74 280z" />
<glyph unicode="&#xf9;" horiz-adv-x="1265" d="M170 358v689h145v-656q0 -149 69 -220t194 -71t213 90.5t88 223.5v633h145v-877q0 -35 15 -52.5t40 -17.5q42 0 99 33v-115q-59 -38 -131 -38q-160 0 -164 174q-54 -82 -143 -128t-197 -46q-165 0 -269 96.5t-104 281.5zM303 1468v7h158l194 -297h-120z" />
<glyph unicode="&#xfa;" horiz-adv-x="1265" d="M170 358v689h145v-656q0 -149 69 -220t194 -71t213 90.5t88 223.5v633h145v-877q0 -35 15 -52.5t40 -17.5q42 0 99 33v-115q-59 -38 -131 -38q-160 0 -164 174q-54 -82 -143 -128t-197 -46q-165 0 -269 96.5t-104 281.5zM524 1178l195 297h158v-7l-232 -290h-121z" />
<glyph unicode="&#xfb;" horiz-adv-x="1265" d="M170 358v689h145v-656q0 -149 69 -220t194 -71t213 90.5t88 223.5v633h145v-877q0 -35 15 -52.5t40 -17.5q42 0 99 33v-115q-59 -38 -131 -38q-160 0 -164 174q-54 -82 -143 -128t-197 -46q-165 0 -269 96.5t-104 281.5zM242 1178l276 297h137l277 -297h-144l-200 190 l-205 -190h-141z" />
<glyph unicode="&#xfc;" horiz-adv-x="1265" d="M170 358v689h145v-656q0 -149 69 -220t194 -71t213 90.5t88 223.5v633h145v-877q0 -35 15 -52.5t40 -17.5q42 0 99 33v-115q-59 -38 -131 -38q-160 0 -164 174q-54 -82 -143 -128t-197 -46q-165 0 -269 96.5t-104 281.5zM324 1317v168h157v-168h-157zM696 1317v168h158 v-168h-158z" />
<glyph unicode="&#xfd;" horiz-adv-x="1048" d="M41 1047h156l329 -836h9l329 836h144l-404 -1014q-31 -78 -54 -129t-50 -102.5t-52 -81.5t-56 -55t-66 -35.5t-78 -10.5q-70 0 -135 29v123q72 -29 106 -29q80 0 128 57.5t106 214.5zM467 1178l195 297h157v-7l-231 -290h-121z" />
<glyph unicode="&#xfe;" horiz-adv-x="1191" d="M180 -371v1846h146v-555q117 147 319 147q191 0 305.5 -141t114.5 -408v-22q0 -241 -115.5 -378.5t-304.5 -137.5q-210 0 -319 159v-510h-146zM324 506q0 -204 80 -305t219 -101q138 0 217.5 102.5t79.5 303.5v20q0 216 -79.5 318t-217.5 102q-141 0 -220 -101.5 t-79 -320.5v-18z" />
<glyph unicode="&#xff;" horiz-adv-x="1048" d="M41 1047h156l329 -836h9l329 836h144l-404 -1014q-31 -78 -54 -129t-50 -102.5t-52 -81.5t-56 -55t-66 -35.5t-78 -10.5q-70 0 -135 29v123q72 -29 106 -29q80 0 128 57.5t106 214.5zM266 1317v168h158v-168h-158zM639 1317v168h158v-168h-158z" />
<glyph unicode="&#x152;" horiz-adv-x="2125" d="M145 645v115q0 177 42 307.5t118.5 207.5t175 113.5t221.5 36.5q276 0 414 -172v152h893l-22 -137h-719v-482h643v-137h-643v-512h733l27 -137h-912v152q-133 -172 -409 -172q-125 0 -225 36.5t-177 113.5t-118.5 207.5t-41.5 307.5zM297 633q0 -141 29 -242.5t85 -160.5 t128.5 -86t167.5 -27q93 0 165 26.5t128 85t86 160.5t30 244v139q0 141 -29 242.5t-84.5 160.5t-128 86t-167.5 27q-410 0 -410 -516v-139z" />
<glyph unicode="&#x153;" horiz-adv-x="1916" d="M129 498v51q0 242 125 380t330 138h8q127 0 227.5 -56.5t159.5 -160.5q56 104 153.5 160.5t223.5 56.5h10q184 0 302 -117t118 -315v-137h-737q3 -192 84.5 -295t232.5 -103q130 0 205.5 78.5t75.5 208.5h139q0 -185 -118.5 -296t-299.5 -111h-8q-129 0 -227.5 56 t-155.5 161q-57 -104 -156.5 -160.5t-226.5 -56.5h-8q-206 0 -331.5 138t-125.5 380zM274 500q0 -192 85.5 -296t230.5 -104q141 0 227 103t86 297v47q0 192 -85 295.5t-228 103.5q-144 0 -230 -102.5t-86 -296.5v-47zM1053 616h589q0 163 -74.5 246.5t-209.5 83.5 q-128 0 -210 -84.5t-95 -245.5z" />
<glyph unicode="&#x178;" horiz-adv-x="1171" d="M8 1405h176l406 -705h6l408 705h155l-497 -860v-545h-154v545zM334 1610v170h155v-170h-155zM705 1610v170h157v-170h-157z" />
<glyph unicode="&#x2c6;" horiz-adv-x="1097" d="M188 1178l277 297h137l277 -297h-144l-200 190l-205 -190h-142z" />
<glyph unicode="&#x2dc;" horiz-adv-x="845" d="M41 1278q0 74 54.5 131t162.5 57q66 0 183 -33.5t161 -33.5q95 0 115 67h88q0 -75 -56 -131.5t-161 -56.5q-69 0 -179.5 34t-164.5 34q-95 0 -115 -68h-88z" />
<glyph unicode="&#x2000;" horiz-adv-x="945" />
<glyph unicode="&#x2001;" horiz-adv-x="1890" />
<glyph unicode="&#x2002;" horiz-adv-x="945" />
<glyph unicode="&#x2003;" horiz-adv-x="1890" />
<glyph unicode="&#x2004;" horiz-adv-x="630" />
<glyph unicode="&#x2005;" horiz-adv-x="472" />
<glyph unicode="&#x2006;" horiz-adv-x="315" />
<glyph unicode="&#x2007;" horiz-adv-x="315" />
<glyph unicode="&#x2008;" horiz-adv-x="236" />
<glyph unicode="&#x2009;" horiz-adv-x="378" />
<glyph unicode="&#x200a;" horiz-adv-x="105" />
<glyph unicode="&#x2010;" horiz-adv-x="800" d="M141 471v160h518v-160h-518z" />
<glyph unicode="&#x2011;" horiz-adv-x="800" d="M141 471v160h518v-160h-518z" />
<glyph unicode="&#x2012;" horiz-adv-x="800" d="M141 471v160h518v-160h-518z" />
<glyph unicode="&#x2013;" horiz-adv-x="1024" d="M0 475v154h1024v-154h-1024z" />
<glyph unicode="&#x2014;" horiz-adv-x="1863" d="M0 475v152h1864v-152h-1864z" />
<glyph unicode="&#x2018;" horiz-adv-x="458" d="M127 995v129q0 188 121 306l65 -52q-84 -87 -84 -192h84v-191h-186z" />
<glyph unicode="&#x2019;" horiz-adv-x="448" d="M147 1022q86 89 86 190h-86v193h187v-129q0 -192 -121 -305z" />
<glyph unicode="&#x201a;" horiz-adv-x="487" d="M162 0v193h188v-130q0 -189 -123 -307l-65 51q86 92 86 193h-86z" />
<glyph unicode="&#x201c;" horiz-adv-x="714" d="M111 995v129q0 189 122 306l66 -52q-86 -89 -86 -192h86v-191h-188zM379 995v129q0 188 123 306l65 -52q-86 -89 -86 -192h86v-191h-188z" />
<glyph unicode="&#x201d;" horiz-adv-x="749" d="M147 1022q86 89 86 190h-86v193h187v-129q0 -192 -121 -305zM416 1022q86 89 86 190h-86v193h186v-129q0 -192 -121 -305z" />
<glyph unicode="&#x201e;" horiz-adv-x="753" d="M162 0v193h188v-130q0 -189 -123 -307l-65 51q86 92 86 193h-86zM430 0v193h188v-130q0 -190 -122 -307l-66 51q86 92 86 193h-86z" />
<glyph unicode="&#x2022;" horiz-adv-x="1228" d="M317 705q0 124 86.5 211.5t208.5 87.5t210.5 -88t88.5 -211q0 -125 -88.5 -213.5t-210.5 -88.5q-121 0 -208 89.5t-87 212.5z" />
<glyph unicode="&#x2026;" horiz-adv-x="1427" d="M162 0v182h168v-182h-168zM631 0v182h168v-182h-168zM1098 0v182h168v-182h-168z" />
<glyph unicode="&#x202f;" horiz-adv-x="378" />
<glyph unicode="&#x2039;" horiz-adv-x="569" d="M100 690l252 357h92l-194 -357l194 -356h-92z" />
<glyph unicode="&#x203a;" horiz-adv-x="569" d="M115 334l196 356l-196 357h94l250 -357l-250 -356h-94z" />
<glyph unicode="&#x205f;" horiz-adv-x="472" />
<glyph unicode="&#x20ac;" horiz-adv-x="1150" d="M61 498v114h191q-4 46 -4 90q0 46 4 78h-191v115h207q52 236 225 382t422 146q67 0 146 -12v-141q-66 16 -137 16q-190 0 -322.5 -107t-179.5 -284h434v-115h-455q-4 -25 -4 -80q0 -38 4 -88h455v-114h-430q51 -176 183 -279.5t321 -103.5q60 0 131 18v-137 q-69 -14 -154 -14q-242 0 -412.5 142.5t-224.5 373.5h-209z" />
<glyph unicode="&#x2122;" horiz-adv-x="1837" d="M127 1307v98h627v-98h-258v-715h-109v715h-260zM799 592v813h155l277 -660l282 660h154v-813h-108l-3 670l-288 -670h-92l-283 661v-661h-94z" />
<glyph unicode="&#x25fc;" horiz-adv-x="1044" d="M0 0v1044h1044v-1044h-1044z" />
<glyph unicode="&#xfb03;" horiz-adv-x="1792" d="M106 926v121h115v182q0 131 59 196.5t166 65.5q98 0 164 -37v-115q-72 31 -116 31q-65 0 -96 -29.5t-31 -105.5v-188h475v182q0 131 59 196.5t166 65.5q95 0 164 -37v-115q-72 31 -117 31q-65 0 -96 -29.5t-31 -105.5v-188h244v-121h-244v-926h-145v926h-475v-926h-146 v926h-115zM1446 1333v142h158v-142h-158zM1452 0v1047h145v-1047h-145z" />
<glyph unicode="&#xfb04;" horiz-adv-x="1796" d="M106 926v121h115v182q0 131 59 196.5t166 65.5q98 0 164 -37v-115q-72 31 -116 31q-65 0 -96 -29.5t-31 -105.5v-188h475v182q0 131 59 196.5t166 65.5q95 0 164 -37v-115q-72 31 -117 31q-65 0 -96 -29.5t-31 -105.5v-188h244v-121h-244v-926h-145v926h-475v-926h-146 v926h-115zM1458 0v1475h146v-1475h-146z" />
</font>
</defs>
</svg>
