<?xml version="1.0" encoding="utf-8"?>
<svg width="370" height="215" viewBox="0 0 370 215" fill="none" xmlns="http://www.w3.org/2000/svg">
<path fill-rule="evenodd" clip-rule="evenodd" d="M56.7889 201.48C56.7889 201.48 51.3006 195.633 51.3006 188.42C51.3006 181.207 56.7889 175.36 56.7889 175.36C56.7889 175.36 62.2771 181.207 62.2771 188.42C62.2771 195.633 56.7889 201.48 56.7889 201.48ZM43.2918 208.781C48.3949 213.881 56.4125 214.137 56.4125 214.137C56.4125 214.137 56.1564 206.124 51.0533 201.023C45.9502 195.923 37.9326 195.667 37.9326 195.667C37.9326 195.667 38.1887 203.68 43.2918 208.781ZM69.8701 208.781C64.767 213.881 56.7494 214.137 56.7494 214.137C56.7494 214.137 57.0055 206.124 62.1086 201.023C67.2116 195.923 75.2293 195.667 75.2293 195.667C75.2293 195.667 74.9732 203.68 69.8701 208.781Z" fill="#FAB999"/>
<path fill-rule="evenodd" clip-rule="evenodd" d="M18.856 201.48C18.856 201.48 13.3678 195.633 13.3678 188.42C13.3678 181.207 18.856 175.36 18.856 175.36C18.856 175.36 24.3443 181.207 24.3443 188.42C24.3443 195.633 18.856 201.48 18.856 201.48ZM5.35916 208.781C10.4622 213.881 18.4799 214.137 18.4799 214.137C18.4799 214.137 18.2238 206.124 13.1207 201.023C8.01763 195.923 0 195.667 0 195.667C0 195.667 0.256088 203.68 5.35916 208.781ZM31.9375 208.781C26.8344 213.881 18.8168 214.137 18.8168 214.137C18.8168 214.137 19.0729 206.124 24.176 201.023C29.279 195.923 37.2967 195.667 37.2967 195.667C37.2967 195.667 37.0406 203.68 31.9375 208.781Z" fill="#FAB999"/>
<path fill-rule="evenodd" clip-rule="evenodd" d="M296.218 192.962C296.218 192.962 306.588 192.631 313.188 186.035C319.788 179.438 320.119 169.074 320.119 169.074C320.119 169.074 309.749 169.405 303.149 176.002C296.549 182.598 296.218 192.962 296.218 192.962ZM295.782 192.962C295.782 192.962 285.412 192.631 278.812 186.035C272.212 179.438 271.881 169.074 271.881 169.074C271.881 169.074 282.25 169.405 288.851 176.002C295.451 182.598 295.782 192.962 295.782 192.962ZM295.782 213.908C295.782 213.908 285.412 213.577 278.812 206.98C272.212 200.384 271.881 190.02 271.881 190.02C271.881 190.02 282.25 190.351 288.851 196.947C295.451 203.544 295.782 213.908 295.782 213.908ZM313.188 206.98C306.588 213.577 296.218 213.908 296.218 213.908C296.218 213.908 296.549 203.544 303.149 196.947C309.749 190.351 320.119 190.02 320.119 190.02C320.119 190.02 319.788 200.384 313.188 206.98Z" fill="#FAB999"/>
<path fill-rule="evenodd" clip-rule="evenodd" d="M345.304 176.592C345.304 176.592 338.206 169.029 338.206 159.701C338.206 150.372 345.304 142.809 345.304 142.809C345.304 142.809 352.403 150.372 352.403 159.701C352.403 169.029 345.304 176.592 345.304 176.592ZM327.848 186.035C334.448 192.631 344.818 192.962 344.818 192.962C344.818 192.962 344.487 182.598 337.886 176.002C331.286 169.405 320.916 169.074 320.916 169.074C320.916 169.074 321.248 179.438 327.848 186.035ZM327.848 206.98C334.448 213.577 344.818 213.908 344.818 213.908C344.818 213.908 344.487 203.544 337.886 196.947C331.286 190.351 320.916 190.02 320.916 190.02C320.916 190.02 321.248 200.384 327.848 206.98ZM345.254 213.908C345.254 213.908 355.623 213.577 362.224 206.98C368.824 200.384 369.155 190.02 369.155 190.02C369.155 190.02 358.785 190.351 352.185 196.947C345.585 203.544 345.254 213.908 345.254 213.908ZM362.224 186.035C355.623 192.631 345.254 192.962 345.254 192.962C345.254 192.962 345.585 182.598 352.185 176.002C358.785 169.405 369.155 169.074 369.155 169.074C369.155 169.074 368.824 179.438 362.224 186.035Z" fill="#FAB999"/>
<path fill-rule="evenodd" clip-rule="evenodd" d="M149.162 175.977C149.162 175.977 142.064 168.415 142.064 159.086C142.064 149.757 149.162 142.195 149.162 142.195C149.162 142.195 156.26 149.757 156.26 159.086C156.26 168.415 149.162 175.977 149.162 175.977ZM131.705 185.42C138.306 192.017 148.675 192.348 148.675 192.348C148.675 192.348 148.344 181.984 141.744 175.387C135.144 168.791 124.774 168.46 124.774 168.46C124.774 168.46 125.105 178.824 131.705 185.42ZM131.705 206.365C138.306 212.962 148.675 213.293 148.675 213.293C148.675 213.293 148.344 202.929 141.744 196.332C135.144 189.736 124.774 189.405 124.774 189.405C124.774 189.405 125.105 199.769 131.705 206.365ZM149.111 213.293C149.111 213.293 159.481 212.962 166.081 206.365C172.681 199.769 173.013 189.405 173.013 189.405C173.013 189.405 162.643 189.736 156.043 196.332C149.442 202.929 149.111 213.293 149.111 213.293ZM166.081 185.42C159.481 192.017 149.111 192.348 149.111 192.348C149.111 192.348 149.442 181.984 156.043 175.387C162.643 168.791 173.013 168.46 173.013 168.46C173.013 168.46 172.681 178.824 166.081 185.42Z" fill="#FAB999"/>
<path fill-rule="evenodd" clip-rule="evenodd" d="M100.127 175.977C100.127 175.977 93.0282 168.415 93.0282 159.086C93.0282 149.757 100.127 142.195 100.127 142.195C100.127 142.195 107.225 149.757 107.225 159.086C107.225 168.415 100.127 175.977 100.127 175.977ZM82.6701 185.42C89.2703 192.017 99.6401 192.348 99.6401 192.348C99.6401 192.348 99.3089 181.984 92.7087 175.387C86.1085 168.791 75.7386 168.46 75.7386 168.46C75.7386 168.46 76.0699 178.824 82.6701 185.42ZM82.6701 206.366C89.2703 212.962 99.6401 213.293 99.6401 213.293C99.6401 213.293 99.3089 202.929 92.7087 196.333C86.1085 189.736 75.7386 189.405 75.7386 189.405C75.7386 189.405 76.0699 199.769 82.6701 206.366ZM100.076 213.293C100.076 213.293 110.446 212.962 117.046 206.366C123.646 199.769 123.977 189.405 123.977 189.405C123.977 189.405 113.607 189.736 107.007 196.333C100.407 202.929 100.076 213.293 100.076 213.293ZM117.046 185.42C110.446 192.017 100.076 192.348 100.076 192.348C100.076 192.348 100.407 181.984 107.007 175.387C113.607 168.791 123.977 168.46 123.977 168.46C123.977 168.46 123.646 178.824 117.046 185.42Z" fill="#FAB999"/>
<path fill-rule="evenodd" clip-rule="evenodd" d="M197.711 192.348C197.711 192.348 187.342 192.017 180.741 185.42C174.141 178.824 173.81 168.46 173.81 168.46C173.81 168.46 184.18 168.791 190.78 175.387C197.38 181.984 197.711 192.348 197.711 192.348ZM197.711 213.293C197.711 213.293 187.342 212.962 180.741 206.366C174.141 199.769 173.81 189.405 173.81 189.405C173.81 189.405 184.18 189.736 190.78 196.333C197.38 202.929 197.711 213.293 197.711 213.293ZM215.117 206.366C208.517 212.962 198.147 213.293 198.147 213.293C198.147 213.293 198.479 202.929 205.079 196.333C211.679 189.736 222.049 189.405 222.049 189.405C222.049 189.405 221.718 199.769 215.117 206.366ZM198.147 192.348C198.147 192.348 208.517 192.017 215.117 185.42C221.718 178.824 222.049 168.46 222.049 168.46C222.049 168.46 211.679 168.791 205.079 175.387C198.479 181.984 198.147 192.348 198.147 192.348Z" fill="#FAB999"/>
<path fill-rule="evenodd" clip-rule="evenodd" d="M296.269 155.748C296.269 155.748 289.17 148.185 289.17 138.856C289.17 129.528 296.269 121.965 296.269 121.965C296.269 121.965 303.367 129.528 303.367 138.856C303.367 148.185 296.269 155.748 296.269 155.748ZM278.812 165.191C285.412 171.787 295.782 172.118 295.782 172.118C295.782 172.118 295.451 161.754 288.851 155.158C282.25 148.561 271.881 148.23 271.881 148.23C271.881 148.23 272.212 158.594 278.812 165.191ZM313.188 165.191C306.588 171.787 296.218 172.118 296.218 172.118C296.218 172.118 296.549 161.754 303.149 155.158C309.749 148.561 320.119 148.23 320.119 148.23C320.119 148.23 319.788 158.594 313.188 165.191Z" fill="#FAB999"/>
<path fill-rule="evenodd" clip-rule="evenodd" d="M198.198 155.133C198.198 155.133 191.1 147.571 191.1 138.242C191.1 128.913 198.198 121.35 198.198 121.35C198.198 121.35 205.297 128.913 205.297 138.242C205.297 147.571 198.198 155.133 198.198 155.133ZM180.741 164.576C187.342 171.172 197.711 171.503 197.711 171.503C197.711 171.503 197.38 161.139 190.78 154.543C184.18 147.946 173.81 147.615 173.81 147.615C173.81 147.615 174.141 157.979 180.741 164.576ZM215.117 164.576C208.517 171.172 198.147 171.503 198.147 171.503C198.147 171.503 198.479 161.139 205.079 154.543C211.679 147.946 222.049 147.615 222.049 147.615C222.049 147.615 221.718 157.979 215.117 164.576Z" fill="#FAB999"/>
<path fill-rule="evenodd" clip-rule="evenodd" d="M247.234 112.893C247.234 112.893 240.135 105.33 240.135 96.0013C240.135 86.6724 247.234 79.1099 247.234 79.1099C247.234 79.1099 254.332 86.6724 254.332 96.0013C254.332 105.33 247.234 112.893 247.234 112.893ZM246.747 129.263C246.747 129.263 236.377 128.932 229.777 122.335C223.177 115.739 222.845 105.375 222.845 105.375C222.845 105.375 233.215 105.706 239.815 112.303C246.416 118.899 246.747 129.263 246.747 129.263ZM229.777 143.281C236.377 149.877 246.747 150.208 246.747 150.208C246.747 150.208 246.416 139.844 239.815 133.248C233.215 126.651 222.845 126.32 222.845 126.32C222.845 126.32 223.177 136.684 229.777 143.281ZM229.777 164.902C236.377 171.498 246.747 171.829 246.747 171.829C246.747 171.829 246.416 161.465 239.815 154.869C233.215 148.272 222.845 147.941 222.845 147.941C222.845 147.941 223.177 158.305 229.777 164.902ZM264.153 143.281C257.553 149.877 247.183 150.208 247.183 150.208C247.183 150.208 247.514 139.844 254.114 133.248C260.714 126.651 271.084 126.32 271.084 126.32C271.084 126.32 270.753 136.684 264.153 143.281ZM247.183 171.829C247.183 171.829 257.553 171.498 264.153 164.902C270.753 158.305 271.084 147.941 271.084 147.941C271.084 147.941 260.714 148.272 254.114 154.869C247.514 161.465 247.183 171.829 247.183 171.829ZM229.777 186.523C236.377 193.119 246.747 193.45 246.747 193.45C246.747 193.45 246.416 183.086 239.815 176.49C233.215 169.893 222.845 169.562 222.845 169.562C222.845 169.562 223.177 179.926 229.777 186.523ZM247.183 193.45C247.183 193.45 257.553 193.119 264.153 186.523C270.753 179.926 271.084 169.562 271.084 169.562C271.084 169.562 260.714 169.893 254.114 176.49C247.514 183.086 247.183 193.45 247.183 193.45ZM229.777 206.792C236.377 213.389 246.747 213.72 246.747 213.72C246.747 213.72 246.416 203.356 239.815 196.76C233.215 190.163 222.845 189.832 222.845 189.832C222.845 189.832 223.177 200.196 229.777 206.792ZM247.183 213.72C247.183 213.72 257.553 213.389 264.153 206.792C270.753 200.196 271.084 189.832 271.084 189.832C271.084 189.832 260.714 190.163 254.114 196.76C247.514 203.356 247.183 213.72 247.183 213.72ZM264.153 122.335C257.553 128.932 247.183 129.263 247.183 129.263C247.183 129.263 247.514 118.899 254.114 112.303C260.714 105.706 271.084 105.375 271.084 105.375C271.084 105.375 270.753 115.739 264.153 122.335Z" fill="#67C8AC"/>
<path fill-rule="evenodd" clip-rule="evenodd" d="M298.523 51.9025C298.523 51.9025 289.167 59.5474 279.866 63.4799C275.274 65.4212 266.208 67.7808 259.678 72.9225C253.934 77.4444 250.783 79.4972 249.696 80.1693C249.47 80.3085 249.168 80.1843 249.117 79.9233C248.201 75.235 256.766 70.6299 256.35 67.2731C255.973 64.2266 254.187 62.3279 248.194 63.2515C241.078 64.3484 239.484 70.1166 243.719 73.5883C245.173 74.7802 245.492 76.8331 245.585 77.8218C245.613 78.1128 245.327 78.3333 245.056 78.2276C241.915 77.0005 235.739 71.9723 235.859 68.6557C235.988 65.1276 241.618 61.0305 241.618 61.0305C241.618 61.0305 222.066 63.976 217.036 65.5482C216.709 65.65 216.42 65.3042 216.575 64.998C217.026 64.109 218.051 62.682 220.263 61.6144C223.719 59.9471 241.683 55.5794 241.683 55.5794C241.683 55.5794 228.875 54.938 221.174 55.8533C217.118 56.3355 218.407 54.3888 221.032 53.3996C225.897 51.5665 243.748 49.5227 243.748 49.5227C243.748 49.5227 228.047 46.1952 224.758 45.2738C222.184 44.5531 225.347 43.3307 230.505 43.1231C236.483 42.8827 271.097 47.9437 271.097 47.9437L294.055 36.9863" fill="#4840BB"/>
<path fill-rule="evenodd" clip-rule="evenodd" d="M308.706 52.3888L301.068 62.8743L279.037 44.0486L303.242 31.0784L308.706 52.3888Z" fill="#4840BB"/>
</svg>
