<?xml version="1.0" encoding="utf-8"?>
<svg width="497" height="194" viewBox="0 0 497 194" fill="none" xmlns="http://www.w3.org/2000/svg">
<path opacity="0.1" fill-rule="evenodd" clip-rule="evenodd" d="M276.878 44.8514H387.299C387.299 44.8514 389.324 43.373 387.299 42.2854C375.235 35.808 367.131 31.5988 360.41 31.5988C348.636 31.5988 345.716 33.35 340.101 33.35C334.486 33.35 328.058 20.8822 310.886 20.8822C293.714 20.8822 295.011 0.376343 276.878 0.376343C258.745 0.376343 253.644 20.3423 248.464 22.6139C243.284 24.8855 235.74 21.3961 224.467 23.3608C213.194 25.3256 200.215 43.2996 200.215 43.2996" fill="#4840BB"/>
<path fill-rule="evenodd" clip-rule="evenodd" d="M70.8607 194L171.971 77.1356L183.792 94.2655L247.741 27.2683L283.435 71.0449L297.622 59.9074L358.035 154.474L369.659 144.133L397.878 194H70.8607Z" fill="#4840BB"/>
<path fill-rule="evenodd" clip-rule="evenodd" d="M171.688 77.5162L159.031 116.725L168.383 122.815L135.251 194H70.8607L171.688 77.5162Z" fill="url(#paint0_linear)"/>
<path fill-rule="evenodd" clip-rule="evenodd" d="M247.737 27.2683L232.904 59.3423L247.737 63.9103L238.565 80.723L253.489 84.5563L218.733 134.71L183.976 93.9829" fill="url(#paint1_linear)"/>
<path opacity="0.5" fill-rule="evenodd" clip-rule="evenodd" d="M299.511 193.937H494.446C494.446 193.937 498.022 192.244 494.446 190.998C473.149 183.578 458.842 178.756 446.977 178.756C426.191 178.756 421.036 180.762 411.124 180.762C401.212 180.762 389.863 166.48 359.548 166.48C329.233 166.48 331.523 142.991 299.511 142.991C267.5 142.991 258.495 165.862 249.35 168.464C240.205 171.066 226.887 167.069 206.986 169.32C187.085 171.57 164.172 193.937 164.172 193.937" fill="white"/>
<path opacity="0.5" fill-rule="evenodd" clip-rule="evenodd" d="M150.279 194H1.21529C1.21529 194 -1.51906 192.713 1.21529 191.766C17.5009 186.126 28.4408 182.461 37.5139 182.461C53.4085 182.461 57.3507 183.986 64.9303 183.986C72.5099 183.986 81.1884 173.13 104.37 173.13C127.551 173.13 125.8 155.275 150.279 155.275C174.757 155.275 181.644 172.66 188.636 174.638C195.629 176.616 205.813 173.577 221.032 175.288C236.25 176.999 253.771 194 253.771 194" fill="white"/>
<path fill-rule="evenodd" clip-rule="evenodd" d="M283.762 71.0449L290.39 77.1356L297.889 59.2443L283.762 71.0449Z" fill="url(#paint2_linear)"/>
<defs>
<linearGradient id="paint0_linear" x1="210.433" y1="-80.7756" x2="-1.52426" y2="34.7192" gradientUnits="userSpaceOnUse">
<stop stop-color="#FAC5A6"/>
<stop offset="1" stop-color="#8F53D7"/>
</linearGradient>
<linearGradient id="paint1_linear" x1="280.201" y1="-118.736" x2="117.649" y2="-52.532" gradientUnits="userSpaceOnUse">
<stop stop-color="#FAC5A6"/>
<stop offset="1" stop-color="#8F53D7"/>
</linearGradient>
<linearGradient id="paint2_linear" x1="303.318" y1="34.9315" x2="272.433" y2="50.2826" gradientUnits="userSpaceOnUse">
<stop stop-color="#FAC5A6"/>
<stop offset="1" stop-color="#8F53D7"/>
</linearGradient>
</defs>
</svg>
