<svg width="40" height="37" viewBox="0 0 40 37" fill="none" xmlns="http://www.w3.org/2000/svg">
<path fill-rule="evenodd" clip-rule="evenodd" d="M33.8966 0C34.1095 0.00686458 34.3016 0.0199463 34.4699 0.0398341C34.9061 0.0912564 34.8399 0.461352 34.7415 1.01505C32.3026 14.764 31.223 29.5768 39.8183 36.659C39.9087 36.7376 40.0337 36.9023 39.9916 36.9635C39.9498 37.0247 39.6969 36.9918 39.5932 36.9856C35.3618 36.7372 18.298 30.3236 19.0224 2.80106C19.0339 2.35999 19.0962 2.15829 19.7871 1.96781C22.0969 1.33113 29.3986 0.0948176 33.0868 0H33.8966ZM6.62594 13.8621C7.02862 13.5934 11.5944 11.4668 15.7919 10.0478C16.6324 9.79491 16.627 10.617 16.6672 10.8329C20.5889 31.9579 30.1744 34.6162 32.8702 36.7054C33.2327 36.9332 32.7683 37.0181 32.3086 36.9968C12.9276 37.0548 7.09173 20.2042 6.01887 14.6799C5.9199 14.1705 6.22325 14.1305 6.62594 13.8621ZM0.427059 27.2627C1.42045 26.1139 4.31115 23.8083 5.5143 23.0539C5.87913 22.8254 6.14324 23.3531 6.46567 24.0722C7.7652 26.7065 9.70199 29.4782 11.6062 31.3026C15.412 34.9487 19.5743 36.3408 19.7859 36.5037C20.1105 36.754 20.1076 36.9525 19.4856 36.9743C6.31713 37.4367 0.935348 31.5469 0.0365123 28.1353C-0.0605808 27.7668 0.0249191 27.7277 0.427059 27.2627Z" fill="white"/>
</svg>
