<svg width="32" height="32" viewBox="0 0 32 32" fill="none" xmlns="http://www.w3.org/2000/svg">
<path fill-rule="evenodd" clip-rule="evenodd" d="M8.59971 20.327C7.73326 21.1934 7.73326 22.5982 8.59971 23.4646L8.79291 23.6579C9.76607 24.631 11.3439 24.631 12.317 23.6579L16.9539 19.0209C17.9271 18.0478 17.9271 16.47 16.9539 15.4968C16.4332 14.9761 16.4332 14.1319 16.9539 13.6112C17.4746 13.0905 18.3188 13.0905 18.8395 13.6112C20.8541 15.6258 20.8541 18.892 18.8395 20.9066L14.2026 25.5435C12.1881 27.558 8.92185 27.558 6.90729 25.5435L6.71409 25.3503C4.80624 23.4424 4.80624 20.3492 6.71409 18.4413L7.96992 17.1855C8.49062 16.6648 9.33484 16.6648 9.85554 17.1855C10.3762 17.7062 10.3762 18.5504 9.85554 19.0711L8.59971 20.327Z" fill="#161338" fill-opacity="0.3"/>
<path fill-rule="evenodd" clip-rule="evenodd" d="M23.212 11.486C24.0785 10.6195 24.0785 9.21473 23.212 8.34828L23.0188 8.15508C22.0457 7.18192 20.4679 7.18192 19.4947 8.15508L14.8578 12.792C13.8847 13.7651 13.8847 15.3429 14.8578 16.3161C15.3785 16.8368 15.3785 17.681 14.8578 18.2017C14.3371 18.7224 13.4929 18.7224 12.9722 18.2017C10.9576 16.1872 10.9576 12.9209 12.9722 10.9064L17.6091 6.26946C19.6237 4.2549 22.8899 4.25491 24.9044 6.26946L25.0976 6.46267C27.0055 8.37052 27.0055 11.4637 25.0976 13.3716L23.8418 14.6274C23.3211 15.1481 22.4769 15.1481 21.9562 14.6274C21.4355 14.1067 21.4355 13.2625 21.9562 12.7418L23.212 11.486Z" fill="#161338" fill-opacity="0.3"/>
</svg>
