<svg width="32" height="32" viewBox="0 0 32 32" fill="none" xmlns="http://www.w3.org/2000/svg">
<path d="M28.6663 7.85871C27.7342 8.28705 26.7325 8.57655 25.6812 8.70675C26.7543 8.04019 27.5784 6.98475 27.9665 5.72718C26.9623 6.3443 25.8499 6.79252 24.666 7.0341C23.7179 5.9874 22.3672 5.33331 20.8723 5.33331C18.0019 5.33331 15.6747 7.74464 15.6747 10.7188C15.6747 11.1409 15.7208 11.552 15.8093 11.9461C11.4897 11.7216 7.66003 9.57745 5.09658 6.31914C4.6492 7.11456 4.3929 8.03971 4.3929 9.02669C4.3929 10.8951 5.31054 12.5436 6.70513 13.5093C5.85309 13.4814 5.05173 13.2391 4.35092 12.8358C4.35055 12.8582 4.35055 12.8808 4.35055 12.9035C4.35055 15.5129 6.14211 17.6896 8.51977 18.1843C8.0836 18.3074 7.62445 18.3732 7.15038 18.3732C6.8155 18.3732 6.48988 18.3395 6.17259 18.2766C6.83394 20.4163 8.75337 21.9733 11.0277 22.0168C9.24894 23.4612 7.00787 24.3222 4.57285 24.3222C4.15336 24.3222 3.73962 24.2968 3.33301 24.2471C5.63311 25.7751 8.36511 26.6666 11.3002 26.6666C20.8602 26.6666 26.0879 18.4602 26.0879 11.3433C26.0879 11.1098 26.0829 10.8776 26.0729 10.6466C27.0883 9.88731 27.9695 8.93873 28.6663 7.85871Z" fill="#161338" fill-opacity="0.3"/>
</svg>
